<?xml version="1.0" encoding="utf-8" standalone="no"?>
<!DOCTYPE svg PUBLIC "-//W3C//DTD SVG 1.1//EN"
  "http://www.w3.org/Graphics/SVG/1.1/DTD/svg11.dtd">
<svg xmlns:xlink="http://www.w3.org/1999/xlink" width="576pt" height="248.4pt" viewBox="0 0 576 248.4" xmlns="http://www.w3.org/2000/svg" version="1.1">
 <metadata>
  <rdf:RDF xmlns:dc="http://purl.org/dc/elements/1.1/" xmlns:cc="http://creativecommons.org/ns#" xmlns:rdf="http://www.w3.org/1999/02/22-rdf-syntax-ns#">
   <cc:Work>
    <dc:type rdf:resource="http://purl.org/dc/dcmitype/StillImage"/>
    <dc:date>2024-10-20T18:26:43.410270</dc:date>
    <dc:format>image/svg+xml</dc:format>
    <dc:creator>
     <cc:Agent>
      <dc:title>Matplotlib v3.5.2, https://matplotlib.org/</dc:title>
     </cc:Agent>
    </dc:creator>
   </cc:Work>
  </rdf:RDF>
 </metadata>
 <defs>
  <style type="text/css">*{stroke-linejoin: round; stroke-linecap: butt}</style>
 </defs>
 <g id="figure_1">
  <g id="patch_1">
   <path d="M 0 248.4 
L 576 248.4 
L 576 0 
L 0 0 
z
" style="fill: #ffffff"/>
  </g>
  <g id="axes_1">
   <g id="patch_2">
    <path d="M 68.719063 200.648125 
L 550.752184 200.648125 
L 550.752184 55.609187 
L 68.719063 55.609187 
z
" style="fill: #eaeaf2"/>
   </g>
   <g id="matplotlib.axis_1">
    <g id="xtick_1">
     <g id="line2d_1">
      <path d="M 90.191447 200.648125 
L 90.191447 55.609187 
" clip-path="url(#pf4971f19d2)" style="fill: none; stroke: #ffffff; stroke-linecap: round"/>
     </g>
     <g id="text_1">
      <!-- 0 -->
      <g style="fill: #262626" transform="translate(87.010197 217.746562)scale(0.1 -0.1)">
       <defs>
        <path id="DejaVuSans-30" d="M 2034 4250 
Q 1547 4250 1301 3770 
Q 1056 3291 1056 2328 
Q 1056 1369 1301 889 
Q 1547 409 2034 409 
Q 2525 409 2770 889 
Q 3016 1369 3016 2328 
Q 3016 3291 2770 3770 
Q 2525 4250 2034 4250 
z
M 2034 4750 
Q 2819 4750 3233 4129 
Q 3647 3509 3647 2328 
Q 3647 1150 3233 529 
Q 2819 -91 2034 -91 
Q 1250 -91 836 529 
Q 422 1150 422 2328 
Q 422 3509 836 4129 
Q 1250 4750 2034 4750 
z
" transform="scale(0.015625)"/>
       </defs>
       <use xlink:href="#DejaVuSans-30"/>
      </g>
     </g>
    </g>
    <g id="xtick_2">
     <g id="line2d_2">
      <path d="M 155.923236 200.648125 
L 155.923236 55.609187 
" clip-path="url(#pf4971f19d2)" style="fill: none; stroke: #ffffff; stroke-linecap: round"/>
     </g>
     <g id="text_2">
      <!-- 150 -->
      <g style="fill: #262626" transform="translate(146.379486 217.746562)scale(0.1 -0.1)">
       <defs>
        <path id="DejaVuSans-31" d="M 794 531 
L 1825 531 
L 1825 4091 
L 703 3866 
L 703 4441 
L 1819 4666 
L 2450 4666 
L 2450 531 
L 3481 531 
L 3481 0 
L 794 0 
L 794 531 
z
" transform="scale(0.015625)"/>
        <path id="DejaVuSans-35" d="M 691 4666 
L 3169 4666 
L 3169 4134 
L 1269 4134 
L 1269 2991 
Q 1406 3038 1543 3061 
Q 1681 3084 1819 3084 
Q 2600 3084 3056 2656 
Q 3513 2228 3513 1497 
Q 3513 744 3044 326 
Q 2575 -91 1722 -91 
Q 1428 -91 1123 -41 
Q 819 9 494 109 
L 494 744 
Q 775 591 1075 516 
Q 1375 441 1709 441 
Q 2250 441 2565 725 
Q 2881 1009 2881 1497 
Q 2881 1984 2565 2268 
Q 2250 2553 1709 2553 
Q 1456 2553 1204 2497 
Q 953 2441 691 2322 
L 691 4666 
z
" transform="scale(0.015625)"/>
       </defs>
       <use xlink:href="#DejaVuSans-31"/>
       <use xlink:href="#DejaVuSans-35" x="63.623047"/>
       <use xlink:href="#DejaVuSans-30" x="127.246094"/>
      </g>
     </g>
    </g>
    <g id="xtick_3">
     <g id="line2d_3">
      <path d="M 221.655026 200.648125 
L 221.655026 55.609187 
" clip-path="url(#pf4971f19d2)" style="fill: none; stroke: #ffffff; stroke-linecap: round"/>
     </g>
     <g id="text_3">
      <!-- 300 -->
      <g style="fill: #262626" transform="translate(212.111276 217.746562)scale(0.1 -0.1)">
       <defs>
        <path id="DejaVuSans-33" d="M 2597 2516 
Q 3050 2419 3304 2112 
Q 3559 1806 3559 1356 
Q 3559 666 3084 287 
Q 2609 -91 1734 -91 
Q 1441 -91 1130 -33 
Q 819 25 488 141 
L 488 750 
Q 750 597 1062 519 
Q 1375 441 1716 441 
Q 2309 441 2620 675 
Q 2931 909 2931 1356 
Q 2931 1769 2642 2001 
Q 2353 2234 1838 2234 
L 1294 2234 
L 1294 2753 
L 1863 2753 
Q 2328 2753 2575 2939 
Q 2822 3125 2822 3475 
Q 2822 3834 2567 4026 
Q 2313 4219 1838 4219 
Q 1578 4219 1281 4162 
Q 984 4106 628 3988 
L 628 4550 
Q 988 4650 1302 4700 
Q 1616 4750 1894 4750 
Q 2613 4750 3031 4423 
Q 3450 4097 3450 3541 
Q 3450 3153 3228 2886 
Q 3006 2619 2597 2516 
z
" transform="scale(0.015625)"/>
       </defs>
       <use xlink:href="#DejaVuSans-33"/>
       <use xlink:href="#DejaVuSans-30" x="63.623047"/>
       <use xlink:href="#DejaVuSans-30" x="127.246094"/>
      </g>
     </g>
    </g>
    <g id="xtick_4">
     <g id="line2d_4">
      <path d="M 287.386815 200.648125 
L 287.386815 55.609187 
" clip-path="url(#pf4971f19d2)" style="fill: none; stroke: #ffffff; stroke-linecap: round"/>
     </g>
     <g id="text_4">
      <!-- 450 -->
      <g style="fill: #262626" transform="translate(277.843065 217.746562)scale(0.1 -0.1)">
       <defs>
        <path id="DejaVuSans-34" d="M 2419 4116 
L 825 1625 
L 2419 1625 
L 2419 4116 
z
M 2253 4666 
L 3047 4666 
L 3047 1625 
L 3713 1625 
L 3713 1100 
L 3047 1100 
L 3047 0 
L 2419 0 
L 2419 1100 
L 313 1100 
L 313 1709 
L 2253 4666 
z
" transform="scale(0.015625)"/>
       </defs>
       <use xlink:href="#DejaVuSans-34"/>
       <use xlink:href="#DejaVuSans-35" x="63.623047"/>
       <use xlink:href="#DejaVuSans-30" x="127.246094"/>
      </g>
     </g>
    </g>
    <g id="xtick_5">
     <g id="line2d_5">
      <path d="M 353.118604 200.648125 
L 353.118604 55.609187 
" clip-path="url(#pf4971f19d2)" style="fill: none; stroke: #ffffff; stroke-linecap: round"/>
     </g>
     <g id="text_5">
      <!-- 600 -->
      <g style="fill: #262626" transform="translate(343.574854 217.746562)scale(0.1 -0.1)">
       <defs>
        <path id="DejaVuSans-36" d="M 2113 2584 
Q 1688 2584 1439 2293 
Q 1191 2003 1191 1497 
Q 1191 994 1439 701 
Q 1688 409 2113 409 
Q 2538 409 2786 701 
Q 3034 994 3034 1497 
Q 3034 2003 2786 2293 
Q 2538 2584 2113 2584 
z
M 3366 4563 
L 3366 3988 
Q 3128 4100 2886 4159 
Q 2644 4219 2406 4219 
Q 1781 4219 1451 3797 
Q 1122 3375 1075 2522 
Q 1259 2794 1537 2939 
Q 1816 3084 2150 3084 
Q 2853 3084 3261 2657 
Q 3669 2231 3669 1497 
Q 3669 778 3244 343 
Q 2819 -91 2113 -91 
Q 1303 -91 875 529 
Q 447 1150 447 2328 
Q 447 3434 972 4092 
Q 1497 4750 2381 4750 
Q 2619 4750 2861 4703 
Q 3103 4656 3366 4563 
z
" transform="scale(0.015625)"/>
       </defs>
       <use xlink:href="#DejaVuSans-36"/>
       <use xlink:href="#DejaVuSans-30" x="63.623047"/>
       <use xlink:href="#DejaVuSans-30" x="127.246094"/>
      </g>
     </g>
    </g>
    <g id="xtick_6">
     <g id="line2d_6">
      <path d="M 418.850393 200.648125 
L 418.850393 55.609187 
" clip-path="url(#pf4971f19d2)" style="fill: none; stroke: #ffffff; stroke-linecap: round"/>
     </g>
     <g id="text_6">
      <!-- 750 -->
      <g style="fill: #262626" transform="translate(409.306643 217.746562)scale(0.1 -0.1)">
       <defs>
        <path id="DejaVuSans-37" d="M 525 4666 
L 3525 4666 
L 3525 4397 
L 1831 0 
L 1172 0 
L 2766 4134 
L 525 4134 
L 525 4666 
z
" transform="scale(0.015625)"/>
       </defs>
       <use xlink:href="#DejaVuSans-37"/>
       <use xlink:href="#DejaVuSans-35" x="63.623047"/>
       <use xlink:href="#DejaVuSans-30" x="127.246094"/>
      </g>
     </g>
    </g>
    <g id="xtick_7">
     <g id="line2d_7">
      <path d="M 484.582183 200.648125 
L 484.582183 55.609187 
" clip-path="url(#pf4971f19d2)" style="fill: none; stroke: #ffffff; stroke-linecap: round"/>
     </g>
     <g id="text_7">
      <!-- 900 -->
      <g style="fill: #262626" transform="translate(475.038433 217.746562)scale(0.1 -0.1)">
       <defs>
        <path id="DejaVuSans-39" d="M 703 97 
L 703 672 
Q 941 559 1184 500 
Q 1428 441 1663 441 
Q 2288 441 2617 861 
Q 2947 1281 2994 2138 
Q 2813 1869 2534 1725 
Q 2256 1581 1919 1581 
Q 1219 1581 811 2004 
Q 403 2428 403 3163 
Q 403 3881 828 4315 
Q 1253 4750 1959 4750 
Q 2769 4750 3195 4129 
Q 3622 3509 3622 2328 
Q 3622 1225 3098 567 
Q 2575 -91 1691 -91 
Q 1453 -91 1209 -44 
Q 966 3 703 97 
z
M 1959 2075 
Q 2384 2075 2632 2365 
Q 2881 2656 2881 3163 
Q 2881 3666 2632 3958 
Q 2384 4250 1959 4250 
Q 1534 4250 1286 3958 
Q 1038 3666 1038 3163 
Q 1038 2656 1286 2365 
Q 1534 2075 1959 2075 
z
" transform="scale(0.015625)"/>
       </defs>
       <use xlink:href="#DejaVuSans-39"/>
       <use xlink:href="#DejaVuSans-30" x="63.623047"/>
       <use xlink:href="#DejaVuSans-30" x="127.246094"/>
      </g>
     </g>
    </g>
    <g id="xtick_8">
     <g id="line2d_8">
      <path d="M 550.313972 200.648125 
L 550.313972 55.609187 
" clip-path="url(#pf4971f19d2)" style="fill: none; stroke: #ffffff; stroke-linecap: round"/>
     </g>
     <g id="text_8">
      <!-- 1050 -->
      <g style="fill: #262626" transform="translate(537.588972 217.746562)scale(0.1 -0.1)">
       <use xlink:href="#DejaVuSans-31"/>
       <use xlink:href="#DejaVuSans-30" x="63.623047"/>
       <use xlink:href="#DejaVuSans-35" x="127.246094"/>
       <use xlink:href="#DejaVuSans-30" x="190.869141"/>
      </g>
     </g>
    </g>
    <g id="text_9">
     <!-- Frames -->
     <g style="fill: #262626" transform="translate(287.914373 232.944375)scale(0.12 -0.12)">
      <defs>
       <path id="DejaVuSans-46" d="M 628 4666 
L 3309 4666 
L 3309 4134 
L 1259 4134 
L 1259 2759 
L 3109 2759 
L 3109 2228 
L 1259 2228 
L 1259 0 
L 628 0 
L 628 4666 
z
" transform="scale(0.015625)"/>
       <path id="DejaVuSans-72" d="M 2631 2963 
Q 2534 3019 2420 3045 
Q 2306 3072 2169 3072 
Q 1681 3072 1420 2755 
Q 1159 2438 1159 1844 
L 1159 0 
L 581 0 
L 581 3500 
L 1159 3500 
L 1159 2956 
Q 1341 3275 1631 3429 
Q 1922 3584 2338 3584 
Q 2397 3584 2469 3576 
Q 2541 3569 2628 3553 
L 2631 2963 
z
" transform="scale(0.015625)"/>
       <path id="DejaVuSans-61" d="M 2194 1759 
Q 1497 1759 1228 1600 
Q 959 1441 959 1056 
Q 959 750 1161 570 
Q 1363 391 1709 391 
Q 2188 391 2477 730 
Q 2766 1069 2766 1631 
L 2766 1759 
L 2194 1759 
z
M 3341 1997 
L 3341 0 
L 2766 0 
L 2766 531 
Q 2569 213 2275 61 
Q 1981 -91 1556 -91 
Q 1019 -91 701 211 
Q 384 513 384 1019 
Q 384 1609 779 1909 
Q 1175 2209 1959 2209 
L 2766 2209 
L 2766 2266 
Q 2766 2663 2505 2880 
Q 2244 3097 1772 3097 
Q 1472 3097 1187 3025 
Q 903 2953 641 2809 
L 641 3341 
Q 956 3463 1253 3523 
Q 1550 3584 1831 3584 
Q 2591 3584 2966 3190 
Q 3341 2797 3341 1997 
z
" transform="scale(0.015625)"/>
       <path id="DejaVuSans-6d" d="M 3328 2828 
Q 3544 3216 3844 3400 
Q 4144 3584 4550 3584 
Q 5097 3584 5394 3201 
Q 5691 2819 5691 2113 
L 5691 0 
L 5113 0 
L 5113 2094 
Q 5113 2597 4934 2840 
Q 4756 3084 4391 3084 
Q 3944 3084 3684 2787 
Q 3425 2491 3425 1978 
L 3425 0 
L 2847 0 
L 2847 2094 
Q 2847 2600 2669 2842 
Q 2491 3084 2119 3084 
Q 1678 3084 1418 2786 
Q 1159 2488 1159 1978 
L 1159 0 
L 581 0 
L 581 3500 
L 1159 3500 
L 1159 2956 
Q 1356 3278 1631 3431 
Q 1906 3584 2284 3584 
Q 2666 3584 2933 3390 
Q 3200 3197 3328 2828 
z
" transform="scale(0.015625)"/>
       <path id="DejaVuSans-65" d="M 3597 1894 
L 3597 1613 
L 953 1613 
Q 991 1019 1311 708 
Q 1631 397 2203 397 
Q 2534 397 2845 478 
Q 3156 559 3463 722 
L 3463 178 
Q 3153 47 2828 -22 
Q 2503 -91 2169 -91 
Q 1331 -91 842 396 
Q 353 884 353 1716 
Q 353 2575 817 3079 
Q 1281 3584 2069 3584 
Q 2775 3584 3186 3129 
Q 3597 2675 3597 1894 
z
M 3022 2063 
Q 3016 2534 2758 2815 
Q 2500 3097 2075 3097 
Q 1594 3097 1305 2825 
Q 1016 2553 972 2059 
L 3022 2063 
z
" transform="scale(0.015625)"/>
       <path id="DejaVuSans-73" d="M 2834 3397 
L 2834 2853 
Q 2591 2978 2328 3040 
Q 2066 3103 1784 3103 
Q 1356 3103 1142 2972 
Q 928 2841 928 2578 
Q 928 2378 1081 2264 
Q 1234 2150 1697 2047 
L 1894 2003 
Q 2506 1872 2764 1633 
Q 3022 1394 3022 966 
Q 3022 478 2636 193 
Q 2250 -91 1575 -91 
Q 1294 -91 989 -36 
Q 684 19 347 128 
L 347 722 
Q 666 556 975 473 
Q 1284 391 1588 391 
Q 1994 391 2212 530 
Q 2431 669 2431 922 
Q 2431 1156 2273 1281 
Q 2116 1406 1581 1522 
L 1381 1569 
Q 847 1681 609 1914 
Q 372 2147 372 2553 
Q 372 3047 722 3315 
Q 1072 3584 1716 3584 
Q 2034 3584 2315 3537 
Q 2597 3491 2834 3397 
z
" transform="scale(0.015625)"/>
      </defs>
      <use xlink:href="#DejaVuSans-46"/>
      <use xlink:href="#DejaVuSans-72" x="50.269531"/>
      <use xlink:href="#DejaVuSans-61" x="91.382812"/>
      <use xlink:href="#DejaVuSans-6d" x="152.662109"/>
      <use xlink:href="#DejaVuSans-65" x="250.074219"/>
      <use xlink:href="#DejaVuSans-73" x="311.597656"/>
     </g>
    </g>
   </g>
   <g id="matplotlib.axis_2">
    <g id="ytick_1">
     <g id="line2d_9">
      <path d="M 68.719063 185.350691 
L 550.752184 185.350691 
" clip-path="url(#pf4971f19d2)" style="fill: none; stroke: #ffffff; stroke-linecap: round"/>
     </g>
     <g id="text_10">
      <!-- −13.5 -->
      <g style="fill: #262626" transform="translate(28.57375 189.14991)scale(0.1 -0.1)">
       <defs>
        <path id="DejaVuSans-2212" d="M 678 2272 
L 4684 2272 
L 4684 1741 
L 678 1741 
L 678 2272 
z
" transform="scale(0.015625)"/>
        <path id="DejaVuSans-2e" d="M 684 794 
L 1344 794 
L 1344 0 
L 684 0 
L 684 794 
z
" transform="scale(0.015625)"/>
       </defs>
       <use xlink:href="#DejaVuSans-2212"/>
       <use xlink:href="#DejaVuSans-31" x="83.789062"/>
       <use xlink:href="#DejaVuSans-33" x="147.412109"/>
       <use xlink:href="#DejaVuSans-2e" x="211.035156"/>
       <use xlink:href="#DejaVuSans-35" x="242.822266"/>
      </g>
     </g>
    </g>
    <g id="ytick_2">
     <g id="line2d_10">
      <path d="M 68.719063 168.314115 
L 550.752184 168.314115 
" clip-path="url(#pf4971f19d2)" style="fill: none; stroke: #ffffff; stroke-linecap: round"/>
     </g>
     <g id="text_11">
      <!-- −12.0 -->
      <g style="fill: #262626" transform="translate(28.57375 172.113334)scale(0.1 -0.1)">
       <defs>
        <path id="DejaVuSans-32" d="M 1228 531 
L 3431 531 
L 3431 0 
L 469 0 
L 469 531 
Q 828 903 1448 1529 
Q 2069 2156 2228 2338 
Q 2531 2678 2651 2914 
Q 2772 3150 2772 3378 
Q 2772 3750 2511 3984 
Q 2250 4219 1831 4219 
Q 1534 4219 1204 4116 
Q 875 4013 500 3803 
L 500 4441 
Q 881 4594 1212 4672 
Q 1544 4750 1819 4750 
Q 2544 4750 2975 4387 
Q 3406 4025 3406 3419 
Q 3406 3131 3298 2873 
Q 3191 2616 2906 2266 
Q 2828 2175 2409 1742 
Q 1991 1309 1228 531 
z
" transform="scale(0.015625)"/>
       </defs>
       <use xlink:href="#DejaVuSans-2212"/>
       <use xlink:href="#DejaVuSans-31" x="83.789062"/>
       <use xlink:href="#DejaVuSans-32" x="147.412109"/>
       <use xlink:href="#DejaVuSans-2e" x="211.035156"/>
       <use xlink:href="#DejaVuSans-30" x="242.822266"/>
      </g>
     </g>
    </g>
    <g id="ytick_3">
     <g id="line2d_11">
      <path d="M 68.719063 151.277538 
L 550.752184 151.277538 
" clip-path="url(#pf4971f19d2)" style="fill: none; stroke: #ffffff; stroke-linecap: round"/>
     </g>
     <g id="text_12">
      <!-- −10.5 -->
      <g style="fill: #262626" transform="translate(28.57375 155.076757)scale(0.1 -0.1)">
       <use xlink:href="#DejaVuSans-2212"/>
       <use xlink:href="#DejaVuSans-31" x="83.789062"/>
       <use xlink:href="#DejaVuSans-30" x="147.412109"/>
       <use xlink:href="#DejaVuSans-2e" x="211.035156"/>
       <use xlink:href="#DejaVuSans-35" x="242.822266"/>
      </g>
     </g>
    </g>
    <g id="ytick_4">
     <g id="line2d_12">
      <path d="M 68.719063 134.240962 
L 550.752184 134.240962 
" clip-path="url(#pf4971f19d2)" style="fill: none; stroke: #ffffff; stroke-linecap: round"/>
     </g>
     <g id="text_13">
      <!-- −9.0 -->
      <g style="fill: #262626" transform="translate(34.93625 138.040181)scale(0.1 -0.1)">
       <use xlink:href="#DejaVuSans-2212"/>
       <use xlink:href="#DejaVuSans-39" x="83.789062"/>
       <use xlink:href="#DejaVuSans-2e" x="147.412109"/>
       <use xlink:href="#DejaVuSans-30" x="179.199219"/>
      </g>
     </g>
    </g>
    <g id="ytick_5">
     <g id="line2d_13">
      <path d="M 68.719063 117.204385 
L 550.752184 117.204385 
" clip-path="url(#pf4971f19d2)" style="fill: none; stroke: #ffffff; stroke-linecap: round"/>
     </g>
     <g id="text_14">
      <!-- −7.5 -->
      <g style="fill: #262626" transform="translate(34.93625 121.003604)scale(0.1 -0.1)">
       <use xlink:href="#DejaVuSans-2212"/>
       <use xlink:href="#DejaVuSans-37" x="83.789062"/>
       <use xlink:href="#DejaVuSans-2e" x="147.412109"/>
       <use xlink:href="#DejaVuSans-35" x="179.199219"/>
      </g>
     </g>
    </g>
    <g id="ytick_6">
     <g id="line2d_14">
      <path d="M 68.719063 100.167809 
L 550.752184 100.167809 
" clip-path="url(#pf4971f19d2)" style="fill: none; stroke: #ffffff; stroke-linecap: round"/>
     </g>
     <g id="text_15">
      <!-- −6.0 -->
      <g style="fill: #262626" transform="translate(34.93625 103.967028)scale(0.1 -0.1)">
       <use xlink:href="#DejaVuSans-2212"/>
       <use xlink:href="#DejaVuSans-36" x="83.789062"/>
       <use xlink:href="#DejaVuSans-2e" x="147.412109"/>
       <use xlink:href="#DejaVuSans-30" x="179.199219"/>
      </g>
     </g>
    </g>
    <g id="ytick_7">
     <g id="line2d_15">
      <path d="M 68.719063 83.131233 
L 550.752184 83.131233 
" clip-path="url(#pf4971f19d2)" style="fill: none; stroke: #ffffff; stroke-linecap: round"/>
     </g>
     <g id="text_16">
      <!-- −4.5 -->
      <g style="fill: #262626" transform="translate(34.93625 86.930451)scale(0.1 -0.1)">
       <use xlink:href="#DejaVuSans-2212"/>
       <use xlink:href="#DejaVuSans-34" x="83.789062"/>
       <use xlink:href="#DejaVuSans-2e" x="147.412109"/>
       <use xlink:href="#DejaVuSans-35" x="179.199219"/>
      </g>
     </g>
    </g>
    <g id="ytick_8">
     <g id="line2d_16">
      <path d="M 68.719063 66.094656 
L 550.752184 66.094656 
" clip-path="url(#pf4971f19d2)" style="fill: none; stroke: #ffffff; stroke-linecap: round"/>
     </g>
     <g id="text_17">
      <!-- −3.0 -->
      <g style="fill: #262626" transform="translate(34.93625 69.893875)scale(0.1 -0.1)">
       <use xlink:href="#DejaVuSans-2212"/>
       <use xlink:href="#DejaVuSans-33" x="83.789062"/>
       <use xlink:href="#DejaVuSans-2e" x="147.412109"/>
       <use xlink:href="#DejaVuSans-30" x="179.199219"/>
      </g>
     </g>
    </g>
    <g id="text_18">
     <!-- Energy (kcal/mol) -->
     <g style="fill: #262626" transform="translate(22.078125 181.045844)rotate(-90)scale(0.12 -0.12)">
      <defs>
       <path id="DejaVuSans-45" d="M 628 4666 
L 3578 4666 
L 3578 4134 
L 1259 4134 
L 1259 2753 
L 3481 2753 
L 3481 2222 
L 1259 2222 
L 1259 531 
L 3634 531 
L 3634 0 
L 628 0 
L 628 4666 
z
" transform="scale(0.015625)"/>
       <path id="DejaVuSans-6e" d="M 3513 2113 
L 3513 0 
L 2938 0 
L 2938 2094 
Q 2938 2591 2744 2837 
Q 2550 3084 2163 3084 
Q 1697 3084 1428 2787 
Q 1159 2491 1159 1978 
L 1159 0 
L 581 0 
L 581 3500 
L 1159 3500 
L 1159 2956 
Q 1366 3272 1645 3428 
Q 1925 3584 2291 3584 
Q 2894 3584 3203 3211 
Q 3513 2838 3513 2113 
z
" transform="scale(0.015625)"/>
       <path id="DejaVuSans-67" d="M 2906 1791 
Q 2906 2416 2648 2759 
Q 2391 3103 1925 3103 
Q 1463 3103 1205 2759 
Q 947 2416 947 1791 
Q 947 1169 1205 825 
Q 1463 481 1925 481 
Q 2391 481 2648 825 
Q 2906 1169 2906 1791 
z
M 3481 434 
Q 3481 -459 3084 -895 
Q 2688 -1331 1869 -1331 
Q 1566 -1331 1297 -1286 
Q 1028 -1241 775 -1147 
L 775 -588 
Q 1028 -725 1275 -790 
Q 1522 -856 1778 -856 
Q 2344 -856 2625 -561 
Q 2906 -266 2906 331 
L 2906 616 
Q 2728 306 2450 153 
Q 2172 0 1784 0 
Q 1141 0 747 490 
Q 353 981 353 1791 
Q 353 2603 747 3093 
Q 1141 3584 1784 3584 
Q 2172 3584 2450 3431 
Q 2728 3278 2906 2969 
L 2906 3500 
L 3481 3500 
L 3481 434 
z
" transform="scale(0.015625)"/>
       <path id="DejaVuSans-79" d="M 2059 -325 
Q 1816 -950 1584 -1140 
Q 1353 -1331 966 -1331 
L 506 -1331 
L 506 -850 
L 844 -850 
Q 1081 -850 1212 -737 
Q 1344 -625 1503 -206 
L 1606 56 
L 191 3500 
L 800 3500 
L 1894 763 
L 2988 3500 
L 3597 3500 
L 2059 -325 
z
" transform="scale(0.015625)"/>
       <path id="DejaVuSans-20" transform="scale(0.015625)"/>
       <path id="DejaVuSans-28" d="M 1984 4856 
Q 1566 4138 1362 3434 
Q 1159 2731 1159 2009 
Q 1159 1288 1364 580 
Q 1569 -128 1984 -844 
L 1484 -844 
Q 1016 -109 783 600 
Q 550 1309 550 2009 
Q 550 2706 781 3412 
Q 1013 4119 1484 4856 
L 1984 4856 
z
" transform="scale(0.015625)"/>
       <path id="DejaVuSans-6b" d="M 581 4863 
L 1159 4863 
L 1159 1991 
L 2875 3500 
L 3609 3500 
L 1753 1863 
L 3688 0 
L 2938 0 
L 1159 1709 
L 1159 0 
L 581 0 
L 581 4863 
z
" transform="scale(0.015625)"/>
       <path id="DejaVuSans-63" d="M 3122 3366 
L 3122 2828 
Q 2878 2963 2633 3030 
Q 2388 3097 2138 3097 
Q 1578 3097 1268 2742 
Q 959 2388 959 1747 
Q 959 1106 1268 751 
Q 1578 397 2138 397 
Q 2388 397 2633 464 
Q 2878 531 3122 666 
L 3122 134 
Q 2881 22 2623 -34 
Q 2366 -91 2075 -91 
Q 1284 -91 818 406 
Q 353 903 353 1747 
Q 353 2603 823 3093 
Q 1294 3584 2113 3584 
Q 2378 3584 2631 3529 
Q 2884 3475 3122 3366 
z
" transform="scale(0.015625)"/>
       <path id="DejaVuSans-6c" d="M 603 4863 
L 1178 4863 
L 1178 0 
L 603 0 
L 603 4863 
z
" transform="scale(0.015625)"/>
       <path id="DejaVuSans-2f" d="M 1625 4666 
L 2156 4666 
L 531 -594 
L 0 -594 
L 1625 4666 
z
" transform="scale(0.015625)"/>
       <path id="DejaVuSans-6f" d="M 1959 3097 
Q 1497 3097 1228 2736 
Q 959 2375 959 1747 
Q 959 1119 1226 758 
Q 1494 397 1959 397 
Q 2419 397 2687 759 
Q 2956 1122 2956 1747 
Q 2956 2369 2687 2733 
Q 2419 3097 1959 3097 
z
M 1959 3584 
Q 2709 3584 3137 3096 
Q 3566 2609 3566 1747 
Q 3566 888 3137 398 
Q 2709 -91 1959 -91 
Q 1206 -91 779 398 
Q 353 888 353 1747 
Q 353 2609 779 3096 
Q 1206 3584 1959 3584 
z
" transform="scale(0.015625)"/>
       <path id="DejaVuSans-29" d="M 513 4856 
L 1013 4856 
Q 1481 4119 1714 3412 
Q 1947 2706 1947 2009 
Q 1947 1309 1714 600 
Q 1481 -109 1013 -844 
L 513 -844 
Q 928 -128 1133 580 
Q 1338 1288 1338 2009 
Q 1338 2731 1133 3434 
Q 928 4138 513 4856 
z
" transform="scale(0.015625)"/>
      </defs>
      <use xlink:href="#DejaVuSans-45"/>
      <use xlink:href="#DejaVuSans-6e" x="63.183594"/>
      <use xlink:href="#DejaVuSans-65" x="126.5625"/>
      <use xlink:href="#DejaVuSans-72" x="188.085938"/>
      <use xlink:href="#DejaVuSans-67" x="227.449219"/>
      <use xlink:href="#DejaVuSans-79" x="290.925781"/>
      <use xlink:href="#DejaVuSans-20" x="350.105469"/>
      <use xlink:href="#DejaVuSans-28" x="381.892578"/>
      <use xlink:href="#DejaVuSans-6b" x="420.90625"/>
      <use xlink:href="#DejaVuSans-63" x="478.816406"/>
      <use xlink:href="#DejaVuSans-61" x="533.796875"/>
      <use xlink:href="#DejaVuSans-6c" x="595.076172"/>
      <use xlink:href="#DejaVuSans-2f" x="622.859375"/>
      <use xlink:href="#DejaVuSans-6d" x="656.550781"/>
      <use xlink:href="#DejaVuSans-6f" x="753.962891"/>
      <use xlink:href="#DejaVuSans-6c" x="815.144531"/>
      <use xlink:href="#DejaVuSans-29" x="842.927734"/>
     </g>
    </g>
   </g>
   <g id="line2d_17">
    <path d="M 90.629659 98.565826 
L 91.067871 96.809541 
L 91.506083 106.853298 
L 91.944295 95.817103 
L 92.382507 94.497618 
L 92.820719 89.867704 
L 93.25893 106.066662 
L 93.697142 113.349758 
L 94.573566 100.263641 
L 95.011778 105.864631 
L 95.44999 130.960544 
L 95.888202 62.201866 
L 96.326414 115.533147 
L 97.202838 91.4803 
L 97.64105 109.746899 
L 98.079262 84.125078 
L 98.517474 121.934938 
L 98.955686 141.337564 
L 99.393897 112.013236 
L 99.832109 108.644664 
L 100.270321 128.927213 
L 100.708533 140.163421 
L 101.146745 108.032765 
L 101.584957 118.665333 
L 102.023169 149.153554 
L 102.461381 117.979527 
L 102.899593 122.523504 
L 103.337805 108.745739 
L 103.776017 145.454727 
L 104.214229 123.46386 
L 104.652441 150.358154 
L 105.090653 140.950438 
L 105.528864 148.598407 
L 105.967076 160.99591 
L 106.405288 117.850412 
L 106.8435 153.647176 
L 107.281712 143.10427 
L 107.719924 136.770816 
L 108.158136 144.743371 
L 108.596348 110.093591 
L 109.03456 137.947512 
L 109.472772 138.920605 
L 109.910984 136.097903 
L 110.349196 139.488418 
L 110.787408 152.731499 
L 111.22562 141.132116 
L 111.663831 149.938709 
L 112.102043 147.313004 
L 112.540255 150.457438 
L 112.978467 152.13928 
L 113.416679 138.136305 
L 113.854891 109.711018 
L 114.293103 143.422477 
L 114.731315 131.81061 
L 115.169527 157.080751 
L 115.607739 116.037039 
L 116.045951 140.013281 
L 116.484163 130.030883 
L 116.922375 151.95921 
L 117.360587 121.043539 
L 117.798798 148.265535 
L 118.675222 156.473213 
L 119.113434 142.644564 
L 119.551646 153.760626 
L 119.989858 157.421882 
L 120.42807 122.498381 
L 120.866282 152.569901 
L 121.304494 143.165566 
L 122.180918 135.587415 
L 122.61913 114.259066 
L 123.057342 98.591385 
L 123.495554 136.855708 
L 123.933765 130.516875 
L 124.371977 136.468065 
L 124.810189 144.340917 
L 125.248401 132.684909 
L 125.686613 130.818055 
L 126.124825 146.518491 
L 126.563037 135.863471 
L 127.001249 151.081868 
L 127.439461 138.13625 
L 127.877673 152.9727 
L 128.315885 107.752084 
L 128.754097 156.382296 
L 129.192309 127.912314 
L 129.630521 170.427632 
L 130.068732 151.327185 
L 130.506944 181.897536 
L 130.945156 95.994865 
L 131.383368 167.206238 
L 131.82158 156.227014 
L 132.259792 120.717282 
L 132.698004 167.360266 
L 133.136216 149.483546 
L 133.574428 172.485541 
L 134.01264 150.623052 
L 134.450852 109.015071 
L 134.889064 134.106232 
L 135.327276 145.353698 
L 135.765488 159.592033 
L 136.203699 136.349082 
L 136.641911 124.988856 
L 137.080123 139.327148 
L 137.518335 93.122998 
L 137.956547 118.085435 
L 138.394759 131.391947 
L 138.832971 85.439693 
L 139.271183 127.059868 
L 139.709395 120.510245 
L 140.147607 125.768304 
L 140.585819 144.097898 
L 141.024031 111.649262 
L 141.900455 142.392141 
L 142.338666 138.654362 
L 142.776878 143.963259 
L 143.21509 141.694296 
L 143.653302 134.070405 
L 144.091514 150.479073 
L 144.529726 124.969921 
L 144.967938 128.016687 
L 145.40615 145.882922 
L 145.844362 153.245458 
L 146.282574 138.036339 
L 146.720786 135.447897 
L 147.158998 157.295839 
L 147.59721 126.249663 
L 148.035422 130.600532 
L 148.473633 154.07866 
L 148.911845 138.713958 
L 149.350057 102.437971 
L 149.788269 145.912734 
L 150.226481 135.660867 
L 150.664693 159.594931 
L 151.102905 118.437597 
L 151.541117 133.536356 
L 151.979329 129.935324 
L 152.417541 138.616046 
L 152.855753 143.306092 
L 153.293965 151.472491 
L 153.732177 123.285489 
L 154.170389 156.533481 
L 154.6086 120.115923 
L 155.046812 154.742605 
L 155.485024 133.409141 
L 155.923236 152.783263 
L 156.361448 134.338666 
L 156.79966 127.550176 
L 157.237872 131.775674 
L 157.676084 150.607506 
L 158.114296 97.106068 
L 158.552508 111.369472 
L 158.99072 93.957327 
L 159.428932 131.571798 
L 159.867144 125.444555 
L 160.305356 140.031126 
L 160.743567 115.098874 
L 161.181779 131.302729 
L 162.058203 118.648642 
L 162.496415 143.242934 
L 162.934627 146.825795 
L 163.372839 129.353227 
L 163.811051 122.119451 
L 164.249263 134.589399 
L 164.687475 161.155573 
L 165.125687 157.449686 
L 165.563899 161.955428 
L 166.002111 150.026554 
L 166.440323 162.659171 
L 166.878534 168.704957 
L 167.316746 152.73298 
L 167.754958 156.695842 
L 168.19317 154.606495 
L 168.631382 164.980261 
L 169.069594 135.696049 
L 169.507806 130.821362 
L 169.946018 116.694778 
L 170.38423 167.137973 
L 170.822442 153.901307 
L 171.260654 186.352533 
L 171.698866 140.287266 
L 172.137078 120.007924 
L 172.57529 162.944595 
L 173.013501 158.120091 
L 173.451713 163.936905 
L 173.889925 118.427812 
L 174.766349 169.717593 
L 175.204561 150.889795 
L 175.642773 145.102402 
L 176.080985 151.559719 
L 176.519197 139.588421 
L 176.957409 146.238483 
L 177.395621 137.878712 
L 177.833833 134.254237 
L 178.272045 71.031511 
L 178.710257 133.602922 
L 179.148468 109.896603 
L 179.58668 132.610284 
L 180.024892 119.680459 
L 180.463104 148.793724 
L 180.901316 152.5898 
L 181.339528 160.808208 
L 181.77774 159.352131 
L 182.215952 148.428759 
L 182.654164 141.877183 
L 183.092376 143.575997 
L 183.530588 167.230371 
L 183.9688 126.036574 
L 184.407012 122.302829 
L 185.283435 189.921364 
L 185.721647 142.272958 
L 186.159859 121.80218 
L 186.598071 159.302774 
L 187.036283 134.904307 
L 187.474495 149.139225 
L 187.912707 118.277426 
L 188.350919 127.917821 
L 188.789131 147.647857 
L 189.227343 181.246712 
L 189.665555 162.993887 
L 190.103767 170.694547 
L 190.541979 163.213655 
L 190.980191 163.365103 
L 191.418402 175.45513 
L 191.856614 169.814951 
L 192.294826 157.549061 
L 192.733038 117.88384 
L 193.17125 157.904612 
L 193.609462 163.725815 
L 194.047674 147.7584 
L 194.485886 182.028286 
L 195.36231 161.66388 
L 195.800522 139.734372 
L 196.238734 144.119678 
L 196.676946 131.241979 
L 197.115158 152.323566 
L 197.553369 134.092875 
L 197.991581 150.116116 
L 198.868005 171.206871 
L 199.306217 146.817108 
L 199.744429 148.835048 
L 200.182641 171.119507 
L 200.620853 135.235544 
L 201.059065 137.461311 
L 201.497277 140.806486 
L 201.935489 175.894592 
L 202.373701 168.253029 
L 202.811913 170.494669 
L 203.250125 148.682045 
L 203.688336 149.146685 
L 204.126548 123.057263 
L 204.56476 147.445245 
L 205.002972 157.345086 
L 205.441184 144.034876 
L 205.879396 171.623672 
L 206.317608 142.533786 
L 206.75582 157.569923 
L 207.194032 165.674254 
L 207.632244 161.757041 
L 208.070456 183.945514 
L 208.508668 132.348566 
L 208.94688 191.042616 
L 209.385092 166.506275 
L 209.823303 135.315457 
L 210.261515 135.835967 
L 211.137939 112.815255 
L 211.576151 180.348316 
L 212.014363 145.928726 
L 212.452575 132.612111 
L 212.890787 147.773673 
L 213.328999 132.217953 
L 213.767211 153.238471 
L 214.205423 152.70504 
L 214.643635 169.143737 
L 215.081847 135.64523 
L 215.520059 192.283678 
L 216.396482 126.79268 
L 216.834694 173.720025 
L 217.272906 162.379053 
L 217.711118 144.590959 
L 218.14933 161.490743 
L 218.587542 122.131291 
L 219.025754 152.568711 
L 219.463966 147.244876 
L 219.902178 153.553143 
L 220.34039 133.993654 
L 220.778602 138.809954 
L 221.216814 119.893675 
L 221.655026 170.062858 
L 222.093237 186.186483 
L 222.531449 173.623902 
L 222.969661 154.684899 
L 223.407873 161.404452 
L 223.846085 151.598517 
L 224.284297 129.223758 
L 224.722509 160.534142 
L 225.160721 150.424874 
L 225.598933 165.308854 
L 226.037145 166.956886 
L 226.475357 162.756039 
L 226.913569 149.893169 
L 227.351781 162.59067 
L 227.789993 144.450096 
L 228.228204 142.474998 
L 228.666416 149.201275 
L 229.104628 122.484361 
L 229.54284 143.534373 
L 230.419264 169.867669 
L 230.857476 123.386464 
L 231.295688 148.105355 
L 231.7339 140.859013 
L 232.172112 163.685036 
L 232.610324 118.898512 
L 233.048536 177.339621 
L 233.486748 126.113743 
L 233.92496 173.053382 
L 234.363171 160.571849 
L 234.801383 177.608362 
L 235.239595 152.532057 
L 235.677807 145.671514 
L 236.116019 176.043796 
L 236.554231 154.327812 
L 236.992443 150.55119 
L 237.430655 121.052962 
L 237.868867 156.110565 
L 238.307079 156.934263 
L 238.745291 152.391549 
L 239.183503 128.534972 
L 239.621715 171.735695 
L 240.059927 132.708106 
L 240.498138 150.240642 
L 240.93635 133.907454 
L 241.374562 160.5093 
L 241.812774 140.200992 
L 242.250986 139.53523 
L 242.689198 149.424577 
L 243.12741 105.300716 
L 243.565622 89.60982 
L 244.003834 153.256571 
L 244.442046 182.776142 
L 244.880258 180.591962 
L 245.31847 149.463938 
L 245.756682 132.026825 
L 246.194894 131.693935 
L 246.633105 132.103912 
L 247.071317 187.406493 
L 247.509529 166.163581 
L 247.947741 162.899627 
L 248.385953 152.996733 
L 248.824165 130.197596 
L 249.262377 139.292411 
L 249.700589 144.781569 
L 250.138801 114.913897 
L 251.015225 162.825075 
L 251.453437 146.009711 
L 251.891649 140.348079 
L 252.329861 115.166802 
L 252.768072 163.710668 
L 253.206284 163.597146 
L 253.644496 148.515541 
L 254.082708 143.788232 
L 254.52092 144.694433 
L 254.959132 117.464768 
L 255.397344 151.507946 
L 255.835556 164.25424 
L 256.273768 134.040712 
L 256.71198 166.697439 
L 257.150192 131.74479 
L 257.588404 170.571066 
L 258.026616 151.549415 
L 258.464828 150.453386 
L 258.903039 145.698927 
L 259.341251 151.337589 
L 259.779463 168.871116 
L 260.655887 140.664215 
L 261.094099 137.734023 
L 261.532311 147.881844 
L 261.970523 153.348505 
L 262.408735 142.494952 
L 262.846947 144.116134 
L 263.285159 143.017943 
L 263.723371 136.45628 
L 264.161583 151.269043 
L 264.599795 145.333727 
L 265.038006 146.014072 
L 265.476218 140.148138 
L 265.91443 144.090974 
L 266.352642 156.7944 
L 266.790854 144.617854 
L 267.229066 146.332906 
L 267.667278 149.390385 
L 268.10549 159.599447 
L 268.981914 109.987919 
L 269.420126 139.376867 
L 269.858338 139.813767 
L 270.29655 147.562901 
L 270.734762 150.105531 
L 271.172973 139.385427 
L 271.611185 133.191164 
L 272.049397 123.937895 
L 272.487609 134.882273 
L 272.925821 122.537043 
L 273.364033 139.871055 
L 273.802245 135.906948 
L 274.240457 118.599086 
L 274.678669 138.633473 
L 275.116881 144.137078 
L 275.555093 148.170458 
L 275.993305 143.47813 
L 276.431517 154.770137 
L 276.869729 147.324398 
L 277.30794 156.524213 
L 277.746152 138.903587 
L 278.184364 138.282538 
L 278.622576 145.874927 
L 279.060788 141.447652 
L 279.499 140.55419 
L 279.937212 104.693923 
L 280.375424 136.300198 
L 280.813636 141.795743 
L 281.251848 128.833289 
L 282.566484 157.112879 
L 283.004696 135.825182 
L 283.442907 164.171047 
L 283.881119 155.765854 
L 284.319331 132.421465 
L 284.757543 149.371559 
L 285.195755 146.991654 
L 285.633967 148.017383 
L 286.072179 143.63811 
L 286.510391 149.655175 
L 286.948603 127.26278 
L 287.386815 166.366884 
L 287.825027 153.666212 
L 288.263239 153.59563 
L 288.701451 127.904664 
L 289.139663 128.1314 
L 289.577874 154.255278 
L 290.016086 138.181917 
L 290.454298 136.220994 
L 290.89251 147.410772 
L 291.330722 144.831452 
L 291.768934 172.717865 
L 292.207146 139.722287 
L 292.645358 156.841684 
L 293.08357 140.243316 
L 293.521782 171.322456 
L 293.959994 146.315097 
L 294.398206 165.367859 
L 294.836418 166.518078 
L 295.27463 160.138657 
L 295.712841 162.675063 
L 296.151053 150.089521 
L 296.589265 168.228741 
L 297.027477 148.280564 
L 297.903901 152.607673 
L 298.342113 146.865392 
L 299.218537 181.625814 
L 299.656749 162.015724 
L 300.094961 147.772774 
L 300.971385 159.482971 
L 301.409597 153.157322 
L 301.847808 161.412811 
L 302.28602 125.734849 
L 302.724232 158.94825 
L 303.162444 142.443742 
L 303.600656 143.919536 
L 304.038868 108.036327 
L 304.47708 141.971724 
L 304.915292 131.895711 
L 305.353504 128.865018 
L 306.66814 152.036852 
L 307.106352 135.459154 
L 307.544564 147.283965 
L 307.982775 155.187446 
L 308.420987 140.425021 
L 308.859199 168.587481 
L 309.297411 150.252963 
L 309.735623 153.291253 
L 310.173835 152.462266 
L 310.612047 130.056243 
L 311.050259 193.126312 
L 311.488471 144.612512 
L 311.926683 146.325555 
L 312.364895 161.631279 
L 312.803107 143.722948 
L 313.241319 164.728356 
L 313.679531 151.851448 
L 314.117742 156.450315 
L 314.555954 144.070212 
L 314.994166 158.872408 
L 315.432378 164.420326 
L 315.87059 162.892249 
L 316.308802 166.845544 
L 316.747014 133.125143 
L 317.185226 148.409697 
L 317.623438 159.808711 
L 318.06165 145.675957 
L 318.499862 159.216674 
L 318.938074 151.92123 
L 319.376286 160.803929 
L 319.814498 157.264282 
L 320.252709 164.148204 
L 320.690921 146.516956 
L 321.129133 161.070917 
L 321.567345 157.329021 
L 322.005557 158.01908 
L 322.443769 146.610752 
L 322.881981 170.420354 
L 323.320193 114.454573 
L 323.758405 156.653419 
L 324.196617 168.942787 
L 324.634829 164.076787 
L 325.073041 169.321944 
L 325.511253 144.995031 
L 325.949465 144.680204 
L 326.825888 138.542575 
L 327.2641 161.174654 
L 327.702312 156.746861 
L 328.140524 161.413456 
L 328.578736 119.574959 
L 329.016948 118.67173 
L 329.45516 141.075973 
L 329.893372 126.963545 
L 330.331584 155.084455 
L 330.769796 141.29037 
L 331.208008 131.54871 
L 331.64622 138.240496 
L 332.084432 158.965895 
L 332.522643 126.408289 
L 332.960855 173.226155 
L 333.399067 154.768519 
L 333.837279 171.665932 
L 334.275491 163.532016 
L 334.713703 158.318224 
L 335.151915 144.709061 
L 335.590127 149.766026 
L 336.028339 141.921432 
L 336.466551 158.127323 
L 336.904763 140.042311 
L 337.342975 166.514198 
L 337.781187 144.07819 
L 338.219399 138.117842 
L 338.65761 134.907206 
L 339.095822 120.353081 
L 339.534034 151.227955 
L 339.972246 127.44345 
L 340.410458 162.743563 
L 340.84867 139.428531 
L 341.286882 145.507191 
L 341.725094 157.832613 
L 342.163306 118.043703 
L 342.601518 132.921059 
L 343.03973 157.498442 
L 343.477942 150.279304 
L 343.916154 122.658152 
L 344.354365 156.51868 
L 344.792577 168.517418 
L 345.230789 133.354887 
L 345.669001 161.181677 
L 346.107213 159.021594 
L 346.545425 165.811982 
L 346.983637 143.565221 
L 347.421849 139.51565 
L 347.860061 149.683142 
L 348.298273 126.944773 
L 348.736485 114.241693 
L 349.612909 145.259266 
L 350.051121 112.720913 
L 350.489332 145.561635 
L 350.927544 139.992119 
L 351.365756 120.159618 
L 351.803968 123.448568 
L 352.24218 148.649172 
L 352.680392 137.99447 
L 353.118604 144.01426 
L 353.556816 161.795076 
L 353.995028 143.493631 
L 354.43324 148.356788 
L 354.871452 151.668326 
L 355.309664 142.017228 
L 355.747876 157.40559 
L 356.186088 154.138975 
L 356.624299 159.452914 
L 357.062511 160.213563 
L 357.500723 156.106695 
L 358.377147 131.026428 
L 358.815359 165.822132 
L 359.253571 157.422136 
L 359.691783 153.788203 
L 360.129995 131.2549 
L 360.568207 147.015996 
L 361.006419 155.167857 
L 361.444631 118.39263 
L 361.882843 149.564222 
L 362.321055 149.181921 
L 362.759266 146.811339 
L 363.197478 160.954605 
L 364.073902 136.030302 
L 364.512114 128.341391 
L 364.950326 194.055446 
L 365.388538 146.441322 
L 365.82675 120.637187 
L 366.264962 140.852298 
L 366.703174 123.544227 
L 367.141386 133.494242 
L 367.579598 169.551643 
L 368.01781 147.211039 
L 368.456022 153.423275 
L 368.894233 152.417581 
L 369.332445 132.806064 
L 369.770657 156.957442 
L 370.208869 146.395928 
L 370.647081 140.08428 
L 371.961717 163.976475 
L 372.399929 151.683182 
L 372.838141 152.647606 
L 373.276353 139.824152 
L 373.714565 136.124462 
L 374.152777 139.005715 
L 374.590989 143.549275 
L 375.0292 150.154187 
L 375.467412 121.830148 
L 375.905624 154.971704 
L 376.343836 157.389671 
L 376.782048 137.492377 
L 377.22026 125.271636 
L 377.658472 161.440833 
L 378.096684 115.311563 
L 378.534896 133.722314 
L 378.973108 124.711728 
L 379.41132 137.431127 
L 379.849532 135.127863 
L 380.287744 135.514916 
L 380.725956 147.799923 
L 381.164167 116.719529 
L 381.602379 154.315791 
L 382.040591 114.332191 
L 382.478803 134.997904 
L 383.355227 141.649538 
L 383.793439 174.876795 
L 384.231651 154.904012 
L 384.669863 157.582616 
L 385.108075 151.218633 
L 385.546287 157.325487 
L 385.984499 143.304484 
L 386.422711 109.967175 
L 386.860923 136.348591 
L 387.299134 138.202134 
L 387.737346 144.464353 
L 388.175558 135.823355 
L 388.61377 138.567998 
L 389.051982 138.934371 
L 389.490194 138.233045 
L 390.366618 154.264691 
L 391.243042 147.03952 
L 391.681254 123.28707 
L 392.119466 135.819103 
L 392.557678 117.253115 
L 392.99589 148.268098 
L 393.434101 123.675477 
L 393.872313 150.387584 
L 394.310525 146.482946 
L 394.748737 165.589008 
L 395.186949 140.047736 
L 395.625161 135.331748 
L 396.063373 149.679789 
L 396.501585 92.672724 
L 397.378009 140.699424 
L 397.816221 112.690665 
L 398.254433 140.358174 
L 398.692645 127.870482 
L 399.130857 152.074078 
L 399.569068 115.308937 
L 400.00728 141.616346 
L 400.445492 153.178702 
L 400.883704 134.271873 
L 401.760128 156.314423 
L 402.19834 150.286709 
L 402.636552 152.418326 
L 403.074764 137.591298 
L 403.512976 150.332604 
L 403.951188 145.540474 
L 404.3894 157.503985 
L 404.827612 156.794309 
L 405.265824 154.511262 
L 405.704035 133.186393 
L 406.142247 130.866112 
L 406.580459 117.856845 
L 407.018671 129.026098 
L 407.456883 147.82094 
L 407.895095 134.602355 
L 408.333307 134.079192 
L 409.209731 146.82167 
L 410.086155 122.217382 
L 410.524367 139.115994 
L 410.962579 145.735935 
L 411.400791 144.67954 
L 411.839002 132.950289 
L 412.277214 116.359698 
L 412.715426 132.223059 
L 413.153638 103.502562 
L 413.59185 150.901089 
L 414.030062 113.749104 
L 414.468274 134.774402 
L 414.906486 95.486612 
L 415.344698 137.82693 
L 415.78291 147.964756 
L 416.221122 111.77745 
L 416.659334 122.728361 
L 417.535758 134.726854 
L 417.973969 143.032835 
L 418.412181 132.566044 
L 418.850393 124.931459 
L 419.288605 105.079876 
L 419.726817 110.939777 
L 420.165029 132.780805 
L 420.603241 143.318895 
L 421.041453 146.506616 
L 421.479665 121.868509 
L 421.917877 115.208235 
L 422.356089 152.921509 
L 422.794301 126.574993 
L 423.232513 151.353771 
L 423.670725 141.980738 
L 424.108936 125.853742 
L 424.547148 127.365999 
L 424.98536 107.869005 
L 425.423572 156.609914 
L 425.861784 112.686195 
L 426.738208 134.51073 
L 427.17642 156.437168 
L 427.614632 132.363976 
L 428.052844 157.615054 
L 428.491056 139.795613 
L 428.929268 127.072934 
L 429.36748 157.537758 
L 429.805692 153.067887 
L 430.243903 146.812974 
L 430.682115 145.633925 
L 431.120327 158.345919 
L 431.558539 158.773814 
L 432.434963 158.474252 
L 432.873175 140.230795 
L 433.311387 134.936409 
L 433.749599 160.140356 
L 434.187811 116.41168 
L 435.064235 141.518451 
L 435.502447 119.3219 
L 435.940659 128.091994 
L 436.37887 159.287155 
L 436.817082 158.124979 
L 437.255294 159.069187 
L 437.693506 146.038051 
L 438.131718 153.74717 
L 438.56993 144.676942 
L 439.008142 141.040537 
L 439.446354 160.087375 
L 439.884566 145.751373 
L 440.322778 151.856091 
L 440.76099 169.465088 
L 441.637414 136.282762 
L 442.513837 157.640931 
L 443.390261 127.639048 
L 443.828473 134.6045 
L 444.266685 122.039838 
L 444.704897 155.024359 
L 445.143109 150.299448 
L 445.581321 172.995212 
L 446.019533 158.000835 
L 446.895957 140.702077 
L 447.334169 162.982757 
L 447.772381 117.139574 
L 448.210593 133.710411 
L 448.648804 158.624001 
L 449.087016 164.182395 
L 449.525228 165.147483 
L 449.96344 165.258952 
L 450.401652 160.758698 
L 450.839864 154.502358 
L 451.278076 140.509786 
L 451.716288 130.889999 
L 452.1545 157.919995 
L 452.592712 162.873859 
L 453.030924 165.456304 
L 453.469136 160.957576 
L 453.907348 143.131075 
L 454.34556 160.76076 
L 454.783771 133.151348 
L 455.221983 168.97796 
L 455.660195 142.370098 
L 456.098407 133.745329 
L 456.536619 137.624517 
L 456.974831 151.380857 
L 457.413043 155.275182 
L 457.851255 137.648904 
L 458.289467 158.048246 
L 458.727679 129.516778 
L 459.165891 171.708155 
L 459.604103 146.262588 
L 460.042315 131.05862 
L 460.480527 147.452468 
L 460.918738 148.446777 
L 461.35695 142.070464 
L 461.795162 149.253511 
L 462.233374 123.804373 
L 462.671586 123.344231 
L 463.54801 155.697371 
L 463.986222 150.327306 
L 464.424434 127.515449 
L 464.862646 132.406909 
L 465.300858 167.848476 
L 465.73907 139.479005 
L 466.177282 136.214697 
L 466.615494 173.745248 
L 467.053705 134.51044 
L 467.491917 127.854445 
L 467.930129 139.635878 
L 468.368341 136.862414 
L 468.806553 146.060266 
L 469.682977 149.922508 
L 470.121189 107.933044 
L 470.559401 146.445102 
L 470.997613 155.40456 
L 471.435825 131.467098 
L 471.874037 139.295673 
L 472.312249 150.466279 
L 472.750461 154.436347 
L 473.188672 149.228979 
L 473.626884 166.055901 
L 474.065096 149.351533 
L 474.503308 149.310427 
L 474.94152 157.226893 
L 475.379732 102.36282 
L 475.817944 145.20274 
L 476.256156 136.423216 
L 476.694368 152.896495 
L 477.13258 165.185909 
L 477.570792 164.366517 
L 478.009004 158.441078 
L 478.447216 122.643415 
L 478.885428 119.830771 
L 479.323639 143.504008 
L 479.761851 147.198555 
L 480.200063 159.237281 
L 480.638275 143.992707 
L 481.076487 158.783999 
L 481.514699 151.36254 
L 481.952911 148.475808 
L 482.391123 175.47094 
L 482.829335 141.407237 
L 483.267547 97.187471 
L 483.705759 134.289818 
L 484.143971 126.88028 
L 484.582183 123.815568 
L 485.020395 175.867679 
L 485.458606 131.521615 
L 485.896818 134.488206 
L 486.33503 135.322071 
L 486.773242 116.144374 
L 487.211454 102.92032 
L 487.649666 112.521499 
L 488.087878 117.461197 
L 488.52609 132.758743 
L 488.964302 157.982226 
L 489.402514 143.468344 
L 489.840726 154.000392 
L 490.278938 129.427598 
L 490.71715 139.057534 
L 491.155362 125.755475 
L 491.593573 135.026216 
L 492.031785 134.735559 
L 492.469997 139.60384 
L 492.908209 171.240663 
L 493.346421 134.708118 
L 493.784633 136.341458 
L 494.661057 103.565302 
L 495.099269 145.771344 
L 495.537481 154.799603 
L 495.975693 138.131362 
L 496.413905 138.746032 
L 496.852117 153.793155 
L 497.290329 151.710794 
L 497.72854 160.720745 
L 498.604964 124.056542 
L 499.043176 138.511718 
L 499.481388 137.779472 
L 499.9196 129.005954 
L 500.357812 155.55381 
L 500.796024 156.702248 
L 501.234236 155.357703 
L 501.672448 145.517649 
L 502.11066 141.450041 
L 502.548872 157.117477 
L 502.987084 134.02064 
L 503.425296 87.976135 
L 503.863507 142.051619 
L 504.301719 145.621295 
L 504.739931 142.372661 
L 505.178143 147.256915 
L 505.616355 129.33321 
L 506.054567 127.818645 
L 506.492779 139.749346 
L 506.930991 154.802947 
L 507.369203 165.55478 
L 508.245627 120.722816 
L 508.683839 141.66194 
L 509.122051 124.642264 
L 509.560263 135.661567 
L 509.998474 151.620978 
L 510.436686 120.973903 
L 510.874898 148.933133 
L 511.31311 158.628962 
L 511.751322 138.228429 
L 512.189534 159.387421 
L 512.627746 174.20639 
L 513.065958 150.148499 
L 513.50417 166.025835 
L 513.942382 143.711427 
L 514.380594 153.422493 
L 514.818806 118.941471 
L 515.69523 147.886215 
L 516.133441 149.219175 
L 516.571653 153.137478 
L 517.009865 141.851123 
L 517.448077 144.946747 
L 517.886289 150.738192 
L 518.324501 159.147901 
L 518.762713 127.550485 
L 519.200925 158.152192 
L 520.077349 120.403518 
L 520.515561 120.567206 
L 520.953773 146.091068 
L 521.391985 142.388652 
L 521.830197 158.166885 
L 522.268408 159.003848 
L 522.70662 142.04733 
L 523.144832 170.691194 
L 523.583044 152.556781 
L 524.021256 181.140158 
L 524.459468 142.478733 
L 524.89768 144.302555 
L 525.335892 133.478514 
L 525.774104 152.975853 
L 526.212316 155.551729 
L 526.650528 162.049843 
L 527.08874 140.463683 
L 527.526952 146.473478 
L 527.965164 136.865703 
L 528.403375 148.076098 
L 528.841587 145.429495 
L 528.841587 145.429495 
" clip-path="url(#pf4971f19d2)" style="fill: none; stroke: #000000; stroke-width: 0.7; stroke-linecap: round"/>
   </g>
   <g id="line2d_18">
    <path d="M 112.102043 122.152254 
L 112.978467 124.296681 
L 113.416679 124.922341 
L 113.854891 125.200219 
L 115.169527 128.037856 
L 115.607739 128.091602 
L 116.922375 130.291347 
L 117.360587 130.093007 
L 117.798798 131.81428 
L 118.23701 132.552799 
L 119.989858 137.011782 
L 120.42807 137.023051 
L 120.866282 137.247698 
L 121.742706 138.481458 
L 122.180918 138.614662 
L 122.61913 138.096575 
L 123.057342 137.907747 
L 123.495554 138.271554 
L 123.933765 137.898821 
L 124.810189 138.70494 
L 125.248401 139.183723 
L 125.686613 138.89099 
L 126.124825 139.352082 
L 126.563037 139.062189 
L 127.001249 139.264817 
L 128.315885 138.693143 
L 128.754097 138.747846 
L 129.192309 138.444007 
L 129.630521 139.117143 
L 130.068732 139.248819 
L 130.506944 140.684898 
L 130.945156 139.845845 
L 131.82158 140.81414 
L 132.259792 140.438717 
L 133.574428 141.349258 
L 134.01264 141.415459 
L 134.450852 140.586612 
L 134.889064 140.225951 
L 135.327276 140.370299 
L 135.765488 141.367919 
L 136.641911 141.090016 
L 137.518335 140.276663 
L 137.956547 139.838106 
L 138.394759 139.865327 
L 138.832971 138.534937 
L 139.271183 138.655264 
L 140.147607 137.566342 
L 140.585819 137.318836 
L 141.462243 136.20352 
L 141.900455 135.902926 
L 142.338666 136.226045 
L 142.776878 136.053912 
L 143.653302 135.922289 
L 144.529726 136.434339 
L 144.967938 137.022845 
L 145.40615 137.203389 
L 145.844362 137.657961 
L 146.282574 137.689326 
L 146.720786 137.511466 
L 147.158998 138.003685 
L 147.59721 137.912317 
L 148.035422 137.593958 
L 148.473633 137.958261 
L 148.911845 137.710903 
L 149.350057 136.996938 
L 149.788269 136.855738 
L 150.226481 137.413914 
L 150.664693 137.478167 
L 151.102905 137.288672 
L 151.541117 136.550847 
L 151.979329 136.12301 
L 152.417541 135.25738 
L 152.855753 136.203604 
L 153.293965 135.888929 
L 153.732177 135.230099 
L 154.170389 135.946423 
L 154.6086 135.001536 
L 155.046812 135.106717 
L 155.485024 134.325189 
L 155.923236 134.368393 
L 156.361448 134.874865 
L 156.79966 134.743744 
L 157.676084 134.292493 
L 158.114296 133.507633 
L 158.552508 133.235245 
L 158.99072 132.327849 
L 159.428932 133.096825 
L 160.305356 133.416791 
L 160.743567 134.009974 
L 161.619991 134.189362 
L 162.058203 134.046969 
L 162.496415 134.029869 
L 162.934627 134.7334 
L 163.372839 134.740661 
L 163.811051 134.335207 
L 164.249263 134.253908 
L 165.125687 134.912862 
L 165.563899 135.470563 
L 166.002111 135.461512 
L 166.878534 137.029063 
L 167.754958 137.235071 
L 168.19317 137.566475 
L 168.631382 138.157122 
L 169.069594 137.725126 
L 169.507806 137.81656 
L 169.946018 137.538445 
L 170.822442 138.103378 
L 171.260654 139.781669 
L 171.698866 139.66916 
L 172.137078 139.356101 
L 172.57529 139.423095 
L 173.451713 140.824755 
L 173.889925 140.594605 
L 174.328137 140.729307 
L 174.766349 141.257537 
L 175.204561 141.245883 
L 175.642773 141.682222 
L 176.080985 141.582746 
L 176.519197 141.972196 
L 176.957409 141.802114 
L 177.395621 141.891505 
L 177.833833 141.520925 
L 178.272045 140.254782 
L 178.710257 140.375837 
L 179.58668 139.578311 
L 180.024892 140.029799 
L 180.463104 140.778284 
L 180.901316 141.950933 
L 181.77774 143.213813 
L 182.215952 143.381765 
L 182.654164 143.917332 
L 183.092376 144.162797 
L 183.530588 145.002669 
L 183.9688 145.150428 
L 184.407012 144.731626 
L 184.845224 144.870479 
L 185.283435 146.081842 
L 185.721647 146.484912 
L 186.159859 146.229168 
L 186.598071 146.192112 
L 187.036283 145.741204 
L 187.474495 145.48488 
L 188.789131 143.733929 
L 189.227343 144.304203 
L 189.665555 144.430164 
L 190.103767 144.751925 
L 190.541979 144.716593 
L 190.980191 145.269974 
L 191.856614 147.225053 
L 192.294826 147.033275 
L 193.17125 145.743967 
L 194.485886 147.149421 
L 194.924098 147.436024 
L 195.36231 147.390564 
L 195.800522 147.816695 
L 196.238734 147.792066 
L 196.676946 147.022553 
L 197.115158 147.051229 
L 197.553369 146.831038 
L 197.991581 146.802166 
L 198.868005 147.746948 
L 199.744429 148.217332 
L 200.182641 150.219092 
L 200.620853 150.251744 
L 201.059065 150.803039 
L 201.497277 150.966963 
L 201.935489 152.091245 
L 202.811913 152.838529 
L 203.688336 152.391897 
L 204.126548 151.884467 
L 204.56476 151.995828 
L 205.002972 152.27121 
L 205.441184 151.8073 
L 205.879396 152.719042 
L 206.317608 153.123661 
L 206.75582 153.19969 
L 207.194032 152.714748 
L 207.632244 153.104429 
L 208.070456 154.347296 
L 208.508668 153.808212 
L 208.94688 154.930978 
L 209.823303 155.61908 
L 210.261515 155.777442 
L 210.699727 155.336182 
L 211.137939 153.967553 
L 211.576151 154.314641 
L 212.890787 152.895465 
L 213.328999 152.030722 
L 213.767211 151.699192 
L 214.205423 151.602312 
L 214.643635 152.62751 
L 215.081847 152.182322 
L 215.520059 152.753479 
L 215.95827 152.927091 
L 216.396482 151.822379 
L 217.711118 151.95921 
L 218.14933 152.306631 
L 218.587542 152.124417 
L 219.025754 152.12932 
L 219.463966 152.39236 
L 219.902178 152.461101 
L 221.216814 150.717384 
L 222.093237 151.44328 
L 222.531449 152.211047 
L 223.407873 152.967478 
L 223.846085 152.481557 
L 224.284297 151.700971 
L 224.722509 151.501761 
L 225.160721 151.536617 
L 225.598933 151.859861 
L 226.037145 152.737853 
L 226.475357 153.044069 
L 226.913569 152.895031 
L 227.351781 153.266147 
L 227.789993 152.722675 
L 228.228204 152.721499 
L 228.666416 152.554126 
L 229.104628 151.690329 
L 229.54284 151.325875 
L 229.981052 150.814892 
L 230.419264 151.565274 
L 230.857476 150.212151 
L 231.295688 149.844132 
L 231.7339 149.955004 
L 232.172112 150.511985 
L 232.610324 150.378259 
L 233.048536 151.668746 
L 233.486748 150.584055 
L 235.239595 152.688718 
L 235.677807 152.537379 
L 236.116019 153.004154 
L 236.554231 152.707836 
L 236.992443 153.005955 
L 237.430655 151.581341 
L 237.868867 151.574772 
L 238.307079 152.177604 
L 238.745291 151.751035 
L 239.183503 151.074153 
L 239.621715 151.617048 
L 240.059927 151.041395 
L 240.498138 151.603582 
L 240.93635 151.230357 
L 241.374562 151.495645 
L 241.812774 151.228602 
L 242.689198 151.551726 
L 243.12741 151.259867 
L 243.565622 149.650806 
L 244.003834 148.992208 
L 244.442046 149.175253 
L 244.880258 149.693394 
L 245.31847 149.454584 
L 245.756682 149.06315 
L 246.194894 149.112554 
L 246.633105 148.543949 
L 247.071317 149.283581 
L 247.947741 149.219531 
L 248.385953 149.024345 
L 249.262377 148.164468 
L 249.700589 148.171097 
L 250.138801 147.619875 
L 250.577013 147.374337 
L 251.015225 148.181151 
L 251.453437 148.230658 
L 251.891649 147.869693 
L 252.329861 146.775675 
L 252.768072 147.582159 
L 253.206284 147.891995 
L 253.644496 148.045126 
L 254.082708 147.64719 
L 254.52092 148.163108 
L 254.959132 146.965611 
L 255.397344 147.473495 
L 255.835556 147.297512 
L 256.273768 146.76689 
L 256.71198 146.548671 
L 257.150192 146.132926 
L 257.588404 146.630917 
L 258.026616 146.141029 
L 258.903039 145.966495 
L 259.341251 146.572188 
L 259.779463 146.827399 
L 260.217675 146.764644 
L 260.655887 146.530097 
L 261.094099 146.714078 
L 261.532311 146.237001 
L 261.970523 146.649809 
L 262.408735 146.494895 
L 262.846947 146.699069 
L 263.285159 146.349242 
L 263.723371 146.274347 
L 264.161583 146.509024 
L 264.599795 146.427207 
L 265.476218 148.25224 
L 265.91443 148.068928 
L 266.352642 147.549293 
L 266.790854 146.829811 
L 267.229066 146.76719 
L 267.667278 147.114462 
L 268.10549 147.672572 
L 268.543702 147.701583 
L 268.981914 146.153211 
L 269.858338 145.15576 
L 270.29655 145.047083 
L 270.734762 145.445242 
L 271.172973 145.447102 
L 271.611185 145.215294 
L 272.049397 145.395774 
L 272.487609 145.354932 
L 272.925821 144.549172 
L 273.802245 144.337576 
L 274.240457 144.406222 
L 275.116881 143.515476 
L 275.993305 143.502373 
L 276.431517 143.703887 
L 276.869729 144.301079 
L 277.30794 144.401405 
L 277.746152 143.894392 
L 278.184364 143.979228 
L 278.622576 143.562778 
L 279.060788 143.756835 
L 279.499 143.156498 
L 279.937212 142.219388 
L 280.375424 141.936324 
L 280.813636 141.85826 
L 281.251848 141.408174 
L 281.69006 140.788524 
L 282.128272 140.681334 
L 282.566484 141.010308 
L 283.004696 140.972131 
L 283.442907 141.297915 
L 283.881119 141.346262 
L 284.319331 141.144792 
L 285.633967 141.560597 
L 286.072179 141.407978 
L 286.510391 141.494407 
L 286.948603 141.119381 
L 287.386815 141.643756 
L 287.825027 141.835261 
L 288.263239 141.771286 
L 289.139663 141.072992 
L 289.577874 141.170289 
L 290.016086 140.741939 
L 290.454298 140.79527 
L 290.89251 141.543727 
L 291.330722 141.652818 
L 291.768934 142.3109 
L 292.207146 142.154088 
L 292.645358 142.288811 
L 293.08357 142.305969 
L 293.521782 143.068595 
L 293.959994 143.516139 
L 294.398206 144.125851 
L 294.836418 145.005471 
L 295.712841 145.946186 
L 296.589265 147.1679 
L 297.903901 147.481711 
L 298.342113 147.323616 
L 299.218537 148.20675 
L 299.656749 148.668992 
L 300.533173 149.009538 
L 301.409597 149.622307 
L 301.847808 150.756685 
L 302.28602 150.545378 
L 303.162444 151.160637 
L 303.600656 151.281256 
L 304.038868 150.473242 
L 304.47708 150.170419 
L 304.915292 150.09183 
L 305.353504 149.385709 
L 305.791716 149.007915 
L 306.229928 149.286641 
L 306.66814 149.339947 
L 307.106352 149.109297 
L 307.544564 149.094629 
L 307.982775 149.325616 
L 308.420987 149.141013 
L 308.859199 149.967507 
L 309.297411 149.645228 
L 310.612047 149.658093 
L 311.050259 150.957991 
L 311.488471 150.765136 
L 311.926683 150.928009 
L 312.364895 151.436215 
L 312.803107 151.362458 
L 313.241319 151.760396 
L 313.679531 151.343068 
L 314.117742 151.677628 
L 314.555954 151.422199 
L 314.994166 151.794781 
L 315.432378 151.656738 
L 315.87059 151.988281 
L 316.308802 152.017835 
L 316.747014 151.349976 
L 317.185226 151.115397 
L 318.06165 150.969799 
L 318.499862 150.789557 
L 318.938074 150.862371 
L 320.252709 151.505478 
L 321.129133 150.697129 
L 321.567345 150.603395 
L 322.005557 150.808321 
L 322.443769 150.672297 
L 322.881981 150.891045 
L 323.320193 150.11699 
L 323.758405 150.021802 
L 324.196617 150.88596 
L 324.634829 150.988531 
L 325.073041 151.526095 
L 325.511253 151.547605 
L 325.949465 152.280483 
L 326.387676 152.270513 
L 326.825888 152.40345 
L 327.2641 153.049643 
L 328.140524 153.748171 
L 328.578736 153.098933 
L 329.016948 152.763184 
L 329.45516 152.639024 
L 329.893372 152.074546 
L 330.331584 152.367735 
L 331.208008 151.447708 
L 331.64622 151.146693 
L 332.084432 151.276765 
L 332.522643 151.203806 
L 332.960855 150.805803 
L 333.399067 151.008923 
L 333.837279 151.515731 
L 334.275491 151.553745 
L 334.713703 151.845651 
L 335.151915 151.445265 
L 335.590127 151.403557 
L 336.028339 151.112979 
L 336.466551 151.394121 
L 336.904763 151.017519 
L 337.342975 151.059397 
L 337.781187 150.683115 
L 338.219399 150.108561 
L 338.65761 150.144203 
L 339.095822 149.58307 
L 339.534034 149.411455 
L 339.972246 149.046805 
L 340.410458 149.117343 
L 341.286882 148.561554 
L 341.725094 148.572921 
L 342.163306 147.650831 
L 342.601518 147.378913 
L 343.477942 147.166469 
L 343.916154 146.45925 
L 344.354365 146.657409 
L 344.792577 146.61935 
L 345.230789 146.997357 
L 345.669001 147.087922 
L 346.107213 146.889498 
L 346.545425 146.924202 
L 346.983637 146.409067 
L 347.421849 146.29948 
L 347.860061 146.399538 
L 348.298273 146.108969 
L 349.612909 144.758857 
L 350.051121 143.785006 
L 350.927544 144.731147 
L 351.365756 144.31282 
L 352.680392 144.047897 
L 353.118604 144.297208 
L 353.556816 144.7683 
L 353.995028 144.458854 
L 354.43324 144.897824 
L 354.871452 144.466668 
L 356.186088 143.738574 
L 356.624299 143.761268 
L 357.062511 144.071358 
L 357.938935 144.25271 
L 358.377147 143.710692 
L 358.815359 144.226289 
L 359.253571 144.044447 
L 359.691783 144.238648 
L 360.129995 144.101389 
L 360.568207 144.343565 
L 361.006419 145.03986 
L 361.444631 144.383154 
L 361.882843 144.825569 
L 362.321055 144.554336 
L 362.759266 144.701992 
L 363.197478 145.010941 
L 363.63569 144.834912 
L 364.073902 145.194644 
L 364.512114 145.10305 
L 364.950326 145.83419 
L 365.82675 145.717011 
L 366.264962 145.403684 
L 366.703174 144.50422 
L 367.141386 144.507007 
L 367.579598 144.674406 
L 368.456022 144.190421 
L 368.894233 144.367468 
L 369.332445 144.233277 
L 369.770657 144.378763 
L 371.523505 145.825202 
L 371.961717 146.850314 
L 372.399929 146.972745 
L 372.838141 147.225854 
L 373.714565 147.872663 
L 374.152777 147.679794 
L 375.0292 147.913688 
L 375.467412 147.11439 
L 376.343836 147.524609 
L 377.22026 146.906178 
L 377.658472 146.986883 
L 378.096684 146.210335 
L 378.534896 145.695723 
L 378.973108 144.985686 
L 379.41132 144.612175 
L 379.849532 144.421765 
L 380.287744 144.511534 
L 380.725956 144.15109 
L 381.164167 143.337038 
L 381.602379 143.34759 
L 382.917015 142.430507 
L 383.793439 143.401896 
L 384.669863 143.731764 
L 385.108075 143.537044 
L 385.984499 143.848414 
L 386.422711 143.48093 
L 386.860923 142.326793 
L 387.299134 142.162009 
L 387.737346 142.638553 
L 388.175558 142.537974 
L 388.61377 142.838449 
L 389.051982 142.947252 
L 389.490194 142.32088 
L 390.80483 142.267693 
L 391.243042 142.552362 
L 391.681254 141.878954 
L 392.119466 141.667418 
L 392.557678 141.210795 
L 392.99589 141.217378 
L 393.434101 140.614766 
L 393.872313 140.342988 
L 394.310525 140.238983 
L 394.748737 140.497811 
L 395.625161 140.486429 
L 396.063373 140.69991 
L 396.501585 139.682379 
L 396.939797 139.066963 
L 397.378009 139.444348 
L 397.816221 138.598728 
L 398.254433 138.258098 
L 398.692645 138.06566 
L 399.130857 138.601709 
L 399.569068 137.679071 
L 400.445492 138.594294 
L 401.321916 138.950059 
L 402.19834 139.669226 
L 402.636552 139.761594 
L 403.074764 140.17903 
L 403.512976 140.099366 
L 404.3894 141.173653 
L 405.265824 141.801684 
L 405.704035 140.967876 
L 406.142247 140.487118 
L 406.580459 139.692602 
L 407.018671 139.248752 
L 407.895095 138.884618 
L 408.333307 139.366859 
L 409.209731 139.618308 
L 410.524367 139.166804 
L 411.400791 139.431765 
L 411.839002 139.181179 
L 412.277214 138.423079 
L 412.715426 138.054575 
L 413.153638 137.183836 
L 413.59185 137.736116 
L 414.030062 137.294716 
L 414.468274 137.645142 
L 414.906486 136.589512 
L 415.344698 136.872541 
L 415.78291 136.824085 
L 416.659334 135.272762 
L 417.097546 135.035685 
L 417.535758 135.023587 
L 417.973969 134.890648 
L 418.412181 135.688515 
L 418.850393 135.799476 
L 419.288605 135.087085 
L 419.726817 135.052068 
L 420.165029 134.90052 
L 420.603241 135.209488 
L 421.041453 135.098139 
L 421.479665 135.229331 
L 421.917877 134.701168 
L 422.356089 134.696025 
L 422.794301 134.542087 
L 423.232513 134.655978 
L 423.670725 134.369304 
L 424.98536 132.785152 
L 425.423572 132.910698 
L 426.299996 131.589302 
L 426.738208 131.143631 
L 427.614632 131.1657 
L 428.491056 132.139455 
L 428.929268 132.100391 
L 429.36748 132.294728 
L 430.243903 132.918714 
L 430.682115 133.025362 
L 431.120327 133.255847 
L 431.558539 133.732381 
L 431.996751 134.461147 
L 432.434963 134.848312 
L 433.311387 134.543347 
L 433.749599 135.087148 
L 434.626023 135.05158 
L 435.064235 135.811897 
L 435.502447 135.180314 
L 435.940659 135.467171 
L 436.37887 135.957427 
L 436.817082 137.210194 
L 437.255294 137.635039 
L 437.693506 137.596505 
L 438.131718 138.435899 
L 438.56993 138.874871 
L 439.008142 139.131804 
L 439.446354 139.639014 
L 439.884566 139.693385 
L 440.322778 140.079186 
L 441.199202 141.922151 
L 441.637414 142.429011 
L 442.513837 143.016604 
L 442.952049 142.93462 
L 443.390261 143.05003 
L 443.828473 143.437956 
L 444.266685 142.820322 
L 444.704897 143.38931 
L 445.143109 143.368223 
L 446.895957 145.74292 
L 448.210593 146.147884 
L 448.648804 146.630149 
L 449.087016 146.785054 
L 449.525228 147.440724 
L 449.96344 147.593602 
L 450.839864 148.561452 
L 451.716288 147.777335 
L 453.030924 148.486481 
L 453.469136 148.530157 
L 453.907348 148.219664 
L 454.34556 148.265394 
L 454.783771 148.123805 
L 455.221983 148.804636 
L 455.660195 148.449231 
L 456.098407 148.795904 
L 456.974831 149.13779 
L 457.413043 149.856855 
L 457.851255 150.047993 
L 458.289467 150.023215 
L 458.727679 149.451051 
L 459.165891 149.703831 
L 459.604103 149.708321 
L 460.042315 149.25455 
L 460.918738 149.458186 
L 461.35695 149.097848 
L 461.795162 149.16789 
L 462.233374 148.606856 
L 462.671586 147.684439 
L 463.109798 147.401949 
L 463.54801 147.790241 
L 463.986222 147.840018 
L 464.424434 147.237509 
L 464.862646 147.037499 
L 465.300858 147.841688 
L 465.73907 147.939178 
L 466.615494 148.597093 
L 467.053705 148.281313 
L 467.491917 147.378497 
L 468.368341 146.746322 
L 468.806553 146.853486 
L 469.244765 146.553262 
L 469.682977 147.208921 
L 470.121189 146.693373 
L 470.997613 146.274239 
L 471.874037 145.081366 
L 472.312249 144.875517 
L 472.750461 144.874197 
L 473.188672 145.048581 
L 473.626884 145.751899 
L 474.94152 145.144673 
L 475.379732 143.972778 
L 475.817944 144.014211 
L 476.256156 143.52746 
L 476.694368 143.922363 
L 477.13258 143.846522 
L 478.009004 144.780365 
L 478.447216 144.480743 
L 478.885428 143.849742 
L 479.323639 143.614318 
L 479.761851 143.805311 
L 480.200063 143.829092 
L 480.638275 144.11861 
L 481.076487 143.860127 
L 481.514699 143.962126 
L 481.952911 144.31047 
L 482.391123 144.870839 
L 482.829335 144.730049 
L 483.267547 143.832389 
L 483.705759 143.533115 
L 484.582183 143.60406 
L 485.020395 144.350013 
L 485.458606 143.866498 
L 485.896818 143.549716 
L 486.33503 143.705848 
L 486.773242 143.380598 
L 487.211454 142.082035 
L 488.52609 140.348084 
L 489.402514 141.129798 
L 489.840726 141.417088 
L 490.71715 141.128337 
L 491.593573 140.38609 
L 492.031785 140.92214 
L 492.469997 140.785315 
L 492.908209 141.102037 
L 493.346421 141.166857 
L 493.784633 141.107773 
L 494.222845 140.455661 
L 494.661057 139.43824 
L 495.099269 139.369088 
L 496.413905 138.70827 
L 496.852117 138.639596 
L 497.290329 139.626555 
L 497.72854 139.936915 
L 498.166752 140.027973 
L 499.9196 137.797247 
L 500.796024 139.192884 
L 501.234236 139.429958 
L 501.672448 139.39634 
L 502.11066 139.040595 
L 502.548872 139.303091 
L 502.987084 138.807824 
L 503.425296 137.540096 
L 503.863507 137.411612 
L 504.301719 136.814619 
L 504.739931 136.833927 
L 505.178143 137.835316 
L 505.616355 137.736184 
L 506.054567 137.754951 
L 506.492779 138.073627 
L 506.930991 137.652332 
L 507.369203 138.332996 
L 507.807415 138.525399 
L 508.245627 138.233414 
L 509.998474 140.324201 
L 510.874898 139.907522 
L 511.31311 140.210735 
L 511.751322 139.895295 
L 513.50417 142.305322 
L 514.380594 142.761212 
L 514.818806 141.715228 
L 515.257018 141.697906 
L 515.69523 141.928801 
L 516.133441 142.555971 
L 516.571653 143.547415 
L 517.009865 143.46901 
L 517.448077 143.271953 
L 517.886289 143.52409 
L 518.324501 143.932127 
L 518.762713 143.407274 
L 519.200925 143.536102 
L 520.077349 142.691569 
L 520.515561 142.621782 
L 521.391985 142.865553 
L 521.830197 143.448772 
L 522.268408 143.517772 
L 522.70662 143.224674 
L 523.144832 143.531344 
L 523.583044 143.672126 
L 524.021256 144.465929 
L 524.459468 144.173154 
L 524.89768 144.378792 
L 525.335892 145.28884 
L 526.212316 145.705933 
L 526.650528 146.099477 
L 527.08874 145.963612 
L 527.526952 146.306417 
L 528.403375 146.653894 
L 528.841587 146.466425 
L 528.841587 146.466425 
" clip-path="url(#pf4971f19d2)" style="fill: none; stroke-dasharray: 2.96,1.28; stroke-dashoffset: 0; stroke: #ff0000; stroke-width: 0.8"/>
   </g>
   <g id="patch_3">
    <path d="M 68.719063 200.648125 
L 68.719063 55.609187 
" style="fill: none; stroke: #ffffff; stroke-width: 1.25; stroke-linejoin: miter; stroke-linecap: square"/>
   </g>
   <g id="patch_4">
    <path d="M 550.752184 200.648125 
L 550.752184 55.609187 
" style="fill: none; stroke: #ffffff; stroke-width: 1.25; stroke-linejoin: miter; stroke-linecap: square"/>
   </g>
   <g id="patch_5">
    <path d="M 68.719063 200.648125 
L 550.752184 200.648125 
" style="fill: none; stroke: #ffffff; stroke-width: 1.25; stroke-linejoin: miter; stroke-linecap: square"/>
   </g>
   <g id="patch_6">
    <path d="M 68.719063 55.609187 
L 550.752184 55.609187 
" style="fill: none; stroke: #ffffff; stroke-width: 1.25; stroke-linejoin: miter; stroke-linecap: square"/>
   </g>
   <g id="legend_1">
    <g id="patch_7">
     <path d="M 478.912496 196.148125 
L 544.452184 196.148125 
Q 546.252184 196.148125 546.252184 194.348125 
L 546.252184 168.8275 
Q 546.252184 167.0275 544.452184 167.0275 
L 478.912496 167.0275 
Q 477.112496 167.0275 477.112496 168.8275 
L 477.112496 194.348125 
Q 477.112496 196.148125 478.912496 196.148125 
z
" style="fill: #eaeaf2; opacity: 0.8; stroke: #cccccc; stroke-linejoin: miter"/>
    </g>
    <g id="line2d_19">
     <path d="M 480.712496 174.316094 
L 489.712496 174.316094 
L 498.712496 174.316094 
" style="fill: none; stroke: #000000; stroke-width: 0.7; stroke-linecap: round"/>
    </g>
    <g id="text_19">
     <!-- TDC -->
     <g style="fill: #262626" transform="translate(505.912496 177.466094)scale(0.09 -0.09)">
      <defs>
       <path id="DejaVuSans-54" d="M -19 4666 
L 3928 4666 
L 3928 4134 
L 2272 4134 
L 2272 0 
L 1638 0 
L 1638 4134 
L -19 4134 
L -19 4666 
z
" transform="scale(0.015625)"/>
       <path id="DejaVuSans-44" d="M 1259 4147 
L 1259 519 
L 2022 519 
Q 2988 519 3436 956 
Q 3884 1394 3884 2338 
Q 3884 3275 3436 3711 
Q 2988 4147 2022 4147 
L 1259 4147 
z
M 628 4666 
L 1925 4666 
Q 3281 4666 3915 4102 
Q 4550 3538 4550 2338 
Q 4550 1131 3912 565 
Q 3275 0 1925 0 
L 628 0 
L 628 4666 
z
" transform="scale(0.015625)"/>
       <path id="DejaVuSans-43" d="M 4122 4306 
L 4122 3641 
Q 3803 3938 3442 4084 
Q 3081 4231 2675 4231 
Q 1875 4231 1450 3742 
Q 1025 3253 1025 2328 
Q 1025 1406 1450 917 
Q 1875 428 2675 428 
Q 3081 428 3442 575 
Q 3803 722 4122 1019 
L 4122 359 
Q 3791 134 3420 21 
Q 3050 -91 2638 -91 
Q 1578 -91 968 557 
Q 359 1206 359 2328 
Q 359 3453 968 4101 
Q 1578 4750 2638 4750 
Q 3056 4750 3426 4639 
Q 3797 4528 4122 4306 
z
" transform="scale(0.015625)"/>
      </defs>
      <use xlink:href="#DejaVuSans-54"/>
      <use xlink:href="#DejaVuSans-44" x="61.083984"/>
      <use xlink:href="#DejaVuSans-43" x="138.085938"/>
     </g>
    </g>
    <g id="line2d_20">
     <path d="M 480.712496 187.526406 
L 489.712496 187.526406 
L 498.712496 187.526406 
" style="fill: none; stroke-dasharray: 2.96,1.28; stroke-dashoffset: 0; stroke: #ff0000; stroke-width: 0.8"/>
    </g>
    <g id="text_20">
     <!-- Mov. Av. -->
     <g style="fill: #262626" transform="translate(505.912496 190.676406)scale(0.09 -0.09)">
      <defs>
       <path id="DejaVuSans-4d" d="M 628 4666 
L 1569 4666 
L 2759 1491 
L 3956 4666 
L 4897 4666 
L 4897 0 
L 4281 0 
L 4281 4097 
L 3078 897 
L 2444 897 
L 1241 4097 
L 1241 0 
L 628 0 
L 628 4666 
z
" transform="scale(0.015625)"/>
       <path id="DejaVuSans-76" d="M 191 3500 
L 800 3500 
L 1894 563 
L 2988 3500 
L 3597 3500 
L 2284 0 
L 1503 0 
L 191 3500 
z
" transform="scale(0.015625)"/>
       <path id="DejaVuSans-41" d="M 2188 4044 
L 1331 1722 
L 3047 1722 
L 2188 4044 
z
M 1831 4666 
L 2547 4666 
L 4325 0 
L 3669 0 
L 3244 1197 
L 1141 1197 
L 716 0 
L 50 0 
L 1831 4666 
z
" transform="scale(0.015625)"/>
      </defs>
      <use xlink:href="#DejaVuSans-4d"/>
      <use xlink:href="#DejaVuSans-6f" x="86.279297"/>
      <use xlink:href="#DejaVuSans-76" x="147.460938"/>
      <use xlink:href="#DejaVuSans-2e" x="198.890625"/>
      <use xlink:href="#DejaVuSans-20" x="230.677734"/>
      <use xlink:href="#DejaVuSans-41" x="262.464844"/>
      <use xlink:href="#DejaVuSans-76" x="324.998047"/>
      <use xlink:href="#DejaVuSans-2e" x="376.427734"/>
     </g>
    </g>
   </g>
  </g>
  <g id="text_21">
   <!-- Energetic Components [Per-residue] -->
   <g style="fill: #262626" transform="translate(161.55375 15.605813)scale(0.14 -0.14)">
    <defs>
     <path id="DejaVuSans-74" d="M 1172 4494 
L 1172 3500 
L 2356 3500 
L 2356 3053 
L 1172 3053 
L 1172 1153 
Q 1172 725 1289 603 
Q 1406 481 1766 481 
L 2356 481 
L 2356 0 
L 1766 0 
Q 1100 0 847 248 
Q 594 497 594 1153 
L 594 3053 
L 172 3053 
L 172 3500 
L 594 3500 
L 594 4494 
L 1172 4494 
z
" transform="scale(0.015625)"/>
     <path id="DejaVuSans-69" d="M 603 3500 
L 1178 3500 
L 1178 0 
L 603 0 
L 603 3500 
z
M 603 4863 
L 1178 4863 
L 1178 4134 
L 603 4134 
L 603 4863 
z
" transform="scale(0.015625)"/>
     <path id="DejaVuSans-70" d="M 1159 525 
L 1159 -1331 
L 581 -1331 
L 581 3500 
L 1159 3500 
L 1159 2969 
Q 1341 3281 1617 3432 
Q 1894 3584 2278 3584 
Q 2916 3584 3314 3078 
Q 3713 2572 3713 1747 
Q 3713 922 3314 415 
Q 2916 -91 2278 -91 
Q 1894 -91 1617 61 
Q 1341 213 1159 525 
z
M 3116 1747 
Q 3116 2381 2855 2742 
Q 2594 3103 2138 3103 
Q 1681 3103 1420 2742 
Q 1159 2381 1159 1747 
Q 1159 1113 1420 752 
Q 1681 391 2138 391 
Q 2594 391 2855 752 
Q 3116 1113 3116 1747 
z
" transform="scale(0.015625)"/>
     <path id="DejaVuSans-5b" d="M 550 4863 
L 1875 4863 
L 1875 4416 
L 1125 4416 
L 1125 -397 
L 1875 -397 
L 1875 -844 
L 550 -844 
L 550 4863 
z
" transform="scale(0.015625)"/>
     <path id="DejaVuSans-50" d="M 1259 4147 
L 1259 2394 
L 2053 2394 
Q 2494 2394 2734 2622 
Q 2975 2850 2975 3272 
Q 2975 3691 2734 3919 
Q 2494 4147 2053 4147 
L 1259 4147 
z
M 628 4666 
L 2053 4666 
Q 2838 4666 3239 4311 
Q 3641 3956 3641 3272 
Q 3641 2581 3239 2228 
Q 2838 1875 2053 1875 
L 1259 1875 
L 1259 0 
L 628 0 
L 628 4666 
z
" transform="scale(0.015625)"/>
     <path id="DejaVuSans-2d" d="M 313 2009 
L 1997 2009 
L 1997 1497 
L 313 1497 
L 313 2009 
z
" transform="scale(0.015625)"/>
     <path id="DejaVuSans-64" d="M 2906 2969 
L 2906 4863 
L 3481 4863 
L 3481 0 
L 2906 0 
L 2906 525 
Q 2725 213 2448 61 
Q 2172 -91 1784 -91 
Q 1150 -91 751 415 
Q 353 922 353 1747 
Q 353 2572 751 3078 
Q 1150 3584 1784 3584 
Q 2172 3584 2448 3432 
Q 2725 3281 2906 2969 
z
M 947 1747 
Q 947 1113 1208 752 
Q 1469 391 1925 391 
Q 2381 391 2643 752 
Q 2906 1113 2906 1747 
Q 2906 2381 2643 2742 
Q 2381 3103 1925 3103 
Q 1469 3103 1208 2742 
Q 947 2381 947 1747 
z
" transform="scale(0.015625)"/>
     <path id="DejaVuSans-75" d="M 544 1381 
L 544 3500 
L 1119 3500 
L 1119 1403 
Q 1119 906 1312 657 
Q 1506 409 1894 409 
Q 2359 409 2629 706 
Q 2900 1003 2900 1516 
L 2900 3500 
L 3475 3500 
L 3475 0 
L 2900 0 
L 2900 538 
Q 2691 219 2414 64 
Q 2138 -91 1772 -91 
Q 1169 -91 856 284 
Q 544 659 544 1381 
z
M 1991 3584 
L 1991 3584 
z
" transform="scale(0.015625)"/>
     <path id="DejaVuSans-5d" d="M 1947 4863 
L 1947 -844 
L 622 -844 
L 622 -397 
L 1369 -397 
L 1369 4416 
L 622 4416 
L 622 4863 
L 1947 4863 
z
" transform="scale(0.015625)"/>
    </defs>
    <use xlink:href="#DejaVuSans-45"/>
    <use xlink:href="#DejaVuSans-6e" x="63.183594"/>
    <use xlink:href="#DejaVuSans-65" x="126.5625"/>
    <use xlink:href="#DejaVuSans-72" x="188.085938"/>
    <use xlink:href="#DejaVuSans-67" x="227.449219"/>
    <use xlink:href="#DejaVuSans-65" x="290.925781"/>
    <use xlink:href="#DejaVuSans-74" x="352.449219"/>
    <use xlink:href="#DejaVuSans-69" x="391.658203"/>
    <use xlink:href="#DejaVuSans-63" x="419.441406"/>
    <use xlink:href="#DejaVuSans-20" x="474.421875"/>
    <use xlink:href="#DejaVuSans-43" x="506.208984"/>
    <use xlink:href="#DejaVuSans-6f" x="576.033203"/>
    <use xlink:href="#DejaVuSans-6d" x="637.214844"/>
    <use xlink:href="#DejaVuSans-70" x="734.626953"/>
    <use xlink:href="#DejaVuSans-6f" x="798.103516"/>
    <use xlink:href="#DejaVuSans-6e" x="859.285156"/>
    <use xlink:href="#DejaVuSans-65" x="922.664062"/>
    <use xlink:href="#DejaVuSans-6e" x="984.1875"/>
    <use xlink:href="#DejaVuSans-74" x="1047.566406"/>
    <use xlink:href="#DejaVuSans-73" x="1086.775391"/>
    <use xlink:href="#DejaVuSans-20" x="1138.875"/>
    <use xlink:href="#DejaVuSans-5b" x="1170.662109"/>
    <use xlink:href="#DejaVuSans-50" x="1209.675781"/>
    <use xlink:href="#DejaVuSans-65" x="1266.353516"/>
    <use xlink:href="#DejaVuSans-72" x="1327.876953"/>
    <use xlink:href="#DejaVuSans-2d" x="1362.615234"/>
    <use xlink:href="#DejaVuSans-72" x="1398.699219"/>
    <use xlink:href="#DejaVuSans-65" x="1437.5625"/>
    <use xlink:href="#DejaVuSans-73" x="1499.085938"/>
    <use xlink:href="#DejaVuSans-69" x="1551.185547"/>
    <use xlink:href="#DejaVuSans-64" x="1578.96875"/>
    <use xlink:href="#DejaVuSans-75" x="1642.445312"/>
    <use xlink:href="#DejaVuSans-65" x="1705.824219"/>
    <use xlink:href="#DejaVuSans-5d" x="1767.347656"/>
   </g>
   <!-- System-1 | NORMAL | GB | Delta | TDC -->
   <g style="fill: #262626" transform="translate(153.892031 31.35625)scale(0.14 -0.14)">
    <defs>
     <path id="DejaVuSans-53" d="M 3425 4513 
L 3425 3897 
Q 3066 4069 2747 4153 
Q 2428 4238 2131 4238 
Q 1616 4238 1336 4038 
Q 1056 3838 1056 3469 
Q 1056 3159 1242 3001 
Q 1428 2844 1947 2747 
L 2328 2669 
Q 3034 2534 3370 2195 
Q 3706 1856 3706 1288 
Q 3706 609 3251 259 
Q 2797 -91 1919 -91 
Q 1588 -91 1214 -16 
Q 841 59 441 206 
L 441 856 
Q 825 641 1194 531 
Q 1563 422 1919 422 
Q 2459 422 2753 634 
Q 3047 847 3047 1241 
Q 3047 1584 2836 1778 
Q 2625 1972 2144 2069 
L 1759 2144 
Q 1053 2284 737 2584 
Q 422 2884 422 3419 
Q 422 4038 858 4394 
Q 1294 4750 2059 4750 
Q 2388 4750 2728 4690 
Q 3069 4631 3425 4513 
z
" transform="scale(0.015625)"/>
     <path id="DejaVuSans-7c" d="M 1344 4891 
L 1344 -1509 
L 813 -1509 
L 813 4891 
L 1344 4891 
z
" transform="scale(0.015625)"/>
     <path id="DejaVuSans-4e" d="M 628 4666 
L 1478 4666 
L 3547 763 
L 3547 4666 
L 4159 4666 
L 4159 0 
L 3309 0 
L 1241 3903 
L 1241 0 
L 628 0 
L 628 4666 
z
" transform="scale(0.015625)"/>
     <path id="DejaVuSans-4f" d="M 2522 4238 
Q 1834 4238 1429 3725 
Q 1025 3213 1025 2328 
Q 1025 1447 1429 934 
Q 1834 422 2522 422 
Q 3209 422 3611 934 
Q 4013 1447 4013 2328 
Q 4013 3213 3611 3725 
Q 3209 4238 2522 4238 
z
M 2522 4750 
Q 3503 4750 4090 4092 
Q 4678 3434 4678 2328 
Q 4678 1225 4090 567 
Q 3503 -91 2522 -91 
Q 1538 -91 948 565 
Q 359 1222 359 2328 
Q 359 3434 948 4092 
Q 1538 4750 2522 4750 
z
" transform="scale(0.015625)"/>
     <path id="DejaVuSans-52" d="M 2841 2188 
Q 3044 2119 3236 1894 
Q 3428 1669 3622 1275 
L 4263 0 
L 3584 0 
L 2988 1197 
Q 2756 1666 2539 1819 
Q 2322 1972 1947 1972 
L 1259 1972 
L 1259 0 
L 628 0 
L 628 4666 
L 2053 4666 
Q 2853 4666 3247 4331 
Q 3641 3997 3641 3322 
Q 3641 2881 3436 2590 
Q 3231 2300 2841 2188 
z
M 1259 4147 
L 1259 2491 
L 2053 2491 
Q 2509 2491 2742 2702 
Q 2975 2913 2975 3322 
Q 2975 3731 2742 3939 
Q 2509 4147 2053 4147 
L 1259 4147 
z
" transform="scale(0.015625)"/>
     <path id="DejaVuSans-4c" d="M 628 4666 
L 1259 4666 
L 1259 531 
L 3531 531 
L 3531 0 
L 628 0 
L 628 4666 
z
" transform="scale(0.015625)"/>
     <path id="DejaVuSans-47" d="M 3809 666 
L 3809 1919 
L 2778 1919 
L 2778 2438 
L 4434 2438 
L 4434 434 
Q 4069 175 3628 42 
Q 3188 -91 2688 -91 
Q 1594 -91 976 548 
Q 359 1188 359 2328 
Q 359 3472 976 4111 
Q 1594 4750 2688 4750 
Q 3144 4750 3555 4637 
Q 3966 4525 4313 4306 
L 4313 3634 
Q 3963 3931 3569 4081 
Q 3175 4231 2741 4231 
Q 1884 4231 1454 3753 
Q 1025 3275 1025 2328 
Q 1025 1384 1454 906 
Q 1884 428 2741 428 
Q 3075 428 3337 486 
Q 3600 544 3809 666 
z
" transform="scale(0.015625)"/>
     <path id="DejaVuSans-42" d="M 1259 2228 
L 1259 519 
L 2272 519 
Q 2781 519 3026 730 
Q 3272 941 3272 1375 
Q 3272 1813 3026 2020 
Q 2781 2228 2272 2228 
L 1259 2228 
z
M 1259 4147 
L 1259 2741 
L 2194 2741 
Q 2656 2741 2882 2914 
Q 3109 3088 3109 3444 
Q 3109 3797 2882 3972 
Q 2656 4147 2194 4147 
L 1259 4147 
z
M 628 4666 
L 2241 4666 
Q 2963 4666 3353 4366 
Q 3744 4066 3744 3513 
Q 3744 3084 3544 2831 
Q 3344 2578 2956 2516 
Q 3422 2416 3680 2098 
Q 3938 1781 3938 1306 
Q 3938 681 3513 340 
Q 3088 0 2303 0 
L 628 0 
L 628 4666 
z
" transform="scale(0.015625)"/>
    </defs>
    <use xlink:href="#DejaVuSans-53"/>
    <use xlink:href="#DejaVuSans-79" x="63.476562"/>
    <use xlink:href="#DejaVuSans-73" x="122.65625"/>
    <use xlink:href="#DejaVuSans-74" x="174.755859"/>
    <use xlink:href="#DejaVuSans-65" x="213.964844"/>
    <use xlink:href="#DejaVuSans-6d" x="275.488281"/>
    <use xlink:href="#DejaVuSans-2d" x="372.900391"/>
    <use xlink:href="#DejaVuSans-31" x="408.984375"/>
    <use xlink:href="#DejaVuSans-20" x="472.607422"/>
    <use xlink:href="#DejaVuSans-7c" x="504.394531"/>
    <use xlink:href="#DejaVuSans-20" x="538.085938"/>
    <use xlink:href="#DejaVuSans-4e" x="569.873047"/>
    <use xlink:href="#DejaVuSans-4f" x="644.677734"/>
    <use xlink:href="#DejaVuSans-52" x="723.388672"/>
    <use xlink:href="#DejaVuSans-4d" x="792.871094"/>
    <use xlink:href="#DejaVuSans-41" x="879.150391"/>
    <use xlink:href="#DejaVuSans-4c" x="947.558594"/>
    <use xlink:href="#DejaVuSans-20" x="1003.271484"/>
    <use xlink:href="#DejaVuSans-7c" x="1035.058594"/>
    <use xlink:href="#DejaVuSans-20" x="1068.75"/>
    <use xlink:href="#DejaVuSans-47" x="1100.537109"/>
    <use xlink:href="#DejaVuSans-42" x="1178.027344"/>
    <use xlink:href="#DejaVuSans-20" x="1246.630859"/>
    <use xlink:href="#DejaVuSans-7c" x="1278.417969"/>
    <use xlink:href="#DejaVuSans-20" x="1312.109375"/>
    <use xlink:href="#DejaVuSans-44" x="1343.896484"/>
    <use xlink:href="#DejaVuSans-65" x="1420.898438"/>
    <use xlink:href="#DejaVuSans-6c" x="1482.421875"/>
    <use xlink:href="#DejaVuSans-74" x="1510.205078"/>
    <use xlink:href="#DejaVuSans-61" x="1549.414062"/>
    <use xlink:href="#DejaVuSans-20" x="1610.693359"/>
    <use xlink:href="#DejaVuSans-7c" x="1642.480469"/>
    <use xlink:href="#DejaVuSans-20" x="1676.171875"/>
    <use xlink:href="#DejaVuSans-54" x="1707.958984"/>
    <use xlink:href="#DejaVuSans-44" x="1769.042969"/>
    <use xlink:href="#DejaVuSans-43" x="1846.044922"/>
   </g>
  </g>
 </g>
 <defs>
  <clipPath id="pf4971f19d2">
   <rect x="68.719063" y="55.609187" width="482.033121" height="145.038938"/>
  </clipPath>
 </defs>
</svg>
