<?xml version="1.0" encoding="utf-8" standalone="no"?>
<!DOCTYPE svg PUBLIC "-//W3C//DTD SVG 1.1//EN"
  "http://www.w3.org/Graphics/SVG/1.1/DTD/svg11.dtd">
<svg xmlns:xlink="http://www.w3.org/1999/xlink" width="576pt" height="248.4pt" viewBox="0 0 576 248.4" xmlns="http://www.w3.org/2000/svg" version="1.1">
 <metadata>
  <rdf:RDF xmlns:dc="http://purl.org/dc/elements/1.1/" xmlns:cc="http://creativecommons.org/ns#" xmlns:rdf="http://www.w3.org/1999/02/22-rdf-syntax-ns#">
   <cc:Work>
    <dc:type rdf:resource="http://purl.org/dc/dcmitype/StillImage"/>
    <dc:date>2024-10-20T18:26:22.971470</dc:date>
    <dc:format>image/svg+xml</dc:format>
    <dc:creator>
     <cc:Agent>
      <dc:title>Matplotlib v3.5.2, https://matplotlib.org/</dc:title>
     </cc:Agent>
    </dc:creator>
   </cc:Work>
  </rdf:RDF>
 </metadata>
 <defs>
  <style type="text/css">*{stroke-linejoin: round; stroke-linecap: butt}</style>
 </defs>
 <g id="figure_1">
  <g id="patch_1">
   <path d="M 0 248.4 
L 576 248.4 
L 576 0 
L 0 0 
z
" style="fill: #ffffff"/>
  </g>
  <g id="axes_1">
   <g id="patch_2">
    <path d="M 59.178438 200.648125 
L 550.760783 200.648125 
L 550.760783 55.609187 
L 59.178438 55.609187 
z
" style="fill: #eaeaf2"/>
   </g>
   <g id="matplotlib.axis_1">
    <g id="xtick_1">
     <g id="line2d_1">
      <path d="M 81.076197 200.648125 
L 81.076197 55.609187 
" clip-path="url(#paeeb9a0833)" style="fill: none; stroke: #ffffff; stroke-linecap: round"/>
     </g>
     <g id="text_1">
      <!-- 0 -->
      <g style="fill: #262626" transform="translate(77.894947 217.746562)scale(0.1 -0.1)">
       <defs>
        <path id="DejaVuSans-30" d="M 2034 4250 
Q 1547 4250 1301 3770 
Q 1056 3291 1056 2328 
Q 1056 1369 1301 889 
Q 1547 409 2034 409 
Q 2525 409 2770 889 
Q 3016 1369 3016 2328 
Q 3016 3291 2770 3770 
Q 2525 4250 2034 4250 
z
M 2034 4750 
Q 2819 4750 3233 4129 
Q 3647 3509 3647 2328 
Q 3647 1150 3233 529 
Q 2819 -91 2034 -91 
Q 1250 -91 836 529 
Q 422 1150 422 2328 
Q 422 3509 836 4129 
Q 1250 4750 2034 4750 
z
" transform="scale(0.015625)"/>
       </defs>
       <use xlink:href="#DejaVuSans-30"/>
      </g>
     </g>
    </g>
    <g id="xtick_2">
     <g id="line2d_2">
      <path d="M 148.110153 200.648125 
L 148.110153 55.609187 
" clip-path="url(#paeeb9a0833)" style="fill: none; stroke: #ffffff; stroke-linecap: round"/>
     </g>
     <g id="text_2">
      <!-- 150 -->
      <g style="fill: #262626" transform="translate(138.566403 217.746562)scale(0.1 -0.1)">
       <defs>
        <path id="DejaVuSans-31" d="M 794 531 
L 1825 531 
L 1825 4091 
L 703 3866 
L 703 4441 
L 1819 4666 
L 2450 4666 
L 2450 531 
L 3481 531 
L 3481 0 
L 794 0 
L 794 531 
z
" transform="scale(0.015625)"/>
        <path id="DejaVuSans-35" d="M 691 4666 
L 3169 4666 
L 3169 4134 
L 1269 4134 
L 1269 2991 
Q 1406 3038 1543 3061 
Q 1681 3084 1819 3084 
Q 2600 3084 3056 2656 
Q 3513 2228 3513 1497 
Q 3513 744 3044 326 
Q 2575 -91 1722 -91 
Q 1428 -91 1123 -41 
Q 819 9 494 109 
L 494 744 
Q 775 591 1075 516 
Q 1375 441 1709 441 
Q 2250 441 2565 725 
Q 2881 1009 2881 1497 
Q 2881 1984 2565 2268 
Q 2250 2553 1709 2553 
Q 1456 2553 1204 2497 
Q 953 2441 691 2322 
L 691 4666 
z
" transform="scale(0.015625)"/>
       </defs>
       <use xlink:href="#DejaVuSans-31"/>
       <use xlink:href="#DejaVuSans-35" x="63.623047"/>
       <use xlink:href="#DejaVuSans-30" x="127.246094"/>
      </g>
     </g>
    </g>
    <g id="xtick_3">
     <g id="line2d_3">
      <path d="M 215.144109 200.648125 
L 215.144109 55.609187 
" clip-path="url(#paeeb9a0833)" style="fill: none; stroke: #ffffff; stroke-linecap: round"/>
     </g>
     <g id="text_3">
      <!-- 300 -->
      <g style="fill: #262626" transform="translate(205.600359 217.746562)scale(0.1 -0.1)">
       <defs>
        <path id="DejaVuSans-33" d="M 2597 2516 
Q 3050 2419 3304 2112 
Q 3559 1806 3559 1356 
Q 3559 666 3084 287 
Q 2609 -91 1734 -91 
Q 1441 -91 1130 -33 
Q 819 25 488 141 
L 488 750 
Q 750 597 1062 519 
Q 1375 441 1716 441 
Q 2309 441 2620 675 
Q 2931 909 2931 1356 
Q 2931 1769 2642 2001 
Q 2353 2234 1838 2234 
L 1294 2234 
L 1294 2753 
L 1863 2753 
Q 2328 2753 2575 2939 
Q 2822 3125 2822 3475 
Q 2822 3834 2567 4026 
Q 2313 4219 1838 4219 
Q 1578 4219 1281 4162 
Q 984 4106 628 3988 
L 628 4550 
Q 988 4650 1302 4700 
Q 1616 4750 1894 4750 
Q 2613 4750 3031 4423 
Q 3450 4097 3450 3541 
Q 3450 3153 3228 2886 
Q 3006 2619 2597 2516 
z
" transform="scale(0.015625)"/>
       </defs>
       <use xlink:href="#DejaVuSans-33"/>
       <use xlink:href="#DejaVuSans-30" x="63.623047"/>
       <use xlink:href="#DejaVuSans-30" x="127.246094"/>
      </g>
     </g>
    </g>
    <g id="xtick_4">
     <g id="line2d_4">
      <path d="M 282.178065 200.648125 
L 282.178065 55.609187 
" clip-path="url(#paeeb9a0833)" style="fill: none; stroke: #ffffff; stroke-linecap: round"/>
     </g>
     <g id="text_4">
      <!-- 450 -->
      <g style="fill: #262626" transform="translate(272.634315 217.746562)scale(0.1 -0.1)">
       <defs>
        <path id="DejaVuSans-34" d="M 2419 4116 
L 825 1625 
L 2419 1625 
L 2419 4116 
z
M 2253 4666 
L 3047 4666 
L 3047 1625 
L 3713 1625 
L 3713 1100 
L 3047 1100 
L 3047 0 
L 2419 0 
L 2419 1100 
L 313 1100 
L 313 1709 
L 2253 4666 
z
" transform="scale(0.015625)"/>
       </defs>
       <use xlink:href="#DejaVuSans-34"/>
       <use xlink:href="#DejaVuSans-35" x="63.623047"/>
       <use xlink:href="#DejaVuSans-30" x="127.246094"/>
      </g>
     </g>
    </g>
    <g id="xtick_5">
     <g id="line2d_5">
      <path d="M 349.212021 200.648125 
L 349.212021 55.609187 
" clip-path="url(#paeeb9a0833)" style="fill: none; stroke: #ffffff; stroke-linecap: round"/>
     </g>
     <g id="text_5">
      <!-- 600 -->
      <g style="fill: #262626" transform="translate(339.668271 217.746562)scale(0.1 -0.1)">
       <defs>
        <path id="DejaVuSans-36" d="M 2113 2584 
Q 1688 2584 1439 2293 
Q 1191 2003 1191 1497 
Q 1191 994 1439 701 
Q 1688 409 2113 409 
Q 2538 409 2786 701 
Q 3034 994 3034 1497 
Q 3034 2003 2786 2293 
Q 2538 2584 2113 2584 
z
M 3366 4563 
L 3366 3988 
Q 3128 4100 2886 4159 
Q 2644 4219 2406 4219 
Q 1781 4219 1451 3797 
Q 1122 3375 1075 2522 
Q 1259 2794 1537 2939 
Q 1816 3084 2150 3084 
Q 2853 3084 3261 2657 
Q 3669 2231 3669 1497 
Q 3669 778 3244 343 
Q 2819 -91 2113 -91 
Q 1303 -91 875 529 
Q 447 1150 447 2328 
Q 447 3434 972 4092 
Q 1497 4750 2381 4750 
Q 2619 4750 2861 4703 
Q 3103 4656 3366 4563 
z
" transform="scale(0.015625)"/>
       </defs>
       <use xlink:href="#DejaVuSans-36"/>
       <use xlink:href="#DejaVuSans-30" x="63.623047"/>
       <use xlink:href="#DejaVuSans-30" x="127.246094"/>
      </g>
     </g>
    </g>
    <g id="xtick_6">
     <g id="line2d_6">
      <path d="M 416.245977 200.648125 
L 416.245977 55.609187 
" clip-path="url(#paeeb9a0833)" style="fill: none; stroke: #ffffff; stroke-linecap: round"/>
     </g>
     <g id="text_6">
      <!-- 750 -->
      <g style="fill: #262626" transform="translate(406.702227 217.746562)scale(0.1 -0.1)">
       <defs>
        <path id="DejaVuSans-37" d="M 525 4666 
L 3525 4666 
L 3525 4397 
L 1831 0 
L 1172 0 
L 2766 4134 
L 525 4134 
L 525 4666 
z
" transform="scale(0.015625)"/>
       </defs>
       <use xlink:href="#DejaVuSans-37"/>
       <use xlink:href="#DejaVuSans-35" x="63.623047"/>
       <use xlink:href="#DejaVuSans-30" x="127.246094"/>
      </g>
     </g>
    </g>
    <g id="xtick_7">
     <g id="line2d_7">
      <path d="M 483.279933 200.648125 
L 483.279933 55.609187 
" clip-path="url(#paeeb9a0833)" style="fill: none; stroke: #ffffff; stroke-linecap: round"/>
     </g>
     <g id="text_7">
      <!-- 900 -->
      <g style="fill: #262626" transform="translate(473.736183 217.746562)scale(0.1 -0.1)">
       <defs>
        <path id="DejaVuSans-39" d="M 703 97 
L 703 672 
Q 941 559 1184 500 
Q 1428 441 1663 441 
Q 2288 441 2617 861 
Q 2947 1281 2994 2138 
Q 2813 1869 2534 1725 
Q 2256 1581 1919 1581 
Q 1219 1581 811 2004 
Q 403 2428 403 3163 
Q 403 3881 828 4315 
Q 1253 4750 1959 4750 
Q 2769 4750 3195 4129 
Q 3622 3509 3622 2328 
Q 3622 1225 3098 567 
Q 2575 -91 1691 -91 
Q 1453 -91 1209 -44 
Q 966 3 703 97 
z
M 1959 2075 
Q 2384 2075 2632 2365 
Q 2881 2656 2881 3163 
Q 2881 3666 2632 3958 
Q 2384 4250 1959 4250 
Q 1534 4250 1286 3958 
Q 1038 3666 1038 3163 
Q 1038 2656 1286 2365 
Q 1534 2075 1959 2075 
z
" transform="scale(0.015625)"/>
       </defs>
       <use xlink:href="#DejaVuSans-39"/>
       <use xlink:href="#DejaVuSans-30" x="63.623047"/>
       <use xlink:href="#DejaVuSans-30" x="127.246094"/>
      </g>
     </g>
    </g>
    <g id="xtick_8">
     <g id="line2d_8">
      <path d="M 550.313889 200.648125 
L 550.313889 55.609187 
" clip-path="url(#paeeb9a0833)" style="fill: none; stroke: #ffffff; stroke-linecap: round"/>
     </g>
     <g id="text_8">
      <!-- 1050 -->
      <g style="fill: #262626" transform="translate(537.588889 217.746562)scale(0.1 -0.1)">
       <use xlink:href="#DejaVuSans-31"/>
       <use xlink:href="#DejaVuSans-30" x="63.623047"/>
       <use xlink:href="#DejaVuSans-35" x="127.246094"/>
       <use xlink:href="#DejaVuSans-30" x="190.869141"/>
      </g>
     </g>
    </g>
    <g id="text_9">
     <!-- Frames -->
     <g style="fill: #262626" transform="translate(283.14836 232.944375)scale(0.12 -0.12)">
      <defs>
       <path id="DejaVuSans-46" d="M 628 4666 
L 3309 4666 
L 3309 4134 
L 1259 4134 
L 1259 2759 
L 3109 2759 
L 3109 2228 
L 1259 2228 
L 1259 0 
L 628 0 
L 628 4666 
z
" transform="scale(0.015625)"/>
       <path id="DejaVuSans-72" d="M 2631 2963 
Q 2534 3019 2420 3045 
Q 2306 3072 2169 3072 
Q 1681 3072 1420 2755 
Q 1159 2438 1159 1844 
L 1159 0 
L 581 0 
L 581 3500 
L 1159 3500 
L 1159 2956 
Q 1341 3275 1631 3429 
Q 1922 3584 2338 3584 
Q 2397 3584 2469 3576 
Q 2541 3569 2628 3553 
L 2631 2963 
z
" transform="scale(0.015625)"/>
       <path id="DejaVuSans-61" d="M 2194 1759 
Q 1497 1759 1228 1600 
Q 959 1441 959 1056 
Q 959 750 1161 570 
Q 1363 391 1709 391 
Q 2188 391 2477 730 
Q 2766 1069 2766 1631 
L 2766 1759 
L 2194 1759 
z
M 3341 1997 
L 3341 0 
L 2766 0 
L 2766 531 
Q 2569 213 2275 61 
Q 1981 -91 1556 -91 
Q 1019 -91 701 211 
Q 384 513 384 1019 
Q 384 1609 779 1909 
Q 1175 2209 1959 2209 
L 2766 2209 
L 2766 2266 
Q 2766 2663 2505 2880 
Q 2244 3097 1772 3097 
Q 1472 3097 1187 3025 
Q 903 2953 641 2809 
L 641 3341 
Q 956 3463 1253 3523 
Q 1550 3584 1831 3584 
Q 2591 3584 2966 3190 
Q 3341 2797 3341 1997 
z
" transform="scale(0.015625)"/>
       <path id="DejaVuSans-6d" d="M 3328 2828 
Q 3544 3216 3844 3400 
Q 4144 3584 4550 3584 
Q 5097 3584 5394 3201 
Q 5691 2819 5691 2113 
L 5691 0 
L 5113 0 
L 5113 2094 
Q 5113 2597 4934 2840 
Q 4756 3084 4391 3084 
Q 3944 3084 3684 2787 
Q 3425 2491 3425 1978 
L 3425 0 
L 2847 0 
L 2847 2094 
Q 2847 2600 2669 2842 
Q 2491 3084 2119 3084 
Q 1678 3084 1418 2786 
Q 1159 2488 1159 1978 
L 1159 0 
L 581 0 
L 581 3500 
L 1159 3500 
L 1159 2956 
Q 1356 3278 1631 3431 
Q 1906 3584 2284 3584 
Q 2666 3584 2933 3390 
Q 3200 3197 3328 2828 
z
" transform="scale(0.015625)"/>
       <path id="DejaVuSans-65" d="M 3597 1894 
L 3597 1613 
L 953 1613 
Q 991 1019 1311 708 
Q 1631 397 2203 397 
Q 2534 397 2845 478 
Q 3156 559 3463 722 
L 3463 178 
Q 3153 47 2828 -22 
Q 2503 -91 2169 -91 
Q 1331 -91 842 396 
Q 353 884 353 1716 
Q 353 2575 817 3079 
Q 1281 3584 2069 3584 
Q 2775 3584 3186 3129 
Q 3597 2675 3597 1894 
z
M 3022 2063 
Q 3016 2534 2758 2815 
Q 2500 3097 2075 3097 
Q 1594 3097 1305 2825 
Q 1016 2553 972 2059 
L 3022 2063 
z
" transform="scale(0.015625)"/>
       <path id="DejaVuSans-73" d="M 2834 3397 
L 2834 2853 
Q 2591 2978 2328 3040 
Q 2066 3103 1784 3103 
Q 1356 3103 1142 2972 
Q 928 2841 928 2578 
Q 928 2378 1081 2264 
Q 1234 2150 1697 2047 
L 1894 2003 
Q 2506 1872 2764 1633 
Q 3022 1394 3022 966 
Q 3022 478 2636 193 
Q 2250 -91 1575 -91 
Q 1294 -91 989 -36 
Q 684 19 347 128 
L 347 722 
Q 666 556 975 473 
Q 1284 391 1588 391 
Q 1994 391 2212 530 
Q 2431 669 2431 922 
Q 2431 1156 2273 1281 
Q 2116 1406 1581 1522 
L 1381 1569 
Q 847 1681 609 1914 
Q 372 2147 372 2553 
Q 372 3047 722 3315 
Q 1072 3584 1716 3584 
Q 2034 3584 2315 3537 
Q 2597 3491 2834 3397 
z
" transform="scale(0.015625)"/>
      </defs>
      <use xlink:href="#DejaVuSans-46"/>
      <use xlink:href="#DejaVuSans-72" x="50.269531"/>
      <use xlink:href="#DejaVuSans-61" x="91.382812"/>
      <use xlink:href="#DejaVuSans-6d" x="152.662109"/>
      <use xlink:href="#DejaVuSans-65" x="250.074219"/>
      <use xlink:href="#DejaVuSans-73" x="311.597656"/>
     </g>
    </g>
   </g>
   <g id="matplotlib.axis_2">
    <g id="ytick_1">
     <g id="line2d_9">
      <path d="M 59.178438 194.282387 
L 550.760783 194.282387 
" clip-path="url(#paeeb9a0833)" style="fill: none; stroke: #ffffff; stroke-linecap: round"/>
     </g>
     <g id="text_10">
      <!-- −45 -->
      <g style="fill: #262626" transform="translate(28.57375 198.081606)scale(0.1 -0.1)">
       <defs>
        <path id="DejaVuSans-2212" d="M 678 2272 
L 4684 2272 
L 4684 1741 
L 678 1741 
L 678 2272 
z
" transform="scale(0.015625)"/>
       </defs>
       <use xlink:href="#DejaVuSans-2212"/>
       <use xlink:href="#DejaVuSans-34" x="83.789062"/>
       <use xlink:href="#DejaVuSans-35" x="147.412109"/>
      </g>
     </g>
    </g>
    <g id="ytick_2">
     <g id="line2d_10">
      <path d="M 59.178438 178.057379 
L 550.760783 178.057379 
" clip-path="url(#paeeb9a0833)" style="fill: none; stroke: #ffffff; stroke-linecap: round"/>
     </g>
     <g id="text_11">
      <!-- −42 -->
      <g style="fill: #262626" transform="translate(28.57375 181.856598)scale(0.1 -0.1)">
       <defs>
        <path id="DejaVuSans-32" d="M 1228 531 
L 3431 531 
L 3431 0 
L 469 0 
L 469 531 
Q 828 903 1448 1529 
Q 2069 2156 2228 2338 
Q 2531 2678 2651 2914 
Q 2772 3150 2772 3378 
Q 2772 3750 2511 3984 
Q 2250 4219 1831 4219 
Q 1534 4219 1204 4116 
Q 875 4013 500 3803 
L 500 4441 
Q 881 4594 1212 4672 
Q 1544 4750 1819 4750 
Q 2544 4750 2975 4387 
Q 3406 4025 3406 3419 
Q 3406 3131 3298 2873 
Q 3191 2616 2906 2266 
Q 2828 2175 2409 1742 
Q 1991 1309 1228 531 
z
" transform="scale(0.015625)"/>
       </defs>
       <use xlink:href="#DejaVuSans-2212"/>
       <use xlink:href="#DejaVuSans-34" x="83.789062"/>
       <use xlink:href="#DejaVuSans-32" x="147.412109"/>
      </g>
     </g>
    </g>
    <g id="ytick_3">
     <g id="line2d_11">
      <path d="M 59.178438 161.832371 
L 550.760783 161.832371 
" clip-path="url(#paeeb9a0833)" style="fill: none; stroke: #ffffff; stroke-linecap: round"/>
     </g>
     <g id="text_12">
      <!-- −39 -->
      <g style="fill: #262626" transform="translate(28.57375 165.631589)scale(0.1 -0.1)">
       <use xlink:href="#DejaVuSans-2212"/>
       <use xlink:href="#DejaVuSans-33" x="83.789062"/>
       <use xlink:href="#DejaVuSans-39" x="147.412109"/>
      </g>
     </g>
    </g>
    <g id="ytick_4">
     <g id="line2d_12">
      <path d="M 59.178438 145.607362 
L 550.760783 145.607362 
" clip-path="url(#paeeb9a0833)" style="fill: none; stroke: #ffffff; stroke-linecap: round"/>
     </g>
     <g id="text_13">
      <!-- −36 -->
      <g style="fill: #262626" transform="translate(28.57375 149.406581)scale(0.1 -0.1)">
       <use xlink:href="#DejaVuSans-2212"/>
       <use xlink:href="#DejaVuSans-33" x="83.789062"/>
       <use xlink:href="#DejaVuSans-36" x="147.412109"/>
      </g>
     </g>
    </g>
    <g id="ytick_5">
     <g id="line2d_13">
      <path d="M 59.178438 129.382354 
L 550.760783 129.382354 
" clip-path="url(#paeeb9a0833)" style="fill: none; stroke: #ffffff; stroke-linecap: round"/>
     </g>
     <g id="text_14">
      <!-- −33 -->
      <g style="fill: #262626" transform="translate(28.57375 133.181573)scale(0.1 -0.1)">
       <use xlink:href="#DejaVuSans-2212"/>
       <use xlink:href="#DejaVuSans-33" x="83.789062"/>
       <use xlink:href="#DejaVuSans-33" x="147.412109"/>
      </g>
     </g>
    </g>
    <g id="ytick_6">
     <g id="line2d_14">
      <path d="M 59.178438 113.157346 
L 550.760783 113.157346 
" clip-path="url(#paeeb9a0833)" style="fill: none; stroke: #ffffff; stroke-linecap: round"/>
     </g>
     <g id="text_15">
      <!-- −30 -->
      <g style="fill: #262626" transform="translate(28.57375 116.956564)scale(0.1 -0.1)">
       <use xlink:href="#DejaVuSans-2212"/>
       <use xlink:href="#DejaVuSans-33" x="83.789062"/>
       <use xlink:href="#DejaVuSans-30" x="147.412109"/>
      </g>
     </g>
    </g>
    <g id="ytick_7">
     <g id="line2d_15">
      <path d="M 59.178438 96.932337 
L 550.760783 96.932337 
" clip-path="url(#paeeb9a0833)" style="fill: none; stroke: #ffffff; stroke-linecap: round"/>
     </g>
     <g id="text_16">
      <!-- −27 -->
      <g style="fill: #262626" transform="translate(28.57375 100.731556)scale(0.1 -0.1)">
       <use xlink:href="#DejaVuSans-2212"/>
       <use xlink:href="#DejaVuSans-32" x="83.789062"/>
       <use xlink:href="#DejaVuSans-37" x="147.412109"/>
      </g>
     </g>
    </g>
    <g id="ytick_8">
     <g id="line2d_16">
      <path d="M 59.178438 80.707329 
L 550.760783 80.707329 
" clip-path="url(#paeeb9a0833)" style="fill: none; stroke: #ffffff; stroke-linecap: round"/>
     </g>
     <g id="text_17">
      <!-- −24 -->
      <g style="fill: #262626" transform="translate(28.57375 84.506548)scale(0.1 -0.1)">
       <use xlink:href="#DejaVuSans-2212"/>
       <use xlink:href="#DejaVuSans-32" x="83.789062"/>
       <use xlink:href="#DejaVuSans-34" x="147.412109"/>
      </g>
     </g>
    </g>
    <g id="ytick_9">
     <g id="line2d_17">
      <path d="M 59.178438 64.482321 
L 550.760783 64.482321 
" clip-path="url(#paeeb9a0833)" style="fill: none; stroke: #ffffff; stroke-linecap: round"/>
     </g>
     <g id="text_18">
      <!-- −21 -->
      <g style="fill: #262626" transform="translate(28.57375 68.28154)scale(0.1 -0.1)">
       <use xlink:href="#DejaVuSans-2212"/>
       <use xlink:href="#DejaVuSans-32" x="83.789062"/>
       <use xlink:href="#DejaVuSans-31" x="147.412109"/>
      </g>
     </g>
    </g>
    <g id="text_19">
     <!-- Energy (kcal/mol) -->
     <g style="fill: #262626" transform="translate(22.078125 181.045844)rotate(-90)scale(0.12 -0.12)">
      <defs>
       <path id="DejaVuSans-45" d="M 628 4666 
L 3578 4666 
L 3578 4134 
L 1259 4134 
L 1259 2753 
L 3481 2753 
L 3481 2222 
L 1259 2222 
L 1259 531 
L 3634 531 
L 3634 0 
L 628 0 
L 628 4666 
z
" transform="scale(0.015625)"/>
       <path id="DejaVuSans-6e" d="M 3513 2113 
L 3513 0 
L 2938 0 
L 2938 2094 
Q 2938 2591 2744 2837 
Q 2550 3084 2163 3084 
Q 1697 3084 1428 2787 
Q 1159 2491 1159 1978 
L 1159 0 
L 581 0 
L 581 3500 
L 1159 3500 
L 1159 2956 
Q 1366 3272 1645 3428 
Q 1925 3584 2291 3584 
Q 2894 3584 3203 3211 
Q 3513 2838 3513 2113 
z
" transform="scale(0.015625)"/>
       <path id="DejaVuSans-67" d="M 2906 1791 
Q 2906 2416 2648 2759 
Q 2391 3103 1925 3103 
Q 1463 3103 1205 2759 
Q 947 2416 947 1791 
Q 947 1169 1205 825 
Q 1463 481 1925 481 
Q 2391 481 2648 825 
Q 2906 1169 2906 1791 
z
M 3481 434 
Q 3481 -459 3084 -895 
Q 2688 -1331 1869 -1331 
Q 1566 -1331 1297 -1286 
Q 1028 -1241 775 -1147 
L 775 -588 
Q 1028 -725 1275 -790 
Q 1522 -856 1778 -856 
Q 2344 -856 2625 -561 
Q 2906 -266 2906 331 
L 2906 616 
Q 2728 306 2450 153 
Q 2172 0 1784 0 
Q 1141 0 747 490 
Q 353 981 353 1791 
Q 353 2603 747 3093 
Q 1141 3584 1784 3584 
Q 2172 3584 2450 3431 
Q 2728 3278 2906 2969 
L 2906 3500 
L 3481 3500 
L 3481 434 
z
" transform="scale(0.015625)"/>
       <path id="DejaVuSans-79" d="M 2059 -325 
Q 1816 -950 1584 -1140 
Q 1353 -1331 966 -1331 
L 506 -1331 
L 506 -850 
L 844 -850 
Q 1081 -850 1212 -737 
Q 1344 -625 1503 -206 
L 1606 56 
L 191 3500 
L 800 3500 
L 1894 763 
L 2988 3500 
L 3597 3500 
L 2059 -325 
z
" transform="scale(0.015625)"/>
       <path id="DejaVuSans-20" transform="scale(0.015625)"/>
       <path id="DejaVuSans-28" d="M 1984 4856 
Q 1566 4138 1362 3434 
Q 1159 2731 1159 2009 
Q 1159 1288 1364 580 
Q 1569 -128 1984 -844 
L 1484 -844 
Q 1016 -109 783 600 
Q 550 1309 550 2009 
Q 550 2706 781 3412 
Q 1013 4119 1484 4856 
L 1984 4856 
z
" transform="scale(0.015625)"/>
       <path id="DejaVuSans-6b" d="M 581 4863 
L 1159 4863 
L 1159 1991 
L 2875 3500 
L 3609 3500 
L 1753 1863 
L 3688 0 
L 2938 0 
L 1159 1709 
L 1159 0 
L 581 0 
L 581 4863 
z
" transform="scale(0.015625)"/>
       <path id="DejaVuSans-63" d="M 3122 3366 
L 3122 2828 
Q 2878 2963 2633 3030 
Q 2388 3097 2138 3097 
Q 1578 3097 1268 2742 
Q 959 2388 959 1747 
Q 959 1106 1268 751 
Q 1578 397 2138 397 
Q 2388 397 2633 464 
Q 2878 531 3122 666 
L 3122 134 
Q 2881 22 2623 -34 
Q 2366 -91 2075 -91 
Q 1284 -91 818 406 
Q 353 903 353 1747 
Q 353 2603 823 3093 
Q 1294 3584 2113 3584 
Q 2378 3584 2631 3529 
Q 2884 3475 3122 3366 
z
" transform="scale(0.015625)"/>
       <path id="DejaVuSans-6c" d="M 603 4863 
L 1178 4863 
L 1178 0 
L 603 0 
L 603 4863 
z
" transform="scale(0.015625)"/>
       <path id="DejaVuSans-2f" d="M 1625 4666 
L 2156 4666 
L 531 -594 
L 0 -594 
L 1625 4666 
z
" transform="scale(0.015625)"/>
       <path id="DejaVuSans-6f" d="M 1959 3097 
Q 1497 3097 1228 2736 
Q 959 2375 959 1747 
Q 959 1119 1226 758 
Q 1494 397 1959 397 
Q 2419 397 2687 759 
Q 2956 1122 2956 1747 
Q 2956 2369 2687 2733 
Q 2419 3097 1959 3097 
z
M 1959 3584 
Q 2709 3584 3137 3096 
Q 3566 2609 3566 1747 
Q 3566 888 3137 398 
Q 2709 -91 1959 -91 
Q 1206 -91 779 398 
Q 353 888 353 1747 
Q 353 2609 779 3096 
Q 1206 3584 1959 3584 
z
" transform="scale(0.015625)"/>
       <path id="DejaVuSans-29" d="M 513 4856 
L 1013 4856 
Q 1481 4119 1714 3412 
Q 1947 2706 1947 2009 
Q 1947 1309 1714 600 
Q 1481 -109 1013 -844 
L 513 -844 
Q 928 -128 1133 580 
Q 1338 1288 1338 2009 
Q 1338 2731 1133 3434 
Q 928 4138 513 4856 
z
" transform="scale(0.015625)"/>
      </defs>
      <use xlink:href="#DejaVuSans-45"/>
      <use xlink:href="#DejaVuSans-6e" x="63.183594"/>
      <use xlink:href="#DejaVuSans-65" x="126.5625"/>
      <use xlink:href="#DejaVuSans-72" x="188.085938"/>
      <use xlink:href="#DejaVuSans-67" x="227.449219"/>
      <use xlink:href="#DejaVuSans-79" x="290.925781"/>
      <use xlink:href="#DejaVuSans-20" x="350.105469"/>
      <use xlink:href="#DejaVuSans-28" x="381.892578"/>
      <use xlink:href="#DejaVuSans-6b" x="420.90625"/>
      <use xlink:href="#DejaVuSans-63" x="478.816406"/>
      <use xlink:href="#DejaVuSans-61" x="533.796875"/>
      <use xlink:href="#DejaVuSans-6c" x="595.076172"/>
      <use xlink:href="#DejaVuSans-2f" x="622.859375"/>
      <use xlink:href="#DejaVuSans-6d" x="656.550781"/>
      <use xlink:href="#DejaVuSans-6f" x="753.962891"/>
      <use xlink:href="#DejaVuSans-6c" x="815.144531"/>
      <use xlink:href="#DejaVuSans-29" x="842.927734"/>
     </g>
    </g>
   </g>
   <g id="line2d_18">
    <path d="M 81.52309 102.126225 
L 81.969983 118.937594 
L 82.416876 105.693229 
L 82.863769 104.934903 
L 83.310662 98.408866 
L 84.204448 107.611143 
L 84.651341 95.158669 
L 85.098234 109.790085 
L 85.545127 103.806992 
L 86.438913 116.813823 
L 86.885806 91.770693 
L 87.332699 119.004005 
L 88.226485 105.513445 
L 89.120271 62.279162 
L 89.567164 127.186606 
L 90.014057 119.840976 
L 90.46095 139.690854 
L 90.907843 113.947255 
L 91.354736 121.43126 
L 92.248523 148.118216 
L 92.695416 146.453769 
L 93.142309 149.518131 
L 93.589202 144.29608 
L 94.036095 115.054224 
L 94.482988 130.188659 
L 94.929881 85.630441 
L 95.376774 95.31865 
L 95.823667 95.813707 
L 96.27056 88.749891 
L 96.717453 91.443553 
L 97.164346 91.596044 
L 97.611239 89.41388 
L 98.058132 92.597349 
L 98.505025 98.405076 
L 98.951918 99.075661 
L 99.398811 81.66751 
L 100.292597 91.062546 
L 100.73949 84.99495 
L 101.186383 70.539646 
L 101.633276 89.902034 
L 102.080169 92.824819 
L 102.527062 97.341307 
L 102.973956 87.50458 
L 103.420849 96.336281 
L 103.867742 101.299636 
L 104.314635 82.275098 
L 104.761528 97.027444 
L 105.208421 73.485606 
L 105.655314 94.225212 
L 106.102207 144.631912 
L 106.5491 149.226031 
L 106.995993 118.496941 
L 107.442886 138.911691 
L 107.889779 134.360183 
L 108.336672 77.516474 
L 108.783565 91.752381 
L 109.230458 94.826339 
L 109.677351 92.86561 
L 110.124244 100.626407 
L 110.571137 89.841087 
L 111.01803 91.009502 
L 111.464923 101.855631 
L 111.911816 84.998173 
L 112.358709 96.983436 
L 113.252495 87.651153 
L 113.699388 90.485541 
L 114.146282 82.608507 
L 114.593175 91.207233 
L 115.040068 87.175033 
L 115.486961 81.151516 
L 115.933854 90.867778 
L 116.380747 111.015999 
L 116.82764 105.844047 
L 117.274533 97.060159 
L 118.168319 87.46307 
L 118.615212 94.410316 
L 119.062105 93.458857 
L 119.508998 98.503212 
L 119.955891 81.325942 
L 120.402784 115.684093 
L 120.849677 100.651423 
L 121.29657 100.300433 
L 122.190356 120.648693 
L 122.637249 93.893462 
L 123.084142 121.098127 
L 123.531035 103.759004 
L 123.977928 80.454784 
L 124.424821 114.73945 
L 124.871715 109.136465 
L 125.318608 130.907643 
L 125.765501 101.953267 
L 126.212394 99.711352 
L 126.659287 84.838616 
L 127.10618 81.211981 
L 127.553073 95.595528 
L 127.999966 73.638036 
L 128.446859 84.067325 
L 128.893752 67.466271 
L 129.340645 82.118389 
L 129.787538 81.528172 
L 130.234431 80.292384 
L 130.681324 111.66752 
L 131.128217 116.229264 
L 131.57511 105.292772 
L 132.022003 104.074924 
L 132.468896 106.525975 
L 132.915789 94.89736 
L 133.362682 98.613616 
L 133.809575 96.388355 
L 134.256468 84.508589 
L 134.703361 83.268115 
L 135.150254 80.680815 
L 135.597148 90.244362 
L 136.044041 94.624613 
L 136.490934 79.5038 
L 136.937827 89.171039 
L 137.38472 105.369572 
L 137.831613 91.515848 
L 138.278506 98.207348 
L 138.725399 94.947974 
L 139.172292 93.810686 
L 139.619185 80.507147 
L 140.066078 91.135972 
L 140.512971 97.46705 
L 140.959864 91.367019 
L 141.406757 91.028196 
L 141.85365 107.941412 
L 142.300543 82.238704 
L 142.747436 97.117284 
L 143.194329 84.701355 
L 143.641222 103.38242 
L 144.088115 87.496703 
L 144.535008 83.204067 
L 144.981901 87.987314 
L 145.428794 104.561048 
L 145.875687 86.562918 
L 146.32258 97.194207 
L 146.769474 84.455848 
L 147.216367 86.070122 
L 147.66326 88.7139 
L 148.110153 87.760333 
L 149.003939 69.960017 
L 149.450832 81.643572 
L 149.897725 86.665086 
L 150.344618 75.451258 
L 151.238404 97.317486 
L 151.685297 83.741841 
L 152.13219 91.300907 
L 152.579083 85.971623 
L 153.025976 76.839496 
L 153.472869 92.708185 
L 153.919762 83.735208 
L 154.366655 78.496959 
L 154.813548 87.71641 
L 155.260441 103.179145 
L 155.707334 97.781284 
L 156.154227 99.095221 
L 156.60112 110.019107 
L 157.048013 112.883939 
L 157.494907 109.306263 
L 157.9418 108.088382 
L 158.388693 127.143205 
L 158.835586 115.425893 
L 159.282479 118.970394 
L 159.729372 120.766021 
L 160.176265 94.975424 
L 160.623158 112.712634 
L 161.070051 114.055039 
L 161.516944 101.109063 
L 161.963837 100.186439 
L 162.41073 89.261077 
L 162.857623 119.972541 
L 163.751409 111.60385 
L 164.198302 94.588507 
L 164.645195 110.933589 
L 165.092088 115.706249 
L 165.538981 127.852004 
L 165.985874 116.351043 
L 166.432767 81.756365 
L 166.87966 113.910402 
L 167.326553 118.478055 
L 167.773446 84.668384 
L 168.220339 100.696474 
L 168.667233 98.489358 
L 169.114126 97.018146 
L 169.561019 90.897606 
L 170.007912 115.495391 
L 170.454805 94.336991 
L 170.901698 88.598969 
L 171.348591 90.499891 
L 171.795484 85.64524 
L 172.242377 92.994818 
L 172.68927 104.42027 
L 173.136163 106.705573 
L 173.583056 101.820637 
L 174.029949 104.966012 
L 174.476842 102.605354 
L 174.923735 96.5538 
L 175.370628 98.030591 
L 175.817521 73.456835 
L 176.264414 109.808867 
L 176.711307 73.943189 
L 177.1582 88.953863 
L 177.605093 97.955164 
L 178.051986 114.335886 
L 178.498879 89.80247 
L 178.945772 81.06207 
L 179.392666 104.086535 
L 179.839559 74.761846 
L 180.286452 122.421296 
L 180.733345 76.574798 
L 181.180238 117.760003 
L 181.627131 97.60462 
L 182.074024 120.766559 
L 182.520917 103.7624 
L 182.96781 132.096838 
L 183.414703 87.450339 
L 183.861596 114.030223 
L 184.308489 116.530602 
L 184.755382 112.450296 
L 185.202275 89.808806 
L 185.649168 111.182604 
L 186.096061 109.856034 
L 186.542954 110.280676 
L 186.989847 107.223977 
L 187.43674 131.343707 
L 187.883633 148.380771 
L 188.330526 98.699606 
L 188.777419 105.27803 
L 189.224312 125.961815 
L 189.671205 124.665516 
L 190.118098 128.492228 
L 190.564992 87.037642 
L 191.011885 122.785869 
L 191.458778 129.185585 
L 191.905671 142.019919 
L 192.352564 131.975602 
L 192.799457 131.014579 
L 193.24635 138.771992 
L 193.693243 110.552573 
L 195.033922 126.572512 
L 195.480815 130.079634 
L 195.927708 117.599146 
L 196.374601 117.890638 
L 196.821494 133.70914 
L 197.268387 101.648951 
L 197.71528 99.920903 
L 198.162173 120.585943 
L 199.055959 107.885336 
L 199.502852 113.537101 
L 199.949745 117.380092 
L 200.396638 131.441613 
L 200.843531 119.575506 
L 201.290425 143.725079 
L 201.737318 123.709452 
L 202.184211 153.998314 
L 203.077997 111.059947 
L 203.52489 89.064843 
L 203.971783 111.889932 
L 204.418676 82.637174 
L 204.865569 115.13936 
L 205.312462 110.655089 
L 205.759355 108.614845 
L 206.206248 75.596208 
L 206.653141 72.59961 
L 207.99382 122.635816 
L 208.440713 113.919931 
L 208.887606 125.688474 
L 209.334499 108.298478 
L 209.781392 96.192644 
L 210.228285 128.15507 
L 211.122071 80.535076 
L 211.568964 100.180899 
L 212.015858 72.080652 
L 212.462751 93.794149 
L 212.909644 83.929464 
L 213.356537 84.69092 
L 213.80343 80.67037 
L 214.250323 96.042436 
L 214.697216 82.616213 
L 215.591002 160.976049 
L 216.037895 128.31539 
L 216.484788 128.287977 
L 216.931681 99.10691 
L 217.378574 98.560366 
L 217.825467 84.638126 
L 218.27236 93.917254 
L 218.719253 94.292234 
L 219.166146 103.397482 
L 219.613039 95.502022 
L 220.059932 103.584207 
L 220.506825 92.011725 
L 220.953718 103.985164 
L 221.400611 101.861978 
L 221.847504 101.477931 
L 222.294397 98.411012 
L 222.74129 83.257667 
L 223.188184 99.786887 
L 223.635077 111.83825 
L 224.08197 112.402473 
L 224.528863 97.31754 
L 224.975756 89.461602 
L 225.422649 101.758904 
L 225.869542 98.11044 
L 226.316435 111.355595 
L 226.763328 105.067867 
L 227.210221 75.03067 
L 227.657114 99.687337 
L 228.104007 104.072794 
L 228.5509 107.30536 
L 228.997793 114.703186 
L 229.444686 101.858822 
L 229.891579 112.640317 
L 230.338472 107.381855 
L 230.785365 94.192199 
L 231.232258 92.101604 
L 231.679151 92.333444 
L 232.126044 109.489104 
L 233.01983 116.716141 
L 233.466723 102.793986 
L 233.913617 95.798329 
L 234.36051 100.86302 
L 234.807403 85.263776 
L 235.254296 113.374157 
L 235.701189 95.121543 
L 236.148082 94.222666 
L 236.594975 89.775195 
L 237.041868 100.069538 
L 237.488761 62.201866 
L 237.935654 81.527482 
L 238.382547 140.535615 
L 238.82944 153.515555 
L 239.276333 83.846359 
L 239.723226 126.974622 
L 240.170119 86.229859 
L 240.617012 98.767541 
L 241.063905 144.81137 
L 241.510798 146.484363 
L 241.957691 131.547308 
L 242.404584 95.651857 
L 242.851477 107.650566 
L 243.29837 96.446146 
L 243.745263 95.780952 
L 244.192156 75.256834 
L 244.639049 79.642795 
L 245.085943 86.917633 
L 245.532836 83.826456 
L 245.979729 96.221641 
L 246.426622 93.116916 
L 246.873515 100.549029 
L 247.320408 102.704123 
L 247.767301 94.343553 
L 248.214194 110.542529 
L 248.661087 87.890206 
L 249.10798 72.111695 
L 250.001766 122.57952 
L 250.448659 90.656176 
L 250.895552 98.27968 
L 251.342445 88.58891 
L 251.789338 98.541591 
L 252.236231 99.234826 
L 252.683124 88.164205 
L 253.130017 106.440106 
L 253.57691 104.653519 
L 254.023803 101.359253 
L 254.470696 105.559397 
L 254.917589 98.773098 
L 255.364482 99.539952 
L 255.811376 95.331589 
L 256.258269 96.469039 
L 256.705162 88.06804 
L 257.152055 92.807475 
L 257.598948 91.03159 
L 258.045841 82.292953 
L 258.492734 98.841081 
L 258.939627 97.286214 
L 259.38652 97.105179 
L 259.833413 101.807842 
L 260.280306 100.160404 
L 261.174092 103.998311 
L 261.620985 100.86944 
L 262.067878 99.839055 
L 262.514771 98.200377 
L 262.961664 90.810329 
L 263.408557 85.980578 
L 263.85545 115.516319 
L 264.302343 81.775679 
L 264.749236 99.601009 
L 265.196129 102.790879 
L 265.643022 97.774372 
L 266.089915 90.086616 
L 266.536808 92.171695 
L 266.983702 97.594478 
L 267.430595 84.856608 
L 267.877488 97.831996 
L 268.324381 86.898035 
L 268.771274 86.779487 
L 269.218167 78.55969 
L 269.66506 79.861347 
L 270.111953 98.179919 
L 270.558846 89.363388 
L 271.005739 90.360429 
L 271.452632 86.509157 
L 272.346418 95.873589 
L 272.793311 93.427784 
L 273.240204 99.153362 
L 273.687097 93.594227 
L 274.580883 70.940871 
L 275.027776 101.24096 
L 275.474669 99.908329 
L 275.921562 100.792673 
L 276.368455 89.28408 
L 276.815348 101.370782 
L 277.262241 95.333281 
L 277.709135 93.618264 
L 278.156028 105.624693 
L 278.602921 104.343644 
L 279.049814 95.450566 
L 279.496707 102.302418 
L 279.9436 99.605544 
L 280.390493 108.445866 
L 280.837386 93.695209 
L 281.284279 90.300597 
L 281.731172 92.262131 
L 282.178065 99.835157 
L 282.624958 96.089068 
L 283.071851 105.216299 
L 283.518744 89.636516 
L 283.965637 92.159128 
L 284.41253 109.561357 
L 284.859423 100.684328 
L 285.306316 99.44869 
L 285.753209 104.520555 
L 286.200102 94.196201 
L 286.646995 105.310655 
L 287.093888 99.586852 
L 287.540781 107.343643 
L 287.987674 108.475056 
L 288.434568 108.354076 
L 288.881461 103.599155 
L 289.328354 110.381525 
L 290.22214 102.164457 
L 290.669033 99.804345 
L 291.115926 98.78383 
L 291.562819 106.807092 
L 292.009712 89.987721 
L 292.456605 107.813863 
L 292.903498 113.740297 
L 293.350391 93.326492 
L 293.797284 105.188966 
L 294.244177 113.38257 
L 294.69107 98.9788 
L 295.137963 89.655916 
L 295.584856 91.904011 
L 296.031749 90.599784 
L 296.478642 99.781609 
L 297.372428 88.972408 
L 297.819321 106.171738 
L 298.266214 107.502237 
L 298.713107 95.667396 
L 299.16 76.101082 
L 299.606894 94.293922 
L 300.053787 96.74311 
L 300.50068 85.381316 
L 300.947573 80.314967 
L 301.394466 102.602817 
L 301.841359 90.620931 
L 302.288252 86.619262 
L 302.735145 101.498538 
L 303.182038 86.543791 
L 303.628931 88.645784 
L 304.075824 119.484974 
L 304.522717 87.863092 
L 304.96961 105.061629 
L 305.416503 102.358097 
L 305.863396 76.470745 
L 306.310289 125.687049 
L 306.757182 90.552373 
L 307.204075 83.812486 
L 307.650968 107.560216 
L 308.097861 95.927575 
L 308.544754 106.958133 
L 308.991647 106.691293 
L 309.43854 108.320261 
L 309.885433 89.204674 
L 310.332327 96.927172 
L 310.77922 107.862809 
L 311.226113 100.321388 
L 311.673006 104.007937 
L 312.119899 148.64805 
L 312.566792 159.046118 
L 313.013685 96.106838 
L 313.460578 98.99298 
L 313.907471 103.55446 
L 314.354364 111.215446 
L 314.801257 106.84523 
L 315.24815 94.175543 
L 315.695043 98.751229 
L 316.141936 184.183731 
L 317.035722 160.894442 
L 317.482615 105.17975 
L 317.929508 75.794857 
L 318.376401 105.875775 
L 318.823294 103.146829 
L 319.270187 105.991961 
L 319.71708 100.962003 
L 320.163973 119.523493 
L 320.610866 116.097534 
L 321.057759 118.420982 
L 321.504653 92.850547 
L 321.951546 90.245186 
L 322.398439 91.757767 
L 322.845332 87.347692 
L 323.292225 96.373613 
L 323.739118 110.141012 
L 324.186011 111.201173 
L 324.632904 85.930125 
L 325.079797 99.89091 
L 325.52669 91.045862 
L 325.973583 97.605005 
L 326.420476 100.317687 
L 326.867369 93.386786 
L 327.314262 90.744488 
L 327.761155 91.658021 
L 328.208048 94.781234 
L 328.654941 114.468606 
L 329.101834 88.217618 
L 329.548727 114.594046 
L 329.99562 88.219831 
L 330.442513 98.550294 
L 330.889406 105.819662 
L 331.336299 89.645852 
L 331.783192 99.571141 
L 332.230086 94.091958 
L 332.676979 95.605719 
L 333.123872 103.488347 
L 333.570765 96.720608 
L 334.017658 88.206474 
L 334.464551 108.663874 
L 334.911444 79.720229 
L 335.358337 94.144931 
L 335.80523 89.124526 
L 336.252123 94.798139 
L 336.699016 93.755378 
L 337.145909 99.651937 
L 337.592802 95.284212 
L 338.039695 92.94448 
L 338.486588 87.973869 
L 338.933481 158.011927 
L 339.380374 85.427722 
L 339.827267 93.099321 
L 340.27416 105.940156 
L 340.721053 104.212612 
L 341.167946 84.635756 
L 341.614839 87.254643 
L 342.061732 100.962497 
L 342.508625 102.102994 
L 342.955518 89.817875 
L 343.402412 89.820638 
L 343.849305 103.432945 
L 344.296198 91.782497 
L 344.743091 73.081186 
L 345.189984 94.759846 
L 345.636877 86.684581 
L 346.08377 72.369739 
L 346.530663 90.635667 
L 346.977556 94.871052 
L 347.424449 80.510225 
L 347.871342 82.183304 
L 348.318235 87.788458 
L 348.765128 99.647759 
L 349.212021 94.116881 
L 349.658914 114.705799 
L 350.105807 96.738584 
L 350.5527 105.587486 
L 350.999593 78.276938 
L 351.446486 91.648043 
L 351.893379 97.533922 
L 352.340272 101.231146 
L 352.787165 101.103149 
L 353.234058 100.348412 
L 353.680951 91.370511 
L 354.127845 93.725653 
L 354.574738 100.95234 
L 355.021631 100.884877 
L 355.468524 99.785408 
L 355.915417 96.71939 
L 356.36231 97.037639 
L 356.809203 105.162578 
L 357.256096 98.389181 
L 358.149882 103.199901 
L 358.596775 89.85034 
L 359.043668 105.450198 
L 359.490561 103.579781 
L 359.937454 100.343816 
L 360.384347 86.166934 
L 360.83124 84.858098 
L 361.278133 112.416318 
L 361.725026 94.359277 
L 362.171919 97.831698 
L 362.618812 87.450614 
L 363.065705 87.170245 
L 363.512598 88.091574 
L 363.959491 110.694431 
L 364.406384 102.273398 
L 364.853278 103.524071 
L 365.300171 105.608847 
L 365.747064 81.260198 
L 366.193957 96.644324 
L 367.087743 94.354492 
L 367.534636 104.166702 
L 367.981529 94.38695 
L 368.428422 103.091909 
L 368.875315 109.58603 
L 369.322208 94.647466 
L 369.769101 84.719716 
L 370.215994 107.115148 
L 370.662887 99.619216 
L 371.10978 105.45338 
L 371.556673 100.737472 
L 372.003566 101.006271 
L 372.450459 97.061443 
L 372.897352 101.648811 
L 373.344245 85.516233 
L 373.791138 97.147159 
L 374.238031 105.851227 
L 374.684924 75.115189 
L 375.131817 94.201195 
L 375.57871 80.37909 
L 376.025604 94.518105 
L 376.472497 69.137947 
L 376.91939 83.102339 
L 377.366283 90.02643 
L 377.813176 105.188436 
L 378.260069 116.292877 
L 378.706962 85.488117 
L 379.153855 103.511218 
L 379.600748 94.561712 
L 380.047641 89.521885 
L 380.494534 124.38235 
L 380.941427 103.607443 
L 381.38832 117.213257 
L 381.835213 102.933177 
L 382.282106 102.067653 
L 382.728999 83.142611 
L 383.175892 85.640951 
L 383.622785 123.372177 
L 384.069678 140.250064 
L 384.516571 145.801389 
L 384.963464 133.729551 
L 385.85725 138.384453 
L 386.304143 125.832376 
L 386.751037 157.221466 
L 387.19793 140.09156 
L 387.644823 157.568988 
L 388.091716 155.529227 
L 388.538609 146.135574 
L 388.985502 145.11352 
L 389.879288 136.24694 
L 390.326181 153.802897 
L 390.773074 165.577524 
L 391.219967 147.359643 
L 391.66686 151.365487 
L 392.113753 146.243711 
L 392.560646 152.138835 
L 393.007539 143.270128 
L 393.454432 139.703014 
L 393.901325 145.541366 
L 394.348218 134.802681 
L 394.795111 143.906161 
L 395.242004 146.077178 
L 395.688897 151.655188 
L 396.13579 146.459768 
L 396.582683 136.397625 
L 397.029576 152.037967 
L 397.476469 149.278608 
L 397.923363 153.604105 
L 398.370256 159.87278 
L 398.817149 147.818251 
L 399.264042 151.004468 
L 399.710935 158.307677 
L 400.157828 140.861557 
L 400.604721 137.766893 
L 401.051614 151.022156 
L 401.498507 156.2261 
L 401.9454 150.169002 
L 402.392293 150.022238 
L 402.839186 166.047134 
L 403.286079 143.513548 
L 403.732972 158.345896 
L 404.179865 139.545155 
L 404.626758 154.832914 
L 405.073651 152.943287 
L 405.520544 112.352679 
L 405.967437 144.727853 
L 406.41433 148.893472 
L 406.861223 128.764662 
L 407.308116 148.435569 
L 407.755009 145.967111 
L 408.648796 134.338139 
L 409.095689 145.539242 
L 409.542582 136.509488 
L 409.989475 148.731641 
L 410.436368 138.290575 
L 410.883261 148.66557 
L 411.330154 153.493726 
L 411.777047 150.857253 
L 412.22394 112.5032 
L 412.670833 144.1907 
L 413.117726 144.141812 
L 413.564619 122.525006 
L 414.011512 114.350367 
L 414.458405 144.287282 
L 414.905298 147.388686 
L 415.352191 149.098169 
L 415.799084 138.578378 
L 416.245977 154.45125 
L 416.69287 137.406335 
L 417.139763 129.949609 
L 417.586656 143.687848 
L 418.033549 146.987892 
L 418.480442 139.041158 
L 418.927335 142.507153 
L 419.374228 150.200136 
L 419.821122 153.606091 
L 420.268015 122.032171 
L 420.714908 123.679119 
L 421.161801 136.936751 
L 421.608694 136.823161 
L 422.055587 139.401569 
L 422.50248 135.697706 
L 422.949373 140.31928 
L 423.396266 133.458262 
L 423.843159 132.700082 
L 424.290052 94.833269 
L 425.183838 95.935901 
L 425.630731 102.069605 
L 426.077624 98.865297 
L 426.524517 98.178282 
L 426.97141 101.822628 
L 427.418303 89.050909 
L 427.865196 90.265372 
L 428.312089 100.914165 
L 428.758982 105.416695 
L 429.205875 108.143507 
L 430.099661 88.25416 
L 430.546555 96.45238 
L 430.993448 98.833503 
L 431.440341 110.009218 
L 431.887234 81.616853 
L 432.334127 93.426603 
L 432.78102 72.557586 
L 433.227913 89.834269 
L 433.674806 87.726519 
L 434.121699 103.149367 
L 434.568592 76.286875 
L 435.015485 93.478633 
L 435.462378 85.826149 
L 435.909271 98.751865 
L 436.356164 96.741797 
L 436.803057 100.876009 
L 437.24995 99.204963 
L 437.696843 86.513183 
L 438.590629 109.92588 
L 439.484415 90.588328 
L 439.931308 91.151398 
L 440.378201 100.142575 
L 440.825094 102.07636 
L 441.271988 84.475907 
L 441.718881 93.242038 
L 442.165774 96.379207 
L 442.612667 95.29987 
L 443.05956 126.310857 
L 443.506453 91.503134 
L 443.953346 95.948506 
L 444.400239 94.951733 
L 444.847132 83.034505 
L 445.294025 103.853508 
L 445.740918 96.043734 
L 446.187811 100.674295 
L 446.634704 100.537096 
L 447.081597 107.357654 
L 447.52849 107.261269 
L 447.975383 100.914799 
L 448.422276 86.0135 
L 448.869169 108.767912 
L 449.762955 90.744521 
L 450.209848 103.887092 
L 450.656741 110.149294 
L 451.103634 98.78082 
L 451.550527 93.552217 
L 451.99742 97.10491 
L 452.444314 99.606711 
L 452.891207 105.266234 
L 453.3381 99.901465 
L 454.231886 82.75109 
L 454.678779 87.666464 
L 455.125672 101.34764 
L 455.572565 79.771863 
L 456.019458 99.450938 
L 456.466351 105.598271 
L 456.913244 98.150168 
L 457.360137 106.183109 
L 458.253923 84.771656 
L 458.700816 89.733639 
L 459.147709 130.10928 
L 459.594602 118.130475 
L 460.041495 117.415761 
L 460.488388 144.522499 
L 460.935281 157.199356 
L 461.382174 116.855468 
L 461.829067 104.726746 
L 462.27596 108.836012 
L 462.722853 102.750745 
L 463.169747 93.157376 
L 463.61664 105.045115 
L 464.063533 104.878696 
L 464.510426 80.660025 
L 464.957319 111.026446 
L 465.404212 103.238506 
L 465.851105 88.993367 
L 466.297998 69.391472 
L 466.744891 92.267595 
L 467.638677 87.51491 
L 468.08557 90.3263 
L 468.532463 89.008665 
L 469.426249 102.518372 
L 469.873142 93.700768 
L 470.320035 108.632968 
L 470.766928 91.273366 
L 471.213821 97.019519 
L 471.660714 106.708881 
L 472.107607 105.021176 
L 472.5545 109.424878 
L 473.001393 106.82907 
L 473.448286 96.631386 
L 473.895179 90.803993 
L 474.342073 90.411299 
L 474.788966 92.091403 
L 475.235859 104.766146 
L 475.682752 103.564555 
L 476.129645 104.42642 
L 476.576538 104.563902 
L 477.470324 94.207666 
L 477.917217 93.550417 
L 478.36411 90.407919 
L 479.257896 103.73581 
L 479.704789 94.87959 
L 480.151682 99.689283 
L 480.598575 107.597049 
L 481.045468 106.196701 
L 481.492361 91.363695 
L 481.939254 89.932813 
L 482.83304 77.938948 
L 483.279933 76.727718 
L 483.726826 111.517477 
L 484.173719 93.452165 
L 484.620612 86.456726 
L 485.067506 88.679235 
L 485.514399 132.806169 
L 485.961292 108.005363 
L 486.408185 133.387948 
L 486.855078 124.986079 
L 487.301971 130.035766 
L 487.748864 128.234448 
L 488.195757 121.075202 
L 488.64265 137.3389 
L 489.089543 129.330007 
L 489.536436 100.527321 
L 489.983329 146.312719 
L 490.430222 137.543528 
L 490.877115 111.669929 
L 491.324008 99.186517 
L 491.770901 109.111691 
L 492.217794 102.248639 
L 492.664687 97.224836 
L 493.11158 102.671378 
L 493.558473 98.772438 
L 494.005366 107.927451 
L 494.452259 109.317137 
L 494.899152 117.30297 
L 495.792938 99.119782 
L 496.239832 106.957349 
L 496.686725 182.978542 
L 497.133618 148.009707 
L 497.580511 166.710055 
L 498.027404 172.756378 
L 498.474297 173.22097 
L 498.92119 183.746515 
L 499.814976 153.499066 
L 500.261869 194.055446 
L 500.708762 156.025833 
L 501.155655 155.788722 
L 501.602548 173.549489 
L 502.049441 153.545202 
L 502.496334 164.658445 
L 502.943227 168.187914 
L 503.39012 159.441103 
L 503.837013 161.360872 
L 504.283906 161.217329 
L 504.730799 168.372186 
L 505.177692 153.109476 
L 505.624585 171.308837 
L 506.071478 152.045343 
L 506.518371 118.727495 
L 506.965265 118.504561 
L 507.412158 150.911701 
L 507.859051 123.760772 
L 508.305944 109.431072 
L 508.752837 182.597456 
L 509.19973 175.125011 
L 509.646623 161.083807 
L 510.093516 138.748216 
L 510.540409 149.855031 
L 510.987302 181.695453 
L 511.434195 187.547676 
L 511.881088 150.509126 
L 512.327981 167.182027 
L 512.774874 166.928685 
L 513.221767 156.376117 
L 513.66866 177.315472 
L 514.115553 174.041004 
L 514.562446 169.883783 
L 515.009339 167.674018 
L 515.456232 155.224001 
L 515.903125 166.489931 
L 516.350018 165.998238 
L 516.796911 156.254599 
L 517.243804 164.428606 
L 517.690698 160.318672 
L 518.137591 162.929754 
L 518.584484 182.883908 
L 519.031377 149.391746 
L 519.47827 162.361757 
L 519.925163 141.771797 
L 520.372056 153.25511 
L 521.265842 183.941002 
L 522.159628 148.803863 
L 522.606521 173.756867 
L 523.053414 161.839237 
L 523.500307 169.832114 
L 523.9472 132.645811 
L 524.394093 167.365039 
L 524.840986 157.444888 
L 525.287879 178.296242 
L 525.734772 170.556266 
L 526.181665 189.679358 
L 526.628558 159.073645 
L 527.075451 163.413255 
L 527.522344 149.747014 
L 527.969237 150.508925 
L 528.41613 153.155125 
L 528.41613 153.155125 
" clip-path="url(#paeeb9a0833)" style="fill: none; stroke: #000000; stroke-width: 0.7; stroke-linecap: round"/>
   </g>
   <g id="line2d_19">
    <path d="M 103.420849 104.938712 
L 103.867742 104.92218 
L 104.314635 104.18893 
L 104.761528 104.015614 
L 105.208421 103.386629 
L 105.655314 103.302955 
L 106.5491 104.965768 
L 107.442886 106.014965 
L 107.889779 106.626029 
L 108.783565 105.473107 
L 109.230458 105.53422 
L 109.677351 105.011452 
L 110.571137 104.483844 
L 111.01803 104.668606 
L 111.464923 105.460135 
L 111.911816 104.616366 
L 112.358709 104.159215 
L 112.805602 103.213488 
L 113.699388 102.068651 
L 115.040068 98.676897 
L 115.933854 96.240998 
L 116.380747 96.160234 
L 116.82764 95.673342 
L 117.274533 95.901936 
L 118.615212 95.781005 
L 119.955891 95.797696 
L 120.402784 96.25943 
L 121.29657 96.328853 
L 122.190356 97.609323 
L 122.637249 97.665942 
L 123.531035 99.052393 
L 123.977928 98.863448 
L 124.424821 99.30174 
L 124.871715 99.537643 
L 125.318608 100.405705 
L 125.765501 100.518044 
L 126.659287 100.537549 
L 127.10618 100.22124 
L 127.553073 100.663438 
L 127.999966 100.251695 
L 128.446859 99.040403 
L 128.893752 97.405208 
L 129.340645 96.677637 
L 130.234431 94.44861 
L 131.128217 95.621169 
L 132.468896 96.172675 
L 133.362682 96.425883 
L 134.703361 96.032439 
L 135.150254 95.797966 
L 136.490934 95.870518 
L 136.937827 95.829794 
L 137.38472 96.193685 
L 138.278506 96.547763 
L 139.619185 95.654675 
L 140.066078 95.638148 
L 140.512971 95.838228 
L 141.406757 95.728748 
L 141.85365 95.917512 
L 142.300543 95.935768 
L 143.194329 95.24543 
L 143.641222 95.30707 
L 144.088115 94.819695 
L 144.535008 94.070803 
L 144.981901 93.95268 
L 145.875687 93.278016 
L 146.32258 93.612805 
L 147.66326 91.701931 
L 149.003939 90.718943 
L 149.450832 90.727575 
L 149.897725 90.548966 
L 150.791511 90.6477 
L 151.238404 91.244724 
L 151.685297 91.277193 
L 152.579083 91.586233 
L 153.025976 90.889672 
L 154.813548 89.100349 
L 155.260441 89.265985 
L 156.154227 89.303475 
L 158.388693 91.985763 
L 159.282479 93.300192 
L 159.729372 93.608121 
L 160.176265 93.677313 
L 161.963837 94.889113 
L 162.41073 94.851615 
L 163.751409 96.19773 
L 164.198302 95.930672 
L 164.645195 96.50457 
L 165.092088 96.876349 
L 165.538981 97.739362 
L 165.985874 97.998735 
L 166.432767 97.883928 
L 167.326553 99.107869 
L 167.773446 98.710016 
L 168.220339 98.992687 
L 168.667233 99.01859 
L 169.114126 99.269836 
L 169.561019 99.366386 
L 170.007912 99.902016 
L 170.901698 100.212858 
L 171.348591 100.623656 
L 172.242377 100.830284 
L 172.68927 101.409664 
L 173.136163 101.79996 
L 173.583056 101.890023 
L 174.029949 102.314506 
L 174.923735 102.752239 
L 175.370628 103.17606 
L 175.817521 102.791033 
L 176.264414 103.312507 
L 176.711307 103.221431 
L 177.1582 103.24618 
L 177.605093 103.141701 
L 178.051986 103.472793 
L 178.498879 103.286938 
L 178.945772 102.707797 
L 179.392666 102.531849 
L 179.839559 101.84096 
L 180.286452 102.127619 
L 180.733345 101.116251 
L 181.180238 101.162933 
L 181.627131 100.735617 
L 182.074024 100.735628 
L 182.520917 100.911368 
L 182.96781 101.299052 
L 183.414703 100.766958 
L 184.308489 101.352264 
L 184.755382 101.816049 
L 185.202275 101.212774 
L 186.096061 101.089637 
L 186.542954 101.403481 
L 186.989847 101.329288 
L 187.883633 102.052613 
L 188.330526 101.699584 
L 188.777419 102.170017 
L 189.671205 102.534795 
L 190.118098 103.411272 
L 190.564992 103.138095 
L 191.458778 104.267374 
L 191.905671 105.28982 
L 192.352564 105.619425 
L 192.799457 106.352976 
L 193.24635 107.356437 
L 193.693243 107.75749 
L 194.587029 108.913227 
L 195.927708 110.139323 
L 196.374601 110.397816 
L 196.821494 111.019891 
L 197.71528 111.159601 
L 198.162173 112.102183 
L 198.609066 112.176738 
L 199.502852 113.347245 
L 200.396638 114.077859 
L 200.843531 114.673319 
L 201.290425 115.926579 
L 201.737318 116.319038 
L 202.184211 117.903767 
L 202.631104 118.152208 
L 203.077997 118.841911 
L 203.52489 118.268007 
L 203.971783 118.553714 
L 204.418676 117.791126 
L 204.865569 118.018665 
L 205.312462 117.58983 
L 205.759355 118.01312 
L 207.100034 115.893693 
L 207.99382 116.39898 
L 208.440713 116.480258 
L 208.887606 116.788414 
L 209.334499 116.809904 
L 209.781392 116.106882 
L 210.228285 115.702368 
L 210.675178 115.855386 
L 211.568964 114.844909 
L 212.015858 113.793211 
L 212.462751 113.09925 
L 212.909644 113.037086 
L 213.80343 111.304883 
L 214.697216 109.398145 
L 215.144109 109.214617 
L 216.037895 110.013954 
L 216.484788 110.263046 
L 217.378574 109.273072 
L 217.825467 108.364242 
L 219.166146 106.812402 
L 219.613039 106.689464 
L 220.059932 106.76273 
L 220.506825 106.191246 
L 221.847504 105.638566 
L 222.294397 105.259184 
L 222.74129 104.295505 
L 223.188184 103.899733 
L 223.635077 103.261997 
L 224.08197 103.035857 
L 224.975756 100.994607 
L 225.422649 100.808586 
L 225.869542 100.989498 
L 226.316435 100.978811 
L 226.763328 101.427425 
L 227.210221 100.625251 
L 227.657114 100.405896 
L 228.104007 100.315055 
L 228.5509 100.949238 
L 228.997793 101.79131 
L 229.891579 102.232015 
L 230.785365 101.532382 
L 231.232258 100.860644 
L 231.679151 100.541343 
L 232.126044 100.807273 
L 232.572937 100.516449 
L 233.01983 100.723762 
L 233.466723 101.16894 
L 233.913617 101.081288 
L 234.36051 101.656936 
L 234.807403 101.486328 
L 235.254296 102.075222 
L 236.148082 102.554881 
L 236.594975 102.429536 
L 237.041868 102.778602 
L 237.488761 101.585877 
L 237.935654 99.996905 
L 238.382547 100.24131 
L 238.82944 100.745861 
L 239.276333 100.44065 
L 239.723226 101.008935 
L 240.617012 101.137776 
L 241.510798 103.009896 
L 241.957691 103.730802 
L 242.404584 103.572155 
L 242.851477 103.884932 
L 243.745263 103.612531 
L 244.639049 102.712744 
L 245.085943 102.785944 
L 246.426622 101.768692 
L 246.873515 101.833322 
L 247.320408 102.098172 
L 247.767301 101.949865 
L 248.214194 102.198507 
L 248.661087 101.729199 
L 249.10798 101.070076 
L 250.001766 101.949628 
L 250.895552 101.500783 
L 251.342445 100.978497 
L 251.789338 100.912152 
L 252.683124 100.25969 
L 254.023803 100.936202 
L 254.470696 100.857608 
L 255.811376 100.068021 
L 256.258269 100.081435 
L 256.705162 99.825536 
L 257.152055 99.97641 
L 257.598948 99.529558 
L 258.045841 99.272986 
L 259.38652 99.456288 
L 259.833413 100.248407 
L 260.280306 100.621066 
L 261.174092 98.860505 
L 261.620985 99.200967 
L 262.067878 98.658255 
L 262.514771 98.897666 
L 262.961664 98.738521 
L 263.408557 97.561906 
L 263.85545 96.942545 
L 264.302343 95.947112 
L 264.749236 96.026095 
L 265.196129 95.928901 
L 265.643022 95.955466 
L 266.089915 95.841579 
L 266.983702 96.53891 
L 267.430595 96.49769 
L 267.877488 96.7778 
L 268.771274 96.46458 
L 269.66506 95.567937 
L 270.111953 95.644665 
L 270.558846 95.221082 
L 271.005739 95.270486 
L 271.452632 95.558436 
L 271.899525 95.467857 
L 272.346418 94.933738 
L 273.687097 95.106751 
L 274.13399 94.794817 
L 274.580883 94.228938 
L 275.027776 94.490473 
L 277.709135 93.770114 
L 279.049814 94.281119 
L 279.9436 94.642497 
L 280.390493 95.165555 
L 282.624958 94.705184 
L 283.071851 94.769014 
L 283.965637 94.307572 
L 284.41253 94.502018 
L 284.859423 94.551697 
L 285.306316 94.724464 
L 285.753209 95.095264 
L 286.200102 94.668861 
L 286.646995 95.139561 
L 287.540781 95.230333 
L 287.987674 95.444347 
L 288.881461 96.038245 
L 289.328354 96.293986 
L 289.775247 96.717521 
L 290.22214 96.80417 
L 291.115926 97.302383 
L 291.562819 97.867331 
L 292.456605 98.262538 
L 292.903498 98.750076 
L 293.350391 98.809397 
L 294.244177 99.618901 
L 294.69107 99.681005 
L 296.031749 99.400692 
L 296.925535 100.195528 
L 297.372428 99.950157 
L 298.713107 100.337282 
L 299.16 99.831888 
L 300.053787 99.873598 
L 300.947573 98.988157 
L 301.394466 99.131202 
L 302.735145 98.4989 
L 303.628931 98.322776 
L 304.075824 98.867232 
L 304.522717 98.627791 
L 304.96961 98.807242 
L 305.416503 98.750078 
L 305.863396 98.486763 
L 306.310289 99.157321 
L 307.204075 98.439705 
L 307.650968 98.601935 
L 308.097861 98.430076 
L 308.544754 98.685314 
L 308.991647 98.712927 
L 309.43854 98.887595 
L 310.332327 98.293858 
L 311.226113 98.218478 
L 311.673006 98.091006 
L 312.119899 98.9433 
L 312.566792 100.080933 
L 313.907471 99.946113 
L 314.354364 100.370667 
L 314.801257 100.351295 
L 315.24815 99.96 
L 315.695043 100.068494 
L 316.588829 102.852084 
L 317.035722 104.090397 
L 317.482615 104.400873 
L 317.929508 104.07869 
L 318.376401 104.38421 
L 318.823294 104.451515 
L 320.610866 105.373167 
L 321.504653 106.163228 
L 322.845332 106.021874 
L 323.292225 106.343047 
L 323.739118 106.493811 
L 324.186011 106.905416 
L 325.52669 106.949522 
L 325.973583 107.128706 
L 326.420476 106.745361 
L 326.867369 106.855835 
L 327.761155 106.35549 
L 328.208048 106.7217 
L 328.654941 106.497331 
L 329.101834 106.450636 
L 329.548727 107.066267 
L 329.99562 106.67946 
L 330.889406 106.709145 
L 331.336299 106.368236 
L 331.783192 106.193253 
L 332.230086 106.290999 
L 333.570765 106.105065 
L 334.017658 105.789036 
L 334.464551 104.989352 
L 334.911444 103.402835 
L 335.358337 103.363596 
L 336.252123 102.991101 
L 336.699016 102.6419 
L 337.145909 102.498034 
L 337.592802 102.520207 
L 338.039695 102.404072 
L 338.486588 100.479875 
L 338.933481 100.168768 
L 339.380374 98.659433 
L 339.827267 98.417825 
L 340.27416 99.020731 
L 340.721053 98.987468 
L 341.614839 98.2425 
L 342.061732 98.24251 
L 342.508625 97.8941 
L 343.402412 96.7965 
L 343.849305 97.008147 
L 344.296198 97.038894 
L 344.743091 96.665362 
L 345.189984 96.813605 
L 345.636877 96.619825 
L 346.08377 95.864399 
L 346.530663 95.453089 
L 346.977556 95.631907 
L 347.424449 95.244294 
L 348.318235 94.870712 
L 349.212021 94.871915 
L 349.658914 95.351141 
L 350.105807 95.452753 
L 350.5527 95.668878 
L 350.999593 94.945044 
L 351.446486 95.013653 
L 351.893379 94.67245 
L 352.340272 94.932677 
L 352.787165 94.983734 
L 353.234058 94.874309 
L 353.680951 94.908802 
L 354.127845 94.791892 
L 355.021631 95.034683 
L 355.915417 94.9606 
L 356.36231 95.137223 
L 356.809203 95.067197 
L 357.256096 95.440576 
L 357.702989 95.571128 
L 358.149882 95.852636 
L 358.596775 95.75368 
L 359.043668 95.987576 
L 359.937454 96.167325 
L 360.83124 95.969459 
L 361.278133 95.057547 
L 362.171919 95.330825 
L 363.065705 94.620187 
L 363.512598 94.689303 
L 363.959491 95.158099 
L 364.853278 95.212739 
L 365.300171 95.528558 
L 366.193957 95.221577 
L 366.64085 95.292642 
L 367.087743 95.718108 
L 367.981529 96.060293 
L 368.428422 96.674736 
L 368.875315 97.053744 
L 369.769101 97.133462 
L 370.215994 97.632099 
L 371.10978 97.984826 
L 371.556673 98.117238 
L 372.003566 97.843247 
L 373.344245 97.915717 
L 374.238031 98.192045 
L 374.684924 97.669726 
L 375.131817 97.531687 
L 375.57871 97.132301 
L 376.025604 97.195253 
L 376.91939 96.346499 
L 377.366283 96.12933 
L 377.813176 96.23739 
L 378.260069 96.62886 
L 378.706962 96.397869 
L 379.600748 96.288293 
L 380.047641 96.06528 
L 380.941427 96.764071 
L 381.38832 96.999332 
L 383.175892 96.976047 
L 383.622785 97.195165 
L 385.85725 101.977363 
L 386.304143 102.280122 
L 386.751037 103.379083 
L 387.19793 104.110433 
L 387.644823 105.149636 
L 388.091716 106.635016 
L 389.432395 109.536433 
L 389.879288 110.178037 
L 390.773074 112.616069 
L 391.219967 113.371541 
L 392.560646 116.636855 
L 393.901325 119.090944 
L 394.348218 119.766872 
L 395.242004 121.592334 
L 396.13579 123.901365 
L 396.582683 124.512293 
L 397.029576 126.050748 
L 397.476469 127.152297 
L 399.710935 134.221164 
L 400.157828 134.934626 
L 400.604721 135.364107 
L 401.498507 137.729085 
L 402.839186 140.884534 
L 404.626758 144.292853 
L 405.073651 145.688867 
L 405.967437 146.650215 
L 406.41433 146.823083 
L 406.861223 146.482349 
L 407.755009 146.978854 
L 408.201902 147.021964 
L 408.648796 147.192079 
L 409.095689 146.958435 
L 409.989475 146.710046 
L 410.436368 146.365273 
L 410.883261 146.415873 
L 411.777047 146.797496 
L 412.22394 146.322622 
L 412.670833 146.130378 
L 413.564619 145.204971 
L 414.011512 144.464668 
L 415.352191 144.447097 
L 415.799084 144.424605 
L 416.245977 144.602802 
L 416.69287 144.654876 
L 417.139763 144.375744 
L 418.033549 144.234612 
L 418.480442 144.08624 
L 418.927335 144.20843 
L 419.374228 144.171674 
L 419.821122 144.258223 
L 420.714908 142.902911 
L 421.608694 142.401655 
L 422.055587 142.023533 
L 422.50248 141.920256 
L 422.949373 141.971304 
L 423.843159 141.149506 
L 427.418303 132.365367 
L 427.865196 131.923621 
L 428.758982 130.177811 
L 429.205875 129.765388 
L 430.546555 126.697267 
L 431.440341 125.276574 
L 432.78102 121.75796 
L 434.121699 118.311832 
L 434.568592 117.587506 
L 435.462378 115.406951 
L 436.356164 114.579317 
L 437.24995 112.747417 
L 437.696843 111.495717 
L 439.484415 108.28217 
L 440.378201 106.294534 
L 440.825094 105.555238 
L 442.165774 102.110914 
L 442.612667 101.576268 
L 443.05956 101.628902 
L 445.294025 97.231161 
L 446.187811 95.842355 
L 446.634704 95.956431 
L 447.52849 96.420965 
L 447.975383 96.397868 
L 448.422276 96.140833 
L 448.869169 96.352625 
L 449.762955 96.353303 
L 450.656741 96.81044 
L 451.103634 96.677723 
L 451.550527 96.385897 
L 451.99742 96.391395 
L 452.891207 96.794723 
L 453.3381 96.816082 
L 453.784993 96.434367 
L 454.231886 96.457052 
L 454.678779 96.341849 
L 455.125672 96.91765 
L 455.572565 96.716402 
L 456.019458 96.95089 
L 456.466351 96.999868 
L 456.913244 97.437134 
L 457.80703 97.880182 
L 458.253923 97.600578 
L 458.700816 97.460415 
L 459.147709 98.04508 
L 459.594602 98.42359 
L 460.041495 99.041642 
L 460.935281 100.910373 
L 462.27596 101.867252 
L 462.722853 101.919415 
L 463.169747 101.741036 
L 463.61664 102.15242 
L 464.063533 102.385153 
L 464.510426 102.070769 
L 464.957319 102.385301 
L 465.404212 101.923854 
L 465.851105 101.873659 
L 466.297998 101.342518 
L 466.744891 101.288835 
L 467.191784 101.419826 
L 467.638677 101.093054 
L 468.08557 100.978706 
L 468.979356 100.635246 
L 469.426249 100.538461 
L 469.873142 100.267251 
L 470.766928 100.526812 
L 471.213821 100.291844 
L 471.660714 100.422763 
L 472.107607 100.708296 
L 472.5545 100.819052 
L 474.342073 100.520822 
L 474.788966 100.370516 
L 475.682752 100.433776 
L 476.129645 100.703835 
L 476.576538 101.140091 
L 477.023431 101.366842 
L 477.470324 101.224043 
L 477.917217 101.499614 
L 478.811003 101.146031 
L 479.257896 101.257744 
L 479.704789 101.031673 
L 480.151682 101.119978 
L 481.045468 101.905747 
L 481.939254 100.566882 
L 482.386147 99.887342 
L 483.279933 96.946238 
L 483.726826 96.839478 
L 484.173719 96.613987 
L 484.620612 96.166401 
L 485.067506 95.884971 
L 485.514399 96.677947 
L 485.961292 96.737152 
L 486.408185 97.307337 
L 486.855078 98.193858 
L 487.748864 99.073963 
L 488.195757 99.7156 
L 488.64265 101.074548 
L 489.089543 101.815796 
L 489.536436 102.034661 
L 490.430222 104.154962 
L 490.877115 104.608187 
L 491.770901 104.823189 
L 492.217794 104.994146 
L 492.664687 104.765984 
L 493.11158 104.993944 
L 494.452259 105.139293 
L 494.899152 105.296855 
L 495.792938 105.358267 
L 496.239832 105.681334 
L 496.686725 107.532679 
L 497.580511 109.889923 
L 499.814976 116.770193 
L 500.261869 118.780294 
L 502.943227 126.34997 
L 503.39012 127.414858 
L 504.730799 131.93916 
L 506.071478 136.144751 
L 506.965265 137.291214 
L 507.412158 138.535863 
L 507.859051 138.354955 
L 508.305944 138.383469 
L 509.19973 140.370438 
L 509.646623 140.991399 
L 510.093516 141.201674 
L 510.540409 141.777271 
L 510.987302 142.664402 
L 511.881088 144.828391 
L 512.327981 145.245778 
L 512.774874 145.833481 
L 513.221767 146.727605 
L 514.115553 149.58877 
L 515.903125 154.755859 
L 516.796911 156.856024 
L 517.690698 158.856684 
L 518.584484 161.651415 
L 519.031377 160.979679 
L 519.47827 161.26672 
L 520.372056 160.37793 
L 522.159628 160.199219 
L 522.606521 159.793247 
L 523.053414 159.909515 
L 523.500307 160.190383 
L 523.9472 159.37231 
L 524.394093 159.648706 
L 524.840986 159.504435 
L 525.734772 159.928905 
L 526.181665 160.495275 
L 527.522344 160.285973 
L 527.969237 159.869975 
L 528.41613 159.892171 
L 528.41613 159.892171 
" clip-path="url(#paeeb9a0833)" style="fill: none; stroke-dasharray: 2.96,1.28; stroke-dashoffset: 0; stroke: #ff0000; stroke-width: 0.8"/>
   </g>
   <g id="patch_3">
    <path d="M 59.178438 200.648125 
L 59.178438 55.609188 
" style="fill: none; stroke: #ffffff; stroke-width: 1.25; stroke-linejoin: miter; stroke-linecap: square"/>
   </g>
   <g id="patch_4">
    <path d="M 550.760783 200.648125 
L 550.760783 55.609188 
" style="fill: none; stroke: #ffffff; stroke-width: 1.25; stroke-linejoin: miter; stroke-linecap: square"/>
   </g>
   <g id="patch_5">
    <path d="M 59.178438 200.648125 
L 550.760783 200.648125 
" style="fill: none; stroke: #ffffff; stroke-width: 1.25; stroke-linejoin: miter; stroke-linecap: square"/>
   </g>
   <g id="patch_6">
    <path d="M 59.178438 55.609187 
L 550.760783 55.609187 
" style="fill: none; stroke: #ffffff; stroke-width: 1.25; stroke-linejoin: miter; stroke-linecap: square"/>
   </g>
   <g id="legend_1">
    <g id="patch_7">
     <path d="M 478.921095 196.148125 
L 544.460783 196.148125 
Q 546.260783 196.148125 546.260783 194.348125 
L 546.260783 168.8275 
Q 546.260783 167.0275 544.460783 167.0275 
L 478.921095 167.0275 
Q 477.121095 167.0275 477.121095 168.8275 
L 477.121095 194.348125 
Q 477.121095 196.148125 478.921095 196.148125 
z
" style="fill: #eaeaf2; opacity: 0.8; stroke: #cccccc; stroke-linejoin: miter"/>
    </g>
    <g id="line2d_20">
     <path d="M 480.721095 174.316094 
L 489.721095 174.316094 
L 498.721095 174.316094 
" style="fill: none; stroke: #000000; stroke-width: 0.7; stroke-linecap: round"/>
    </g>
    <g id="text_20">
     <!-- TOTAL -->
     <g style="fill: #262626" transform="translate(505.921095 177.466094)scale(0.09 -0.09)">
      <defs>
       <path id="DejaVuSans-54" d="M -19 4666 
L 3928 4666 
L 3928 4134 
L 2272 4134 
L 2272 0 
L 1638 0 
L 1638 4134 
L -19 4134 
L -19 4666 
z
" transform="scale(0.015625)"/>
       <path id="DejaVuSans-4f" d="M 2522 4238 
Q 1834 4238 1429 3725 
Q 1025 3213 1025 2328 
Q 1025 1447 1429 934 
Q 1834 422 2522 422 
Q 3209 422 3611 934 
Q 4013 1447 4013 2328 
Q 4013 3213 3611 3725 
Q 3209 4238 2522 4238 
z
M 2522 4750 
Q 3503 4750 4090 4092 
Q 4678 3434 4678 2328 
Q 4678 1225 4090 567 
Q 3503 -91 2522 -91 
Q 1538 -91 948 565 
Q 359 1222 359 2328 
Q 359 3434 948 4092 
Q 1538 4750 2522 4750 
z
" transform="scale(0.015625)"/>
       <path id="DejaVuSans-41" d="M 2188 4044 
L 1331 1722 
L 3047 1722 
L 2188 4044 
z
M 1831 4666 
L 2547 4666 
L 4325 0 
L 3669 0 
L 3244 1197 
L 1141 1197 
L 716 0 
L 50 0 
L 1831 4666 
z
" transform="scale(0.015625)"/>
       <path id="DejaVuSans-4c" d="M 628 4666 
L 1259 4666 
L 1259 531 
L 3531 531 
L 3531 0 
L 628 0 
L 628 4666 
z
" transform="scale(0.015625)"/>
      </defs>
      <use xlink:href="#DejaVuSans-54"/>
      <use xlink:href="#DejaVuSans-4f" x="61.083984"/>
      <use xlink:href="#DejaVuSans-54" x="139.794922"/>
      <use xlink:href="#DejaVuSans-41" x="193.128906"/>
      <use xlink:href="#DejaVuSans-4c" x="261.537109"/>
     </g>
    </g>
    <g id="line2d_21">
     <path d="M 480.721095 187.526406 
L 489.721095 187.526406 
L 498.721095 187.526406 
" style="fill: none; stroke-dasharray: 2.96,1.28; stroke-dashoffset: 0; stroke: #ff0000; stroke-width: 0.8"/>
    </g>
    <g id="text_21">
     <!-- Mov. Av. -->
     <g style="fill: #262626" transform="translate(505.921095 190.676406)scale(0.09 -0.09)">
      <defs>
       <path id="DejaVuSans-4d" d="M 628 4666 
L 1569 4666 
L 2759 1491 
L 3956 4666 
L 4897 4666 
L 4897 0 
L 4281 0 
L 4281 4097 
L 3078 897 
L 2444 897 
L 1241 4097 
L 1241 0 
L 628 0 
L 628 4666 
z
" transform="scale(0.015625)"/>
       <path id="DejaVuSans-76" d="M 191 3500 
L 800 3500 
L 1894 563 
L 2988 3500 
L 3597 3500 
L 2284 0 
L 1503 0 
L 191 3500 
z
" transform="scale(0.015625)"/>
       <path id="DejaVuSans-2e" d="M 684 794 
L 1344 794 
L 1344 0 
L 684 0 
L 684 794 
z
" transform="scale(0.015625)"/>
      </defs>
      <use xlink:href="#DejaVuSans-4d"/>
      <use xlink:href="#DejaVuSans-6f" x="86.279297"/>
      <use xlink:href="#DejaVuSans-76" x="147.460938"/>
      <use xlink:href="#DejaVuSans-2e" x="198.890625"/>
      <use xlink:href="#DejaVuSans-20" x="230.677734"/>
      <use xlink:href="#DejaVuSans-41" x="262.464844"/>
      <use xlink:href="#DejaVuSans-76" x="324.998047"/>
      <use xlink:href="#DejaVuSans-2e" x="376.427734"/>
     </g>
    </g>
   </g>
  </g>
  <g id="text_22">
   <!-- Energetic Components -->
   <g style="fill: #262626" transform="translate(208.277656 15.605813)scale(0.14 -0.14)">
    <defs>
     <path id="DejaVuSans-74" d="M 1172 4494 
L 1172 3500 
L 2356 3500 
L 2356 3053 
L 1172 3053 
L 1172 1153 
Q 1172 725 1289 603 
Q 1406 481 1766 481 
L 2356 481 
L 2356 0 
L 1766 0 
Q 1100 0 847 248 
Q 594 497 594 1153 
L 594 3053 
L 172 3053 
L 172 3500 
L 594 3500 
L 594 4494 
L 1172 4494 
z
" transform="scale(0.015625)"/>
     <path id="DejaVuSans-69" d="M 603 3500 
L 1178 3500 
L 1178 0 
L 603 0 
L 603 3500 
z
M 603 4863 
L 1178 4863 
L 1178 4134 
L 603 4134 
L 603 4863 
z
" transform="scale(0.015625)"/>
     <path id="DejaVuSans-43" d="M 4122 4306 
L 4122 3641 
Q 3803 3938 3442 4084 
Q 3081 4231 2675 4231 
Q 1875 4231 1450 3742 
Q 1025 3253 1025 2328 
Q 1025 1406 1450 917 
Q 1875 428 2675 428 
Q 3081 428 3442 575 
Q 3803 722 4122 1019 
L 4122 359 
Q 3791 134 3420 21 
Q 3050 -91 2638 -91 
Q 1578 -91 968 557 
Q 359 1206 359 2328 
Q 359 3453 968 4101 
Q 1578 4750 2638 4750 
Q 3056 4750 3426 4639 
Q 3797 4528 4122 4306 
z
" transform="scale(0.015625)"/>
     <path id="DejaVuSans-70" d="M 1159 525 
L 1159 -1331 
L 581 -1331 
L 581 3500 
L 1159 3500 
L 1159 2969 
Q 1341 3281 1617 3432 
Q 1894 3584 2278 3584 
Q 2916 3584 3314 3078 
Q 3713 2572 3713 1747 
Q 3713 922 3314 415 
Q 2916 -91 2278 -91 
Q 1894 -91 1617 61 
Q 1341 213 1159 525 
z
M 3116 1747 
Q 3116 2381 2855 2742 
Q 2594 3103 2138 3103 
Q 1681 3103 1420 2742 
Q 1159 2381 1159 1747 
Q 1159 1113 1420 752 
Q 1681 391 2138 391 
Q 2594 391 2855 752 
Q 3116 1113 3116 1747 
z
" transform="scale(0.015625)"/>
    </defs>
    <use xlink:href="#DejaVuSans-45"/>
    <use xlink:href="#DejaVuSans-6e" x="63.183594"/>
    <use xlink:href="#DejaVuSans-65" x="126.5625"/>
    <use xlink:href="#DejaVuSans-72" x="188.085938"/>
    <use xlink:href="#DejaVuSans-67" x="227.449219"/>
    <use xlink:href="#DejaVuSans-65" x="290.925781"/>
    <use xlink:href="#DejaVuSans-74" x="352.449219"/>
    <use xlink:href="#DejaVuSans-69" x="391.658203"/>
    <use xlink:href="#DejaVuSans-63" x="419.441406"/>
    <use xlink:href="#DejaVuSans-20" x="474.421875"/>
    <use xlink:href="#DejaVuSans-43" x="506.208984"/>
    <use xlink:href="#DejaVuSans-6f" x="576.033203"/>
    <use xlink:href="#DejaVuSans-6d" x="637.214844"/>
    <use xlink:href="#DejaVuSans-70" x="734.626953"/>
    <use xlink:href="#DejaVuSans-6f" x="798.103516"/>
    <use xlink:href="#DejaVuSans-6e" x="859.285156"/>
    <use xlink:href="#DejaVuSans-65" x="922.664062"/>
    <use xlink:href="#DejaVuSans-6e" x="984.1875"/>
    <use xlink:href="#DejaVuSans-74" x="1047.566406"/>
    <use xlink:href="#DejaVuSans-73" x="1086.775391"/>
   </g>
   <!-- System-1 | Normal | GB | Delta | TOTAL -->
   <g style="fill: #262626" transform="translate(151.249531 31.35625)scale(0.14 -0.14)">
    <defs>
     <path id="DejaVuSans-53" d="M 3425 4513 
L 3425 3897 
Q 3066 4069 2747 4153 
Q 2428 4238 2131 4238 
Q 1616 4238 1336 4038 
Q 1056 3838 1056 3469 
Q 1056 3159 1242 3001 
Q 1428 2844 1947 2747 
L 2328 2669 
Q 3034 2534 3370 2195 
Q 3706 1856 3706 1288 
Q 3706 609 3251 259 
Q 2797 -91 1919 -91 
Q 1588 -91 1214 -16 
Q 841 59 441 206 
L 441 856 
Q 825 641 1194 531 
Q 1563 422 1919 422 
Q 2459 422 2753 634 
Q 3047 847 3047 1241 
Q 3047 1584 2836 1778 
Q 2625 1972 2144 2069 
L 1759 2144 
Q 1053 2284 737 2584 
Q 422 2884 422 3419 
Q 422 4038 858 4394 
Q 1294 4750 2059 4750 
Q 2388 4750 2728 4690 
Q 3069 4631 3425 4513 
z
" transform="scale(0.015625)"/>
     <path id="DejaVuSans-2d" d="M 313 2009 
L 1997 2009 
L 1997 1497 
L 313 1497 
L 313 2009 
z
" transform="scale(0.015625)"/>
     <path id="DejaVuSans-7c" d="M 1344 4891 
L 1344 -1509 
L 813 -1509 
L 813 4891 
L 1344 4891 
z
" transform="scale(0.015625)"/>
     <path id="DejaVuSans-4e" d="M 628 4666 
L 1478 4666 
L 3547 763 
L 3547 4666 
L 4159 4666 
L 4159 0 
L 3309 0 
L 1241 3903 
L 1241 0 
L 628 0 
L 628 4666 
z
" transform="scale(0.015625)"/>
     <path id="DejaVuSans-47" d="M 3809 666 
L 3809 1919 
L 2778 1919 
L 2778 2438 
L 4434 2438 
L 4434 434 
Q 4069 175 3628 42 
Q 3188 -91 2688 -91 
Q 1594 -91 976 548 
Q 359 1188 359 2328 
Q 359 3472 976 4111 
Q 1594 4750 2688 4750 
Q 3144 4750 3555 4637 
Q 3966 4525 4313 4306 
L 4313 3634 
Q 3963 3931 3569 4081 
Q 3175 4231 2741 4231 
Q 1884 4231 1454 3753 
Q 1025 3275 1025 2328 
Q 1025 1384 1454 906 
Q 1884 428 2741 428 
Q 3075 428 3337 486 
Q 3600 544 3809 666 
z
" transform="scale(0.015625)"/>
     <path id="DejaVuSans-42" d="M 1259 2228 
L 1259 519 
L 2272 519 
Q 2781 519 3026 730 
Q 3272 941 3272 1375 
Q 3272 1813 3026 2020 
Q 2781 2228 2272 2228 
L 1259 2228 
z
M 1259 4147 
L 1259 2741 
L 2194 2741 
Q 2656 2741 2882 2914 
Q 3109 3088 3109 3444 
Q 3109 3797 2882 3972 
Q 2656 4147 2194 4147 
L 1259 4147 
z
M 628 4666 
L 2241 4666 
Q 2963 4666 3353 4366 
Q 3744 4066 3744 3513 
Q 3744 3084 3544 2831 
Q 3344 2578 2956 2516 
Q 3422 2416 3680 2098 
Q 3938 1781 3938 1306 
Q 3938 681 3513 340 
Q 3088 0 2303 0 
L 628 0 
L 628 4666 
z
" transform="scale(0.015625)"/>
     <path id="DejaVuSans-44" d="M 1259 4147 
L 1259 519 
L 2022 519 
Q 2988 519 3436 956 
Q 3884 1394 3884 2338 
Q 3884 3275 3436 3711 
Q 2988 4147 2022 4147 
L 1259 4147 
z
M 628 4666 
L 1925 4666 
Q 3281 4666 3915 4102 
Q 4550 3538 4550 2338 
Q 4550 1131 3912 565 
Q 3275 0 1925 0 
L 628 0 
L 628 4666 
z
" transform="scale(0.015625)"/>
    </defs>
    <use xlink:href="#DejaVuSans-53"/>
    <use xlink:href="#DejaVuSans-79" x="63.476562"/>
    <use xlink:href="#DejaVuSans-73" x="122.65625"/>
    <use xlink:href="#DejaVuSans-74" x="174.755859"/>
    <use xlink:href="#DejaVuSans-65" x="213.964844"/>
    <use xlink:href="#DejaVuSans-6d" x="275.488281"/>
    <use xlink:href="#DejaVuSans-2d" x="372.900391"/>
    <use xlink:href="#DejaVuSans-31" x="408.984375"/>
    <use xlink:href="#DejaVuSans-20" x="472.607422"/>
    <use xlink:href="#DejaVuSans-7c" x="504.394531"/>
    <use xlink:href="#DejaVuSans-20" x="538.085938"/>
    <use xlink:href="#DejaVuSans-4e" x="569.873047"/>
    <use xlink:href="#DejaVuSans-6f" x="644.677734"/>
    <use xlink:href="#DejaVuSans-72" x="705.859375"/>
    <use xlink:href="#DejaVuSans-6d" x="745.222656"/>
    <use xlink:href="#DejaVuSans-61" x="842.634766"/>
    <use xlink:href="#DejaVuSans-6c" x="903.914062"/>
    <use xlink:href="#DejaVuSans-20" x="931.697266"/>
    <use xlink:href="#DejaVuSans-7c" x="963.484375"/>
    <use xlink:href="#DejaVuSans-20" x="997.175781"/>
    <use xlink:href="#DejaVuSans-47" x="1028.962891"/>
    <use xlink:href="#DejaVuSans-42" x="1106.453125"/>
    <use xlink:href="#DejaVuSans-20" x="1175.056641"/>
    <use xlink:href="#DejaVuSans-7c" x="1206.84375"/>
    <use xlink:href="#DejaVuSans-20" x="1240.535156"/>
    <use xlink:href="#DejaVuSans-44" x="1272.322266"/>
    <use xlink:href="#DejaVuSans-65" x="1349.324219"/>
    <use xlink:href="#DejaVuSans-6c" x="1410.847656"/>
    <use xlink:href="#DejaVuSans-74" x="1438.630859"/>
    <use xlink:href="#DejaVuSans-61" x="1477.839844"/>
    <use xlink:href="#DejaVuSans-20" x="1539.119141"/>
    <use xlink:href="#DejaVuSans-7c" x="1570.90625"/>
    <use xlink:href="#DejaVuSans-20" x="1604.597656"/>
    <use xlink:href="#DejaVuSans-54" x="1636.384766"/>
    <use xlink:href="#DejaVuSans-4f" x="1697.46875"/>
    <use xlink:href="#DejaVuSans-54" x="1776.179688"/>
    <use xlink:href="#DejaVuSans-41" x="1829.513672"/>
    <use xlink:href="#DejaVuSans-4c" x="1897.921875"/>
   </g>
  </g>
 </g>
 <defs>
  <clipPath id="paeeb9a0833">
   <rect x="59.178438" y="55.609187" width="491.582345" height="145.038938"/>
  </clipPath>
 </defs>
</svg>
