<?xml version="1.0" encoding="utf-8" standalone="no"?>
<!DOCTYPE svg PUBLIC "-//W3C//DTD SVG 1.1//EN"
  "http://www.w3.org/Graphics/SVG/1.1/DTD/svg11.dtd">
<svg xmlns:xlink="http://www.w3.org/1999/xlink" width="576pt" height="248.4pt" viewBox="0 0 576 248.4" xmlns="http://www.w3.org/2000/svg" version="1.1">
 <metadata>
  <rdf:RDF xmlns:dc="http://purl.org/dc/elements/1.1/" xmlns:cc="http://creativecommons.org/ns#" xmlns:rdf="http://www.w3.org/1999/02/22-rdf-syntax-ns#">
   <cc:Work>
    <dc:type rdf:resource="http://purl.org/dc/dcmitype/StillImage"/>
    <dc:date>2024-10-20T17:12:30.084589</dc:date>
    <dc:format>image/svg+xml</dc:format>
    <dc:creator>
     <cc:Agent>
      <dc:title>Matplotlib v3.5.2, https://matplotlib.org/</dc:title>
     </cc:Agent>
    </dc:creator>
   </cc:Work>
  </rdf:RDF>
 </metadata>
 <defs>
  <style type="text/css">*{stroke-linejoin: round; stroke-linecap: butt}</style>
 </defs>
 <g id="figure_1">
  <g id="patch_1">
   <path d="M 0 248.4 
L 576 248.4 
L 576 0 
L 0 0 
z
" style="fill: #ffffff"/>
  </g>
  <g id="axes_1">
   <g id="patch_2">
    <path d="M 65.540937 200.648125 
L 550.75505 200.648125 
L 550.75505 55.609187 
L 65.540937 55.609187 
z
" style="fill: #eaeaf2"/>
   </g>
   <g id="matplotlib.axis_1">
    <g id="xtick_1">
     <g id="line2d_1">
      <path d="M 87.155021 200.648125 
L 87.155021 55.609187 
" clip-path="url(#peb11bd3624)" style="fill: none; stroke: #ffffff; stroke-linecap: round"/>
     </g>
     <g id="text_1">
      <!-- 0 -->
      <g style="fill: #262626" transform="translate(83.973771 217.746562)scale(0.1 -0.1)">
       <defs>
        <path id="DejaVuSans-30" d="M 2034 4250 
Q 1547 4250 1301 3770 
Q 1056 3291 1056 2328 
Q 1056 1369 1301 889 
Q 1547 409 2034 409 
Q 2525 409 2770 889 
Q 3016 1369 3016 2328 
Q 3016 3291 2770 3770 
Q 2525 4250 2034 4250 
z
M 2034 4750 
Q 2819 4750 3233 4129 
Q 3647 3509 3647 2328 
Q 3647 1150 3233 529 
Q 2819 -91 2034 -91 
Q 1250 -91 836 529 
Q 422 1150 422 2328 
Q 422 3509 836 4129 
Q 1250 4750 2034 4750 
z
" transform="scale(0.015625)"/>
       </defs>
       <use xlink:href="#DejaVuSans-30"/>
      </g>
     </g>
    </g>
    <g id="xtick_2">
     <g id="line2d_2">
      <path d="M 153.320581 200.648125 
L 153.320581 55.609187 
" clip-path="url(#peb11bd3624)" style="fill: none; stroke: #ffffff; stroke-linecap: round"/>
     </g>
     <g id="text_2">
      <!-- 150 -->
      <g style="fill: #262626" transform="translate(143.776831 217.746562)scale(0.1 -0.1)">
       <defs>
        <path id="DejaVuSans-31" d="M 794 531 
L 1825 531 
L 1825 4091 
L 703 3866 
L 703 4441 
L 1819 4666 
L 2450 4666 
L 2450 531 
L 3481 531 
L 3481 0 
L 794 0 
L 794 531 
z
" transform="scale(0.015625)"/>
        <path id="DejaVuSans-35" d="M 691 4666 
L 3169 4666 
L 3169 4134 
L 1269 4134 
L 1269 2991 
Q 1406 3038 1543 3061 
Q 1681 3084 1819 3084 
Q 2600 3084 3056 2656 
Q 3513 2228 3513 1497 
Q 3513 744 3044 326 
Q 2575 -91 1722 -91 
Q 1428 -91 1123 -41 
Q 819 9 494 109 
L 494 744 
Q 775 591 1075 516 
Q 1375 441 1709 441 
Q 2250 441 2565 725 
Q 2881 1009 2881 1497 
Q 2881 1984 2565 2268 
Q 2250 2553 1709 2553 
Q 1456 2553 1204 2497 
Q 953 2441 691 2322 
L 691 4666 
z
" transform="scale(0.015625)"/>
       </defs>
       <use xlink:href="#DejaVuSans-31"/>
       <use xlink:href="#DejaVuSans-35" x="63.623047"/>
       <use xlink:href="#DejaVuSans-30" x="127.246094"/>
      </g>
     </g>
    </g>
    <g id="xtick_3">
     <g id="line2d_3">
      <path d="M 219.486142 200.648125 
L 219.486142 55.609187 
" clip-path="url(#peb11bd3624)" style="fill: none; stroke: #ffffff; stroke-linecap: round"/>
     </g>
     <g id="text_3">
      <!-- 300 -->
      <g style="fill: #262626" transform="translate(209.942392 217.746562)scale(0.1 -0.1)">
       <defs>
        <path id="DejaVuSans-33" d="M 2597 2516 
Q 3050 2419 3304 2112 
Q 3559 1806 3559 1356 
Q 3559 666 3084 287 
Q 2609 -91 1734 -91 
Q 1441 -91 1130 -33 
Q 819 25 488 141 
L 488 750 
Q 750 597 1062 519 
Q 1375 441 1716 441 
Q 2309 441 2620 675 
Q 2931 909 2931 1356 
Q 2931 1769 2642 2001 
Q 2353 2234 1838 2234 
L 1294 2234 
L 1294 2753 
L 1863 2753 
Q 2328 2753 2575 2939 
Q 2822 3125 2822 3475 
Q 2822 3834 2567 4026 
Q 2313 4219 1838 4219 
Q 1578 4219 1281 4162 
Q 984 4106 628 3988 
L 628 4550 
Q 988 4650 1302 4700 
Q 1616 4750 1894 4750 
Q 2613 4750 3031 4423 
Q 3450 4097 3450 3541 
Q 3450 3153 3228 2886 
Q 3006 2619 2597 2516 
z
" transform="scale(0.015625)"/>
       </defs>
       <use xlink:href="#DejaVuSans-33"/>
       <use xlink:href="#DejaVuSans-30" x="63.623047"/>
       <use xlink:href="#DejaVuSans-30" x="127.246094"/>
      </g>
     </g>
    </g>
    <g id="xtick_4">
     <g id="line2d_4">
      <path d="M 285.651703 200.648125 
L 285.651703 55.609187 
" clip-path="url(#peb11bd3624)" style="fill: none; stroke: #ffffff; stroke-linecap: round"/>
     </g>
     <g id="text_4">
      <!-- 450 -->
      <g style="fill: #262626" transform="translate(276.107953 217.746562)scale(0.1 -0.1)">
       <defs>
        <path id="DejaVuSans-34" d="M 2419 4116 
L 825 1625 
L 2419 1625 
L 2419 4116 
z
M 2253 4666 
L 3047 4666 
L 3047 1625 
L 3713 1625 
L 3713 1100 
L 3047 1100 
L 3047 0 
L 2419 0 
L 2419 1100 
L 313 1100 
L 313 1709 
L 2253 4666 
z
" transform="scale(0.015625)"/>
       </defs>
       <use xlink:href="#DejaVuSans-34"/>
       <use xlink:href="#DejaVuSans-35" x="63.623047"/>
       <use xlink:href="#DejaVuSans-30" x="127.246094"/>
      </g>
     </g>
    </g>
    <g id="xtick_5">
     <g id="line2d_5">
      <path d="M 351.817264 200.648125 
L 351.817264 55.609187 
" clip-path="url(#peb11bd3624)" style="fill: none; stroke: #ffffff; stroke-linecap: round"/>
     </g>
     <g id="text_5">
      <!-- 600 -->
      <g style="fill: #262626" transform="translate(342.273514 217.746562)scale(0.1 -0.1)">
       <defs>
        <path id="DejaVuSans-36" d="M 2113 2584 
Q 1688 2584 1439 2293 
Q 1191 2003 1191 1497 
Q 1191 994 1439 701 
Q 1688 409 2113 409 
Q 2538 409 2786 701 
Q 3034 994 3034 1497 
Q 3034 2003 2786 2293 
Q 2538 2584 2113 2584 
z
M 3366 4563 
L 3366 3988 
Q 3128 4100 2886 4159 
Q 2644 4219 2406 4219 
Q 1781 4219 1451 3797 
Q 1122 3375 1075 2522 
Q 1259 2794 1537 2939 
Q 1816 3084 2150 3084 
Q 2853 3084 3261 2657 
Q 3669 2231 3669 1497 
Q 3669 778 3244 343 
Q 2819 -91 2113 -91 
Q 1303 -91 875 529 
Q 447 1150 447 2328 
Q 447 3434 972 4092 
Q 1497 4750 2381 4750 
Q 2619 4750 2861 4703 
Q 3103 4656 3366 4563 
z
" transform="scale(0.015625)"/>
       </defs>
       <use xlink:href="#DejaVuSans-36"/>
       <use xlink:href="#DejaVuSans-30" x="63.623047"/>
       <use xlink:href="#DejaVuSans-30" x="127.246094"/>
      </g>
     </g>
    </g>
    <g id="xtick_6">
     <g id="line2d_6">
      <path d="M 417.982825 200.648125 
L 417.982825 55.609187 
" clip-path="url(#peb11bd3624)" style="fill: none; stroke: #ffffff; stroke-linecap: round"/>
     </g>
     <g id="text_6">
      <!-- 750 -->
      <g style="fill: #262626" transform="translate(408.439075 217.746562)scale(0.1 -0.1)">
       <defs>
        <path id="DejaVuSans-37" d="M 525 4666 
L 3525 4666 
L 3525 4397 
L 1831 0 
L 1172 0 
L 2766 4134 
L 525 4134 
L 525 4666 
z
" transform="scale(0.015625)"/>
       </defs>
       <use xlink:href="#DejaVuSans-37"/>
       <use xlink:href="#DejaVuSans-35" x="63.623047"/>
       <use xlink:href="#DejaVuSans-30" x="127.246094"/>
      </g>
     </g>
    </g>
    <g id="xtick_7">
     <g id="line2d_7">
      <path d="M 484.148386 200.648125 
L 484.148386 55.609187 
" clip-path="url(#peb11bd3624)" style="fill: none; stroke: #ffffff; stroke-linecap: round"/>
     </g>
     <g id="text_7">
      <!-- 900 -->
      <g style="fill: #262626" transform="translate(474.604636 217.746562)scale(0.1 -0.1)">
       <defs>
        <path id="DejaVuSans-39" d="M 703 97 
L 703 672 
Q 941 559 1184 500 
Q 1428 441 1663 441 
Q 2288 441 2617 861 
Q 2947 1281 2994 2138 
Q 2813 1869 2534 1725 
Q 2256 1581 1919 1581 
Q 1219 1581 811 2004 
Q 403 2428 403 3163 
Q 403 3881 828 4315 
Q 1253 4750 1959 4750 
Q 2769 4750 3195 4129 
Q 3622 3509 3622 2328 
Q 3622 1225 3098 567 
Q 2575 -91 1691 -91 
Q 1453 -91 1209 -44 
Q 966 3 703 97 
z
M 1959 2075 
Q 2384 2075 2632 2365 
Q 2881 2656 2881 3163 
Q 2881 3666 2632 3958 
Q 2384 4250 1959 4250 
Q 1534 4250 1286 3958 
Q 1038 3666 1038 3163 
Q 1038 2656 1286 2365 
Q 1534 2075 1959 2075 
z
" transform="scale(0.015625)"/>
       </defs>
       <use xlink:href="#DejaVuSans-39"/>
       <use xlink:href="#DejaVuSans-30" x="63.623047"/>
       <use xlink:href="#DejaVuSans-30" x="127.246094"/>
      </g>
     </g>
    </g>
    <g id="xtick_8">
     <g id="line2d_8">
      <path d="M 550.313946 200.648125 
L 550.313946 55.609187 
" clip-path="url(#peb11bd3624)" style="fill: none; stroke: #ffffff; stroke-linecap: round"/>
     </g>
     <g id="text_8">
      <!-- 1050 -->
      <g style="fill: #262626" transform="translate(537.588946 217.746562)scale(0.1 -0.1)">
       <use xlink:href="#DejaVuSans-31"/>
       <use xlink:href="#DejaVuSans-30" x="63.623047"/>
       <use xlink:href="#DejaVuSans-35" x="127.246094"/>
       <use xlink:href="#DejaVuSans-30" x="190.869141"/>
      </g>
     </g>
    </g>
    <g id="text_9">
     <!-- Frames -->
     <g style="fill: #262626" transform="translate(286.326744 232.944375)scale(0.12 -0.12)">
      <defs>
       <path id="DejaVuSans-46" d="M 628 4666 
L 3309 4666 
L 3309 4134 
L 1259 4134 
L 1259 2759 
L 3109 2759 
L 3109 2228 
L 1259 2228 
L 1259 0 
L 628 0 
L 628 4666 
z
" transform="scale(0.015625)"/>
       <path id="DejaVuSans-72" d="M 2631 2963 
Q 2534 3019 2420 3045 
Q 2306 3072 2169 3072 
Q 1681 3072 1420 2755 
Q 1159 2438 1159 1844 
L 1159 0 
L 581 0 
L 581 3500 
L 1159 3500 
L 1159 2956 
Q 1341 3275 1631 3429 
Q 1922 3584 2338 3584 
Q 2397 3584 2469 3576 
Q 2541 3569 2628 3553 
L 2631 2963 
z
" transform="scale(0.015625)"/>
       <path id="DejaVuSans-61" d="M 2194 1759 
Q 1497 1759 1228 1600 
Q 959 1441 959 1056 
Q 959 750 1161 570 
Q 1363 391 1709 391 
Q 2188 391 2477 730 
Q 2766 1069 2766 1631 
L 2766 1759 
L 2194 1759 
z
M 3341 1997 
L 3341 0 
L 2766 0 
L 2766 531 
Q 2569 213 2275 61 
Q 1981 -91 1556 -91 
Q 1019 -91 701 211 
Q 384 513 384 1019 
Q 384 1609 779 1909 
Q 1175 2209 1959 2209 
L 2766 2209 
L 2766 2266 
Q 2766 2663 2505 2880 
Q 2244 3097 1772 3097 
Q 1472 3097 1187 3025 
Q 903 2953 641 2809 
L 641 3341 
Q 956 3463 1253 3523 
Q 1550 3584 1831 3584 
Q 2591 3584 2966 3190 
Q 3341 2797 3341 1997 
z
" transform="scale(0.015625)"/>
       <path id="DejaVuSans-6d" d="M 3328 2828 
Q 3544 3216 3844 3400 
Q 4144 3584 4550 3584 
Q 5097 3584 5394 3201 
Q 5691 2819 5691 2113 
L 5691 0 
L 5113 0 
L 5113 2094 
Q 5113 2597 4934 2840 
Q 4756 3084 4391 3084 
Q 3944 3084 3684 2787 
Q 3425 2491 3425 1978 
L 3425 0 
L 2847 0 
L 2847 2094 
Q 2847 2600 2669 2842 
Q 2491 3084 2119 3084 
Q 1678 3084 1418 2786 
Q 1159 2488 1159 1978 
L 1159 0 
L 581 0 
L 581 3500 
L 1159 3500 
L 1159 2956 
Q 1356 3278 1631 3431 
Q 1906 3584 2284 3584 
Q 2666 3584 2933 3390 
Q 3200 3197 3328 2828 
z
" transform="scale(0.015625)"/>
       <path id="DejaVuSans-65" d="M 3597 1894 
L 3597 1613 
L 953 1613 
Q 991 1019 1311 708 
Q 1631 397 2203 397 
Q 2534 397 2845 478 
Q 3156 559 3463 722 
L 3463 178 
Q 3153 47 2828 -22 
Q 2503 -91 2169 -91 
Q 1331 -91 842 396 
Q 353 884 353 1716 
Q 353 2575 817 3079 
Q 1281 3584 2069 3584 
Q 2775 3584 3186 3129 
Q 3597 2675 3597 1894 
z
M 3022 2063 
Q 3016 2534 2758 2815 
Q 2500 3097 2075 3097 
Q 1594 3097 1305 2825 
Q 1016 2553 972 2059 
L 3022 2063 
z
" transform="scale(0.015625)"/>
       <path id="DejaVuSans-73" d="M 2834 3397 
L 2834 2853 
Q 2591 2978 2328 3040 
Q 2066 3103 1784 3103 
Q 1356 3103 1142 2972 
Q 928 2841 928 2578 
Q 928 2378 1081 2264 
Q 1234 2150 1697 2047 
L 1894 2003 
Q 2506 1872 2764 1633 
Q 3022 1394 3022 966 
Q 3022 478 2636 193 
Q 2250 -91 1575 -91 
Q 1294 -91 989 -36 
Q 684 19 347 128 
L 347 722 
Q 666 556 975 473 
Q 1284 391 1588 391 
Q 1994 391 2212 530 
Q 2431 669 2431 922 
Q 2431 1156 2273 1281 
Q 2116 1406 1581 1522 
L 1381 1569 
Q 847 1681 609 1914 
Q 372 2147 372 2553 
Q 372 3047 722 3315 
Q 1072 3584 1716 3584 
Q 2034 3584 2315 3537 
Q 2597 3491 2834 3397 
z
" transform="scale(0.015625)"/>
      </defs>
      <use xlink:href="#DejaVuSans-46"/>
      <use xlink:href="#DejaVuSans-72" x="50.269531"/>
      <use xlink:href="#DejaVuSans-61" x="91.382812"/>
      <use xlink:href="#DejaVuSans-6d" x="152.662109"/>
      <use xlink:href="#DejaVuSans-65" x="250.074219"/>
      <use xlink:href="#DejaVuSans-73" x="311.597656"/>
     </g>
    </g>
   </g>
   <g id="matplotlib.axis_2">
    <g id="ytick_1">
     <g id="line2d_9">
      <path d="M 65.540937 193.065245 
L 550.75505 193.065245 
" clip-path="url(#peb11bd3624)" style="fill: none; stroke: #ffffff; stroke-linecap: round"/>
     </g>
     <g id="text_10">
      <!-- −135 -->
      <g style="fill: #262626" transform="translate(28.57375 196.864464)scale(0.1 -0.1)">
       <defs>
        <path id="DejaVuSans-2212" d="M 678 2272 
L 4684 2272 
L 4684 1741 
L 678 1741 
L 678 2272 
z
" transform="scale(0.015625)"/>
       </defs>
       <use xlink:href="#DejaVuSans-2212"/>
       <use xlink:href="#DejaVuSans-31" x="83.789062"/>
       <use xlink:href="#DejaVuSans-33" x="147.412109"/>
       <use xlink:href="#DejaVuSans-35" x="211.035156"/>
      </g>
     </g>
    </g>
    <g id="ytick_2">
     <g id="line2d_10">
      <path d="M 65.540937 172.382412 
L 550.75505 172.382412 
" clip-path="url(#peb11bd3624)" style="fill: none; stroke: #ffffff; stroke-linecap: round"/>
     </g>
     <g id="text_11">
      <!-- −120 -->
      <g style="fill: #262626" transform="translate(28.57375 176.181631)scale(0.1 -0.1)">
       <defs>
        <path id="DejaVuSans-32" d="M 1228 531 
L 3431 531 
L 3431 0 
L 469 0 
L 469 531 
Q 828 903 1448 1529 
Q 2069 2156 2228 2338 
Q 2531 2678 2651 2914 
Q 2772 3150 2772 3378 
Q 2772 3750 2511 3984 
Q 2250 4219 1831 4219 
Q 1534 4219 1204 4116 
Q 875 4013 500 3803 
L 500 4441 
Q 881 4594 1212 4672 
Q 1544 4750 1819 4750 
Q 2544 4750 2975 4387 
Q 3406 4025 3406 3419 
Q 3406 3131 3298 2873 
Q 3191 2616 2906 2266 
Q 2828 2175 2409 1742 
Q 1991 1309 1228 531 
z
" transform="scale(0.015625)"/>
       </defs>
       <use xlink:href="#DejaVuSans-2212"/>
       <use xlink:href="#DejaVuSans-31" x="83.789062"/>
       <use xlink:href="#DejaVuSans-32" x="147.412109"/>
       <use xlink:href="#DejaVuSans-30" x="211.035156"/>
      </g>
     </g>
    </g>
    <g id="ytick_3">
     <g id="line2d_11">
      <path d="M 65.540937 151.69958 
L 550.75505 151.69958 
" clip-path="url(#peb11bd3624)" style="fill: none; stroke: #ffffff; stroke-linecap: round"/>
     </g>
     <g id="text_12">
      <!-- −105 -->
      <g style="fill: #262626" transform="translate(28.57375 155.498798)scale(0.1 -0.1)">
       <use xlink:href="#DejaVuSans-2212"/>
       <use xlink:href="#DejaVuSans-31" x="83.789062"/>
       <use xlink:href="#DejaVuSans-30" x="147.412109"/>
       <use xlink:href="#DejaVuSans-35" x="211.035156"/>
      </g>
     </g>
    </g>
    <g id="ytick_4">
     <g id="line2d_12">
      <path d="M 65.540937 131.016747 
L 550.75505 131.016747 
" clip-path="url(#peb11bd3624)" style="fill: none; stroke: #ffffff; stroke-linecap: round"/>
     </g>
     <g id="text_13">
      <!-- −90 -->
      <g style="fill: #262626" transform="translate(34.93625 134.815966)scale(0.1 -0.1)">
       <use xlink:href="#DejaVuSans-2212"/>
       <use xlink:href="#DejaVuSans-39" x="83.789062"/>
       <use xlink:href="#DejaVuSans-30" x="147.412109"/>
      </g>
     </g>
    </g>
    <g id="ytick_5">
     <g id="line2d_13">
      <path d="M 65.540937 110.333914 
L 550.75505 110.333914 
" clip-path="url(#peb11bd3624)" style="fill: none; stroke: #ffffff; stroke-linecap: round"/>
     </g>
     <g id="text_14">
      <!-- −75 -->
      <g style="fill: #262626" transform="translate(34.93625 114.133133)scale(0.1 -0.1)">
       <use xlink:href="#DejaVuSans-2212"/>
       <use xlink:href="#DejaVuSans-37" x="83.789062"/>
       <use xlink:href="#DejaVuSans-35" x="147.412109"/>
      </g>
     </g>
    </g>
    <g id="ytick_6">
     <g id="line2d_14">
      <path d="M 65.540937 89.651082 
L 550.75505 89.651082 
" clip-path="url(#peb11bd3624)" style="fill: none; stroke: #ffffff; stroke-linecap: round"/>
     </g>
     <g id="text_15">
      <!-- −60 -->
      <g style="fill: #262626" transform="translate(34.93625 93.450301)scale(0.1 -0.1)">
       <use xlink:href="#DejaVuSans-2212"/>
       <use xlink:href="#DejaVuSans-36" x="83.789062"/>
       <use xlink:href="#DejaVuSans-30" x="147.412109"/>
      </g>
     </g>
    </g>
    <g id="ytick_7">
     <g id="line2d_15">
      <path d="M 65.540937 68.968249 
L 550.75505 68.968249 
" clip-path="url(#peb11bd3624)" style="fill: none; stroke: #ffffff; stroke-linecap: round"/>
     </g>
     <g id="text_16">
      <!-- −45 -->
      <g style="fill: #262626" transform="translate(34.93625 72.767468)scale(0.1 -0.1)">
       <use xlink:href="#DejaVuSans-2212"/>
       <use xlink:href="#DejaVuSans-34" x="83.789062"/>
       <use xlink:href="#DejaVuSans-35" x="147.412109"/>
      </g>
     </g>
    </g>
    <g id="text_17">
     <!-- Energy (kcal/mol) -->
     <g style="fill: #262626" transform="translate(22.078125 181.045844)rotate(-90)scale(0.12 -0.12)">
      <defs>
       <path id="DejaVuSans-45" d="M 628 4666 
L 3578 4666 
L 3578 4134 
L 1259 4134 
L 1259 2753 
L 3481 2753 
L 3481 2222 
L 1259 2222 
L 1259 531 
L 3634 531 
L 3634 0 
L 628 0 
L 628 4666 
z
" transform="scale(0.015625)"/>
       <path id="DejaVuSans-6e" d="M 3513 2113 
L 3513 0 
L 2938 0 
L 2938 2094 
Q 2938 2591 2744 2837 
Q 2550 3084 2163 3084 
Q 1697 3084 1428 2787 
Q 1159 2491 1159 1978 
L 1159 0 
L 581 0 
L 581 3500 
L 1159 3500 
L 1159 2956 
Q 1366 3272 1645 3428 
Q 1925 3584 2291 3584 
Q 2894 3584 3203 3211 
Q 3513 2838 3513 2113 
z
" transform="scale(0.015625)"/>
       <path id="DejaVuSans-67" d="M 2906 1791 
Q 2906 2416 2648 2759 
Q 2391 3103 1925 3103 
Q 1463 3103 1205 2759 
Q 947 2416 947 1791 
Q 947 1169 1205 825 
Q 1463 481 1925 481 
Q 2391 481 2648 825 
Q 2906 1169 2906 1791 
z
M 3481 434 
Q 3481 -459 3084 -895 
Q 2688 -1331 1869 -1331 
Q 1566 -1331 1297 -1286 
Q 1028 -1241 775 -1147 
L 775 -588 
Q 1028 -725 1275 -790 
Q 1522 -856 1778 -856 
Q 2344 -856 2625 -561 
Q 2906 -266 2906 331 
L 2906 616 
Q 2728 306 2450 153 
Q 2172 0 1784 0 
Q 1141 0 747 490 
Q 353 981 353 1791 
Q 353 2603 747 3093 
Q 1141 3584 1784 3584 
Q 2172 3584 2450 3431 
Q 2728 3278 2906 2969 
L 2906 3500 
L 3481 3500 
L 3481 434 
z
" transform="scale(0.015625)"/>
       <path id="DejaVuSans-79" d="M 2059 -325 
Q 1816 -950 1584 -1140 
Q 1353 -1331 966 -1331 
L 506 -1331 
L 506 -850 
L 844 -850 
Q 1081 -850 1212 -737 
Q 1344 -625 1503 -206 
L 1606 56 
L 191 3500 
L 800 3500 
L 1894 763 
L 2988 3500 
L 3597 3500 
L 2059 -325 
z
" transform="scale(0.015625)"/>
       <path id="DejaVuSans-20" transform="scale(0.015625)"/>
       <path id="DejaVuSans-28" d="M 1984 4856 
Q 1566 4138 1362 3434 
Q 1159 2731 1159 2009 
Q 1159 1288 1364 580 
Q 1569 -128 1984 -844 
L 1484 -844 
Q 1016 -109 783 600 
Q 550 1309 550 2009 
Q 550 2706 781 3412 
Q 1013 4119 1484 4856 
L 1984 4856 
z
" transform="scale(0.015625)"/>
       <path id="DejaVuSans-6b" d="M 581 4863 
L 1159 4863 
L 1159 1991 
L 2875 3500 
L 3609 3500 
L 1753 1863 
L 3688 0 
L 2938 0 
L 1159 1709 
L 1159 0 
L 581 0 
L 581 4863 
z
" transform="scale(0.015625)"/>
       <path id="DejaVuSans-63" d="M 3122 3366 
L 3122 2828 
Q 2878 2963 2633 3030 
Q 2388 3097 2138 3097 
Q 1578 3097 1268 2742 
Q 959 2388 959 1747 
Q 959 1106 1268 751 
Q 1578 397 2138 397 
Q 2388 397 2633 464 
Q 2878 531 3122 666 
L 3122 134 
Q 2881 22 2623 -34 
Q 2366 -91 2075 -91 
Q 1284 -91 818 406 
Q 353 903 353 1747 
Q 353 2603 823 3093 
Q 1294 3584 2113 3584 
Q 2378 3584 2631 3529 
Q 2884 3475 3122 3366 
z
" transform="scale(0.015625)"/>
       <path id="DejaVuSans-6c" d="M 603 4863 
L 1178 4863 
L 1178 0 
L 603 0 
L 603 4863 
z
" transform="scale(0.015625)"/>
       <path id="DejaVuSans-2f" d="M 1625 4666 
L 2156 4666 
L 531 -594 
L 0 -594 
L 1625 4666 
z
" transform="scale(0.015625)"/>
       <path id="DejaVuSans-6f" d="M 1959 3097 
Q 1497 3097 1228 2736 
Q 959 2375 959 1747 
Q 959 1119 1226 758 
Q 1494 397 1959 397 
Q 2419 397 2687 759 
Q 2956 1122 2956 1747 
Q 2956 2369 2687 2733 
Q 2419 3097 1959 3097 
z
M 1959 3584 
Q 2709 3584 3137 3096 
Q 3566 2609 3566 1747 
Q 3566 888 3137 398 
Q 2709 -91 1959 -91 
Q 1206 -91 779 398 
Q 353 888 353 1747 
Q 353 2609 779 3096 
Q 1206 3584 1959 3584 
z
" transform="scale(0.015625)"/>
       <path id="DejaVuSans-29" d="M 513 4856 
L 1013 4856 
Q 1481 4119 1714 3412 
Q 1947 2706 1947 2009 
Q 1947 1309 1714 600 
Q 1481 -109 1013 -844 
L 513 -844 
Q 928 -128 1133 580 
Q 1338 1288 1338 2009 
Q 1338 2731 1133 3434 
Q 928 4138 513 4856 
z
" transform="scale(0.015625)"/>
      </defs>
      <use xlink:href="#DejaVuSans-45"/>
      <use xlink:href="#DejaVuSans-6e" x="63.183594"/>
      <use xlink:href="#DejaVuSans-65" x="126.5625"/>
      <use xlink:href="#DejaVuSans-72" x="188.085938"/>
      <use xlink:href="#DejaVuSans-67" x="227.449219"/>
      <use xlink:href="#DejaVuSans-79" x="290.925781"/>
      <use xlink:href="#DejaVuSans-20" x="350.105469"/>
      <use xlink:href="#DejaVuSans-28" x="381.892578"/>
      <use xlink:href="#DejaVuSans-6b" x="420.90625"/>
      <use xlink:href="#DejaVuSans-63" x="478.816406"/>
      <use xlink:href="#DejaVuSans-61" x="533.796875"/>
      <use xlink:href="#DejaVuSans-6c" x="595.076172"/>
      <use xlink:href="#DejaVuSans-2f" x="622.859375"/>
      <use xlink:href="#DejaVuSans-6d" x="656.550781"/>
      <use xlink:href="#DejaVuSans-6f" x="753.962891"/>
      <use xlink:href="#DejaVuSans-6c" x="815.144531"/>
      <use xlink:href="#DejaVuSans-29" x="842.927734"/>
     </g>
    </g>
   </g>
   <g id="line2d_16">
    <path d="M 87.596124 104.470672 
L 88.037228 125.90376 
L 88.478332 103.036312 
L 88.919436 109.243865 
L 89.360539 134.961527 
L 89.801643 113.856908 
L 90.242747 136.797834 
L 91.124954 118.627619 
L 91.566058 117.809408 
L 92.007162 121.183911 
L 92.448266 121.434168 
L 92.889369 133.20434 
L 93.330473 131.000637 
L 93.771577 114.559233 
L 94.212681 125.204424 
L 94.653784 113.889896 
L 95.094888 108.336009 
L 95.535992 113.842693 
L 95.977095 93.255497 
L 96.418199 119.673323 
L 96.859303 127.501337 
L 97.300407 131.606948 
L 97.74151 125.960813 
L 98.182614 130.434357 
L 98.623718 116.464114 
L 99.064822 118.550999 
L 99.505925 125.054915 
L 100.388133 117.116812 
L 100.829237 121.510723 
L 101.27034 111.745592 
L 101.711444 126.554155 
L 102.152548 130.179984 
L 102.593652 123.190542 
L 103.034755 123.833882 
L 103.475859 128.180966 
L 103.916963 124.99522 
L 104.358067 109.437024 
L 104.79917 121.91764 
L 105.240274 107.003853 
L 105.681378 109.542658 
L 106.122481 120.285154 
L 106.563585 117.792271 
L 107.004689 130.200049 
L 107.445793 104.410116 
L 107.886896 107.291406 
L 108.328 125.243247 
L 109.210208 100.567249 
L 109.651311 147.528929 
L 110.092415 104.591998 
L 110.533519 119.248047 
L 110.974623 118.680329 
L 111.415726 119.912908 
L 111.85683 132.315983 
L 112.297934 126.786291 
L 112.739038 116.676789 
L 113.180141 125.506417 
L 113.621245 109.781173 
L 114.062349 131.653837 
L 114.503452 122.163553 
L 114.944556 161.629355 
L 115.826764 133.892514 
L 116.267867 157.994504 
L 116.708971 174.551714 
L 117.150075 165.550515 
L 117.591179 159.135237 
L 118.032282 157.923664 
L 118.473386 152.852802 
L 118.91449 136.376873 
L 119.355594 155.611917 
L 119.796697 155.280584 
L 120.237801 163.121447 
L 120.678905 149.944038 
L 121.120009 159.50279 
L 121.561112 145.357412 
L 122.002216 144.047077 
L 122.44332 152.009475 
L 122.884424 172.504809 
L 123.325527 159.514944 
L 123.766631 140.868915 
L 124.648838 159.845405 
L 125.089942 145.638131 
L 125.531046 137.79012 
L 125.97215 149.074015 
L 126.413253 149.600749 
L 126.854357 134.263161 
L 127.295461 109.679794 
L 127.736565 138.810855 
L 128.177668 123.632427 
L 128.618772 121.732465 
L 129.50098 132.776919 
L 129.942083 139.475094 
L 130.383187 143.865296 
L 130.824291 131.195909 
L 131.265395 140.346989 
L 131.706498 136.758978 
L 132.147602 129.123294 
L 132.588706 134.600899 
L 133.02981 127.122531 
L 133.470913 131.782765 
L 134.353121 120.980914 
L 134.794224 116.474165 
L 135.235328 124.716654 
L 135.676432 122.068446 
L 136.117536 121.968404 
L 136.558639 115.768451 
L 136.999743 132.613237 
L 137.440847 104.920669 
L 137.881951 103.841448 
L 138.323054 132.91267 
L 138.764158 124.224046 
L 139.205262 136.968114 
L 140.087469 114.711814 
L 140.528573 110.00702 
L 140.969677 91.825899 
L 141.410781 86.385047 
L 142.292988 115.990677 
L 142.734092 109.552984 
L 143.175196 128.968958 
L 143.616299 109.753181 
L 144.057403 129.908644 
L 144.498507 99.081383 
L 144.93961 117.598465 
L 146.262922 97.658523 
L 146.704025 101.873077 
L 147.145129 127.285438 
L 147.586233 119.374027 
L 148.027337 120.722895 
L 148.46844 105.946954 
L 148.909544 114.216593 
L 149.350648 100.211474 
L 149.791752 96.986502 
L 150.232855 116.354717 
L 150.673959 105.837557 
L 151.115063 108.650474 
L 151.556167 125.472143 
L 151.99727 125.742811 
L 152.438374 112.012715 
L 152.879478 133.293813 
L 153.320581 130.364599 
L 153.761685 134.85629 
L 154.643893 153.504227 
L 155.084996 141.024054 
L 155.5261 144.823254 
L 155.967204 134.901538 
L 156.408308 151.160566 
L 156.849411 162.81975 
L 157.290515 151.04847 
L 157.731619 142.74675 
L 158.172723 153.771911 
L 158.613826 129.031706 
L 159.05493 163.695148 
L 159.496034 153.223139 
L 159.937138 173.008396 
L 160.378241 154.358995 
L 160.819345 144.076773 
L 161.260449 169.013886 
L 161.701553 154.457473 
L 162.142656 155.140761 
L 162.58376 172.851207 
L 163.024864 161.569839 
L 163.465967 146.566958 
L 163.907071 166.153333 
L 164.348175 163.701958 
L 164.789279 145.029052 
L 165.230382 135.061494 
L 165.671486 142.893583 
L 166.11259 146.593582 
L 166.553694 145.219089 
L 166.994797 132.315512 
L 167.435901 147.170497 
L 167.877005 137.924251 
L 168.318109 153.06055 
L 168.759212 144.066293 
L 169.200316 145.938396 
L 169.64142 150.767743 
L 170.082524 141.309137 
L 170.523627 142.212165 
L 170.964731 151.126977 
L 171.405835 143.970915 
L 171.846939 159.076104 
L 172.288042 162.045958 
L 172.729146 142.447698 
L 173.17025 148.691414 
L 173.611353 138.936053 
L 174.052457 133.654618 
L 174.493561 143.943268 
L 174.934665 143.635533 
L 175.816872 147.869872 
L 176.257976 153.962594 
L 176.69908 153.991195 
L 177.140183 164.643517 
L 177.581287 161.328556 
L 178.022391 138.382763 
L 178.904598 143.275669 
L 179.345702 149.431791 
L 179.786806 143.641901 
L 180.669013 140.504826 
L 181.551221 157.236116 
L 181.992325 148.84423 
L 182.433428 168.318632 
L 182.874532 138.475376 
L 183.315636 160.087668 
L 183.756739 144.702449 
L 184.638947 162.50377 
L 185.080051 155.345332 
L 185.962258 128.766307 
L 186.403362 136.176838 
L 186.844466 157.122807 
L 187.285569 150.516965 
L 187.726673 148.830673 
L 188.167777 160.979757 
L 188.608881 155.439291 
L 189.049984 174.931748 
L 189.491088 147.503564 
L 189.932192 156.782965 
L 190.373296 145.916133 
L 190.814399 160.566339 
L 191.255503 154.217018 
L 191.696607 141.40149 
L 192.137711 146.186281 
L 192.578814 166.609092 
L 193.019918 159.618996 
L 194.343229 143.467955 
L 194.784333 141.709017 
L 195.225437 157.229293 
L 195.66654 152.213886 
L 196.107644 128.535664 
L 196.548748 126.195039 
L 196.989852 129.123652 
L 197.430955 111.586894 
L 197.872059 102.168181 
L 198.313163 144.903792 
L 198.754267 134.515617 
L 199.19537 132.296636 
L 199.636474 149.78099 
L 200.077578 146.881387 
L 200.518682 145.163137 
L 200.959785 157.368662 
L 201.400889 142.974012 
L 201.841993 153.532585 
L 202.283096 148.950579 
L 202.7242 127.499342 
L 203.165304 124.610604 
L 203.606408 111.147437 
L 204.047511 146.012058 
L 204.488615 134.967642 
L 204.929719 154.844901 
L 205.370823 166.601986 
L 205.811926 144.508662 
L 206.25303 149.239656 
L 206.694134 158.235968 
L 207.135238 153.535463 
L 207.576341 153.527856 
L 208.458549 121.340807 
L 208.899653 128.011991 
L 209.340756 113.613671 
L 209.78186 108.860016 
L 210.222964 112.281336 
L 210.664068 143.746937 
L 211.105171 115.255816 
L 211.546275 121.939803 
L 211.987379 136.191445 
L 212.428482 116.585648 
L 212.869586 139.013081 
L 213.31069 127.314114 
L 213.751794 126.287271 
L 214.192897 140.826109 
L 214.634001 162.476167 
L 215.075105 148.831953 
L 215.516209 152.696347 
L 215.957312 137.209908 
L 216.398416 165.553249 
L 216.83952 133.162223 
L 217.280624 117.421219 
L 217.721727 118.822595 
L 218.603935 148.258323 
L 219.045039 133.533675 
L 219.486142 136.290075 
L 219.927246 128.108463 
L 220.36835 105.729442 
L 220.809454 128.285589 
L 221.250557 128.746321 
L 221.691661 131.903528 
L 222.132765 126.293995 
L 222.573868 135.608124 
L 223.014972 97.218288 
L 223.456076 135.1326 
L 223.89718 135.9692 
L 224.338283 133.126727 
L 224.779387 126.856362 
L 225.220491 129.637242 
L 225.661595 148.653092 
L 226.102698 128.47625 
L 226.543802 158.40052 
L 226.984906 159.499591 
L 227.42601 161.703286 
L 227.867113 167.072741 
L 228.308217 154.684367 
L 228.749321 172.204746 
L 229.190425 155.070319 
L 229.631528 150.191577 
L 230.072632 159.440733 
L 230.513736 156.307706 
L 231.395943 134.84142 
L 232.278151 151.869709 
L 232.719254 140.423591 
L 233.160358 138.019029 
L 233.601462 136.250816 
L 234.042566 145.836941 
L 234.483669 144.115134 
L 234.924773 157.237036 
L 235.365877 143.22886 
L 235.806981 152.815765 
L 236.248084 140.374217 
L 236.689188 135.560958 
L 237.130292 155.313753 
L 237.571396 155.973661 
L 238.012499 134.760747 
L 238.453603 123.89402 
L 238.894707 145.523782 
L 239.335811 141.115652 
L 239.776914 126.271745 
L 240.659122 155.179327 
L 241.100225 189.116775 
L 241.541329 157.261797 
L 241.982433 167.417139 
L 242.423537 129.501584 
L 242.86464 145.551088 
L 243.305744 138.636736 
L 243.746848 136.79396 
L 244.187952 128.386151 
L 244.629055 143.747522 
L 245.070159 140.639851 
L 245.511263 142.343804 
L 245.952367 151.753098 
L 246.39347 151.442794 
L 246.834574 159.806251 
L 247.275678 174.260153 
L 247.716782 146.695849 
L 248.157885 143.43433 
L 248.598989 155.223968 
L 249.040093 194.055446 
L 249.481197 166.200786 
L 249.9223 158.657996 
L 250.363404 134.765068 
L 250.804508 156.438555 
L 251.245611 131.009909 
L 251.686715 155.005862 
L 252.568923 153.465144 
L 253.010026 161.418593 
L 253.45113 154.086348 
L 253.892234 152.294507 
L 254.333338 168.684061 
L 254.774441 157.583592 
L 255.215545 149.849179 
L 255.656649 150.13318 
L 256.097753 147.98352 
L 256.538856 153.072462 
L 256.97996 139.224143 
L 257.421064 166.014475 
L 258.303271 152.493816 
L 258.744375 150.498725 
L 259.185479 159.521461 
L 259.626583 159.224685 
L 260.067686 140.34288 
L 260.50879 136.07511 
L 260.949894 159.995988 
L 261.390997 165.129769 
L 261.832101 150.587102 
L 262.273205 149.576933 
L 263.155412 135.883165 
L 263.596516 146.463196 
L 264.03762 144.075998 
L 264.478724 146.727281 
L 264.919827 143.755211 
L 265.360931 131.818676 
L 265.802035 141.762694 
L 266.243139 132.686994 
L 266.684242 142.321928 
L 267.125346 138.555748 
L 267.56645 148.717155 
L 268.007554 152.433802 
L 268.448657 134.843886 
L 268.889761 148.177936 
L 269.330865 146.101792 
L 269.771969 142.340177 
L 270.213072 125.192648 
L 270.654176 128.747958 
L 271.09528 130.096327 
L 271.536383 135.115545 
L 271.977487 129.324476 
L 272.418591 153.164053 
L 272.859695 140.266008 
L 273.300798 145.065789 
L 273.741902 159.985818 
L 274.183006 121.274081 
L 274.62411 162.462421 
L 275.065213 153.323564 
L 275.506317 132.450722 
L 275.947421 125.975165 
L 276.388525 147.165444 
L 276.829628 136.613993 
L 277.270732 152.775752 
L 277.711836 132.483133 
L 278.15294 133.252228 
L 278.594043 131.899703 
L 279.035147 149.831376 
L 279.476251 149.923188 
L 279.917354 147.168997 
L 280.358458 127.598002 
L 281.240666 151.096802 
L 281.681769 132.237412 
L 282.122873 123.621399 
L 282.563977 125.497456 
L 283.005081 120.111497 
L 283.446184 123.741131 
L 283.887288 160.242247 
L 284.328392 126.285914 
L 284.769496 131.648155 
L 285.651703 158.512097 
L 286.092807 127.376788 
L 286.533911 135.393285 
L 287.416118 157.227048 
L 287.857222 159.969156 
L 288.298326 150.905012 
L 289.180533 158.248617 
L 289.621637 148.548189 
L 290.503844 164.845155 
L 290.944948 162.77885 
L 291.386052 141.541785 
L 291.827155 156.035972 
L 292.268259 175.591971 
L 292.709363 153.644324 
L 293.150467 114.209941 
L 293.59157 136.221249 
L 294.032674 131.120107 
L 294.473778 131.648355 
L 294.914882 137.33044 
L 295.355985 140.08243 
L 295.797089 155.098762 
L 296.238193 142.517583 
L 296.679297 145.165857 
L 297.1204 148.914719 
L 297.561504 134.912896 
L 298.002608 128.594666 
L 298.443712 131.454101 
L 298.884815 141.023107 
L 299.325919 133.811684 
L 299.767023 118.53704 
L 300.208126 156.379311 
L 300.64923 143.693049 
L 301.090334 154.063573 
L 301.531438 149.408634 
L 301.972541 139.693398 
L 302.413645 143.749375 
L 302.854749 137.704591 
L 303.295853 139.668442 
L 303.736956 128.431998 
L 304.17806 148.600397 
L 305.060268 137.472875 
L 305.942475 153.180157 
L 306.383579 163.103548 
L 306.824683 164.721917 
L 307.265786 164.690151 
L 307.70689 156.183078 
L 308.147994 144.649557 
L 308.589098 139.210627 
L 309.030201 156.126402 
L 309.471305 144.042862 
L 310.353512 157.980899 
L 310.794616 146.165324 
L 311.23572 161.884557 
L 311.676824 160.767375 
L 312.117927 147.508747 
L 312.559031 138.060941 
L 313.000135 136.329524 
L 313.441239 130.029561 
L 313.882342 165.392641 
L 314.323446 149.87725 
L 315.205654 166.318729 
L 315.646757 144.274402 
L 316.528965 162.751551 
L 316.970069 146.527384 
L 317.411172 139.134202 
L 317.852276 137.335168 
L 318.29338 158.60616 
L 318.734484 141.151292 
L 319.175587 135.815554 
L 319.616691 125.365908 
L 320.057795 123.956816 
L 320.498898 127.514696 
L 320.940002 121.543271 
L 321.381106 119.307978 
L 321.82221 126.595554 
L 322.704417 104.163927 
L 323.145521 102.20411 
L 323.586625 105.880727 
L 324.027728 97.719276 
L 324.468832 115.041769 
L 325.35104 99.536443 
L 326.233247 130.109329 
L 326.674351 108.567698 
L 327.556558 116.59052 
L 327.997662 117.300359 
L 328.438766 115.27101 
L 328.879869 115.21753 
L 329.320973 116.800233 
L 329.762077 112.443245 
L 330.644284 123.054788 
L 331.085388 105.201447 
L 331.526492 124.859134 
L 331.967596 115.672127 
L 332.408699 123.186497 
L 332.849803 125.287422 
L 333.290907 133.160841 
L 333.732011 135.133852 
L 334.173114 133.951174 
L 334.614218 109.838678 
L 335.055322 123.464105 
L 335.496426 123.251687 
L 335.937529 141.392496 
L 336.378633 144.470183 
L 336.819737 137.076823 
L 337.260841 145.701829 
L 338.143048 103.58421 
L 338.584152 96.587262 
L 339.025255 95.96042 
L 339.466359 123.460168 
L 339.907463 108.662923 
L 340.348567 124.776649 
L 340.78967 115.452 
L 341.230774 123.014117 
L 341.671878 122.842393 
L 342.112982 110.813403 
L 342.554085 104.444544 
L 342.995189 95.452532 
L 343.436293 116.138909 
L 343.877397 111.080075 
L 344.3185 110.302343 
L 344.759604 106.516784 
L 345.200708 105.585824 
L 346.082915 123.839854 
L 346.524019 123.265499 
L 346.965123 122.910974 
L 347.406227 133.492301 
L 347.84733 149.89795 
L 348.288434 144.14737 
L 348.729538 140.067109 
L 349.170641 154.267789 
L 349.611745 144.211513 
L 350.052849 139.502867 
L 350.493953 136.148628 
L 350.935056 151.157552 
L 351.37616 125.336068 
L 351.817264 127.611647 
L 352.258368 131.695726 
L 352.699471 116.57083 
L 353.140575 134.02531 
L 353.581679 138.89637 
L 354.022783 123.945345 
L 354.463886 131.380327 
L 354.90499 120.531681 
L 355.346094 120.673574 
L 355.787198 112.434462 
L 356.228301 121.387547 
L 356.669405 126.03709 
L 357.110509 122.465623 
L 357.551613 116.648431 
L 357.992716 123.637991 
L 358.874924 115.986381 
L 359.757131 121.774287 
L 360.198235 102.607167 
L 360.639339 127.294038 
L 361.080442 104.978259 
L 361.521546 143.128741 
L 361.96265 112.262915 
L 362.844857 164.447851 
L 363.285961 133.459433 
L 363.727065 122.102134 
L 364.168169 134.857152 
L 364.609272 117.761228 
L 365.932584 155.346042 
L 366.373687 150.186472 
L 366.814791 158.145335 
L 367.255895 155.320643 
L 367.696998 171.314179 
L 368.138102 152.862375 
L 368.579206 166.225268 
L 369.02031 157.742993 
L 369.461413 139.109609 
L 369.902517 134.459095 
L 370.343621 156.392477 
L 370.784725 153.190282 
L 371.666932 166.651025 
L 372.108036 170.727477 
L 372.54914 149.576591 
L 372.990243 161.429502 
L 373.431347 177.829675 
L 373.872451 149.20203 
L 374.313555 163.487513 
L 374.754658 148.269097 
L 375.195762 173.327392 
L 376.07797 146.095746 
L 376.519073 160.662973 
L 376.960177 168.105115 
L 377.401281 158.952582 
L 377.842384 156.056293 
L 378.283488 171.578992 
L 378.724592 156.785562 
L 379.165696 154.474218 
L 379.606799 161.935997 
L 380.047903 156.615119 
L 380.489007 162.104681 
L 380.930111 143.784857 
L 381.371214 161.883993 
L 381.812318 155.577486 
L 382.253422 161.947676 
L 382.694526 170.867751 
L 383.135629 168.763802 
L 383.576733 164.330028 
L 384.017837 154.865653 
L 384.458941 164.728152 
L 385.341148 147.698841 
L 385.782252 152.463806 
L 386.223356 142.650682 
L 386.664459 137.887249 
L 387.105563 147.171835 
L 387.546667 144.381197 
L 387.98777 155.780367 
L 388.428874 141.710043 
L 388.869978 163.202128 
L 389.311082 158.121543 
L 389.752185 146.234016 
L 390.193289 157.550985 
L 390.634393 140.883171 
L 391.075497 136.086016 
L 392.398808 157.843556 
L 392.839912 138.069286 
L 393.281015 143.96752 
L 393.722119 155.22798 
L 394.163223 137.539871 
L 394.604327 146.542025 
L 395.04543 137.179488 
L 395.486534 140.191053 
L 395.927638 148.923208 
L 396.368742 164.809179 
L 396.809845 133.690736 
L 397.250949 145.138981 
L 397.692053 124.418456 
L 398.133156 139.993199 
L 398.57426 136.498174 
L 399.015364 160.234062 
L 399.456468 144.685697 
L 399.897571 144.9568 
L 400.338675 136.087903 
L 400.779779 118.721518 
L 401.220883 116.878183 
L 401.661986 117.168392 
L 402.10309 125.403088 
L 402.544194 122.182801 
L 402.985298 125.513834 
L 403.426401 146.859263 
L 403.867505 130.67415 
L 404.308609 131.111923 
L 404.749713 119.164576 
L 405.190816 113.567172 
L 405.63192 130.744112 
L 406.073024 119.304934 
L 406.514127 128.433152 
L 406.955231 119.615635 
L 407.396335 124.026821 
L 407.837439 132.386791 
L 408.278542 161.877005 
L 408.719646 122.96297 
L 409.16075 131.952027 
L 409.601854 102.458759 
L 410.042957 118.849367 
L 410.484061 105.082184 
L 410.925165 107.904237 
L 411.366269 114.119407 
L 411.807372 115.102848 
L 412.248476 110.795249 
L 412.68958 145.52811 
L 413.130684 122.686914 
L 413.571787 119.62722 
L 414.012891 156.45413 
L 414.895099 144.695568 
L 415.336202 158.151488 
L 415.777306 124.215432 
L 416.21841 109.831721 
L 417.100617 136.614977 
L 417.541721 130.41208 
L 417.982825 138.705856 
L 418.423928 122.96962 
L 418.865032 113.789983 
L 419.306136 140.145031 
L 419.74724 121.832607 
L 420.188343 126.431846 
L 420.629447 142.234368 
L 421.070551 131.056742 
L 421.511655 140.06889 
L 421.952758 135.553301 
L 422.393862 140.462365 
L 422.834966 149.329216 
L 423.27607 129.120852 
L 423.717173 151.562477 
L 424.158277 153.398536 
L 424.599381 140.505859 
L 425.040485 135.869752 
L 425.481588 137.353133 
L 425.922692 127.416911 
L 426.363796 127.269755 
L 426.804899 129.70007 
L 427.246003 140.308868 
L 427.687107 123.608174 
L 428.128211 134.491778 
L 428.569314 117.20957 
L 429.010418 133.035995 
L 429.451522 126.030273 
L 429.892626 153.980177 
L 430.333729 159.745428 
L 430.774833 133.834232 
L 431.215937 145.780945 
L 431.657041 134.640695 
L 432.098144 129.687889 
L 432.539248 119.489471 
L 432.980352 119.38327 
L 433.421456 115.05207 
L 433.862559 147.100206 
L 434.303663 135.144596 
L 434.744767 140.422628 
L 435.185871 125.297203 
L 435.626974 141.267316 
L 436.509182 130.718705 
L 436.950285 122.023704 
L 437.391389 129.972725 
L 437.832493 126.970153 
L 438.273597 130.63582 
L 438.7147 122.117693 
L 439.155804 136.770372 
L 439.596908 126.990973 
L 440.038012 131.439173 
L 440.479115 145.344912 
L 441.361323 121.75447 
L 441.802427 156.204668 
L 442.24353 139.268291 
L 442.684634 140.334989 
L 443.125738 139.823821 
L 443.566842 151.033744 
L 444.007945 133.392884 
L 444.449049 128.656505 
L 444.890153 147.608978 
L 445.331257 142.812634 
L 445.77236 148.440278 
L 446.213464 146.363545 
L 446.654568 134.64793 
L 447.095671 153.833551 
L 447.536775 140.23061 
L 447.977879 100.081219 
L 448.418983 131.73597 
L 448.860086 111.192748 
L 449.30119 114.179745 
L 449.742294 118.383327 
L 450.183398 105.560693 
L 450.624501 111.883527 
L 451.065605 111.813075 
L 451.506709 121.191978 
L 451.947813 110.599141 
L 452.388916 127.244318 
L 452.83002 123.732017 
L 453.271124 127.510399 
L 453.712228 111.430845 
L 454.153331 130.159965 
L 454.594435 110.923656 
L 455.035539 117.823199 
L 455.476642 101.490434 
L 455.917746 99.127748 
L 456.35885 126.316262 
L 456.799954 110.122998 
L 457.241057 119.375611 
L 457.682161 110.995748 
L 458.123265 114.549317 
L 458.564369 120.714633 
L 459.005472 117.682463 
L 459.446576 111.472801 
L 459.88768 109.006218 
L 460.328784 103.375299 
L 460.769887 104.256814 
L 461.210991 142.343598 
L 461.652095 118.583048 
L 462.093199 105.402338 
L 462.534302 121.333459 
L 462.975406 116.303543 
L 463.41651 128.995967 
L 464.298717 134.637083 
L 464.739821 114.16898 
L 465.180925 134.289758 
L 465.622028 139.737628 
L 466.063132 131.742579 
L 466.94534 127.328951 
L 467.386443 140.291551 
L 467.827547 133.149949 
L 468.268651 138.378456 
L 469.150858 118.961153 
L 469.591962 136.7187 
L 470.033066 132.852578 
L 470.47417 139.370022 
L 470.915273 126.657159 
L 471.356377 142.739226 
L 472.238585 135.867665 
L 472.679688 141.104055 
L 473.120792 118.891747 
L 473.561896 134.727131 
L 474.444103 119.383879 
L 475.326311 151.916892 
L 475.767414 130.672894 
L 476.208518 125.533811 
L 476.649622 134.239931 
L 477.090726 117.196239 
L 477.531829 130.287018 
L 477.972933 126.551211 
L 478.414037 135.474465 
L 478.855141 133.078491 
L 479.296244 123.721954 
L 479.737348 120.432682 
L 480.178452 133.395773 
L 480.619556 127.991243 
L 481.060659 135.148741 
L 481.501763 134.981208 
L 481.942867 127.574693 
L 482.383971 113.074817 
L 482.825074 110.127355 
L 483.266178 109.296974 
L 483.707282 131.022238 
L 484.589489 115.006145 
L 485.471697 133.419079 
L 485.9128 123.694953 
L 486.795008 136.260676 
L 487.236112 117.602099 
L 487.677215 135.689785 
L 488.118319 128.03471 
L 488.559423 124.7358 
L 489.000527 119.900646 
L 489.44163 117.256377 
L 489.882734 109.314993 
L 490.323838 118.688875 
L 490.764942 130.852455 
L 491.206045 120.372536 
L 491.647149 130.37112 
L 492.088253 109.241263 
L 492.529357 101.149163 
L 492.97046 115.357526 
L 493.411564 115.36559 
L 493.852668 97.418989 
L 494.293771 118.165896 
L 494.734875 108.069086 
L 495.175979 133.682571 
L 495.617083 137.19292 
L 496.058186 116.456941 
L 496.49929 109.71145 
L 496.940394 112.172473 
L 497.381498 97.897257 
L 497.822601 111.977195 
L 498.263705 94.706363 
L 498.704809 111.107741 
L 499.145913 112.35301 
L 499.587016 116.076417 
L 500.02812 125.477971 
L 500.469224 112.169806 
L 500.910328 118.098815 
L 501.351431 100.792331 
L 501.792535 102.966413 
L 502.233639 113.590164 
L 502.674743 118.175101 
L 503.115846 118.884828 
L 503.55695 125.997717 
L 504.439157 133.979673 
L 504.880261 112.777944 
L 505.321365 141.150669 
L 506.203572 113.564421 
L 506.644676 131.102163 
L 507.08578 101.182081 
L 507.526884 116.876161 
L 507.967987 122.598879 
L 508.409091 107.460705 
L 508.850195 132.689456 
L 509.291299 122.814183 
L 509.732402 140.647112 
L 510.173506 121.526284 
L 510.61461 111.76196 
L 511.055714 105.555417 
L 511.496817 112.630756 
L 511.937921 97.749302 
L 512.820129 117.28393 
L 513.261232 105.562637 
L 514.14344 107.432216 
L 514.584543 97.274227 
L 515.025647 91.751672 
L 515.466751 95.018922 
L 516.348958 87.942175 
L 516.790062 91.221986 
L 517.231166 75.017906 
L 517.67227 82.874469 
L 518.113373 77.475914 
L 518.554477 62.201866 
L 518.995581 80.158291 
L 519.436685 89.194886 
L 519.877788 73.563275 
L 520.318892 84.932562 
L 520.759996 79.695552 
L 521.2011 66.891305 
L 521.642203 78.046952 
L 522.083307 77.619318 
L 522.524411 66.353602 
L 522.965515 73.532804 
L 523.847722 100.276002 
L 524.288826 88.94775 
L 524.729929 83.583432 
L 525.612137 100.806777 
L 526.053241 95.99654 
L 526.494344 95.745404 
L 526.935448 87.874125 
L 527.376552 86.564771 
L 527.817656 86.621113 
L 528.258759 100.311162 
L 528.699863 95.959072 
L 528.699863 95.959072 
" clip-path="url(#peb11bd3624)" style="fill: none; stroke: #000000; stroke-width: 0.7; stroke-linecap: round"/>
   </g>
   <g id="line2d_17">
    <path d="M 109.210208 119.173281 
L 109.651311 120.034446 
L 110.092415 119.608211 
L 110.974623 120.121175 
L 111.415726 119.820203 
L 111.85683 120.189384 
L 112.739038 119.767515 
L 113.180141 119.905091 
L 113.621245 119.744526 
L 114.062349 119.953925 
L 114.503452 119.968513 
L 114.944556 120.537013 
L 115.826764 121.236659 
L 116.267867 121.89246 
L 117.150075 124.249987 
L 117.591179 125.155838 
L 118.032282 126.449201 
L 118.473386 127.112791 
L 118.91449 127.290301 
L 119.796697 128.356796 
L 121.561112 130.905222 
L 122.002216 131.364418 
L 122.44332 132.062271 
L 123.325527 134.03754 
L 124.207735 134.723544 
L 124.648838 135.456641 
L 125.089942 135.892726 
L 125.531046 136.084909 
L 125.97215 136.566485 
L 126.413253 137.36976 
L 126.854357 137.61667 
L 127.295461 137.670189 
L 127.736565 138.255553 
L 128.618772 138.401302 
L 129.059876 138.330131 
L 130.383187 139.913582 
L 130.824291 140.278421 
L 131.265395 141.074015 
L 131.706498 140.858616 
L 132.147602 141.349242 
L 132.588706 141.656299 
L 133.470913 142.062541 
L 134.353121 141.815676 
L 135.235328 141.795828 
L 135.676432 142.041573 
L 136.558639 141.719963 
L 136.999743 141.13964 
L 137.881951 139.704039 
L 138.323054 139.202403 
L 138.764158 138.195849 
L 139.646366 136.959135 
L 140.969677 134.346963 
L 141.851884 131.90123 
L 142.734092 130.150793 
L 143.616299 128.828032 
L 144.057403 128.545264 
L 145.380714 125.409113 
L 145.821818 124.676659 
L 146.704025 122.467074 
L 147.586233 121.731699 
L 148.027337 121.164676 
L 148.46844 120.2916 
L 148.909544 119.890669 
L 149.350648 119.701303 
L 149.791752 118.864816 
L 150.232855 118.719261 
L 151.556167 117.895447 
L 151.99727 117.620801 
L 152.438374 116.98375 
L 152.879478 117.025708 
L 153.320581 116.82606 
L 153.761685 116.788006 
L 155.5261 118.016654 
L 155.967204 118.199123 
L 156.408308 118.802716 
L 156.849411 119.729627 
L 158.172723 121.3059 
L 158.613826 121.571165 
L 159.05493 122.192803 
L 159.496034 123.158853 
L 159.937138 124.542192 
L 160.819345 125.368173 
L 162.142656 127.389178 
L 164.348175 133.477455 
L 164.789279 134.186976 
L 165.230382 134.308827 
L 165.671486 134.971635 
L 166.11259 135.305334 
L 166.553694 136.228088 
L 166.994797 136.522429 
L 167.877005 137.928562 
L 168.759212 139.880467 
L 169.200316 140.253526 
L 169.64142 140.881401 
L 170.082524 141.293125 
L 171.405835 143.631826 
L 172.288042 145.787443 
L 173.17025 147.320465 
L 174.052457 147.747979 
L 174.493561 148.38659 
L 175.375768 148.901378 
L 176.257976 149.346695 
L 176.69908 149.356434 
L 177.581287 150.158929 
L 178.022391 150.228554 
L 178.463495 150.02395 
L 178.904598 149.633069 
L 179.786806 149.618638 
L 180.22791 149.387264 
L 180.669013 149.616726 
L 181.110117 149.311751 
L 181.551221 149.392011 
L 181.992325 148.908727 
L 182.433428 149.18792 
L 183.315636 148.897368 
L 183.756739 148.702267 
L 184.197843 148.68275 
L 185.080051 148.351311 
L 185.521154 148.269186 
L 186.403362 146.970943 
L 188.608881 148.132797 
L 189.049984 148.985121 
L 189.491088 148.991783 
L 189.932192 149.368957 
L 190.373296 149.226069 
L 190.814399 149.556069 
L 191.255503 149.721642 
L 191.696607 149.534317 
L 192.137711 149.63186 
L 192.578814 150.119798 
L 193.461022 150.49908 
L 193.902125 150.287847 
L 194.343229 149.916287 
L 194.784333 149.901514 
L 195.66654 150.337828 
L 196.107644 150.235449 
L 196.989852 149.590247 
L 197.430955 148.906739 
L 197.872059 147.992705 
L 198.313163 147.811529 
L 198.754267 147.422017 
L 199.19537 146.77508 
L 199.636474 146.544128 
L 200.959785 147.080616 
L 201.400889 146.95146 
L 202.283096 147.284221 
L 202.7242 147.024112 
L 203.165304 146.547396 
L 203.606408 145.625622 
L 204.047511 145.568979 
L 204.488615 144.901959 
L 204.929719 145.22935 
L 205.370823 145.359636 
L 206.25303 145.257256 
L 207.135238 145.135702 
L 208.017445 145.549736 
L 208.458549 145.253015 
L 209.340756 143.932733 
L 210.222964 142.159352 
L 210.664068 141.925504 
L 211.105171 140.731986 
L 213.31069 138.253147 
L 213.751794 137.950863 
L 215.516209 137.510327 
L 215.957312 137.284236 
L 216.398416 137.725942 
L 216.83952 137.555006 
L 217.721727 136.091019 
L 218.162831 136.223063 
L 218.603935 136.664329 
L 219.045039 136.752529 
L 219.927246 137.765398 
L 220.36835 136.981911 
L 221.250557 136.786304 
L 222.573868 135.825907 
L 223.014972 134.6229 
L 223.456076 134.466071 
L 224.338283 133.798327 
L 224.779387 133.785467 
L 225.220491 133.886 
L 225.661595 134.636113 
L 226.102698 134.285397 
L 226.543802 134.754054 
L 226.984906 134.847148 
L 227.42601 134.749174 
L 227.867113 135.200456 
L 228.308217 135.30935 
L 228.749321 135.588725 
L 229.631528 135.552697 
L 230.072632 135.973495 
L 230.513736 136.672833 
L 231.395943 137.422851 
L 232.278151 138.895412 
L 232.719254 138.828945 
L 233.160358 139.28421 
L 234.042566 139.76334 
L 234.483669 140.31393 
L 235.806981 141.527273 
L 236.248084 141.518236 
L 236.689188 140.979931 
L 237.571396 141.175114 
L 238.012499 141.12613 
L 238.453603 140.292946 
L 238.894707 140.540177 
L 239.335811 141.014066 
L 240.659122 141.422635 
L 241.100225 142.534297 
L 241.541329 142.953731 
L 241.982433 143.739905 
L 242.86464 144.560658 
L 243.746848 144.856275 
L 244.187952 144.898118 
L 244.629055 145.060906 
L 245.070159 145.929337 
L 245.511263 146.073561 
L 246.39347 146.75556 
L 246.834574 147.414558 
L 247.275678 148.307016 
L 247.716782 148.267871 
L 248.157885 148.567033 
L 248.598989 148.503502 
L 249.040093 149.194619 
L 249.481197 149.284569 
L 249.9223 149.116274 
L 251.245611 147.921356 
L 251.686715 148.017642 
L 252.568923 147.856378 
L 254.774441 149.451329 
L 255.656649 149.965579 
L 256.097753 150.008511 
L 256.538856 150.187657 
L 256.97996 149.8274 
L 257.421064 150.283112 
L 258.303271 150.660444 
L 258.744375 150.959199 
L 260.067686 151.220016 
L 260.949894 151.753082 
L 261.832101 152.719672 
L 262.273205 152.887287 
L 262.714309 152.643724 
L 263.155412 151.579051 
L 263.596516 151.363079 
L 264.03762 150.896257 
L 264.478724 151.240771 
L 265.802035 151.167867 
L 266.243139 151.253883 
L 267.125346 151.183689 
L 268.007554 151.324771 
L 270.654176 149.215592 
L 271.09528 147.936409 
L 271.977487 146.728034 
L 272.418591 147.096014 
L 272.859695 146.772563 
L 273.300798 147.05368 
L 273.741902 147.153279 
L 274.183006 146.494359 
L 274.62411 146.674304 
L 275.065213 146.512404 
L 276.829628 144.70354 
L 277.270732 144.762072 
L 278.594043 143.69099 
L 279.035147 143.903134 
L 280.799562 142.6237 
L 281.240666 142.455207 
L 281.681769 141.915462 
L 282.563977 141.369479 
L 283.446184 139.744016 
L 283.887288 139.937119 
L 284.328392 139.471299 
L 284.769496 139.244239 
L 285.651703 139.67685 
L 286.533911 139.116186 
L 286.975014 139.18613 
L 287.857222 140.058427 
L 289.180533 141.068793 
L 290.06274 141.149092 
L 290.503844 141.749118 
L 290.944948 142.041136 
L 291.386052 141.949936 
L 291.827155 142.223852 
L 292.268259 143.231838 
L 292.709363 143.729766 
L 293.150467 143.412038 
L 294.032674 143.470065 
L 294.473778 143.039751 
L 295.797089 142.783631 
L 296.238193 143.208501 
L 296.679297 142.86257 
L 297.1204 142.774393 
L 298.002608 142.876026 
L 298.443712 142.561799 
L 298.884815 142.649982 
L 299.767023 141.991779 
L 300.208126 142.45432 
L 300.64923 142.690187 
L 301.531438 142.76454 
L 301.972541 142.615028 
L 302.413645 142.938055 
L 302.854749 142.893989 
L 303.295853 142.665422 
L 303.736956 142.589314 
L 304.619164 143.435369 
L 305.501371 144.198419 
L 305.942475 144.057177 
L 306.824683 145.455005 
L 307.265786 145.839511 
L 307.70689 145.792931 
L 308.147994 146.138386 
L 309.030201 146.392213 
L 309.912409 145.962281 
L 310.353512 146.103798 
L 310.794616 145.928518 
L 311.23572 146.001237 
L 311.676824 146.24562 
L 312.117927 146.06344 
L 313.000135 144.99877 
L 313.441239 144.768525 
L 313.882342 144.955659 
L 314.323446 144.441364 
L 314.76455 144.52079 
L 315.205654 145.562966 
L 315.646757 145.724029 
L 316.087861 146.152799 
L 316.528965 146.774863 
L 316.970069 146.958802 
L 317.411172 146.939838 
L 317.852276 146.584566 
L 318.29338 146.906337 
L 318.734484 146.826046 
L 319.616691 146.373123 
L 320.498898 146.201578 
L 321.381106 145.521907 
L 321.82221 145.683077 
L 324.468832 140.738542 
L 325.792143 139.051661 
L 326.233247 138.68184 
L 327.115455 137.508945 
L 327.997662 136.232513 
L 329.762077 132.45318 
L 330.203181 131.924125 
L 330.644284 131.601008 
L 331.085388 130.582509 
L 331.526492 130.198835 
L 332.408699 128.783255 
L 332.849803 128.365697 
L 333.732011 127.278552 
L 334.173114 127.007401 
L 334.614218 126.442955 
L 336.819737 125.051169 
L 337.701944 124.228459 
L 338.143048 123.248971 
L 339.025255 120.914346 
L 339.466359 120.600865 
L 340.78967 118.836844 
L 341.230774 118.580816 
L 341.671878 118.530345 
L 342.112982 118.267477 
L 342.995189 117.284259 
L 343.436293 117.220878 
L 343.877397 116.910568 
L 344.3185 116.8216 
L 345.200708 116.936291 
L 345.641812 117.138881 
L 346.082915 117.661293 
L 346.524019 117.825768 
L 346.965123 118.146337 
L 347.84733 119.522572 
L 348.288434 119.803333 
L 348.729538 120.433321 
L 349.170641 121.257045 
L 350.052849 122.253515 
L 350.493953 122.671067 
L 350.935056 123.389868 
L 351.37616 123.560584 
L 352.258368 124.13393 
L 352.699471 124.004251 
L 353.140575 124.580729 
L 354.022783 125.026938 
L 354.463886 125.190814 
L 354.90499 125.095699 
L 355.346094 124.845954 
L 355.787198 124.391966 
L 356.228301 124.140694 
L 356.669405 124.464662 
L 357.110509 124.444692 
L 357.551613 124.312627 
L 358.43382 123.469031 
L 359.316027 122.518013 
L 360.198235 122.458842 
L 360.639339 123.072977 
L 361.080442 123.253334 
L 361.521546 123.646706 
L 361.96265 123.718705 
L 362.403754 123.937475 
L 362.844857 124.917392 
L 363.285961 125.126298 
L 363.727065 125.111493 
L 364.168169 125.592368 
L 364.609272 125.858701 
L 366.373687 128.746559 
L 367.696998 131.879905 
L 368.138102 132.460356 
L 369.02031 134.016191 
L 369.461413 134.128537 
L 369.902517 133.81976 
L 371.666932 134.887226 
L 372.108036 135.511719 
L 372.990243 135.985717 
L 373.431347 137.035589 
L 373.872451 137.467397 
L 375.636866 139.942506 
L 376.519073 140.971167 
L 377.401281 142.688216 
L 378.724592 145.17945 
L 379.165696 145.819622 
L 380.047903 147.384916 
L 380.489007 148.226112 
L 380.930111 148.782082 
L 382.694526 152.369283 
L 383.135629 153.644993 
L 383.576733 154.069019 
L 384.017837 154.921074 
L 384.458941 155.501335 
L 384.900044 155.340804 
L 385.341148 155.625592 
L 385.782252 156.232826 
L 386.223356 156.388696 
L 387.105563 157.144154 
L 387.98777 157.19428 
L 388.428874 157.024751 
L 389.311082 157.181905 
L 389.752185 156.680302 
L 390.193289 156.774074 
L 391.075497 155.834093 
L 391.5166 155.9118 
L 391.957704 156.193071 
L 392.398808 156.222093 
L 393.722119 155.373897 
L 394.163223 154.710145 
L 394.604327 154.649453 
L 395.04543 154.164453 
L 395.486534 153.41168 
L 396.368742 153.432537 
L 396.809845 153.14097 
L 397.692053 151.868377 
L 398.133156 151.746326 
L 398.57426 151.26303 
L 399.015364 151.105609 
L 399.897571 150.598282 
L 401.220883 148.375258 
L 401.661986 147.479906 
L 402.985298 145.691808 
L 403.426401 145.391313 
L 404.308609 144.276531 
L 405.190816 142.138535 
L 407.396335 138.820148 
L 407.837439 138.418608 
L 408.278542 138.803134 
L 409.16075 138.200253 
L 412.248476 132.346888 
L 412.68958 132.439787 
L 413.130684 132.171805 
L 413.571787 131.704449 
L 414.012891 131.863079 
L 414.453995 131.722899 
L 414.895099 131.855425 
L 415.336202 132.139104 
L 416.21841 130.96469 
L 416.659513 130.506732 
L 417.100617 130.495442 
L 417.982825 130.095515 
L 418.423928 129.258724 
L 418.865032 128.860709 
L 419.74724 128.709113 
L 420.188343 128.437886 
L 420.629447 128.55261 
L 421.070551 127.969063 
L 422.393862 127.776147 
L 422.834966 128.388301 
L 423.27607 128.633154 
L 424.158277 129.880945 
L 424.599381 130.247406 
L 425.040485 130.454524 
L 425.481588 130.264401 
L 426.363796 130.122413 
L 426.804899 130.333123 
L 427.246003 130.867957 
L 427.687107 130.725238 
L 428.128211 131.028975 
L 428.569314 130.804504 
L 429.010418 131.072911 
L 429.451522 131.11298 
L 429.892626 131.544848 
L 430.333729 131.502216 
L 431.215937 131.99622 
L 431.657041 132.639858 
L 433.421456 133.393008 
L 434.303663 134.519943 
L 434.744767 134.417833 
L 435.185871 134.470039 
L 435.626974 134.902841 
L 436.950285 133.642069 
L 437.391389 133.078494 
L 437.832493 133.133588 
L 438.273597 133.54967 
L 439.596908 133.453828 
L 440.038012 133.308494 
L 440.920219 134.141693 
L 441.361323 133.773882 
L 441.802427 134.461323 
L 442.24353 134.718052 
L 442.684634 134.680065 
L 443.566842 135.074703 
L 444.007945 135.031495 
L 444.449049 134.795378 
L 444.890153 134.760973 
L 445.331257 135.034808 
L 446.213464 134.831665 
L 446.654568 134.714506 
L 447.095671 135.073782 
L 447.536775 135.131332 
L 447.977879 134.584618 
L 448.418983 134.673942 
L 448.860086 134.303796 
L 449.30119 133.781213 
L 449.742294 133.676716 
L 450.183398 133.098095 
L 450.624501 132.991574 
L 451.065605 132.567115 
L 451.506709 132.470349 
L 452.388916 130.952706 
L 452.83002 130.750662 
L 453.712228 129.921054 
L 454.153331 129.930496 
L 454.594435 129.759179 
L 455.035539 129.727978 
L 455.476642 129.456745 
L 455.917746 128.497296 
L 456.35885 128.320729 
L 456.799954 127.714737 
L 457.241057 127.596305 
L 458.123265 126.557794 
L 459.446576 125.90089 
L 459.88768 125.541611 
L 460.328784 124.9964 
L 460.769887 124.639183 
L 461.210991 124.750647 
L 461.652095 124.582489 
L 462.534302 123.581523 
L 462.975406 123.246101 
L 463.41651 123.390931 
L 463.857614 122.905149 
L 464.298717 122.812525 
L 464.739821 122.289204 
L 465.180925 122.178523 
L 465.622028 121.952601 
L 466.504236 121.940864 
L 466.94534 121.535264 
L 467.386443 121.484842 
L 467.827547 121.179036 
L 468.709755 120.913819 
L 469.150858 120.216371 
L 469.591962 120.146133 
L 470.033066 120.80156 
L 470.47417 120.954241 
L 470.915273 121.263529 
L 472.679688 123.441192 
L 473.120792 123.582766 
L 474.003 124.184533 
L 474.444103 124.027324 
L 474.885207 124.301595 
L 475.767414 125.174566 
L 476.208518 125.082043 
L 476.649622 125.548368 
L 477.090726 125.535829 
L 477.972933 126.66023 
L 478.414037 126.843394 
L 478.855141 127.302504 
L 479.737348 127.57817 
L 480.178452 127.955099 
L 480.619556 128.100631 
L 481.501763 128.920125 
L 481.942867 129.291494 
L 482.825074 129.602895 
L 483.266178 128.941963 
L 484.148386 129.528668 
L 484.589489 129.402122 
L 485.471697 129.641056 
L 486.353904 129.384879 
L 486.795008 129.826713 
L 487.236112 129.49296 
L 489.000527 129.089596 
L 490.323838 127.758402 
L 491.206045 127.816235 
L 491.647149 127.689283 
L 492.088253 127.217057 
L 492.529357 126.45264 
L 492.97046 126.226647 
L 493.411564 125.679174 
L 493.852668 124.843964 
L 494.293771 124.489929 
L 494.734875 123.829229 
L 495.175979 124.125046 
L 495.617083 124.174362 
L 496.49929 123.767004 
L 496.940394 123.261543 
L 497.381498 122.18115 
L 497.822601 121.807236 
L 498.704809 120.728043 
L 499.145913 120.631179 
L 499.587016 120.346967 
L 500.02812 120.325502 
L 500.469224 119.859409 
L 500.910328 119.559815 
L 501.792535 118.751897 
L 502.233639 118.355785 
L 502.674743 118.159462 
L 503.115846 117.834184 
L 503.55695 117.654514 
L 503.998054 117.704931 
L 504.439157 118.123028 
L 504.880261 118.17604 
L 505.321365 118.813114 
L 506.203572 118.548599 
L 506.644676 118.870519 
L 507.526884 118.086759 
L 507.967987 118.064837 
L 508.409091 117.613075 
L 508.850195 117.541651 
L 509.732402 117.745039 
L 510.173506 117.61487 
L 511.055714 117.068489 
L 511.496817 116.975977 
L 513.261232 115.954425 
L 513.702336 115.477138 
L 514.584543 115.363458 
L 515.466751 114.484407 
L 515.907855 114.371689 
L 516.348958 113.767214 
L 516.790062 113.430272 
L 517.67227 111.17061 
L 518.995581 108.800514 
L 519.436685 108.626467 
L 519.877788 107.858188 
L 520.318892 107.662712 
L 520.759996 107.034469 
L 522.965515 102.599828 
L 523.406618 102.333949 
L 523.847722 102.28014 
L 524.288826 101.787292 
L 525.171033 100.565536 
L 525.612137 100.061718 
L 526.935448 98.116976 
L 527.817656 96.227071 
L 528.258759 95.962006 
L 528.699863 95.259144 
L 528.699863 95.259144 
" clip-path="url(#peb11bd3624)" style="fill: none; stroke-dasharray: 2.96,1.28; stroke-dashoffset: 0; stroke: #ff0000; stroke-width: 0.8"/>
   </g>
   <g id="patch_3">
    <path d="M 65.540937 200.648125 
L 65.540937 55.609187 
" style="fill: none; stroke: #ffffff; stroke-width: 1.25; stroke-linejoin: miter; stroke-linecap: square"/>
   </g>
   <g id="patch_4">
    <path d="M 550.75505 200.648125 
L 550.75505 55.609187 
" style="fill: none; stroke: #ffffff; stroke-width: 1.25; stroke-linejoin: miter; stroke-linecap: square"/>
   </g>
   <g id="patch_5">
    <path d="M 65.540938 200.648125 
L 550.75505 200.648125 
" style="fill: none; stroke: #ffffff; stroke-width: 1.25; stroke-linejoin: miter; stroke-linecap: square"/>
   </g>
   <g id="patch_6">
    <path d="M 65.540938 55.609187 
L 550.75505 55.609187 
" style="fill: none; stroke: #ffffff; stroke-width: 1.25; stroke-linejoin: miter; stroke-linecap: square"/>
   </g>
   <g id="legend_1">
    <g id="patch_7">
     <path d="M 478.915363 196.148125 
L 544.45505 196.148125 
Q 546.25505 196.148125 546.25505 194.348125 
L 546.25505 168.8275 
Q 546.25505 167.0275 544.45505 167.0275 
L 478.915363 167.0275 
Q 477.115363 167.0275 477.115363 168.8275 
L 477.115363 194.348125 
Q 477.115363 196.148125 478.915363 196.148125 
z
" style="fill: #eaeaf2; opacity: 0.8; stroke: #cccccc; stroke-linejoin: miter"/>
    </g>
    <g id="line2d_18">
     <path d="M 480.715363 174.316094 
L 489.715363 174.316094 
L 498.715363 174.316094 
" style="fill: none; stroke: #000000; stroke-width: 0.7; stroke-linecap: round"/>
    </g>
    <g id="text_18">
     <!-- TOTAL -->
     <g style="fill: #262626" transform="translate(505.915363 177.466094)scale(0.09 -0.09)">
      <defs>
       <path id="DejaVuSans-54" d="M -19 4666 
L 3928 4666 
L 3928 4134 
L 2272 4134 
L 2272 0 
L 1638 0 
L 1638 4134 
L -19 4134 
L -19 4666 
z
" transform="scale(0.015625)"/>
       <path id="DejaVuSans-4f" d="M 2522 4238 
Q 1834 4238 1429 3725 
Q 1025 3213 1025 2328 
Q 1025 1447 1429 934 
Q 1834 422 2522 422 
Q 3209 422 3611 934 
Q 4013 1447 4013 2328 
Q 4013 3213 3611 3725 
Q 3209 4238 2522 4238 
z
M 2522 4750 
Q 3503 4750 4090 4092 
Q 4678 3434 4678 2328 
Q 4678 1225 4090 567 
Q 3503 -91 2522 -91 
Q 1538 -91 948 565 
Q 359 1222 359 2328 
Q 359 3434 948 4092 
Q 1538 4750 2522 4750 
z
" transform="scale(0.015625)"/>
       <path id="DejaVuSans-41" d="M 2188 4044 
L 1331 1722 
L 3047 1722 
L 2188 4044 
z
M 1831 4666 
L 2547 4666 
L 4325 0 
L 3669 0 
L 3244 1197 
L 1141 1197 
L 716 0 
L 50 0 
L 1831 4666 
z
" transform="scale(0.015625)"/>
       <path id="DejaVuSans-4c" d="M 628 4666 
L 1259 4666 
L 1259 531 
L 3531 531 
L 3531 0 
L 628 0 
L 628 4666 
z
" transform="scale(0.015625)"/>
      </defs>
      <use xlink:href="#DejaVuSans-54"/>
      <use xlink:href="#DejaVuSans-4f" x="61.083984"/>
      <use xlink:href="#DejaVuSans-54" x="139.794922"/>
      <use xlink:href="#DejaVuSans-41" x="193.128906"/>
      <use xlink:href="#DejaVuSans-4c" x="261.537109"/>
     </g>
    </g>
    <g id="line2d_19">
     <path d="M 480.715363 187.526406 
L 489.715363 187.526406 
L 498.715363 187.526406 
" style="fill: none; stroke-dasharray: 2.96,1.28; stroke-dashoffset: 0; stroke: #ff0000; stroke-width: 0.8"/>
    </g>
    <g id="text_19">
     <!-- Mov. Av. -->
     <g style="fill: #262626" transform="translate(505.915363 190.676406)scale(0.09 -0.09)">
      <defs>
       <path id="DejaVuSans-4d" d="M 628 4666 
L 1569 4666 
L 2759 1491 
L 3956 4666 
L 4897 4666 
L 4897 0 
L 4281 0 
L 4281 4097 
L 3078 897 
L 2444 897 
L 1241 4097 
L 1241 0 
L 628 0 
L 628 4666 
z
" transform="scale(0.015625)"/>
       <path id="DejaVuSans-76" d="M 191 3500 
L 800 3500 
L 1894 563 
L 2988 3500 
L 3597 3500 
L 2284 0 
L 1503 0 
L 191 3500 
z
" transform="scale(0.015625)"/>
       <path id="DejaVuSans-2e" d="M 684 794 
L 1344 794 
L 1344 0 
L 684 0 
L 684 794 
z
" transform="scale(0.015625)"/>
      </defs>
      <use xlink:href="#DejaVuSans-4d"/>
      <use xlink:href="#DejaVuSans-6f" x="86.279297"/>
      <use xlink:href="#DejaVuSans-76" x="147.460938"/>
      <use xlink:href="#DejaVuSans-2e" x="198.890625"/>
      <use xlink:href="#DejaVuSans-20" x="230.677734"/>
      <use xlink:href="#DejaVuSans-41" x="262.464844"/>
      <use xlink:href="#DejaVuSans-76" x="324.998047"/>
      <use xlink:href="#DejaVuSans-2e" x="376.427734"/>
     </g>
    </g>
   </g>
  </g>
  <g id="text_20">
   <!-- Energetic Components -->
   <g style="fill: #262626" transform="translate(208.277656 15.605813)scale(0.14 -0.14)">
    <defs>
     <path id="DejaVuSans-74" d="M 1172 4494 
L 1172 3500 
L 2356 3500 
L 2356 3053 
L 1172 3053 
L 1172 1153 
Q 1172 725 1289 603 
Q 1406 481 1766 481 
L 2356 481 
L 2356 0 
L 1766 0 
Q 1100 0 847 248 
Q 594 497 594 1153 
L 594 3053 
L 172 3053 
L 172 3500 
L 594 3500 
L 594 4494 
L 1172 4494 
z
" transform="scale(0.015625)"/>
     <path id="DejaVuSans-69" d="M 603 3500 
L 1178 3500 
L 1178 0 
L 603 0 
L 603 3500 
z
M 603 4863 
L 1178 4863 
L 1178 4134 
L 603 4134 
L 603 4863 
z
" transform="scale(0.015625)"/>
     <path id="DejaVuSans-43" d="M 4122 4306 
L 4122 3641 
Q 3803 3938 3442 4084 
Q 3081 4231 2675 4231 
Q 1875 4231 1450 3742 
Q 1025 3253 1025 2328 
Q 1025 1406 1450 917 
Q 1875 428 2675 428 
Q 3081 428 3442 575 
Q 3803 722 4122 1019 
L 4122 359 
Q 3791 134 3420 21 
Q 3050 -91 2638 -91 
Q 1578 -91 968 557 
Q 359 1206 359 2328 
Q 359 3453 968 4101 
Q 1578 4750 2638 4750 
Q 3056 4750 3426 4639 
Q 3797 4528 4122 4306 
z
" transform="scale(0.015625)"/>
     <path id="DejaVuSans-70" d="M 1159 525 
L 1159 -1331 
L 581 -1331 
L 581 3500 
L 1159 3500 
L 1159 2969 
Q 1341 3281 1617 3432 
Q 1894 3584 2278 3584 
Q 2916 3584 3314 3078 
Q 3713 2572 3713 1747 
Q 3713 922 3314 415 
Q 2916 -91 2278 -91 
Q 1894 -91 1617 61 
Q 1341 213 1159 525 
z
M 3116 1747 
Q 3116 2381 2855 2742 
Q 2594 3103 2138 3103 
Q 1681 3103 1420 2742 
Q 1159 2381 1159 1747 
Q 1159 1113 1420 752 
Q 1681 391 2138 391 
Q 2594 391 2855 752 
Q 3116 1113 3116 1747 
z
" transform="scale(0.015625)"/>
    </defs>
    <use xlink:href="#DejaVuSans-45"/>
    <use xlink:href="#DejaVuSans-6e" x="63.183594"/>
    <use xlink:href="#DejaVuSans-65" x="126.5625"/>
    <use xlink:href="#DejaVuSans-72" x="188.085938"/>
    <use xlink:href="#DejaVuSans-67" x="227.449219"/>
    <use xlink:href="#DejaVuSans-65" x="290.925781"/>
    <use xlink:href="#DejaVuSans-74" x="352.449219"/>
    <use xlink:href="#DejaVuSans-69" x="391.658203"/>
    <use xlink:href="#DejaVuSans-63" x="419.441406"/>
    <use xlink:href="#DejaVuSans-20" x="474.421875"/>
    <use xlink:href="#DejaVuSans-43" x="506.208984"/>
    <use xlink:href="#DejaVuSans-6f" x="576.033203"/>
    <use xlink:href="#DejaVuSans-6d" x="637.214844"/>
    <use xlink:href="#DejaVuSans-70" x="734.626953"/>
    <use xlink:href="#DejaVuSans-6f" x="798.103516"/>
    <use xlink:href="#DejaVuSans-6e" x="859.285156"/>
    <use xlink:href="#DejaVuSans-65" x="922.664062"/>
    <use xlink:href="#DejaVuSans-6e" x="984.1875"/>
    <use xlink:href="#DejaVuSans-74" x="1047.566406"/>
    <use xlink:href="#DejaVuSans-73" x="1086.775391"/>
   </g>
   <!-- System-1 | Normal | GB | Delta | TOTAL -->
   <g style="fill: #262626" transform="translate(151.249531 31.35625)scale(0.14 -0.14)">
    <defs>
     <path id="DejaVuSans-53" d="M 3425 4513 
L 3425 3897 
Q 3066 4069 2747 4153 
Q 2428 4238 2131 4238 
Q 1616 4238 1336 4038 
Q 1056 3838 1056 3469 
Q 1056 3159 1242 3001 
Q 1428 2844 1947 2747 
L 2328 2669 
Q 3034 2534 3370 2195 
Q 3706 1856 3706 1288 
Q 3706 609 3251 259 
Q 2797 -91 1919 -91 
Q 1588 -91 1214 -16 
Q 841 59 441 206 
L 441 856 
Q 825 641 1194 531 
Q 1563 422 1919 422 
Q 2459 422 2753 634 
Q 3047 847 3047 1241 
Q 3047 1584 2836 1778 
Q 2625 1972 2144 2069 
L 1759 2144 
Q 1053 2284 737 2584 
Q 422 2884 422 3419 
Q 422 4038 858 4394 
Q 1294 4750 2059 4750 
Q 2388 4750 2728 4690 
Q 3069 4631 3425 4513 
z
" transform="scale(0.015625)"/>
     <path id="DejaVuSans-2d" d="M 313 2009 
L 1997 2009 
L 1997 1497 
L 313 1497 
L 313 2009 
z
" transform="scale(0.015625)"/>
     <path id="DejaVuSans-7c" d="M 1344 4891 
L 1344 -1509 
L 813 -1509 
L 813 4891 
L 1344 4891 
z
" transform="scale(0.015625)"/>
     <path id="DejaVuSans-4e" d="M 628 4666 
L 1478 4666 
L 3547 763 
L 3547 4666 
L 4159 4666 
L 4159 0 
L 3309 0 
L 1241 3903 
L 1241 0 
L 628 0 
L 628 4666 
z
" transform="scale(0.015625)"/>
     <path id="DejaVuSans-47" d="M 3809 666 
L 3809 1919 
L 2778 1919 
L 2778 2438 
L 4434 2438 
L 4434 434 
Q 4069 175 3628 42 
Q 3188 -91 2688 -91 
Q 1594 -91 976 548 
Q 359 1188 359 2328 
Q 359 3472 976 4111 
Q 1594 4750 2688 4750 
Q 3144 4750 3555 4637 
Q 3966 4525 4313 4306 
L 4313 3634 
Q 3963 3931 3569 4081 
Q 3175 4231 2741 4231 
Q 1884 4231 1454 3753 
Q 1025 3275 1025 2328 
Q 1025 1384 1454 906 
Q 1884 428 2741 428 
Q 3075 428 3337 486 
Q 3600 544 3809 666 
z
" transform="scale(0.015625)"/>
     <path id="DejaVuSans-42" d="M 1259 2228 
L 1259 519 
L 2272 519 
Q 2781 519 3026 730 
Q 3272 941 3272 1375 
Q 3272 1813 3026 2020 
Q 2781 2228 2272 2228 
L 1259 2228 
z
M 1259 4147 
L 1259 2741 
L 2194 2741 
Q 2656 2741 2882 2914 
Q 3109 3088 3109 3444 
Q 3109 3797 2882 3972 
Q 2656 4147 2194 4147 
L 1259 4147 
z
M 628 4666 
L 2241 4666 
Q 2963 4666 3353 4366 
Q 3744 4066 3744 3513 
Q 3744 3084 3544 2831 
Q 3344 2578 2956 2516 
Q 3422 2416 3680 2098 
Q 3938 1781 3938 1306 
Q 3938 681 3513 340 
Q 3088 0 2303 0 
L 628 0 
L 628 4666 
z
" transform="scale(0.015625)"/>
     <path id="DejaVuSans-44" d="M 1259 4147 
L 1259 519 
L 2022 519 
Q 2988 519 3436 956 
Q 3884 1394 3884 2338 
Q 3884 3275 3436 3711 
Q 2988 4147 2022 4147 
L 1259 4147 
z
M 628 4666 
L 1925 4666 
Q 3281 4666 3915 4102 
Q 4550 3538 4550 2338 
Q 4550 1131 3912 565 
Q 3275 0 1925 0 
L 628 0 
L 628 4666 
z
" transform="scale(0.015625)"/>
    </defs>
    <use xlink:href="#DejaVuSans-53"/>
    <use xlink:href="#DejaVuSans-79" x="63.476562"/>
    <use xlink:href="#DejaVuSans-73" x="122.65625"/>
    <use xlink:href="#DejaVuSans-74" x="174.755859"/>
    <use xlink:href="#DejaVuSans-65" x="213.964844"/>
    <use xlink:href="#DejaVuSans-6d" x="275.488281"/>
    <use xlink:href="#DejaVuSans-2d" x="372.900391"/>
    <use xlink:href="#DejaVuSans-31" x="408.984375"/>
    <use xlink:href="#DejaVuSans-20" x="472.607422"/>
    <use xlink:href="#DejaVuSans-7c" x="504.394531"/>
    <use xlink:href="#DejaVuSans-20" x="538.085938"/>
    <use xlink:href="#DejaVuSans-4e" x="569.873047"/>
    <use xlink:href="#DejaVuSans-6f" x="644.677734"/>
    <use xlink:href="#DejaVuSans-72" x="705.859375"/>
    <use xlink:href="#DejaVuSans-6d" x="745.222656"/>
    <use xlink:href="#DejaVuSans-61" x="842.634766"/>
    <use xlink:href="#DejaVuSans-6c" x="903.914062"/>
    <use xlink:href="#DejaVuSans-20" x="931.697266"/>
    <use xlink:href="#DejaVuSans-7c" x="963.484375"/>
    <use xlink:href="#DejaVuSans-20" x="997.175781"/>
    <use xlink:href="#DejaVuSans-47" x="1028.962891"/>
    <use xlink:href="#DejaVuSans-42" x="1106.453125"/>
    <use xlink:href="#DejaVuSans-20" x="1175.056641"/>
    <use xlink:href="#DejaVuSans-7c" x="1206.84375"/>
    <use xlink:href="#DejaVuSans-20" x="1240.535156"/>
    <use xlink:href="#DejaVuSans-44" x="1272.322266"/>
    <use xlink:href="#DejaVuSans-65" x="1349.324219"/>
    <use xlink:href="#DejaVuSans-6c" x="1410.847656"/>
    <use xlink:href="#DejaVuSans-74" x="1438.630859"/>
    <use xlink:href="#DejaVuSans-61" x="1477.839844"/>
    <use xlink:href="#DejaVuSans-20" x="1539.119141"/>
    <use xlink:href="#DejaVuSans-7c" x="1570.90625"/>
    <use xlink:href="#DejaVuSans-20" x="1604.597656"/>
    <use xlink:href="#DejaVuSans-54" x="1636.384766"/>
    <use xlink:href="#DejaVuSans-4f" x="1697.46875"/>
    <use xlink:href="#DejaVuSans-54" x="1776.179688"/>
    <use xlink:href="#DejaVuSans-41" x="1829.513672"/>
    <use xlink:href="#DejaVuSans-4c" x="1897.921875"/>
   </g>
  </g>
 </g>
 <defs>
  <clipPath id="peb11bd3624">
   <rect x="65.540937" y="55.609187" width="485.214113" height="145.038938"/>
  </clipPath>
 </defs>
</svg>
