<?xml version="1.0" encoding="utf-8" standalone="no"?>
<!DOCTYPE svg PUBLIC "-//W3C//DTD SVG 1.1//EN"
  "http://www.w3.org/Graphics/SVG/1.1/DTD/svg11.dtd">
<svg xmlns:xlink="http://www.w3.org/1999/xlink" width="576pt" height="248.4pt" viewBox="0 0 576 248.4" xmlns="http://www.w3.org/2000/svg" version="1.1">
 <metadata>
  <rdf:RDF xmlns:dc="http://purl.org/dc/elements/1.1/" xmlns:cc="http://creativecommons.org/ns#" xmlns:rdf="http://www.w3.org/1999/02/22-rdf-syntax-ns#">
   <cc:Work>
    <dc:type rdf:resource="http://purl.org/dc/dcmitype/StillImage"/>
    <dc:date>2024-10-20T17:13:32.035217</dc:date>
    <dc:format>image/svg+xml</dc:format>
    <dc:creator>
     <cc:Agent>
      <dc:title>Matplotlib v3.5.2, https://matplotlib.org/</dc:title>
     </cc:Agent>
    </dc:creator>
   </cc:Work>
  </rdf:RDF>
 </metadata>
 <defs>
  <style type="text/css">*{stroke-linejoin: round; stroke-linecap: butt}</style>
 </defs>
 <g id="figure_1">
  <g id="patch_1">
   <path d="M 0 248.4 
L 576 248.4 
L 576 0 
L 0 0 
z
" style="fill: #ffffff"/>
  </g>
  <g id="axes_1">
   <g id="patch_2">
    <path d="M 65.540937 200.648125 
L 550.754968 200.648125 
L 550.754968 55.609187 
L 65.540937 55.609187 
z
" style="fill: #eaeaf2"/>
   </g>
   <g id="matplotlib.axis_1">
    <g id="xtick_1">
     <g id="line2d_1">
      <path d="M 87.155017 200.648125 
L 87.155017 55.609187 
" clip-path="url(#pb12177ee89)" style="fill: none; stroke: #ffffff; stroke-linecap: round"/>
     </g>
     <g id="text_1">
      <!-- 0 -->
      <g style="fill: #262626" transform="translate(83.973767 217.746562)scale(0.1 -0.1)">
       <defs>
        <path id="DejaVuSans-30" d="M 2034 4250 
Q 1547 4250 1301 3770 
Q 1056 3291 1056 2328 
Q 1056 1369 1301 889 
Q 1547 409 2034 409 
Q 2525 409 2770 889 
Q 3016 1369 3016 2328 
Q 3016 3291 2770 3770 
Q 2525 4250 2034 4250 
z
M 2034 4750 
Q 2819 4750 3233 4129 
Q 3647 3509 3647 2328 
Q 3647 1150 3233 529 
Q 2819 -91 2034 -91 
Q 1250 -91 836 529 
Q 422 1150 422 2328 
Q 422 3509 836 4129 
Q 1250 4750 2034 4750 
z
" transform="scale(0.015625)"/>
       </defs>
       <use xlink:href="#DejaVuSans-30"/>
      </g>
     </g>
    </g>
    <g id="xtick_2">
     <g id="line2d_2">
      <path d="M 153.320567 200.648125 
L 153.320567 55.609187 
" clip-path="url(#pb12177ee89)" style="fill: none; stroke: #ffffff; stroke-linecap: round"/>
     </g>
     <g id="text_2">
      <!-- 150 -->
      <g style="fill: #262626" transform="translate(143.776817 217.746562)scale(0.1 -0.1)">
       <defs>
        <path id="DejaVuSans-31" d="M 794 531 
L 1825 531 
L 1825 4091 
L 703 3866 
L 703 4441 
L 1819 4666 
L 2450 4666 
L 2450 531 
L 3481 531 
L 3481 0 
L 794 0 
L 794 531 
z
" transform="scale(0.015625)"/>
        <path id="DejaVuSans-35" d="M 691 4666 
L 3169 4666 
L 3169 4134 
L 1269 4134 
L 1269 2991 
Q 1406 3038 1543 3061 
Q 1681 3084 1819 3084 
Q 2600 3084 3056 2656 
Q 3513 2228 3513 1497 
Q 3513 744 3044 326 
Q 2575 -91 1722 -91 
Q 1428 -91 1123 -41 
Q 819 9 494 109 
L 494 744 
Q 775 591 1075 516 
Q 1375 441 1709 441 
Q 2250 441 2565 725 
Q 2881 1009 2881 1497 
Q 2881 1984 2565 2268 
Q 2250 2553 1709 2553 
Q 1456 2553 1204 2497 
Q 953 2441 691 2322 
L 691 4666 
z
" transform="scale(0.015625)"/>
       </defs>
       <use xlink:href="#DejaVuSans-31"/>
       <use xlink:href="#DejaVuSans-35" x="63.623047"/>
       <use xlink:href="#DejaVuSans-30" x="127.246094"/>
      </g>
     </g>
    </g>
    <g id="xtick_3">
     <g id="line2d_3">
      <path d="M 219.486116 200.648125 
L 219.486116 55.609187 
" clip-path="url(#pb12177ee89)" style="fill: none; stroke: #ffffff; stroke-linecap: round"/>
     </g>
     <g id="text_3">
      <!-- 300 -->
      <g style="fill: #262626" transform="translate(209.942366 217.746562)scale(0.1 -0.1)">
       <defs>
        <path id="DejaVuSans-33" d="M 2597 2516 
Q 3050 2419 3304 2112 
Q 3559 1806 3559 1356 
Q 3559 666 3084 287 
Q 2609 -91 1734 -91 
Q 1441 -91 1130 -33 
Q 819 25 488 141 
L 488 750 
Q 750 597 1062 519 
Q 1375 441 1716 441 
Q 2309 441 2620 675 
Q 2931 909 2931 1356 
Q 2931 1769 2642 2001 
Q 2353 2234 1838 2234 
L 1294 2234 
L 1294 2753 
L 1863 2753 
Q 2328 2753 2575 2939 
Q 2822 3125 2822 3475 
Q 2822 3834 2567 4026 
Q 2313 4219 1838 4219 
Q 1578 4219 1281 4162 
Q 984 4106 628 3988 
L 628 4550 
Q 988 4650 1302 4700 
Q 1616 4750 1894 4750 
Q 2613 4750 3031 4423 
Q 3450 4097 3450 3541 
Q 3450 3153 3228 2886 
Q 3006 2619 2597 2516 
z
" transform="scale(0.015625)"/>
       </defs>
       <use xlink:href="#DejaVuSans-33"/>
       <use xlink:href="#DejaVuSans-30" x="63.623047"/>
       <use xlink:href="#DejaVuSans-30" x="127.246094"/>
      </g>
     </g>
    </g>
    <g id="xtick_4">
     <g id="line2d_4">
      <path d="M 285.651666 200.648125 
L 285.651666 55.609187 
" clip-path="url(#pb12177ee89)" style="fill: none; stroke: #ffffff; stroke-linecap: round"/>
     </g>
     <g id="text_4">
      <!-- 450 -->
      <g style="fill: #262626" transform="translate(276.107916 217.746562)scale(0.1 -0.1)">
       <defs>
        <path id="DejaVuSans-34" d="M 2419 4116 
L 825 1625 
L 2419 1625 
L 2419 4116 
z
M 2253 4666 
L 3047 4666 
L 3047 1625 
L 3713 1625 
L 3713 1100 
L 3047 1100 
L 3047 0 
L 2419 0 
L 2419 1100 
L 313 1100 
L 313 1709 
L 2253 4666 
z
" transform="scale(0.015625)"/>
       </defs>
       <use xlink:href="#DejaVuSans-34"/>
       <use xlink:href="#DejaVuSans-35" x="63.623047"/>
       <use xlink:href="#DejaVuSans-30" x="127.246094"/>
      </g>
     </g>
    </g>
    <g id="xtick_5">
     <g id="line2d_5">
      <path d="M 351.817216 200.648125 
L 351.817216 55.609187 
" clip-path="url(#pb12177ee89)" style="fill: none; stroke: #ffffff; stroke-linecap: round"/>
     </g>
     <g id="text_5">
      <!-- 600 -->
      <g style="fill: #262626" transform="translate(342.273466 217.746562)scale(0.1 -0.1)">
       <defs>
        <path id="DejaVuSans-36" d="M 2113 2584 
Q 1688 2584 1439 2293 
Q 1191 2003 1191 1497 
Q 1191 994 1439 701 
Q 1688 409 2113 409 
Q 2538 409 2786 701 
Q 3034 994 3034 1497 
Q 3034 2003 2786 2293 
Q 2538 2584 2113 2584 
z
M 3366 4563 
L 3366 3988 
Q 3128 4100 2886 4159 
Q 2644 4219 2406 4219 
Q 1781 4219 1451 3797 
Q 1122 3375 1075 2522 
Q 1259 2794 1537 2939 
Q 1816 3084 2150 3084 
Q 2853 3084 3261 2657 
Q 3669 2231 3669 1497 
Q 3669 778 3244 343 
Q 2819 -91 2113 -91 
Q 1303 -91 875 529 
Q 447 1150 447 2328 
Q 447 3434 972 4092 
Q 1497 4750 2381 4750 
Q 2619 4750 2861 4703 
Q 3103 4656 3366 4563 
z
" transform="scale(0.015625)"/>
       </defs>
       <use xlink:href="#DejaVuSans-36"/>
       <use xlink:href="#DejaVuSans-30" x="63.623047"/>
       <use xlink:href="#DejaVuSans-30" x="127.246094"/>
      </g>
     </g>
    </g>
    <g id="xtick_6">
     <g id="line2d_6">
      <path d="M 417.982765 200.648125 
L 417.982765 55.609187 
" clip-path="url(#pb12177ee89)" style="fill: none; stroke: #ffffff; stroke-linecap: round"/>
     </g>
     <g id="text_6">
      <!-- 750 -->
      <g style="fill: #262626" transform="translate(408.439015 217.746562)scale(0.1 -0.1)">
       <defs>
        <path id="DejaVuSans-37" d="M 525 4666 
L 3525 4666 
L 3525 4397 
L 1831 0 
L 1172 0 
L 2766 4134 
L 525 4134 
L 525 4666 
z
" transform="scale(0.015625)"/>
       </defs>
       <use xlink:href="#DejaVuSans-37"/>
       <use xlink:href="#DejaVuSans-35" x="63.623047"/>
       <use xlink:href="#DejaVuSans-30" x="127.246094"/>
      </g>
     </g>
    </g>
    <g id="xtick_7">
     <g id="line2d_7">
      <path d="M 484.148315 200.648125 
L 484.148315 55.609187 
" clip-path="url(#pb12177ee89)" style="fill: none; stroke: #ffffff; stroke-linecap: round"/>
     </g>
     <g id="text_7">
      <!-- 900 -->
      <g style="fill: #262626" transform="translate(474.604565 217.746562)scale(0.1 -0.1)">
       <defs>
        <path id="DejaVuSans-39" d="M 703 97 
L 703 672 
Q 941 559 1184 500 
Q 1428 441 1663 441 
Q 2288 441 2617 861 
Q 2947 1281 2994 2138 
Q 2813 1869 2534 1725 
Q 2256 1581 1919 1581 
Q 1219 1581 811 2004 
Q 403 2428 403 3163 
Q 403 3881 828 4315 
Q 1253 4750 1959 4750 
Q 2769 4750 3195 4129 
Q 3622 3509 3622 2328 
Q 3622 1225 3098 567 
Q 2575 -91 1691 -91 
Q 1453 -91 1209 -44 
Q 966 3 703 97 
z
M 1959 2075 
Q 2384 2075 2632 2365 
Q 2881 2656 2881 3163 
Q 2881 3666 2632 3958 
Q 2384 4250 1959 4250 
Q 1534 4250 1286 3958 
Q 1038 3666 1038 3163 
Q 1038 2656 1286 2365 
Q 1534 2075 1959 2075 
z
" transform="scale(0.015625)"/>
       </defs>
       <use xlink:href="#DejaVuSans-39"/>
       <use xlink:href="#DejaVuSans-30" x="63.623047"/>
       <use xlink:href="#DejaVuSans-30" x="127.246094"/>
      </g>
     </g>
    </g>
    <g id="xtick_8">
     <g id="line2d_8">
      <path d="M 550.313864 200.648125 
L 550.313864 55.609187 
" clip-path="url(#pb12177ee89)" style="fill: none; stroke: #ffffff; stroke-linecap: round"/>
     </g>
     <g id="text_8">
      <!-- 1050 -->
      <g style="fill: #262626" transform="translate(537.588864 217.746562)scale(0.1 -0.1)">
       <use xlink:href="#DejaVuSans-31"/>
       <use xlink:href="#DejaVuSans-30" x="63.623047"/>
       <use xlink:href="#DejaVuSans-35" x="127.246094"/>
       <use xlink:href="#DejaVuSans-30" x="190.869141"/>
      </g>
     </g>
    </g>
    <g id="text_9">
     <!-- Frames -->
     <g style="fill: #262626" transform="translate(286.326703 232.944375)scale(0.12 -0.12)">
      <defs>
       <path id="DejaVuSans-46" d="M 628 4666 
L 3309 4666 
L 3309 4134 
L 1259 4134 
L 1259 2759 
L 3109 2759 
L 3109 2228 
L 1259 2228 
L 1259 0 
L 628 0 
L 628 4666 
z
" transform="scale(0.015625)"/>
       <path id="DejaVuSans-72" d="M 2631 2963 
Q 2534 3019 2420 3045 
Q 2306 3072 2169 3072 
Q 1681 3072 1420 2755 
Q 1159 2438 1159 1844 
L 1159 0 
L 581 0 
L 581 3500 
L 1159 3500 
L 1159 2956 
Q 1341 3275 1631 3429 
Q 1922 3584 2338 3584 
Q 2397 3584 2469 3576 
Q 2541 3569 2628 3553 
L 2631 2963 
z
" transform="scale(0.015625)"/>
       <path id="DejaVuSans-61" d="M 2194 1759 
Q 1497 1759 1228 1600 
Q 959 1441 959 1056 
Q 959 750 1161 570 
Q 1363 391 1709 391 
Q 2188 391 2477 730 
Q 2766 1069 2766 1631 
L 2766 1759 
L 2194 1759 
z
M 3341 1997 
L 3341 0 
L 2766 0 
L 2766 531 
Q 2569 213 2275 61 
Q 1981 -91 1556 -91 
Q 1019 -91 701 211 
Q 384 513 384 1019 
Q 384 1609 779 1909 
Q 1175 2209 1959 2209 
L 2766 2209 
L 2766 2266 
Q 2766 2663 2505 2880 
Q 2244 3097 1772 3097 
Q 1472 3097 1187 3025 
Q 903 2953 641 2809 
L 641 3341 
Q 956 3463 1253 3523 
Q 1550 3584 1831 3584 
Q 2591 3584 2966 3190 
Q 3341 2797 3341 1997 
z
" transform="scale(0.015625)"/>
       <path id="DejaVuSans-6d" d="M 3328 2828 
Q 3544 3216 3844 3400 
Q 4144 3584 4550 3584 
Q 5097 3584 5394 3201 
Q 5691 2819 5691 2113 
L 5691 0 
L 5113 0 
L 5113 2094 
Q 5113 2597 4934 2840 
Q 4756 3084 4391 3084 
Q 3944 3084 3684 2787 
Q 3425 2491 3425 1978 
L 3425 0 
L 2847 0 
L 2847 2094 
Q 2847 2600 2669 2842 
Q 2491 3084 2119 3084 
Q 1678 3084 1418 2786 
Q 1159 2488 1159 1978 
L 1159 0 
L 581 0 
L 581 3500 
L 1159 3500 
L 1159 2956 
Q 1356 3278 1631 3431 
Q 1906 3584 2284 3584 
Q 2666 3584 2933 3390 
Q 3200 3197 3328 2828 
z
" transform="scale(0.015625)"/>
       <path id="DejaVuSans-65" d="M 3597 1894 
L 3597 1613 
L 953 1613 
Q 991 1019 1311 708 
Q 1631 397 2203 397 
Q 2534 397 2845 478 
Q 3156 559 3463 722 
L 3463 178 
Q 3153 47 2828 -22 
Q 2503 -91 2169 -91 
Q 1331 -91 842 396 
Q 353 884 353 1716 
Q 353 2575 817 3079 
Q 1281 3584 2069 3584 
Q 2775 3584 3186 3129 
Q 3597 2675 3597 1894 
z
M 3022 2063 
Q 3016 2534 2758 2815 
Q 2500 3097 2075 3097 
Q 1594 3097 1305 2825 
Q 1016 2553 972 2059 
L 3022 2063 
z
" transform="scale(0.015625)"/>
       <path id="DejaVuSans-73" d="M 2834 3397 
L 2834 2853 
Q 2591 2978 2328 3040 
Q 2066 3103 1784 3103 
Q 1356 3103 1142 2972 
Q 928 2841 928 2578 
Q 928 2378 1081 2264 
Q 1234 2150 1697 2047 
L 1894 2003 
Q 2506 1872 2764 1633 
Q 3022 1394 3022 966 
Q 3022 478 2636 193 
Q 2250 -91 1575 -91 
Q 1294 -91 989 -36 
Q 684 19 347 128 
L 347 722 
Q 666 556 975 473 
Q 1284 391 1588 391 
Q 1994 391 2212 530 
Q 2431 669 2431 922 
Q 2431 1156 2273 1281 
Q 2116 1406 1581 1522 
L 1381 1569 
Q 847 1681 609 1914 
Q 372 2147 372 2553 
Q 372 3047 722 3315 
Q 1072 3584 1716 3584 
Q 2034 3584 2315 3537 
Q 2597 3491 2834 3397 
z
" transform="scale(0.015625)"/>
      </defs>
      <use xlink:href="#DejaVuSans-46"/>
      <use xlink:href="#DejaVuSans-72" x="50.269531"/>
      <use xlink:href="#DejaVuSans-61" x="91.382812"/>
      <use xlink:href="#DejaVuSans-6d" x="152.662109"/>
      <use xlink:href="#DejaVuSans-65" x="250.074219"/>
      <use xlink:href="#DejaVuSans-73" x="311.597656"/>
     </g>
    </g>
   </g>
   <g id="matplotlib.axis_2">
    <g id="ytick_1">
     <g id="line2d_9">
      <path d="M 65.540937 199.741705 
L 550.754968 199.741705 
" clip-path="url(#pb12177ee89)" style="fill: none; stroke: #ffffff; stroke-linecap: round"/>
     </g>
     <g id="text_10">
      <!-- −112 -->
      <g style="fill: #262626" transform="translate(28.57375 203.540923)scale(0.1 -0.1)">
       <defs>
        <path id="DejaVuSans-2212" d="M 678 2272 
L 4684 2272 
L 4684 1741 
L 678 1741 
L 678 2272 
z
" transform="scale(0.015625)"/>
        <path id="DejaVuSans-32" d="M 1228 531 
L 3431 531 
L 3431 0 
L 469 0 
L 469 531 
Q 828 903 1448 1529 
Q 2069 2156 2228 2338 
Q 2531 2678 2651 2914 
Q 2772 3150 2772 3378 
Q 2772 3750 2511 3984 
Q 2250 4219 1831 4219 
Q 1534 4219 1204 4116 
Q 875 4013 500 3803 
L 500 4441 
Q 881 4594 1212 4672 
Q 1544 4750 1819 4750 
Q 2544 4750 2975 4387 
Q 3406 4025 3406 3419 
Q 3406 3131 3298 2873 
Q 3191 2616 2906 2266 
Q 2828 2175 2409 1742 
Q 1991 1309 1228 531 
z
" transform="scale(0.015625)"/>
       </defs>
       <use xlink:href="#DejaVuSans-2212"/>
       <use xlink:href="#DejaVuSans-31" x="83.789062"/>
       <use xlink:href="#DejaVuSans-31" x="147.412109"/>
       <use xlink:href="#DejaVuSans-32" x="211.035156"/>
      </g>
     </g>
    </g>
    <g id="ytick_2">
     <g id="line2d_10">
      <path d="M 65.540937 183.54855 
L 550.754968 183.54855 
" clip-path="url(#pb12177ee89)" style="fill: none; stroke: #ffffff; stroke-linecap: round"/>
     </g>
     <g id="text_11">
      <!-- −104 -->
      <g style="fill: #262626" transform="translate(28.57375 187.347769)scale(0.1 -0.1)">
       <use xlink:href="#DejaVuSans-2212"/>
       <use xlink:href="#DejaVuSans-31" x="83.789062"/>
       <use xlink:href="#DejaVuSans-30" x="147.412109"/>
       <use xlink:href="#DejaVuSans-34" x="211.035156"/>
      </g>
     </g>
    </g>
    <g id="ytick_3">
     <g id="line2d_11">
      <path d="M 65.540937 167.355395 
L 550.754968 167.355395 
" clip-path="url(#pb12177ee89)" style="fill: none; stroke: #ffffff; stroke-linecap: round"/>
     </g>
     <g id="text_12">
      <!-- −96 -->
      <g style="fill: #262626" transform="translate(34.93625 171.154614)scale(0.1 -0.1)">
       <use xlink:href="#DejaVuSans-2212"/>
       <use xlink:href="#DejaVuSans-39" x="83.789062"/>
       <use xlink:href="#DejaVuSans-36" x="147.412109"/>
      </g>
     </g>
    </g>
    <g id="ytick_4">
     <g id="line2d_12">
      <path d="M 65.540937 151.16224 
L 550.754968 151.16224 
" clip-path="url(#pb12177ee89)" style="fill: none; stroke: #ffffff; stroke-linecap: round"/>
     </g>
     <g id="text_13">
      <!-- −88 -->
      <g style="fill: #262626" transform="translate(34.93625 154.961459)scale(0.1 -0.1)">
       <defs>
        <path id="DejaVuSans-38" d="M 2034 2216 
Q 1584 2216 1326 1975 
Q 1069 1734 1069 1313 
Q 1069 891 1326 650 
Q 1584 409 2034 409 
Q 2484 409 2743 651 
Q 3003 894 3003 1313 
Q 3003 1734 2745 1975 
Q 2488 2216 2034 2216 
z
M 1403 2484 
Q 997 2584 770 2862 
Q 544 3141 544 3541 
Q 544 4100 942 4425 
Q 1341 4750 2034 4750 
Q 2731 4750 3128 4425 
Q 3525 4100 3525 3541 
Q 3525 3141 3298 2862 
Q 3072 2584 2669 2484 
Q 3125 2378 3379 2068 
Q 3634 1759 3634 1313 
Q 3634 634 3220 271 
Q 2806 -91 2034 -91 
Q 1263 -91 848 271 
Q 434 634 434 1313 
Q 434 1759 690 2068 
Q 947 2378 1403 2484 
z
M 1172 3481 
Q 1172 3119 1398 2916 
Q 1625 2713 2034 2713 
Q 2441 2713 2670 2916 
Q 2900 3119 2900 3481 
Q 2900 3844 2670 4047 
Q 2441 4250 2034 4250 
Q 1625 4250 1398 4047 
Q 1172 3844 1172 3481 
z
" transform="scale(0.015625)"/>
       </defs>
       <use xlink:href="#DejaVuSans-2212"/>
       <use xlink:href="#DejaVuSans-38" x="83.789062"/>
       <use xlink:href="#DejaVuSans-38" x="147.412109"/>
      </g>
     </g>
    </g>
    <g id="ytick_5">
     <g id="line2d_13">
      <path d="M 65.540937 134.969085 
L 550.754968 134.969085 
" clip-path="url(#pb12177ee89)" style="fill: none; stroke: #ffffff; stroke-linecap: round"/>
     </g>
     <g id="text_14">
      <!-- −80 -->
      <g style="fill: #262626" transform="translate(34.93625 138.768304)scale(0.1 -0.1)">
       <use xlink:href="#DejaVuSans-2212"/>
       <use xlink:href="#DejaVuSans-38" x="83.789062"/>
       <use xlink:href="#DejaVuSans-30" x="147.412109"/>
      </g>
     </g>
    </g>
    <g id="ytick_6">
     <g id="line2d_14">
      <path d="M 65.540937 118.77593 
L 550.754968 118.77593 
" clip-path="url(#pb12177ee89)" style="fill: none; stroke: #ffffff; stroke-linecap: round"/>
     </g>
     <g id="text_15">
      <!-- −72 -->
      <g style="fill: #262626" transform="translate(34.93625 122.575149)scale(0.1 -0.1)">
       <use xlink:href="#DejaVuSans-2212"/>
       <use xlink:href="#DejaVuSans-37" x="83.789062"/>
       <use xlink:href="#DejaVuSans-32" x="147.412109"/>
      </g>
     </g>
    </g>
    <g id="ytick_7">
     <g id="line2d_15">
      <path d="M 65.540937 102.582776 
L 550.754968 102.582776 
" clip-path="url(#pb12177ee89)" style="fill: none; stroke: #ffffff; stroke-linecap: round"/>
     </g>
     <g id="text_16">
      <!-- −64 -->
      <g style="fill: #262626" transform="translate(34.93625 106.381994)scale(0.1 -0.1)">
       <use xlink:href="#DejaVuSans-2212"/>
       <use xlink:href="#DejaVuSans-36" x="83.789062"/>
       <use xlink:href="#DejaVuSans-34" x="147.412109"/>
      </g>
     </g>
    </g>
    <g id="ytick_8">
     <g id="line2d_16">
      <path d="M 65.540937 86.389621 
L 550.754968 86.389621 
" clip-path="url(#pb12177ee89)" style="fill: none; stroke: #ffffff; stroke-linecap: round"/>
     </g>
     <g id="text_17">
      <!-- −56 -->
      <g style="fill: #262626" transform="translate(34.93625 90.188839)scale(0.1 -0.1)">
       <use xlink:href="#DejaVuSans-2212"/>
       <use xlink:href="#DejaVuSans-35" x="83.789062"/>
       <use xlink:href="#DejaVuSans-36" x="147.412109"/>
      </g>
     </g>
    </g>
    <g id="ytick_9">
     <g id="line2d_17">
      <path d="M 65.540937 70.196466 
L 550.754968 70.196466 
" clip-path="url(#pb12177ee89)" style="fill: none; stroke: #ffffff; stroke-linecap: round"/>
     </g>
     <g id="text_18">
      <!-- −48 -->
      <g style="fill: #262626" transform="translate(34.93625 73.995685)scale(0.1 -0.1)">
       <use xlink:href="#DejaVuSans-2212"/>
       <use xlink:href="#DejaVuSans-34" x="83.789062"/>
       <use xlink:href="#DejaVuSans-38" x="147.412109"/>
      </g>
     </g>
    </g>
    <g id="text_19">
     <!-- Energy (kcal/mol) -->
     <g style="fill: #262626" transform="translate(22.078125 181.045844)rotate(-90)scale(0.12 -0.12)">
      <defs>
       <path id="DejaVuSans-45" d="M 628 4666 
L 3578 4666 
L 3578 4134 
L 1259 4134 
L 1259 2753 
L 3481 2753 
L 3481 2222 
L 1259 2222 
L 1259 531 
L 3634 531 
L 3634 0 
L 628 0 
L 628 4666 
z
" transform="scale(0.015625)"/>
       <path id="DejaVuSans-6e" d="M 3513 2113 
L 3513 0 
L 2938 0 
L 2938 2094 
Q 2938 2591 2744 2837 
Q 2550 3084 2163 3084 
Q 1697 3084 1428 2787 
Q 1159 2491 1159 1978 
L 1159 0 
L 581 0 
L 581 3500 
L 1159 3500 
L 1159 2956 
Q 1366 3272 1645 3428 
Q 1925 3584 2291 3584 
Q 2894 3584 3203 3211 
Q 3513 2838 3513 2113 
z
" transform="scale(0.015625)"/>
       <path id="DejaVuSans-67" d="M 2906 1791 
Q 2906 2416 2648 2759 
Q 2391 3103 1925 3103 
Q 1463 3103 1205 2759 
Q 947 2416 947 1791 
Q 947 1169 1205 825 
Q 1463 481 1925 481 
Q 2391 481 2648 825 
Q 2906 1169 2906 1791 
z
M 3481 434 
Q 3481 -459 3084 -895 
Q 2688 -1331 1869 -1331 
Q 1566 -1331 1297 -1286 
Q 1028 -1241 775 -1147 
L 775 -588 
Q 1028 -725 1275 -790 
Q 1522 -856 1778 -856 
Q 2344 -856 2625 -561 
Q 2906 -266 2906 331 
L 2906 616 
Q 2728 306 2450 153 
Q 2172 0 1784 0 
Q 1141 0 747 490 
Q 353 981 353 1791 
Q 353 2603 747 3093 
Q 1141 3584 1784 3584 
Q 2172 3584 2450 3431 
Q 2728 3278 2906 2969 
L 2906 3500 
L 3481 3500 
L 3481 434 
z
" transform="scale(0.015625)"/>
       <path id="DejaVuSans-79" d="M 2059 -325 
Q 1816 -950 1584 -1140 
Q 1353 -1331 966 -1331 
L 506 -1331 
L 506 -850 
L 844 -850 
Q 1081 -850 1212 -737 
Q 1344 -625 1503 -206 
L 1606 56 
L 191 3500 
L 800 3500 
L 1894 763 
L 2988 3500 
L 3597 3500 
L 2059 -325 
z
" transform="scale(0.015625)"/>
       <path id="DejaVuSans-20" transform="scale(0.015625)"/>
       <path id="DejaVuSans-28" d="M 1984 4856 
Q 1566 4138 1362 3434 
Q 1159 2731 1159 2009 
Q 1159 1288 1364 580 
Q 1569 -128 1984 -844 
L 1484 -844 
Q 1016 -109 783 600 
Q 550 1309 550 2009 
Q 550 2706 781 3412 
Q 1013 4119 1484 4856 
L 1984 4856 
z
" transform="scale(0.015625)"/>
       <path id="DejaVuSans-6b" d="M 581 4863 
L 1159 4863 
L 1159 1991 
L 2875 3500 
L 3609 3500 
L 1753 1863 
L 3688 0 
L 2938 0 
L 1159 1709 
L 1159 0 
L 581 0 
L 581 4863 
z
" transform="scale(0.015625)"/>
       <path id="DejaVuSans-63" d="M 3122 3366 
L 3122 2828 
Q 2878 2963 2633 3030 
Q 2388 3097 2138 3097 
Q 1578 3097 1268 2742 
Q 959 2388 959 1747 
Q 959 1106 1268 751 
Q 1578 397 2138 397 
Q 2388 397 2633 464 
Q 2878 531 3122 666 
L 3122 134 
Q 2881 22 2623 -34 
Q 2366 -91 2075 -91 
Q 1284 -91 818 406 
Q 353 903 353 1747 
Q 353 2603 823 3093 
Q 1294 3584 2113 3584 
Q 2378 3584 2631 3529 
Q 2884 3475 3122 3366 
z
" transform="scale(0.015625)"/>
       <path id="DejaVuSans-6c" d="M 603 4863 
L 1178 4863 
L 1178 0 
L 603 0 
L 603 4863 
z
" transform="scale(0.015625)"/>
       <path id="DejaVuSans-2f" d="M 1625 4666 
L 2156 4666 
L 531 -594 
L 0 -594 
L 1625 4666 
z
" transform="scale(0.015625)"/>
       <path id="DejaVuSans-6f" d="M 1959 3097 
Q 1497 3097 1228 2736 
Q 959 2375 959 1747 
Q 959 1119 1226 758 
Q 1494 397 1959 397 
Q 2419 397 2687 759 
Q 2956 1122 2956 1747 
Q 2956 2369 2687 2733 
Q 2419 3097 1959 3097 
z
M 1959 3584 
Q 2709 3584 3137 3096 
Q 3566 2609 3566 1747 
Q 3566 888 3137 398 
Q 2709 -91 1959 -91 
Q 1206 -91 779 398 
Q 353 888 353 1747 
Q 353 2609 779 3096 
Q 1206 3584 1959 3584 
z
" transform="scale(0.015625)"/>
       <path id="DejaVuSans-29" d="M 513 4856 
L 1013 4856 
Q 1481 4119 1714 3412 
Q 1947 2706 1947 2009 
Q 1947 1309 1714 600 
Q 1481 -109 1013 -844 
L 513 -844 
Q 928 -128 1133 580 
Q 1338 1288 1338 2009 
Q 1338 2731 1133 3434 
Q 928 4138 513 4856 
z
" transform="scale(0.015625)"/>
      </defs>
      <use xlink:href="#DejaVuSans-45"/>
      <use xlink:href="#DejaVuSans-6e" x="63.183594"/>
      <use xlink:href="#DejaVuSans-65" x="126.5625"/>
      <use xlink:href="#DejaVuSans-72" x="188.085938"/>
      <use xlink:href="#DejaVuSans-67" x="227.449219"/>
      <use xlink:href="#DejaVuSans-79" x="290.925781"/>
      <use xlink:href="#DejaVuSans-20" x="350.105469"/>
      <use xlink:href="#DejaVuSans-28" x="381.892578"/>
      <use xlink:href="#DejaVuSans-6b" x="420.90625"/>
      <use xlink:href="#DejaVuSans-63" x="478.816406"/>
      <use xlink:href="#DejaVuSans-61" x="533.796875"/>
      <use xlink:href="#DejaVuSans-6c" x="595.076172"/>
      <use xlink:href="#DejaVuSans-2f" x="622.859375"/>
      <use xlink:href="#DejaVuSans-6d" x="656.550781"/>
      <use xlink:href="#DejaVuSans-6f" x="753.962891"/>
      <use xlink:href="#DejaVuSans-6c" x="815.144531"/>
      <use xlink:href="#DejaVuSans-29" x="842.927734"/>
     </g>
    </g>
   </g>
   <g id="line2d_18">
    <path d="M 87.596121 113.468171 
L 88.037224 147.610267 
L 88.478328 104.524124 
L 88.919432 113.025796 
L 89.360535 136.271687 
L 89.801639 116.441969 
L 90.242743 146.430293 
L 91.12495 124.394861 
L 91.566054 123.070741 
L 92.007157 130.426374 
L 92.448261 131.579354 
L 92.889365 138.642069 
L 93.330468 142.987477 
L 93.771572 120.221255 
L 94.212676 130.104495 
L 94.653779 118.12868 
L 95.094883 114.850483 
L 95.535987 130.32649 
L 95.97709 87.98265 
L 96.418194 122.776916 
L 96.859298 136.830863 
L 97.300401 137.008079 
L 97.741505 147.134489 
L 98.182609 147.76501 
L 98.623712 128.382633 
L 99.064816 128.935456 
L 99.50592 141.107021 
L 99.947023 133.523247 
L 100.388127 131.274742 
L 100.829231 133.690004 
L 101.270334 123.735369 
L 101.711438 138.557292 
L 102.152542 139.75717 
L 102.593645 129.313911 
L 103.034749 137.35892 
L 103.475853 142.872002 
L 103.916956 136.228351 
L 104.35806 121.852777 
L 104.799164 135.35828 
L 105.240267 116.463865 
L 105.681371 123.053433 
L 106.122475 132.013524 
L 106.563578 125.013697 
L 107.004682 150.696506 
L 107.445786 113.669482 
L 107.886889 115.560239 
L 108.327993 132.57433 
L 109.2102 96.048609 
L 109.651304 167.394147 
L 110.092408 111.585566 
L 110.533511 119.404181 
L 111.415719 129.729194 
L 111.856822 145.492291 
L 112.297926 132.080196 
L 112.73903 125.161667 
L 113.180133 127.058452 
L 113.621237 110.732342 
L 114.062341 129.308601 
L 114.503444 118.174454 
L 114.944548 152.957442 
L 115.385652 133.651986 
L 115.826755 126.930836 
L 116.708963 178.094669 
L 117.59117 148.550454 
L 118.032274 173.153991 
L 118.473377 166.81141 
L 118.914481 149.08325 
L 119.355585 175.383197 
L 119.796688 156.581801 
L 120.237792 166.644268 
L 120.678896 143.736556 
L 121.119999 151.459901 
L 121.561103 142.51886 
L 122.002207 144.874696 
L 122.44331 149.362714 
L 122.884414 171.001277 
L 123.325518 161.229546 
L 123.766621 144.915067 
L 124.207725 151.772057 
L 124.648829 164.147868 
L 125.089932 149.494219 
L 125.531036 141.898276 
L 126.413243 154.633949 
L 126.854347 144.187939 
L 127.29545 115.770508 
L 127.736554 149.733377 
L 128.177658 123.989529 
L 129.059865 114.766755 
L 129.500969 128.173621 
L 129.942072 134.977282 
L 130.383176 146.396007 
L 130.82428 135.036731 
L 131.265383 140.487287 
L 132.147591 120.205059 
L 132.588694 137.802351 
L 133.029798 133.032162 
L 133.470902 136.54666 
L 133.912005 130.280701 
L 134.353109 120.713503 
L 134.794213 123.685964 
L 135.235316 129.503436 
L 135.67642 123.783445 
L 136.117524 127.802698 
L 136.558627 115.148154 
L 136.999731 140.308488 
L 137.440835 109.164028 
L 137.881938 102.828144 
L 138.323042 118.241441 
L 138.764146 113.43284 
L 139.205249 128.161211 
L 139.646353 112.423942 
L 140.087457 102.345188 
L 140.52856 101.958724 
L 140.969664 81.838674 
L 141.410768 76.273146 
L 141.851871 98.41265 
L 142.292975 113.464054 
L 142.734079 95.871351 
L 143.175182 119.939537 
L 143.616286 108.127545 
L 144.05739 121.931949 
L 144.498493 88.204812 
L 144.939597 103.106145 
L 145.380701 88.897915 
L 145.821804 91.233664 
L 146.262908 85.601663 
L 146.704012 90.738239 
L 147.145115 116.450775 
L 147.586219 112.029797 
L 148.027323 132.964272 
L 148.468426 94.229326 
L 148.90953 129.418036 
L 149.350634 100.165256 
L 149.791737 101.677284 
L 150.232841 124.314326 
L 150.673945 110.090665 
L 151.115048 105.29705 
L 151.556152 130.408118 
L 151.997256 125.918376 
L 152.438359 110.314144 
L 152.879463 125.097528 
L 153.320567 127.579485 
L 153.76167 126.147056 
L 154.202774 140.406324 
L 154.643878 143.776644 
L 155.526085 135.222401 
L 155.967189 136.651292 
L 156.849396 153.633291 
L 157.2905 155.625511 
L 157.731603 146.109922 
L 158.172707 155.990375 
L 158.613811 139.327552 
L 159.054914 167.555997 
L 159.496018 153.801966 
L 159.937122 177.142575 
L 160.378225 173.21561 
L 160.819329 146.805035 
L 161.260433 181.842928 
L 162.14264 154.645726 
L 162.583744 185.058728 
L 163.024847 175.527849 
L 163.465951 137.470774 
L 163.907055 166.600786 
L 164.348158 153.029008 
L 164.789262 163.327961 
L 165.230366 139.368315 
L 165.671469 140.877409 
L 166.112573 160.300565 
L 166.553677 165.742863 
L 166.99478 131.857984 
L 167.435884 160.156835 
L 167.876988 153.013445 
L 168.318091 164.624458 
L 168.759195 149.886163 
L 169.200299 160.812672 
L 169.641402 154.679288 
L 170.082506 155.019735 
L 170.52361 154.169555 
L 170.964713 150.260672 
L 171.405817 151.695516 
L 171.846921 159.730715 
L 172.288024 162.800902 
L 172.729128 148.335741 
L 173.170232 158.19097 
L 173.611335 137.653596 
L 174.052439 130.115746 
L 174.493543 148.299643 
L 174.934646 140.310804 
L 175.37575 152.804801 
L 175.816854 146.334094 
L 176.257957 156.692585 
L 176.699061 159.3789 
L 177.140165 161.125563 
L 177.581268 149.678562 
L 178.022372 143.494427 
L 178.463476 142.00609 
L 178.904579 155.346344 
L 179.345683 148.692472 
L 179.786787 132.883553 
L 180.22789 132.616562 
L 180.668994 131.353005 
L 181.110098 142.949257 
L 181.551201 148.799414 
L 181.992305 137.822173 
L 182.433409 163.248128 
L 182.874512 138.997834 
L 183.315616 162.161724 
L 183.75672 143.329036 
L 184.197823 152.002828 
L 184.638927 153.226317 
L 185.080031 155.440132 
L 185.962238 124.015852 
L 186.403341 133.940593 
L 186.844445 151.262795 
L 187.285549 150.847045 
L 187.726652 144.06451 
L 188.167756 153.094024 
L 188.60886 165.234275 
L 189.049963 188.565188 
L 189.491067 145.632582 
L 189.932171 163.378972 
L 190.373274 148.554143 
L 190.814378 162.803598 
L 191.255482 156.396337 
L 191.696585 153.337826 
L 192.137689 154.822151 
L 192.578793 174.14325 
L 193.019896 172.065185 
L 193.461 167.996863 
L 193.902104 167.109951 
L 194.343207 154.645323 
L 194.784311 156.736274 
L 195.225415 171.899709 
L 195.666518 161.38819 
L 196.107622 148.002323 
L 196.548726 124.884306 
L 196.989829 142.539466 
L 197.430933 117.533915 
L 197.872037 107.454005 
L 198.31314 137.335545 
L 198.754244 123.714862 
L 199.195348 130.645762 
L 199.636451 145.845138 
L 200.077555 143.30516 
L 200.518659 145.457818 
L 200.959762 166.388704 
L 201.400866 152.65449 
L 201.84197 170.21076 
L 202.283073 159.988829 
L 202.724177 140.608905 
L 203.165281 142.059679 
L 203.606384 123.639627 
L 204.047488 148.170092 
L 204.488592 152.810137 
L 204.929695 161.743424 
L 205.370799 168.033404 
L 205.811903 149.324599 
L 206.253006 154.529618 
L 206.69411 162.354766 
L 207.135214 155.125946 
L 207.576317 160.390933 
L 208.017421 133.419834 
L 208.458525 127.9487 
L 208.899628 131.262841 
L 209.340732 120.698981 
L 209.781836 102.441045 
L 210.222939 115.919275 
L 210.664043 144.896558 
L 211.105147 101.022444 
L 211.54625 114.593504 
L 211.987354 138.394851 
L 212.428458 113.362625 
L 212.869561 124.188157 
L 213.310665 118.742754 
L 213.751769 117.12756 
L 214.633976 169.939954 
L 215.07508 139.867307 
L 215.516183 149.558643 
L 215.957287 141.571256 
L 216.398391 164.588289 
L 216.839494 135.331508 
L 217.280598 124.061694 
L 217.721702 131.004601 
L 218.162805 139.801999 
L 218.603909 156.625811 
L 219.045013 146.256883 
L 219.486116 151.06055 
L 220.368324 111.324994 
L 220.809427 141.547959 
L 221.691635 136.471692 
L 222.132738 119.361068 
L 222.573842 136.73598 
L 223.014946 98.829351 
L 223.456049 137.954295 
L 223.897153 137.568383 
L 224.338257 133.679119 
L 224.77936 125.38134 
L 225.220464 127.639591 
L 225.661568 155.753278 
L 226.102671 132.545896 
L 226.543775 169.115024 
L 226.984879 162.515862 
L 227.425982 169.498154 
L 227.867086 160.019817 
L 228.30819 166.886134 
L 228.749293 163.199168 
L 229.190397 152.6393 
L 229.631501 148.62916 
L 230.072604 156.43302 
L 230.513708 150.553086 
L 230.954812 154.223465 
L 231.837019 142.098416 
L 232.278123 147.567842 
L 232.719226 161.126674 
L 233.16033 146.135127 
L 233.601434 145.342741 
L 234.042537 158.044682 
L 234.483641 156.154041 
L 234.924745 165.67355 
L 235.365848 148.598831 
L 235.806952 166.542058 
L 236.248056 149.100065 
L 236.689159 151.090279 
L 237.130263 170.768551 
L 237.571367 176.639494 
L 238.01247 144.372352 
L 238.453574 132.077814 
L 238.894678 149.289125 
L 239.335781 147.252116 
L 239.776885 133.355578 
L 241.100196 194.055446 
L 241.5413 155.907286 
L 241.982403 164.919264 
L 242.423507 142.076198 
L 242.864611 161.209641 
L 243.305714 151.362493 
L 243.746818 131.08363 
L 244.187922 129.329249 
L 244.629025 155.119287 
L 245.070129 154.550285 
L 245.511233 160.97558 
L 245.952336 165.311455 
L 246.39344 153.087231 
L 246.834543 154.11757 
L 247.275647 188.689907 
L 247.716751 151.840915 
L 248.157854 149.386994 
L 248.598958 164.589586 
L 249.040062 183.798031 
L 249.481165 180.196952 
L 249.922269 162.799066 
L 250.363373 138.812247 
L 250.804476 154.381049 
L 251.24558 135.761671 
L 251.686684 157.829288 
L 252.127787 154.316932 
L 252.568891 159.241863 
L 253.009995 172.352844 
L 253.451098 158.550152 
L 254.333306 168.871236 
L 255.215513 144.399104 
L 255.656617 148.167632 
L 256.09772 141.602697 
L 256.538824 155.943646 
L 256.979928 138.679199 
L 257.421031 172.199454 
L 257.862135 166.501949 
L 258.303239 164.210642 
L 258.744342 165.969018 
L 259.185446 171.084951 
L 259.62655 167.313084 
L 260.067653 143.1198 
L 260.508757 154.278156 
L 260.949861 158.740369 
L 261.390964 169.751804 
L 261.832068 160.119349 
L 262.273172 153.785779 
L 262.714275 149.691392 
L 263.155379 150.482055 
L 263.596483 155.768085 
L 264.037586 156.912951 
L 264.47869 156.106025 
L 264.919794 162.214065 
L 265.360897 147.661257 
L 265.802001 139.813242 
L 266.243105 137.482755 
L 266.684208 152.95387 
L 267.125312 142.153404 
L 267.566416 144.352057 
L 268.007519 157.393322 
L 268.448623 139.696687 
L 268.889727 165.845003 
L 269.33083 155.203564 
L 269.771934 158.729042 
L 270.213038 131.852424 
L 270.654141 138.3739 
L 271.095245 140.119205 
L 271.536349 138.193573 
L 271.977452 128.172297 
L 272.418556 173.493857 
L 272.85966 155.925962 
L 273.300763 145.629862 
L 273.741867 169.212452 
L 274.182971 123.214482 
L 274.624074 164.983326 
L 275.065178 162.93273 
L 275.506282 132.652378 
L 275.947385 129.655376 
L 276.388489 152.284635 
L 276.829593 139.482382 
L 277.270696 147.554796 
L 277.7118 135.222332 
L 278.152904 127.239615 
L 278.594007 129.336565 
L 279.035111 148.967031 
L 279.476215 135.938908 
L 279.917318 141.861838 
L 280.358422 124.840272 
L 280.799526 147.421803 
L 281.240629 160.790517 
L 282.122837 121.044527 
L 282.56394 133.770863 
L 283.446148 119.36227 
L 283.887251 159.796215 
L 284.328355 121.998752 
L 284.769459 142.862427 
L 285.651666 162.698854 
L 286.09277 129.539279 
L 286.533873 143.37498 
L 286.974977 150.889036 
L 287.416081 162.249363 
L 287.857184 162.201284 
L 288.298288 164.24644 
L 288.739392 160.511499 
L 289.180495 169.305673 
L 289.621599 146.391615 
L 290.062703 163.569651 
L 290.503806 176.258176 
L 290.94491 175.466375 
L 291.386014 148.51999 
L 292.268221 189.663566 
L 292.709325 167.653775 
L 293.150428 126.031494 
L 293.591532 141.677913 
L 294.032636 130.264104 
L 294.914843 147.224886 
L 295.355947 150.711883 
L 295.79705 160.536772 
L 296.238154 145.867249 
L 296.679258 153.440609 
L 297.120361 166.172662 
L 297.561465 151.511039 
L 298.002569 150.058694 
L 298.443672 134.919299 
L 298.884776 143.278128 
L 299.32588 125.555551 
L 299.766983 115.296763 
L 300.208087 153.549655 
L 300.649191 138.914141 
L 301.090294 159.836555 
L 301.531398 159.864276 
L 301.972502 148.270081 
L 302.413605 149.057983 
L 302.854709 139.93278 
L 303.295813 160.192092 
L 303.736916 125.461307 
L 304.17802 150.787786 
L 304.619124 142.538564 
L 305.060227 139.08431 
L 305.501331 147.70302 
L 305.942435 168.326541 
L 306.383538 168.204449 
L 306.824642 159.961568 
L 307.265745 163.893587 
L 308.147953 145.647527 
L 308.589056 143.486615 
L 309.03016 158.790779 
L 309.471264 151.039546 
L 309.912367 167.992908 
L 310.794575 153.463537 
L 311.235678 159.531607 
L 311.676782 163.1486 
L 312.558989 138.257275 
L 313.000093 138.482368 
L 313.441197 142.008331 
L 313.8823 182.058028 
L 314.323404 160.129689 
L 314.764508 175.277355 
L 315.205611 185.96316 
L 315.646715 153.545395 
L 316.087819 156.569107 
L 316.528922 177.187909 
L 316.970026 156.931188 
L 317.41113 157.930137 
L 317.852233 149.524047 
L 318.293337 169.606365 
L 318.734441 147.558363 
L 319.175544 150.173504 
L 319.616648 120.265061 
L 320.057752 123.774212 
L 320.498855 125.463381 
L 320.939959 116.143174 
L 321.381063 113.231138 
L 321.822166 118.984971 
L 322.26327 101.642959 
L 322.704374 100.504651 
L 323.145477 108.892163 
L 323.586581 109.646142 
L 324.027685 100.935402 
L 324.468788 112.066089 
L 324.909892 102.716411 
L 325.350996 98.553243 
L 325.792099 110.237068 
L 326.233203 129.082093 
L 326.674307 107.584943 
L 327.11541 107.322023 
L 327.556514 112.657612 
L 327.997618 113.698261 
L 328.438721 118.08862 
L 328.879825 113.160279 
L 329.320929 112.673812 
L 329.762032 105.77512 
L 330.203136 117.011497 
L 330.64424 122.840027 
L 331.085343 100.085051 
L 331.526447 122.079127 
L 331.967551 113.327282 
L 332.849758 118.705207 
L 333.731965 141.970024 
L 334.173069 108.07225 
L 334.614173 99.053771 
L 335.055276 120.841973 
L 335.49638 115.652998 
L 335.937484 135.473253 
L 336.378587 142.504121 
L 336.819691 136.83043 
L 337.260795 138.22663 
L 337.701898 123.829638 
L 338.143002 98.131281 
L 338.584106 99.663943 
L 339.025209 104.006994 
L 339.466313 135.159425 
L 339.907417 117.212397 
L 340.34852 133.092273 
L 340.789624 127.823517 
L 341.230728 127.905837 
L 341.671831 132.820364 
L 342.112935 115.920012 
L 342.554039 103.627085 
L 342.995142 104.908187 
L 343.436246 122.435983 
L 343.87735 118.433325 
L 344.318453 127.446307 
L 345.200661 116.527163 
L 345.641764 127.86342 
L 346.082868 130.036939 
L 346.523972 117.84754 
L 346.965075 132.075577 
L 347.406179 142.189817 
L 347.847283 160.544551 
L 348.288386 154.323761 
L 348.72949 145.37465 
L 349.170594 165.64987 
L 349.611697 154.448507 
L 350.052801 162.816943 
L 350.493905 137.910648 
L 350.935008 161.2416 
L 351.376112 137.587041 
L 351.817216 137.192119 
L 352.258319 145.65186 
L 352.699423 122.351295 
L 353.140527 134.258358 
L 353.58163 142.47805 
L 354.022734 120.168814 
L 354.463838 125.891342 
L 354.904941 116.443739 
L 355.787149 111.452949 
L 356.228252 127.715311 
L 356.669356 129.241746 
L 357.11046 127.427086 
L 357.551563 114.769112 
L 357.992667 126.292869 
L 358.874874 106.591054 
L 359.315978 116.298454 
L 359.757082 111.356865 
L 360.198185 95.078751 
L 360.639289 121.730763 
L 361.080393 102.599225 
L 361.521496 135.292901 
L 361.9626 106.901521 
L 362.844807 184.767933 
L 363.285911 139.211917 
L 363.727015 130.710912 
L 364.168118 152.093175 
L 364.609222 137.148221 
L 365.050326 136.554878 
L 365.491429 146.335202 
L 365.932533 176.211106 
L 366.373637 162.579894 
L 366.81474 165.188432 
L 367.696947 178.748873 
L 368.138051 162.900248 
L 368.579155 172.120011 
L 369.020258 171.677484 
L 369.461362 154.740688 
L 369.902466 142.102358 
L 370.343569 161.726243 
L 370.784673 169.73119 
L 371.225777 171.178942 
L 371.66688 168.236933 
L 372.107984 184.517694 
L 372.549088 164.108332 
L 372.990191 170.203538 
L 373.431295 179.228478 
L 373.872399 146.915257 
L 374.313502 167.16285 
L 374.754606 155.433837 
L 375.19571 173.63643 
L 376.077917 151.576866 
L 376.519021 165.349074 
L 376.960124 170.972269 
L 377.401228 170.185235 
L 377.842332 156.156131 
L 378.283435 171.630526 
L 378.724539 157.312985 
L 379.165643 162.962199 
L 379.606746 160.108502 
L 380.04785 160.125763 
L 380.488954 168.896185 
L 380.930057 145.822748 
L 381.371161 186.498523 
L 381.812265 167.298738 
L 382.253368 180.351985 
L 382.694472 184.319373 
L 383.135576 180.948114 
L 383.576679 169.815184 
L 384.458887 193.063643 
L 384.89999 181.83164 
L 385.341094 167.151543 
L 385.782198 174.997426 
L 386.223301 166.48259 
L 386.664405 160.775269 
L 387.105509 166.170168 
L 387.546612 169.539593 
L 387.987716 179.670215 
L 388.42882 160.403076 
L 388.869923 188.96016 
L 389.311027 181.184009 
L 389.752131 169.546343 
L 390.193234 174.361555 
L 391.075442 157.197301 
L 391.957649 171.657144 
L 392.398753 166.159152 
L 392.839856 148.35772 
L 393.28096 157.87076 
L 393.722064 159.397625 
L 394.163167 150.772021 
L 394.604271 157.350598 
L 395.045375 152.329908 
L 395.486478 145.534249 
L 395.927582 162.175763 
L 396.368686 173.169743 
L 396.809789 134.865831 
L 397.250893 144.936136 
L 397.691997 137.452072 
L 398.1331 143.675455 
L 398.574204 144.975817 
L 399.015308 169.980493 
L 399.456411 149.742604 
L 399.897515 141.28649 
L 400.338619 135.214329 
L 400.779722 123.883336 
L 401.220826 132.908497 
L 401.66193 128.223276 
L 402.103033 120.983652 
L 402.985241 114.832008 
L 403.426344 136.850158 
L 403.867448 123.284032 
L 404.308552 119.089255 
L 404.749655 109.305626 
L 405.190759 108.389759 
L 405.631863 118.235115 
L 406.072966 108.814506 
L 406.51407 117.670265 
L 406.955174 118.041132 
L 407.396277 115.51836 
L 407.837381 126.975721 
L 408.278485 144.464392 
L 408.719588 114.489746 
L 409.160692 127.020887 
L 409.601796 102.518278 
L 410.042899 107.367048 
L 410.484003 102.731625 
L 410.925107 116.07208 
L 411.807314 106.488673 
L 412.248418 106.354765 
L 412.689521 123.547899 
L 413.130625 116.334145 
L 413.571729 115.77628 
L 414.012832 148.089923 
L 414.453936 150.723734 
L 414.89504 148.402172 
L 415.336143 137.643924 
L 415.777247 118.347549 
L 416.218351 108.534421 
L 416.659454 119.070981 
L 417.100558 146.015335 
L 417.541662 123.30233 
L 417.982765 142.800079 
L 418.423869 124.764446 
L 418.864973 111.811153 
L 419.306076 144.653267 
L 419.74718 119.484936 
L 420.188284 132.225367 
L 420.629387 134.491376 
L 421.070491 122.626033 
L 421.511595 127.651973 
L 421.952698 129.262086 
L 422.834906 146.257104 
L 423.276009 122.201677 
L 423.717113 146.220029 
L 424.158217 146.439136 
L 424.59932 142.359886 
L 425.040424 142.462005 
L 425.481528 144.976897 
L 425.922631 137.849247 
L 426.363735 136.937195 
L 426.804839 122.426196 
L 427.245942 119.3323 
L 427.687046 107.272634 
L 428.128149 131.804978 
L 428.569253 113.964534 
L 429.010357 131.263745 
L 429.45146 130.49651 
L 429.892564 140.875768 
L 430.774771 113.209116 
L 431.215875 129.465149 
L 431.656979 121.43496 
L 432.098082 121.223646 
L 432.539186 108.592023 
L 432.98029 111.287696 
L 433.421393 112.145983 
L 433.862497 124.571755 
L 434.303601 113.644104 
L 434.744704 124.269708 
L 435.185808 114.357165 
L 435.626912 111.324956 
L 436.068015 121.776639 
L 436.950223 109.677199 
L 437.391326 108.620337 
L 437.83243 117.074496 
L 438.273534 118.463019 
L 438.714637 107.530016 
L 439.155741 117.839419 
L 439.596845 116.957679 
L 440.037948 114.181618 
L 440.479052 121.407419 
L 440.920156 114.590706 
L 441.361259 93.473499 
L 441.802363 133.864936 
L 442.243467 118.881034 
L 442.68457 122.20291 
L 443.125674 123.557963 
L 443.566778 134.300381 
L 444.007881 128.870497 
L 444.448985 110.410712 
L 444.890089 128.953124 
L 445.331192 114.39666 
L 445.772296 131.892235 
L 446.2134 125.221906 
L 446.654503 110.361036 
L 447.095607 123.043385 
L 447.536711 124.364638 
L 447.977814 102.955511 
L 448.418918 114.205678 
L 448.860022 99.564006 
L 449.301125 104.397406 
L 449.742229 127.137379 
L 450.183333 103.315433 
L 450.624436 102.384442 
L 451.06554 99.933532 
L 451.506644 111.391738 
L 451.947747 108.17954 
L 452.388851 125.116351 
L 452.829955 124.852352 
L 453.271058 136.64178 
L 453.712162 116.666121 
L 454.153266 122.137466 
L 454.594369 122.080058 
L 455.476577 99.942888 
L 455.91768 109.701419 
L 456.358784 122.072638 
L 456.799888 100.469713 
L 457.240991 112.961582 
L 457.682095 103.538975 
L 458.123199 107.347378 
L 458.564302 125.664769 
L 459.005406 128.902927 
L 459.44651 117.605099 
L 459.887613 113.124477 
L 460.328717 112.199311 
L 460.769821 102.067875 
L 461.210924 143.054562 
L 462.093132 100.131516 
L 462.534235 125.500496 
L 462.975339 116.351642 
L 463.416443 120.34676 
L 463.857546 126.533462 
L 464.29865 126.357012 
L 464.739754 111.599168 
L 465.180857 118.498799 
L 465.621961 120.127933 
L 466.063065 117.457118 
L 466.504168 120.188519 
L 466.945272 99.652624 
L 467.386376 131.973852 
L 467.827479 114.435807 
L 468.268583 129.057351 
L 468.709687 128.347667 
L 469.15079 110.128402 
L 469.591894 115.2341 
L 470.032998 123.53222 
L 470.474101 126.816342 
L 470.915205 123.614346 
L 471.356309 124.738496 
L 471.797412 125.469123 
L 472.238516 125.048534 
L 472.67962 128.29622 
L 473.120723 99.522669 
L 473.561827 123.812677 
L 474.002931 120.893749 
L 474.444034 114.778998 
L 474.885138 118.110547 
L 475.326242 133.156611 
L 476.208449 110.753871 
L 476.649553 119.483806 
L 477.090656 115.972481 
L 477.53176 134.530327 
L 477.972864 118.113532 
L 478.855071 123.883671 
L 479.296175 103.263426 
L 479.737278 109.79778 
L 480.178382 130.420185 
L 480.619486 124.766115 
L 481.060589 132.344664 
L 481.501693 133.043473 
L 481.942797 127.715047 
L 482.3839 109.823448 
L 482.825004 112.585945 
L 483.266108 111.879815 
L 483.707211 123.307507 
L 484.148315 120.084496 
L 484.589419 113.609679 
L 485.471626 125.810898 
L 485.91273 125.461153 
L 486.353833 128.595244 
L 486.794937 128.770867 
L 487.236041 111.315942 
L 487.677144 139.016258 
L 488.118248 120.868507 
L 488.559351 129.77374 
L 489.000455 115.620617 
L 489.441559 115.02243 
L 489.882662 106.099498 
L 490.323766 111.498095 
L 490.76487 122.368965 
L 491.205973 109.365857 
L 491.647077 125.447219 
L 492.088181 103.040702 
L 492.529284 91.507148 
L 492.970388 110.72477 
L 493.411492 107.632575 
L 493.852595 96.45908 
L 494.293699 113.580093 
L 494.734803 100.924176 
L 495.175906 129.458252 
L 495.61701 130.63155 
L 496.058114 104.477352 
L 496.499217 105.837506 
L 496.940321 110.445794 
L 497.381425 92.911062 
L 497.822528 108.539013 
L 498.263632 85.644287 
L 498.704736 107.93808 
L 499.145839 110.476832 
L 499.586943 111.346906 
L 500.028047 118.848879 
L 500.46915 97.098614 
L 500.910254 104.552775 
L 501.351358 94.393687 
L 501.792461 88.910803 
L 502.233565 107.492704 
L 502.674669 115.165464 
L 503.115772 109.529801 
L 503.556876 124.175815 
L 503.99798 134.439768 
L 504.439083 127.69232 
L 504.880187 114.608107 
L 505.321291 133.394484 
L 506.203498 99.62342 
L 506.644602 124.658908 
L 507.085705 91.988435 
L 507.526809 107.953906 
L 507.967913 114.548612 
L 508.409016 101.391659 
L 508.85012 116.579512 
L 509.291224 101.895559 
L 509.732327 141.314454 
L 510.173431 106.187691 
L 510.614535 95.297197 
L 511.055638 95.989051 
L 511.496742 101.371837 
L 511.937846 95.033907 
L 512.378949 99.991251 
L 512.820053 111.709856 
L 513.261157 104.493858 
L 513.70226 108.810987 
L 514.143364 99.516995 
L 514.584468 84.917499 
L 515.025571 79.163472 
L 515.466675 105.970555 
L 516.348882 89.534584 
L 516.789986 97.183602 
L 517.23109 81.458939 
L 517.672193 88.705632 
L 518.113297 81.184503 
L 518.554401 66.679426 
L 518.995504 88.280419 
L 519.436608 91.73891 
L 519.877712 73.811677 
L 520.318815 86.683211 
L 520.759919 81.396793 
L 521.201023 66.205033 
L 521.642126 77.858173 
L 522.08323 74.926556 
L 522.524334 62.201866 
L 522.965437 68.391582 
L 523.847645 100.676114 
L 524.288748 86.707658 
L 524.729852 77.807992 
L 525.612059 96.200726 
L 526.053163 85.079267 
L 526.494267 91.172844 
L 526.93537 77.914753 
L 527.817578 87.15464 
L 528.258681 98.847356 
L 528.699785 92.664875 
L 528.699785 92.664875 
" clip-path="url(#pb12177ee89)" style="fill: none; stroke: #000000; stroke-width: 0.7; stroke-linecap: round"/>
   </g>
   <g id="line2d_19">
    <path d="M 109.2102 128.393502 
L 109.651304 129.472022 
L 110.092408 128.751528 
L 110.974615 129.276365 
L 111.415719 129.145515 
L 111.856822 129.726521 
L 112.73903 129.21136 
L 113.180133 129.264632 
L 113.621237 129.017864 
L 114.062341 128.995509 
L 114.503444 128.727411 
L 114.944548 129.013718 
L 115.385652 128.827008 
L 115.826755 128.9612 
L 116.267859 129.45451 
L 117.150066 131.607729 
L 117.59117 131.972208 
L 118.032274 133.675635 
L 118.473377 134.556325 
L 118.914481 134.801373 
L 119.355585 135.568875 
L 119.796688 135.757821 
L 121.119999 136.892974 
L 121.561103 136.921211 
L 122.002207 137.14824 
L 122.44331 137.509999 
L 123.325518 139.006108 
L 124.207725 139.373561 
L 124.648829 140.07024 
L 125.089932 140.312946 
L 125.531036 140.293472 
L 125.972139 140.546673 
L 126.413243 141.202297 
L 126.854347 141.37889 
L 127.29545 141.365023 
L 127.736554 141.898622 
L 128.618761 141.624253 
L 129.059865 140.905658 
L 130.383176 141.860515 
L 130.82428 142.280009 
L 131.265383 143.168783 
L 131.706487 142.433418 
L 132.147591 142.605808 
L 132.588694 142.973771 
L 133.470902 143.283012 
L 134.353109 142.751446 
L 135.235316 142.770832 
L 135.67642 143.031854 
L 136.558627 142.94121 
L 136.999731 142.688231 
L 137.881938 141.716418 
L 138.323042 140.985846 
L 138.764146 139.692609 
L 139.646353 138.282395 
L 140.969664 134.224274 
L 141.410768 132.242073 
L 142.734079 129.057781 
L 144.05739 127.280693 
L 144.939597 124.699632 
L 145.821804 122.179371 
L 146.704012 119.387771 
L 147.586219 118.129532 
L 148.027323 117.811049 
L 148.468426 116.602957 
L 149.350634 115.995454 
L 149.791737 115.034332 
L 150.232841 115.040828 
L 151.115048 114.666862 
L 151.556152 114.711552 
L 151.997256 114.530374 
L 152.438359 113.808737 
L 153.76167 113.26222 
L 154.202774 113.666245 
L 155.084981 113.907702 
L 155.526085 113.881217 
L 155.967189 114.008629 
L 159.054914 117.67523 
L 159.496018 118.567989 
L 160.378225 121.153761 
L 160.819329 121.821205 
L 162.14264 125.064857 
L 163.465951 129.824593 
L 163.907055 131.188356 
L 164.348158 131.979655 
L 164.789262 133.328787 
L 165.230366 133.717363 
L 166.112573 135.139733 
L 166.553677 136.690494 
L 166.99478 137.26553 
L 168.759195 142.689719 
L 169.641402 144.429947 
L 170.082506 144.871056 
L 170.52361 146.06986 
L 170.964713 146.486713 
L 172.288024 149.448118 
L 172.729128 150.21302 
L 173.170232 151.270898 
L 174.052439 151.499755 
L 174.493543 152.259465 
L 174.934646 152.563731 
L 175.816854 153.471978 
L 178.022372 154.975631 
L 178.463476 154.89509 
L 178.904579 154.929351 
L 179.345683 154.790691 
L 179.786787 154.526163 
L 180.22789 154.058687 
L 180.668994 153.899196 
L 181.110098 153.407061 
L 181.551201 153.30701 
L 181.992305 152.520602 
L 182.874512 152.165108 
L 183.75672 151.265579 
L 184.197823 151.212721 
L 184.638927 150.576073 
L 185.080031 150.174318 
L 185.521134 150.239789 
L 185.962238 149.38809 
L 186.844445 148.765019 
L 187.285549 148.994593 
L 187.726652 149.058335 
L 188.167756 148.914204 
L 188.60886 148.904033 
L 189.049963 150.038177 
L 189.491067 149.747692 
L 189.932171 149.955002 
L 190.373274 149.633596 
L 190.814378 149.891945 
L 191.696585 149.776789 
L 192.137689 149.772837 
L 193.461 150.934428 
L 193.902104 151.082013 
L 194.343207 150.918901 
L 195.225415 151.361087 
L 196.107622 152.19351 
L 196.548726 151.725203 
L 196.989829 151.769777 
L 197.872037 150.286757 
L 198.31314 149.899616 
L 199.195348 148.57674 
L 200.077555 148.496286 
L 200.518659 148.56532 
L 200.959762 148.786168 
L 201.400866 148.865408 
L 202.283073 150.159397 
L 202.724177 150.344515 
L 203.165281 150.326724 
L 203.606384 149.823528 
L 204.047488 150.030486 
L 204.488592 149.821727 
L 204.929695 150.276638 
L 206.69411 150.747088 
L 207.135214 150.740804 
L 207.576317 151.133737 
L 208.017421 151.321817 
L 208.458525 151.201979 
L 208.899628 150.80198 
L 209.340732 150.199018 
L 210.222939 148.623054 
L 210.664043 148.2163 
L 211.105147 146.465445 
L 212.869561 143.868842 
L 213.751769 142.391565 
L 214.192872 142.113476 
L 214.633976 142.029411 
L 215.07508 141.385453 
L 215.957287 140.505915 
L 216.398391 140.704774 
L 216.839494 140.276679 
L 217.280598 139.319918 
L 217.721702 138.712247 
L 218.162805 138.54824 
L 218.603909 139.18307 
L 219.045013 139.257419 
L 219.92722 140.442936 
L 220.368324 139.922725 
L 220.809427 140.279386 
L 221.250531 140.448956 
L 221.691635 140.261487 
L 222.132738 139.782605 
L 222.573842 139.608168 
L 223.014946 138.256981 
L 223.456049 137.962977 
L 224.338257 136.783935 
L 225.220464 136.190982 
L 225.661568 136.833255 
L 226.102671 136.520771 
L 226.543775 136.846869 
L 227.425982 136.891613 
L 228.30819 137.352648 
L 229.190397 137.319803 
L 229.631501 137.084567 
L 231.395915 138.990544 
L 232.278123 140.416663 
L 232.719226 140.741265 
L 233.16033 141.643519 
L 233.601434 142.258504 
L 234.042537 142.6515 
L 234.924745 144.337036 
L 235.365848 144.934158 
L 235.806952 145.922448 
L 236.248056 146.086094 
L 236.689159 145.709101 
L 237.571367 146.868743 
L 238.01247 146.924765 
L 238.453574 146.274555 
L 238.894678 146.553708 
L 239.335781 147.017516 
L 239.776885 147.064536 
L 240.659092 147.667369 
L 241.100196 148.62334 
L 241.5413 148.720275 
L 242.423507 149.96962 
L 243.305714 150.607619 
L 243.746818 150.499858 
L 244.187922 150.699222 
L 244.629025 151.066888 
L 245.070129 152.181306 
L 246.834543 154.15948 
L 247.275647 155.380487 
L 247.716751 155.302239 
L 248.157854 155.639061 
L 248.598958 155.548553 
L 249.040062 155.974196 
L 249.481165 156.188172 
L 249.922269 156.243757 
L 250.363373 155.682279 
L 250.804476 155.505917 
L 251.24558 155.168364 
L 251.686684 155.352367 
L 252.127787 155.310045 
L 252.568891 155.483821 
L 254.333306 156.925763 
L 255.215513 156.802993 
L 255.656617 156.859491 
L 256.09772 156.530651 
L 256.538824 156.526443 
L 256.979928 155.986556 
L 257.421031 156.458569 
L 257.862135 156.457766 
L 258.744342 157.057553 
L 259.185446 157.063881 
L 259.62655 156.877353 
L 260.067653 156.852301 
L 260.508757 157.296308 
L 260.949861 157.485333 
L 261.832068 158.470602 
L 262.273172 158.482143 
L 262.714275 158.008756 
L 263.155379 157.137288 
L 263.596483 157.134504 
L 264.037586 156.974378 
L 264.47869 157.254975 
L 265.802001 157.375631 
L 266.243105 157.538701 
L 266.684208 157.495392 
L 268.448623 156.488811 
L 268.889727 156.723359 
L 269.33083 156.053633 
L 269.771934 156.191395 
L 270.213038 155.840704 
L 270.654141 155.31639 
L 271.977452 152.91021 
L 272.418556 153.603843 
L 272.85966 153.634741 
L 273.741867 154.059768 
L 274.182971 153.437719 
L 274.624074 153.552548 
L 275.065178 153.364146 
L 276.388489 151.834921 
L 276.829593 151.490085 
L 277.270696 151.553199 
L 278.152904 151.007031 
L 278.594007 150.47489 
L 279.035111 150.680646 
L 279.476215 149.955435 
L 279.917318 149.462633 
L 280.358422 148.675226 
L 280.799526 148.304281 
L 281.240629 148.098393 
L 282.122837 147.093974 
L 282.56394 146.683828 
L 283.005044 146.053513 
L 283.446148 145.045722 
L 283.887251 145.039259 
L 284.328355 144.403519 
L 284.769459 144.266939 
L 285.651666 144.460219 
L 286.09277 143.912746 
L 286.974977 143.431624 
L 287.416081 143.723386 
L 288.298288 144.706421 
L 288.739392 144.857573 
L 289.180495 145.400619 
L 290.062703 145.564937 
L 290.503806 146.296166 
L 290.94491 146.488594 
L 291.386014 146.354922 
L 291.827117 146.530397 
L 292.268221 147.68662 
L 292.709325 148.272217 
L 293.150428 147.990463 
L 294.032636 148.101986 
L 294.473739 147.404092 
L 294.914843 147.23007 
L 295.355947 147.331711 
L 295.79705 147.158197 
L 296.238154 147.611252 
L 296.679258 147.380398 
L 297.120361 147.445197 
L 298.002569 148.230436 
L 298.443672 147.88313 
L 298.884776 147.959045 
L 299.766983 147.120548 
L 300.208087 147.646749 
L 301.090294 148.055691 
L 301.531398 148.534198 
L 301.972502 148.662363 
L 302.413605 149.146718 
L 302.854709 148.996937 
L 303.295813 148.984969 
L 303.736916 148.710846 
L 304.17802 149.305712 
L 305.060227 149.71826 
L 305.501331 150.285075 
L 305.942435 150.455681 
L 306.383538 151.379795 
L 307.265745 151.935344 
L 307.706849 151.791058 
L 308.147953 152.113223 
L 308.589056 152.115456 
L 309.03016 152.273491 
L 309.471264 152.049295 
L 309.912367 152.165127 
L 310.794575 151.942006 
L 311.235678 151.746525 
L 311.676782 152.081664 
L 312.117886 151.832905 
L 313.000093 150.333206 
L 313.441197 150.202973 
L 313.8823 150.494079 
L 314.323404 149.903401 
L 314.764508 150.055873 
L 315.205611 151.254506 
L 315.646715 151.491856 
L 316.087819 152.017956 
L 316.528922 152.789731 
L 317.41113 153.128222 
L 317.852233 152.907967 
L 318.293337 153.38275 
L 318.734441 153.265105 
L 319.175544 152.945122 
L 320.057752 151.794512 
L 320.498855 151.605394 
L 320.939959 151.062695 
L 321.381063 150.816207 
L 321.822166 150.889971 
L 322.704374 149.083647 
L 324.027685 146.113703 
L 324.909892 144.629538 
L 325.350996 143.396761 
L 326.233203 142.658162 
L 327.556514 140.622936 
L 328.879825 137.592028 
L 329.762032 135.573444 
L 330.64424 134.587791 
L 331.085343 133.413677 
L 331.526447 132.834468 
L 332.408654 130.865432 
L 333.290862 129.573306 
L 333.731965 129.149735 
L 334.614173 127.504476 
L 335.055276 127.151669 
L 335.49638 126.624562 
L 335.937484 125.692866 
L 336.378587 125.340355 
L 337.701898 123.022371 
L 338.143002 121.853614 
L 338.584106 120.303135 
L 339.025209 119.244651 
L 339.466313 118.789237 
L 340.789624 117.018025 
L 341.230728 116.572672 
L 341.671831 116.823778 
L 342.112935 116.666694 
L 342.554039 116.229968 
L 342.995142 116.005268 
L 343.436246 116.189365 
L 343.87735 116.178332 
L 344.759557 117.109157 
L 345.200661 117.261857 
L 345.641764 117.626202 
L 346.082868 118.208233 
L 346.523972 118.323862 
L 346.965075 118.911045 
L 348.288386 121.29476 
L 348.72949 122.050554 
L 349.170594 123.217111 
L 350.052801 125.035302 
L 350.493905 125.431743 
L 350.935008 126.393369 
L 351.817216 127.519974 
L 352.258319 128.092781 
L 352.699423 128.083007 
L 353.140527 128.766473 
L 353.58163 129.174451 
L 354.463838 129.502066 
L 354.904941 129.456836 
L 355.346045 129.147158 
L 355.787149 128.536817 
L 356.228252 128.929678 
L 356.669356 129.533438 
L 357.11046 129.66514 
L 357.551563 129.647462 
L 357.992667 129.463854 
L 359.315978 127.873932 
L 359.757082 127.624476 
L 360.198185 127.563426 
L 360.639289 128.004762 
L 361.521496 127.979276 
L 361.9626 127.773059 
L 362.403704 127.994295 
L 362.844807 129.133183 
L 363.285911 129.359305 
L 363.727015 129.317116 
L 365.050326 131.343935 
L 365.491429 131.82192 
L 365.932533 132.977475 
L 366.81474 134.559065 
L 367.696947 136.679216 
L 368.138051 137.336482 
L 369.020258 139.213969 
L 369.461362 139.464987 
L 369.902466 139.096143 
L 370.343569 139.244193 
L 370.784673 139.731323 
L 371.225777 139.841905 
L 371.66688 140.117673 
L 372.549088 141.075642 
L 372.990191 141.254881 
L 373.431295 142.08771 
L 373.872399 142.282172 
L 374.313502 142.712392 
L 376.519021 145.969034 
L 377.842332 149.073378 
L 378.283435 149.951683 
L 379.165643 151.22381 
L 380.930057 154.666302 
L 383.135576 161.713355 
L 383.576679 162.403801 
L 384.017783 163.88449 
L 384.458887 164.862682 
L 384.89999 164.803956 
L 385.341094 165.362749 
L 385.782198 166.248479 
L 386.223301 166.536267 
L 387.546612 168.065202 
L 387.987716 168.134384 
L 388.42882 168.090848 
L 388.869923 168.566282 
L 389.311027 168.756977 
L 389.752131 168.572927 
L 390.193234 168.802153 
L 390.634338 168.688146 
L 391.075442 168.398542 
L 391.516545 168.596001 
L 391.957649 169.187096 
L 392.398753 169.275755 
L 392.839856 168.848285 
L 393.722064 168.405335 
L 394.163167 167.730422 
L 394.604271 167.595267 
L 395.045375 167.237795 
L 395.486478 166.56391 
L 395.927582 166.86912 
L 396.368686 166.989258 
L 396.809789 166.577898 
L 397.691997 165.513258 
L 398.1331 165.35523 
L 398.574204 164.947765 
L 399.015308 164.927929 
L 399.897515 164.221684 
L 401.220826 162.223693 
L 402.103033 160.803146 
L 402.544137 159.785268 
L 402.985241 159.165453 
L 404.308552 156.066937 
L 405.190759 153.115495 
L 405.631863 152.083893 
L 406.955174 147.857786 
L 407.837381 145.864688 
L 408.278485 145.424324 
L 409.160692 143.715628 
L 412.248418 134.293289 
L 413.571729 131.641844 
L 414.012832 131.1705 
L 414.453936 130.861792 
L 414.89504 130.862681 
L 415.336143 130.458144 
L 416.659454 128.026798 
L 417.100558 127.900507 
L 417.982765 127.068355 
L 418.423869 126.100249 
L 418.864973 125.639155 
L 419.306076 125.633498 
L 420.188284 125.045153 
L 420.629387 124.835464 
L 421.070491 123.888375 
L 421.511595 123.446563 
L 421.952698 123.206074 
L 422.393802 123.276708 
L 422.834906 123.724183 
L 423.276009 123.510047 
L 423.717113 123.869982 
L 425.040424 125.418844 
L 425.481528 125.581379 
L 427.245942 126.710904 
L 427.687046 126.491655 
L 428.128149 126.951464 
L 428.569253 126.87735 
L 429.892564 127.719366 
L 430.333668 127.401705 
L 431.215875 127.424978 
L 432.098082 128.080444 
L 432.539186 128.197652 
L 432.98029 128.101964 
L 433.421393 128.124573 
L 433.862497 128.486234 
L 434.303601 128.632021 
L 435.185808 128.606918 
L 435.626912 128.517891 
L 436.068015 127.991626 
L 437.391326 125.923811 
L 437.83243 125.89835 
L 438.273534 126.096922 
L 438.714637 125.866103 
L 439.155741 125.302585 
L 439.596845 125.175692 
L 440.037948 124.603322 
L 440.479052 124.536182 
L 440.920156 124.591773 
L 441.361259 123.568178 
L 441.802363 123.855778 
L 442.68457 123.343122 
L 443.125674 123.36176 
L 443.566778 123.494728 
L 444.007881 123.486897 
L 444.448985 122.920191 
L 444.890089 122.574111 
L 445.331192 122.418011 
L 445.772296 122.131455 
L 446.2134 121.70711 
L 446.654503 121.067133 
L 447.536711 120.266516 
L 447.977814 119.568641 
L 449.301125 118.358069 
L 449.742229 118.755364 
L 450.183333 118.185573 
L 450.624436 117.953971 
L 451.06554 117.327367 
L 451.506644 116.945272 
L 451.947747 116.291347 
L 452.388851 116.222046 
L 453.271058 116.598444 
L 454.153266 116.521343 
L 454.594369 116.791104 
L 455.035473 116.776546 
L 455.91768 116.235077 
L 456.358784 116.403648 
L 456.799888 115.927648 
L 457.240991 115.899737 
L 457.682095 115.744017 
L 458.123199 115.455432 
L 458.564302 115.667095 
L 459.005406 116.05161 
L 459.44651 116.231305 
L 460.769821 115.917788 
L 461.210924 116.422091 
L 461.652028 116.524301 
L 462.093132 116.243299 
L 462.975339 116.360379 
L 463.416443 116.897844 
L 463.857546 116.751215 
L 464.29865 116.900734 
L 466.063065 116.075759 
L 466.504168 116.271316 
L 466.945272 115.685306 
L 467.386376 116.036849 
L 467.827479 115.687721 
L 468.268583 115.76443 
L 468.709687 116.124162 
L 469.591894 115.683252 
L 470.032998 116.094786 
L 470.474101 116.346999 
L 471.356309 117.234828 
L 471.797412 117.201463 
L 472.67962 118.15436 
L 473.120723 118.146143 
L 474.002931 118.648846 
L 474.885138 118.307263 
L 475.326242 118.23756 
L 475.767345 118.32831 
L 476.208449 118.100638 
L 476.649553 118.048713 
L 477.090656 118.156967 
L 477.53176 118.848715 
L 477.972864 119.016958 
L 478.413967 119.000696 
L 478.855071 119.468975 
L 479.296175 119.275012 
L 479.737278 119.400188 
L 480.178382 119.861644 
L 481.060589 119.912506 
L 481.942797 120.513085 
L 482.3839 120.465567 
L 482.825004 120.675929 
L 483.266108 120.052434 
L 483.707211 120.077221 
L 484.148315 120.47628 
L 484.589419 120.238464 
L 486.353833 120.43066 
L 486.794937 120.774094 
L 487.236041 120.630437 
L 487.677144 121.008204 
L 488.118248 121.076431 
L 488.559351 121.268136 
L 489.000455 121.587496 
L 489.441559 121.248467 
L 489.882662 121.081741 
L 490.323766 120.730556 
L 491.205973 120.595731 
L 491.647077 120.799993 
L 492.088181 120.390163 
L 492.529284 119.683979 
L 493.411492 119.084069 
L 493.852595 118.503868 
L 494.293699 118.274499 
L 494.734803 117.727059 
L 495.175906 118.32577 
L 495.61701 118.462148 
L 496.058114 118.13382 
L 496.940321 117.801695 
L 497.381425 116.996784 
L 497.822528 116.743492 
L 498.263632 116.2413 
L 499.586943 115.436804 
L 500.028047 115.451511 
L 500.910254 114.581674 
L 501.351358 114.40428 
L 502.233565 113.52799 
L 502.674669 113.335977 
L 503.115772 112.87968 
L 503.556876 112.702327 
L 503.99798 112.836821 
L 504.439083 113.194199 
L 504.880187 113.234642 
L 505.321291 113.664935 
L 505.762394 113.506762 
L 506.203498 113.09754 
L 506.644602 113.318525 
L 507.085705 112.771665 
L 508.85012 111.408376 
L 509.291224 111.219968 
L 509.732327 111.265932 
L 510.173431 110.972316 
L 510.614535 110.282785 
L 511.496742 109.617142 
L 513.70226 108.522346 
L 514.584468 108.320079 
L 515.025571 107.688853 
L 515.907779 107.674131 
L 516.348882 107.193221 
L 516.789986 107.11841 
L 517.672193 105.319905 
L 518.113297 104.854048 
L 518.554401 104.070886 
L 518.995504 103.627579 
L 519.436608 103.604136 
L 519.877712 102.909589 
L 520.318815 102.930368 
L 520.759919 102.399542 
L 522.08323 99.965885 
L 522.965437 98.544726 
L 523.406541 98.338187 
L 523.847645 98.573493 
L 524.288748 98.157792 
L 524.729852 97.410643 
L 525.612059 96.399313 
L 526.494267 94.681713 
L 526.93537 93.947846 
L 527.376474 92.92815 
L 527.817578 92.363266 
L 528.258681 92.347745 
L 528.699785 91.707865 
L 528.699785 91.707865 
" clip-path="url(#pb12177ee89)" style="fill: none; stroke-dasharray: 2.96,1.28; stroke-dashoffset: 0; stroke: #ff0000; stroke-width: 0.8"/>
   </g>
   <g id="patch_3">
    <path d="M 65.540937 200.648125 
L 65.540937 55.609187 
" style="fill: none; stroke: #ffffff; stroke-width: 1.25; stroke-linejoin: miter; stroke-linecap: square"/>
   </g>
   <g id="patch_4">
    <path d="M 550.754968 200.648125 
L 550.754968 55.609187 
" style="fill: none; stroke: #ffffff; stroke-width: 1.25; stroke-linejoin: miter; stroke-linecap: square"/>
   </g>
   <g id="patch_5">
    <path d="M 65.540937 200.648125 
L 550.754968 200.648125 
" style="fill: none; stroke: #ffffff; stroke-width: 1.25; stroke-linejoin: miter; stroke-linecap: square"/>
   </g>
   <g id="patch_6">
    <path d="M 65.540937 55.609187 
L 550.754968 55.609187 
" style="fill: none; stroke: #ffffff; stroke-width: 1.25; stroke-linejoin: miter; stroke-linecap: square"/>
   </g>
   <g id="legend_1">
    <g id="patch_7">
     <path d="M 478.915281 196.148125 
L 544.454968 196.148125 
Q 546.254968 196.148125 546.254968 194.348125 
L 546.254968 168.8275 
Q 546.254968 167.0275 544.454968 167.0275 
L 478.915281 167.0275 
Q 477.115281 167.0275 477.115281 168.8275 
L 477.115281 194.348125 
Q 477.115281 196.148125 478.915281 196.148125 
z
" style="fill: #eaeaf2; opacity: 0.8; stroke: #cccccc; stroke-linejoin: miter"/>
    </g>
    <g id="line2d_20">
     <path d="M 480.715281 174.316094 
L 489.715281 174.316094 
L 498.715281 174.316094 
" style="fill: none; stroke: #000000; stroke-width: 0.7; stroke-linecap: round"/>
    </g>
    <g id="text_20">
     <!-- TDC -->
     <g style="fill: #262626" transform="translate(505.915281 177.466094)scale(0.09 -0.09)">
      <defs>
       <path id="DejaVuSans-54" d="M -19 4666 
L 3928 4666 
L 3928 4134 
L 2272 4134 
L 2272 0 
L 1638 0 
L 1638 4134 
L -19 4134 
L -19 4666 
z
" transform="scale(0.015625)"/>
       <path id="DejaVuSans-44" d="M 1259 4147 
L 1259 519 
L 2022 519 
Q 2988 519 3436 956 
Q 3884 1394 3884 2338 
Q 3884 3275 3436 3711 
Q 2988 4147 2022 4147 
L 1259 4147 
z
M 628 4666 
L 1925 4666 
Q 3281 4666 3915 4102 
Q 4550 3538 4550 2338 
Q 4550 1131 3912 565 
Q 3275 0 1925 0 
L 628 0 
L 628 4666 
z
" transform="scale(0.015625)"/>
       <path id="DejaVuSans-43" d="M 4122 4306 
L 4122 3641 
Q 3803 3938 3442 4084 
Q 3081 4231 2675 4231 
Q 1875 4231 1450 3742 
Q 1025 3253 1025 2328 
Q 1025 1406 1450 917 
Q 1875 428 2675 428 
Q 3081 428 3442 575 
Q 3803 722 4122 1019 
L 4122 359 
Q 3791 134 3420 21 
Q 3050 -91 2638 -91 
Q 1578 -91 968 557 
Q 359 1206 359 2328 
Q 359 3453 968 4101 
Q 1578 4750 2638 4750 
Q 3056 4750 3426 4639 
Q 3797 4528 4122 4306 
z
" transform="scale(0.015625)"/>
      </defs>
      <use xlink:href="#DejaVuSans-54"/>
      <use xlink:href="#DejaVuSans-44" x="61.083984"/>
      <use xlink:href="#DejaVuSans-43" x="138.085938"/>
     </g>
    </g>
    <g id="line2d_21">
     <path d="M 480.715281 187.526406 
L 489.715281 187.526406 
L 498.715281 187.526406 
" style="fill: none; stroke-dasharray: 2.96,1.28; stroke-dashoffset: 0; stroke: #ff0000; stroke-width: 0.8"/>
    </g>
    <g id="text_21">
     <!-- Mov. Av. -->
     <g style="fill: #262626" transform="translate(505.915281 190.676406)scale(0.09 -0.09)">
      <defs>
       <path id="DejaVuSans-4d" d="M 628 4666 
L 1569 4666 
L 2759 1491 
L 3956 4666 
L 4897 4666 
L 4897 0 
L 4281 0 
L 4281 4097 
L 3078 897 
L 2444 897 
L 1241 4097 
L 1241 0 
L 628 0 
L 628 4666 
z
" transform="scale(0.015625)"/>
       <path id="DejaVuSans-76" d="M 191 3500 
L 800 3500 
L 1894 563 
L 2988 3500 
L 3597 3500 
L 2284 0 
L 1503 0 
L 191 3500 
z
" transform="scale(0.015625)"/>
       <path id="DejaVuSans-2e" d="M 684 794 
L 1344 794 
L 1344 0 
L 684 0 
L 684 794 
z
" transform="scale(0.015625)"/>
       <path id="DejaVuSans-41" d="M 2188 4044 
L 1331 1722 
L 3047 1722 
L 2188 4044 
z
M 1831 4666 
L 2547 4666 
L 4325 0 
L 3669 0 
L 3244 1197 
L 1141 1197 
L 716 0 
L 50 0 
L 1831 4666 
z
" transform="scale(0.015625)"/>
      </defs>
      <use xlink:href="#DejaVuSans-4d"/>
      <use xlink:href="#DejaVuSans-6f" x="86.279297"/>
      <use xlink:href="#DejaVuSans-76" x="147.460938"/>
      <use xlink:href="#DejaVuSans-2e" x="198.890625"/>
      <use xlink:href="#DejaVuSans-20" x="230.677734"/>
      <use xlink:href="#DejaVuSans-41" x="262.464844"/>
      <use xlink:href="#DejaVuSans-76" x="324.998047"/>
      <use xlink:href="#DejaVuSans-2e" x="376.427734"/>
     </g>
    </g>
   </g>
  </g>
  <g id="text_22">
   <!-- Energetic Components [Per-residue] -->
   <g style="fill: #262626" transform="translate(161.55375 15.605813)scale(0.14 -0.14)">
    <defs>
     <path id="DejaVuSans-74" d="M 1172 4494 
L 1172 3500 
L 2356 3500 
L 2356 3053 
L 1172 3053 
L 1172 1153 
Q 1172 725 1289 603 
Q 1406 481 1766 481 
L 2356 481 
L 2356 0 
L 1766 0 
Q 1100 0 847 248 
Q 594 497 594 1153 
L 594 3053 
L 172 3053 
L 172 3500 
L 594 3500 
L 594 4494 
L 1172 4494 
z
" transform="scale(0.015625)"/>
     <path id="DejaVuSans-69" d="M 603 3500 
L 1178 3500 
L 1178 0 
L 603 0 
L 603 3500 
z
M 603 4863 
L 1178 4863 
L 1178 4134 
L 603 4134 
L 603 4863 
z
" transform="scale(0.015625)"/>
     <path id="DejaVuSans-70" d="M 1159 525 
L 1159 -1331 
L 581 -1331 
L 581 3500 
L 1159 3500 
L 1159 2969 
Q 1341 3281 1617 3432 
Q 1894 3584 2278 3584 
Q 2916 3584 3314 3078 
Q 3713 2572 3713 1747 
Q 3713 922 3314 415 
Q 2916 -91 2278 -91 
Q 1894 -91 1617 61 
Q 1341 213 1159 525 
z
M 3116 1747 
Q 3116 2381 2855 2742 
Q 2594 3103 2138 3103 
Q 1681 3103 1420 2742 
Q 1159 2381 1159 1747 
Q 1159 1113 1420 752 
Q 1681 391 2138 391 
Q 2594 391 2855 752 
Q 3116 1113 3116 1747 
z
" transform="scale(0.015625)"/>
     <path id="DejaVuSans-5b" d="M 550 4863 
L 1875 4863 
L 1875 4416 
L 1125 4416 
L 1125 -397 
L 1875 -397 
L 1875 -844 
L 550 -844 
L 550 4863 
z
" transform="scale(0.015625)"/>
     <path id="DejaVuSans-50" d="M 1259 4147 
L 1259 2394 
L 2053 2394 
Q 2494 2394 2734 2622 
Q 2975 2850 2975 3272 
Q 2975 3691 2734 3919 
Q 2494 4147 2053 4147 
L 1259 4147 
z
M 628 4666 
L 2053 4666 
Q 2838 4666 3239 4311 
Q 3641 3956 3641 3272 
Q 3641 2581 3239 2228 
Q 2838 1875 2053 1875 
L 1259 1875 
L 1259 0 
L 628 0 
L 628 4666 
z
" transform="scale(0.015625)"/>
     <path id="DejaVuSans-2d" d="M 313 2009 
L 1997 2009 
L 1997 1497 
L 313 1497 
L 313 2009 
z
" transform="scale(0.015625)"/>
     <path id="DejaVuSans-64" d="M 2906 2969 
L 2906 4863 
L 3481 4863 
L 3481 0 
L 2906 0 
L 2906 525 
Q 2725 213 2448 61 
Q 2172 -91 1784 -91 
Q 1150 -91 751 415 
Q 353 922 353 1747 
Q 353 2572 751 3078 
Q 1150 3584 1784 3584 
Q 2172 3584 2448 3432 
Q 2725 3281 2906 2969 
z
M 947 1747 
Q 947 1113 1208 752 
Q 1469 391 1925 391 
Q 2381 391 2643 752 
Q 2906 1113 2906 1747 
Q 2906 2381 2643 2742 
Q 2381 3103 1925 3103 
Q 1469 3103 1208 2742 
Q 947 2381 947 1747 
z
" transform="scale(0.015625)"/>
     <path id="DejaVuSans-75" d="M 544 1381 
L 544 3500 
L 1119 3500 
L 1119 1403 
Q 1119 906 1312 657 
Q 1506 409 1894 409 
Q 2359 409 2629 706 
Q 2900 1003 2900 1516 
L 2900 3500 
L 3475 3500 
L 3475 0 
L 2900 0 
L 2900 538 
Q 2691 219 2414 64 
Q 2138 -91 1772 -91 
Q 1169 -91 856 284 
Q 544 659 544 1381 
z
M 1991 3584 
L 1991 3584 
z
" transform="scale(0.015625)"/>
     <path id="DejaVuSans-5d" d="M 1947 4863 
L 1947 -844 
L 622 -844 
L 622 -397 
L 1369 -397 
L 1369 4416 
L 622 4416 
L 622 4863 
L 1947 4863 
z
" transform="scale(0.015625)"/>
    </defs>
    <use xlink:href="#DejaVuSans-45"/>
    <use xlink:href="#DejaVuSans-6e" x="63.183594"/>
    <use xlink:href="#DejaVuSans-65" x="126.5625"/>
    <use xlink:href="#DejaVuSans-72" x="188.085938"/>
    <use xlink:href="#DejaVuSans-67" x="227.449219"/>
    <use xlink:href="#DejaVuSans-65" x="290.925781"/>
    <use xlink:href="#DejaVuSans-74" x="352.449219"/>
    <use xlink:href="#DejaVuSans-69" x="391.658203"/>
    <use xlink:href="#DejaVuSans-63" x="419.441406"/>
    <use xlink:href="#DejaVuSans-20" x="474.421875"/>
    <use xlink:href="#DejaVuSans-43" x="506.208984"/>
    <use xlink:href="#DejaVuSans-6f" x="576.033203"/>
    <use xlink:href="#DejaVuSans-6d" x="637.214844"/>
    <use xlink:href="#DejaVuSans-70" x="734.626953"/>
    <use xlink:href="#DejaVuSans-6f" x="798.103516"/>
    <use xlink:href="#DejaVuSans-6e" x="859.285156"/>
    <use xlink:href="#DejaVuSans-65" x="922.664062"/>
    <use xlink:href="#DejaVuSans-6e" x="984.1875"/>
    <use xlink:href="#DejaVuSans-74" x="1047.566406"/>
    <use xlink:href="#DejaVuSans-73" x="1086.775391"/>
    <use xlink:href="#DejaVuSans-20" x="1138.875"/>
    <use xlink:href="#DejaVuSans-5b" x="1170.662109"/>
    <use xlink:href="#DejaVuSans-50" x="1209.675781"/>
    <use xlink:href="#DejaVuSans-65" x="1266.353516"/>
    <use xlink:href="#DejaVuSans-72" x="1327.876953"/>
    <use xlink:href="#DejaVuSans-2d" x="1362.615234"/>
    <use xlink:href="#DejaVuSans-72" x="1398.699219"/>
    <use xlink:href="#DejaVuSans-65" x="1437.5625"/>
    <use xlink:href="#DejaVuSans-73" x="1499.085938"/>
    <use xlink:href="#DejaVuSans-69" x="1551.185547"/>
    <use xlink:href="#DejaVuSans-64" x="1578.96875"/>
    <use xlink:href="#DejaVuSans-75" x="1642.445312"/>
    <use xlink:href="#DejaVuSans-65" x="1705.824219"/>
    <use xlink:href="#DejaVuSans-5d" x="1767.347656"/>
   </g>
   <!-- System-1 | NORMAL | GB | Delta | TDC -->
   <g style="fill: #262626" transform="translate(153.892031 31.35625)scale(0.14 -0.14)">
    <defs>
     <path id="DejaVuSans-53" d="M 3425 4513 
L 3425 3897 
Q 3066 4069 2747 4153 
Q 2428 4238 2131 4238 
Q 1616 4238 1336 4038 
Q 1056 3838 1056 3469 
Q 1056 3159 1242 3001 
Q 1428 2844 1947 2747 
L 2328 2669 
Q 3034 2534 3370 2195 
Q 3706 1856 3706 1288 
Q 3706 609 3251 259 
Q 2797 -91 1919 -91 
Q 1588 -91 1214 -16 
Q 841 59 441 206 
L 441 856 
Q 825 641 1194 531 
Q 1563 422 1919 422 
Q 2459 422 2753 634 
Q 3047 847 3047 1241 
Q 3047 1584 2836 1778 
Q 2625 1972 2144 2069 
L 1759 2144 
Q 1053 2284 737 2584 
Q 422 2884 422 3419 
Q 422 4038 858 4394 
Q 1294 4750 2059 4750 
Q 2388 4750 2728 4690 
Q 3069 4631 3425 4513 
z
" transform="scale(0.015625)"/>
     <path id="DejaVuSans-7c" d="M 1344 4891 
L 1344 -1509 
L 813 -1509 
L 813 4891 
L 1344 4891 
z
" transform="scale(0.015625)"/>
     <path id="DejaVuSans-4e" d="M 628 4666 
L 1478 4666 
L 3547 763 
L 3547 4666 
L 4159 4666 
L 4159 0 
L 3309 0 
L 1241 3903 
L 1241 0 
L 628 0 
L 628 4666 
z
" transform="scale(0.015625)"/>
     <path id="DejaVuSans-4f" d="M 2522 4238 
Q 1834 4238 1429 3725 
Q 1025 3213 1025 2328 
Q 1025 1447 1429 934 
Q 1834 422 2522 422 
Q 3209 422 3611 934 
Q 4013 1447 4013 2328 
Q 4013 3213 3611 3725 
Q 3209 4238 2522 4238 
z
M 2522 4750 
Q 3503 4750 4090 4092 
Q 4678 3434 4678 2328 
Q 4678 1225 4090 567 
Q 3503 -91 2522 -91 
Q 1538 -91 948 565 
Q 359 1222 359 2328 
Q 359 3434 948 4092 
Q 1538 4750 2522 4750 
z
" transform="scale(0.015625)"/>
     <path id="DejaVuSans-52" d="M 2841 2188 
Q 3044 2119 3236 1894 
Q 3428 1669 3622 1275 
L 4263 0 
L 3584 0 
L 2988 1197 
Q 2756 1666 2539 1819 
Q 2322 1972 1947 1972 
L 1259 1972 
L 1259 0 
L 628 0 
L 628 4666 
L 2053 4666 
Q 2853 4666 3247 4331 
Q 3641 3997 3641 3322 
Q 3641 2881 3436 2590 
Q 3231 2300 2841 2188 
z
M 1259 4147 
L 1259 2491 
L 2053 2491 
Q 2509 2491 2742 2702 
Q 2975 2913 2975 3322 
Q 2975 3731 2742 3939 
Q 2509 4147 2053 4147 
L 1259 4147 
z
" transform="scale(0.015625)"/>
     <path id="DejaVuSans-4c" d="M 628 4666 
L 1259 4666 
L 1259 531 
L 3531 531 
L 3531 0 
L 628 0 
L 628 4666 
z
" transform="scale(0.015625)"/>
     <path id="DejaVuSans-47" d="M 3809 666 
L 3809 1919 
L 2778 1919 
L 2778 2438 
L 4434 2438 
L 4434 434 
Q 4069 175 3628 42 
Q 3188 -91 2688 -91 
Q 1594 -91 976 548 
Q 359 1188 359 2328 
Q 359 3472 976 4111 
Q 1594 4750 2688 4750 
Q 3144 4750 3555 4637 
Q 3966 4525 4313 4306 
L 4313 3634 
Q 3963 3931 3569 4081 
Q 3175 4231 2741 4231 
Q 1884 4231 1454 3753 
Q 1025 3275 1025 2328 
Q 1025 1384 1454 906 
Q 1884 428 2741 428 
Q 3075 428 3337 486 
Q 3600 544 3809 666 
z
" transform="scale(0.015625)"/>
     <path id="DejaVuSans-42" d="M 1259 2228 
L 1259 519 
L 2272 519 
Q 2781 519 3026 730 
Q 3272 941 3272 1375 
Q 3272 1813 3026 2020 
Q 2781 2228 2272 2228 
L 1259 2228 
z
M 1259 4147 
L 1259 2741 
L 2194 2741 
Q 2656 2741 2882 2914 
Q 3109 3088 3109 3444 
Q 3109 3797 2882 3972 
Q 2656 4147 2194 4147 
L 1259 4147 
z
M 628 4666 
L 2241 4666 
Q 2963 4666 3353 4366 
Q 3744 4066 3744 3513 
Q 3744 3084 3544 2831 
Q 3344 2578 2956 2516 
Q 3422 2416 3680 2098 
Q 3938 1781 3938 1306 
Q 3938 681 3513 340 
Q 3088 0 2303 0 
L 628 0 
L 628 4666 
z
" transform="scale(0.015625)"/>
    </defs>
    <use xlink:href="#DejaVuSans-53"/>
    <use xlink:href="#DejaVuSans-79" x="63.476562"/>
    <use xlink:href="#DejaVuSans-73" x="122.65625"/>
    <use xlink:href="#DejaVuSans-74" x="174.755859"/>
    <use xlink:href="#DejaVuSans-65" x="213.964844"/>
    <use xlink:href="#DejaVuSans-6d" x="275.488281"/>
    <use xlink:href="#DejaVuSans-2d" x="372.900391"/>
    <use xlink:href="#DejaVuSans-31" x="408.984375"/>
    <use xlink:href="#DejaVuSans-20" x="472.607422"/>
    <use xlink:href="#DejaVuSans-7c" x="504.394531"/>
    <use xlink:href="#DejaVuSans-20" x="538.085938"/>
    <use xlink:href="#DejaVuSans-4e" x="569.873047"/>
    <use xlink:href="#DejaVuSans-4f" x="644.677734"/>
    <use xlink:href="#DejaVuSans-52" x="723.388672"/>
    <use xlink:href="#DejaVuSans-4d" x="792.871094"/>
    <use xlink:href="#DejaVuSans-41" x="879.150391"/>
    <use xlink:href="#DejaVuSans-4c" x="947.558594"/>
    <use xlink:href="#DejaVuSans-20" x="1003.271484"/>
    <use xlink:href="#DejaVuSans-7c" x="1035.058594"/>
    <use xlink:href="#DejaVuSans-20" x="1068.75"/>
    <use xlink:href="#DejaVuSans-47" x="1100.537109"/>
    <use xlink:href="#DejaVuSans-42" x="1178.027344"/>
    <use xlink:href="#DejaVuSans-20" x="1246.630859"/>
    <use xlink:href="#DejaVuSans-7c" x="1278.417969"/>
    <use xlink:href="#DejaVuSans-20" x="1312.109375"/>
    <use xlink:href="#DejaVuSans-44" x="1343.896484"/>
    <use xlink:href="#DejaVuSans-65" x="1420.898438"/>
    <use xlink:href="#DejaVuSans-6c" x="1482.421875"/>
    <use xlink:href="#DejaVuSans-74" x="1510.205078"/>
    <use xlink:href="#DejaVuSans-61" x="1549.414062"/>
    <use xlink:href="#DejaVuSans-20" x="1610.693359"/>
    <use xlink:href="#DejaVuSans-7c" x="1642.480469"/>
    <use xlink:href="#DejaVuSans-20" x="1676.171875"/>
    <use xlink:href="#DejaVuSans-54" x="1707.958984"/>
    <use xlink:href="#DejaVuSans-44" x="1769.042969"/>
    <use xlink:href="#DejaVuSans-43" x="1846.044922"/>
   </g>
  </g>
 </g>
 <defs>
  <clipPath id="pb12177ee89">
   <rect x="65.540937" y="55.609187" width="485.214031" height="145.038938"/>
  </clipPath>
 </defs>
</svg>
