<?xml version="1.0" encoding="utf-8" standalone="no"?>
<!DOCTYPE svg PUBLIC "-//W3C//DTD SVG 1.1//EN"
  "http://www.w3.org/Graphics/SVG/1.1/DTD/svg11.dtd">
<svg xmlns:xlink="http://www.w3.org/1999/xlink" width="576pt" height="248.4pt" viewBox="0 0 576 248.4" xmlns="http://www.w3.org/2000/svg" version="1.1">
 <metadata>
  <rdf:RDF xmlns:dc="http://purl.org/dc/elements/1.1/" xmlns:cc="http://creativecommons.org/ns#" xmlns:rdf="http://www.w3.org/1999/02/22-rdf-syntax-ns#">
   <cc:Work>
    <dc:type rdf:resource="http://purl.org/dc/dcmitype/StillImage"/>
    <dc:date>2024-10-20T17:18:39.601989</dc:date>
    <dc:format>image/svg+xml</dc:format>
    <dc:creator>
     <cc:Agent>
      <dc:title>Matplotlib v3.5.2, https://matplotlib.org/</dc:title>
     </cc:Agent>
    </dc:creator>
   </cc:Work>
  </rdf:RDF>
 </metadata>
 <defs>
  <style type="text/css">*{stroke-linejoin: round; stroke-linecap: butt}</style>
 </defs>
 <g id="figure_1">
  <g id="patch_1">
   <path d="M 0 248.4 
L 576 248.4 
L 576 0 
L 0 0 
z
" style="fill: #ffffff"/>
  </g>
  <g id="axes_1">
   <g id="patch_2">
    <path d="M 59.178438 200.648125 
L 550.760783 200.648125 
L 550.760783 55.609187 
L 59.178438 55.609187 
z
" style="fill: #eaeaf2"/>
   </g>
   <g id="matplotlib.axis_1">
    <g id="xtick_1">
     <g id="line2d_1">
      <path d="M 81.076197 200.648125 
L 81.076197 55.609187 
" clip-path="url(#p4cb928d726)" style="fill: none; stroke: #ffffff; stroke-linecap: round"/>
     </g>
     <g id="text_1">
      <!-- 0 -->
      <g style="fill: #262626" transform="translate(77.894947 217.746562)scale(0.1 -0.1)">
       <defs>
        <path id="DejaVuSans-30" d="M 2034 4250 
Q 1547 4250 1301 3770 
Q 1056 3291 1056 2328 
Q 1056 1369 1301 889 
Q 1547 409 2034 409 
Q 2525 409 2770 889 
Q 3016 1369 3016 2328 
Q 3016 3291 2770 3770 
Q 2525 4250 2034 4250 
z
M 2034 4750 
Q 2819 4750 3233 4129 
Q 3647 3509 3647 2328 
Q 3647 1150 3233 529 
Q 2819 -91 2034 -91 
Q 1250 -91 836 529 
Q 422 1150 422 2328 
Q 422 3509 836 4129 
Q 1250 4750 2034 4750 
z
" transform="scale(0.015625)"/>
       </defs>
       <use xlink:href="#DejaVuSans-30"/>
      </g>
     </g>
    </g>
    <g id="xtick_2">
     <g id="line2d_2">
      <path d="M 148.110153 200.648125 
L 148.110153 55.609187 
" clip-path="url(#p4cb928d726)" style="fill: none; stroke: #ffffff; stroke-linecap: round"/>
     </g>
     <g id="text_2">
      <!-- 150 -->
      <g style="fill: #262626" transform="translate(138.566403 217.746562)scale(0.1 -0.1)">
       <defs>
        <path id="DejaVuSans-31" d="M 794 531 
L 1825 531 
L 1825 4091 
L 703 3866 
L 703 4441 
L 1819 4666 
L 2450 4666 
L 2450 531 
L 3481 531 
L 3481 0 
L 794 0 
L 794 531 
z
" transform="scale(0.015625)"/>
        <path id="DejaVuSans-35" d="M 691 4666 
L 3169 4666 
L 3169 4134 
L 1269 4134 
L 1269 2991 
Q 1406 3038 1543 3061 
Q 1681 3084 1819 3084 
Q 2600 3084 3056 2656 
Q 3513 2228 3513 1497 
Q 3513 744 3044 326 
Q 2575 -91 1722 -91 
Q 1428 -91 1123 -41 
Q 819 9 494 109 
L 494 744 
Q 775 591 1075 516 
Q 1375 441 1709 441 
Q 2250 441 2565 725 
Q 2881 1009 2881 1497 
Q 2881 1984 2565 2268 
Q 2250 2553 1709 2553 
Q 1456 2553 1204 2497 
Q 953 2441 691 2322 
L 691 4666 
z
" transform="scale(0.015625)"/>
       </defs>
       <use xlink:href="#DejaVuSans-31"/>
       <use xlink:href="#DejaVuSans-35" x="63.623047"/>
       <use xlink:href="#DejaVuSans-30" x="127.246094"/>
      </g>
     </g>
    </g>
    <g id="xtick_3">
     <g id="line2d_3">
      <path d="M 215.144109 200.648125 
L 215.144109 55.609187 
" clip-path="url(#p4cb928d726)" style="fill: none; stroke: #ffffff; stroke-linecap: round"/>
     </g>
     <g id="text_3">
      <!-- 300 -->
      <g style="fill: #262626" transform="translate(205.600359 217.746562)scale(0.1 -0.1)">
       <defs>
        <path id="DejaVuSans-33" d="M 2597 2516 
Q 3050 2419 3304 2112 
Q 3559 1806 3559 1356 
Q 3559 666 3084 287 
Q 2609 -91 1734 -91 
Q 1441 -91 1130 -33 
Q 819 25 488 141 
L 488 750 
Q 750 597 1062 519 
Q 1375 441 1716 441 
Q 2309 441 2620 675 
Q 2931 909 2931 1356 
Q 2931 1769 2642 2001 
Q 2353 2234 1838 2234 
L 1294 2234 
L 1294 2753 
L 1863 2753 
Q 2328 2753 2575 2939 
Q 2822 3125 2822 3475 
Q 2822 3834 2567 4026 
Q 2313 4219 1838 4219 
Q 1578 4219 1281 4162 
Q 984 4106 628 3988 
L 628 4550 
Q 988 4650 1302 4700 
Q 1616 4750 1894 4750 
Q 2613 4750 3031 4423 
Q 3450 4097 3450 3541 
Q 3450 3153 3228 2886 
Q 3006 2619 2597 2516 
z
" transform="scale(0.015625)"/>
       </defs>
       <use xlink:href="#DejaVuSans-33"/>
       <use xlink:href="#DejaVuSans-30" x="63.623047"/>
       <use xlink:href="#DejaVuSans-30" x="127.246094"/>
      </g>
     </g>
    </g>
    <g id="xtick_4">
     <g id="line2d_4">
      <path d="M 282.178065 200.648125 
L 282.178065 55.609187 
" clip-path="url(#p4cb928d726)" style="fill: none; stroke: #ffffff; stroke-linecap: round"/>
     </g>
     <g id="text_4">
      <!-- 450 -->
      <g style="fill: #262626" transform="translate(272.634315 217.746562)scale(0.1 -0.1)">
       <defs>
        <path id="DejaVuSans-34" d="M 2419 4116 
L 825 1625 
L 2419 1625 
L 2419 4116 
z
M 2253 4666 
L 3047 4666 
L 3047 1625 
L 3713 1625 
L 3713 1100 
L 3047 1100 
L 3047 0 
L 2419 0 
L 2419 1100 
L 313 1100 
L 313 1709 
L 2253 4666 
z
" transform="scale(0.015625)"/>
       </defs>
       <use xlink:href="#DejaVuSans-34"/>
       <use xlink:href="#DejaVuSans-35" x="63.623047"/>
       <use xlink:href="#DejaVuSans-30" x="127.246094"/>
      </g>
     </g>
    </g>
    <g id="xtick_5">
     <g id="line2d_5">
      <path d="M 349.212021 200.648125 
L 349.212021 55.609187 
" clip-path="url(#p4cb928d726)" style="fill: none; stroke: #ffffff; stroke-linecap: round"/>
     </g>
     <g id="text_5">
      <!-- 600 -->
      <g style="fill: #262626" transform="translate(339.668271 217.746562)scale(0.1 -0.1)">
       <defs>
        <path id="DejaVuSans-36" d="M 2113 2584 
Q 1688 2584 1439 2293 
Q 1191 2003 1191 1497 
Q 1191 994 1439 701 
Q 1688 409 2113 409 
Q 2538 409 2786 701 
Q 3034 994 3034 1497 
Q 3034 2003 2786 2293 
Q 2538 2584 2113 2584 
z
M 3366 4563 
L 3366 3988 
Q 3128 4100 2886 4159 
Q 2644 4219 2406 4219 
Q 1781 4219 1451 3797 
Q 1122 3375 1075 2522 
Q 1259 2794 1537 2939 
Q 1816 3084 2150 3084 
Q 2853 3084 3261 2657 
Q 3669 2231 3669 1497 
Q 3669 778 3244 343 
Q 2819 -91 2113 -91 
Q 1303 -91 875 529 
Q 447 1150 447 2328 
Q 447 3434 972 4092 
Q 1497 4750 2381 4750 
Q 2619 4750 2861 4703 
Q 3103 4656 3366 4563 
z
" transform="scale(0.015625)"/>
       </defs>
       <use xlink:href="#DejaVuSans-36"/>
       <use xlink:href="#DejaVuSans-30" x="63.623047"/>
       <use xlink:href="#DejaVuSans-30" x="127.246094"/>
      </g>
     </g>
    </g>
    <g id="xtick_6">
     <g id="line2d_6">
      <path d="M 416.245977 200.648125 
L 416.245977 55.609187 
" clip-path="url(#p4cb928d726)" style="fill: none; stroke: #ffffff; stroke-linecap: round"/>
     </g>
     <g id="text_6">
      <!-- 750 -->
      <g style="fill: #262626" transform="translate(406.702227 217.746562)scale(0.1 -0.1)">
       <defs>
        <path id="DejaVuSans-37" d="M 525 4666 
L 3525 4666 
L 3525 4397 
L 1831 0 
L 1172 0 
L 2766 4134 
L 525 4134 
L 525 4666 
z
" transform="scale(0.015625)"/>
       </defs>
       <use xlink:href="#DejaVuSans-37"/>
       <use xlink:href="#DejaVuSans-35" x="63.623047"/>
       <use xlink:href="#DejaVuSans-30" x="127.246094"/>
      </g>
     </g>
    </g>
    <g id="xtick_7">
     <g id="line2d_7">
      <path d="M 483.279933 200.648125 
L 483.279933 55.609187 
" clip-path="url(#p4cb928d726)" style="fill: none; stroke: #ffffff; stroke-linecap: round"/>
     </g>
     <g id="text_7">
      <!-- 900 -->
      <g style="fill: #262626" transform="translate(473.736183 217.746562)scale(0.1 -0.1)">
       <defs>
        <path id="DejaVuSans-39" d="M 703 97 
L 703 672 
Q 941 559 1184 500 
Q 1428 441 1663 441 
Q 2288 441 2617 861 
Q 2947 1281 2994 2138 
Q 2813 1869 2534 1725 
Q 2256 1581 1919 1581 
Q 1219 1581 811 2004 
Q 403 2428 403 3163 
Q 403 3881 828 4315 
Q 1253 4750 1959 4750 
Q 2769 4750 3195 4129 
Q 3622 3509 3622 2328 
Q 3622 1225 3098 567 
Q 2575 -91 1691 -91 
Q 1453 -91 1209 -44 
Q 966 3 703 97 
z
M 1959 2075 
Q 2384 2075 2632 2365 
Q 2881 2656 2881 3163 
Q 2881 3666 2632 3958 
Q 2384 4250 1959 4250 
Q 1534 4250 1286 3958 
Q 1038 3666 1038 3163 
Q 1038 2656 1286 2365 
Q 1534 2075 1959 2075 
z
" transform="scale(0.015625)"/>
       </defs>
       <use xlink:href="#DejaVuSans-39"/>
       <use xlink:href="#DejaVuSans-30" x="63.623047"/>
       <use xlink:href="#DejaVuSans-30" x="127.246094"/>
      </g>
     </g>
    </g>
    <g id="xtick_8">
     <g id="line2d_8">
      <path d="M 550.313889 200.648125 
L 550.313889 55.609187 
" clip-path="url(#p4cb928d726)" style="fill: none; stroke: #ffffff; stroke-linecap: round"/>
     </g>
     <g id="text_8">
      <!-- 1050 -->
      <g style="fill: #262626" transform="translate(537.588889 217.746562)scale(0.1 -0.1)">
       <use xlink:href="#DejaVuSans-31"/>
       <use xlink:href="#DejaVuSans-30" x="63.623047"/>
       <use xlink:href="#DejaVuSans-35" x="127.246094"/>
       <use xlink:href="#DejaVuSans-30" x="190.869141"/>
      </g>
     </g>
    </g>
    <g id="text_9">
     <!-- Frames -->
     <g style="fill: #262626" transform="translate(283.14836 232.944375)scale(0.12 -0.12)">
      <defs>
       <path id="DejaVuSans-46" d="M 628 4666 
L 3309 4666 
L 3309 4134 
L 1259 4134 
L 1259 2759 
L 3109 2759 
L 3109 2228 
L 1259 2228 
L 1259 0 
L 628 0 
L 628 4666 
z
" transform="scale(0.015625)"/>
       <path id="DejaVuSans-72" d="M 2631 2963 
Q 2534 3019 2420 3045 
Q 2306 3072 2169 3072 
Q 1681 3072 1420 2755 
Q 1159 2438 1159 1844 
L 1159 0 
L 581 0 
L 581 3500 
L 1159 3500 
L 1159 2956 
Q 1341 3275 1631 3429 
Q 1922 3584 2338 3584 
Q 2397 3584 2469 3576 
Q 2541 3569 2628 3553 
L 2631 2963 
z
" transform="scale(0.015625)"/>
       <path id="DejaVuSans-61" d="M 2194 1759 
Q 1497 1759 1228 1600 
Q 959 1441 959 1056 
Q 959 750 1161 570 
Q 1363 391 1709 391 
Q 2188 391 2477 730 
Q 2766 1069 2766 1631 
L 2766 1759 
L 2194 1759 
z
M 3341 1997 
L 3341 0 
L 2766 0 
L 2766 531 
Q 2569 213 2275 61 
Q 1981 -91 1556 -91 
Q 1019 -91 701 211 
Q 384 513 384 1019 
Q 384 1609 779 1909 
Q 1175 2209 1959 2209 
L 2766 2209 
L 2766 2266 
Q 2766 2663 2505 2880 
Q 2244 3097 1772 3097 
Q 1472 3097 1187 3025 
Q 903 2953 641 2809 
L 641 3341 
Q 956 3463 1253 3523 
Q 1550 3584 1831 3584 
Q 2591 3584 2966 3190 
Q 3341 2797 3341 1997 
z
" transform="scale(0.015625)"/>
       <path id="DejaVuSans-6d" d="M 3328 2828 
Q 3544 3216 3844 3400 
Q 4144 3584 4550 3584 
Q 5097 3584 5394 3201 
Q 5691 2819 5691 2113 
L 5691 0 
L 5113 0 
L 5113 2094 
Q 5113 2597 4934 2840 
Q 4756 3084 4391 3084 
Q 3944 3084 3684 2787 
Q 3425 2491 3425 1978 
L 3425 0 
L 2847 0 
L 2847 2094 
Q 2847 2600 2669 2842 
Q 2491 3084 2119 3084 
Q 1678 3084 1418 2786 
Q 1159 2488 1159 1978 
L 1159 0 
L 581 0 
L 581 3500 
L 1159 3500 
L 1159 2956 
Q 1356 3278 1631 3431 
Q 1906 3584 2284 3584 
Q 2666 3584 2933 3390 
Q 3200 3197 3328 2828 
z
" transform="scale(0.015625)"/>
       <path id="DejaVuSans-65" d="M 3597 1894 
L 3597 1613 
L 953 1613 
Q 991 1019 1311 708 
Q 1631 397 2203 397 
Q 2534 397 2845 478 
Q 3156 559 3463 722 
L 3463 178 
Q 3153 47 2828 -22 
Q 2503 -91 2169 -91 
Q 1331 -91 842 396 
Q 353 884 353 1716 
Q 353 2575 817 3079 
Q 1281 3584 2069 3584 
Q 2775 3584 3186 3129 
Q 3597 2675 3597 1894 
z
M 3022 2063 
Q 3016 2534 2758 2815 
Q 2500 3097 2075 3097 
Q 1594 3097 1305 2825 
Q 1016 2553 972 2059 
L 3022 2063 
z
" transform="scale(0.015625)"/>
       <path id="DejaVuSans-73" d="M 2834 3397 
L 2834 2853 
Q 2591 2978 2328 3040 
Q 2066 3103 1784 3103 
Q 1356 3103 1142 2972 
Q 928 2841 928 2578 
Q 928 2378 1081 2264 
Q 1234 2150 1697 2047 
L 1894 2003 
Q 2506 1872 2764 1633 
Q 3022 1394 3022 966 
Q 3022 478 2636 193 
Q 2250 -91 1575 -91 
Q 1294 -91 989 -36 
Q 684 19 347 128 
L 347 722 
Q 666 556 975 473 
Q 1284 391 1588 391 
Q 1994 391 2212 530 
Q 2431 669 2431 922 
Q 2431 1156 2273 1281 
Q 2116 1406 1581 1522 
L 1381 1569 
Q 847 1681 609 1914 
Q 372 2147 372 2553 
Q 372 3047 722 3315 
Q 1072 3584 1716 3584 
Q 2034 3584 2315 3537 
Q 2597 3491 2834 3397 
z
" transform="scale(0.015625)"/>
      </defs>
      <use xlink:href="#DejaVuSans-46"/>
      <use xlink:href="#DejaVuSans-72" x="50.269531"/>
      <use xlink:href="#DejaVuSans-61" x="91.382812"/>
      <use xlink:href="#DejaVuSans-6d" x="152.662109"/>
      <use xlink:href="#DejaVuSans-65" x="250.074219"/>
      <use xlink:href="#DejaVuSans-73" x="311.597656"/>
     </g>
    </g>
   </g>
   <g id="matplotlib.axis_2">
    <g id="ytick_1">
     <g id="line2d_9">
      <path d="M 59.178438 184.33583 
L 550.760783 184.33583 
" clip-path="url(#p4cb928d726)" style="fill: none; stroke: #ffffff; stroke-linecap: round"/>
     </g>
     <g id="text_10">
      <!-- −75 -->
      <g style="fill: #262626" transform="translate(28.57375 188.135048)scale(0.1 -0.1)">
       <defs>
        <path id="DejaVuSans-2212" d="M 678 2272 
L 4684 2272 
L 4684 1741 
L 678 1741 
L 678 2272 
z
" transform="scale(0.015625)"/>
       </defs>
       <use xlink:href="#DejaVuSans-2212"/>
       <use xlink:href="#DejaVuSans-37" x="83.789062"/>
       <use xlink:href="#DejaVuSans-35" x="147.412109"/>
      </g>
     </g>
    </g>
    <g id="ytick_2">
     <g id="line2d_10">
      <path d="M 59.178438 163.75566 
L 550.760783 163.75566 
" clip-path="url(#p4cb928d726)" style="fill: none; stroke: #ffffff; stroke-linecap: round"/>
     </g>
     <g id="text_11">
      <!-- −60 -->
      <g style="fill: #262626" transform="translate(28.57375 167.554879)scale(0.1 -0.1)">
       <use xlink:href="#DejaVuSans-2212"/>
       <use xlink:href="#DejaVuSans-36" x="83.789062"/>
       <use xlink:href="#DejaVuSans-30" x="147.412109"/>
      </g>
     </g>
    </g>
    <g id="ytick_3">
     <g id="line2d_11">
      <path d="M 59.178438 143.17549 
L 550.760783 143.17549 
" clip-path="url(#p4cb928d726)" style="fill: none; stroke: #ffffff; stroke-linecap: round"/>
     </g>
     <g id="text_12">
      <!-- −45 -->
      <g style="fill: #262626" transform="translate(28.57375 146.974709)scale(0.1 -0.1)">
       <use xlink:href="#DejaVuSans-2212"/>
       <use xlink:href="#DejaVuSans-34" x="83.789062"/>
       <use xlink:href="#DejaVuSans-35" x="147.412109"/>
      </g>
     </g>
    </g>
    <g id="ytick_4">
     <g id="line2d_12">
      <path d="M 59.178438 122.595321 
L 550.760783 122.595321 
" clip-path="url(#p4cb928d726)" style="fill: none; stroke: #ffffff; stroke-linecap: round"/>
     </g>
     <g id="text_13">
      <!-- −30 -->
      <g style="fill: #262626" transform="translate(28.57375 126.39454)scale(0.1 -0.1)">
       <use xlink:href="#DejaVuSans-2212"/>
       <use xlink:href="#DejaVuSans-33" x="83.789062"/>
       <use xlink:href="#DejaVuSans-30" x="147.412109"/>
      </g>
     </g>
    </g>
    <g id="ytick_5">
     <g id="line2d_13">
      <path d="M 59.178438 102.015151 
L 550.760783 102.015151 
" clip-path="url(#p4cb928d726)" style="fill: none; stroke: #ffffff; stroke-linecap: round"/>
     </g>
     <g id="text_14">
      <!-- −15 -->
      <g style="fill: #262626" transform="translate(28.57375 105.81437)scale(0.1 -0.1)">
       <use xlink:href="#DejaVuSans-2212"/>
       <use xlink:href="#DejaVuSans-31" x="83.789062"/>
       <use xlink:href="#DejaVuSans-35" x="147.412109"/>
      </g>
     </g>
    </g>
    <g id="ytick_6">
     <g id="line2d_14">
      <path d="M 59.178438 81.434981 
L 550.760783 81.434981 
" clip-path="url(#p4cb928d726)" style="fill: none; stroke: #ffffff; stroke-linecap: round"/>
     </g>
     <g id="text_15">
      <!-- 0 -->
      <g style="fill: #262626" transform="translate(43.315938 85.2342)scale(0.1 -0.1)">
       <use xlink:href="#DejaVuSans-30"/>
      </g>
     </g>
    </g>
    <g id="ytick_7">
     <g id="line2d_15">
      <path d="M 59.178438 60.854812 
L 550.760783 60.854812 
" clip-path="url(#p4cb928d726)" style="fill: none; stroke: #ffffff; stroke-linecap: round"/>
     </g>
     <g id="text_16">
      <!-- 15 -->
      <g style="fill: #262626" transform="translate(36.953437 64.654031)scale(0.1 -0.1)">
       <use xlink:href="#DejaVuSans-31"/>
       <use xlink:href="#DejaVuSans-35" x="63.623047"/>
      </g>
     </g>
    </g>
    <g id="text_17">
     <!-- Energy (kcal/mol) -->
     <g style="fill: #262626" transform="translate(22.078125 181.045844)rotate(-90)scale(0.12 -0.12)">
      <defs>
       <path id="DejaVuSans-45" d="M 628 4666 
L 3578 4666 
L 3578 4134 
L 1259 4134 
L 1259 2753 
L 3481 2753 
L 3481 2222 
L 1259 2222 
L 1259 531 
L 3634 531 
L 3634 0 
L 628 0 
L 628 4666 
z
" transform="scale(0.015625)"/>
       <path id="DejaVuSans-6e" d="M 3513 2113 
L 3513 0 
L 2938 0 
L 2938 2094 
Q 2938 2591 2744 2837 
Q 2550 3084 2163 3084 
Q 1697 3084 1428 2787 
Q 1159 2491 1159 1978 
L 1159 0 
L 581 0 
L 581 3500 
L 1159 3500 
L 1159 2956 
Q 1366 3272 1645 3428 
Q 1925 3584 2291 3584 
Q 2894 3584 3203 3211 
Q 3513 2838 3513 2113 
z
" transform="scale(0.015625)"/>
       <path id="DejaVuSans-67" d="M 2906 1791 
Q 2906 2416 2648 2759 
Q 2391 3103 1925 3103 
Q 1463 3103 1205 2759 
Q 947 2416 947 1791 
Q 947 1169 1205 825 
Q 1463 481 1925 481 
Q 2391 481 2648 825 
Q 2906 1169 2906 1791 
z
M 3481 434 
Q 3481 -459 3084 -895 
Q 2688 -1331 1869 -1331 
Q 1566 -1331 1297 -1286 
Q 1028 -1241 775 -1147 
L 775 -588 
Q 1028 -725 1275 -790 
Q 1522 -856 1778 -856 
Q 2344 -856 2625 -561 
Q 2906 -266 2906 331 
L 2906 616 
Q 2728 306 2450 153 
Q 2172 0 1784 0 
Q 1141 0 747 490 
Q 353 981 353 1791 
Q 353 2603 747 3093 
Q 1141 3584 1784 3584 
Q 2172 3584 2450 3431 
Q 2728 3278 2906 2969 
L 2906 3500 
L 3481 3500 
L 3481 434 
z
" transform="scale(0.015625)"/>
       <path id="DejaVuSans-79" d="M 2059 -325 
Q 1816 -950 1584 -1140 
Q 1353 -1331 966 -1331 
L 506 -1331 
L 506 -850 
L 844 -850 
Q 1081 -850 1212 -737 
Q 1344 -625 1503 -206 
L 1606 56 
L 191 3500 
L 800 3500 
L 1894 763 
L 2988 3500 
L 3597 3500 
L 2059 -325 
z
" transform="scale(0.015625)"/>
       <path id="DejaVuSans-20" transform="scale(0.015625)"/>
       <path id="DejaVuSans-28" d="M 1984 4856 
Q 1566 4138 1362 3434 
Q 1159 2731 1159 2009 
Q 1159 1288 1364 580 
Q 1569 -128 1984 -844 
L 1484 -844 
Q 1016 -109 783 600 
Q 550 1309 550 2009 
Q 550 2706 781 3412 
Q 1013 4119 1484 4856 
L 1984 4856 
z
" transform="scale(0.015625)"/>
       <path id="DejaVuSans-6b" d="M 581 4863 
L 1159 4863 
L 1159 1991 
L 2875 3500 
L 3609 3500 
L 1753 1863 
L 3688 0 
L 2938 0 
L 1159 1709 
L 1159 0 
L 581 0 
L 581 4863 
z
" transform="scale(0.015625)"/>
       <path id="DejaVuSans-63" d="M 3122 3366 
L 3122 2828 
Q 2878 2963 2633 3030 
Q 2388 3097 2138 3097 
Q 1578 3097 1268 2742 
Q 959 2388 959 1747 
Q 959 1106 1268 751 
Q 1578 397 2138 397 
Q 2388 397 2633 464 
Q 2878 531 3122 666 
L 3122 134 
Q 2881 22 2623 -34 
Q 2366 -91 2075 -91 
Q 1284 -91 818 406 
Q 353 903 353 1747 
Q 353 2603 823 3093 
Q 1294 3584 2113 3584 
Q 2378 3584 2631 3529 
Q 2884 3475 3122 3366 
z
" transform="scale(0.015625)"/>
       <path id="DejaVuSans-6c" d="M 603 4863 
L 1178 4863 
L 1178 0 
L 603 0 
L 603 4863 
z
" transform="scale(0.015625)"/>
       <path id="DejaVuSans-2f" d="M 1625 4666 
L 2156 4666 
L 531 -594 
L 0 -594 
L 1625 4666 
z
" transform="scale(0.015625)"/>
       <path id="DejaVuSans-6f" d="M 1959 3097 
Q 1497 3097 1228 2736 
Q 959 2375 959 1747 
Q 959 1119 1226 758 
Q 1494 397 1959 397 
Q 2419 397 2687 759 
Q 2956 1122 2956 1747 
Q 2956 2369 2687 2733 
Q 2419 3097 1959 3097 
z
M 1959 3584 
Q 2709 3584 3137 3096 
Q 3566 2609 3566 1747 
Q 3566 888 3137 398 
Q 2709 -91 1959 -91 
Q 1206 -91 779 398 
Q 353 888 353 1747 
Q 353 2609 779 3096 
Q 1206 3584 1959 3584 
z
" transform="scale(0.015625)"/>
       <path id="DejaVuSans-29" d="M 513 4856 
L 1013 4856 
Q 1481 4119 1714 3412 
Q 1947 2706 1947 2009 
Q 1947 1309 1714 600 
Q 1481 -109 1013 -844 
L 513 -844 
Q 928 -128 1133 580 
Q 1338 1288 1338 2009 
Q 1338 2731 1133 3434 
Q 928 4138 513 4856 
z
" transform="scale(0.015625)"/>
      </defs>
      <use xlink:href="#DejaVuSans-45"/>
      <use xlink:href="#DejaVuSans-6e" x="63.183594"/>
      <use xlink:href="#DejaVuSans-65" x="126.5625"/>
      <use xlink:href="#DejaVuSans-72" x="188.085938"/>
      <use xlink:href="#DejaVuSans-67" x="227.449219"/>
      <use xlink:href="#DejaVuSans-79" x="290.925781"/>
      <use xlink:href="#DejaVuSans-20" x="350.105469"/>
      <use xlink:href="#DejaVuSans-28" x="381.892578"/>
      <use xlink:href="#DejaVuSans-6b" x="420.90625"/>
      <use xlink:href="#DejaVuSans-63" x="478.816406"/>
      <use xlink:href="#DejaVuSans-61" x="533.796875"/>
      <use xlink:href="#DejaVuSans-6c" x="595.076172"/>
      <use xlink:href="#DejaVuSans-2f" x="622.859375"/>
      <use xlink:href="#DejaVuSans-6d" x="656.550781"/>
      <use xlink:href="#DejaVuSans-6f" x="753.962891"/>
      <use xlink:href="#DejaVuSans-6c" x="815.144531"/>
      <use xlink:href="#DejaVuSans-29" x="842.927734"/>
     </g>
    </g>
   </g>
   <g id="line2d_16">
    <path d="M 81.52309 110.643778 
L 81.969983 101.801357 
L 82.416876 110.710774 
L 82.863769 101.670989 
L 83.310662 125.974457 
L 83.757555 104.647269 
L 84.204448 99.512815 
L 84.651341 83.738153 
L 85.098234 85.98988 
L 85.545127 79.005529 
L 85.99202 96.785887 
L 86.438913 79.387682 
L 86.885806 88.022272 
L 87.332699 94.232406 
L 87.779592 93.500082 
L 88.226485 94.38841 
L 88.673378 96.081878 
L 89.120271 112.425908 
L 89.567164 97.623115 
L 90.014057 99.418143 
L 90.46095 106.623443 
L 90.907843 107.881323 
L 91.354736 102.295241 
L 92.248523 75.50928 
L 92.695416 86.272352 
L 93.142309 68.060546 
L 93.589202 83.382837 
L 94.036095 74.97606 
L 94.482988 62.201866 
L 94.929881 75.057388 
L 95.376774 68.922946 
L 95.823667 80.575091 
L 96.27056 84.222969 
L 96.717453 79.206493 
L 97.164346 83.010521 
L 97.611239 78.0652 
L 98.058132 69.207164 
L 98.505025 72.261924 
L 98.951918 84.364956 
L 99.398811 89.005738 
L 99.845704 92.468853 
L 100.292597 98.082098 
L 100.73949 88.472627 
L 101.633276 103.325961 
L 102.080169 93.031938 
L 102.527062 90.885516 
L 102.973956 101.634542 
L 103.420849 86.740889 
L 103.867742 120.389385 
L 104.314635 115.180857 
L 104.761528 113.067749 
L 105.208421 120.046983 
L 105.655314 121.045879 
L 106.102207 119.271614 
L 106.5491 126.696332 
L 106.995993 122.025903 
L 107.442886 105.335216 
L 107.889779 99.56237 
L 108.336672 104.879075 
L 108.783565 99.356536 
L 109.230458 106.486571 
L 109.677351 106.139639 
L 110.124244 100.120549 
L 110.571137 105.111529 
L 111.01803 84.81706 
L 111.464923 106.760808 
L 111.911816 94.298535 
L 112.358709 94.759243 
L 112.805602 106.650991 
L 113.252495 95.591887 
L 113.699388 109.654074 
L 114.146282 113.77733 
L 114.593175 106.212656 
L 115.040068 129.734496 
L 115.486961 121.766989 
L 115.933854 118.866766 
L 116.380747 114.137288 
L 116.82764 135.343242 
L 117.274533 129.759848 
L 117.721426 134.127446 
L 118.168319 116.255818 
L 118.615212 122.129303 
L 119.062105 93.871424 
L 119.508998 102.077668 
L 119.955891 103.442331 
L 120.402784 112.162417 
L 120.849677 116.136189 
L 121.743463 106.108374 
L 122.190356 107.482972 
L 122.637249 113.807862 
L 123.084142 105.825003 
L 123.531035 109.363285 
L 123.977928 118.563732 
L 124.424821 122.789582 
L 124.871715 112.277187 
L 125.318608 110.580373 
L 125.765501 121.435494 
L 126.212394 119.453165 
L 126.659287 110.366095 
L 127.10618 118.976519 
L 127.553073 122.29209 
L 127.999966 132.187445 
L 128.446859 124.751143 
L 128.893752 128.18582 
L 129.340645 128.936544 
L 129.787538 156.455157 
L 130.234431 120.249333 
L 130.681324 121.847258 
L 131.128217 133.651737 
L 132.022003 137.531026 
L 132.468896 128.045524 
L 132.915789 139.911453 
L 133.362682 154.907228 
L 133.809575 145.266703 
L 134.256468 138.044245 
L 134.703361 114.890999 
L 135.150254 119.173636 
L 135.597148 114.48899 
L 136.490934 137.014814 
L 136.937827 139.818913 
L 137.38472 123.384505 
L 137.831613 121.78978 
L 138.278506 141.638932 
L 138.725399 148.142541 
L 139.172292 127.866693 
L 139.619185 123.287367 
L 140.066078 137.704124 
L 140.512971 144.675518 
L 140.959864 144.902345 
L 141.406757 145.705894 
L 141.85365 129.668987 
L 142.300543 125.887216 
L 142.747436 129.305351 
L 143.194329 117.203888 
L 143.641222 121.295701 
L 144.088115 128.734179 
L 144.535008 139.135551 
L 144.981901 144.866938 
L 145.428794 128.643369 
L 145.875687 141.9958 
L 146.32258 129.605401 
L 146.769474 127.960873 
L 147.216367 131.900849 
L 147.66326 127.862278 
L 148.110153 131.180405 
L 148.557046 138.787412 
L 149.003939 137.709993 
L 149.450832 133.61192 
L 149.897725 136.364521 
L 150.344618 128.95969 
L 150.791511 138.903045 
L 151.238404 142.194408 
L 151.685297 159.249216 
L 152.13219 150.197227 
L 152.579083 154.856979 
L 153.025976 157.279362 
L 153.472869 147.11494 
L 153.919762 159.62975 
L 154.813548 149.453969 
L 155.260441 165.245868 
L 155.707334 166.472562 
L 156.154227 160.606976 
L 156.60112 161.10256 
L 157.048013 148.774213 
L 157.494907 144.573714 
L 157.9418 154.646942 
L 158.835586 137.899496 
L 159.282479 141.170304 
L 159.729372 151.375258 
L 160.176265 144.485101 
L 160.623158 126.368759 
L 161.070051 127.068018 
L 161.516944 150.234352 
L 161.963837 148.432008 
L 162.41073 141.835073 
L 162.857623 144.12585 
L 163.751409 155.236844 
L 164.198302 145.118666 
L 164.645195 150.334148 
L 165.092088 152.053904 
L 165.538981 152.207173 
L 165.985874 144.952323 
L 166.432767 146.356016 
L 166.87966 152.924289 
L 167.326553 152.158009 
L 167.773446 161.587174 
L 168.220339 163.642738 
L 168.667233 161.035111 
L 169.561019 146.9666 
L 170.007912 166.941064 
L 170.454805 168.575235 
L 170.901698 158.123112 
L 171.348591 171.056632 
L 171.795484 161.209028 
L 172.242377 136.754512 
L 172.68927 156.29618 
L 173.136163 146.813029 
L 173.583056 150.778396 
L 174.029949 146.825042 
L 174.476842 146.456027 
L 174.923735 163.910718 
L 175.370628 138.862512 
L 175.817521 153.792089 
L 176.264414 153.657681 
L 176.711307 142.892701 
L 177.1582 149.530892 
L 177.605093 160.258004 
L 178.051986 165.783742 
L 178.498879 175.040276 
L 178.945772 171.449676 
L 179.839559 176.749848 
L 180.286452 156.52639 
L 180.733345 168.332328 
L 181.180238 151.738009 
L 181.627131 168.145851 
L 182.074024 165.283556 
L 182.520917 159.761726 
L 182.96781 167.964008 
L 183.414703 172.681266 
L 183.861596 168.316276 
L 184.308489 156.588101 
L 184.755382 171.493297 
L 185.649168 153.063785 
L 186.096061 155.338877 
L 186.542954 151.466773 
L 187.43674 174.644393 
L 187.883633 156.664981 
L 188.330526 150.976179 
L 188.777419 149.611215 
L 189.224312 164.520658 
L 189.671205 144.808621 
L 190.118098 149.666121 
L 190.564992 161.440113 
L 191.011885 148.321887 
L 191.458778 170.506489 
L 191.905671 160.389253 
L 192.352564 143.185941 
L 192.799457 154.002392 
L 193.24635 153.068161 
L 193.693243 159.672117 
L 194.140136 156.340336 
L 194.587029 147.696495 
L 195.480815 155.326835 
L 195.927708 141.796028 
L 196.374601 160.220474 
L 196.821494 159.40596 
L 197.268387 160.918197 
L 197.71528 154.06419 
L 198.162173 167.693412 
L 198.609066 163.106441 
L 199.055959 153.796777 
L 199.502852 167.731367 
L 199.949745 148.581003 
L 200.396638 171.244264 
L 201.290425 168.17234 
L 201.737318 177.699757 
L 202.184211 180.437363 
L 202.631104 160.34974 
L 203.077997 171.787465 
L 203.52489 194.055446 
L 203.971783 171.975551 
L 204.418676 174.054719 
L 204.865569 170.986044 
L 205.312462 164.207082 
L 205.759355 173.655559 
L 206.206248 157.534048 
L 206.653141 167.128861 
L 207.546927 131.954631 
L 207.99382 143.894653 
L 208.440713 118.556779 
L 209.334499 165.118417 
L 209.781392 161.33463 
L 210.228285 160.853042 
L 210.675178 159.799129 
L 211.122071 173.506129 
L 211.568964 163.153821 
L 212.015858 142.853945 
L 212.462751 151.452781 
L 212.909644 168.794151 
L 213.356537 171.863365 
L 213.80343 150.680779 
L 214.250323 162.26808 
L 214.697216 162.584179 
L 215.144109 161.62278 
L 215.591002 169.095769 
L 216.037895 168.949219 
L 216.484788 170.267994 
L 216.931681 173.095484 
L 217.378574 166.00384 
L 217.825467 162.184389 
L 218.27236 155.568382 
L 218.719253 137.772387 
L 219.166146 141.396786 
L 220.059932 161.028231 
L 220.506825 162.909424 
L 220.953718 168.687715 
L 221.400611 146.94902 
L 221.847504 144.650946 
L 222.294397 163.255799 
L 222.74129 177.003001 
L 223.188184 157.387626 
L 223.635077 170.64591 
L 224.528863 153.705185 
L 224.975756 167.137478 
L 225.422649 152.342404 
L 225.869542 153.069253 
L 226.316435 161.509718 
L 226.763328 144.608562 
L 227.210221 179.874564 
L 227.657114 165.433688 
L 228.104007 164.316213 
L 228.5509 158.557689 
L 228.997793 142.758414 
L 229.444686 163.7669 
L 229.891579 161.100986 
L 230.338472 156.946811 
L 230.785365 188.262736 
L 231.232258 172.627869 
L 231.679151 175.241995 
L 232.126044 174.128214 
L 232.572937 167.523741 
L 233.01983 168.162118 
L 233.466723 176.170744 
L 233.913617 178.849741 
L 234.36051 148.767557 
L 234.807403 163.835576 
L 235.254296 173.673861 
L 235.701189 164.054123 
L 236.148082 160.331222 
L 236.594975 184.289285 
L 237.041868 169.959493 
L 237.488761 148.419994 
L 237.935654 176.851567 
L 238.382547 176.741618 
L 238.82944 175.257803 
L 239.723226 164.854741 
L 240.170119 169.265848 
L 240.617012 163.939977 
L 241.510798 142.017404 
L 241.957691 147.65767 
L 242.404584 143.686466 
L 242.851477 154.33884 
L 243.29837 134.392328 
L 243.745263 155.404816 
L 244.192156 128.328933 
L 244.639049 153.181706 
L 245.085943 156.833194 
L 245.532836 168.839504 
L 245.979729 160.013424 
L 246.426622 135.287258 
L 246.873515 153.359802 
L 247.320408 149.629642 
L 247.767301 157.000973 
L 248.214194 158.848786 
L 248.661087 158.490298 
L 249.10798 160.393737 
L 249.554873 154.048405 
L 250.001766 150.334245 
L 250.448659 168.861933 
L 250.895552 138.313483 
L 251.342445 151.092981 
L 251.789338 139.252214 
L 252.236231 147.516546 
L 252.683124 145.914943 
L 253.130017 161.497878 
L 253.57691 145.841618 
L 254.023803 154.188268 
L 254.470696 150.324412 
L 254.917589 162.245307 
L 255.364482 149.591714 
L 255.811376 156.290267 
L 256.258269 148.488013 
L 256.705162 158.418822 
L 257.152055 133.978462 
L 257.598948 154.337358 
L 258.045841 149.280172 
L 258.492734 154.401333 
L 258.939627 144.205412 
L 259.38652 149.282359 
L 260.280306 170.66471 
L 260.727199 146.789017 
L 261.174092 159.571377 
L 261.620985 131.029391 
L 262.067878 159.970951 
L 262.961664 146.120693 
L 263.408557 150.738647 
L 263.85545 153.134713 
L 264.302343 144.416642 
L 264.749236 155.993714 
L 265.196129 149.871256 
L 265.643022 153.695135 
L 266.089915 154.972114 
L 266.536808 158.024753 
L 266.983702 159.088249 
L 267.430595 150.008998 
L 267.877488 168.289987 
L 268.324381 145.146574 
L 268.771274 143.254221 
L 269.218167 151.974089 
L 269.66506 156.245288 
L 270.111953 143.027996 
L 270.558846 155.122645 
L 271.005739 135.319287 
L 271.452632 139.745391 
L 271.899525 149.654773 
L 272.346418 150.303269 
L 272.793311 144.631497 
L 273.240204 144.639103 
L 273.687097 156.50711 
L 274.13399 145.364435 
L 274.580883 145.856878 
L 275.027776 144.496051 
L 275.474669 150.164029 
L 275.921562 149.116191 
L 276.368455 139.698938 
L 276.815348 149.50209 
L 277.262241 142.100978 
L 277.709135 153.069816 
L 278.156028 134.227115 
L 278.602921 145.305267 
L 279.049814 152.47992 
L 279.496707 145.582917 
L 279.9436 134.263441 
L 280.390493 151.988266 
L 280.837386 148.433626 
L 281.284279 150.908837 
L 281.731172 143.770291 
L 282.178065 148.055526 
L 282.624958 144.048631 
L 283.071851 148.297253 
L 283.518744 149.558743 
L 283.965637 145.664091 
L 284.41253 153.515096 
L 284.859423 147.918171 
L 285.306316 150.994453 
L 285.753209 148.515191 
L 286.200102 139.313488 
L 286.646995 138.574097 
L 287.093888 151.247322 
L 287.540781 157.369684 
L 287.987674 147.077978 
L 288.434568 147.458994 
L 289.328354 158.081389 
L 289.775247 146.792282 
L 290.22214 158.492116 
L 290.669033 148.004913 
L 291.115926 147.815997 
L 291.562819 142.159887 
L 292.009712 153.936888 
L 292.456605 146.855227 
L 292.903498 144.36782 
L 293.350391 147.71091 
L 293.797284 148.951749 
L 294.244177 140.886188 
L 294.69107 143.490178 
L 295.137963 143.857697 
L 295.584856 140.712367 
L 296.478642 140.652074 
L 296.925535 141.680039 
L 297.372428 135.005061 
L 297.819321 149.98517 
L 298.266214 143.956324 
L 298.713107 147.008436 
L 299.16 148.026425 
L 299.606894 147.188084 
L 300.053787 154.898709 
L 300.947573 143.445989 
L 301.394466 141.696917 
L 301.841359 143.463281 
L 302.288252 143.013905 
L 302.735145 143.866443 
L 303.182038 144.309651 
L 303.628931 145.636389 
L 304.075824 149.960759 
L 304.522717 151.205269 
L 304.96961 146.87464 
L 305.416503 147.546302 
L 305.863396 150.197933 
L 306.310289 139.723161 
L 306.757182 142.438234 
L 307.204075 138.887773 
L 307.650968 149.266849 
L 308.097861 137.840142 
L 308.544754 141.245021 
L 308.991647 151.758351 
L 309.43854 146.336059 
L 309.885433 167.01428 
L 310.332327 169.16825 
L 311.226113 164.615945 
L 311.673006 164.669671 
L 312.119899 162.752169 
L 312.566792 162.654646 
L 313.460578 145.547671 
L 313.907471 150.98211 
L 314.354364 151.393128 
L 314.801257 153.440479 
L 315.24815 149.037619 
L 315.695043 145.868684 
L 316.141936 145.741611 
L 316.588829 156.832523 
L 317.035722 150.932247 
L 317.482615 138.706444 
L 317.929508 139.665691 
L 318.376401 134.761328 
L 318.823294 135.868621 
L 319.270187 119.371113 
L 319.71708 128.221563 
L 320.610866 120.23936 
L 321.057759 126.320212 
L 321.504653 136.212362 
L 321.951546 129.059526 
L 322.398439 147.303523 
L 322.845332 135.150427 
L 323.292225 128.649681 
L 323.739118 134.449881 
L 324.186011 130.801286 
L 324.632904 113.798158 
L 325.079797 131.692531 
L 325.52669 120.201201 
L 325.973583 124.158945 
L 326.420476 132.762944 
L 326.867369 121.913534 
L 327.314262 133.738833 
L 327.761155 132.892537 
L 328.208048 135.238782 
L 328.654941 128.871195 
L 329.101834 134.911047 
L 329.548727 133.24942 
L 329.99562 128.755608 
L 330.442513 127.777925 
L 330.889406 133.226862 
L 331.783192 125.650254 
L 332.230086 135.770078 
L 332.676979 125.991634 
L 333.123872 123.975341 
L 333.570765 138.249868 
L 334.017658 128.191791 
L 334.464551 123.993606 
L 334.911444 136.743799 
L 335.358337 136.11889 
L 335.80523 138.407308 
L 336.252123 131.725086 
L 336.699016 136.282455 
L 337.145909 137.164525 
L 337.592802 141.998575 
L 338.039695 144.69575 
L 338.486588 131.186012 
L 338.933481 128.170515 
L 339.380374 143.042905 
L 339.827267 145.725867 
L 340.27416 127.880216 
L 340.721053 152.726371 
L 341.167946 142.275211 
L 341.614839 146.972764 
L 342.061732 154.027035 
L 342.508625 136.562675 
L 342.955518 137.676255 
L 343.849305 134.930941 
L 344.296198 147.956055 
L 344.743091 143.540965 
L 345.189984 142.638809 
L 346.08377 130.645534 
L 346.530663 115.434158 
L 347.424449 149.601448 
L 347.871342 136.461191 
L 348.318235 117.218956 
L 349.212021 113.394387 
L 349.658914 120.332093 
L 350.105807 115.283785 
L 350.5527 99.444798 
L 350.999593 115.418378 
L 351.446486 114.047212 
L 351.893379 111.737518 
L 352.340272 99.525961 
L 352.787165 94.552632 
L 353.234058 91.738279 
L 353.680951 94.524025 
L 354.127845 86.676015 
L 354.574738 102.317585 
L 355.021631 93.96153 
L 355.468524 99.82246 
L 355.915417 113.585383 
L 356.36231 110.725158 
L 356.809203 112.079217 
L 357.256096 120.474434 
L 357.702989 120.443965 
L 358.149882 112.500848 
L 358.596775 109.396314 
L 359.043668 111.808605 
L 359.490561 125.012527 
L 359.937454 115.098931 
L 360.384347 119.854752 
L 360.83124 104.612926 
L 361.278133 114.589966 
L 362.171919 106.518231 
L 362.618812 109.958743 
L 363.065705 114.835886 
L 363.512598 132.087952 
L 363.959491 118.814709 
L 364.406384 119.844583 
L 364.853278 110.294818 
L 365.300171 114.201605 
L 365.747064 107.827843 
L 366.193957 115.799416 
L 366.64085 130.152087 
L 367.534636 113.115845 
L 367.981529 119.541773 
L 368.428422 124.258815 
L 368.875315 125.314186 
L 369.322208 128.335263 
L 369.769101 121.45593 
L 370.215994 119.109687 
L 370.662887 113.794382 
L 371.556673 108.069551 
L 372.003566 101.595893 
L 372.450459 104.803612 
L 372.897352 102.418881 
L 373.344245 115.485424 
L 373.791138 89.320245 
L 374.238031 103.674347 
L 374.684924 91.050954 
L 375.131817 98.640953 
L 375.57871 104.201169 
L 376.025604 101.703441 
L 376.472497 103.590178 
L 376.91939 102.952152 
L 377.366283 103.701274 
L 377.813176 113.023404 
L 378.260069 102.126421 
L 378.706962 108.711425 
L 379.153855 113.555889 
L 379.600748 113.009056 
L 380.047641 106.186943 
L 380.494534 101.711907 
L 380.941427 111.557666 
L 381.38832 100.885351 
L 382.282106 112.684244 
L 382.728999 111.804359 
L 383.175892 106.929185 
L 383.622785 108.2355 
L 384.069678 97.863885 
L 384.516571 108.705753 
L 384.963464 100.068334 
L 385.410357 104.482258 
L 385.85725 98.96177 
L 386.304143 113.469018 
L 387.19793 103.237579 
L 387.644823 95.876631 
L 388.091716 106.314531 
L 388.538609 102.680027 
L 388.985502 112.050925 
L 389.432395 110.533197 
L 389.879288 102.78135 
L 390.326181 110.347493 
L 390.773074 89.185598 
L 391.219967 103.279275 
L 391.66686 100.098179 
L 392.113753 97.828247 
L 392.560646 102.509841 
L 393.007539 118.347079 
L 393.454432 104.274282 
L 393.901325 102.739799 
L 394.348218 97.358432 
L 394.795111 99.559548 
L 395.242004 100.401499 
L 395.688897 106.916129 
L 396.13579 115.239327 
L 396.582683 108.781677 
L 397.029576 92.10379 
L 397.476469 98.272019 
L 397.923363 116.064371 
L 398.817149 91.81715 
L 399.264042 97.973408 
L 399.710935 91.787033 
L 400.604721 120.828229 
L 401.051614 112.47258 
L 401.498507 111.885566 
L 401.9454 117.727315 
L 402.392293 94.875533 
L 403.286079 103.133139 
L 403.732972 111.009507 
L 404.179865 102.261413 
L 404.626758 105.384909 
L 405.073651 97.841565 
L 405.520544 102.620752 
L 405.967437 101.979568 
L 406.41433 102.057634 
L 406.861223 104.554442 
L 407.308116 101.994034 
L 407.755009 94.2775 
L 408.201902 99.122471 
L 408.648796 113.371514 
L 409.095689 114.879903 
L 409.542582 109.322018 
L 409.989475 114.507855 
L 410.436368 116.308155 
L 410.883261 105.499523 
L 411.330154 100.147412 
L 411.777047 102.73055 
L 412.670833 114.230167 
L 413.117726 115.46349 
L 413.564619 93.660077 
L 414.011512 94.395503 
L 414.458405 111.331541 
L 414.905298 105.479151 
L 415.352191 113.207501 
L 415.799084 117.954157 
L 416.245977 113.835041 
L 416.69287 129.313385 
L 417.139763 132.383631 
L 417.586656 129.091117 
L 418.033549 111.940046 
L 418.480442 129.785349 
L 418.927335 134.652292 
L 419.821122 125.714452 
L 420.268015 123.388661 
L 420.714908 124.462982 
L 421.161801 113.861255 
L 421.608694 137.217324 
L 422.055587 116.929591 
L 422.50248 121.679932 
L 422.949373 122.155958 
L 423.396266 123.524667 
L 424.290052 129.48989 
L 424.736945 119.849463 
L 425.183838 125.973599 
L 425.630731 116.040306 
L 426.077624 116.25698 
L 426.524517 124.473008 
L 426.97141 118.850175 
L 427.418303 116.644648 
L 427.865196 101.418631 
L 428.312089 123.881659 
L 428.758982 111.150262 
L 429.205875 103.899564 
L 429.652768 99.688003 
L 430.546555 109.715714 
L 430.993448 120.049185 
L 431.440341 120.709738 
L 431.887234 96.530503 
L 432.334127 98.567861 
L 432.78102 100.052155 
L 433.227913 91.786448 
L 433.674806 97.267876 
L 434.121699 108.157407 
L 434.568592 124.152453 
L 435.015485 101.012485 
L 435.462378 105.248194 
L 435.909271 117.33612 
L 436.356164 98.910009 
L 436.803057 103.849604 
L 437.24995 106.027701 
L 437.696843 115.557428 
L 438.143736 106.864235 
L 438.590629 114.390344 
L 439.037522 146.497014 
L 439.484415 141.097884 
L 439.931308 122.189721 
L 440.378201 124.506099 
L 440.825094 130.429929 
L 441.271988 115.353834 
L 441.718881 123.10366 
L 442.165774 115.135825 
L 442.612667 112.125659 
L 443.05956 128.041901 
L 443.506453 119.667208 
L 443.953346 114.309669 
L 444.400239 123.252679 
L 445.294025 109.735576 
L 445.740918 124.565366 
L 446.187811 119.491956 
L 446.634704 133.543865 
L 447.081597 134.737986 
L 447.52849 141.212479 
L 447.975383 120.012895 
L 448.422276 118.637983 
L 448.869169 104.886765 
L 449.316062 135.804662 
L 449.762955 137.231517 
L 450.209848 130.676518 
L 450.656741 137.760893 
L 451.103634 137.362497 
L 451.550527 137.926157 
L 451.99742 133.272439 
L 452.444314 144.686023 
L 452.891207 142.736651 
L 453.3381 129.3692 
L 453.784993 125.548156 
L 454.231886 126.726853 
L 454.678779 129.208266 
L 455.125672 143.898462 
L 455.572565 123.539036 
L 456.019458 116.43388 
L 456.466351 165.124938 
L 456.913244 133.30206 
L 457.360137 109.843275 
L 457.80703 130.760546 
L 458.253923 136.927576 
L 458.700816 132.960385 
L 459.147709 140.497993 
L 459.594602 135.186312 
L 460.041495 146.069913 
L 460.488388 161.772652 
L 460.935281 165.780536 
L 461.382174 161.538145 
L 461.829067 151.092315 
L 462.27596 149.646854 
L 462.722853 131.740165 
L 463.169747 143.727741 
L 463.61664 140.312043 
L 464.063533 146.6248 
L 464.510426 145.821123 
L 464.957319 154.069465 
L 465.404212 137.958412 
L 466.297998 154.585319 
L 466.744891 145.510336 
L 467.191784 139.997266 
L 467.638677 135.922041 
L 468.08557 173.056447 
L 468.532463 162.463652 
L 468.979356 143.358214 
L 469.873142 158.541029 
L 470.320035 137.245892 
L 470.766928 151.998615 
L 471.213821 153.154807 
L 471.660714 145.003707 
L 472.107607 169.227233 
L 472.5545 163.681843 
L 473.001393 147.457408 
L 473.448286 157.258992 
L 473.895179 162.356694 
L 474.342073 148.609556 
L 474.788966 142.65553 
L 475.235859 143.405718 
L 475.682752 135.707974 
L 476.129645 136.454589 
L 476.576538 131.133225 
L 477.023431 142.052163 
L 477.470324 140.446291 
L 477.917217 144.512433 
L 478.811003 139.414949 
L 479.257896 143.570146 
L 479.704789 137.823208 
L 480.151682 148.867709 
L 480.598575 134.912652 
L 481.045468 142.086592 
L 481.492361 136.378339 
L 481.939254 142.938913 
L 482.386147 130.879439 
L 482.83304 131.007215 
L 483.279933 137.589681 
L 483.726826 129.302929 
L 484.173719 137.029343 
L 484.620612 133.903421 
L 485.067506 122.332439 
L 485.514399 131.239844 
L 485.961292 136.922731 
L 486.408185 121.710099 
L 486.855078 123.313973 
L 487.301971 122.05539 
L 487.748864 127.024764 
L 488.195757 125.613657 
L 488.64265 121.718572 
L 489.089543 128.201997 
L 489.536436 124.325202 
L 489.983329 109.853978 
L 490.430222 113.166797 
L 490.877115 102.751137 
L 491.324008 112.923641 
L 491.770901 111.892722 
L 492.217794 118.28296 
L 492.664687 114.661393 
L 493.11158 126.256194 
L 493.558473 120.240051 
L 494.005366 127.342055 
L 494.452259 115.259003 
L 494.899152 107.517793 
L 495.346045 108.924121 
L 495.792938 117.683475 
L 496.239832 109.172481 
L 496.686725 118.596663 
L 497.133618 114.961683 
L 497.580511 110.316006 
L 498.027404 114.922589 
L 498.474297 100.067756 
L 498.92119 115.546705 
L 499.368083 110.976544 
L 499.814976 103.145698 
L 500.261869 118.474366 
L 500.708762 115.450109 
L 501.155655 111.249176 
L 501.602548 132.714344 
L 502.049441 123.32437 
L 502.943227 129.03677 
L 503.39012 126.795929 
L 503.837013 132.923612 
L 504.283906 128.075737 
L 504.730799 116.94377 
L 505.177692 129.389423 
L 505.624585 137.370875 
L 506.071478 127.949636 
L 506.518371 128.358802 
L 506.965265 127.486291 
L 507.412158 129.809638 
L 507.859051 132.762969 
L 508.305944 123.116287 
L 508.752837 130.017669 
L 509.19973 118.972903 
L 509.646623 143.497912 
L 510.093516 123.698059 
L 510.540409 128.220255 
L 510.987302 119.960663 
L 511.434195 124.946446 
L 511.881088 119.917606 
L 512.327981 112.902455 
L 512.774874 116.049075 
L 513.221767 118.378705 
L 513.66866 108.014059 
L 514.115553 115.288795 
L 514.562446 112.227501 
L 515.009339 101.594048 
L 515.456232 105.230955 
L 515.903125 102.868227 
L 516.350018 105.282252 
L 516.796911 98.719514 
L 517.243804 107.797749 
L 517.690698 110.371729 
L 518.137591 98.23594 
L 518.584484 107.457135 
L 519.031377 102.705217 
L 519.47827 107.377623 
L 519.925163 107.055482 
L 520.372056 106.350629 
L 520.818949 110.58447 
L 521.265842 98.263861 
L 521.712735 105.694705 
L 522.159628 99.660665 
L 522.606521 117.647849 
L 523.053414 107.66285 
L 523.500307 101.143161 
L 523.9472 116.45426 
L 524.394093 103.769004 
L 525.287879 118.007429 
L 525.734772 109.354982 
L 526.181665 109.975595 
L 526.628558 115.858708 
L 527.075451 103.86486 
L 527.522344 103.220873 
L 527.969237 89.295135 
L 528.41613 118.268341 
L 528.41613 118.268341 
" clip-path="url(#p4cb928d726)" style="fill: none; stroke: #000000; stroke-width: 0.7; stroke-linecap: round"/>
   </g>
   <g id="line2d_17">
    <path d="M 103.420849 90.531338 
L 105.208421 91.408499 
L 105.655314 91.309928 
L 106.102207 91.602415 
L 106.5491 92.146085 
L 106.995993 92.91184 
L 107.889779 93.709883 
L 108.336672 93.871747 
L 109.230458 94.64041 
L 110.124244 95.010964 
L 110.571137 95.225427 
L 111.464923 94.886828 
L 112.805602 94.72771 
L 113.252495 94.481921 
L 113.699388 94.629098 
L 114.593175 95.735159 
L 116.380747 99.171434 
L 117.274533 101.728311 
L 117.721426 103.032401 
L 118.615212 104.504142 
L 119.508998 105.178784 
L 119.955891 105.686326 
L 120.849677 107.422917 
L 121.29657 107.956075 
L 123.084142 109.259973 
L 123.977928 109.830339 
L 124.871715 110.853326 
L 125.318608 111.032242 
L 125.765501 111.726134 
L 127.10618 111.72929 
L 127.553073 111.774192 
L 128.446859 112.106614 
L 129.340645 112.274617 
L 129.787538 113.297016 
L 130.681324 114.050119 
L 132.022003 115.949501 
L 132.915789 117.203999 
L 133.362682 118.605803 
L 134.256468 120.250835 
L 134.703361 120.65347 
L 135.150254 120.903923 
L 136.490934 122.097411 
L 136.937827 122.769536 
L 137.38472 122.642537 
L 137.831613 122.642992 
L 138.278506 123.098436 
L 138.725399 123.778541 
L 139.619185 123.49956 
L 140.066078 123.571094 
L 140.959864 124.594949 
L 141.406757 125.631638 
L 142.300543 126.632362 
L 142.747436 126.975221 
L 143.194329 126.996575 
L 143.641222 127.202032 
L 144.088115 127.654548 
L 145.875687 130.017798 
L 147.216367 130.734531 
L 147.66326 131.080169 
L 148.110153 131.275067 
L 148.557046 131.661752 
L 149.003939 132.20863 
L 149.897725 132.782787 
L 150.344618 132.718232 
L 151.238404 133.281441 
L 151.685297 133.887695 
L 152.13219 133.762536 
L 153.025976 135.163331 
L 153.472869 135.432595 
L 154.366655 136.260418 
L 155.707334 137.426582 
L 156.154227 137.733387 
L 156.60112 138.194553 
L 157.9418 140.183378 
L 158.388693 140.561971 
L 159.282479 140.606693 
L 160.176265 141.620414 
L 161.070051 140.89352 
L 161.963837 141.843766 
L 163.751409 142.191623 
L 164.198302 142.500617 
L 165.092088 143.444527 
L 165.538981 144.144592 
L 166.432767 144.970162 
L 167.326553 145.391758 
L 167.773446 146.050634 
L 168.220339 146.483573 
L 169.114126 147.620081 
L 169.561019 147.921396 
L 170.454805 149.450869 
L 170.901698 149.837583 
L 171.795484 151.056458 
L 172.242377 151.064257 
L 172.68927 151.610987 
L 173.583056 151.940867 
L 174.029949 151.692383 
L 174.476842 151.617559 
L 174.923735 151.798634 
L 175.370628 151.430297 
L 175.817521 151.56384 
L 176.264414 151.444398 
L 176.711307 151.201022 
L 177.605093 151.102803 
L 178.051986 151.089027 
L 178.945772 151.584635 
L 179.839559 152.73198 
L 180.286452 152.769569 
L 180.733345 153.213744 
L 181.180238 153.490515 
L 181.627131 154.030026 
L 182.520917 154.613724 
L 183.414703 156.357894 
L 183.861596 156.719532 
L 184.308489 156.882654 
L 184.755382 157.475819 
L 185.202275 157.823741 
L 186.542954 158.03036 
L 186.989847 158.263843 
L 187.43674 158.715653 
L 188.777419 158.99039 
L 189.224312 159.222318 
L 191.011885 158.538592 
L 191.905671 159.150043 
L 192.352564 158.67494 
L 192.799457 158.383484 
L 193.24635 158.282384 
L 193.693243 158.054694 
L 194.140136 157.95732 
L 194.587029 158.17616 
L 195.033922 158.073951 
L 195.480815 158.244227 
L 195.927708 158.064579 
L 196.821494 158.591487 
L 197.268387 158.531636 
L 198.162173 159.113696 
L 199.055959 159.520753 
L 199.502852 159.884763 
L 199.949745 159.651223 
L 200.396638 159.760433 
L 201.290425 159.584792 
L 203.077997 159.878801 
L 203.52489 160.72515 
L 204.418676 160.977167 
L 204.865569 161.201653 
L 206.206248 160.930356 
L 206.653141 161.141171 
L 207.100034 160.713539 
L 207.546927 160.122192 
L 207.99382 159.938809 
L 208.440713 159.203167 
L 208.887606 159.011185 
L 209.334499 159.073387 
L 209.781392 158.807192 
L 210.675178 159.067412 
L 211.122071 159.54531 
L 212.462751 159.514613 
L 212.909644 159.661694 
L 213.356537 160.132524 
L 213.80343 159.736009 
L 214.250323 159.773586 
L 214.697216 160.161551 
L 215.144109 160.313958 
L 216.037895 160.820053 
L 216.484788 161.098606 
L 216.931681 161.606586 
L 217.378574 161.902948 
L 217.825467 162.040099 
L 218.27236 162.315546 
L 219.166146 161.506401 
L 219.613039 161.309281 
L 220.059932 161.448562 
L 220.506825 161.352882 
L 220.953718 161.464508 
L 221.400611 161.327553 
L 221.847504 160.865944 
L 222.294397 161.15944 
L 222.74129 161.274615 
L 223.188184 161.031656 
L 223.635077 161.081128 
L 224.08197 160.762181 
L 224.528863 160.227538 
L 224.975756 160.363292 
L 225.422649 159.974391 
L 225.869542 159.154667 
L 226.316435 158.945351 
L 226.763328 158.356427 
L 227.210221 158.534198 
L 227.657114 158.55873 
L 228.104007 158.371943 
L 228.5509 158.392416 
L 228.997793 157.905007 
L 229.444686 158.178111 
L 229.891579 158.761038 
L 230.338472 159.022082 
L 230.785365 160.416201 
L 231.232258 161.031405 
L 233.01983 161.790422 
L 233.466723 161.843714 
L 233.913617 162.157633 
L 234.36051 162.275905 
L 234.807403 162.523561 
L 235.254296 162.621155 
L 235.701189 162.46497 
L 236.148082 162.657979 
L 236.594975 163.098403 
L 237.041868 163.24591 
L 237.488761 162.981854 
L 238.82944 163.392614 
L 239.723226 163.294963 
L 240.617012 163.604024 
L 241.063905 163.914227 
L 241.957691 163.858549 
L 242.404584 163.511713 
L 242.851477 163.340302 
L 243.29837 162.654394 
L 243.745263 162.82351 
L 245.085943 161.892192 
L 245.532836 162.121229 
L 245.979729 161.908579 
L 246.426622 161.379276 
L 246.873515 161.372368 
L 247.320408 161.022212 
L 248.214194 161.230974 
L 248.661087 161.170585 
L 249.10798 161.486289 
L 249.554873 160.969766 
L 250.001766 160.667777 
L 250.448659 160.758691 
L 250.895552 160.353807 
L 251.342445 160.520498 
L 251.789338 160.030205 
L 252.683124 159.537879 
L 254.470696 157.569706 
L 254.917589 157.464137 
L 255.811376 156.695119 
L 256.258269 156.087885 
L 256.705162 156.28091 
L 257.152055 155.683768 
L 258.045841 155.001559 
L 258.492734 154.882961 
L 258.939627 154.081284 
L 259.38652 153.667741 
L 259.833413 153.875155 
L 260.280306 153.751418 
L 260.727199 153.152366 
L 261.174092 152.838637 
L 261.620985 152.071985 
L 262.067878 151.974309 
L 262.961664 151.289152 
L 263.408557 151.238273 
L 263.85545 151.46062 
L 264.302343 151.395799 
L 264.749236 151.641944 
L 265.196129 151.552592 
L 265.643022 151.938648 
L 266.089915 151.929994 
L 266.536808 152.523911 
L 266.983702 152.642042 
L 267.430595 152.505558 
L 267.877488 152.494567 
L 268.324381 152.19723 
L 268.771274 152.35657 
L 269.218167 152.328855 
L 269.66506 152.461168 
L 270.111953 152.181709 
L 270.558846 152.107186 
L 271.452632 151.230799 
L 272.346418 151.142307 
L 272.793311 150.657698 
L 274.13399 151.014737 
L 275.027776 150.953166 
L 275.474669 150.726489 
L 275.921562 150.791981 
L 276.368455 150.502194 
L 276.815348 150.485747 
L 277.262241 150.082861 
L 277.709135 150.152423 
L 278.156028 149.71116 
L 279.049814 149.528727 
L 279.496707 149.760816 
L 279.9436 149.359338 
L 280.390493 149.4135 
L 280.837386 149.294145 
L 281.284279 149.428214 
L 282.178065 149.103269 
L 282.624958 148.570948 
L 283.071851 148.601112 
L 283.518744 148.40086 
L 283.965637 148.693554 
L 284.859423 148.466255 
L 285.306316 148.56373 
L 285.753209 148.519261 
L 286.200102 148.242836 
L 287.093888 148.031058 
L 287.540781 148.181026 
L 288.881461 147.793177 
L 289.775247 147.708706 
L 290.22214 147.512748 
L 291.115926 147.661151 
L 291.562819 147.464867 
L 292.009712 147.418699 
L 292.456605 147.495243 
L 292.903498 147.280147 
L 293.797284 147.712106 
L 294.69107 147.400473 
L 295.584856 147.306462 
L 296.031749 146.989784 
L 298.266214 146.515406 
L 298.713107 146.661596 
L 299.16 146.632083 
L 300.053787 146.770403 
L 300.50068 147.068385 
L 300.947573 147.0312 
L 301.394466 146.81554 
L 301.841359 146.773147 
L 302.288252 146.948156 
L 303.182038 146.70324 
L 303.628931 146.597791 
L 304.522717 146.784596 
L 305.416503 146.826097 
L 305.863396 146.838881 
L 306.757182 146.498525 
L 307.204075 146.317917 
L 307.650968 146.283365 
L 308.097861 146.069864 
L 308.544754 146.108494 
L 308.991647 146.372179 
L 309.43854 146.273954 
L 309.885433 146.466846 
L 310.77922 147.291852 
L 312.119899 147.979882 
L 313.907471 148.319366 
L 314.354364 148.268491 
L 315.24815 148.493592 
L 316.141936 148.392544 
L 316.588829 148.711471 
L 317.035722 148.860313 
L 318.823294 148.522447 
L 319.270187 148.076269 
L 319.71708 147.940599 
L 321.057759 146.530228 
L 321.504653 146.293947 
L 321.951546 145.931376 
L 322.398439 145.779472 
L 323.739118 145.059089 
L 324.186011 144.805849 
L 324.632904 144.221534 
L 325.079797 143.978056 
L 325.973583 143.066338 
L 326.420476 142.722381 
L 326.867369 142.136547 
L 329.101834 140.913989 
L 329.548727 140.801222 
L 329.99562 140.390997 
L 330.889406 140.02939 
L 332.230086 138.548049 
L 333.123872 136.831643 
L 333.570765 136.304322 
L 334.911444 134.281376 
L 335.358337 133.9185 
L 335.80523 133.775693 
L 337.145909 132.76282 
L 337.592802 132.622039 
L 338.039695 132.59858 
L 338.486588 132.307468 
L 338.933481 131.734228 
L 339.380374 131.576441 
L 339.827267 131.71683 
L 340.27416 131.48112 
L 340.721053 131.840421 
L 341.167946 131.968553 
L 342.061732 133.036695 
L 343.402412 133.836181 
L 343.849305 133.810553 
L 344.296198 134.188484 
L 344.743091 134.113232 
L 345.636877 134.407239 
L 346.08377 134.331152 
L 346.530663 134.02381 
L 347.871342 135.073023 
L 348.318235 134.934223 
L 348.765128 134.588165 
L 349.658914 134.149647 
L 350.105807 133.797472 
L 350.5527 133.081592 
L 350.999593 132.812536 
L 351.893379 131.965021 
L 352.787165 130.715922 
L 354.127845 128.40472 
L 355.021631 127.095068 
L 356.36231 125.769388 
L 357.256096 125.205713 
L 357.702989 124.892215 
L 359.043668 123.438033 
L 359.490561 123.194993 
L 360.83124 121.628719 
L 361.278133 121.357108 
L 363.065705 118.809421 
L 363.512598 118.605676 
L 365.747064 115.797237 
L 367.087743 114.603799 
L 367.534636 114.01334 
L 367.981529 113.686942 
L 368.428422 113.559208 
L 368.875315 113.756808 
L 369.322208 113.681716 
L 369.769101 113.118806 
L 370.215994 112.771775 
L 371.556673 112.510036 
L 372.003566 112.135312 
L 372.450459 111.925708 
L 373.344245 111.986531 
L 373.791138 111.491991 
L 374.684924 111.161228 
L 375.131817 111.242994 
L 376.472497 111.974124 
L 376.91939 111.986815 
L 377.813176 112.445629 
L 378.260069 112.216449 
L 379.600748 112.056401 
L 380.494534 111.555481 
L 380.941427 111.598708 
L 381.38832 111.380243 
L 381.835213 111.009992 
L 382.282106 110.961699 
L 382.728999 110.800691 
L 383.175892 110.847016 
L 383.622785 110.719927 
L 384.069678 110.463641 
L 384.516571 110.507392 
L 385.410357 110.102511 
L 385.85725 109.439987 
L 386.304143 109.333074 
L 387.644823 108.602366 
L 388.091716 108.572099 
L 390.326181 107.351685 
L 390.773074 106.650221 
L 392.560646 104.840231 
L 393.007539 104.931285 
L 394.795111 104.498096 
L 395.242004 104.457748 
L 395.688897 104.286362 
L 396.13579 104.804744 
L 397.029576 104.927947 
L 397.476469 104.920568 
L 397.923363 105.157832 
L 398.370256 105.190686 
L 398.817149 104.955225 
L 399.264042 104.85565 
L 400.157828 104.492595 
L 400.604721 104.866631 
L 401.9454 105.002813 
L 402.392293 104.776585 
L 402.839186 104.724164 
L 403.286079 104.555674 
L 403.732972 104.758157 
L 404.626758 104.527399 
L 405.073651 104.248143 
L 405.967437 104.036856 
L 406.41433 104.120731 
L 406.861223 104.037704 
L 407.308116 104.076218 
L 407.755009 103.872123 
L 408.648796 103.873387 
L 409.542582 104.118846 
L 409.989475 104.49147 
L 410.436368 104.691343 
L 410.883261 104.747733 
L 411.777047 104.35361 
L 412.670833 104.560399 
L 413.117726 105.085957 
L 414.011512 104.77952 
L 414.458405 105.049586 
L 414.905298 105.108972 
L 415.352191 105.00618 
L 416.245977 105.501683 
L 417.586656 107.371056 
L 418.033549 107.471534 
L 418.480442 107.762454 
L 418.927335 108.279867 
L 419.821122 109.586052 
L 420.268015 109.732538 
L 421.161801 110.595758 
L 421.608694 111.380636 
L 422.055587 111.883487 
L 422.50248 112.181388 
L 422.949373 112.207943 
L 424.290052 112.95069 
L 425.183838 113.987823 
L 425.630731 114.245966 
L 426.077624 114.350916 
L 426.524517 114.795148 
L 427.418303 115.440515 
L 427.865196 115.416472 
L 428.312089 115.854514 
L 428.758982 116.036367 
L 429.652768 115.977149 
L 430.993448 116.526829 
L 431.440341 116.643425 
L 432.334127 116.068795 
L 433.227913 115.469414 
L 433.674806 115.411823 
L 434.121699 115.52036 
L 434.568592 115.818646 
L 435.462378 115.349986 
L 435.909271 115.823507 
L 436.356164 115.913797 
L 436.803057 115.764159 
L 437.696843 115.822128 
L 438.143736 115.60033 
L 438.590629 115.611436 
L 439.037522 115.955108 
L 439.484415 116.129393 
L 439.931308 115.991365 
L 440.378201 116.242687 
L 440.825094 116.255578 
L 441.271988 115.869609 
L 442.165774 115.520697 
L 442.612667 115.295437 
L 443.506453 115.483134 
L 443.953346 115.024981 
L 444.400239 115.151443 
L 444.847132 115.056798 
L 445.294025 114.808391 
L 445.740918 114.829205 
L 446.187811 114.694878 
L 446.634704 114.775958 
L 447.52849 115.378506 
L 448.422276 115.505578 
L 448.869169 115.113853 
L 449.762955 115.86468 
L 450.209848 116.449838 
L 450.656741 116.727422 
L 451.550527 117.932199 
L 452.891207 120.068215 
L 453.784993 120.351384 
L 454.678779 121.568119 
L 455.572565 123.080097 
L 456.019458 123.463417 
L 456.466351 124.602768 
L 457.360137 124.962375 
L 458.700816 126.545459 
L 459.594602 127.861599 
L 460.041495 128.471849 
L 460.935281 130.597821 
L 461.829067 131.098532 
L 462.27596 131.647675 
L 462.722853 131.792356 
L 463.169747 132.058312 
L 464.510426 133.641605 
L 464.957319 134.480481 
L 465.404212 134.678812 
L 465.851105 135.198775 
L 466.297998 136.004288 
L 467.638677 137.434161 
L 468.532463 139.263417 
L 468.979356 139.459704 
L 470.320035 140.481656 
L 470.766928 141.148869 
L 471.213821 142.11423 
L 471.660714 142.298211 
L 472.5545 143.598231 
L 473.001393 143.792162 
L 474.342073 144.985445 
L 475.235859 144.958216 
L 476.576538 145.391248 
L 477.023431 145.648126 
L 477.470324 145.579082 
L 478.36411 146.503118 
L 478.811003 145.988918 
L 479.257896 146.19428 
L 479.704789 146.753879 
L 480.151682 147.116022 
L 480.598575 147.075724 
L 481.045468 147.258248 
L 481.492361 147.175855 
L 481.939254 147.330907 
L 482.386147 147.027097 
L 483.726826 145.203267 
L 485.514399 144.169227 
L 485.961292 144.10144 
L 487.301971 142.512722 
L 487.748864 142.294049 
L 488.195757 141.893015 
L 488.64265 141.23568 
L 489.536436 140.576072 
L 489.983329 140.054711 
L 490.877115 137.662667 
L 491.770901 136.266349 
L 492.217794 135.461188 
L 493.11158 134.49465 
L 493.558473 133.836354 
L 494.005366 133.483121 
L 495.346045 130.50981 
L 495.792938 129.7183 
L 496.239832 128.654615 
L 498.474297 125.695242 
L 498.92119 125.383512 
L 501.155655 122.407667 
L 502.049441 121.900574 
L 502.496334 121.442898 
L 502.943227 121.325381 
L 503.39012 121.019568 
L 503.837013 120.950473 
L 504.730799 120.374496 
L 506.518371 120.137287 
L 506.965265 120.008945 
L 507.412158 120.158489 
L 507.859051 120.188951 
L 508.305944 119.912822 
L 508.752837 120.078974 
L 509.19973 119.992152 
L 509.646623 120.421003 
L 510.093516 120.354469 
L 510.987302 120.371443 
L 512.327981 120.279149 
L 512.774874 120.336795 
L 513.221767 120.649346 
L 513.66866 120.551154 
L 514.115553 120.619076 
L 514.562446 120.497967 
L 515.009339 120.23662 
L 516.796911 118.696693 
L 517.690698 118.731244 
L 518.137591 118.342293 
L 518.584484 118.307986 
L 519.031377 117.990157 
L 520.372056 117.601827 
L 520.818949 117.812161 
L 521.265842 117.466504 
L 522.159628 117.291167 
L 522.606521 117.274636 
L 523.500307 116.916771 
L 527.075451 114.371636 
L 527.522344 113.848265 
L 527.969237 112.886751 
L 528.41613 112.693125 
L 528.41613 112.693125 
" clip-path="url(#p4cb928d726)" style="fill: none; stroke-dasharray: 2.96,1.28; stroke-dashoffset: 0; stroke: #ff0000; stroke-width: 0.8"/>
   </g>
   <g id="patch_3">
    <path d="M 59.178438 200.648125 
L 59.178438 55.609187 
" style="fill: none; stroke: #ffffff; stroke-width: 1.25; stroke-linejoin: miter; stroke-linecap: square"/>
   </g>
   <g id="patch_4">
    <path d="M 550.760783 200.648125 
L 550.760783 55.609187 
" style="fill: none; stroke: #ffffff; stroke-width: 1.25; stroke-linejoin: miter; stroke-linecap: square"/>
   </g>
   <g id="patch_5">
    <path d="M 59.178438 200.648125 
L 550.760783 200.648125 
" style="fill: none; stroke: #ffffff; stroke-width: 1.25; stroke-linejoin: miter; stroke-linecap: square"/>
   </g>
   <g id="patch_6">
    <path d="M 59.178438 55.609187 
L 550.760783 55.609187 
" style="fill: none; stroke: #ffffff; stroke-width: 1.25; stroke-linejoin: miter; stroke-linecap: square"/>
   </g>
   <g id="legend_1">
    <g id="patch_7">
     <path d="M 478.921095 196.148125 
L 544.460783 196.148125 
Q 546.260783 196.148125 546.260783 194.348125 
L 546.260783 168.8275 
Q 546.260783 167.0275 544.460783 167.0275 
L 478.921095 167.0275 
Q 477.121095 167.0275 477.121095 168.8275 
L 477.121095 194.348125 
Q 477.121095 196.148125 478.921095 196.148125 
z
" style="fill: #eaeaf2; opacity: 0.8; stroke: #cccccc; stroke-linejoin: miter"/>
    </g>
    <g id="line2d_18">
     <path d="M 480.721095 174.316094 
L 489.721095 174.316094 
L 498.721095 174.316094 
" style="fill: none; stroke: #000000; stroke-width: 0.7; stroke-linecap: round"/>
    </g>
    <g id="text_18">
     <!-- TOTAL -->
     <g style="fill: #262626" transform="translate(505.921095 177.466094)scale(0.09 -0.09)">
      <defs>
       <path id="DejaVuSans-54" d="M -19 4666 
L 3928 4666 
L 3928 4134 
L 2272 4134 
L 2272 0 
L 1638 0 
L 1638 4134 
L -19 4134 
L -19 4666 
z
" transform="scale(0.015625)"/>
       <path id="DejaVuSans-4f" d="M 2522 4238 
Q 1834 4238 1429 3725 
Q 1025 3213 1025 2328 
Q 1025 1447 1429 934 
Q 1834 422 2522 422 
Q 3209 422 3611 934 
Q 4013 1447 4013 2328 
Q 4013 3213 3611 3725 
Q 3209 4238 2522 4238 
z
M 2522 4750 
Q 3503 4750 4090 4092 
Q 4678 3434 4678 2328 
Q 4678 1225 4090 567 
Q 3503 -91 2522 -91 
Q 1538 -91 948 565 
Q 359 1222 359 2328 
Q 359 3434 948 4092 
Q 1538 4750 2522 4750 
z
" transform="scale(0.015625)"/>
       <path id="DejaVuSans-41" d="M 2188 4044 
L 1331 1722 
L 3047 1722 
L 2188 4044 
z
M 1831 4666 
L 2547 4666 
L 4325 0 
L 3669 0 
L 3244 1197 
L 1141 1197 
L 716 0 
L 50 0 
L 1831 4666 
z
" transform="scale(0.015625)"/>
       <path id="DejaVuSans-4c" d="M 628 4666 
L 1259 4666 
L 1259 531 
L 3531 531 
L 3531 0 
L 628 0 
L 628 4666 
z
" transform="scale(0.015625)"/>
      </defs>
      <use xlink:href="#DejaVuSans-54"/>
      <use xlink:href="#DejaVuSans-4f" x="61.083984"/>
      <use xlink:href="#DejaVuSans-54" x="139.794922"/>
      <use xlink:href="#DejaVuSans-41" x="193.128906"/>
      <use xlink:href="#DejaVuSans-4c" x="261.537109"/>
     </g>
    </g>
    <g id="line2d_19">
     <path d="M 480.721095 187.526406 
L 489.721095 187.526406 
L 498.721095 187.526406 
" style="fill: none; stroke-dasharray: 2.96,1.28; stroke-dashoffset: 0; stroke: #ff0000; stroke-width: 0.8"/>
    </g>
    <g id="text_19">
     <!-- Mov. Av. -->
     <g style="fill: #262626" transform="translate(505.921095 190.676406)scale(0.09 -0.09)">
      <defs>
       <path id="DejaVuSans-4d" d="M 628 4666 
L 1569 4666 
L 2759 1491 
L 3956 4666 
L 4897 4666 
L 4897 0 
L 4281 0 
L 4281 4097 
L 3078 897 
L 2444 897 
L 1241 4097 
L 1241 0 
L 628 0 
L 628 4666 
z
" transform="scale(0.015625)"/>
       <path id="DejaVuSans-76" d="M 191 3500 
L 800 3500 
L 1894 563 
L 2988 3500 
L 3597 3500 
L 2284 0 
L 1503 0 
L 191 3500 
z
" transform="scale(0.015625)"/>
       <path id="DejaVuSans-2e" d="M 684 794 
L 1344 794 
L 1344 0 
L 684 0 
L 684 794 
z
" transform="scale(0.015625)"/>
      </defs>
      <use xlink:href="#DejaVuSans-4d"/>
      <use xlink:href="#DejaVuSans-6f" x="86.279297"/>
      <use xlink:href="#DejaVuSans-76" x="147.460938"/>
      <use xlink:href="#DejaVuSans-2e" x="198.890625"/>
      <use xlink:href="#DejaVuSans-20" x="230.677734"/>
      <use xlink:href="#DejaVuSans-41" x="262.464844"/>
      <use xlink:href="#DejaVuSans-76" x="324.998047"/>
      <use xlink:href="#DejaVuSans-2e" x="376.427734"/>
     </g>
    </g>
   </g>
  </g>
  <g id="text_20">
   <!-- Energetic Components -->
   <g style="fill: #262626" transform="translate(208.277656 15.605813)scale(0.14 -0.14)">
    <defs>
     <path id="DejaVuSans-74" d="M 1172 4494 
L 1172 3500 
L 2356 3500 
L 2356 3053 
L 1172 3053 
L 1172 1153 
Q 1172 725 1289 603 
Q 1406 481 1766 481 
L 2356 481 
L 2356 0 
L 1766 0 
Q 1100 0 847 248 
Q 594 497 594 1153 
L 594 3053 
L 172 3053 
L 172 3500 
L 594 3500 
L 594 4494 
L 1172 4494 
z
" transform="scale(0.015625)"/>
     <path id="DejaVuSans-69" d="M 603 3500 
L 1178 3500 
L 1178 0 
L 603 0 
L 603 3500 
z
M 603 4863 
L 1178 4863 
L 1178 4134 
L 603 4134 
L 603 4863 
z
" transform="scale(0.015625)"/>
     <path id="DejaVuSans-43" d="M 4122 4306 
L 4122 3641 
Q 3803 3938 3442 4084 
Q 3081 4231 2675 4231 
Q 1875 4231 1450 3742 
Q 1025 3253 1025 2328 
Q 1025 1406 1450 917 
Q 1875 428 2675 428 
Q 3081 428 3442 575 
Q 3803 722 4122 1019 
L 4122 359 
Q 3791 134 3420 21 
Q 3050 -91 2638 -91 
Q 1578 -91 968 557 
Q 359 1206 359 2328 
Q 359 3453 968 4101 
Q 1578 4750 2638 4750 
Q 3056 4750 3426 4639 
Q 3797 4528 4122 4306 
z
" transform="scale(0.015625)"/>
     <path id="DejaVuSans-70" d="M 1159 525 
L 1159 -1331 
L 581 -1331 
L 581 3500 
L 1159 3500 
L 1159 2969 
Q 1341 3281 1617 3432 
Q 1894 3584 2278 3584 
Q 2916 3584 3314 3078 
Q 3713 2572 3713 1747 
Q 3713 922 3314 415 
Q 2916 -91 2278 -91 
Q 1894 -91 1617 61 
Q 1341 213 1159 525 
z
M 3116 1747 
Q 3116 2381 2855 2742 
Q 2594 3103 2138 3103 
Q 1681 3103 1420 2742 
Q 1159 2381 1159 1747 
Q 1159 1113 1420 752 
Q 1681 391 2138 391 
Q 2594 391 2855 752 
Q 3116 1113 3116 1747 
z
" transform="scale(0.015625)"/>
    </defs>
    <use xlink:href="#DejaVuSans-45"/>
    <use xlink:href="#DejaVuSans-6e" x="63.183594"/>
    <use xlink:href="#DejaVuSans-65" x="126.5625"/>
    <use xlink:href="#DejaVuSans-72" x="188.085938"/>
    <use xlink:href="#DejaVuSans-67" x="227.449219"/>
    <use xlink:href="#DejaVuSans-65" x="290.925781"/>
    <use xlink:href="#DejaVuSans-74" x="352.449219"/>
    <use xlink:href="#DejaVuSans-69" x="391.658203"/>
    <use xlink:href="#DejaVuSans-63" x="419.441406"/>
    <use xlink:href="#DejaVuSans-20" x="474.421875"/>
    <use xlink:href="#DejaVuSans-43" x="506.208984"/>
    <use xlink:href="#DejaVuSans-6f" x="576.033203"/>
    <use xlink:href="#DejaVuSans-6d" x="637.214844"/>
    <use xlink:href="#DejaVuSans-70" x="734.626953"/>
    <use xlink:href="#DejaVuSans-6f" x="798.103516"/>
    <use xlink:href="#DejaVuSans-6e" x="859.285156"/>
    <use xlink:href="#DejaVuSans-65" x="922.664062"/>
    <use xlink:href="#DejaVuSans-6e" x="984.1875"/>
    <use xlink:href="#DejaVuSans-74" x="1047.566406"/>
    <use xlink:href="#DejaVuSans-73" x="1086.775391"/>
   </g>
   <!-- System-1 | Normal | GB | Delta | TOTAL -->
   <g style="fill: #262626" transform="translate(151.249531 31.35625)scale(0.14 -0.14)">
    <defs>
     <path id="DejaVuSans-53" d="M 3425 4513 
L 3425 3897 
Q 3066 4069 2747 4153 
Q 2428 4238 2131 4238 
Q 1616 4238 1336 4038 
Q 1056 3838 1056 3469 
Q 1056 3159 1242 3001 
Q 1428 2844 1947 2747 
L 2328 2669 
Q 3034 2534 3370 2195 
Q 3706 1856 3706 1288 
Q 3706 609 3251 259 
Q 2797 -91 1919 -91 
Q 1588 -91 1214 -16 
Q 841 59 441 206 
L 441 856 
Q 825 641 1194 531 
Q 1563 422 1919 422 
Q 2459 422 2753 634 
Q 3047 847 3047 1241 
Q 3047 1584 2836 1778 
Q 2625 1972 2144 2069 
L 1759 2144 
Q 1053 2284 737 2584 
Q 422 2884 422 3419 
Q 422 4038 858 4394 
Q 1294 4750 2059 4750 
Q 2388 4750 2728 4690 
Q 3069 4631 3425 4513 
z
" transform="scale(0.015625)"/>
     <path id="DejaVuSans-2d" d="M 313 2009 
L 1997 2009 
L 1997 1497 
L 313 1497 
L 313 2009 
z
" transform="scale(0.015625)"/>
     <path id="DejaVuSans-7c" d="M 1344 4891 
L 1344 -1509 
L 813 -1509 
L 813 4891 
L 1344 4891 
z
" transform="scale(0.015625)"/>
     <path id="DejaVuSans-4e" d="M 628 4666 
L 1478 4666 
L 3547 763 
L 3547 4666 
L 4159 4666 
L 4159 0 
L 3309 0 
L 1241 3903 
L 1241 0 
L 628 0 
L 628 4666 
z
" transform="scale(0.015625)"/>
     <path id="DejaVuSans-47" d="M 3809 666 
L 3809 1919 
L 2778 1919 
L 2778 2438 
L 4434 2438 
L 4434 434 
Q 4069 175 3628 42 
Q 3188 -91 2688 -91 
Q 1594 -91 976 548 
Q 359 1188 359 2328 
Q 359 3472 976 4111 
Q 1594 4750 2688 4750 
Q 3144 4750 3555 4637 
Q 3966 4525 4313 4306 
L 4313 3634 
Q 3963 3931 3569 4081 
Q 3175 4231 2741 4231 
Q 1884 4231 1454 3753 
Q 1025 3275 1025 2328 
Q 1025 1384 1454 906 
Q 1884 428 2741 428 
Q 3075 428 3337 486 
Q 3600 544 3809 666 
z
" transform="scale(0.015625)"/>
     <path id="DejaVuSans-42" d="M 1259 2228 
L 1259 519 
L 2272 519 
Q 2781 519 3026 730 
Q 3272 941 3272 1375 
Q 3272 1813 3026 2020 
Q 2781 2228 2272 2228 
L 1259 2228 
z
M 1259 4147 
L 1259 2741 
L 2194 2741 
Q 2656 2741 2882 2914 
Q 3109 3088 3109 3444 
Q 3109 3797 2882 3972 
Q 2656 4147 2194 4147 
L 1259 4147 
z
M 628 4666 
L 2241 4666 
Q 2963 4666 3353 4366 
Q 3744 4066 3744 3513 
Q 3744 3084 3544 2831 
Q 3344 2578 2956 2516 
Q 3422 2416 3680 2098 
Q 3938 1781 3938 1306 
Q 3938 681 3513 340 
Q 3088 0 2303 0 
L 628 0 
L 628 4666 
z
" transform="scale(0.015625)"/>
     <path id="DejaVuSans-44" d="M 1259 4147 
L 1259 519 
L 2022 519 
Q 2988 519 3436 956 
Q 3884 1394 3884 2338 
Q 3884 3275 3436 3711 
Q 2988 4147 2022 4147 
L 1259 4147 
z
M 628 4666 
L 1925 4666 
Q 3281 4666 3915 4102 
Q 4550 3538 4550 2338 
Q 4550 1131 3912 565 
Q 3275 0 1925 0 
L 628 0 
L 628 4666 
z
" transform="scale(0.015625)"/>
    </defs>
    <use xlink:href="#DejaVuSans-53"/>
    <use xlink:href="#DejaVuSans-79" x="63.476562"/>
    <use xlink:href="#DejaVuSans-73" x="122.65625"/>
    <use xlink:href="#DejaVuSans-74" x="174.755859"/>
    <use xlink:href="#DejaVuSans-65" x="213.964844"/>
    <use xlink:href="#DejaVuSans-6d" x="275.488281"/>
    <use xlink:href="#DejaVuSans-2d" x="372.900391"/>
    <use xlink:href="#DejaVuSans-31" x="408.984375"/>
    <use xlink:href="#DejaVuSans-20" x="472.607422"/>
    <use xlink:href="#DejaVuSans-7c" x="504.394531"/>
    <use xlink:href="#DejaVuSans-20" x="538.085938"/>
    <use xlink:href="#DejaVuSans-4e" x="569.873047"/>
    <use xlink:href="#DejaVuSans-6f" x="644.677734"/>
    <use xlink:href="#DejaVuSans-72" x="705.859375"/>
    <use xlink:href="#DejaVuSans-6d" x="745.222656"/>
    <use xlink:href="#DejaVuSans-61" x="842.634766"/>
    <use xlink:href="#DejaVuSans-6c" x="903.914062"/>
    <use xlink:href="#DejaVuSans-20" x="931.697266"/>
    <use xlink:href="#DejaVuSans-7c" x="963.484375"/>
    <use xlink:href="#DejaVuSans-20" x="997.175781"/>
    <use xlink:href="#DejaVuSans-47" x="1028.962891"/>
    <use xlink:href="#DejaVuSans-42" x="1106.453125"/>
    <use xlink:href="#DejaVuSans-20" x="1175.056641"/>
    <use xlink:href="#DejaVuSans-7c" x="1206.84375"/>
    <use xlink:href="#DejaVuSans-20" x="1240.535156"/>
    <use xlink:href="#DejaVuSans-44" x="1272.322266"/>
    <use xlink:href="#DejaVuSans-65" x="1349.324219"/>
    <use xlink:href="#DejaVuSans-6c" x="1410.847656"/>
    <use xlink:href="#DejaVuSans-74" x="1438.630859"/>
    <use xlink:href="#DejaVuSans-61" x="1477.839844"/>
    <use xlink:href="#DejaVuSans-20" x="1539.119141"/>
    <use xlink:href="#DejaVuSans-7c" x="1570.90625"/>
    <use xlink:href="#DejaVuSans-20" x="1604.597656"/>
    <use xlink:href="#DejaVuSans-54" x="1636.384766"/>
    <use xlink:href="#DejaVuSans-4f" x="1697.46875"/>
    <use xlink:href="#DejaVuSans-54" x="1776.179688"/>
    <use xlink:href="#DejaVuSans-41" x="1829.513672"/>
    <use xlink:href="#DejaVuSans-4c" x="1897.921875"/>
   </g>
  </g>
 </g>
 <defs>
  <clipPath id="p4cb928d726">
   <rect x="59.178438" y="55.609187" width="491.582345" height="145.038938"/>
  </clipPath>
 </defs>
</svg>
