<?xml version="1.0" encoding="utf-8" standalone="no"?>
<!DOCTYPE svg PUBLIC "-//W3C//DTD SVG 1.1//EN"
  "http://www.w3.org/Graphics/SVG/1.1/DTD/svg11.dtd">
<svg xmlns:xlink="http://www.w3.org/1999/xlink" width="576pt" height="248.4pt" viewBox="0 0 576 248.4" xmlns="http://www.w3.org/2000/svg" version="1.1">
 <metadata>
  <rdf:RDF xmlns:dc="http://purl.org/dc/elements/1.1/" xmlns:cc="http://creativecommons.org/ns#" xmlns:rdf="http://www.w3.org/1999/02/22-rdf-syntax-ns#">
   <cc:Work>
    <dc:type rdf:resource="http://purl.org/dc/dcmitype/StillImage"/>
    <dc:date>2024-10-20T17:19:38.709529</dc:date>
    <dc:format>image/svg+xml</dc:format>
    <dc:creator>
     <cc:Agent>
      <dc:title>Matplotlib v3.5.2, https://matplotlib.org/</dc:title>
     </cc:Agent>
    </dc:creator>
   </cc:Work>
  </rdf:RDF>
 </metadata>
 <defs>
  <style type="text/css">*{stroke-linejoin: round; stroke-linecap: butt}</style>
 </defs>
 <g id="figure_1">
  <g id="patch_1">
   <path d="M 0 248.4 
L 576 248.4 
L 576 0 
L 0 0 
z
" style="fill: #ffffff"/>
  </g>
  <g id="axes_1">
   <g id="patch_2">
    <path d="M 59.178438 200.648125 
L 550.760783 200.648125 
L 550.760783 55.609187 
L 59.178438 55.609187 
z
" style="fill: #eaeaf2"/>
   </g>
   <g id="matplotlib.axis_1">
    <g id="xtick_1">
     <g id="line2d_1">
      <path d="M 81.076197 200.648125 
L 81.076197 55.609187 
" clip-path="url(#p0f9a94a824)" style="fill: none; stroke: #ffffff; stroke-linecap: round"/>
     </g>
     <g id="text_1">
      <!-- 0 -->
      <g style="fill: #262626" transform="translate(77.894947 217.746562)scale(0.1 -0.1)">
       <defs>
        <path id="DejaVuSans-30" d="M 2034 4250 
Q 1547 4250 1301 3770 
Q 1056 3291 1056 2328 
Q 1056 1369 1301 889 
Q 1547 409 2034 409 
Q 2525 409 2770 889 
Q 3016 1369 3016 2328 
Q 3016 3291 2770 3770 
Q 2525 4250 2034 4250 
z
M 2034 4750 
Q 2819 4750 3233 4129 
Q 3647 3509 3647 2328 
Q 3647 1150 3233 529 
Q 2819 -91 2034 -91 
Q 1250 -91 836 529 
Q 422 1150 422 2328 
Q 422 3509 836 4129 
Q 1250 4750 2034 4750 
z
" transform="scale(0.015625)"/>
       </defs>
       <use xlink:href="#DejaVuSans-30"/>
      </g>
     </g>
    </g>
    <g id="xtick_2">
     <g id="line2d_2">
      <path d="M 148.110153 200.648125 
L 148.110153 55.609187 
" clip-path="url(#p0f9a94a824)" style="fill: none; stroke: #ffffff; stroke-linecap: round"/>
     </g>
     <g id="text_2">
      <!-- 150 -->
      <g style="fill: #262626" transform="translate(138.566403 217.746562)scale(0.1 -0.1)">
       <defs>
        <path id="DejaVuSans-31" d="M 794 531 
L 1825 531 
L 1825 4091 
L 703 3866 
L 703 4441 
L 1819 4666 
L 2450 4666 
L 2450 531 
L 3481 531 
L 3481 0 
L 794 0 
L 794 531 
z
" transform="scale(0.015625)"/>
        <path id="DejaVuSans-35" d="M 691 4666 
L 3169 4666 
L 3169 4134 
L 1269 4134 
L 1269 2991 
Q 1406 3038 1543 3061 
Q 1681 3084 1819 3084 
Q 2600 3084 3056 2656 
Q 3513 2228 3513 1497 
Q 3513 744 3044 326 
Q 2575 -91 1722 -91 
Q 1428 -91 1123 -41 
Q 819 9 494 109 
L 494 744 
Q 775 591 1075 516 
Q 1375 441 1709 441 
Q 2250 441 2565 725 
Q 2881 1009 2881 1497 
Q 2881 1984 2565 2268 
Q 2250 2553 1709 2553 
Q 1456 2553 1204 2497 
Q 953 2441 691 2322 
L 691 4666 
z
" transform="scale(0.015625)"/>
       </defs>
       <use xlink:href="#DejaVuSans-31"/>
       <use xlink:href="#DejaVuSans-35" x="63.623047"/>
       <use xlink:href="#DejaVuSans-30" x="127.246094"/>
      </g>
     </g>
    </g>
    <g id="xtick_3">
     <g id="line2d_3">
      <path d="M 215.144109 200.648125 
L 215.144109 55.609187 
" clip-path="url(#p0f9a94a824)" style="fill: none; stroke: #ffffff; stroke-linecap: round"/>
     </g>
     <g id="text_3">
      <!-- 300 -->
      <g style="fill: #262626" transform="translate(205.600359 217.746562)scale(0.1 -0.1)">
       <defs>
        <path id="DejaVuSans-33" d="M 2597 2516 
Q 3050 2419 3304 2112 
Q 3559 1806 3559 1356 
Q 3559 666 3084 287 
Q 2609 -91 1734 -91 
Q 1441 -91 1130 -33 
Q 819 25 488 141 
L 488 750 
Q 750 597 1062 519 
Q 1375 441 1716 441 
Q 2309 441 2620 675 
Q 2931 909 2931 1356 
Q 2931 1769 2642 2001 
Q 2353 2234 1838 2234 
L 1294 2234 
L 1294 2753 
L 1863 2753 
Q 2328 2753 2575 2939 
Q 2822 3125 2822 3475 
Q 2822 3834 2567 4026 
Q 2313 4219 1838 4219 
Q 1578 4219 1281 4162 
Q 984 4106 628 3988 
L 628 4550 
Q 988 4650 1302 4700 
Q 1616 4750 1894 4750 
Q 2613 4750 3031 4423 
Q 3450 4097 3450 3541 
Q 3450 3153 3228 2886 
Q 3006 2619 2597 2516 
z
" transform="scale(0.015625)"/>
       </defs>
       <use xlink:href="#DejaVuSans-33"/>
       <use xlink:href="#DejaVuSans-30" x="63.623047"/>
       <use xlink:href="#DejaVuSans-30" x="127.246094"/>
      </g>
     </g>
    </g>
    <g id="xtick_4">
     <g id="line2d_4">
      <path d="M 282.178065 200.648125 
L 282.178065 55.609187 
" clip-path="url(#p0f9a94a824)" style="fill: none; stroke: #ffffff; stroke-linecap: round"/>
     </g>
     <g id="text_4">
      <!-- 450 -->
      <g style="fill: #262626" transform="translate(272.634315 217.746562)scale(0.1 -0.1)">
       <defs>
        <path id="DejaVuSans-34" d="M 2419 4116 
L 825 1625 
L 2419 1625 
L 2419 4116 
z
M 2253 4666 
L 3047 4666 
L 3047 1625 
L 3713 1625 
L 3713 1100 
L 3047 1100 
L 3047 0 
L 2419 0 
L 2419 1100 
L 313 1100 
L 313 1709 
L 2253 4666 
z
" transform="scale(0.015625)"/>
       </defs>
       <use xlink:href="#DejaVuSans-34"/>
       <use xlink:href="#DejaVuSans-35" x="63.623047"/>
       <use xlink:href="#DejaVuSans-30" x="127.246094"/>
      </g>
     </g>
    </g>
    <g id="xtick_5">
     <g id="line2d_5">
      <path d="M 349.212021 200.648125 
L 349.212021 55.609187 
" clip-path="url(#p0f9a94a824)" style="fill: none; stroke: #ffffff; stroke-linecap: round"/>
     </g>
     <g id="text_5">
      <!-- 600 -->
      <g style="fill: #262626" transform="translate(339.668271 217.746562)scale(0.1 -0.1)">
       <defs>
        <path id="DejaVuSans-36" d="M 2113 2584 
Q 1688 2584 1439 2293 
Q 1191 2003 1191 1497 
Q 1191 994 1439 701 
Q 1688 409 2113 409 
Q 2538 409 2786 701 
Q 3034 994 3034 1497 
Q 3034 2003 2786 2293 
Q 2538 2584 2113 2584 
z
M 3366 4563 
L 3366 3988 
Q 3128 4100 2886 4159 
Q 2644 4219 2406 4219 
Q 1781 4219 1451 3797 
Q 1122 3375 1075 2522 
Q 1259 2794 1537 2939 
Q 1816 3084 2150 3084 
Q 2853 3084 3261 2657 
Q 3669 2231 3669 1497 
Q 3669 778 3244 343 
Q 2819 -91 2113 -91 
Q 1303 -91 875 529 
Q 447 1150 447 2328 
Q 447 3434 972 4092 
Q 1497 4750 2381 4750 
Q 2619 4750 2861 4703 
Q 3103 4656 3366 4563 
z
" transform="scale(0.015625)"/>
       </defs>
       <use xlink:href="#DejaVuSans-36"/>
       <use xlink:href="#DejaVuSans-30" x="63.623047"/>
       <use xlink:href="#DejaVuSans-30" x="127.246094"/>
      </g>
     </g>
    </g>
    <g id="xtick_6">
     <g id="line2d_6">
      <path d="M 416.245977 200.648125 
L 416.245977 55.609187 
" clip-path="url(#p0f9a94a824)" style="fill: none; stroke: #ffffff; stroke-linecap: round"/>
     </g>
     <g id="text_6">
      <!-- 750 -->
      <g style="fill: #262626" transform="translate(406.702227 217.746562)scale(0.1 -0.1)">
       <defs>
        <path id="DejaVuSans-37" d="M 525 4666 
L 3525 4666 
L 3525 4397 
L 1831 0 
L 1172 0 
L 2766 4134 
L 525 4134 
L 525 4666 
z
" transform="scale(0.015625)"/>
       </defs>
       <use xlink:href="#DejaVuSans-37"/>
       <use xlink:href="#DejaVuSans-35" x="63.623047"/>
       <use xlink:href="#DejaVuSans-30" x="127.246094"/>
      </g>
     </g>
    </g>
    <g id="xtick_7">
     <g id="line2d_7">
      <path d="M 483.279933 200.648125 
L 483.279933 55.609187 
" clip-path="url(#p0f9a94a824)" style="fill: none; stroke: #ffffff; stroke-linecap: round"/>
     </g>
     <g id="text_7">
      <!-- 900 -->
      <g style="fill: #262626" transform="translate(473.736183 217.746562)scale(0.1 -0.1)">
       <defs>
        <path id="DejaVuSans-39" d="M 703 97 
L 703 672 
Q 941 559 1184 500 
Q 1428 441 1663 441 
Q 2288 441 2617 861 
Q 2947 1281 2994 2138 
Q 2813 1869 2534 1725 
Q 2256 1581 1919 1581 
Q 1219 1581 811 2004 
Q 403 2428 403 3163 
Q 403 3881 828 4315 
Q 1253 4750 1959 4750 
Q 2769 4750 3195 4129 
Q 3622 3509 3622 2328 
Q 3622 1225 3098 567 
Q 2575 -91 1691 -91 
Q 1453 -91 1209 -44 
Q 966 3 703 97 
z
M 1959 2075 
Q 2384 2075 2632 2365 
Q 2881 2656 2881 3163 
Q 2881 3666 2632 3958 
Q 2384 4250 1959 4250 
Q 1534 4250 1286 3958 
Q 1038 3666 1038 3163 
Q 1038 2656 1286 2365 
Q 1534 2075 1959 2075 
z
" transform="scale(0.015625)"/>
       </defs>
       <use xlink:href="#DejaVuSans-39"/>
       <use xlink:href="#DejaVuSans-30" x="63.623047"/>
       <use xlink:href="#DejaVuSans-30" x="127.246094"/>
      </g>
     </g>
    </g>
    <g id="xtick_8">
     <g id="line2d_8">
      <path d="M 550.313889 200.648125 
L 550.313889 55.609187 
" clip-path="url(#p0f9a94a824)" style="fill: none; stroke: #ffffff; stroke-linecap: round"/>
     </g>
     <g id="text_8">
      <!-- 1050 -->
      <g style="fill: #262626" transform="translate(537.588889 217.746562)scale(0.1 -0.1)">
       <use xlink:href="#DejaVuSans-31"/>
       <use xlink:href="#DejaVuSans-30" x="63.623047"/>
       <use xlink:href="#DejaVuSans-35" x="127.246094"/>
       <use xlink:href="#DejaVuSans-30" x="190.869141"/>
      </g>
     </g>
    </g>
    <g id="text_9">
     <!-- Frames -->
     <g style="fill: #262626" transform="translate(283.14836 232.944375)scale(0.12 -0.12)">
      <defs>
       <path id="DejaVuSans-46" d="M 628 4666 
L 3309 4666 
L 3309 4134 
L 1259 4134 
L 1259 2759 
L 3109 2759 
L 3109 2228 
L 1259 2228 
L 1259 0 
L 628 0 
L 628 4666 
z
" transform="scale(0.015625)"/>
       <path id="DejaVuSans-72" d="M 2631 2963 
Q 2534 3019 2420 3045 
Q 2306 3072 2169 3072 
Q 1681 3072 1420 2755 
Q 1159 2438 1159 1844 
L 1159 0 
L 581 0 
L 581 3500 
L 1159 3500 
L 1159 2956 
Q 1341 3275 1631 3429 
Q 1922 3584 2338 3584 
Q 2397 3584 2469 3576 
Q 2541 3569 2628 3553 
L 2631 2963 
z
" transform="scale(0.015625)"/>
       <path id="DejaVuSans-61" d="M 2194 1759 
Q 1497 1759 1228 1600 
Q 959 1441 959 1056 
Q 959 750 1161 570 
Q 1363 391 1709 391 
Q 2188 391 2477 730 
Q 2766 1069 2766 1631 
L 2766 1759 
L 2194 1759 
z
M 3341 1997 
L 3341 0 
L 2766 0 
L 2766 531 
Q 2569 213 2275 61 
Q 1981 -91 1556 -91 
Q 1019 -91 701 211 
Q 384 513 384 1019 
Q 384 1609 779 1909 
Q 1175 2209 1959 2209 
L 2766 2209 
L 2766 2266 
Q 2766 2663 2505 2880 
Q 2244 3097 1772 3097 
Q 1472 3097 1187 3025 
Q 903 2953 641 2809 
L 641 3341 
Q 956 3463 1253 3523 
Q 1550 3584 1831 3584 
Q 2591 3584 2966 3190 
Q 3341 2797 3341 1997 
z
" transform="scale(0.015625)"/>
       <path id="DejaVuSans-6d" d="M 3328 2828 
Q 3544 3216 3844 3400 
Q 4144 3584 4550 3584 
Q 5097 3584 5394 3201 
Q 5691 2819 5691 2113 
L 5691 0 
L 5113 0 
L 5113 2094 
Q 5113 2597 4934 2840 
Q 4756 3084 4391 3084 
Q 3944 3084 3684 2787 
Q 3425 2491 3425 1978 
L 3425 0 
L 2847 0 
L 2847 2094 
Q 2847 2600 2669 2842 
Q 2491 3084 2119 3084 
Q 1678 3084 1418 2786 
Q 1159 2488 1159 1978 
L 1159 0 
L 581 0 
L 581 3500 
L 1159 3500 
L 1159 2956 
Q 1356 3278 1631 3431 
Q 1906 3584 2284 3584 
Q 2666 3584 2933 3390 
Q 3200 3197 3328 2828 
z
" transform="scale(0.015625)"/>
       <path id="DejaVuSans-65" d="M 3597 1894 
L 3597 1613 
L 953 1613 
Q 991 1019 1311 708 
Q 1631 397 2203 397 
Q 2534 397 2845 478 
Q 3156 559 3463 722 
L 3463 178 
Q 3153 47 2828 -22 
Q 2503 -91 2169 -91 
Q 1331 -91 842 396 
Q 353 884 353 1716 
Q 353 2575 817 3079 
Q 1281 3584 2069 3584 
Q 2775 3584 3186 3129 
Q 3597 2675 3597 1894 
z
M 3022 2063 
Q 3016 2534 2758 2815 
Q 2500 3097 2075 3097 
Q 1594 3097 1305 2825 
Q 1016 2553 972 2059 
L 3022 2063 
z
" transform="scale(0.015625)"/>
       <path id="DejaVuSans-73" d="M 2834 3397 
L 2834 2853 
Q 2591 2978 2328 3040 
Q 2066 3103 1784 3103 
Q 1356 3103 1142 2972 
Q 928 2841 928 2578 
Q 928 2378 1081 2264 
Q 1234 2150 1697 2047 
L 1894 2003 
Q 2506 1872 2764 1633 
Q 3022 1394 3022 966 
Q 3022 478 2636 193 
Q 2250 -91 1575 -91 
Q 1294 -91 989 -36 
Q 684 19 347 128 
L 347 722 
Q 666 556 975 473 
Q 1284 391 1588 391 
Q 1994 391 2212 530 
Q 2431 669 2431 922 
Q 2431 1156 2273 1281 
Q 2116 1406 1581 1522 
L 1381 1569 
Q 847 1681 609 1914 
Q 372 2147 372 2553 
Q 372 3047 722 3315 
Q 1072 3584 1716 3584 
Q 2034 3584 2315 3537 
Q 2597 3491 2834 3397 
z
" transform="scale(0.015625)"/>
      </defs>
      <use xlink:href="#DejaVuSans-46"/>
      <use xlink:href="#DejaVuSans-72" x="50.269531"/>
      <use xlink:href="#DejaVuSans-61" x="91.382812"/>
      <use xlink:href="#DejaVuSans-6d" x="152.662109"/>
      <use xlink:href="#DejaVuSans-65" x="250.074219"/>
      <use xlink:href="#DejaVuSans-73" x="311.597656"/>
     </g>
    </g>
   </g>
   <g id="matplotlib.axis_2">
    <g id="ytick_1">
     <g id="line2d_9">
      <path d="M 59.178438 185.773856 
L 550.760783 185.773856 
" clip-path="url(#p0f9a94a824)" style="fill: none; stroke: #ffffff; stroke-linecap: round"/>
     </g>
     <g id="text_10">
      <!-- −70 -->
      <g style="fill: #262626" transform="translate(28.57375 189.573074)scale(0.1 -0.1)">
       <defs>
        <path id="DejaVuSans-2212" d="M 678 2272 
L 4684 2272 
L 4684 1741 
L 678 1741 
L 678 2272 
z
" transform="scale(0.015625)"/>
       </defs>
       <use xlink:href="#DejaVuSans-2212"/>
       <use xlink:href="#DejaVuSans-37" x="83.789062"/>
       <use xlink:href="#DejaVuSans-30" x="147.412109"/>
      </g>
     </g>
    </g>
    <g id="ytick_2">
     <g id="line2d_10">
      <path d="M 59.178438 170.622008 
L 550.760783 170.622008 
" clip-path="url(#p0f9a94a824)" style="fill: none; stroke: #ffffff; stroke-linecap: round"/>
     </g>
     <g id="text_11">
      <!-- −60 -->
      <g style="fill: #262626" transform="translate(28.57375 174.421226)scale(0.1 -0.1)">
       <use xlink:href="#DejaVuSans-2212"/>
       <use xlink:href="#DejaVuSans-36" x="83.789062"/>
       <use xlink:href="#DejaVuSans-30" x="147.412109"/>
      </g>
     </g>
    </g>
    <g id="ytick_3">
     <g id="line2d_11">
      <path d="M 59.178438 155.47016 
L 550.760783 155.47016 
" clip-path="url(#p0f9a94a824)" style="fill: none; stroke: #ffffff; stroke-linecap: round"/>
     </g>
     <g id="text_12">
      <!-- −50 -->
      <g style="fill: #262626" transform="translate(28.57375 159.269379)scale(0.1 -0.1)">
       <use xlink:href="#DejaVuSans-2212"/>
       <use xlink:href="#DejaVuSans-35" x="83.789062"/>
       <use xlink:href="#DejaVuSans-30" x="147.412109"/>
      </g>
     </g>
    </g>
    <g id="ytick_4">
     <g id="line2d_12">
      <path d="M 59.178438 140.318312 
L 550.760783 140.318312 
" clip-path="url(#p0f9a94a824)" style="fill: none; stroke: #ffffff; stroke-linecap: round"/>
     </g>
     <g id="text_13">
      <!-- −40 -->
      <g style="fill: #262626" transform="translate(28.57375 144.117531)scale(0.1 -0.1)">
       <use xlink:href="#DejaVuSans-2212"/>
       <use xlink:href="#DejaVuSans-34" x="83.789062"/>
       <use xlink:href="#DejaVuSans-30" x="147.412109"/>
      </g>
     </g>
    </g>
    <g id="ytick_5">
     <g id="line2d_13">
      <path d="M 59.178438 125.166464 
L 550.760783 125.166464 
" clip-path="url(#p0f9a94a824)" style="fill: none; stroke: #ffffff; stroke-linecap: round"/>
     </g>
     <g id="text_14">
      <!-- −30 -->
      <g style="fill: #262626" transform="translate(28.57375 128.965683)scale(0.1 -0.1)">
       <use xlink:href="#DejaVuSans-2212"/>
       <use xlink:href="#DejaVuSans-33" x="83.789062"/>
       <use xlink:href="#DejaVuSans-30" x="147.412109"/>
      </g>
     </g>
    </g>
    <g id="ytick_6">
     <g id="line2d_14">
      <path d="M 59.178438 110.014616 
L 550.760783 110.014616 
" clip-path="url(#p0f9a94a824)" style="fill: none; stroke: #ffffff; stroke-linecap: round"/>
     </g>
     <g id="text_15">
      <!-- −20 -->
      <g style="fill: #262626" transform="translate(28.57375 113.813835)scale(0.1 -0.1)">
       <defs>
        <path id="DejaVuSans-32" d="M 1228 531 
L 3431 531 
L 3431 0 
L 469 0 
L 469 531 
Q 828 903 1448 1529 
Q 2069 2156 2228 2338 
Q 2531 2678 2651 2914 
Q 2772 3150 2772 3378 
Q 2772 3750 2511 3984 
Q 2250 4219 1831 4219 
Q 1534 4219 1204 4116 
Q 875 4013 500 3803 
L 500 4441 
Q 881 4594 1212 4672 
Q 1544 4750 1819 4750 
Q 2544 4750 2975 4387 
Q 3406 4025 3406 3419 
Q 3406 3131 3298 2873 
Q 3191 2616 2906 2266 
Q 2828 2175 2409 1742 
Q 1991 1309 1228 531 
z
" transform="scale(0.015625)"/>
       </defs>
       <use xlink:href="#DejaVuSans-2212"/>
       <use xlink:href="#DejaVuSans-32" x="83.789062"/>
       <use xlink:href="#DejaVuSans-30" x="147.412109"/>
      </g>
     </g>
    </g>
    <g id="ytick_7">
     <g id="line2d_15">
      <path d="M 59.178438 94.862768 
L 550.760783 94.862768 
" clip-path="url(#p0f9a94a824)" style="fill: none; stroke: #ffffff; stroke-linecap: round"/>
     </g>
     <g id="text_16">
      <!-- −10 -->
      <g style="fill: #262626" transform="translate(28.57375 98.661987)scale(0.1 -0.1)">
       <use xlink:href="#DejaVuSans-2212"/>
       <use xlink:href="#DejaVuSans-31" x="83.789062"/>
       <use xlink:href="#DejaVuSans-30" x="147.412109"/>
      </g>
     </g>
    </g>
    <g id="ytick_8">
     <g id="line2d_16">
      <path d="M 59.178438 79.71092 
L 550.760783 79.71092 
" clip-path="url(#p0f9a94a824)" style="fill: none; stroke: #ffffff; stroke-linecap: round"/>
     </g>
     <g id="text_17">
      <!-- 0 -->
      <g style="fill: #262626" transform="translate(43.315938 83.510139)scale(0.1 -0.1)">
       <use xlink:href="#DejaVuSans-30"/>
      </g>
     </g>
    </g>
    <g id="ytick_9">
     <g id="line2d_17">
      <path d="M 59.178438 64.559072 
L 550.760783 64.559072 
" clip-path="url(#p0f9a94a824)" style="fill: none; stroke: #ffffff; stroke-linecap: round"/>
     </g>
     <g id="text_18">
      <!-- 10 -->
      <g style="fill: #262626" transform="translate(36.953437 68.358291)scale(0.1 -0.1)">
       <use xlink:href="#DejaVuSans-31"/>
       <use xlink:href="#DejaVuSans-30" x="63.623047"/>
      </g>
     </g>
    </g>
    <g id="text_19">
     <!-- Energy (kcal/mol) -->
     <g style="fill: #262626" transform="translate(22.078125 181.045844)rotate(-90)scale(0.12 -0.12)">
      <defs>
       <path id="DejaVuSans-45" d="M 628 4666 
L 3578 4666 
L 3578 4134 
L 1259 4134 
L 1259 2753 
L 3481 2753 
L 3481 2222 
L 1259 2222 
L 1259 531 
L 3634 531 
L 3634 0 
L 628 0 
L 628 4666 
z
" transform="scale(0.015625)"/>
       <path id="DejaVuSans-6e" d="M 3513 2113 
L 3513 0 
L 2938 0 
L 2938 2094 
Q 2938 2591 2744 2837 
Q 2550 3084 2163 3084 
Q 1697 3084 1428 2787 
Q 1159 2491 1159 1978 
L 1159 0 
L 581 0 
L 581 3500 
L 1159 3500 
L 1159 2956 
Q 1366 3272 1645 3428 
Q 1925 3584 2291 3584 
Q 2894 3584 3203 3211 
Q 3513 2838 3513 2113 
z
" transform="scale(0.015625)"/>
       <path id="DejaVuSans-67" d="M 2906 1791 
Q 2906 2416 2648 2759 
Q 2391 3103 1925 3103 
Q 1463 3103 1205 2759 
Q 947 2416 947 1791 
Q 947 1169 1205 825 
Q 1463 481 1925 481 
Q 2391 481 2648 825 
Q 2906 1169 2906 1791 
z
M 3481 434 
Q 3481 -459 3084 -895 
Q 2688 -1331 1869 -1331 
Q 1566 -1331 1297 -1286 
Q 1028 -1241 775 -1147 
L 775 -588 
Q 1028 -725 1275 -790 
Q 1522 -856 1778 -856 
Q 2344 -856 2625 -561 
Q 2906 -266 2906 331 
L 2906 616 
Q 2728 306 2450 153 
Q 2172 0 1784 0 
Q 1141 0 747 490 
Q 353 981 353 1791 
Q 353 2603 747 3093 
Q 1141 3584 1784 3584 
Q 2172 3584 2450 3431 
Q 2728 3278 2906 2969 
L 2906 3500 
L 3481 3500 
L 3481 434 
z
" transform="scale(0.015625)"/>
       <path id="DejaVuSans-79" d="M 2059 -325 
Q 1816 -950 1584 -1140 
Q 1353 -1331 966 -1331 
L 506 -1331 
L 506 -850 
L 844 -850 
Q 1081 -850 1212 -737 
Q 1344 -625 1503 -206 
L 1606 56 
L 191 3500 
L 800 3500 
L 1894 763 
L 2988 3500 
L 3597 3500 
L 2059 -325 
z
" transform="scale(0.015625)"/>
       <path id="DejaVuSans-20" transform="scale(0.015625)"/>
       <path id="DejaVuSans-28" d="M 1984 4856 
Q 1566 4138 1362 3434 
Q 1159 2731 1159 2009 
Q 1159 1288 1364 580 
Q 1569 -128 1984 -844 
L 1484 -844 
Q 1016 -109 783 600 
Q 550 1309 550 2009 
Q 550 2706 781 3412 
Q 1013 4119 1484 4856 
L 1984 4856 
z
" transform="scale(0.015625)"/>
       <path id="DejaVuSans-6b" d="M 581 4863 
L 1159 4863 
L 1159 1991 
L 2875 3500 
L 3609 3500 
L 1753 1863 
L 3688 0 
L 2938 0 
L 1159 1709 
L 1159 0 
L 581 0 
L 581 4863 
z
" transform="scale(0.015625)"/>
       <path id="DejaVuSans-63" d="M 3122 3366 
L 3122 2828 
Q 2878 2963 2633 3030 
Q 2388 3097 2138 3097 
Q 1578 3097 1268 2742 
Q 959 2388 959 1747 
Q 959 1106 1268 751 
Q 1578 397 2138 397 
Q 2388 397 2633 464 
Q 2878 531 3122 666 
L 3122 134 
Q 2881 22 2623 -34 
Q 2366 -91 2075 -91 
Q 1284 -91 818 406 
Q 353 903 353 1747 
Q 353 2603 823 3093 
Q 1294 3584 2113 3584 
Q 2378 3584 2631 3529 
Q 2884 3475 3122 3366 
z
" transform="scale(0.015625)"/>
       <path id="DejaVuSans-6c" d="M 603 4863 
L 1178 4863 
L 1178 0 
L 603 0 
L 603 4863 
z
" transform="scale(0.015625)"/>
       <path id="DejaVuSans-2f" d="M 1625 4666 
L 2156 4666 
L 531 -594 
L 0 -594 
L 1625 4666 
z
" transform="scale(0.015625)"/>
       <path id="DejaVuSans-6f" d="M 1959 3097 
Q 1497 3097 1228 2736 
Q 959 2375 959 1747 
Q 959 1119 1226 758 
Q 1494 397 1959 397 
Q 2419 397 2687 759 
Q 2956 1122 2956 1747 
Q 2956 2369 2687 2733 
Q 2419 3097 1959 3097 
z
M 1959 3584 
Q 2709 3584 3137 3096 
Q 3566 2609 3566 1747 
Q 3566 888 3137 398 
Q 2709 -91 1959 -91 
Q 1206 -91 779 398 
Q 353 888 353 1747 
Q 353 2609 779 3096 
Q 1206 3584 1959 3584 
z
" transform="scale(0.015625)"/>
       <path id="DejaVuSans-29" d="M 513 4856 
L 1013 4856 
Q 1481 4119 1714 3412 
Q 1947 2706 1947 2009 
Q 1947 1309 1714 600 
Q 1481 -109 1013 -844 
L 513 -844 
Q 928 -128 1133 580 
Q 1338 1288 1338 2009 
Q 1338 2731 1133 3434 
Q 928 4138 513 4856 
z
" transform="scale(0.015625)"/>
      </defs>
      <use xlink:href="#DejaVuSans-45"/>
      <use xlink:href="#DejaVuSans-6e" x="63.183594"/>
      <use xlink:href="#DejaVuSans-65" x="126.5625"/>
      <use xlink:href="#DejaVuSans-72" x="188.085938"/>
      <use xlink:href="#DejaVuSans-67" x="227.449219"/>
      <use xlink:href="#DejaVuSans-79" x="290.925781"/>
      <use xlink:href="#DejaVuSans-20" x="350.105469"/>
      <use xlink:href="#DejaVuSans-28" x="381.892578"/>
      <use xlink:href="#DejaVuSans-6b" x="420.90625"/>
      <use xlink:href="#DejaVuSans-63" x="478.816406"/>
      <use xlink:href="#DejaVuSans-61" x="533.796875"/>
      <use xlink:href="#DejaVuSans-6c" x="595.076172"/>
      <use xlink:href="#DejaVuSans-2f" x="622.859375"/>
      <use xlink:href="#DejaVuSans-6d" x="656.550781"/>
      <use xlink:href="#DejaVuSans-6f" x="753.962891"/>
      <use xlink:href="#DejaVuSans-6c" x="815.144531"/>
      <use xlink:href="#DejaVuSans-29" x="842.927734"/>
     </g>
    </g>
   </g>
   <g id="line2d_18">
    <path d="M 81.52309 73.858805 
L 81.969983 75.35087 
L 82.416876 83.31562 
L 82.863769 76.109176 
L 83.310662 91.80396 
L 83.757555 81.660814 
L 84.204448 81.886162 
L 84.651341 77.341871 
L 85.098234 83.403235 
L 85.545127 68.558142 
L 85.99202 91.909409 
L 86.438913 78.672432 
L 86.885806 83.518418 
L 87.332699 92.025555 
L 87.779592 91.602498 
L 88.226485 91.613294 
L 88.673378 96.175232 
L 89.120271 105.789945 
L 89.567164 91.784607 
L 90.014057 93.277091 
L 90.46095 91.895977 
L 90.907843 98.973228 
L 91.354736 91.712372 
L 91.801629 80.21742 
L 92.248523 76.054991 
L 92.695416 77.431719 
L 93.142309 66.147845 
L 93.589202 67.037358 
L 94.036095 65.495721 
L 94.482988 62.201866 
L 94.929881 72.523054 
L 95.376774 74.895519 
L 95.823667 86.580383 
L 96.27056 83.158214 
L 96.717453 76.55736 
L 97.164346 73.954625 
L 97.611239 81.543689 
L 98.058132 78.073668 
L 98.505025 82.89823 
L 99.398811 95.906471 
L 99.845704 90.237785 
L 100.292597 104.618004 
L 100.73949 92.259028 
L 101.186383 106.717432 
L 101.633276 107.975237 
L 102.080169 97.774264 
L 102.527062 94.14592 
L 102.973956 109.111339 
L 103.420849 93.133156 
L 103.867742 126.699757 
L 104.314635 117.924494 
L 104.761528 115.662281 
L 105.208421 123.465782 
L 105.655314 123.55006 
L 106.102207 117.646607 
L 106.5491 130.596607 
L 106.995993 128.275803 
L 107.442886 108.746929 
L 107.889779 104.476698 
L 108.336672 113.831335 
L 108.783565 106.473789 
L 109.230458 108.979811 
L 109.677351 117.028782 
L 110.124244 107.784898 
L 110.571137 107.141369 
L 111.01803 89.982798 
L 111.464923 110.908935 
L 111.911816 103.17917 
L 112.358709 104.100713 
L 112.805602 106.702458 
L 113.252495 95.850608 
L 113.699388 102.545447 
L 114.146282 111.397098 
L 114.593175 107.491165 
L 115.040068 124.721655 
L 115.486961 115.016242 
L 115.933854 113.271919 
L 116.380747 111.046212 
L 116.82764 131.871358 
L 117.274533 124.124085 
L 117.721426 127.028922 
L 118.168319 114.344497 
L 118.615212 115.392206 
L 119.062105 94.337915 
L 119.508998 103.02206 
L 119.955891 102.355982 
L 120.402784 109.908884 
L 120.849677 111.499958 
L 121.29657 107.411052 
L 121.743463 106.149477 
L 122.190356 109.529097 
L 122.637249 108.680339 
L 123.084142 108.638483 
L 123.531035 106.266387 
L 123.977928 108.370016 
L 124.424821 115.243932 
L 124.871715 105.711175 
L 125.318608 102.982919 
L 125.765501 118.368416 
L 126.212394 119.463581 
L 126.659287 107.507974 
L 127.10618 122.190002 
L 127.553073 118.350115 
L 127.999966 127.918013 
L 128.446859 119.979457 
L 128.893752 130.000729 
L 129.340645 129.486987 
L 129.787538 139.171862 
L 130.234431 123.600553 
L 130.681324 120.128525 
L 131.128217 129.324604 
L 132.022003 123.492573 
L 132.468896 123.298665 
L 132.915789 134.464037 
L 133.362682 141.445888 
L 133.809575 142.295636 
L 134.256468 140.112344 
L 134.703361 120.624982 
L 135.150254 125.511176 
L 135.597148 119.288492 
L 136.044041 131.740222 
L 136.490934 137.545861 
L 136.937827 137.959201 
L 137.38472 133.076829 
L 137.831613 126.591202 
L 138.278506 143.690185 
L 138.725399 154.051513 
L 139.172292 124.600404 
L 139.619185 111.490132 
L 140.066078 133.248332 
L 140.512971 138.345216 
L 140.959864 131.74297 
L 141.406757 140.208832 
L 141.85365 127.506972 
L 142.300543 121.210428 
L 142.747436 118.476827 
L 143.194329 118.099737 
L 143.641222 120.26527 
L 144.088115 133.486161 
L 144.535008 143.060374 
L 144.981901 145.840019 
L 145.428794 130.021474 
L 145.875687 141.249685 
L 146.32258 134.89393 
L 146.769474 131.76188 
L 147.216367 134.776949 
L 147.66326 134.089959 
L 148.110153 130.171505 
L 148.557046 133.584412 
L 149.003939 139.418314 
L 149.450832 128.616428 
L 149.897725 129.30141 
L 150.344618 122.692561 
L 150.791511 137.862245 
L 151.238404 141.404251 
L 151.685297 159.895507 
L 152.13219 147.82755 
L 152.579083 150.002758 
L 153.025976 154.668169 
L 153.472869 149.499031 
L 153.919762 154.879896 
L 154.366655 152.535162 
L 154.813548 146.512795 
L 155.260441 159.961389 
L 155.707334 151.536616 
L 156.154227 146.18182 
L 156.60112 148.256155 
L 157.494907 140.955359 
L 157.9418 150.985759 
L 158.388693 146.459307 
L 158.835586 133.062322 
L 159.282479 130.489542 
L 159.729372 147.153401 
L 160.176265 135.428928 
L 160.623158 119.641483 
L 161.070051 115.985118 
L 161.516944 138.528203 
L 161.963837 151.458827 
L 162.41073 144.719622 
L 162.857623 147.148388 
L 163.751409 147.128229 
L 164.198302 142.121062 
L 164.645195 140.723067 
L 165.092088 147.742506 
L 165.538981 148.262359 
L 165.985874 147.006615 
L 166.432767 150.710807 
L 166.87966 152.069458 
L 167.326553 159.136629 
L 167.773446 172.664674 
L 168.220339 173.173306 
L 168.667233 172.047376 
L 169.114126 163.989582 
L 169.561019 151.705151 
L 170.007912 175.133101 
L 170.454805 179.960007 
L 170.901698 167.978396 
L 171.348591 181.179186 
L 171.795484 168.553047 
L 172.242377 144.885064 
L 172.68927 159.599242 
L 173.136163 153.93644 
L 174.029949 154.560987 
L 174.476842 152.003109 
L 174.923735 161.314421 
L 175.370628 134.188875 
L 175.817521 165.839115 
L 176.264414 161.456419 
L 176.711307 151.566731 
L 177.1582 151.932223 
L 177.605093 169.314917 
L 178.051986 175.105774 
L 178.498879 175.258605 
L 178.945772 168.750672 
L 179.392666 170.914226 
L 179.839559 177.961351 
L 180.286452 168.098678 
L 180.733345 178.101932 
L 181.180238 161.854145 
L 181.627131 179.68783 
L 182.074024 175.584235 
L 182.520917 173.158119 
L 182.96781 181.818454 
L 183.414703 176.588077 
L 183.861596 179.216183 
L 184.308489 166.626453 
L 184.755382 182.332256 
L 185.202275 171.223154 
L 185.649168 163.839106 
L 186.096061 165.441433 
L 186.542954 162.704554 
L 186.989847 169.098131 
L 187.43674 172.894957 
L 187.883633 161.951709 
L 188.330526 160.89613 
L 188.777419 156.962864 
L 189.224312 176.396398 
L 189.671205 153.632219 
L 190.564992 165.631719 
L 191.011885 157.01821 
L 191.458778 181.308976 
L 192.352564 150.469184 
L 192.799457 161.494274 
L 193.24635 161.811471 
L 193.693243 167.269922 
L 194.140136 161.959359 
L 194.587029 149.637001 
L 195.033922 143.76718 
L 195.480815 153.215828 
L 195.927708 136.396915 
L 196.374601 154.079454 
L 196.821494 154.443971 
L 197.268387 160.380406 
L 197.71528 157.053539 
L 198.162173 161.92798 
L 198.609066 161.668348 
L 199.055959 150.249954 
L 199.502852 166.610175 
L 199.949745 148.213891 
L 200.396638 177.281265 
L 200.843531 171.065442 
L 201.290425 168.338505 
L 202.184211 180.643227 
L 202.631104 160.892527 
L 203.077997 167.599693 
L 203.52489 194.055446 
L 203.971783 176.657649 
L 204.418676 173.998734 
L 204.865569 172.327318 
L 205.312462 164.872637 
L 205.759355 173.251518 
L 206.206248 169.277678 
L 206.653141 171.797007 
L 207.546927 144.815009 
L 207.99382 154.103064 
L 208.440713 130.88185 
L 209.334499 171.008834 
L 209.781392 167.624619 
L 210.228285 169.573642 
L 210.675178 161.26167 
L 211.122071 174.282237 
L 211.568964 172.284654 
L 212.015858 143.810099 
L 212.462751 157.280595 
L 212.909644 178.674445 
L 213.356537 173.801325 
L 213.80343 156.255588 
L 214.697216 171.584339 
L 215.144109 169.359767 
L 215.591002 173.715777 
L 216.037895 174.208507 
L 216.484788 175.236331 
L 216.931681 179.287551 
L 217.378574 169.797154 
L 217.825467 163.387066 
L 218.27236 148.608652 
L 218.719253 138.440163 
L 219.166146 153.5042 
L 219.613039 160.791471 
L 220.059932 170.432139 
L 220.506825 161.482543 
L 220.953718 164.69011 
L 221.400611 145.427123 
L 221.847504 143.481455 
L 222.74129 184.777829 
L 223.188184 161.604493 
L 223.635077 172.508462 
L 224.528863 159.540626 
L 224.975756 164.452435 
L 225.869542 156.950352 
L 226.316435 158.980562 
L 226.763328 147.757803 
L 227.210221 173.669812 
L 227.657114 158.371664 
L 228.104007 158.101701 
L 228.997793 149.436099 
L 229.444686 165.739747 
L 229.891579 167.150233 
L 230.338472 158.738862 
L 230.785365 188.390148 
L 231.232258 170.632507 
L 231.679151 175.006839 
L 232.126044 181.594239 
L 232.572937 169.017805 
L 233.01983 171.847509 
L 233.466723 181.900223 
L 233.913617 179.821735 
L 234.36051 170.20387 
L 234.807403 173.152486 
L 235.254296 179.27263 
L 235.701189 167.326549 
L 236.148082 162.290518 
L 236.594975 179.541213 
L 237.041868 165.190337 
L 237.488761 159.778471 
L 237.935654 173.07851 
L 238.382547 171.788993 
L 238.82944 176.010379 
L 239.276333 173.111277 
L 239.723226 164.804 
L 240.170119 164.836707 
L 240.617012 169.964986 
L 241.063905 163.18391 
L 241.510798 154.333466 
L 241.957691 153.77751 
L 242.404584 153.978448 
L 242.851477 161.37832 
L 243.29837 140.200703 
L 243.745263 162.455917 
L 244.192156 133.544898 
L 244.639049 166.081862 
L 245.085943 164.720137 
L 245.532836 170.886141 
L 245.979729 163.967384 
L 246.426622 140.866174 
L 246.873515 159.776654 
L 247.320408 158.184686 
L 247.767301 162.630672 
L 248.214194 163.371565 
L 248.661087 161.088477 
L 249.10798 159.523963 
L 249.554873 158.697582 
L 250.001766 155.550825 
L 250.448659 171.454327 
L 250.895552 147.054886 
L 251.342445 159.654487 
L 251.789338 144.938105 
L 252.236231 153.76081 
L 252.683124 152.846245 
L 253.130017 164.063517 
L 253.57691 155.541301 
L 254.023803 160.593777 
L 254.470696 153.257428 
L 254.917589 164.03372 
L 255.364482 150.227523 
L 255.811376 161.171863 
L 256.258269 156.040006 
L 256.705162 162.892406 
L 257.152055 136.055722 
L 257.598948 158.160644 
L 258.045841 156.054208 
L 258.492734 158.623825 
L 258.939627 154.884331 
L 259.38652 157.127979 
L 259.833413 161.409209 
L 260.280306 170.091262 
L 260.727199 152.896976 
L 261.174092 163.334162 
L 261.620985 134.633793 
L 262.067878 162.911307 
L 262.514771 159.248814 
L 262.961664 153.313974 
L 263.408557 156.96006 
L 263.85545 158.547961 
L 264.302343 150.540215 
L 264.749236 157.309695 
L 265.196129 155.071225 
L 265.643022 159.916751 
L 266.089915 160.102728 
L 266.536808 159.233023 
L 266.983702 157.362553 
L 267.430595 153.670969 
L 267.877488 167.335057 
L 268.324381 149.937895 
L 268.771274 138.532524 
L 269.218167 150.170363 
L 269.66506 149.753045 
L 270.111953 145.947848 
L 270.558846 154.958744 
L 271.005739 142.548164 
L 271.452632 139.670826 
L 271.899525 150.579696 
L 272.346418 151.862984 
L 273.240204 150.361692 
L 273.687097 164.369541 
L 274.13399 154.025381 
L 274.580883 151.281911 
L 275.027776 151.637004 
L 275.474669 153.35955 
L 275.921562 151.752851 
L 276.368455 147.018697 
L 276.815348 155.732161 
L 277.262241 150.375279 
L 277.709135 162.297518 
L 278.156028 141.446957 
L 278.602921 151.267563 
L 279.049814 157.373501 
L 279.9436 142.016805 
L 280.390493 158.969108 
L 280.837386 154.252797 
L 281.284279 156.357156 
L 281.731172 151.251557 
L 282.178065 155.48762 
L 282.624958 154.241773 
L 283.071851 156.759792 
L 283.965637 151.077277 
L 284.41253 160.188787 
L 284.859423 153.585195 
L 285.306316 160.223579 
L 285.753209 156.710956 
L 286.200102 146.568079 
L 286.646995 147.684441 
L 287.093888 160.225673 
L 287.540781 164.429464 
L 287.987674 153.581248 
L 288.434568 155.104318 
L 289.328354 164.432685 
L 289.775247 153.998849 
L 290.22214 164.115031 
L 290.669033 156.61385 
L 291.115926 154.364342 
L 291.562819 146.954238 
L 292.009712 159.399844 
L 292.456605 154.555768 
L 292.903498 153.361266 
L 293.350391 155.429984 
L 293.797284 156.938034 
L 294.244177 148.096166 
L 294.69107 148.804434 
L 295.137963 151.923021 
L 295.584856 147.86956 
L 296.031749 151.391848 
L 296.478642 149.552396 
L 296.925535 149.876205 
L 297.372428 145.902131 
L 297.819321 154.312408 
L 298.266214 153.082798 
L 298.713107 157.95247 
L 299.16 157.591279 
L 299.606894 158.315615 
L 300.053787 161.204408 
L 300.50068 158.107021 
L 300.947573 150.741184 
L 301.394466 150.031662 
L 301.841359 152.699659 
L 302.288252 149.202429 
L 302.735145 148.475233 
L 303.182038 149.20723 
L 303.628931 157.19488 
L 304.075824 159.651568 
L 304.522717 161.187232 
L 304.96961 152.875573 
L 305.416503 151.682408 
L 305.863396 156.632555 
L 306.310289 144.043603 
L 306.757182 152.737674 
L 307.204075 143.250054 
L 307.650968 154.629996 
L 308.097861 145.56392 
L 308.544754 145.762553 
L 308.991647 158.440231 
L 309.43854 148.393791 
L 309.885433 175.112891 
L 310.332327 180.051643 
L 310.77922 176.73024 
L 311.226113 172.546623 
L 311.673006 172.823143 
L 312.119899 170.593542 
L 312.566792 164.06611 
L 313.013685 164.292488 
L 313.460578 149.454322 
L 313.907471 158.645762 
L 314.354364 162.513559 
L 314.801257 159.874477 
L 315.24815 148.759473 
L 315.695043 147.932689 
L 316.141936 150.95281 
L 316.588829 169.022153 
L 317.482615 148.691585 
L 317.929508 149.778235 
L 318.376401 140.471456 
L 318.823294 138.821171 
L 319.270187 129.024684 
L 319.71708 134.028843 
L 320.163973 133.390742 
L 320.610866 129.665906 
L 321.057759 135.589848 
L 321.504653 138.807721 
L 321.951546 133.413644 
L 322.398439 151.766207 
L 322.845332 135.973591 
L 323.292225 130.276794 
L 323.739118 142.08509 
L 324.186011 132.05609 
L 324.632904 116.642486 
L 325.079797 135.190748 
L 325.52669 127.677534 
L 325.973583 131.216577 
L 326.420476 136.111852 
L 326.867369 129.365411 
L 327.314262 142.005683 
L 327.761155 139.753986 
L 328.208048 141.19398 
L 328.654941 135.644118 
L 329.101834 141.641889 
L 329.548727 140.188637 
L 329.99562 133.951693 
L 330.442513 133.390534 
L 330.889406 135.81009 
L 331.336299 136.769131 
L 331.783192 134.830675 
L 332.230086 139.6766 
L 332.676979 131.214517 
L 333.123872 127.543548 
L 333.570765 146.436433 
L 334.017658 137.162835 
L 334.464551 131.359057 
L 334.911444 144.82705 
L 335.358337 147.285281 
L 335.80523 147.449522 
L 336.252123 136.931886 
L 336.699016 140.638116 
L 337.145909 141.764976 
L 337.592802 149.750028 
L 338.039695 152.588848 
L 338.486588 137.939919 
L 338.933481 130.981228 
L 339.380374 151.947735 
L 339.827267 157.418124 
L 340.27416 135.70202 
L 340.721053 158.157471 
L 341.167946 149.120228 
L 341.614839 154.16426 
L 342.061732 161.203006 
L 342.508625 144.440299 
L 342.955518 142.150868 
L 343.402412 144.448365 
L 343.849305 138.75469 
L 344.296198 154.781126 
L 344.743091 148.026991 
L 345.189984 149.417327 
L 345.636877 140.720867 
L 346.08377 136.119235 
L 346.530663 122.07872 
L 346.977556 137.572365 
L 347.424449 157.317285 
L 348.318235 122.683836 
L 348.765128 122.01648 
L 349.212021 118.473225 
L 349.658914 124.727734 
L 350.105807 119.325819 
L 350.5527 107.164038 
L 350.999593 121.718578 
L 351.893379 115.659483 
L 352.340272 106.198933 
L 352.787165 102.350941 
L 353.234058 100.009201 
L 353.680951 103.740322 
L 354.127845 95.440378 
L 354.574738 110.863446 
L 355.021631 104.182136 
L 355.468524 105.059739 
L 355.915417 119.787871 
L 356.36231 117.067847 
L 356.809203 117.975159 
L 357.256096 123.438547 
L 357.702989 125.174052 
L 358.149882 112.134896 
L 358.596775 111.89802 
L 359.043668 116.875228 
L 359.490561 128.84144 
L 359.937454 122.81926 
L 360.384347 124.06686 
L 360.83124 109.944052 
L 361.278133 115.688693 
L 361.725026 112.324007 
L 362.171919 107.611911 
L 362.618812 117.219568 
L 363.065705 114.706284 
L 363.512598 135.221476 
L 363.959491 122.246053 
L 364.406384 121.114375 
L 364.853278 114.937548 
L 365.300171 115.972487 
L 365.747064 111.014111 
L 366.193957 118.009531 
L 366.64085 129.795836 
L 367.087743 120.828284 
L 367.534636 115.083339 
L 367.981529 125.253101 
L 368.428422 126.010553 
L 368.875315 125.137564 
L 369.322208 125.469782 
L 369.769101 119.414695 
L 370.215994 120.93115 
L 370.662887 112.797817 
L 371.10978 108.889696 
L 371.556673 106.828659 
L 372.003566 97.160846 
L 372.450459 103.706991 
L 372.897352 102.370803 
L 373.344245 115.04004 
L 373.791138 97.524144 
L 374.238031 108.035017 
L 374.684924 97.354773 
L 375.131817 100.081548 
L 375.57871 106.896154 
L 376.025604 102.980966 
L 376.472497 106.164717 
L 376.91939 105.428903 
L 377.366283 110.695782 
L 377.813176 114.147598 
L 378.260069 106.689702 
L 378.706962 109.753967 
L 379.153855 113.666089 
L 379.600748 114.411663 
L 380.047641 107.485289 
L 380.494534 102.991492 
L 380.941427 108.000167 
L 381.38832 101.209327 
L 381.835213 106.638192 
L 382.282106 110.524573 
L 382.728999 111.030275 
L 383.175892 110.478539 
L 383.622785 109.702601 
L 384.069678 100.537825 
L 384.516571 113.266949 
L 384.963464 105.001923 
L 385.410357 108.212136 
L 385.85725 102.069748 
L 386.304143 116.481056 
L 386.751037 109.38196 
L 387.19793 105.217005 
L 387.644823 98.077996 
L 388.091716 106.816454 
L 388.538609 105.604861 
L 388.985502 112.677961 
L 389.432395 110.382951 
L 389.879288 106.946671 
L 390.326181 112.291168 
L 390.773074 91.470144 
L 391.219967 108.576484 
L 391.66686 103.740522 
L 392.560646 104.606612 
L 393.007539 117.938293 
L 393.454432 103.980298 
L 393.901325 105.386198 
L 394.348218 98.493982 
L 394.795111 102.934739 
L 395.242004 104.551782 
L 395.688897 103.32204 
L 396.13579 112.09178 
L 396.582683 107.385029 
L 397.029576 91.052392 
L 397.476469 99.723741 
L 397.923363 111.394124 
L 398.370256 100.549567 
L 398.817149 92.85409 
L 399.264042 98.463749 
L 399.710935 93.580781 
L 400.157828 105.661943 
L 400.604721 123.792206 
L 401.051614 115.215113 
L 401.498507 114.589026 
L 401.9454 120.413361 
L 402.392293 100.686869 
L 402.839186 103.942411 
L 403.286079 106.304333 
L 403.732972 114.176941 
L 404.179865 109.741181 
L 404.626758 110.299294 
L 405.073651 105.229825 
L 405.520544 109.976293 
L 405.967437 108.791566 
L 406.41433 106.703279 
L 406.861223 111.070909 
L 407.308116 107.790636 
L 407.755009 98.479515 
L 408.201902 103.892009 
L 408.648796 119.026891 
L 409.095689 122.313885 
L 409.542582 113.894544 
L 409.989475 114.048626 
L 410.436368 118.432801 
L 410.883261 110.833687 
L 411.330154 105.572252 
L 412.22394 114.648433 
L 412.670833 122.038206 
L 413.117726 118.034179 
L 413.564619 97.156486 
L 414.011512 100.379947 
L 414.458405 119.83281 
L 414.905298 108.4018 
L 415.352191 116.582433 
L 415.799084 118.688322 
L 416.245977 115.91288 
L 416.69287 132.020825 
L 417.139763 132.853525 
L 417.586656 128.923702 
L 418.033549 114.926571 
L 418.480442 134.093005 
L 418.927335 136.747162 
L 419.374228 134.468285 
L 419.821122 131.094544 
L 420.268015 131.179283 
L 420.714908 126.514765 
L 421.161801 120.149087 
L 421.608694 143.044516 
L 422.055587 120.062583 
L 422.50248 133.547951 
L 422.949373 126.786784 
L 423.396266 129.571528 
L 423.843159 130.562032 
L 424.290052 130.63621 
L 424.736945 125.63857 
L 425.183838 131.906182 
L 425.630731 119.606224 
L 426.077624 119.615318 
L 426.524517 129.044875 
L 426.97141 129.312931 
L 427.418303 115.098172 
L 427.865196 104.902843 
L 428.312089 128.396825 
L 428.758982 115.378431 
L 429.205875 110.224618 
L 429.652768 101.029643 
L 430.099661 109.645929 
L 430.546555 111.545085 
L 430.993448 122.199617 
L 431.440341 122.903167 
L 431.887234 98.346777 
L 432.334127 99.172649 
L 432.78102 101.184069 
L 433.227913 96.294053 
L 433.674806 100.862574 
L 434.568592 126.861407 
L 435.015485 102.437847 
L 435.462378 107.528293 
L 435.909271 122.017829 
L 436.356164 103.336343 
L 436.803057 105.732566 
L 437.24995 110.845216 
L 437.696843 118.312884 
L 438.143736 113.218113 
L 438.590629 115.376731 
L 439.037522 141.83362 
L 439.484415 133.704625 
L 439.931308 118.416776 
L 440.378201 120.924548 
L 440.825094 125.622995 
L 441.271988 110.00309 
L 441.718881 123.470091 
L 442.165774 111.296791 
L 442.612667 113.927418 
L 443.05956 120.916331 
L 443.506453 118.228806 
L 443.953346 111.997188 
L 444.400239 120.547178 
L 444.847132 109.346223 
L 445.294025 107.21855 
L 445.740918 121.983342 
L 446.187811 124.14738 
L 446.634704 132.586849 
L 447.081597 133.769186 
L 447.52849 137.148456 
L 447.975383 125.261955 
L 448.422276 121.921001 
L 448.869169 105.621663 
L 449.316062 141.827482 
L 449.762955 144.672217 
L 450.209848 136.194215 
L 450.656741 145.315424 
L 451.103634 143.007122 
L 451.550527 143.064087 
L 451.99742 143.276886 
L 452.444314 153.308769 
L 452.891207 151.873617 
L 453.3381 139.117022 
L 453.784993 135.063383 
L 454.231886 140.682428 
L 454.678779 136.818614 
L 455.125672 156.387282 
L 455.572565 131.931277 
L 456.019458 124.026127 
L 456.466351 173.03233 
L 456.913244 133.154588 
L 457.360137 116.816491 
L 457.80703 141.984244 
L 458.253923 144.01596 
L 458.700816 138.451325 
L 459.147709 148.435562 
L 459.594602 141.087851 
L 460.041495 154.850381 
L 460.488388 175.705134 
L 460.935281 171.976007 
L 461.382174 175.259067 
L 462.27596 153.112641 
L 462.722853 133.987649 
L 463.169747 144.417413 
L 463.61664 134.413969 
L 464.063533 148.201049 
L 464.510426 146.506331 
L 464.957319 161.941623 
L 465.404212 142.951953 
L 466.297998 161.161774 
L 466.744891 153.369688 
L 467.191784 149.549119 
L 467.638677 147.693677 
L 468.08557 178.537214 
L 468.532463 165.6188 
L 468.979356 149.0634 
L 469.426249 160.66139 
L 469.873142 163.507811 
L 470.320035 139.452595 
L 470.766928 157.51992 
L 471.213821 155.76077 
L 471.660714 151.183948 
L 472.107607 175.795436 
L 472.5545 171.24215 
L 473.001393 152.725504 
L 473.448286 158.366331 
L 473.895179 166.979034 
L 474.342073 153.333348 
L 474.788966 144.513025 
L 475.235859 145.586546 
L 475.682752 143.819858 
L 476.129645 141.499691 
L 476.576538 134.617056 
L 477.023431 146.688388 
L 477.917217 147.26388 
L 478.36411 142.682971 
L 478.811003 143.514191 
L 479.257896 145.96797 
L 479.704789 138.893456 
L 480.151682 144.563261 
L 480.598575 139.224081 
L 481.045468 144.9208 
L 481.492361 144.999493 
L 481.939254 144.0162 
L 482.386147 134.359746 
L 482.83304 134.875907 
L 483.279933 140.37318 
L 483.726826 133.665975 
L 484.173719 138.550718 
L 484.620612 140.090406 
L 485.067506 130.953876 
L 485.514399 131.050002 
L 485.961292 141.38651 
L 486.408185 130.731549 
L 486.855078 132.946122 
L 487.301971 129.838607 
L 487.748864 131.463316 
L 488.195757 125.382717 
L 488.64265 123.263369 
L 489.089543 129.191985 
L 489.536436 123.822528 
L 489.983329 116.638998 
L 490.430222 122.147615 
L 490.877115 111.98748 
L 491.324008 120.045304 
L 491.770901 120.058457 
L 492.217794 125.481609 
L 492.664687 120.877962 
L 493.11158 135.036084 
L 493.558473 126.815878 
L 494.005366 135.187942 
L 494.899152 113.057311 
L 495.346045 115.427816 
L 495.792938 123.936426 
L 496.239832 114.467937 
L 496.686725 119.651522 
L 497.133618 119.806278 
L 497.580511 117.219476 
L 498.027404 121.079024 
L 498.474297 108.146625 
L 498.92119 123.443027 
L 499.368083 114.520046 
L 499.814976 110.719526 
L 500.261869 127.572329 
L 500.708762 121.796171 
L 501.155655 117.852946 
L 501.602548 140.123402 
L 502.049441 125.874123 
L 502.496334 131.073091 
L 502.943227 138.264121 
L 503.39012 137.23689 
L 503.837013 139.603754 
L 504.283906 134.608093 
L 504.730799 118.662623 
L 505.177692 133.530354 
L 505.624585 141.913315 
L 506.071478 135.355148 
L 506.518371 137.513213 
L 506.965265 128.982722 
L 507.412158 129.983272 
L 507.859051 135.032724 
L 508.305944 123.494242 
L 508.752837 135.079577 
L 509.19973 124.900999 
L 509.646623 145.845616 
L 510.093516 127.535663 
L 510.540409 126.828934 
L 510.987302 118.629347 
L 511.434195 122.000787 
L 511.881088 120.966396 
L 512.327981 112.811647 
L 512.774874 113.341471 
L 513.221767 121.464255 
L 513.66866 111.907131 
L 514.115553 117.328851 
L 514.562446 118.181943 
L 515.009339 112.022541 
L 515.456232 114.329239 
L 515.903125 113.134301 
L 516.350018 114.04994 
L 516.796911 105.168371 
L 517.243804 116.820916 
L 517.690698 119.260991 
L 518.137591 104.058688 
L 518.584484 114.752142 
L 519.031377 110.705424 
L 519.47827 115.817483 
L 519.925163 115.333332 
L 520.372056 115.847516 
L 520.818949 118.064011 
L 521.265842 103.360648 
L 521.712735 110.257625 
L 522.159628 106.4738 
L 522.606521 121.93229 
L 523.500307 108.045678 
L 523.9472 124.463516 
L 524.394093 113.195298 
L 524.840986 119.692884 
L 525.287879 124.467827 
L 525.734772 117.94697 
L 526.181665 115.931244 
L 526.628558 119.854351 
L 527.075451 113.037257 
L 527.522344 111.078101 
L 527.969237 94.852414 
L 528.41613 125.936289 
L 528.41613 125.936289 
" clip-path="url(#p0f9a94a824)" style="fill: none; stroke: #000000; stroke-width: 0.7; stroke-linecap: round"/>
   </g>
   <g id="line2d_19">
    <path d="M 103.420849 85.566661 
L 104.314635 87.474953 
L 104.761528 88.121886 
L 105.208421 89.069018 
L 106.102207 90.423656 
L 106.995993 92.416543 
L 107.442886 92.923417 
L 107.889779 93.641788 
L 108.783565 94.636254 
L 109.677351 95.645546 
L 110.571137 96.279756 
L 111.01803 96.155907 
L 111.464923 96.258287 
L 112.805602 96.99878 
L 113.252495 96.936328 
L 113.699388 97.152989 
L 114.593175 98.405306 
L 116.380747 102.164174 
L 117.274533 104.589585 
L 117.721426 105.632253 
L 119.508998 107.769175 
L 119.955891 108.18542 
L 120.849677 109.394159 
L 121.29657 109.7535 
L 121.743463 109.95836 
L 122.190356 110.344186 
L 122.637249 110.425433 
L 123.084142 110.753022 
L 123.977928 110.751896 
L 124.871715 111.332595 
L 125.318608 111.210026 
L 125.765501 111.714732 
L 126.659287 111.361678 
L 127.10618 111.492232 
L 127.553073 111.389919 
L 128.446859 111.523935 
L 129.340645 111.536241 
L 129.787538 112.14474 
L 130.234431 112.527217 
L 130.681324 112.653161 
L 131.57511 113.462259 
L 132.022003 113.591535 
L 132.468896 113.90181 
L 132.915789 114.448263 
L 133.362682 115.477525 
L 134.703361 117.174408 
L 135.597148 118.01934 
L 136.937827 119.735572 
L 137.831613 120.134174 
L 138.278506 120.74254 
L 138.725399 121.602646 
L 139.619185 121.204548 
L 140.066078 121.328936 
L 140.959864 122.135965 
L 141.406757 123.053384 
L 142.300543 123.920171 
L 143.641222 124.48061 
L 144.535008 125.697969 
L 144.981901 126.441163 
L 145.428794 126.868822 
L 146.32258 128.098967 
L 146.769474 128.429326 
L 147.66326 129.632782 
L 148.557046 130.15126 
L 149.003939 130.789467 
L 149.897725 131.137021 
L 150.344618 131.032512 
L 152.579083 132.927567 
L 153.025976 133.61836 
L 153.472869 134.021848 
L 155.260441 136.142849 
L 155.707334 136.344664 
L 156.60112 136.585264 
L 157.048013 137.072411 
L 157.494907 137.381295 
L 157.9418 138.01524 
L 158.388693 138.309622 
L 159.282479 138.070558 
L 160.176265 138.528844 
L 160.623158 138.04787 
L 161.070051 137.286542 
L 161.516944 137.565098 
L 161.963837 138.364472 
L 164.198302 139.508256 
L 164.645195 139.898509 
L 165.985874 141.621902 
L 166.432767 141.966395 
L 167.326553 142.412509 
L 168.220339 143.903845 
L 169.114126 145.291468 
L 169.561019 145.630032 
L 171.795484 149.768495 
L 172.242377 150.080168 
L 172.68927 150.818301 
L 173.583056 151.397631 
L 174.029949 151.29094 
L 174.476842 151.374451 
L 174.923735 151.600685 
L 175.370628 151.191099 
L 175.817521 151.5179 
L 176.264414 151.649431 
L 176.711307 151.630062 
L 177.605093 151.925521 
L 179.392666 153.906968 
L 179.839559 154.647088 
L 180.286452 154.989346 
L 181.180238 156.198035 
L 181.627131 157.182001 
L 182.074024 157.750618 
L 182.520917 158.505202 
L 183.414703 160.9608 
L 183.861596 161.77456 
L 184.308489 162.077912 
L 184.755382 162.830165 
L 185.649168 163.645957 
L 186.542954 164.423891 
L 187.43674 165.494442 
L 188.330526 166.046019 
L 188.777419 166.17106 
L 189.224312 166.657599 
L 189.671205 166.547511 
L 191.011885 165.834392 
L 191.905671 166.494426 
L 192.799457 165.631833 
L 193.24635 165.508494 
L 193.693243 165.230309 
L 194.140136 165.098435 
L 194.587029 165.193474 
L 195.033922 164.876833 
L 195.480815 164.862421 
L 195.927708 164.504428 
L 197.268387 164.524935 
L 197.71528 164.982228 
L 198.609066 164.908244 
L 199.055959 164.881908 
L 199.502852 165.175467 
L 199.949745 164.753447 
L 200.396638 164.796957 
L 201.290425 164.70485 
L 202.184211 164.817046 
L 203.077997 164.462878 
L 203.52489 165.106904 
L 204.865569 164.997975 
L 205.312462 164.659058 
L 205.759355 164.592327 
L 206.206248 164.393557 
L 206.653141 164.496968 
L 207.546927 163.462909 
L 207.99382 163.268188 
L 208.440713 162.576996 
L 208.887606 162.332787 
L 209.334499 162.371001 
L 209.781392 162.265594 
L 210.228285 162.418033 
L 210.675178 162.425343 
L 211.122071 162.771731 
L 211.568964 162.689496 
L 212.015858 162.493054 
L 212.462751 162.447075 
L 213.356537 163.043592 
L 213.80343 162.542524 
L 214.250323 162.475629 
L 214.697216 162.897932 
L 216.037895 163.4321 
L 216.484788 163.697639 
L 217.378574 164.81125 
L 218.27236 165.258909 
L 218.719253 164.946123 
L 219.613039 164.935549 
L 220.059932 165.203121 
L 221.400611 165.158191 
L 221.847504 164.695617 
L 222.294397 165.019749 
L 222.74129 165.16968 
L 223.188184 164.980461 
L 223.635077 165.06386 
L 224.08197 164.896639 
L 224.528863 164.474587 
L 224.975756 164.545786 
L 225.422649 164.415505 
L 225.869542 163.673403 
L 226.316435 163.319861 
L 226.763328 162.795043 
L 227.210221 162.821893 
L 227.657114 162.691873 
L 228.5509 162.075192 
L 228.997793 161.627974 
L 229.444686 161.80202 
L 229.891579 162.248725 
L 230.338472 162.341441 
L 230.785365 163.491607 
L 231.232258 163.894376 
L 231.679151 163.974336 
L 232.126044 164.253728 
L 232.572937 164.242611 
L 233.913617 164.757429 
L 234.36051 165.285305 
L 234.807403 165.602743 
L 235.254296 165.614706 
L 235.701189 165.485211 
L 236.148082 165.605909 
L 236.594975 165.915881 
L 237.935654 165.583629 
L 240.170119 165.356324 
L 241.063905 166.278326 
L 241.510798 166.294911 
L 241.957691 166.154632 
L 242.404584 165.825558 
L 242.851477 165.823474 
L 243.29837 165.333686 
L 243.745263 165.674261 
L 244.192156 165.47553 
L 244.639049 165.508757 
L 245.085943 165.107604 
L 245.532836 165.293237 
L 245.979729 165.122415 
L 246.426622 164.630116 
L 246.873515 164.634837 
L 247.320408 164.509482 
L 248.661087 164.710965 
L 249.10798 164.946288 
L 249.554873 164.646843 
L 250.001766 164.590426 
L 250.448659 164.857479 
L 250.895552 164.726708 
L 251.342445 164.931075 
L 252.236231 164.247254 
L 252.683124 164.129402 
L 253.130017 163.642869 
L 254.023803 163.052784 
L 254.470696 162.486047 
L 254.917589 162.386366 
L 256.258269 161.063764 
L 256.705162 160.917535 
L 257.152055 160.1756 
L 257.598948 159.75336 
L 258.045841 159.527913 
L 258.492734 159.454579 
L 258.939627 158.961442 
L 259.38652 158.800195 
L 260.280306 158.773064 
L 261.174092 158.1417 
L 261.620985 157.37215 
L 262.514771 157.222538 
L 262.961664 156.889518 
L 263.408557 156.765041 
L 263.85545 156.849331 
L 264.302343 156.784585 
L 264.749236 156.85121 
L 265.196129 156.725068 
L 265.643022 157.119389 
L 266.089915 157.072325 
L 266.536808 157.586088 
L 270.558846 155.929762 
L 271.452632 155.161893 
L 272.346418 154.925779 
L 272.793311 154.517233 
L 273.687097 154.67767 
L 274.13399 154.859416 
L 275.027776 154.785653 
L 275.474669 154.571573 
L 275.921562 154.495804 
L 276.368455 154.224303 
L 276.815348 154.273797 
L 277.262241 154.000629 
L 277.709135 154.242029 
L 278.156028 153.84753 
L 279.049814 153.641703 
L 279.496707 153.916639 
L 279.9436 153.593763 
L 280.390493 153.652061 
L 280.837386 153.56464 
L 281.284279 153.594097 
L 282.178065 153.358136 
L 282.624958 153.041147 
L 283.071851 153.118403 
L 283.518744 152.933849 
L 283.965637 153.262719 
L 284.859423 153.094996 
L 285.306316 153.233188 
L 285.753209 153.228206 
L 286.200102 152.988608 
L 286.646995 152.931493 
L 287.093888 152.989812 
L 287.540781 153.176977 
L 288.434568 152.950299 
L 288.881461 152.970568 
L 289.328354 153.111971 
L 290.669033 153.187647 
L 291.115926 153.504284 
L 291.562819 153.439961 
L 292.456605 153.805055 
L 292.903498 153.773106 
L 293.797284 154.376086 
L 295.584856 154.233322 
L 296.031749 153.973768 
L 297.372428 153.741497 
L 298.266214 153.787153 
L 298.713107 154.005828 
L 299.16 154.043011 
L 299.606894 154.201818 
L 300.053787 154.179955 
L 300.50068 154.513157 
L 300.947573 154.502629 
L 301.394466 154.355792 
L 302.288252 154.557448 
L 303.182038 154.246659 
L 303.628931 154.263413 
L 304.522717 154.545406 
L 306.310289 154.326382 
L 308.544754 153.619734 
L 308.991647 153.83485 
L 309.43854 153.598212 
L 309.885433 153.811881 
L 310.77922 154.773807 
L 312.119899 155.519513 
L 312.566792 155.518534 
L 313.013685 155.672107 
L 313.460578 155.573907 
L 313.907471 155.807737 
L 315.24815 155.88435 
L 316.141936 155.614699 
L 316.588829 156.033219 
L 317.035722 156.241255 
L 318.376401 155.996392 
L 318.823294 155.781767 
L 319.270187 155.364737 
L 319.71708 155.127271 
L 323.292225 151.878816 
L 323.739118 151.719885 
L 324.186011 151.307014 
L 324.632904 150.655815 
L 325.079797 150.390125 
L 326.420476 148.969171 
L 326.867369 148.332734 
L 329.99562 146.703297 
L 330.889406 146.26078 
L 331.336299 145.827358 
L 331.783192 145.556096 
L 332.230086 144.84737 
L 333.123872 142.886893 
L 333.570765 142.36469 
L 334.464551 140.866794 
L 335.358337 140.141868 
L 335.80523 140.101772 
L 337.145909 138.867796 
L 338.039695 138.98073 
L 338.486588 138.720472 
L 338.933481 137.959654 
L 339.380374 137.814484 
L 339.827267 137.989015 
L 340.27416 137.707491 
L 340.721053 138.061211 
L 341.167946 138.267192 
L 342.061732 139.313467 
L 343.402412 139.961328 
L 343.849305 139.960267 
L 344.296198 140.387617 
L 344.743091 140.312832 
L 345.636877 140.790589 
L 346.530663 140.471724 
L 347.871342 141.603732 
L 348.765128 141.151169 
L 349.212021 140.933326 
L 350.105807 140.179203 
L 350.5527 139.498604 
L 350.999593 139.220094 
L 352.340272 137.713786 
L 353.680951 135.7164 
L 354.574738 134.352331 
L 355.915417 132.829036 
L 357.702989 131.289464 
L 358.596775 130.082494 
L 359.043668 129.607236 
L 359.490561 129.348765 
L 360.83124 127.679793 
L 361.278133 127.373942 
L 363.065705 124.346671 
L 363.512598 124.068696 
L 366.193957 120.431348 
L 367.087743 119.387668 
L 367.534636 118.700988 
L 368.428422 118.189459 
L 368.875315 118.250636 
L 369.322208 118.008585 
L 369.769101 117.250533 
L 370.215994 116.844726 
L 371.556673 116.151578 
L 372.003566 115.600241 
L 372.450459 115.287864 
L 373.344245 115.058429 
L 373.791138 114.636743 
L 375.131817 114.261983 
L 375.57871 114.399722 
L 376.025604 114.384535 
L 376.472497 114.599021 
L 376.91939 114.490331 
L 377.813176 114.802361 
L 378.706962 114.39412 
L 379.600748 114.127401 
L 380.047641 113.773625 
L 381.38832 113.199482 
L 381.835213 112.755417 
L 382.728999 112.248792 
L 383.175892 112.259482 
L 383.622785 112.13976 
L 384.069678 111.904036 
L 384.516571 112.017137 
L 385.410357 111.642901 
L 385.85725 110.979866 
L 386.304143 110.864566 
L 390.326181 108.772335 
L 390.773074 108.081527 
L 392.560646 106.683433 
L 393.007539 106.786242 
L 393.901325 106.659205 
L 395.242004 106.714042 
L 395.688897 106.479682 
L 396.13579 106.771035 
L 396.582683 106.758035 
L 397.029576 106.631987 
L 398.370256 106.666163 
L 399.710935 105.918347 
L 400.157828 105.748634 
L 400.604721 106.090684 
L 401.9454 106.3384 
L 402.392293 106.202431 
L 403.286079 106.187533 
L 403.732972 106.446885 
L 404.626758 106.50444 
L 405.520544 106.378386 
L 405.967437 106.360165 
L 406.41433 106.483474 
L 408.201902 106.33712 
L 408.648796 106.388037 
L 410.436368 107.371966 
L 410.883261 107.476542 
L 411.330154 107.334428 
L 411.777047 107.326567 
L 412.670833 107.675543 
L 413.117726 108.206824 
L 413.564619 107.978424 
L 414.011512 107.911213 
L 414.458405 108.225371 
L 415.352191 108.274158 
L 416.245977 108.778852 
L 417.139763 110.047764 
L 417.586656 110.535203 
L 418.033549 110.767294 
L 418.927335 111.794561 
L 419.821122 113.290295 
L 420.714908 114.205302 
L 421.161801 114.751202 
L 421.608694 115.642817 
L 422.50248 116.730173 
L 422.949373 116.790065 
L 424.290052 117.60111 
L 425.183838 118.65942 
L 425.630731 118.925457 
L 426.077624 119.034225 
L 426.97141 119.800572 
L 427.418303 119.997939 
L 427.865196 119.89647 
L 428.312089 120.288575 
L 428.758982 120.462078 
L 429.205875 120.445152 
L 429.652768 120.309932 
L 430.546555 120.686322 
L 431.440341 120.761562 
L 433.227913 119.51732 
L 433.674806 119.423126 
L 434.121699 119.499749 
L 434.568592 119.744008 
L 435.015485 119.352001 
L 435.462378 119.141883 
L 435.909271 119.63911 
L 436.356164 119.698238 
L 436.803057 119.416233 
L 437.696843 119.49971 
L 438.590629 119.379583 
L 439.037522 119.575839 
L 439.484415 119.592861 
L 439.931308 119.382723 
L 440.378201 119.502682 
L 440.825094 119.333282 
L 441.271988 118.798401 
L 441.718881 118.578437 
L 442.612667 117.837444 
L 443.506453 117.68707 
L 443.953346 117.066123 
L 444.400239 117.075815 
L 445.294025 116.200416 
L 446.187811 115.920359 
L 446.634704 115.959372 
L 447.975383 116.339945 
L 448.422276 116.386058 
L 448.869169 115.917594 
L 449.316062 116.167885 
L 450.209848 117.385193 
L 450.656741 117.723565 
L 451.550527 118.932929 
L 452.891207 121.457701 
L 453.784993 122.039253 
L 455.572565 125.455694 
L 456.019458 125.918965 
L 456.466351 127.103191 
L 456.913244 127.229055 
L 457.360137 127.516628 
L 457.80703 128.205747 
L 458.253923 128.64571 
L 460.041495 131.537672 
L 460.935281 133.919398 
L 462.27596 135.893277 
L 463.169747 136.530428 
L 464.063533 137.513265 
L 464.510426 138.217455 
L 464.957319 139.177739 
L 465.404212 139.618452 
L 465.851105 140.284382 
L 466.297998 141.267674 
L 467.191784 142.728182 
L 467.638677 143.537685 
L 468.532463 145.49819 
L 468.979356 145.827722 
L 469.873142 146.892753 
L 470.320035 147.176566 
L 470.766928 147.888544 
L 471.213821 148.891326 
L 471.660714 149.078455 
L 472.5545 150.401878 
L 473.001393 150.55008 
L 473.448286 150.857264 
L 473.895179 151.335563 
L 474.342073 151.536692 
L 475.235859 151.235036 
L 476.129645 151.457819 
L 476.576538 151.336512 
L 477.023431 151.533907 
L 477.470324 151.346285 
L 478.36411 152.026074 
L 478.811003 151.435711 
L 479.257896 151.691979 
L 479.704789 152.133518 
L 480.151682 152.185098 
L 480.598575 152.089261 
L 481.045468 152.21865 
L 481.492361 152.149929 
L 481.939254 152.208496 
L 482.386147 151.798683 
L 483.726826 149.51818 
L 484.173719 149.003649 
L 484.620612 148.743204 
L 485.067506 148.682528 
L 485.514399 148.41518 
L 485.961292 148.554631 
L 486.855078 147.934037 
L 487.301971 147.291976 
L 487.748864 147.062204 
L 488.195757 146.539352 
L 488.64265 145.781383 
L 489.536436 144.783298 
L 489.983329 144.162204 
L 490.877115 141.961786 
L 491.324008 141.381424 
L 492.217794 139.808841 
L 493.11158 138.987672 
L 493.558473 138.408774 
L 494.005366 138.088854 
L 495.346045 135.153178 
L 495.792938 134.46458 
L 496.239832 133.414358 
L 497.133618 132.246587 
L 498.474297 130.557367 
L 498.92119 130.333887 
L 500.261869 128.570956 
L 501.155655 127.639995 
L 501.602548 127.523104 
L 502.496334 126.992914 
L 502.943227 126.973714 
L 504.283906 126.523959 
L 504.730799 126.210017 
L 505.624585 126.213909 
L 506.518371 126.226942 
L 506.965265 126.004788 
L 507.859051 126.065031 
L 508.305944 125.707185 
L 508.752837 125.794146 
L 509.19973 125.633243 
L 509.646623 125.953384 
L 512.774874 125.357458 
L 513.221767 125.546993 
L 514.115553 125.329638 
L 515.009339 125.006536 
L 516.350018 123.896008 
L 516.796911 123.509491 
L 517.690698 123.661427 
L 518.137591 123.263872 
L 518.584484 123.269556 
L 519.47827 123.010858 
L 520.372056 122.868505 
L 520.818949 123.066853 
L 521.265842 122.665205 
L 523.053414 122.260286 
L 523.9472 121.750943 
L 525.287879 120.993836 
L 526.628558 119.839513 
L 527.075451 119.727005 
L 527.522344 119.27796 
L 527.969237 118.336742 
L 528.41613 118.148365 
L 528.41613 118.148365 
" clip-path="url(#p0f9a94a824)" style="fill: none; stroke-dasharray: 2.96,1.28; stroke-dashoffset: 0; stroke: #ff0000; stroke-width: 0.8"/>
   </g>
   <g id="patch_3">
    <path d="M 59.178438 200.648125 
L 59.178438 55.609187 
" style="fill: none; stroke: #ffffff; stroke-width: 1.25; stroke-linejoin: miter; stroke-linecap: square"/>
   </g>
   <g id="patch_4">
    <path d="M 550.760783 200.648125 
L 550.760783 55.609187 
" style="fill: none; stroke: #ffffff; stroke-width: 1.25; stroke-linejoin: miter; stroke-linecap: square"/>
   </g>
   <g id="patch_5">
    <path d="M 59.178438 200.648125 
L 550.760783 200.648125 
" style="fill: none; stroke: #ffffff; stroke-width: 1.25; stroke-linejoin: miter; stroke-linecap: square"/>
   </g>
   <g id="patch_6">
    <path d="M 59.178438 55.609187 
L 550.760783 55.609187 
" style="fill: none; stroke: #ffffff; stroke-width: 1.25; stroke-linejoin: miter; stroke-linecap: square"/>
   </g>
   <g id="legend_1">
    <g id="patch_7">
     <path d="M 478.921095 196.148125 
L 544.460783 196.148125 
Q 546.260783 196.148125 546.260783 194.348125 
L 546.260783 168.8275 
Q 546.260783 167.0275 544.460783 167.0275 
L 478.921095 167.0275 
Q 477.121095 167.0275 477.121095 168.8275 
L 477.121095 194.348125 
Q 477.121095 196.148125 478.921095 196.148125 
z
" style="fill: #eaeaf2; opacity: 0.8; stroke: #cccccc; stroke-linejoin: miter"/>
    </g>
    <g id="line2d_20">
     <path d="M 480.721095 174.316094 
L 489.721095 174.316094 
L 498.721095 174.316094 
" style="fill: none; stroke: #000000; stroke-width: 0.7; stroke-linecap: round"/>
    </g>
    <g id="text_20">
     <!-- TDC -->
     <g style="fill: #262626" transform="translate(505.921095 177.466094)scale(0.09 -0.09)">
      <defs>
       <path id="DejaVuSans-54" d="M -19 4666 
L 3928 4666 
L 3928 4134 
L 2272 4134 
L 2272 0 
L 1638 0 
L 1638 4134 
L -19 4134 
L -19 4666 
z
" transform="scale(0.015625)"/>
       <path id="DejaVuSans-44" d="M 1259 4147 
L 1259 519 
L 2022 519 
Q 2988 519 3436 956 
Q 3884 1394 3884 2338 
Q 3884 3275 3436 3711 
Q 2988 4147 2022 4147 
L 1259 4147 
z
M 628 4666 
L 1925 4666 
Q 3281 4666 3915 4102 
Q 4550 3538 4550 2338 
Q 4550 1131 3912 565 
Q 3275 0 1925 0 
L 628 0 
L 628 4666 
z
" transform="scale(0.015625)"/>
       <path id="DejaVuSans-43" d="M 4122 4306 
L 4122 3641 
Q 3803 3938 3442 4084 
Q 3081 4231 2675 4231 
Q 1875 4231 1450 3742 
Q 1025 3253 1025 2328 
Q 1025 1406 1450 917 
Q 1875 428 2675 428 
Q 3081 428 3442 575 
Q 3803 722 4122 1019 
L 4122 359 
Q 3791 134 3420 21 
Q 3050 -91 2638 -91 
Q 1578 -91 968 557 
Q 359 1206 359 2328 
Q 359 3453 968 4101 
Q 1578 4750 2638 4750 
Q 3056 4750 3426 4639 
Q 3797 4528 4122 4306 
z
" transform="scale(0.015625)"/>
      </defs>
      <use xlink:href="#DejaVuSans-54"/>
      <use xlink:href="#DejaVuSans-44" x="61.083984"/>
      <use xlink:href="#DejaVuSans-43" x="138.085938"/>
     </g>
    </g>
    <g id="line2d_21">
     <path d="M 480.721095 187.526406 
L 489.721095 187.526406 
L 498.721095 187.526406 
" style="fill: none; stroke-dasharray: 2.96,1.28; stroke-dashoffset: 0; stroke: #ff0000; stroke-width: 0.8"/>
    </g>
    <g id="text_21">
     <!-- Mov. Av. -->
     <g style="fill: #262626" transform="translate(505.921095 190.676406)scale(0.09 -0.09)">
      <defs>
       <path id="DejaVuSans-4d" d="M 628 4666 
L 1569 4666 
L 2759 1491 
L 3956 4666 
L 4897 4666 
L 4897 0 
L 4281 0 
L 4281 4097 
L 3078 897 
L 2444 897 
L 1241 4097 
L 1241 0 
L 628 0 
L 628 4666 
z
" transform="scale(0.015625)"/>
       <path id="DejaVuSans-76" d="M 191 3500 
L 800 3500 
L 1894 563 
L 2988 3500 
L 3597 3500 
L 2284 0 
L 1503 0 
L 191 3500 
z
" transform="scale(0.015625)"/>
       <path id="DejaVuSans-2e" d="M 684 794 
L 1344 794 
L 1344 0 
L 684 0 
L 684 794 
z
" transform="scale(0.015625)"/>
       <path id="DejaVuSans-41" d="M 2188 4044 
L 1331 1722 
L 3047 1722 
L 2188 4044 
z
M 1831 4666 
L 2547 4666 
L 4325 0 
L 3669 0 
L 3244 1197 
L 1141 1197 
L 716 0 
L 50 0 
L 1831 4666 
z
" transform="scale(0.015625)"/>
      </defs>
      <use xlink:href="#DejaVuSans-4d"/>
      <use xlink:href="#DejaVuSans-6f" x="86.279297"/>
      <use xlink:href="#DejaVuSans-76" x="147.460938"/>
      <use xlink:href="#DejaVuSans-2e" x="198.890625"/>
      <use xlink:href="#DejaVuSans-20" x="230.677734"/>
      <use xlink:href="#DejaVuSans-41" x="262.464844"/>
      <use xlink:href="#DejaVuSans-76" x="324.998047"/>
      <use xlink:href="#DejaVuSans-2e" x="376.427734"/>
     </g>
    </g>
   </g>
  </g>
  <g id="text_22">
   <!-- Energetic Components [Per-residue] -->
   <g style="fill: #262626" transform="translate(161.55375 15.605813)scale(0.14 -0.14)">
    <defs>
     <path id="DejaVuSans-74" d="M 1172 4494 
L 1172 3500 
L 2356 3500 
L 2356 3053 
L 1172 3053 
L 1172 1153 
Q 1172 725 1289 603 
Q 1406 481 1766 481 
L 2356 481 
L 2356 0 
L 1766 0 
Q 1100 0 847 248 
Q 594 497 594 1153 
L 594 3053 
L 172 3053 
L 172 3500 
L 594 3500 
L 594 4494 
L 1172 4494 
z
" transform="scale(0.015625)"/>
     <path id="DejaVuSans-69" d="M 603 3500 
L 1178 3500 
L 1178 0 
L 603 0 
L 603 3500 
z
M 603 4863 
L 1178 4863 
L 1178 4134 
L 603 4134 
L 603 4863 
z
" transform="scale(0.015625)"/>
     <path id="DejaVuSans-70" d="M 1159 525 
L 1159 -1331 
L 581 -1331 
L 581 3500 
L 1159 3500 
L 1159 2969 
Q 1341 3281 1617 3432 
Q 1894 3584 2278 3584 
Q 2916 3584 3314 3078 
Q 3713 2572 3713 1747 
Q 3713 922 3314 415 
Q 2916 -91 2278 -91 
Q 1894 -91 1617 61 
Q 1341 213 1159 525 
z
M 3116 1747 
Q 3116 2381 2855 2742 
Q 2594 3103 2138 3103 
Q 1681 3103 1420 2742 
Q 1159 2381 1159 1747 
Q 1159 1113 1420 752 
Q 1681 391 2138 391 
Q 2594 391 2855 752 
Q 3116 1113 3116 1747 
z
" transform="scale(0.015625)"/>
     <path id="DejaVuSans-5b" d="M 550 4863 
L 1875 4863 
L 1875 4416 
L 1125 4416 
L 1125 -397 
L 1875 -397 
L 1875 -844 
L 550 -844 
L 550 4863 
z
" transform="scale(0.015625)"/>
     <path id="DejaVuSans-50" d="M 1259 4147 
L 1259 2394 
L 2053 2394 
Q 2494 2394 2734 2622 
Q 2975 2850 2975 3272 
Q 2975 3691 2734 3919 
Q 2494 4147 2053 4147 
L 1259 4147 
z
M 628 4666 
L 2053 4666 
Q 2838 4666 3239 4311 
Q 3641 3956 3641 3272 
Q 3641 2581 3239 2228 
Q 2838 1875 2053 1875 
L 1259 1875 
L 1259 0 
L 628 0 
L 628 4666 
z
" transform="scale(0.015625)"/>
     <path id="DejaVuSans-2d" d="M 313 2009 
L 1997 2009 
L 1997 1497 
L 313 1497 
L 313 2009 
z
" transform="scale(0.015625)"/>
     <path id="DejaVuSans-64" d="M 2906 2969 
L 2906 4863 
L 3481 4863 
L 3481 0 
L 2906 0 
L 2906 525 
Q 2725 213 2448 61 
Q 2172 -91 1784 -91 
Q 1150 -91 751 415 
Q 353 922 353 1747 
Q 353 2572 751 3078 
Q 1150 3584 1784 3584 
Q 2172 3584 2448 3432 
Q 2725 3281 2906 2969 
z
M 947 1747 
Q 947 1113 1208 752 
Q 1469 391 1925 391 
Q 2381 391 2643 752 
Q 2906 1113 2906 1747 
Q 2906 2381 2643 2742 
Q 2381 3103 1925 3103 
Q 1469 3103 1208 2742 
Q 947 2381 947 1747 
z
" transform="scale(0.015625)"/>
     <path id="DejaVuSans-75" d="M 544 1381 
L 544 3500 
L 1119 3500 
L 1119 1403 
Q 1119 906 1312 657 
Q 1506 409 1894 409 
Q 2359 409 2629 706 
Q 2900 1003 2900 1516 
L 2900 3500 
L 3475 3500 
L 3475 0 
L 2900 0 
L 2900 538 
Q 2691 219 2414 64 
Q 2138 -91 1772 -91 
Q 1169 -91 856 284 
Q 544 659 544 1381 
z
M 1991 3584 
L 1991 3584 
z
" transform="scale(0.015625)"/>
     <path id="DejaVuSans-5d" d="M 1947 4863 
L 1947 -844 
L 622 -844 
L 622 -397 
L 1369 -397 
L 1369 4416 
L 622 4416 
L 622 4863 
L 1947 4863 
z
" transform="scale(0.015625)"/>
    </defs>
    <use xlink:href="#DejaVuSans-45"/>
    <use xlink:href="#DejaVuSans-6e" x="63.183594"/>
    <use xlink:href="#DejaVuSans-65" x="126.5625"/>
    <use xlink:href="#DejaVuSans-72" x="188.085938"/>
    <use xlink:href="#DejaVuSans-67" x="227.449219"/>
    <use xlink:href="#DejaVuSans-65" x="290.925781"/>
    <use xlink:href="#DejaVuSans-74" x="352.449219"/>
    <use xlink:href="#DejaVuSans-69" x="391.658203"/>
    <use xlink:href="#DejaVuSans-63" x="419.441406"/>
    <use xlink:href="#DejaVuSans-20" x="474.421875"/>
    <use xlink:href="#DejaVuSans-43" x="506.208984"/>
    <use xlink:href="#DejaVuSans-6f" x="576.033203"/>
    <use xlink:href="#DejaVuSans-6d" x="637.214844"/>
    <use xlink:href="#DejaVuSans-70" x="734.626953"/>
    <use xlink:href="#DejaVuSans-6f" x="798.103516"/>
    <use xlink:href="#DejaVuSans-6e" x="859.285156"/>
    <use xlink:href="#DejaVuSans-65" x="922.664062"/>
    <use xlink:href="#DejaVuSans-6e" x="984.1875"/>
    <use xlink:href="#DejaVuSans-74" x="1047.566406"/>
    <use xlink:href="#DejaVuSans-73" x="1086.775391"/>
    <use xlink:href="#DejaVuSans-20" x="1138.875"/>
    <use xlink:href="#DejaVuSans-5b" x="1170.662109"/>
    <use xlink:href="#DejaVuSans-50" x="1209.675781"/>
    <use xlink:href="#DejaVuSans-65" x="1266.353516"/>
    <use xlink:href="#DejaVuSans-72" x="1327.876953"/>
    <use xlink:href="#DejaVuSans-2d" x="1362.615234"/>
    <use xlink:href="#DejaVuSans-72" x="1398.699219"/>
    <use xlink:href="#DejaVuSans-65" x="1437.5625"/>
    <use xlink:href="#DejaVuSans-73" x="1499.085938"/>
    <use xlink:href="#DejaVuSans-69" x="1551.185547"/>
    <use xlink:href="#DejaVuSans-64" x="1578.96875"/>
    <use xlink:href="#DejaVuSans-75" x="1642.445312"/>
    <use xlink:href="#DejaVuSans-65" x="1705.824219"/>
    <use xlink:href="#DejaVuSans-5d" x="1767.347656"/>
   </g>
   <!-- System-1 | NORMAL | GB | Delta | TDC -->
   <g style="fill: #262626" transform="translate(153.892031 31.35625)scale(0.14 -0.14)">
    <defs>
     <path id="DejaVuSans-53" d="M 3425 4513 
L 3425 3897 
Q 3066 4069 2747 4153 
Q 2428 4238 2131 4238 
Q 1616 4238 1336 4038 
Q 1056 3838 1056 3469 
Q 1056 3159 1242 3001 
Q 1428 2844 1947 2747 
L 2328 2669 
Q 3034 2534 3370 2195 
Q 3706 1856 3706 1288 
Q 3706 609 3251 259 
Q 2797 -91 1919 -91 
Q 1588 -91 1214 -16 
Q 841 59 441 206 
L 441 856 
Q 825 641 1194 531 
Q 1563 422 1919 422 
Q 2459 422 2753 634 
Q 3047 847 3047 1241 
Q 3047 1584 2836 1778 
Q 2625 1972 2144 2069 
L 1759 2144 
Q 1053 2284 737 2584 
Q 422 2884 422 3419 
Q 422 4038 858 4394 
Q 1294 4750 2059 4750 
Q 2388 4750 2728 4690 
Q 3069 4631 3425 4513 
z
" transform="scale(0.015625)"/>
     <path id="DejaVuSans-7c" d="M 1344 4891 
L 1344 -1509 
L 813 -1509 
L 813 4891 
L 1344 4891 
z
" transform="scale(0.015625)"/>
     <path id="DejaVuSans-4e" d="M 628 4666 
L 1478 4666 
L 3547 763 
L 3547 4666 
L 4159 4666 
L 4159 0 
L 3309 0 
L 1241 3903 
L 1241 0 
L 628 0 
L 628 4666 
z
" transform="scale(0.015625)"/>
     <path id="DejaVuSans-4f" d="M 2522 4238 
Q 1834 4238 1429 3725 
Q 1025 3213 1025 2328 
Q 1025 1447 1429 934 
Q 1834 422 2522 422 
Q 3209 422 3611 934 
Q 4013 1447 4013 2328 
Q 4013 3213 3611 3725 
Q 3209 4238 2522 4238 
z
M 2522 4750 
Q 3503 4750 4090 4092 
Q 4678 3434 4678 2328 
Q 4678 1225 4090 567 
Q 3503 -91 2522 -91 
Q 1538 -91 948 565 
Q 359 1222 359 2328 
Q 359 3434 948 4092 
Q 1538 4750 2522 4750 
z
" transform="scale(0.015625)"/>
     <path id="DejaVuSans-52" d="M 2841 2188 
Q 3044 2119 3236 1894 
Q 3428 1669 3622 1275 
L 4263 0 
L 3584 0 
L 2988 1197 
Q 2756 1666 2539 1819 
Q 2322 1972 1947 1972 
L 1259 1972 
L 1259 0 
L 628 0 
L 628 4666 
L 2053 4666 
Q 2853 4666 3247 4331 
Q 3641 3997 3641 3322 
Q 3641 2881 3436 2590 
Q 3231 2300 2841 2188 
z
M 1259 4147 
L 1259 2491 
L 2053 2491 
Q 2509 2491 2742 2702 
Q 2975 2913 2975 3322 
Q 2975 3731 2742 3939 
Q 2509 4147 2053 4147 
L 1259 4147 
z
" transform="scale(0.015625)"/>
     <path id="DejaVuSans-4c" d="M 628 4666 
L 1259 4666 
L 1259 531 
L 3531 531 
L 3531 0 
L 628 0 
L 628 4666 
z
" transform="scale(0.015625)"/>
     <path id="DejaVuSans-47" d="M 3809 666 
L 3809 1919 
L 2778 1919 
L 2778 2438 
L 4434 2438 
L 4434 434 
Q 4069 175 3628 42 
Q 3188 -91 2688 -91 
Q 1594 -91 976 548 
Q 359 1188 359 2328 
Q 359 3472 976 4111 
Q 1594 4750 2688 4750 
Q 3144 4750 3555 4637 
Q 3966 4525 4313 4306 
L 4313 3634 
Q 3963 3931 3569 4081 
Q 3175 4231 2741 4231 
Q 1884 4231 1454 3753 
Q 1025 3275 1025 2328 
Q 1025 1384 1454 906 
Q 1884 428 2741 428 
Q 3075 428 3337 486 
Q 3600 544 3809 666 
z
" transform="scale(0.015625)"/>
     <path id="DejaVuSans-42" d="M 1259 2228 
L 1259 519 
L 2272 519 
Q 2781 519 3026 730 
Q 3272 941 3272 1375 
Q 3272 1813 3026 2020 
Q 2781 2228 2272 2228 
L 1259 2228 
z
M 1259 4147 
L 1259 2741 
L 2194 2741 
Q 2656 2741 2882 2914 
Q 3109 3088 3109 3444 
Q 3109 3797 2882 3972 
Q 2656 4147 2194 4147 
L 1259 4147 
z
M 628 4666 
L 2241 4666 
Q 2963 4666 3353 4366 
Q 3744 4066 3744 3513 
Q 3744 3084 3544 2831 
Q 3344 2578 2956 2516 
Q 3422 2416 3680 2098 
Q 3938 1781 3938 1306 
Q 3938 681 3513 340 
Q 3088 0 2303 0 
L 628 0 
L 628 4666 
z
" transform="scale(0.015625)"/>
    </defs>
    <use xlink:href="#DejaVuSans-53"/>
    <use xlink:href="#DejaVuSans-79" x="63.476562"/>
    <use xlink:href="#DejaVuSans-73" x="122.65625"/>
    <use xlink:href="#DejaVuSans-74" x="174.755859"/>
    <use xlink:href="#DejaVuSans-65" x="213.964844"/>
    <use xlink:href="#DejaVuSans-6d" x="275.488281"/>
    <use xlink:href="#DejaVuSans-2d" x="372.900391"/>
    <use xlink:href="#DejaVuSans-31" x="408.984375"/>
    <use xlink:href="#DejaVuSans-20" x="472.607422"/>
    <use xlink:href="#DejaVuSans-7c" x="504.394531"/>
    <use xlink:href="#DejaVuSans-20" x="538.085938"/>
    <use xlink:href="#DejaVuSans-4e" x="569.873047"/>
    <use xlink:href="#DejaVuSans-4f" x="644.677734"/>
    <use xlink:href="#DejaVuSans-52" x="723.388672"/>
    <use xlink:href="#DejaVuSans-4d" x="792.871094"/>
    <use xlink:href="#DejaVuSans-41" x="879.150391"/>
    <use xlink:href="#DejaVuSans-4c" x="947.558594"/>
    <use xlink:href="#DejaVuSans-20" x="1003.271484"/>
    <use xlink:href="#DejaVuSans-7c" x="1035.058594"/>
    <use xlink:href="#DejaVuSans-20" x="1068.75"/>
    <use xlink:href="#DejaVuSans-47" x="1100.537109"/>
    <use xlink:href="#DejaVuSans-42" x="1178.027344"/>
    <use xlink:href="#DejaVuSans-20" x="1246.630859"/>
    <use xlink:href="#DejaVuSans-7c" x="1278.417969"/>
    <use xlink:href="#DejaVuSans-20" x="1312.109375"/>
    <use xlink:href="#DejaVuSans-44" x="1343.896484"/>
    <use xlink:href="#DejaVuSans-65" x="1420.898438"/>
    <use xlink:href="#DejaVuSans-6c" x="1482.421875"/>
    <use xlink:href="#DejaVuSans-74" x="1510.205078"/>
    <use xlink:href="#DejaVuSans-61" x="1549.414062"/>
    <use xlink:href="#DejaVuSans-20" x="1610.693359"/>
    <use xlink:href="#DejaVuSans-7c" x="1642.480469"/>
    <use xlink:href="#DejaVuSans-20" x="1676.171875"/>
    <use xlink:href="#DejaVuSans-54" x="1707.958984"/>
    <use xlink:href="#DejaVuSans-44" x="1769.042969"/>
    <use xlink:href="#DejaVuSans-43" x="1846.044922"/>
   </g>
  </g>
 </g>
 <defs>
  <clipPath id="p0f9a94a824">
   <rect x="59.178438" y="55.609187" width="491.582345" height="145.038938"/>
  </clipPath>
 </defs>
</svg>
