<?xml version="1.0" encoding="utf-8" standalone="no"?>
<!DOCTYPE svg PUBLIC "-//W3C//DTD SVG 1.1//EN"
  "http://www.w3.org/Graphics/SVG/1.1/DTD/svg11.dtd">
<svg xmlns:xlink="http://www.w3.org/1999/xlink" width="576pt" height="248.4pt" viewBox="0 0 576 248.4" xmlns="http://www.w3.org/2000/svg" version="1.1">
 <metadata>
  <rdf:RDF xmlns:dc="http://purl.org/dc/elements/1.1/" xmlns:cc="http://creativecommons.org/ns#" xmlns:rdf="http://www.w3.org/1999/02/22-rdf-syntax-ns#">
   <cc:Work>
    <dc:type rdf:resource="http://purl.org/dc/dcmitype/StillImage"/>
    <dc:date>2024-10-20T17:07:42.319428</dc:date>
    <dc:format>image/svg+xml</dc:format>
    <dc:creator>
     <cc:Agent>
      <dc:title>Matplotlib v3.5.2, https://matplotlib.org/</dc:title>
     </cc:Agent>
    </dc:creator>
   </cc:Work>
  </rdf:RDF>
 </metadata>
 <defs>
  <style type="text/css">*{stroke-linejoin: round; stroke-linecap: butt}</style>
 </defs>
 <g id="figure_1">
  <g id="patch_1">
   <path d="M 0 248.4 
L 576 248.4 
L 576 0 
L 0 0 
z
" style="fill: #ffffff"/>
  </g>
  <g id="axes_1">
   <g id="patch_2">
    <path d="M 59.178438 200.648125 
L 550.760783 200.648125 
L 550.760783 55.609187 
L 59.178438 55.609187 
z
" style="fill: #eaeaf2"/>
   </g>
   <g id="matplotlib.axis_1">
    <g id="xtick_1">
     <g id="line2d_1">
      <path d="M 81.076197 200.648125 
L 81.076197 55.609187 
" clip-path="url(#p324e738dae)" style="fill: none; stroke: #ffffff; stroke-linecap: round"/>
     </g>
     <g id="text_1">
      <!-- 0 -->
      <g style="fill: #262626" transform="translate(77.894947 217.746562)scale(0.1 -0.1)">
       <defs>
        <path id="DejaVuSans-30" d="M 2034 4250 
Q 1547 4250 1301 3770 
Q 1056 3291 1056 2328 
Q 1056 1369 1301 889 
Q 1547 409 2034 409 
Q 2525 409 2770 889 
Q 3016 1369 3016 2328 
Q 3016 3291 2770 3770 
Q 2525 4250 2034 4250 
z
M 2034 4750 
Q 2819 4750 3233 4129 
Q 3647 3509 3647 2328 
Q 3647 1150 3233 529 
Q 2819 -91 2034 -91 
Q 1250 -91 836 529 
Q 422 1150 422 2328 
Q 422 3509 836 4129 
Q 1250 4750 2034 4750 
z
" transform="scale(0.015625)"/>
       </defs>
       <use xlink:href="#DejaVuSans-30"/>
      </g>
     </g>
    </g>
    <g id="xtick_2">
     <g id="line2d_2">
      <path d="M 148.110153 200.648125 
L 148.110153 55.609187 
" clip-path="url(#p324e738dae)" style="fill: none; stroke: #ffffff; stroke-linecap: round"/>
     </g>
     <g id="text_2">
      <!-- 150 -->
      <g style="fill: #262626" transform="translate(138.566403 217.746562)scale(0.1 -0.1)">
       <defs>
        <path id="DejaVuSans-31" d="M 794 531 
L 1825 531 
L 1825 4091 
L 703 3866 
L 703 4441 
L 1819 4666 
L 2450 4666 
L 2450 531 
L 3481 531 
L 3481 0 
L 794 0 
L 794 531 
z
" transform="scale(0.015625)"/>
        <path id="DejaVuSans-35" d="M 691 4666 
L 3169 4666 
L 3169 4134 
L 1269 4134 
L 1269 2991 
Q 1406 3038 1543 3061 
Q 1681 3084 1819 3084 
Q 2600 3084 3056 2656 
Q 3513 2228 3513 1497 
Q 3513 744 3044 326 
Q 2575 -91 1722 -91 
Q 1428 -91 1123 -41 
Q 819 9 494 109 
L 494 744 
Q 775 591 1075 516 
Q 1375 441 1709 441 
Q 2250 441 2565 725 
Q 2881 1009 2881 1497 
Q 2881 1984 2565 2268 
Q 2250 2553 1709 2553 
Q 1456 2553 1204 2497 
Q 953 2441 691 2322 
L 691 4666 
z
" transform="scale(0.015625)"/>
       </defs>
       <use xlink:href="#DejaVuSans-31"/>
       <use xlink:href="#DejaVuSans-35" x="63.623047"/>
       <use xlink:href="#DejaVuSans-30" x="127.246094"/>
      </g>
     </g>
    </g>
    <g id="xtick_3">
     <g id="line2d_3">
      <path d="M 215.144109 200.648125 
L 215.144109 55.609187 
" clip-path="url(#p324e738dae)" style="fill: none; stroke: #ffffff; stroke-linecap: round"/>
     </g>
     <g id="text_3">
      <!-- 300 -->
      <g style="fill: #262626" transform="translate(205.600359 217.746562)scale(0.1 -0.1)">
       <defs>
        <path id="DejaVuSans-33" d="M 2597 2516 
Q 3050 2419 3304 2112 
Q 3559 1806 3559 1356 
Q 3559 666 3084 287 
Q 2609 -91 1734 -91 
Q 1441 -91 1130 -33 
Q 819 25 488 141 
L 488 750 
Q 750 597 1062 519 
Q 1375 441 1716 441 
Q 2309 441 2620 675 
Q 2931 909 2931 1356 
Q 2931 1769 2642 2001 
Q 2353 2234 1838 2234 
L 1294 2234 
L 1294 2753 
L 1863 2753 
Q 2328 2753 2575 2939 
Q 2822 3125 2822 3475 
Q 2822 3834 2567 4026 
Q 2313 4219 1838 4219 
Q 1578 4219 1281 4162 
Q 984 4106 628 3988 
L 628 4550 
Q 988 4650 1302 4700 
Q 1616 4750 1894 4750 
Q 2613 4750 3031 4423 
Q 3450 4097 3450 3541 
Q 3450 3153 3228 2886 
Q 3006 2619 2597 2516 
z
" transform="scale(0.015625)"/>
       </defs>
       <use xlink:href="#DejaVuSans-33"/>
       <use xlink:href="#DejaVuSans-30" x="63.623047"/>
       <use xlink:href="#DejaVuSans-30" x="127.246094"/>
      </g>
     </g>
    </g>
    <g id="xtick_4">
     <g id="line2d_4">
      <path d="M 282.178065 200.648125 
L 282.178065 55.609187 
" clip-path="url(#p324e738dae)" style="fill: none; stroke: #ffffff; stroke-linecap: round"/>
     </g>
     <g id="text_4">
      <!-- 450 -->
      <g style="fill: #262626" transform="translate(272.634315 217.746562)scale(0.1 -0.1)">
       <defs>
        <path id="DejaVuSans-34" d="M 2419 4116 
L 825 1625 
L 2419 1625 
L 2419 4116 
z
M 2253 4666 
L 3047 4666 
L 3047 1625 
L 3713 1625 
L 3713 1100 
L 3047 1100 
L 3047 0 
L 2419 0 
L 2419 1100 
L 313 1100 
L 313 1709 
L 2253 4666 
z
" transform="scale(0.015625)"/>
       </defs>
       <use xlink:href="#DejaVuSans-34"/>
       <use xlink:href="#DejaVuSans-35" x="63.623047"/>
       <use xlink:href="#DejaVuSans-30" x="127.246094"/>
      </g>
     </g>
    </g>
    <g id="xtick_5">
     <g id="line2d_5">
      <path d="M 349.212021 200.648125 
L 349.212021 55.609187 
" clip-path="url(#p324e738dae)" style="fill: none; stroke: #ffffff; stroke-linecap: round"/>
     </g>
     <g id="text_5">
      <!-- 600 -->
      <g style="fill: #262626" transform="translate(339.668271 217.746562)scale(0.1 -0.1)">
       <defs>
        <path id="DejaVuSans-36" d="M 2113 2584 
Q 1688 2584 1439 2293 
Q 1191 2003 1191 1497 
Q 1191 994 1439 701 
Q 1688 409 2113 409 
Q 2538 409 2786 701 
Q 3034 994 3034 1497 
Q 3034 2003 2786 2293 
Q 2538 2584 2113 2584 
z
M 3366 4563 
L 3366 3988 
Q 3128 4100 2886 4159 
Q 2644 4219 2406 4219 
Q 1781 4219 1451 3797 
Q 1122 3375 1075 2522 
Q 1259 2794 1537 2939 
Q 1816 3084 2150 3084 
Q 2853 3084 3261 2657 
Q 3669 2231 3669 1497 
Q 3669 778 3244 343 
Q 2819 -91 2113 -91 
Q 1303 -91 875 529 
Q 447 1150 447 2328 
Q 447 3434 972 4092 
Q 1497 4750 2381 4750 
Q 2619 4750 2861 4703 
Q 3103 4656 3366 4563 
z
" transform="scale(0.015625)"/>
       </defs>
       <use xlink:href="#DejaVuSans-36"/>
       <use xlink:href="#DejaVuSans-30" x="63.623047"/>
       <use xlink:href="#DejaVuSans-30" x="127.246094"/>
      </g>
     </g>
    </g>
    <g id="xtick_6">
     <g id="line2d_6">
      <path d="M 416.245977 200.648125 
L 416.245977 55.609187 
" clip-path="url(#p324e738dae)" style="fill: none; stroke: #ffffff; stroke-linecap: round"/>
     </g>
     <g id="text_6">
      <!-- 750 -->
      <g style="fill: #262626" transform="translate(406.702227 217.746562)scale(0.1 -0.1)">
       <defs>
        <path id="DejaVuSans-37" d="M 525 4666 
L 3525 4666 
L 3525 4397 
L 1831 0 
L 1172 0 
L 2766 4134 
L 525 4134 
L 525 4666 
z
" transform="scale(0.015625)"/>
       </defs>
       <use xlink:href="#DejaVuSans-37"/>
       <use xlink:href="#DejaVuSans-35" x="63.623047"/>
       <use xlink:href="#DejaVuSans-30" x="127.246094"/>
      </g>
     </g>
    </g>
    <g id="xtick_7">
     <g id="line2d_7">
      <path d="M 483.279933 200.648125 
L 483.279933 55.609187 
" clip-path="url(#p324e738dae)" style="fill: none; stroke: #ffffff; stroke-linecap: round"/>
     </g>
     <g id="text_7">
      <!-- 900 -->
      <g style="fill: #262626" transform="translate(473.736183 217.746562)scale(0.1 -0.1)">
       <defs>
        <path id="DejaVuSans-39" d="M 703 97 
L 703 672 
Q 941 559 1184 500 
Q 1428 441 1663 441 
Q 2288 441 2617 861 
Q 2947 1281 2994 2138 
Q 2813 1869 2534 1725 
Q 2256 1581 1919 1581 
Q 1219 1581 811 2004 
Q 403 2428 403 3163 
Q 403 3881 828 4315 
Q 1253 4750 1959 4750 
Q 2769 4750 3195 4129 
Q 3622 3509 3622 2328 
Q 3622 1225 3098 567 
Q 2575 -91 1691 -91 
Q 1453 -91 1209 -44 
Q 966 3 703 97 
z
M 1959 2075 
Q 2384 2075 2632 2365 
Q 2881 2656 2881 3163 
Q 2881 3666 2632 3958 
Q 2384 4250 1959 4250 
Q 1534 4250 1286 3958 
Q 1038 3666 1038 3163 
Q 1038 2656 1286 2365 
Q 1534 2075 1959 2075 
z
" transform="scale(0.015625)"/>
       </defs>
       <use xlink:href="#DejaVuSans-39"/>
       <use xlink:href="#DejaVuSans-30" x="63.623047"/>
       <use xlink:href="#DejaVuSans-30" x="127.246094"/>
      </g>
     </g>
    </g>
    <g id="xtick_8">
     <g id="line2d_8">
      <path d="M 550.313889 200.648125 
L 550.313889 55.609187 
" clip-path="url(#p324e738dae)" style="fill: none; stroke: #ffffff; stroke-linecap: round"/>
     </g>
     <g id="text_8">
      <!-- 1050 -->
      <g style="fill: #262626" transform="translate(537.588889 217.746562)scale(0.1 -0.1)">
       <use xlink:href="#DejaVuSans-31"/>
       <use xlink:href="#DejaVuSans-30" x="63.623047"/>
       <use xlink:href="#DejaVuSans-35" x="127.246094"/>
       <use xlink:href="#DejaVuSans-30" x="190.869141"/>
      </g>
     </g>
    </g>
    <g id="text_9">
     <!-- Frames -->
     <g style="fill: #262626" transform="translate(283.14836 232.944375)scale(0.12 -0.12)">
      <defs>
       <path id="DejaVuSans-46" d="M 628 4666 
L 3309 4666 
L 3309 4134 
L 1259 4134 
L 1259 2759 
L 3109 2759 
L 3109 2228 
L 1259 2228 
L 1259 0 
L 628 0 
L 628 4666 
z
" transform="scale(0.015625)"/>
       <path id="DejaVuSans-72" d="M 2631 2963 
Q 2534 3019 2420 3045 
Q 2306 3072 2169 3072 
Q 1681 3072 1420 2755 
Q 1159 2438 1159 1844 
L 1159 0 
L 581 0 
L 581 3500 
L 1159 3500 
L 1159 2956 
Q 1341 3275 1631 3429 
Q 1922 3584 2338 3584 
Q 2397 3584 2469 3576 
Q 2541 3569 2628 3553 
L 2631 2963 
z
" transform="scale(0.015625)"/>
       <path id="DejaVuSans-61" d="M 2194 1759 
Q 1497 1759 1228 1600 
Q 959 1441 959 1056 
Q 959 750 1161 570 
Q 1363 391 1709 391 
Q 2188 391 2477 730 
Q 2766 1069 2766 1631 
L 2766 1759 
L 2194 1759 
z
M 3341 1997 
L 3341 0 
L 2766 0 
L 2766 531 
Q 2569 213 2275 61 
Q 1981 -91 1556 -91 
Q 1019 -91 701 211 
Q 384 513 384 1019 
Q 384 1609 779 1909 
Q 1175 2209 1959 2209 
L 2766 2209 
L 2766 2266 
Q 2766 2663 2505 2880 
Q 2244 3097 1772 3097 
Q 1472 3097 1187 3025 
Q 903 2953 641 2809 
L 641 3341 
Q 956 3463 1253 3523 
Q 1550 3584 1831 3584 
Q 2591 3584 2966 3190 
Q 3341 2797 3341 1997 
z
" transform="scale(0.015625)"/>
       <path id="DejaVuSans-6d" d="M 3328 2828 
Q 3544 3216 3844 3400 
Q 4144 3584 4550 3584 
Q 5097 3584 5394 3201 
Q 5691 2819 5691 2113 
L 5691 0 
L 5113 0 
L 5113 2094 
Q 5113 2597 4934 2840 
Q 4756 3084 4391 3084 
Q 3944 3084 3684 2787 
Q 3425 2491 3425 1978 
L 3425 0 
L 2847 0 
L 2847 2094 
Q 2847 2600 2669 2842 
Q 2491 3084 2119 3084 
Q 1678 3084 1418 2786 
Q 1159 2488 1159 1978 
L 1159 0 
L 581 0 
L 581 3500 
L 1159 3500 
L 1159 2956 
Q 1356 3278 1631 3431 
Q 1906 3584 2284 3584 
Q 2666 3584 2933 3390 
Q 3200 3197 3328 2828 
z
" transform="scale(0.015625)"/>
       <path id="DejaVuSans-65" d="M 3597 1894 
L 3597 1613 
L 953 1613 
Q 991 1019 1311 708 
Q 1631 397 2203 397 
Q 2534 397 2845 478 
Q 3156 559 3463 722 
L 3463 178 
Q 3153 47 2828 -22 
Q 2503 -91 2169 -91 
Q 1331 -91 842 396 
Q 353 884 353 1716 
Q 353 2575 817 3079 
Q 1281 3584 2069 3584 
Q 2775 3584 3186 3129 
Q 3597 2675 3597 1894 
z
M 3022 2063 
Q 3016 2534 2758 2815 
Q 2500 3097 2075 3097 
Q 1594 3097 1305 2825 
Q 1016 2553 972 2059 
L 3022 2063 
z
" transform="scale(0.015625)"/>
       <path id="DejaVuSans-73" d="M 2834 3397 
L 2834 2853 
Q 2591 2978 2328 3040 
Q 2066 3103 1784 3103 
Q 1356 3103 1142 2972 
Q 928 2841 928 2578 
Q 928 2378 1081 2264 
Q 1234 2150 1697 2047 
L 1894 2003 
Q 2506 1872 2764 1633 
Q 3022 1394 3022 966 
Q 3022 478 2636 193 
Q 2250 -91 1575 -91 
Q 1294 -91 989 -36 
Q 684 19 347 128 
L 347 722 
Q 666 556 975 473 
Q 1284 391 1588 391 
Q 1994 391 2212 530 
Q 2431 669 2431 922 
Q 2431 1156 2273 1281 
Q 2116 1406 1581 1522 
L 1381 1569 
Q 847 1681 609 1914 
Q 372 2147 372 2553 
Q 372 3047 722 3315 
Q 1072 3584 1716 3584 
Q 2034 3584 2315 3537 
Q 2597 3491 2834 3397 
z
" transform="scale(0.015625)"/>
      </defs>
      <use xlink:href="#DejaVuSans-46"/>
      <use xlink:href="#DejaVuSans-72" x="50.269531"/>
      <use xlink:href="#DejaVuSans-61" x="91.382812"/>
      <use xlink:href="#DejaVuSans-6d" x="152.662109"/>
      <use xlink:href="#DejaVuSans-65" x="250.074219"/>
      <use xlink:href="#DejaVuSans-73" x="311.597656"/>
     </g>
    </g>
   </g>
   <g id="matplotlib.axis_2">
    <g id="ytick_1">
     <g id="line2d_9">
      <path d="M 59.178438 193.091687 
L 550.760783 193.091687 
" clip-path="url(#p324e738dae)" style="fill: none; stroke: #ffffff; stroke-linecap: round"/>
     </g>
     <g id="text_10">
      <!-- −80 -->
      <g style="fill: #262626" transform="translate(28.57375 196.890906)scale(0.1 -0.1)">
       <defs>
        <path id="DejaVuSans-2212" d="M 678 2272 
L 4684 2272 
L 4684 1741 
L 678 1741 
L 678 2272 
z
" transform="scale(0.015625)"/>
        <path id="DejaVuSans-38" d="M 2034 2216 
Q 1584 2216 1326 1975 
Q 1069 1734 1069 1313 
Q 1069 891 1326 650 
Q 1584 409 2034 409 
Q 2484 409 2743 651 
Q 3003 894 3003 1313 
Q 3003 1734 2745 1975 
Q 2488 2216 2034 2216 
z
M 1403 2484 
Q 997 2584 770 2862 
Q 544 3141 544 3541 
Q 544 4100 942 4425 
Q 1341 4750 2034 4750 
Q 2731 4750 3128 4425 
Q 3525 4100 3525 3541 
Q 3525 3141 3298 2862 
Q 3072 2584 2669 2484 
Q 3125 2378 3379 2068 
Q 3634 1759 3634 1313 
Q 3634 634 3220 271 
Q 2806 -91 2034 -91 
Q 1263 -91 848 271 
Q 434 634 434 1313 
Q 434 1759 690 2068 
Q 947 2378 1403 2484 
z
M 1172 3481 
Q 1172 3119 1398 2916 
Q 1625 2713 2034 2713 
Q 2441 2713 2670 2916 
Q 2900 3119 2900 3481 
Q 2900 3844 2670 4047 
Q 2441 4250 2034 4250 
Q 1625 4250 1398 4047 
Q 1172 3844 1172 3481 
z
" transform="scale(0.015625)"/>
       </defs>
       <use xlink:href="#DejaVuSans-2212"/>
       <use xlink:href="#DejaVuSans-38" x="83.789062"/>
       <use xlink:href="#DejaVuSans-30" x="147.412109"/>
      </g>
     </g>
    </g>
    <g id="ytick_2">
     <g id="line2d_10">
      <path d="M 59.178438 177.445362 
L 550.760783 177.445362 
" clip-path="url(#p324e738dae)" style="fill: none; stroke: #ffffff; stroke-linecap: round"/>
     </g>
     <g id="text_11">
      <!-- −70 -->
      <g style="fill: #262626" transform="translate(28.57375 181.24458)scale(0.1 -0.1)">
       <use xlink:href="#DejaVuSans-2212"/>
       <use xlink:href="#DejaVuSans-37" x="83.789062"/>
       <use xlink:href="#DejaVuSans-30" x="147.412109"/>
      </g>
     </g>
    </g>
    <g id="ytick_3">
     <g id="line2d_11">
      <path d="M 59.178438 161.799036 
L 550.760783 161.799036 
" clip-path="url(#p324e738dae)" style="fill: none; stroke: #ffffff; stroke-linecap: round"/>
     </g>
     <g id="text_12">
      <!-- −60 -->
      <g style="fill: #262626" transform="translate(28.57375 165.598254)scale(0.1 -0.1)">
       <use xlink:href="#DejaVuSans-2212"/>
       <use xlink:href="#DejaVuSans-36" x="83.789062"/>
       <use xlink:href="#DejaVuSans-30" x="147.412109"/>
      </g>
     </g>
    </g>
    <g id="ytick_4">
     <g id="line2d_12">
      <path d="M 59.178438 146.15271 
L 550.760783 146.15271 
" clip-path="url(#p324e738dae)" style="fill: none; stroke: #ffffff; stroke-linecap: round"/>
     </g>
     <g id="text_13">
      <!-- −50 -->
      <g style="fill: #262626" transform="translate(28.57375 149.951929)scale(0.1 -0.1)">
       <use xlink:href="#DejaVuSans-2212"/>
       <use xlink:href="#DejaVuSans-35" x="83.789062"/>
       <use xlink:href="#DejaVuSans-30" x="147.412109"/>
      </g>
     </g>
    </g>
    <g id="ytick_5">
     <g id="line2d_13">
      <path d="M 59.178438 130.506384 
L 550.760783 130.506384 
" clip-path="url(#p324e738dae)" style="fill: none; stroke: #ffffff; stroke-linecap: round"/>
     </g>
     <g id="text_14">
      <!-- −40 -->
      <g style="fill: #262626" transform="translate(28.57375 134.305603)scale(0.1 -0.1)">
       <use xlink:href="#DejaVuSans-2212"/>
       <use xlink:href="#DejaVuSans-34" x="83.789062"/>
       <use xlink:href="#DejaVuSans-30" x="147.412109"/>
      </g>
     </g>
    </g>
    <g id="ytick_6">
     <g id="line2d_14">
      <path d="M 59.178438 114.860058 
L 550.760783 114.860058 
" clip-path="url(#p324e738dae)" style="fill: none; stroke: #ffffff; stroke-linecap: round"/>
     </g>
     <g id="text_15">
      <!-- −30 -->
      <g style="fill: #262626" transform="translate(28.57375 118.659277)scale(0.1 -0.1)">
       <use xlink:href="#DejaVuSans-2212"/>
       <use xlink:href="#DejaVuSans-33" x="83.789062"/>
       <use xlink:href="#DejaVuSans-30" x="147.412109"/>
      </g>
     </g>
    </g>
    <g id="ytick_7">
     <g id="line2d_15">
      <path d="M 59.178438 99.213732 
L 550.760783 99.213732 
" clip-path="url(#p324e738dae)" style="fill: none; stroke: #ffffff; stroke-linecap: round"/>
     </g>
     <g id="text_16">
      <!-- −20 -->
      <g style="fill: #262626" transform="translate(28.57375 103.012951)scale(0.1 -0.1)">
       <defs>
        <path id="DejaVuSans-32" d="M 1228 531 
L 3431 531 
L 3431 0 
L 469 0 
L 469 531 
Q 828 903 1448 1529 
Q 2069 2156 2228 2338 
Q 2531 2678 2651 2914 
Q 2772 3150 2772 3378 
Q 2772 3750 2511 3984 
Q 2250 4219 1831 4219 
Q 1534 4219 1204 4116 
Q 875 4013 500 3803 
L 500 4441 
Q 881 4594 1212 4672 
Q 1544 4750 1819 4750 
Q 2544 4750 2975 4387 
Q 3406 4025 3406 3419 
Q 3406 3131 3298 2873 
Q 3191 2616 2906 2266 
Q 2828 2175 2409 1742 
Q 1991 1309 1228 531 
z
" transform="scale(0.015625)"/>
       </defs>
       <use xlink:href="#DejaVuSans-2212"/>
       <use xlink:href="#DejaVuSans-32" x="83.789062"/>
       <use xlink:href="#DejaVuSans-30" x="147.412109"/>
      </g>
     </g>
    </g>
    <g id="ytick_8">
     <g id="line2d_16">
      <path d="M 59.178438 83.567406 
L 550.760783 83.567406 
" clip-path="url(#p324e738dae)" style="fill: none; stroke: #ffffff; stroke-linecap: round"/>
     </g>
     <g id="text_17">
      <!-- −10 -->
      <g style="fill: #262626" transform="translate(28.57375 87.366625)scale(0.1 -0.1)">
       <use xlink:href="#DejaVuSans-2212"/>
       <use xlink:href="#DejaVuSans-31" x="83.789062"/>
       <use xlink:href="#DejaVuSans-30" x="147.412109"/>
      </g>
     </g>
    </g>
    <g id="ytick_9">
     <g id="line2d_17">
      <path d="M 59.178438 67.92108 
L 550.760783 67.92108 
" clip-path="url(#p324e738dae)" style="fill: none; stroke: #ffffff; stroke-linecap: round"/>
     </g>
     <g id="text_18">
      <!-- 0 -->
      <g style="fill: #262626" transform="translate(43.315938 71.720299)scale(0.1 -0.1)">
       <use xlink:href="#DejaVuSans-30"/>
      </g>
     </g>
    </g>
    <g id="text_19">
     <!-- Energy (kcal/mol) -->
     <g style="fill: #262626" transform="translate(22.078125 181.045844)rotate(-90)scale(0.12 -0.12)">
      <defs>
       <path id="DejaVuSans-45" d="M 628 4666 
L 3578 4666 
L 3578 4134 
L 1259 4134 
L 1259 2753 
L 3481 2753 
L 3481 2222 
L 1259 2222 
L 1259 531 
L 3634 531 
L 3634 0 
L 628 0 
L 628 4666 
z
" transform="scale(0.015625)"/>
       <path id="DejaVuSans-6e" d="M 3513 2113 
L 3513 0 
L 2938 0 
L 2938 2094 
Q 2938 2591 2744 2837 
Q 2550 3084 2163 3084 
Q 1697 3084 1428 2787 
Q 1159 2491 1159 1978 
L 1159 0 
L 581 0 
L 581 3500 
L 1159 3500 
L 1159 2956 
Q 1366 3272 1645 3428 
Q 1925 3584 2291 3584 
Q 2894 3584 3203 3211 
Q 3513 2838 3513 2113 
z
" transform="scale(0.015625)"/>
       <path id="DejaVuSans-67" d="M 2906 1791 
Q 2906 2416 2648 2759 
Q 2391 3103 1925 3103 
Q 1463 3103 1205 2759 
Q 947 2416 947 1791 
Q 947 1169 1205 825 
Q 1463 481 1925 481 
Q 2391 481 2648 825 
Q 2906 1169 2906 1791 
z
M 3481 434 
Q 3481 -459 3084 -895 
Q 2688 -1331 1869 -1331 
Q 1566 -1331 1297 -1286 
Q 1028 -1241 775 -1147 
L 775 -588 
Q 1028 -725 1275 -790 
Q 1522 -856 1778 -856 
Q 2344 -856 2625 -561 
Q 2906 -266 2906 331 
L 2906 616 
Q 2728 306 2450 153 
Q 2172 0 1784 0 
Q 1141 0 747 490 
Q 353 981 353 1791 
Q 353 2603 747 3093 
Q 1141 3584 1784 3584 
Q 2172 3584 2450 3431 
Q 2728 3278 2906 2969 
L 2906 3500 
L 3481 3500 
L 3481 434 
z
" transform="scale(0.015625)"/>
       <path id="DejaVuSans-79" d="M 2059 -325 
Q 1816 -950 1584 -1140 
Q 1353 -1331 966 -1331 
L 506 -1331 
L 506 -850 
L 844 -850 
Q 1081 -850 1212 -737 
Q 1344 -625 1503 -206 
L 1606 56 
L 191 3500 
L 800 3500 
L 1894 763 
L 2988 3500 
L 3597 3500 
L 2059 -325 
z
" transform="scale(0.015625)"/>
       <path id="DejaVuSans-20" transform="scale(0.015625)"/>
       <path id="DejaVuSans-28" d="M 1984 4856 
Q 1566 4138 1362 3434 
Q 1159 2731 1159 2009 
Q 1159 1288 1364 580 
Q 1569 -128 1984 -844 
L 1484 -844 
Q 1016 -109 783 600 
Q 550 1309 550 2009 
Q 550 2706 781 3412 
Q 1013 4119 1484 4856 
L 1984 4856 
z
" transform="scale(0.015625)"/>
       <path id="DejaVuSans-6b" d="M 581 4863 
L 1159 4863 
L 1159 1991 
L 2875 3500 
L 3609 3500 
L 1753 1863 
L 3688 0 
L 2938 0 
L 1159 1709 
L 1159 0 
L 581 0 
L 581 4863 
z
" transform="scale(0.015625)"/>
       <path id="DejaVuSans-63" d="M 3122 3366 
L 3122 2828 
Q 2878 2963 2633 3030 
Q 2388 3097 2138 3097 
Q 1578 3097 1268 2742 
Q 959 2388 959 1747 
Q 959 1106 1268 751 
Q 1578 397 2138 397 
Q 2388 397 2633 464 
Q 2878 531 3122 666 
L 3122 134 
Q 2881 22 2623 -34 
Q 2366 -91 2075 -91 
Q 1284 -91 818 406 
Q 353 903 353 1747 
Q 353 2603 823 3093 
Q 1294 3584 2113 3584 
Q 2378 3584 2631 3529 
Q 2884 3475 3122 3366 
z
" transform="scale(0.015625)"/>
       <path id="DejaVuSans-6c" d="M 603 4863 
L 1178 4863 
L 1178 0 
L 603 0 
L 603 4863 
z
" transform="scale(0.015625)"/>
       <path id="DejaVuSans-2f" d="M 1625 4666 
L 2156 4666 
L 531 -594 
L 0 -594 
L 1625 4666 
z
" transform="scale(0.015625)"/>
       <path id="DejaVuSans-6f" d="M 1959 3097 
Q 1497 3097 1228 2736 
Q 959 2375 959 1747 
Q 959 1119 1226 758 
Q 1494 397 1959 397 
Q 2419 397 2687 759 
Q 2956 1122 2956 1747 
Q 2956 2369 2687 2733 
Q 2419 3097 1959 3097 
z
M 1959 3584 
Q 2709 3584 3137 3096 
Q 3566 2609 3566 1747 
Q 3566 888 3137 398 
Q 2709 -91 1959 -91 
Q 1206 -91 779 398 
Q 353 888 353 1747 
Q 353 2609 779 3096 
Q 1206 3584 1959 3584 
z
" transform="scale(0.015625)"/>
       <path id="DejaVuSans-29" d="M 513 4856 
L 1013 4856 
Q 1481 4119 1714 3412 
Q 1947 2706 1947 2009 
Q 1947 1309 1714 600 
Q 1481 -109 1013 -844 
L 513 -844 
Q 928 -128 1133 580 
Q 1338 1288 1338 2009 
Q 1338 2731 1133 3434 
Q 928 4138 513 4856 
z
" transform="scale(0.015625)"/>
      </defs>
      <use xlink:href="#DejaVuSans-45"/>
      <use xlink:href="#DejaVuSans-6e" x="63.183594"/>
      <use xlink:href="#DejaVuSans-65" x="126.5625"/>
      <use xlink:href="#DejaVuSans-72" x="188.085938"/>
      <use xlink:href="#DejaVuSans-67" x="227.449219"/>
      <use xlink:href="#DejaVuSans-79" x="290.925781"/>
      <use xlink:href="#DejaVuSans-20" x="350.105469"/>
      <use xlink:href="#DejaVuSans-28" x="381.892578"/>
      <use xlink:href="#DejaVuSans-6b" x="420.90625"/>
      <use xlink:href="#DejaVuSans-63" x="478.816406"/>
      <use xlink:href="#DejaVuSans-61" x="533.796875"/>
      <use xlink:href="#DejaVuSans-6c" x="595.076172"/>
      <use xlink:href="#DejaVuSans-2f" x="622.859375"/>
      <use xlink:href="#DejaVuSans-6d" x="656.550781"/>
      <use xlink:href="#DejaVuSans-6f" x="753.962891"/>
      <use xlink:href="#DejaVuSans-6c" x="815.144531"/>
      <use xlink:href="#DejaVuSans-29" x="842.927734"/>
     </g>
    </g>
   </g>
   <g id="line2d_18">
    <path d="M 81.52309 122.338118 
L 81.969983 146.264238 
L 82.863769 140.941921 
L 83.310662 124.893317 
L 83.757555 134.532058 
L 84.204448 136.718724 
L 84.651341 131.811293 
L 85.098234 125.471809 
L 85.545127 114.845334 
L 85.99202 127.092432 
L 86.438913 133.037697 
L 86.885806 133.28884 
L 87.779592 127.612969 
L 88.226485 137.771854 
L 88.673378 133.591445 
L 89.120271 141.108616 
L 89.567164 125.780519 
L 90.014057 139.157612 
L 90.907843 119.480871 
L 91.354736 132.717214 
L 91.801629 121.217055 
L 92.248523 118.330933 
L 92.695416 118.154322 
L 93.142309 119.951682 
L 93.589202 105.087542 
L 94.036095 99.661938 
L 94.482988 112.457811 
L 94.929881 102.41931 
L 95.376774 106.060364 
L 95.823667 92.6454 
L 96.717453 120.629369 
L 97.164346 106.012854 
L 97.611239 127.757974 
L 98.058132 129.326664 
L 98.505025 121.831907 
L 98.951918 109.239412 
L 99.398811 124.280063 
L 99.845704 135.346348 
L 100.292597 142.924228 
L 100.73949 141.410924 
L 101.186383 147.475789 
L 101.633276 126.159661 
L 102.080169 146.403601 
L 102.527062 145.424192 
L 102.973956 142.413402 
L 103.420849 150.007145 
L 103.867742 141.208555 
L 104.314635 161.380197 
L 104.761528 147.542935 
L 105.208421 177.018596 
L 105.655314 172.528002 
L 106.102207 152.488986 
L 106.5491 154.331172 
L 106.995993 157.610698 
L 107.442886 158.873356 
L 107.889779 156.177163 
L 108.336672 165.871267 
L 108.783565 164.460319 
L 109.230458 156.279178 
L 110.124244 176.101366 
L 110.571137 194.055446 
L 111.01803 168.482886 
L 111.464923 159.360623 
L 111.911816 174.795109 
L 112.358709 145.031684 
L 112.805602 156.5948 
L 113.252495 151.408761 
L 113.699388 149.540318 
L 114.146282 145.178953 
L 114.593175 146.239605 
L 115.040068 148.885314 
L 115.486961 173.841192 
L 116.380747 142.660753 
L 116.82764 136.052646 
L 117.274533 140.02033 
L 117.721426 138.092238 
L 118.168319 140.851034 
L 118.615212 127.233811 
L 119.508998 146.913619 
L 119.955891 137.587507 
L 120.402784 143.475382 
L 120.849677 140.862 
L 121.29657 148.960573 
L 121.743463 146.094084 
L 122.190356 132.187185 
L 123.084142 139.624905 
L 123.531035 138.861327 
L 123.977928 142.731576 
L 124.424821 139.314603 
L 124.871715 141.647742 
L 125.318608 157.113292 
L 125.765501 159.852944 
L 126.212394 157.146085 
L 126.659287 146.904682 
L 127.10618 142.07076 
L 127.553073 147.835799 
L 127.999966 136.35286 
L 128.446859 149.935926 
L 128.893752 134.743878 
L 129.340645 144.526452 
L 129.787538 144.203057 
L 130.234431 144.340701 
L 130.681324 133.206479 
L 131.128217 150.451077 
L 131.57511 148.823172 
L 132.022003 164.37615 
L 132.468896 163.4152 
L 132.915789 154.185865 
L 133.362682 139.607999 
L 133.809575 143.964154 
L 134.256468 143.298262 
L 134.703361 141.014988 
L 135.150254 142.823231 
L 135.597148 133.01279 
L 136.044041 131.595492 
L 136.490934 150.33145 
L 136.937827 159.392695 
L 137.38472 143.896719 
L 137.831613 148.025153 
L 138.278506 140.805532 
L 138.725399 142.583495 
L 139.172292 143.877449 
L 139.619185 164.011315 
L 140.066078 146.970169 
L 140.512971 137.140275 
L 140.959864 132.363534 
L 141.85365 144.171736 
L 142.300543 144.663098 
L 142.747436 140.591593 
L 143.194329 144.484268 
L 143.641222 137.194706 
L 144.088115 126.88925 
L 144.535008 136.195809 
L 144.981901 138.842199 
L 145.428794 133.479894 
L 146.32258 155.48425 
L 146.769474 157.109857 
L 147.216367 160.395031 
L 147.66326 148.204807 
L 148.110153 149.830598 
L 148.557046 146.018791 
L 149.003939 146.981914 
L 149.450832 152.503397 
L 149.897725 133.482654 
L 150.344618 151.22966 
L 150.791511 145.930542 
L 151.238404 156.29698 
L 152.13219 136.95458 
L 153.025976 148.360114 
L 153.472869 148.495362 
L 154.366655 137.003179 
L 154.813548 146.487495 
L 155.260441 136.148547 
L 155.707334 143.568059 
L 156.154227 143.977401 
L 156.60112 134.304229 
L 157.048013 141.93399 
L 157.494907 136.857552 
L 157.9418 133.209975 
L 158.388693 135.387869 
L 158.835586 142.945396 
L 159.282479 119.093441 
L 159.729372 134.519399 
L 160.176265 118.127925 
L 160.623158 117.771019 
L 161.070051 116.140098 
L 161.516944 121.69746 
L 161.963837 132.05178 
L 162.41073 132.594659 
L 162.857623 124.581901 
L 163.304516 125.22178 
L 163.751409 110.093183 
L 164.198302 127.030974 
L 164.645195 128.926849 
L 165.092088 136.735783 
L 165.538981 129.043173 
L 165.985874 143.811404 
L 166.432767 149.083849 
L 167.326553 134.747117 
L 167.773446 138.580485 
L 168.220339 136.678025 
L 168.667233 124.093928 
L 169.114126 124.438891 
L 169.561019 127.93962 
L 170.007912 143.147551 
L 170.454805 142.122935 
L 170.901698 145.335345 
L 171.348591 149.895753 
L 171.795484 134.594888 
L 172.242377 126.586228 
L 173.136163 145.276904 
L 173.583056 139.487777 
L 174.029949 146.790691 
L 174.476842 146.642124 
L 174.923735 145.880775 
L 175.370628 132.583216 
L 175.817521 143.124265 
L 176.264414 148.6182 
L 176.711307 140.55843 
L 177.1582 143.10752 
L 177.605093 134.772643 
L 178.051986 156.986479 
L 178.498879 134.809086 
L 178.945772 135.31179 
L 179.392666 139.288357 
L 179.839559 139.663824 
L 180.286452 149.343556 
L 180.733345 141.523604 
L 181.180238 129.171372 
L 181.627131 139.884142 
L 182.074024 154.209452 
L 182.520917 148.826243 
L 182.96781 141.956473 
L 183.414703 145.951372 
L 183.861596 121.788164 
L 184.308489 128.023153 
L 184.755382 117.934506 
L 185.202275 121.944594 
L 185.649168 120.803275 
L 186.096061 135.636013 
L 186.542954 119.356805 
L 186.989847 133.122047 
L 187.43674 123.972239 
L 187.883633 120.628837 
L 188.330526 112.794793 
L 188.777419 119.209747 
L 189.224312 110.49528 
L 189.671205 128.015141 
L 190.118098 113.453496 
L 190.564992 120.273876 
L 191.011885 111.970939 
L 191.458778 116.682725 
L 191.905671 112.702988 
L 192.352564 112.948214 
L 192.799457 112.49693 
L 193.24635 113.39715 
L 193.693243 125.419561 
L 194.140136 110.594808 
L 194.587029 107.289337 
L 195.033922 119.796987 
L 195.480815 109.789749 
L 195.927708 121.853324 
L 196.374601 130.655256 
L 196.821494 128.1851 
L 197.268387 134.533284 
L 197.71528 126.75135 
L 198.162173 132.396829 
L 198.609066 130.309144 
L 199.055959 112.36884 
L 199.502852 123.66914 
L 199.949745 118.340754 
L 200.396638 127.38095 
L 200.843531 108.706845 
L 201.290425 117.046776 
L 201.737318 112.395398 
L 202.184211 120.450147 
L 202.631104 107.786203 
L 203.077997 135.398449 
L 203.52489 139.482468 
L 203.971783 129.09008 
L 204.418676 133.481613 
L 204.865569 128.731188 
L 205.312462 131.294723 
L 205.759355 131.40509 
L 206.206248 136.312569 
L 206.653141 151.238149 
L 207.100034 137.015615 
L 207.546927 139.723076 
L 207.99382 138.629513 
L 208.440713 139.772749 
L 208.887606 126.382506 
L 209.334499 129.919255 
L 209.781392 116.967424 
L 210.228285 129.619698 
L 210.675178 119.648153 
L 211.122071 123.650464 
L 211.568964 131.500157 
L 212.015858 146.508705 
L 212.462751 141.564481 
L 212.909644 125.29988 
L 213.356537 120.831248 
L 213.80343 122.291606 
L 214.250323 129.372361 
L 214.697216 121.825994 
L 215.144109 129.611788 
L 215.591002 129.30054 
L 216.037895 120.999159 
L 216.484788 126.168891 
L 216.931681 128.66683 
L 217.378574 121.197283 
L 217.825467 130.827394 
L 218.27236 107.648598 
L 218.719253 124.99694 
L 219.166146 131.648851 
L 219.613039 130.982878 
L 220.059932 128.930761 
L 220.506825 130.170435 
L 220.953718 126.010024 
L 221.400611 112.824735 
L 221.847504 113.786183 
L 222.294397 124.006087 
L 222.74129 120.082033 
L 223.188184 125.117604 
L 223.635077 135.438819 
L 224.08197 131.849672 
L 224.528863 138.775381 
L 224.975756 139.811209 
L 225.422649 145.213934 
L 225.869542 143.334471 
L 226.316435 136.697649 
L 226.763328 140.394515 
L 227.210221 136.701798 
L 227.657114 136.942365 
L 228.104007 146.014965 
L 228.5509 127.7971 
L 228.997793 148.191909 
L 229.444686 132.703177 
L 229.891579 133.072644 
L 230.338472 136.684433 
L 230.785365 141.88649 
L 231.232258 134.872626 
L 231.679151 148.036953 
L 232.126044 140.641228 
L 232.572937 138.820673 
L 233.01983 135.418707 
L 233.466723 117.073228 
L 233.913617 139.114548 
L 234.807403 127.516203 
L 235.254296 148.263249 
L 235.701189 119.48423 
L 236.148082 131.636334 
L 236.594975 129.755845 
L 237.488761 136.436714 
L 237.935654 130.239071 
L 238.382547 130.620976 
L 238.82944 144.116008 
L 239.723226 131.952225 
L 240.170119 151.179959 
L 241.063905 129.931579 
L 241.510798 143.946454 
L 241.957691 141.203115 
L 242.404584 130.192789 
L 242.851477 141.891509 
L 243.29837 134.116135 
L 243.745263 133.843018 
L 244.192156 133.95386 
L 244.639049 147.43604 
L 245.532836 134.189905 
L 245.979729 138.12247 
L 246.426622 147.127317 
L 246.873515 131.211382 
L 247.320408 144.35414 
L 247.767301 148.506693 
L 248.214194 149.503541 
L 248.661087 148.357594 
L 249.10798 132.149927 
L 249.554873 126.985728 
L 250.001766 138.896194 
L 250.895552 132.843892 
L 251.342445 134.70292 
L 251.789338 125.232886 
L 252.236231 122.018932 
L 252.683124 104.373584 
L 253.130017 107.354082 
L 253.57691 124.867572 
L 254.023803 127.233395 
L 254.470696 148.219238 
L 254.917589 142.436431 
L 255.364482 130.283902 
L 255.811376 121.352296 
L 256.258269 132.187921 
L 256.705162 121.920952 
L 257.152055 132.296468 
L 257.598948 123.375721 
L 258.045841 110.915385 
L 258.492734 110.221538 
L 259.38652 129.103902 
L 259.833413 157.523861 
L 260.280306 150.552296 
L 260.727199 137.932612 
L 261.174092 139.139761 
L 261.620985 132.267282 
L 262.067878 156.279404 
L 262.514771 129.962947 
L 262.961664 131.132457 
L 263.408557 129.613925 
L 263.85545 131.818005 
L 264.302343 138.092669 
L 264.749236 128.679592 
L 265.196129 128.188172 
L 265.643022 141.636554 
L 266.089915 135.824757 
L 266.536808 128.426986 
L 266.983702 127.413219 
L 267.430595 130.154209 
L 268.324381 162.78793 
L 268.771274 146.538233 
L 269.218167 146.954335 
L 269.66506 146.313196 
L 270.111953 138.063955 
L 270.558846 153.359474 
L 271.005739 140.404967 
L 271.452632 137.520091 
L 271.899525 142.807429 
L 272.346418 132.050107 
L 272.793311 134.843632 
L 273.240204 147.08663 
L 273.687097 139.534641 
L 274.13399 128.8731 
L 274.580883 139.384237 
L 275.027776 128.239701 
L 275.474669 139.078862 
L 275.921562 132.99635 
L 276.368455 139.879008 
L 276.815348 136.977747 
L 277.262241 127.581388 
L 277.709135 132.898877 
L 278.156028 132.436639 
L 278.602921 128.885784 
L 279.049814 139.169495 
L 279.496707 130.432684 
L 279.9436 148.768806 
L 280.390493 137.647113 
L 280.837386 141.156196 
L 281.284279 141.417225 
L 281.731172 135.482244 
L 282.178065 143.798649 
L 282.624958 143.305375 
L 283.071851 157.762047 
L 283.518744 150.542976 
L 283.965637 147.461232 
L 284.41253 140.779716 
L 284.859423 152.593904 
L 285.306316 140.948712 
L 285.753209 145.964704 
L 286.200102 140.80097 
L 286.646995 130.918398 
L 287.093888 133.487973 
L 287.540781 146.418333 
L 287.987674 163.902498 
L 288.434568 142.717229 
L 288.881461 152.497063 
L 289.328354 145.479191 
L 289.775247 129.507543 
L 290.22214 144.218611 
L 290.669033 148.885401 
L 291.115926 135.268947 
L 291.562819 140.222169 
L 292.009712 138.281609 
L 292.456605 119.762247 
L 292.903498 139.411816 
L 293.350391 134.846348 
L 293.797284 126.459325 
L 294.244177 127.176473 
L 294.69107 140.069963 
L 295.137963 149.026218 
L 295.584856 149.924871 
L 296.031749 145.767651 
L 296.478642 147.721527 
L 296.925535 156.385331 
L 297.372428 146.971833 
L 297.819321 142.923965 
L 298.266214 145.813512 
L 298.713107 134.652255 
L 299.16 138.194641 
L 299.606894 156.613089 
L 300.053787 151.795226 
L 300.50068 162.899846 
L 300.947573 147.087802 
L 301.394466 142.123586 
L 301.841359 146.242164 
L 302.288252 147.302611 
L 302.735145 149.800364 
L 303.182038 144.778369 
L 303.628931 146.272399 
L 304.075824 139.123729 
L 304.522717 140.038121 
L 304.96961 142.384899 
L 305.416503 121.196408 
L 305.863396 143.512936 
L 306.310289 127.501496 
L 307.204075 122.108256 
L 307.650968 139.922398 
L 308.097861 138.18711 
L 308.544754 139.781005 
L 308.991647 136.503019 
L 309.885433 115.521555 
L 310.332327 141.896756 
L 310.77922 139.462166 
L 311.226113 136.32629 
L 311.673006 111.798216 
L 312.119899 115.588023 
L 312.566792 126.015597 
L 313.013685 117.382111 
L 313.460578 144.994117 
L 313.907471 134.913346 
L 314.354364 137.78076 
L 314.801257 159.053495 
L 315.24815 142.5256 
L 315.695043 157.152362 
L 316.141936 144.801469 
L 316.588829 140.168041 
L 317.035722 152.026856 
L 317.482615 138.244554 
L 317.929508 133.414802 
L 318.376401 138.023493 
L 318.823294 122.963417 
L 319.270187 128.756118 
L 319.71708 146.15557 
L 320.163973 146.30404 
L 320.610866 144.666243 
L 321.057759 157.963192 
L 321.504653 149.104916 
L 321.951546 135.280586 
L 322.398439 125.274714 
L 322.845332 138.3434 
L 323.292225 132.048824 
L 323.739118 128.867105 
L 324.186011 133.793385 
L 324.632904 121.153629 
L 325.079797 137.963796 
L 325.52669 140.869171 
L 325.973583 140.563961 
L 326.420476 127.543362 
L 326.867369 147.652454 
L 327.314262 142.711083 
L 328.208048 167.349859 
L 328.654941 135.511199 
L 329.101834 149.624313 
L 329.548727 132.300986 
L 329.99562 128.805421 
L 330.442513 121.110608 
L 331.783192 159.462974 
L 332.230086 167.878344 
L 332.676979 159.6525 
L 333.123872 145.670357 
L 333.570765 156.617238 
L 334.017658 142.681849 
L 334.464551 150.039486 
L 335.358337 131.944398 
L 335.80523 165.547556 
L 336.252123 150.040354 
L 337.145909 136.955686 
L 337.592802 142.291822 
L 338.486588 133.913903 
L 338.933481 124.864136 
L 339.380374 142.685202 
L 339.827267 132.174411 
L 340.27416 133.352156 
L 340.721053 121.231097 
L 341.167946 123.013535 
L 341.614839 130.6769 
L 342.061732 114.69626 
L 342.508625 117.201265 
L 342.955518 129.344475 
L 343.402412 128.040753 
L 343.849305 133.166745 
L 344.296198 143.572867 
L 344.743091 125.259744 
L 345.189984 127.181182 
L 345.636877 137.63402 
L 346.08377 137.775131 
L 346.530663 125.464428 
L 346.977556 123.912285 
L 347.424449 124.744085 
L 347.871342 126.585706 
L 348.318235 133.007298 
L 348.765128 116.637194 
L 349.212021 113.755897 
L 350.105807 96.034315 
L 350.5527 103.089148 
L 350.999593 102.006794 
L 351.446486 106.839988 
L 351.893379 105.729327 
L 352.340272 97.118196 
L 352.787165 109.488976 
L 353.234058 113.233698 
L 353.680951 111.985192 
L 354.127845 101.779185 
L 354.574738 103.55577 
L 355.021631 97.707803 
L 355.468524 107.308548 
L 356.36231 108.79978 
L 356.809203 105.270016 
L 357.256096 108.082298 
L 357.702989 109.014973 
L 358.149882 109.459384 
L 358.596775 107.287528 
L 359.043668 118.984627 
L 359.490561 106.654386 
L 359.937454 116.881424 
L 360.384347 93.756702 
L 360.83124 105.894305 
L 361.278133 111.682095 
L 361.725026 112.067886 
L 362.171919 113.51524 
L 362.618812 107.337436 
L 363.065705 111.624155 
L 363.512598 114.701607 
L 363.959491 104.224882 
L 364.406384 105.49582 
L 364.853278 101.143763 
L 365.300171 108.79612 
L 365.747064 113.125438 
L 366.193957 107.9042 
L 366.64085 111.222588 
L 367.087743 103.347216 
L 367.534636 101.183626 
L 367.981529 102.067527 
L 368.428422 107.355554 
L 368.875315 100.035003 
L 369.322208 104.373973 
L 369.769101 106.232484 
L 370.215994 95.901854 
L 370.662887 108.810325 
L 371.10978 99.993902 
L 371.556673 103.853121 
L 372.003566 109.235955 
L 372.450459 106.833313 
L 372.897352 105.415894 
L 373.344245 102.848887 
L 373.791138 100.937057 
L 374.684924 117.744217 
L 375.131817 109.230067 
L 375.57871 106.297495 
L 376.025604 120.291262 
L 376.472497 123.20034 
L 376.91939 117.527362 
L 377.366283 99.320696 
L 377.813176 99.004827 
L 378.260069 100.262209 
L 378.706962 111.609808 
L 379.153855 114.961407 
L 380.047641 98.119949 
L 380.494534 105.685003 
L 380.941427 99.009812 
L 381.38832 102.50516 
L 381.835213 112.742887 
L 382.282106 96.678921 
L 382.728999 100.19956 
L 383.622785 87.677722 
L 384.069678 98.904021 
L 384.516571 96.375829 
L 384.963464 96.919985 
L 385.410357 98.253542 
L 385.85725 79.542299 
L 386.304143 79.292118 
L 386.751037 96.051207 
L 387.19793 88.570624 
L 387.644823 93.421238 
L 388.091716 88.049236 
L 388.538609 102.472782 
L 388.985502 95.796904 
L 389.432395 94.781471 
L 389.879288 100.672158 
L 390.326181 101.658019 
L 390.773074 93.657961 
L 391.219967 91.824347 
L 391.66686 88.585335 
L 392.113753 90.618121 
L 392.560646 93.479433 
L 393.007539 95.463683 
L 393.454432 90.76504 
L 393.901325 93.773023 
L 394.348218 98.445399 
L 394.795111 98.60143 
L 395.242004 98.533934 
L 395.688897 92.406968 
L 396.13579 90.937939 
L 396.582683 84.036101 
L 397.029576 86.878761 
L 397.476469 85.721908 
L 397.923363 93.859108 
L 398.370256 104.596991 
L 398.817149 98.118539 
L 399.264042 108.203841 
L 399.710935 101.414816 
L 400.157828 100.168487 
L 400.604721 94.771678 
L 401.051614 92.771222 
L 401.498507 102.446361 
L 401.9454 93.58545 
L 402.392293 110.005874 
L 402.839186 98.602472 
L 403.286079 96.843447 
L 403.732972 113.151559 
L 404.179865 104.814652 
L 404.626758 107.245332 
L 405.073651 112.562946 
L 405.520544 102.48514 
L 405.967437 111.05633 
L 406.41433 103.042973 
L 406.861223 104.378294 
L 407.308116 99.797952 
L 407.755009 106.838669 
L 408.201902 107.314136 
L 408.648796 99.370493 
L 409.095689 101.243093 
L 409.542582 99.643838 
L 409.989475 102.256265 
L 410.436368 99.824297 
L 410.883261 99.042004 
L 411.330154 100.12388 
L 411.777047 96.073103 
L 412.22394 107.700064 
L 412.670833 102.220076 
L 413.117726 99.573891 
L 413.564619 98.184591 
L 414.011512 103.913636 
L 414.458405 99.085389 
L 414.905298 109.592137 
L 415.352191 108.144118 
L 415.799084 97.559859 
L 416.245977 94.374247 
L 416.69287 104.159167 
L 417.139763 101.233252 
L 417.586656 101.908986 
L 418.033549 90.201904 
L 418.480442 88.397835 
L 418.927335 95.795978 
L 419.374228 99.833274 
L 419.821122 99.60024 
L 420.268015 95.972044 
L 420.714908 97.128111 
L 421.161801 93.172006 
L 421.608694 91.266791 
L 422.055587 103.903471 
L 422.50248 98.771054 
L 422.949373 97.402355 
L 423.396266 98.4555 
L 423.843159 99.113548 
L 424.290052 97.582405 
L 424.736945 102.769924 
L 425.183838 101.935804 
L 425.630731 98.836024 
L 426.077624 97.086261 
L 426.524517 93.12321 
L 426.97141 92.338142 
L 427.418303 92.552463 
L 427.865196 91.145842 
L 428.312089 88.79272 
L 428.758982 96.564251 
L 429.205875 90.097154 
L 429.652768 98.953774 
L 430.099661 95.902644 
L 430.546555 94.508688 
L 430.993448 90.183286 
L 431.440341 92.409374 
L 431.887234 91.646682 
L 432.334127 100.437787 
L 432.78102 104.7284 
L 433.227913 101.14593 
L 433.674806 104.228937 
L 434.121699 101.873355 
L 434.568592 96.423825 
L 435.015485 96.96593 
L 435.462378 95.525474 
L 435.909271 99.412189 
L 436.356164 98.024128 
L 436.803057 91.054959 
L 437.24995 102.186642 
L 437.696843 91.580199 
L 438.143736 111.424692 
L 438.590629 99.356691 
L 439.037522 98.67944 
L 439.484415 92.814277 
L 439.931308 92.290629 
L 440.378201 92.562334 
L 440.825094 96.068625 
L 441.271988 95.561507 
L 441.718881 90.701857 
L 442.165774 93.814488 
L 442.612667 106.593228 
L 443.05956 98.398206 
L 443.506453 100.968632 
L 443.953346 101.448612 
L 444.400239 105.918999 
L 444.847132 104.351313 
L 445.294025 109.198237 
L 445.740918 103.599545 
L 446.187811 110.415021 
L 446.634704 100.769713 
L 447.081597 105.078959 
L 447.52849 107.554215 
L 447.975383 107.842439 
L 448.422276 104.908999 
L 448.869169 106.423789 
L 449.316062 97.19895 
L 449.762955 103.764992 
L 450.209848 105.383479 
L 450.656741 105.404672 
L 451.103634 96.639847 
L 451.550527 97.966321 
L 451.99742 98.518967 
L 452.891207 95.783785 
L 453.3381 96.754876 
L 453.784993 92.304464 
L 454.231886 91.357531 
L 454.678779 104.542066 
L 455.125672 105.114976 
L 455.572565 100.281441 
L 456.019458 105.463989 
L 456.466351 97.137869 
L 456.913244 93.069212 
L 457.360137 91.268181 
L 457.80703 92.144569 
L 458.253923 103.258858 
L 458.700816 97.521812 
L 459.147709 105.191445 
L 459.594602 110.801728 
L 460.041495 111.149412 
L 460.488388 106.121138 
L 460.935281 106.283909 
L 461.382174 105.2997 
L 461.829067 108.699038 
L 462.27596 102.785314 
L 462.722853 107.439125 
L 463.169747 107.356118 
L 463.61664 100.550622 
L 464.063533 103.059635 
L 464.510426 101.682368 
L 465.404212 93.777038 
L 466.297998 105.672205 
L 466.744891 100.769404 
L 467.191784 89.832511 
L 467.638677 94.661713 
L 468.979356 78.669163 
L 469.426249 79.54342 
L 469.873142 85.468325 
L 470.766928 79.923766 
L 471.660714 82.218358 
L 472.107607 79.792107 
L 472.5545 90.396199 
L 473.001393 90.304361 
L 473.448286 82.29048 
L 473.895179 90.233179 
L 474.342073 77.948956 
L 474.788966 79.438032 
L 475.235859 82.150584 
L 475.682752 78.409405 
L 476.576538 81.128024 
L 477.023431 83.615506 
L 477.470324 94.38255 
L 477.917217 78.773522 
L 478.36411 88.890504 
L 478.811003 95.591349 
L 479.257896 93.206578 
L 479.704789 96.43906 
L 480.151682 92.880805 
L 480.598575 87.396056 
L 481.045468 89.43755 
L 481.492361 96.610617 
L 481.939254 89.78125 
L 482.386147 94.129673 
L 482.83304 82.772676 
L 483.279933 92.064115 
L 483.726826 84.507574 
L 484.173719 81.613646 
L 484.620612 85.61233 
L 485.067506 91.354397 
L 485.514399 90.262241 
L 485.961292 82.268365 
L 486.408185 84.724343 
L 486.855078 80.267087 
L 487.301971 78.891148 
L 487.748864 81.66679 
L 488.195757 87.883291 
L 488.64265 83.883874 
L 489.089543 78.622961 
L 489.536436 81.039883 
L 489.983329 77.202183 
L 490.430222 74.788203 
L 490.877115 76.962627 
L 491.324008 75.563446 
L 491.770901 82.049817 
L 492.217794 73.573564 
L 492.664687 76.163932 
L 493.11158 80.455176 
L 493.558473 82.987284 
L 494.005366 84.14487 
L 494.452259 76.863858 
L 495.346045 87.3172 
L 495.792938 77.026746 
L 496.239832 77.080212 
L 496.686725 74.802058 
L 497.133618 75.229044 
L 498.027404 69.830225 
L 498.474297 66.21613 
L 498.92119 76.05237 
L 499.368083 82.305667 
L 499.814976 66.616875 
L 500.261869 82.608806 
L 500.708762 83.75681 
L 501.155655 67.688739 
L 501.602548 62.201866 
L 502.049441 84.541021 
L 502.496334 91.951892 
L 503.39012 80.650397 
L 503.837013 82.160168 
L 504.283906 80.817264 
L 504.730799 84.10838 
L 505.177692 78.877478 
L 505.624585 83.817188 
L 506.071478 86.863028 
L 506.518371 78.632518 
L 506.965265 77.958533 
L 507.412158 78.076587 
L 507.859051 81.302914 
L 508.305944 80.120133 
L 508.752837 81.066759 
L 509.19973 77.108775 
L 509.646623 74.373658 
L 510.093516 78.067664 
L 510.540409 79.262084 
L 510.987302 73.604319 
L 511.434195 81.362039 
L 511.881088 77.767872 
L 512.327981 78.306805 
L 512.774874 74.811901 
L 513.221767 69.294109 
L 513.66866 73.624868 
L 514.115553 80.07482 
L 514.562446 78.763849 
L 515.009339 80.998305 
L 515.456232 80.01611 
L 515.903125 77.546716 
L 516.350018 81.423284 
L 516.796911 80.517145 
L 517.243804 74.911655 
L 517.690698 74.847532 
L 518.137591 83.176411 
L 518.584484 75.060722 
L 519.031377 75.724341 
L 519.47827 79.387047 
L 519.925163 77.555398 
L 520.372056 86.916417 
L 520.818949 74.605733 
L 521.265842 77.263462 
L 521.712735 81.188232 
L 522.159628 77.869625 
L 522.606521 76.632055 
L 523.053414 78.651504 
L 523.500307 81.591411 
L 523.9472 75.724827 
L 524.394093 79.947967 
L 524.840986 77.495676 
L 525.287879 83.29405 
L 525.734772 85.109041 
L 526.181665 83.458777 
L 526.628558 78.999671 
L 527.075451 76.529529 
L 527.522344 76.345643 
L 527.969237 79.032147 
L 528.41613 82.65848 
L 528.41613 82.65848 
" clip-path="url(#p324e738dae)" style="fill: none; stroke: #000000; stroke-width: 0.7; stroke-linecap: round"/>
   </g>
   <g id="line2d_19">
    <path d="M 103.420849 127.078855 
L 104.314635 127.758583 
L 104.761528 127.839054 
L 105.208421 128.560588 
L 105.655314 129.513281 
L 106.5491 130.224669 
L 107.442886 131.408688 
L 108.336672 133.010901 
L 109.677351 134.82604 
L 111.01803 137.619309 
L 111.464923 137.984349 
L 111.911816 138.964641 
L 112.358709 139.082122 
L 115.040068 142.235901 
L 116.380747 145.247232 
L 116.82764 145.719128 
L 118.168319 148.075899 
L 119.062105 148.780097 
L 119.508998 149.598112 
L 120.402784 150.077677 
L 120.849677 150.458279 
L 121.29657 151.252703 
L 121.743463 151.688983 
L 123.084142 151.453289 
L 123.531035 151.281 
L 123.977928 151.612438 
L 124.871715 151.395129 
L 126.212394 152.204794 
L 126.659287 151.915283 
L 127.10618 151.80584 
L 127.999966 150.498681 
L 128.446859 150.44762 
L 129.340645 149.794189 
L 130.234431 149.264054 
L 130.681324 148.610758 
L 131.57511 148.181453 
L 132.022003 148.130816 
L 132.468896 147.877093 
L 133.362682 146.502203 
L 133.809575 146.194274 
L 134.256468 145.564337 
L 134.703361 145.484003 
L 135.597148 144.840652 
L 136.044041 144.481756 
L 136.490934 144.584806 
L 136.937827 144.847867 
L 137.38472 144.748096 
L 138.278506 143.872571 
L 138.725399 143.871025 
L 139.172292 144.027522 
L 139.619185 144.507341 
L 140.066078 144.6849 
L 140.512971 144.610685 
L 141.406757 144.745514 
L 141.85365 144.690676 
L 142.300543 144.832188 
L 142.747436 144.774512 
L 143.194329 144.846958 
L 143.641222 144.61164 
L 144.088115 144.227544 
L 144.981901 144.362866 
L 145.428794 144.239966 
L 145.875687 144.35996 
L 146.769474 144.970918 
L 147.216367 145.345864 
L 149.003939 144.746246 
L 149.450832 144.954899 
L 149.897725 144.667836 
L 150.344618 144.965372 
L 150.791511 144.885265 
L 151.238404 145.316327 
L 151.685297 145.358262 
L 152.13219 145.213292 
L 152.579083 145.186374 
L 153.025976 145.489447 
L 153.919762 145.31401 
L 154.366655 144.766551 
L 155.260441 144.06725 
L 156.154227 144.146717 
L 156.60112 143.966836 
L 157.048013 143.985216 
L 157.494907 143.865902 
L 158.835586 143.797973 
L 159.282479 142.991987 
L 159.729372 142.804441 
L 160.623158 141.745806 
L 161.963837 140.134148 
L 162.857623 139.59547 
L 163.304516 139.452635 
L 163.751409 138.879871 
L 164.645195 138.222331 
L 165.092088 138.145214 
L 165.538981 137.836392 
L 165.985874 137.968726 
L 166.432767 138.412618 
L 166.87966 138.529708 
L 167.326553 138.447806 
L 167.773446 138.549818 
L 168.220339 138.386158 
L 169.561019 136.455824 
L 170.901698 136.186856 
L 171.348591 136.245133 
L 171.795484 135.886963 
L 172.242377 135.749035 
L 172.68927 135.449628 
L 173.136163 135.436555 
L 173.583056 135.100371 
L 174.029949 135.10372 
L 174.476842 135.297471 
L 174.923735 135.355191 
L 175.370628 135.039653 
L 175.817521 134.932231 
L 176.711307 135.135559 
L 177.605093 135.040441 
L 178.051986 135.308809 
L 178.498879 135.125443 
L 179.839559 135.148807 
L 180.286452 135.471479 
L 180.733345 135.594193 
L 181.180238 135.318713 
L 182.074024 136.128328 
L 183.414703 137.822229 
L 184.308489 137.743471 
L 184.755382 137.450267 
L 185.649168 137.309151 
L 186.096061 137.820008 
L 186.542954 137.666524 
L 186.989847 137.750428 
L 187.883633 137.326871 
L 189.224312 135.477957 
L 189.671205 135.343317 
L 190.118098 134.840777 
L 191.011885 134.270234 
L 191.458778 134.115111 
L 191.905671 133.810379 
L 193.693243 131.485584 
L 194.587029 130.619645 
L 195.033922 130.290398 
L 195.480815 129.580655 
L 197.268387 128.309167 
L 198.162173 127.977981 
L 198.609066 127.6118 
L 199.502852 126.65924 
L 199.949745 126.330602 
L 200.843531 125.216447 
L 201.290425 124.851147 
L 202.631104 123.097867 
L 203.077997 122.975364 
L 203.52489 123.181586 
L 203.971783 122.965705 
L 204.865569 122.149247 
L 205.759355 121.645086 
L 206.206248 121.935574 
L 207.100034 122.781496 
L 207.99382 123.493591 
L 209.334499 123.652784 
L 209.781392 123.512687 
L 210.675178 123.829572 
L 211.122071 123.918386 
L 212.462751 125.270575 
L 213.80343 125.660478 
L 214.250323 125.993866 
L 214.697216 126.171421 
L 215.591002 126.831786 
L 216.037895 126.743378 
L 216.931681 127.48241 
L 217.378574 127.510416 
L 217.825467 127.931169 
L 218.27236 127.647074 
L 218.719253 127.533908 
L 219.166146 127.603183 
L 219.613039 127.532175 
L 220.506825 127.531235 
L 221.847504 127.256712 
L 222.294397 127.370018 
L 222.74129 127.22404 
L 224.08197 128.309181 
L 224.528863 128.675686 
L 224.975756 129.316186 
L 225.869542 129.589536 
L 228.104007 130.444508 
L 228.997793 130.213274 
L 230.338472 129.955115 
L 230.785365 129.99739 
L 231.232258 130.167192 
L 233.01983 131.502453 
L 233.466723 131.370908 
L 233.913617 131.523196 
L 234.807403 130.98899 
L 235.254296 131.448257 
L 235.701189 131.421317 
L 236.148082 131.608211 
L 236.594975 131.615881 
L 237.488761 131.979515 
L 237.935654 131.998285 
L 238.382547 132.190722 
L 238.82944 132.549664 
L 239.723226 132.959768 
L 240.170119 133.366819 
L 240.617012 134.02453 
L 241.063905 134.123223 
L 241.957691 134.57358 
L 242.404584 134.59882 
L 243.745263 135.41573 
L 245.532836 136.883417 
L 245.979729 136.93709 
L 246.426622 137.242643 
L 246.873515 137.091363 
L 248.214194 137.371458 
L 248.661087 137.604657 
L 249.554873 137.245444 
L 250.001766 137.28452 
L 250.448659 137.077005 
L 250.895552 137.177941 
L 251.789338 136.758755 
L 252.236231 136.537681 
L 253.130017 135.200816 
L 253.57691 135.000715 
L 254.023803 134.584643 
L 254.917589 134.808519 
L 255.364482 134.705823 
L 255.811376 134.791404 
L 256.705162 134.414357 
L 257.152055 134.509962 
L 257.598948 134.012212 
L 258.045841 133.840835 
L 258.492734 133.412539 
L 259.38652 133.153446 
L 260.280306 133.981453 
L 260.727199 134.127686 
L 261.620985 133.905165 
L 262.067878 134.391708 
L 262.514771 133.967368 
L 262.961664 133.779334 
L 263.408557 133.772981 
L 263.85545 133.530412 
L 264.749236 133.437939 
L 265.196129 133.163873 
L 266.089915 133.353916 
L 266.536808 133.243378 
L 266.983702 132.842922 
L 267.430595 132.630077 
L 267.877488 132.855577 
L 268.324381 133.348886 
L 268.771274 133.337104 
L 269.218167 133.651963 
L 269.66506 133.691145 
L 270.111953 133.48229 
L 270.558846 133.559408 
L 271.005739 133.400356 
L 271.452632 133.507759 
L 271.899525 133.824193 
L 272.346418 133.687272 
L 272.793311 133.67136 
L 273.240204 133.956215 
L 274.13399 134.125654 
L 275.027776 134.950282 
L 275.474669 135.584778 
L 276.368455 136.000266 
L 277.262241 135.478335 
L 277.709135 135.530634 
L 278.156028 135.752321 
L 278.602921 135.686279 
L 279.049814 136.031249 
L 279.496707 135.993974 
L 281.284279 138.065907 
L 281.731172 138.193474 
L 282.624958 137.774031 
L 283.071851 138.17062 
L 283.965637 138.702563 
L 284.41253 138.392569 
L 284.859423 138.845188 
L 285.306316 139.041514 
L 285.753209 139.368529 
L 286.200102 139.548188 
L 286.646995 139.404703 
L 287.093888 139.500871 
L 287.987674 140.310793 
L 288.434568 140.448642 
L 289.328354 141.291363 
L 290.22214 141.253504 
L 291.115926 140.750068 
L 292.009712 140.454793 
L 292.903498 139.809805 
L 293.797284 139.477418 
L 294.244177 139.164798 
L 294.69107 139.325196 
L 295.137963 139.608847 
L 296.031749 139.790272 
L 297.372428 140.881905 
L 297.819321 140.958807 
L 298.266214 141.215151 
L 298.713107 141.110616 
L 299.16 141.134953 
L 299.606894 141.715587 
L 300.053787 142.093514 
L 300.50068 142.702779 
L 300.947573 143.066819 
L 301.394466 143.125901 
L 301.841359 143.44209 
L 302.288252 143.412766 
L 302.735145 143.655832 
L 304.075824 143.898208 
L 304.96961 143.804588 
L 305.416503 143.073275 
L 305.863396 142.932675 
L 307.204075 141.601568 
L 307.650968 141.581042 
L 308.097861 141.42549 
L 308.544754 141.405091 
L 308.991647 141.516783 
L 309.43854 141.358297 
L 310.332327 140.300246 
L 310.77922 140.235145 
L 311.226113 139.91173 
L 311.673006 139.23811 
L 312.566792 138.595659 
L 313.013685 137.965594 
L 313.460578 138.160097 
L 314.354364 138.043904 
L 314.801257 138.829728 
L 315.24815 138.892004 
L 316.141936 139.704967 
L 317.035722 140.203937 
L 318.376401 139.503219 
L 319.270187 138.455472 
L 320.610866 138.483803 
L 321.057759 138.950022 
L 321.504653 139.168227 
L 322.398439 138.211167 
L 322.845332 137.720038 
L 324.186011 136.905153 
L 324.632904 136.382174 
L 325.079797 136.145442 
L 325.973583 135.95309 
L 326.420476 135.721482 
L 326.867369 135.873769 
L 327.314262 135.880293 
L 327.761155 136.583199 
L 328.208048 137.059937 
L 328.654941 137.220131 
L 329.101834 137.719222 
L 329.548727 137.923077 
L 330.889406 137.25751 
L 331.336299 137.466827 
L 331.783192 138.144814 
L 332.230086 139.191949 
L 332.676979 139.547064 
L 333.123872 139.671228 
L 333.570765 140.077047 
L 334.464551 141.383749 
L 335.358337 141.955976 
L 336.252123 142.669585 
L 336.699016 142.793397 
L 337.145909 142.351441 
L 337.592802 142.346766 
L 338.039695 141.962288 
L 339.827267 141.130222 
L 340.27416 141.128969 
L 340.721053 140.793121 
L 341.614839 140.832539 
L 342.508625 139.621298 
L 342.955518 139.314862 
L 343.402412 138.716414 
L 343.849305 138.39765 
L 344.296198 138.563496 
L 344.743091 138.563196 
L 345.189984 138.339952 
L 346.08377 138.629816 
L 346.530663 138.463237 
L 346.977556 138.51841 
L 348.318235 137.817214 
L 348.765128 137.59909 
L 349.658914 136.184447 
L 350.5527 133.693084 
L 352.340272 131.002132 
L 352.787165 130.769699 
L 353.234058 130.34045 
L 353.680951 129.640777 
L 355.468524 125.194519 
L 355.915417 124.22253 
L 356.36231 123.544889 
L 356.809203 122.649499 
L 357.702989 121.551263 
L 358.596775 119.574443 
L 359.937454 117.960475 
L 360.384347 117.07704 
L 360.83124 116.516648 
L 361.278133 116.253007 
L 361.725026 115.64066 
L 362.171919 115.267477 
L 362.618812 114.747183 
L 363.512598 114.388805 
L 363.959491 113.859765 
L 364.406384 113.675756 
L 365.747064 112.645333 
L 367.534636 110.534874 
L 368.428422 109.215153 
L 369.322208 108.315798 
L 369.769101 107.945566 
L 370.662887 106.84795 
L 371.556673 106.317028 
L 372.003566 106.384238 
L 372.450459 106.600218 
L 373.344245 106.663595 
L 373.791138 106.545536 
L 374.238031 106.634516 
L 374.684924 107.047036 
L 375.131817 107.041858 
L 375.57871 106.903134 
L 376.025604 107.069255 
L 376.91939 107.77711 
L 377.366283 107.809368 
L 378.260069 107.488182 
L 378.706962 107.544383 
L 379.153855 107.738211 
L 379.600748 107.704734 
L 380.047641 107.486833 
L 380.941427 107.245791 
L 381.38832 106.916202 
L 381.835213 107.037972 
L 382.282106 106.633922 
L 382.728999 106.762779 
L 383.175892 106.536487 
L 383.622785 106.056399 
L 385.410357 104.974573 
L 386.304143 103.772731 
L 387.19793 103.332376 
L 387.644823 103.024878 
L 388.091716 102.523354 
L 388.538609 102.414726 
L 388.985502 102.106212 
L 389.432395 101.934898 
L 390.326181 101.916478 
L 392.113753 100.850253 
L 392.560646 100.801805 
L 393.454432 100.350294 
L 396.13579 99.221784 
L 397.476469 97.611468 
L 398.370256 97.048814 
L 398.817149 96.547178 
L 399.264042 96.360708 
L 400.157828 96.425864 
L 400.604721 96.316053 
L 401.498507 95.68898 
L 401.9454 95.43252 
L 402.392293 95.670239 
L 403.286079 95.485261 
L 403.732972 95.698189 
L 404.179865 95.539624 
L 405.520544 96.156329 
L 405.967437 96.623901 
L 407.308116 96.924289 
L 407.755009 97.095991 
L 408.648796 98.052996 
L 409.095689 98.156833 
L 410.436368 98.790499 
L 410.883261 98.721884 
L 413.564619 99.231579 
L 414.011512 99.538145 
L 414.458405 99.70749 
L 415.352191 100.283353 
L 415.799084 100.419249 
L 416.69287 100.545549 
L 418.033549 100.621585 
L 418.480442 100.570783 
L 419.821122 101.342638 
L 420.268015 101.384896 
L 421.161801 101.136588 
L 421.608694 100.797847 
L 423.396266 100.985971 
L 423.843159 100.919314 
L 424.290052 100.999254 
L 424.736945 100.854535 
L 425.630731 100.961053 
L 428.312089 99.035506 
L 428.758982 98.905932 
L 429.205875 98.620309 
L 429.652768 98.603425 
L 431.887234 97.608234 
L 432.334127 97.571865 
L 434.121699 97.910132 
L 435.015485 97.579524 
L 437.24995 97.096599 
L 437.696843 96.76532 
L 438.143736 97.042617 
L 438.590629 97.142266 
L 439.484415 96.864292 
L 439.931308 96.671925 
L 441.271988 96.86786 
L 442.165774 96.569516 
L 442.612667 96.78194 
L 443.05956 96.807342 
L 446.634704 97.947401 
L 447.52849 98.10595 
L 449.762955 99.030011 
L 450.656741 99.647003 
L 451.103634 99.648515 
L 451.550527 99.805898 
L 452.891207 99.845448 
L 453.3381 99.97688 
L 456.913244 99.904425 
L 457.80703 99.722852 
L 458.700816 99.789739 
L 460.041495 100.636155 
L 460.488388 100.530084 
L 461.382174 100.801033 
L 462.722853 101.626158 
L 463.169747 101.851908 
L 463.61664 101.95169 
L 464.510426 102.356203 
L 465.404212 102.077307 
L 465.851105 102.040389 
L 466.297998 102.124861 
L 466.744891 102.021869 
L 468.08557 101.149529 
L 469.426249 99.641044 
L 470.766928 98.190077 
L 471.213821 97.685348 
L 471.660714 97.385736 
L 472.107607 96.906278 
L 473.448286 96.017539 
L 473.895179 95.862876 
L 474.788966 95.099439 
L 476.576538 94.006694 
L 477.023431 93.588163 
L 477.470324 93.373515 
L 478.36411 92.611887 
L 479.257896 92.583704 
L 480.151682 92.701846 
L 480.598575 92.38459 
L 481.492361 92.051288 
L 482.83304 90.823514 
L 483.726826 90.123276 
L 484.173719 89.581568 
L 490.430222 84.890586 
L 491.324008 84.715186 
L 491.770901 84.765314 
L 492.664687 84.403394 
L 494.452259 84.429986 
L 495.346045 84.214424 
L 495.792938 84.10915 
L 496.239832 83.84609 
L 497.133618 83.698972 
L 498.92119 82.960588 
L 499.368083 82.934391 
L 499.814976 82.379077 
L 500.261869 82.455783 
L 500.708762 82.353109 
L 501.602548 81.174963 
L 502.049441 80.937002 
L 502.943227 80.899865 
L 504.283906 80.255833 
L 504.730799 80.055407 
L 506.965265 79.646975 
L 507.859051 79.202232 
L 509.646623 78.9326 
L 510.540409 78.688193 
L 510.987302 78.482602 
L 511.434195 78.537384 
L 512.327981 78.494036 
L 512.774874 78.49451 
L 513.66866 78.302368 
L 514.115553 78.262868 
L 515.009339 78.463361 
L 515.903125 78.345769 
L 516.350018 78.291337 
L 516.796911 78.364403 
L 517.690698 77.961137 
L 518.137591 78.084131 
L 519.031377 78.062186 
L 519.925163 78.245546 
L 520.372056 78.587269 
L 520.818949 78.755062 
L 521.712735 78.756935 
L 522.159628 78.98199 
L 523.053414 78.760349 
L 523.9472 79.308861 
L 524.394093 79.217 
L 524.840986 78.927876 
L 525.287879 78.864395 
L 526.181665 78.97954 
L 526.628558 78.943188 
L 527.522344 78.740974 
L 528.41613 78.561182 
L 528.41613 78.561182 
" clip-path="url(#p324e738dae)" style="fill: none; stroke-dasharray: 2.96,1.28; stroke-dashoffset: 0; stroke: #ff0000; stroke-width: 0.8"/>
   </g>
   <g id="patch_3">
    <path d="M 59.178438 200.648125 
L 59.178438 55.609187 
" style="fill: none; stroke: #ffffff; stroke-width: 1.25; stroke-linejoin: miter; stroke-linecap: square"/>
   </g>
   <g id="patch_4">
    <path d="M 550.760783 200.648125 
L 550.760783 55.609187 
" style="fill: none; stroke: #ffffff; stroke-width: 1.25; stroke-linejoin: miter; stroke-linecap: square"/>
   </g>
   <g id="patch_5">
    <path d="M 59.178438 200.648125 
L 550.760783 200.648125 
" style="fill: none; stroke: #ffffff; stroke-width: 1.25; stroke-linejoin: miter; stroke-linecap: square"/>
   </g>
   <g id="patch_6">
    <path d="M 59.178438 55.609187 
L 550.760783 55.609187 
" style="fill: none; stroke: #ffffff; stroke-width: 1.25; stroke-linejoin: miter; stroke-linecap: square"/>
   </g>
   <g id="legend_1">
    <g id="patch_7">
     <path d="M 478.921095 196.148125 
L 544.460783 196.148125 
Q 546.260783 196.148125 546.260783 194.348125 
L 546.260783 168.8275 
Q 546.260783 167.0275 544.460783 167.0275 
L 478.921095 167.0275 
Q 477.121095 167.0275 477.121095 168.8275 
L 477.121095 194.348125 
Q 477.121095 196.148125 478.921095 196.148125 
z
" style="fill: #eaeaf2; opacity: 0.8; stroke: #cccccc; stroke-linejoin: miter"/>
    </g>
    <g id="line2d_20">
     <path d="M 480.721095 174.316094 
L 489.721095 174.316094 
L 498.721095 174.316094 
" style="fill: none; stroke: #000000; stroke-width: 0.7; stroke-linecap: round"/>
    </g>
    <g id="text_20">
     <!-- TDC -->
     <g style="fill: #262626" transform="translate(505.921095 177.466094)scale(0.09 -0.09)">
      <defs>
       <path id="DejaVuSans-54" d="M -19 4666 
L 3928 4666 
L 3928 4134 
L 2272 4134 
L 2272 0 
L 1638 0 
L 1638 4134 
L -19 4134 
L -19 4666 
z
" transform="scale(0.015625)"/>
       <path id="DejaVuSans-44" d="M 1259 4147 
L 1259 519 
L 2022 519 
Q 2988 519 3436 956 
Q 3884 1394 3884 2338 
Q 3884 3275 3436 3711 
Q 2988 4147 2022 4147 
L 1259 4147 
z
M 628 4666 
L 1925 4666 
Q 3281 4666 3915 4102 
Q 4550 3538 4550 2338 
Q 4550 1131 3912 565 
Q 3275 0 1925 0 
L 628 0 
L 628 4666 
z
" transform="scale(0.015625)"/>
       <path id="DejaVuSans-43" d="M 4122 4306 
L 4122 3641 
Q 3803 3938 3442 4084 
Q 3081 4231 2675 4231 
Q 1875 4231 1450 3742 
Q 1025 3253 1025 2328 
Q 1025 1406 1450 917 
Q 1875 428 2675 428 
Q 3081 428 3442 575 
Q 3803 722 4122 1019 
L 4122 359 
Q 3791 134 3420 21 
Q 3050 -91 2638 -91 
Q 1578 -91 968 557 
Q 359 1206 359 2328 
Q 359 3453 968 4101 
Q 1578 4750 2638 4750 
Q 3056 4750 3426 4639 
Q 3797 4528 4122 4306 
z
" transform="scale(0.015625)"/>
      </defs>
      <use xlink:href="#DejaVuSans-54"/>
      <use xlink:href="#DejaVuSans-44" x="61.083984"/>
      <use xlink:href="#DejaVuSans-43" x="138.085938"/>
     </g>
    </g>
    <g id="line2d_21">
     <path d="M 480.721095 187.526406 
L 489.721095 187.526406 
L 498.721095 187.526406 
" style="fill: none; stroke-dasharray: 2.96,1.28; stroke-dashoffset: 0; stroke: #ff0000; stroke-width: 0.8"/>
    </g>
    <g id="text_21">
     <!-- Mov. Av. -->
     <g style="fill: #262626" transform="translate(505.921095 190.676406)scale(0.09 -0.09)">
      <defs>
       <path id="DejaVuSans-4d" d="M 628 4666 
L 1569 4666 
L 2759 1491 
L 3956 4666 
L 4897 4666 
L 4897 0 
L 4281 0 
L 4281 4097 
L 3078 897 
L 2444 897 
L 1241 4097 
L 1241 0 
L 628 0 
L 628 4666 
z
" transform="scale(0.015625)"/>
       <path id="DejaVuSans-76" d="M 191 3500 
L 800 3500 
L 1894 563 
L 2988 3500 
L 3597 3500 
L 2284 0 
L 1503 0 
L 191 3500 
z
" transform="scale(0.015625)"/>
       <path id="DejaVuSans-2e" d="M 684 794 
L 1344 794 
L 1344 0 
L 684 0 
L 684 794 
z
" transform="scale(0.015625)"/>
       <path id="DejaVuSans-41" d="M 2188 4044 
L 1331 1722 
L 3047 1722 
L 2188 4044 
z
M 1831 4666 
L 2547 4666 
L 4325 0 
L 3669 0 
L 3244 1197 
L 1141 1197 
L 716 0 
L 50 0 
L 1831 4666 
z
" transform="scale(0.015625)"/>
      </defs>
      <use xlink:href="#DejaVuSans-4d"/>
      <use xlink:href="#DejaVuSans-6f" x="86.279297"/>
      <use xlink:href="#DejaVuSans-76" x="147.460938"/>
      <use xlink:href="#DejaVuSans-2e" x="198.890625"/>
      <use xlink:href="#DejaVuSans-20" x="230.677734"/>
      <use xlink:href="#DejaVuSans-41" x="262.464844"/>
      <use xlink:href="#DejaVuSans-76" x="324.998047"/>
      <use xlink:href="#DejaVuSans-2e" x="376.427734"/>
     </g>
    </g>
   </g>
  </g>
  <g id="text_22">
   <!-- Energetic Components [Per-residue] -->
   <g style="fill: #262626" transform="translate(161.55375 15.605813)scale(0.14 -0.14)">
    <defs>
     <path id="DejaVuSans-74" d="M 1172 4494 
L 1172 3500 
L 2356 3500 
L 2356 3053 
L 1172 3053 
L 1172 1153 
Q 1172 725 1289 603 
Q 1406 481 1766 481 
L 2356 481 
L 2356 0 
L 1766 0 
Q 1100 0 847 248 
Q 594 497 594 1153 
L 594 3053 
L 172 3053 
L 172 3500 
L 594 3500 
L 594 4494 
L 1172 4494 
z
" transform="scale(0.015625)"/>
     <path id="DejaVuSans-69" d="M 603 3500 
L 1178 3500 
L 1178 0 
L 603 0 
L 603 3500 
z
M 603 4863 
L 1178 4863 
L 1178 4134 
L 603 4134 
L 603 4863 
z
" transform="scale(0.015625)"/>
     <path id="DejaVuSans-70" d="M 1159 525 
L 1159 -1331 
L 581 -1331 
L 581 3500 
L 1159 3500 
L 1159 2969 
Q 1341 3281 1617 3432 
Q 1894 3584 2278 3584 
Q 2916 3584 3314 3078 
Q 3713 2572 3713 1747 
Q 3713 922 3314 415 
Q 2916 -91 2278 -91 
Q 1894 -91 1617 61 
Q 1341 213 1159 525 
z
M 3116 1747 
Q 3116 2381 2855 2742 
Q 2594 3103 2138 3103 
Q 1681 3103 1420 2742 
Q 1159 2381 1159 1747 
Q 1159 1113 1420 752 
Q 1681 391 2138 391 
Q 2594 391 2855 752 
Q 3116 1113 3116 1747 
z
" transform="scale(0.015625)"/>
     <path id="DejaVuSans-5b" d="M 550 4863 
L 1875 4863 
L 1875 4416 
L 1125 4416 
L 1125 -397 
L 1875 -397 
L 1875 -844 
L 550 -844 
L 550 4863 
z
" transform="scale(0.015625)"/>
     <path id="DejaVuSans-50" d="M 1259 4147 
L 1259 2394 
L 2053 2394 
Q 2494 2394 2734 2622 
Q 2975 2850 2975 3272 
Q 2975 3691 2734 3919 
Q 2494 4147 2053 4147 
L 1259 4147 
z
M 628 4666 
L 2053 4666 
Q 2838 4666 3239 4311 
Q 3641 3956 3641 3272 
Q 3641 2581 3239 2228 
Q 2838 1875 2053 1875 
L 1259 1875 
L 1259 0 
L 628 0 
L 628 4666 
z
" transform="scale(0.015625)"/>
     <path id="DejaVuSans-2d" d="M 313 2009 
L 1997 2009 
L 1997 1497 
L 313 1497 
L 313 2009 
z
" transform="scale(0.015625)"/>
     <path id="DejaVuSans-64" d="M 2906 2969 
L 2906 4863 
L 3481 4863 
L 3481 0 
L 2906 0 
L 2906 525 
Q 2725 213 2448 61 
Q 2172 -91 1784 -91 
Q 1150 -91 751 415 
Q 353 922 353 1747 
Q 353 2572 751 3078 
Q 1150 3584 1784 3584 
Q 2172 3584 2448 3432 
Q 2725 3281 2906 2969 
z
M 947 1747 
Q 947 1113 1208 752 
Q 1469 391 1925 391 
Q 2381 391 2643 752 
Q 2906 1113 2906 1747 
Q 2906 2381 2643 2742 
Q 2381 3103 1925 3103 
Q 1469 3103 1208 2742 
Q 947 2381 947 1747 
z
" transform="scale(0.015625)"/>
     <path id="DejaVuSans-75" d="M 544 1381 
L 544 3500 
L 1119 3500 
L 1119 1403 
Q 1119 906 1312 657 
Q 1506 409 1894 409 
Q 2359 409 2629 706 
Q 2900 1003 2900 1516 
L 2900 3500 
L 3475 3500 
L 3475 0 
L 2900 0 
L 2900 538 
Q 2691 219 2414 64 
Q 2138 -91 1772 -91 
Q 1169 -91 856 284 
Q 544 659 544 1381 
z
M 1991 3584 
L 1991 3584 
z
" transform="scale(0.015625)"/>
     <path id="DejaVuSans-5d" d="M 1947 4863 
L 1947 -844 
L 622 -844 
L 622 -397 
L 1369 -397 
L 1369 4416 
L 622 4416 
L 622 4863 
L 1947 4863 
z
" transform="scale(0.015625)"/>
    </defs>
    <use xlink:href="#DejaVuSans-45"/>
    <use xlink:href="#DejaVuSans-6e" x="63.183594"/>
    <use xlink:href="#DejaVuSans-65" x="126.5625"/>
    <use xlink:href="#DejaVuSans-72" x="188.085938"/>
    <use xlink:href="#DejaVuSans-67" x="227.449219"/>
    <use xlink:href="#DejaVuSans-65" x="290.925781"/>
    <use xlink:href="#DejaVuSans-74" x="352.449219"/>
    <use xlink:href="#DejaVuSans-69" x="391.658203"/>
    <use xlink:href="#DejaVuSans-63" x="419.441406"/>
    <use xlink:href="#DejaVuSans-20" x="474.421875"/>
    <use xlink:href="#DejaVuSans-43" x="506.208984"/>
    <use xlink:href="#DejaVuSans-6f" x="576.033203"/>
    <use xlink:href="#DejaVuSans-6d" x="637.214844"/>
    <use xlink:href="#DejaVuSans-70" x="734.626953"/>
    <use xlink:href="#DejaVuSans-6f" x="798.103516"/>
    <use xlink:href="#DejaVuSans-6e" x="859.285156"/>
    <use xlink:href="#DejaVuSans-65" x="922.664062"/>
    <use xlink:href="#DejaVuSans-6e" x="984.1875"/>
    <use xlink:href="#DejaVuSans-74" x="1047.566406"/>
    <use xlink:href="#DejaVuSans-73" x="1086.775391"/>
    <use xlink:href="#DejaVuSans-20" x="1138.875"/>
    <use xlink:href="#DejaVuSans-5b" x="1170.662109"/>
    <use xlink:href="#DejaVuSans-50" x="1209.675781"/>
    <use xlink:href="#DejaVuSans-65" x="1266.353516"/>
    <use xlink:href="#DejaVuSans-72" x="1327.876953"/>
    <use xlink:href="#DejaVuSans-2d" x="1362.615234"/>
    <use xlink:href="#DejaVuSans-72" x="1398.699219"/>
    <use xlink:href="#DejaVuSans-65" x="1437.5625"/>
    <use xlink:href="#DejaVuSans-73" x="1499.085938"/>
    <use xlink:href="#DejaVuSans-69" x="1551.185547"/>
    <use xlink:href="#DejaVuSans-64" x="1578.96875"/>
    <use xlink:href="#DejaVuSans-75" x="1642.445312"/>
    <use xlink:href="#DejaVuSans-65" x="1705.824219"/>
    <use xlink:href="#DejaVuSans-5d" x="1767.347656"/>
   </g>
   <!-- System-1 | NORMAL | GB | Delta | TDC -->
   <g style="fill: #262626" transform="translate(153.892031 31.35625)scale(0.14 -0.14)">
    <defs>
     <path id="DejaVuSans-53" d="M 3425 4513 
L 3425 3897 
Q 3066 4069 2747 4153 
Q 2428 4238 2131 4238 
Q 1616 4238 1336 4038 
Q 1056 3838 1056 3469 
Q 1056 3159 1242 3001 
Q 1428 2844 1947 2747 
L 2328 2669 
Q 3034 2534 3370 2195 
Q 3706 1856 3706 1288 
Q 3706 609 3251 259 
Q 2797 -91 1919 -91 
Q 1588 -91 1214 -16 
Q 841 59 441 206 
L 441 856 
Q 825 641 1194 531 
Q 1563 422 1919 422 
Q 2459 422 2753 634 
Q 3047 847 3047 1241 
Q 3047 1584 2836 1778 
Q 2625 1972 2144 2069 
L 1759 2144 
Q 1053 2284 737 2584 
Q 422 2884 422 3419 
Q 422 4038 858 4394 
Q 1294 4750 2059 4750 
Q 2388 4750 2728 4690 
Q 3069 4631 3425 4513 
z
" transform="scale(0.015625)"/>
     <path id="DejaVuSans-7c" d="M 1344 4891 
L 1344 -1509 
L 813 -1509 
L 813 4891 
L 1344 4891 
z
" transform="scale(0.015625)"/>
     <path id="DejaVuSans-4e" d="M 628 4666 
L 1478 4666 
L 3547 763 
L 3547 4666 
L 4159 4666 
L 4159 0 
L 3309 0 
L 1241 3903 
L 1241 0 
L 628 0 
L 628 4666 
z
" transform="scale(0.015625)"/>
     <path id="DejaVuSans-4f" d="M 2522 4238 
Q 1834 4238 1429 3725 
Q 1025 3213 1025 2328 
Q 1025 1447 1429 934 
Q 1834 422 2522 422 
Q 3209 422 3611 934 
Q 4013 1447 4013 2328 
Q 4013 3213 3611 3725 
Q 3209 4238 2522 4238 
z
M 2522 4750 
Q 3503 4750 4090 4092 
Q 4678 3434 4678 2328 
Q 4678 1225 4090 567 
Q 3503 -91 2522 -91 
Q 1538 -91 948 565 
Q 359 1222 359 2328 
Q 359 3434 948 4092 
Q 1538 4750 2522 4750 
z
" transform="scale(0.015625)"/>
     <path id="DejaVuSans-52" d="M 2841 2188 
Q 3044 2119 3236 1894 
Q 3428 1669 3622 1275 
L 4263 0 
L 3584 0 
L 2988 1197 
Q 2756 1666 2539 1819 
Q 2322 1972 1947 1972 
L 1259 1972 
L 1259 0 
L 628 0 
L 628 4666 
L 2053 4666 
Q 2853 4666 3247 4331 
Q 3641 3997 3641 3322 
Q 3641 2881 3436 2590 
Q 3231 2300 2841 2188 
z
M 1259 4147 
L 1259 2491 
L 2053 2491 
Q 2509 2491 2742 2702 
Q 2975 2913 2975 3322 
Q 2975 3731 2742 3939 
Q 2509 4147 2053 4147 
L 1259 4147 
z
" transform="scale(0.015625)"/>
     <path id="DejaVuSans-4c" d="M 628 4666 
L 1259 4666 
L 1259 531 
L 3531 531 
L 3531 0 
L 628 0 
L 628 4666 
z
" transform="scale(0.015625)"/>
     <path id="DejaVuSans-47" d="M 3809 666 
L 3809 1919 
L 2778 1919 
L 2778 2438 
L 4434 2438 
L 4434 434 
Q 4069 175 3628 42 
Q 3188 -91 2688 -91 
Q 1594 -91 976 548 
Q 359 1188 359 2328 
Q 359 3472 976 4111 
Q 1594 4750 2688 4750 
Q 3144 4750 3555 4637 
Q 3966 4525 4313 4306 
L 4313 3634 
Q 3963 3931 3569 4081 
Q 3175 4231 2741 4231 
Q 1884 4231 1454 3753 
Q 1025 3275 1025 2328 
Q 1025 1384 1454 906 
Q 1884 428 2741 428 
Q 3075 428 3337 486 
Q 3600 544 3809 666 
z
" transform="scale(0.015625)"/>
     <path id="DejaVuSans-42" d="M 1259 2228 
L 1259 519 
L 2272 519 
Q 2781 519 3026 730 
Q 3272 941 3272 1375 
Q 3272 1813 3026 2020 
Q 2781 2228 2272 2228 
L 1259 2228 
z
M 1259 4147 
L 1259 2741 
L 2194 2741 
Q 2656 2741 2882 2914 
Q 3109 3088 3109 3444 
Q 3109 3797 2882 3972 
Q 2656 4147 2194 4147 
L 1259 4147 
z
M 628 4666 
L 2241 4666 
Q 2963 4666 3353 4366 
Q 3744 4066 3744 3513 
Q 3744 3084 3544 2831 
Q 3344 2578 2956 2516 
Q 3422 2416 3680 2098 
Q 3938 1781 3938 1306 
Q 3938 681 3513 340 
Q 3088 0 2303 0 
L 628 0 
L 628 4666 
z
" transform="scale(0.015625)"/>
    </defs>
    <use xlink:href="#DejaVuSans-53"/>
    <use xlink:href="#DejaVuSans-79" x="63.476562"/>
    <use xlink:href="#DejaVuSans-73" x="122.65625"/>
    <use xlink:href="#DejaVuSans-74" x="174.755859"/>
    <use xlink:href="#DejaVuSans-65" x="213.964844"/>
    <use xlink:href="#DejaVuSans-6d" x="275.488281"/>
    <use xlink:href="#DejaVuSans-2d" x="372.900391"/>
    <use xlink:href="#DejaVuSans-31" x="408.984375"/>
    <use xlink:href="#DejaVuSans-20" x="472.607422"/>
    <use xlink:href="#DejaVuSans-7c" x="504.394531"/>
    <use xlink:href="#DejaVuSans-20" x="538.085938"/>
    <use xlink:href="#DejaVuSans-4e" x="569.873047"/>
    <use xlink:href="#DejaVuSans-4f" x="644.677734"/>
    <use xlink:href="#DejaVuSans-52" x="723.388672"/>
    <use xlink:href="#DejaVuSans-4d" x="792.871094"/>
    <use xlink:href="#DejaVuSans-41" x="879.150391"/>
    <use xlink:href="#DejaVuSans-4c" x="947.558594"/>
    <use xlink:href="#DejaVuSans-20" x="1003.271484"/>
    <use xlink:href="#DejaVuSans-7c" x="1035.058594"/>
    <use xlink:href="#DejaVuSans-20" x="1068.75"/>
    <use xlink:href="#DejaVuSans-47" x="1100.537109"/>
    <use xlink:href="#DejaVuSans-42" x="1178.027344"/>
    <use xlink:href="#DejaVuSans-20" x="1246.630859"/>
    <use xlink:href="#DejaVuSans-7c" x="1278.417969"/>
    <use xlink:href="#DejaVuSans-20" x="1312.109375"/>
    <use xlink:href="#DejaVuSans-44" x="1343.896484"/>
    <use xlink:href="#DejaVuSans-65" x="1420.898438"/>
    <use xlink:href="#DejaVuSans-6c" x="1482.421875"/>
    <use xlink:href="#DejaVuSans-74" x="1510.205078"/>
    <use xlink:href="#DejaVuSans-61" x="1549.414062"/>
    <use xlink:href="#DejaVuSans-20" x="1610.693359"/>
    <use xlink:href="#DejaVuSans-7c" x="1642.480469"/>
    <use xlink:href="#DejaVuSans-20" x="1676.171875"/>
    <use xlink:href="#DejaVuSans-54" x="1707.958984"/>
    <use xlink:href="#DejaVuSans-44" x="1769.042969"/>
    <use xlink:href="#DejaVuSans-43" x="1846.044922"/>
   </g>
  </g>
 </g>
 <defs>
  <clipPath id="p324e738dae">
   <rect x="59.178438" y="55.609187" width="491.582345" height="145.038938"/>
  </clipPath>
 </defs>
</svg>
