<?xml version="1.0" encoding="utf-8" standalone="no"?>
<!DOCTYPE svg PUBLIC "-//W3C//DTD SVG 1.1//EN"
  "http://www.w3.org/Graphics/SVG/1.1/DTD/svg11.dtd">
<svg xmlns:xlink="http://www.w3.org/1999/xlink" width="576pt" height="248.4pt" viewBox="0 0 576 248.4" xmlns="http://www.w3.org/2000/svg" version="1.1">
 <metadata>
  <rdf:RDF xmlns:dc="http://purl.org/dc/elements/1.1/" xmlns:cc="http://creativecommons.org/ns#" xmlns:rdf="http://www.w3.org/1999/02/22-rdf-syntax-ns#">
   <cc:Work>
    <dc:type rdf:resource="http://purl.org/dc/dcmitype/StillImage"/>
    <dc:date>2024-10-20T17:04:30.922782</dc:date>
    <dc:format>image/svg+xml</dc:format>
    <dc:creator>
     <cc:Agent>
      <dc:title>Matplotlib v3.5.2, https://matplotlib.org/</dc:title>
     </cc:Agent>
    </dc:creator>
   </cc:Work>
  </rdf:RDF>
 </metadata>
 <defs>
  <style type="text/css">*{stroke-linejoin: round; stroke-linecap: butt}</style>
 </defs>
 <g id="figure_1">
  <g id="patch_1">
   <path d="M 0 248.4 
L 576 248.4 
L 576 0 
L 0 0 
z
" style="fill: #ffffff"/>
  </g>
  <g id="axes_1">
   <g id="patch_2">
    <path d="M 59.178438 200.648125 
L 550.760783 200.648125 
L 550.760783 55.609187 
L 59.178438 55.609187 
z
" style="fill: #eaeaf2"/>
   </g>
   <g id="matplotlib.axis_1">
    <g id="xtick_1">
     <g id="line2d_1">
      <path d="M 81.076197 200.648125 
L 81.076197 55.609187 
" clip-path="url(#p16519d6c85)" style="fill: none; stroke: #ffffff; stroke-linecap: round"/>
     </g>
     <g id="text_1">
      <!-- 0 -->
      <g style="fill: #262626" transform="translate(77.894947 217.746562)scale(0.1 -0.1)">
       <defs>
        <path id="DejaVuSans-30" d="M 2034 4250 
Q 1547 4250 1301 3770 
Q 1056 3291 1056 2328 
Q 1056 1369 1301 889 
Q 1547 409 2034 409 
Q 2525 409 2770 889 
Q 3016 1369 3016 2328 
Q 3016 3291 2770 3770 
Q 2525 4250 2034 4250 
z
M 2034 4750 
Q 2819 4750 3233 4129 
Q 3647 3509 3647 2328 
Q 3647 1150 3233 529 
Q 2819 -91 2034 -91 
Q 1250 -91 836 529 
Q 422 1150 422 2328 
Q 422 3509 836 4129 
Q 1250 4750 2034 4750 
z
" transform="scale(0.015625)"/>
       </defs>
       <use xlink:href="#DejaVuSans-30"/>
      </g>
     </g>
    </g>
    <g id="xtick_2">
     <g id="line2d_2">
      <path d="M 148.110153 200.648125 
L 148.110153 55.609187 
" clip-path="url(#p16519d6c85)" style="fill: none; stroke: #ffffff; stroke-linecap: round"/>
     </g>
     <g id="text_2">
      <!-- 150 -->
      <g style="fill: #262626" transform="translate(138.566403 217.746562)scale(0.1 -0.1)">
       <defs>
        <path id="DejaVuSans-31" d="M 794 531 
L 1825 531 
L 1825 4091 
L 703 3866 
L 703 4441 
L 1819 4666 
L 2450 4666 
L 2450 531 
L 3481 531 
L 3481 0 
L 794 0 
L 794 531 
z
" transform="scale(0.015625)"/>
        <path id="DejaVuSans-35" d="M 691 4666 
L 3169 4666 
L 3169 4134 
L 1269 4134 
L 1269 2991 
Q 1406 3038 1543 3061 
Q 1681 3084 1819 3084 
Q 2600 3084 3056 2656 
Q 3513 2228 3513 1497 
Q 3513 744 3044 326 
Q 2575 -91 1722 -91 
Q 1428 -91 1123 -41 
Q 819 9 494 109 
L 494 744 
Q 775 591 1075 516 
Q 1375 441 1709 441 
Q 2250 441 2565 725 
Q 2881 1009 2881 1497 
Q 2881 1984 2565 2268 
Q 2250 2553 1709 2553 
Q 1456 2553 1204 2497 
Q 953 2441 691 2322 
L 691 4666 
z
" transform="scale(0.015625)"/>
       </defs>
       <use xlink:href="#DejaVuSans-31"/>
       <use xlink:href="#DejaVuSans-35" x="63.623047"/>
       <use xlink:href="#DejaVuSans-30" x="127.246094"/>
      </g>
     </g>
    </g>
    <g id="xtick_3">
     <g id="line2d_3">
      <path d="M 215.144109 200.648125 
L 215.144109 55.609187 
" clip-path="url(#p16519d6c85)" style="fill: none; stroke: #ffffff; stroke-linecap: round"/>
     </g>
     <g id="text_3">
      <!-- 300 -->
      <g style="fill: #262626" transform="translate(205.600359 217.746562)scale(0.1 -0.1)">
       <defs>
        <path id="DejaVuSans-33" d="M 2597 2516 
Q 3050 2419 3304 2112 
Q 3559 1806 3559 1356 
Q 3559 666 3084 287 
Q 2609 -91 1734 -91 
Q 1441 -91 1130 -33 
Q 819 25 488 141 
L 488 750 
Q 750 597 1062 519 
Q 1375 441 1716 441 
Q 2309 441 2620 675 
Q 2931 909 2931 1356 
Q 2931 1769 2642 2001 
Q 2353 2234 1838 2234 
L 1294 2234 
L 1294 2753 
L 1863 2753 
Q 2328 2753 2575 2939 
Q 2822 3125 2822 3475 
Q 2822 3834 2567 4026 
Q 2313 4219 1838 4219 
Q 1578 4219 1281 4162 
Q 984 4106 628 3988 
L 628 4550 
Q 988 4650 1302 4700 
Q 1616 4750 1894 4750 
Q 2613 4750 3031 4423 
Q 3450 4097 3450 3541 
Q 3450 3153 3228 2886 
Q 3006 2619 2597 2516 
z
" transform="scale(0.015625)"/>
       </defs>
       <use xlink:href="#DejaVuSans-33"/>
       <use xlink:href="#DejaVuSans-30" x="63.623047"/>
       <use xlink:href="#DejaVuSans-30" x="127.246094"/>
      </g>
     </g>
    </g>
    <g id="xtick_4">
     <g id="line2d_4">
      <path d="M 282.178065 200.648125 
L 282.178065 55.609187 
" clip-path="url(#p16519d6c85)" style="fill: none; stroke: #ffffff; stroke-linecap: round"/>
     </g>
     <g id="text_4">
      <!-- 450 -->
      <g style="fill: #262626" transform="translate(272.634315 217.746562)scale(0.1 -0.1)">
       <defs>
        <path id="DejaVuSans-34" d="M 2419 4116 
L 825 1625 
L 2419 1625 
L 2419 4116 
z
M 2253 4666 
L 3047 4666 
L 3047 1625 
L 3713 1625 
L 3713 1100 
L 3047 1100 
L 3047 0 
L 2419 0 
L 2419 1100 
L 313 1100 
L 313 1709 
L 2253 4666 
z
" transform="scale(0.015625)"/>
       </defs>
       <use xlink:href="#DejaVuSans-34"/>
       <use xlink:href="#DejaVuSans-35" x="63.623047"/>
       <use xlink:href="#DejaVuSans-30" x="127.246094"/>
      </g>
     </g>
    </g>
    <g id="xtick_5">
     <g id="line2d_5">
      <path d="M 349.212021 200.648125 
L 349.212021 55.609187 
" clip-path="url(#p16519d6c85)" style="fill: none; stroke: #ffffff; stroke-linecap: round"/>
     </g>
     <g id="text_5">
      <!-- 600 -->
      <g style="fill: #262626" transform="translate(339.668271 217.746562)scale(0.1 -0.1)">
       <defs>
        <path id="DejaVuSans-36" d="M 2113 2584 
Q 1688 2584 1439 2293 
Q 1191 2003 1191 1497 
Q 1191 994 1439 701 
Q 1688 409 2113 409 
Q 2538 409 2786 701 
Q 3034 994 3034 1497 
Q 3034 2003 2786 2293 
Q 2538 2584 2113 2584 
z
M 3366 4563 
L 3366 3988 
Q 3128 4100 2886 4159 
Q 2644 4219 2406 4219 
Q 1781 4219 1451 3797 
Q 1122 3375 1075 2522 
Q 1259 2794 1537 2939 
Q 1816 3084 2150 3084 
Q 2853 3084 3261 2657 
Q 3669 2231 3669 1497 
Q 3669 778 3244 343 
Q 2819 -91 2113 -91 
Q 1303 -91 875 529 
Q 447 1150 447 2328 
Q 447 3434 972 4092 
Q 1497 4750 2381 4750 
Q 2619 4750 2861 4703 
Q 3103 4656 3366 4563 
z
" transform="scale(0.015625)"/>
       </defs>
       <use xlink:href="#DejaVuSans-36"/>
       <use xlink:href="#DejaVuSans-30" x="63.623047"/>
       <use xlink:href="#DejaVuSans-30" x="127.246094"/>
      </g>
     </g>
    </g>
    <g id="xtick_6">
     <g id="line2d_6">
      <path d="M 416.245977 200.648125 
L 416.245977 55.609187 
" clip-path="url(#p16519d6c85)" style="fill: none; stroke: #ffffff; stroke-linecap: round"/>
     </g>
     <g id="text_6">
      <!-- 750 -->
      <g style="fill: #262626" transform="translate(406.702227 217.746562)scale(0.1 -0.1)">
       <defs>
        <path id="DejaVuSans-37" d="M 525 4666 
L 3525 4666 
L 3525 4397 
L 1831 0 
L 1172 0 
L 2766 4134 
L 525 4134 
L 525 4666 
z
" transform="scale(0.015625)"/>
       </defs>
       <use xlink:href="#DejaVuSans-37"/>
       <use xlink:href="#DejaVuSans-35" x="63.623047"/>
       <use xlink:href="#DejaVuSans-30" x="127.246094"/>
      </g>
     </g>
    </g>
    <g id="xtick_7">
     <g id="line2d_7">
      <path d="M 483.279933 200.648125 
L 483.279933 55.609187 
" clip-path="url(#p16519d6c85)" style="fill: none; stroke: #ffffff; stroke-linecap: round"/>
     </g>
     <g id="text_7">
      <!-- 900 -->
      <g style="fill: #262626" transform="translate(473.736183 217.746562)scale(0.1 -0.1)">
       <defs>
        <path id="DejaVuSans-39" d="M 703 97 
L 703 672 
Q 941 559 1184 500 
Q 1428 441 1663 441 
Q 2288 441 2617 861 
Q 2947 1281 2994 2138 
Q 2813 1869 2534 1725 
Q 2256 1581 1919 1581 
Q 1219 1581 811 2004 
Q 403 2428 403 3163 
Q 403 3881 828 4315 
Q 1253 4750 1959 4750 
Q 2769 4750 3195 4129 
Q 3622 3509 3622 2328 
Q 3622 1225 3098 567 
Q 2575 -91 1691 -91 
Q 1453 -91 1209 -44 
Q 966 3 703 97 
z
M 1959 2075 
Q 2384 2075 2632 2365 
Q 2881 2656 2881 3163 
Q 2881 3666 2632 3958 
Q 2384 4250 1959 4250 
Q 1534 4250 1286 3958 
Q 1038 3666 1038 3163 
Q 1038 2656 1286 2365 
Q 1534 2075 1959 2075 
z
" transform="scale(0.015625)"/>
       </defs>
       <use xlink:href="#DejaVuSans-39"/>
       <use xlink:href="#DejaVuSans-30" x="63.623047"/>
       <use xlink:href="#DejaVuSans-30" x="127.246094"/>
      </g>
     </g>
    </g>
    <g id="xtick_8">
     <g id="line2d_8">
      <path d="M 550.313889 200.648125 
L 550.313889 55.609187 
" clip-path="url(#p16519d6c85)" style="fill: none; stroke: #ffffff; stroke-linecap: round"/>
     </g>
     <g id="text_8">
      <!-- 1050 -->
      <g style="fill: #262626" transform="translate(537.588889 217.746562)scale(0.1 -0.1)">
       <use xlink:href="#DejaVuSans-31"/>
       <use xlink:href="#DejaVuSans-30" x="63.623047"/>
       <use xlink:href="#DejaVuSans-35" x="127.246094"/>
       <use xlink:href="#DejaVuSans-30" x="190.869141"/>
      </g>
     </g>
    </g>
    <g id="text_9">
     <!-- Frames -->
     <g style="fill: #262626" transform="translate(283.14836 232.944375)scale(0.12 -0.12)">
      <defs>
       <path id="DejaVuSans-46" d="M 628 4666 
L 3309 4666 
L 3309 4134 
L 1259 4134 
L 1259 2759 
L 3109 2759 
L 3109 2228 
L 1259 2228 
L 1259 0 
L 628 0 
L 628 4666 
z
" transform="scale(0.015625)"/>
       <path id="DejaVuSans-72" d="M 2631 2963 
Q 2534 3019 2420 3045 
Q 2306 3072 2169 3072 
Q 1681 3072 1420 2755 
Q 1159 2438 1159 1844 
L 1159 0 
L 581 0 
L 581 3500 
L 1159 3500 
L 1159 2956 
Q 1341 3275 1631 3429 
Q 1922 3584 2338 3584 
Q 2397 3584 2469 3576 
Q 2541 3569 2628 3553 
L 2631 2963 
z
" transform="scale(0.015625)"/>
       <path id="DejaVuSans-61" d="M 2194 1759 
Q 1497 1759 1228 1600 
Q 959 1441 959 1056 
Q 959 750 1161 570 
Q 1363 391 1709 391 
Q 2188 391 2477 730 
Q 2766 1069 2766 1631 
L 2766 1759 
L 2194 1759 
z
M 3341 1997 
L 3341 0 
L 2766 0 
L 2766 531 
Q 2569 213 2275 61 
Q 1981 -91 1556 -91 
Q 1019 -91 701 211 
Q 384 513 384 1019 
Q 384 1609 779 1909 
Q 1175 2209 1959 2209 
L 2766 2209 
L 2766 2266 
Q 2766 2663 2505 2880 
Q 2244 3097 1772 3097 
Q 1472 3097 1187 3025 
Q 903 2953 641 2809 
L 641 3341 
Q 956 3463 1253 3523 
Q 1550 3584 1831 3584 
Q 2591 3584 2966 3190 
Q 3341 2797 3341 1997 
z
" transform="scale(0.015625)"/>
       <path id="DejaVuSans-6d" d="M 3328 2828 
Q 3544 3216 3844 3400 
Q 4144 3584 4550 3584 
Q 5097 3584 5394 3201 
Q 5691 2819 5691 2113 
L 5691 0 
L 5113 0 
L 5113 2094 
Q 5113 2597 4934 2840 
Q 4756 3084 4391 3084 
Q 3944 3084 3684 2787 
Q 3425 2491 3425 1978 
L 3425 0 
L 2847 0 
L 2847 2094 
Q 2847 2600 2669 2842 
Q 2491 3084 2119 3084 
Q 1678 3084 1418 2786 
Q 1159 2488 1159 1978 
L 1159 0 
L 581 0 
L 581 3500 
L 1159 3500 
L 1159 2956 
Q 1356 3278 1631 3431 
Q 1906 3584 2284 3584 
Q 2666 3584 2933 3390 
Q 3200 3197 3328 2828 
z
" transform="scale(0.015625)"/>
       <path id="DejaVuSans-65" d="M 3597 1894 
L 3597 1613 
L 953 1613 
Q 991 1019 1311 708 
Q 1631 397 2203 397 
Q 2534 397 2845 478 
Q 3156 559 3463 722 
L 3463 178 
Q 3153 47 2828 -22 
Q 2503 -91 2169 -91 
Q 1331 -91 842 396 
Q 353 884 353 1716 
Q 353 2575 817 3079 
Q 1281 3584 2069 3584 
Q 2775 3584 3186 3129 
Q 3597 2675 3597 1894 
z
M 3022 2063 
Q 3016 2534 2758 2815 
Q 2500 3097 2075 3097 
Q 1594 3097 1305 2825 
Q 1016 2553 972 2059 
L 3022 2063 
z
" transform="scale(0.015625)"/>
       <path id="DejaVuSans-73" d="M 2834 3397 
L 2834 2853 
Q 2591 2978 2328 3040 
Q 2066 3103 1784 3103 
Q 1356 3103 1142 2972 
Q 928 2841 928 2578 
Q 928 2378 1081 2264 
Q 1234 2150 1697 2047 
L 1894 2003 
Q 2506 1872 2764 1633 
Q 3022 1394 3022 966 
Q 3022 478 2636 193 
Q 2250 -91 1575 -91 
Q 1294 -91 989 -36 
Q 684 19 347 128 
L 347 722 
Q 666 556 975 473 
Q 1284 391 1588 391 
Q 1994 391 2212 530 
Q 2431 669 2431 922 
Q 2431 1156 2273 1281 
Q 2116 1406 1581 1522 
L 1381 1569 
Q 847 1681 609 1914 
Q 372 2147 372 2553 
Q 372 3047 722 3315 
Q 1072 3584 1716 3584 
Q 2034 3584 2315 3537 
Q 2597 3491 2834 3397 
z
" transform="scale(0.015625)"/>
      </defs>
      <use xlink:href="#DejaVuSans-46"/>
      <use xlink:href="#DejaVuSans-72" x="50.269531"/>
      <use xlink:href="#DejaVuSans-61" x="91.382812"/>
      <use xlink:href="#DejaVuSans-6d" x="152.662109"/>
      <use xlink:href="#DejaVuSans-65" x="250.074219"/>
      <use xlink:href="#DejaVuSans-73" x="311.597656"/>
     </g>
    </g>
   </g>
   <g id="matplotlib.axis_2">
    <g id="ytick_1">
     <g id="line2d_9">
      <path d="M 59.178438 194.991322 
L 550.760783 194.991322 
" clip-path="url(#p16519d6c85)" style="fill: none; stroke: #ffffff; stroke-linecap: round"/>
     </g>
     <g id="text_10">
      <!-- −90 -->
      <g style="fill: #262626" transform="translate(28.57375 198.790541)scale(0.1 -0.1)">
       <defs>
        <path id="DejaVuSans-2212" d="M 678 2272 
L 4684 2272 
L 4684 1741 
L 678 1741 
L 678 2272 
z
" transform="scale(0.015625)"/>
       </defs>
       <use xlink:href="#DejaVuSans-2212"/>
       <use xlink:href="#DejaVuSans-39" x="83.789062"/>
       <use xlink:href="#DejaVuSans-30" x="147.412109"/>
      </g>
     </g>
    </g>
    <g id="ytick_2">
     <g id="line2d_10">
      <path d="M 59.178438 174.533907 
L 550.760783 174.533907 
" clip-path="url(#p16519d6c85)" style="fill: none; stroke: #ffffff; stroke-linecap: round"/>
     </g>
     <g id="text_11">
      <!-- −75 -->
      <g style="fill: #262626" transform="translate(28.57375 178.333126)scale(0.1 -0.1)">
       <use xlink:href="#DejaVuSans-2212"/>
       <use xlink:href="#DejaVuSans-37" x="83.789062"/>
       <use xlink:href="#DejaVuSans-35" x="147.412109"/>
      </g>
     </g>
    </g>
    <g id="ytick_3">
     <g id="line2d_11">
      <path d="M 59.178438 154.076493 
L 550.760783 154.076493 
" clip-path="url(#p16519d6c85)" style="fill: none; stroke: #ffffff; stroke-linecap: round"/>
     </g>
     <g id="text_12">
      <!-- −60 -->
      <g style="fill: #262626" transform="translate(28.57375 157.875711)scale(0.1 -0.1)">
       <use xlink:href="#DejaVuSans-2212"/>
       <use xlink:href="#DejaVuSans-36" x="83.789062"/>
       <use xlink:href="#DejaVuSans-30" x="147.412109"/>
      </g>
     </g>
    </g>
    <g id="ytick_4">
     <g id="line2d_12">
      <path d="M 59.178438 133.619078 
L 550.760783 133.619078 
" clip-path="url(#p16519d6c85)" style="fill: none; stroke: #ffffff; stroke-linecap: round"/>
     </g>
     <g id="text_13">
      <!-- −45 -->
      <g style="fill: #262626" transform="translate(28.57375 137.418297)scale(0.1 -0.1)">
       <use xlink:href="#DejaVuSans-2212"/>
       <use xlink:href="#DejaVuSans-34" x="83.789062"/>
       <use xlink:href="#DejaVuSans-35" x="147.412109"/>
      </g>
     </g>
    </g>
    <g id="ytick_5">
     <g id="line2d_13">
      <path d="M 59.178438 113.161663 
L 550.760783 113.161663 
" clip-path="url(#p16519d6c85)" style="fill: none; stroke: #ffffff; stroke-linecap: round"/>
     </g>
     <g id="text_14">
      <!-- −30 -->
      <g style="fill: #262626" transform="translate(28.57375 116.960882)scale(0.1 -0.1)">
       <use xlink:href="#DejaVuSans-2212"/>
       <use xlink:href="#DejaVuSans-33" x="83.789062"/>
       <use xlink:href="#DejaVuSans-30" x="147.412109"/>
      </g>
     </g>
    </g>
    <g id="ytick_6">
     <g id="line2d_14">
      <path d="M 59.178438 92.704248 
L 550.760783 92.704248 
" clip-path="url(#p16519d6c85)" style="fill: none; stroke: #ffffff; stroke-linecap: round"/>
     </g>
     <g id="text_15">
      <!-- −15 -->
      <g style="fill: #262626" transform="translate(28.57375 96.503467)scale(0.1 -0.1)">
       <use xlink:href="#DejaVuSans-2212"/>
       <use xlink:href="#DejaVuSans-31" x="83.789062"/>
       <use xlink:href="#DejaVuSans-35" x="147.412109"/>
      </g>
     </g>
    </g>
    <g id="ytick_7">
     <g id="line2d_15">
      <path d="M 59.178438 72.246834 
L 550.760783 72.246834 
" clip-path="url(#p16519d6c85)" style="fill: none; stroke: #ffffff; stroke-linecap: round"/>
     </g>
     <g id="text_16">
      <!-- 0 -->
      <g style="fill: #262626" transform="translate(43.315938 76.046052)scale(0.1 -0.1)">
       <use xlink:href="#DejaVuSans-30"/>
      </g>
     </g>
    </g>
    <g id="text_17">
     <!-- Energy (kcal/mol) -->
     <g style="fill: #262626" transform="translate(22.078125 181.045844)rotate(-90)scale(0.12 -0.12)">
      <defs>
       <path id="DejaVuSans-45" d="M 628 4666 
L 3578 4666 
L 3578 4134 
L 1259 4134 
L 1259 2753 
L 3481 2753 
L 3481 2222 
L 1259 2222 
L 1259 531 
L 3634 531 
L 3634 0 
L 628 0 
L 628 4666 
z
" transform="scale(0.015625)"/>
       <path id="DejaVuSans-6e" d="M 3513 2113 
L 3513 0 
L 2938 0 
L 2938 2094 
Q 2938 2591 2744 2837 
Q 2550 3084 2163 3084 
Q 1697 3084 1428 2787 
Q 1159 2491 1159 1978 
L 1159 0 
L 581 0 
L 581 3500 
L 1159 3500 
L 1159 2956 
Q 1366 3272 1645 3428 
Q 1925 3584 2291 3584 
Q 2894 3584 3203 3211 
Q 3513 2838 3513 2113 
z
" transform="scale(0.015625)"/>
       <path id="DejaVuSans-67" d="M 2906 1791 
Q 2906 2416 2648 2759 
Q 2391 3103 1925 3103 
Q 1463 3103 1205 2759 
Q 947 2416 947 1791 
Q 947 1169 1205 825 
Q 1463 481 1925 481 
Q 2391 481 2648 825 
Q 2906 1169 2906 1791 
z
M 3481 434 
Q 3481 -459 3084 -895 
Q 2688 -1331 1869 -1331 
Q 1566 -1331 1297 -1286 
Q 1028 -1241 775 -1147 
L 775 -588 
Q 1028 -725 1275 -790 
Q 1522 -856 1778 -856 
Q 2344 -856 2625 -561 
Q 2906 -266 2906 331 
L 2906 616 
Q 2728 306 2450 153 
Q 2172 0 1784 0 
Q 1141 0 747 490 
Q 353 981 353 1791 
Q 353 2603 747 3093 
Q 1141 3584 1784 3584 
Q 2172 3584 2450 3431 
Q 2728 3278 2906 2969 
L 2906 3500 
L 3481 3500 
L 3481 434 
z
" transform="scale(0.015625)"/>
       <path id="DejaVuSans-79" d="M 2059 -325 
Q 1816 -950 1584 -1140 
Q 1353 -1331 966 -1331 
L 506 -1331 
L 506 -850 
L 844 -850 
Q 1081 -850 1212 -737 
Q 1344 -625 1503 -206 
L 1606 56 
L 191 3500 
L 800 3500 
L 1894 763 
L 2988 3500 
L 3597 3500 
L 2059 -325 
z
" transform="scale(0.015625)"/>
       <path id="DejaVuSans-20" transform="scale(0.015625)"/>
       <path id="DejaVuSans-28" d="M 1984 4856 
Q 1566 4138 1362 3434 
Q 1159 2731 1159 2009 
Q 1159 1288 1364 580 
Q 1569 -128 1984 -844 
L 1484 -844 
Q 1016 -109 783 600 
Q 550 1309 550 2009 
Q 550 2706 781 3412 
Q 1013 4119 1484 4856 
L 1984 4856 
z
" transform="scale(0.015625)"/>
       <path id="DejaVuSans-6b" d="M 581 4863 
L 1159 4863 
L 1159 1991 
L 2875 3500 
L 3609 3500 
L 1753 1863 
L 3688 0 
L 2938 0 
L 1159 1709 
L 1159 0 
L 581 0 
L 581 4863 
z
" transform="scale(0.015625)"/>
       <path id="DejaVuSans-63" d="M 3122 3366 
L 3122 2828 
Q 2878 2963 2633 3030 
Q 2388 3097 2138 3097 
Q 1578 3097 1268 2742 
Q 959 2388 959 1747 
Q 959 1106 1268 751 
Q 1578 397 2138 397 
Q 2388 397 2633 464 
Q 2878 531 3122 666 
L 3122 134 
Q 2881 22 2623 -34 
Q 2366 -91 2075 -91 
Q 1284 -91 818 406 
Q 353 903 353 1747 
Q 353 2603 823 3093 
Q 1294 3584 2113 3584 
Q 2378 3584 2631 3529 
Q 2884 3475 3122 3366 
z
" transform="scale(0.015625)"/>
       <path id="DejaVuSans-6c" d="M 603 4863 
L 1178 4863 
L 1178 0 
L 603 0 
L 603 4863 
z
" transform="scale(0.015625)"/>
       <path id="DejaVuSans-2f" d="M 1625 4666 
L 2156 4666 
L 531 -594 
L 0 -594 
L 1625 4666 
z
" transform="scale(0.015625)"/>
       <path id="DejaVuSans-6f" d="M 1959 3097 
Q 1497 3097 1228 2736 
Q 959 2375 959 1747 
Q 959 1119 1226 758 
Q 1494 397 1959 397 
Q 2419 397 2687 759 
Q 2956 1122 2956 1747 
Q 2956 2369 2687 2733 
Q 2419 3097 1959 3097 
z
M 1959 3584 
Q 2709 3584 3137 3096 
Q 3566 2609 3566 1747 
Q 3566 888 3137 398 
Q 2709 -91 1959 -91 
Q 1206 -91 779 398 
Q 353 888 353 1747 
Q 353 2609 779 3096 
Q 1206 3584 1959 3584 
z
" transform="scale(0.015625)"/>
       <path id="DejaVuSans-29" d="M 513 4856 
L 1013 4856 
Q 1481 4119 1714 3412 
Q 1947 2706 1947 2009 
Q 1947 1309 1714 600 
Q 1481 -109 1013 -844 
L 513 -844 
Q 928 -128 1133 580 
Q 1338 1288 1338 2009 
Q 1338 2731 1133 3434 
Q 928 4138 513 4856 
z
" transform="scale(0.015625)"/>
      </defs>
      <use xlink:href="#DejaVuSans-45"/>
      <use xlink:href="#DejaVuSans-6e" x="63.183594"/>
      <use xlink:href="#DejaVuSans-65" x="126.5625"/>
      <use xlink:href="#DejaVuSans-72" x="188.085938"/>
      <use xlink:href="#DejaVuSans-67" x="227.449219"/>
      <use xlink:href="#DejaVuSans-79" x="290.925781"/>
      <use xlink:href="#DejaVuSans-20" x="350.105469"/>
      <use xlink:href="#DejaVuSans-28" x="381.892578"/>
      <use xlink:href="#DejaVuSans-6b" x="420.90625"/>
      <use xlink:href="#DejaVuSans-63" x="478.816406"/>
      <use xlink:href="#DejaVuSans-61" x="533.796875"/>
      <use xlink:href="#DejaVuSans-6c" x="595.076172"/>
      <use xlink:href="#DejaVuSans-2f" x="622.859375"/>
      <use xlink:href="#DejaVuSans-6d" x="656.550781"/>
      <use xlink:href="#DejaVuSans-6f" x="753.962891"/>
      <use xlink:href="#DejaVuSans-6c" x="815.144531"/>
      <use xlink:href="#DejaVuSans-29" x="842.927734"/>
     </g>
    </g>
   </g>
   <g id="line2d_16">
    <path d="M 81.52309 145.617464 
L 81.969983 162.180558 
L 82.416876 156.49295 
L 82.863769 145.129113 
L 83.310662 128.209594 
L 83.757555 137.141263 
L 84.204448 139.826624 
L 84.651341 136.424956 
L 85.098234 135.628146 
L 85.545127 121.122468 
L 85.99202 138.042792 
L 86.438913 137.779218 
L 87.332699 131.587682 
L 87.779592 128.775189 
L 88.226485 135.053061 
L 88.673378 128.580549 
L 89.120271 149.028833 
L 89.567164 132.97739 
L 90.014057 146.754154 
L 90.907843 113.443004 
L 91.354736 131.28226 
L 91.801629 117.997097 
L 92.248523 122.115307 
L 92.695416 118.145518 
L 93.142309 120.711157 
L 93.589202 105.337549 
L 94.036095 99.853118 
L 94.482988 118.309738 
L 94.929881 108.63859 
L 95.376774 112.149084 
L 95.823667 104.562213 
L 96.27056 121.927404 
L 96.717453 132.597662 
L 97.164346 109.588712 
L 97.611239 127.45117 
L 98.058132 132.480356 
L 98.505025 120.63336 
L 98.951918 111.811828 
L 99.398811 127.576051 
L 100.292597 147.63355 
L 100.73949 145.819127 
L 101.186383 145.552945 
L 101.633276 127.489613 
L 102.080169 146.905305 
L 102.527062 144.947548 
L 102.973956 138.998845 
L 103.420849 152.331257 
L 103.867742 142.777387 
L 104.314635 164.649306 
L 104.761528 143.43637 
L 105.208421 177.557013 
L 105.655314 178.711789 
L 106.102207 156.035236 
L 106.5491 155.649404 
L 106.995993 161.046743 
L 107.442886 162.71524 
L 107.889779 161.824908 
L 108.336672 176.223683 
L 108.783565 171.970195 
L 109.230458 162.10435 
L 109.677351 173.078271 
L 110.124244 177.086572 
L 110.571137 194.055446 
L 111.01803 171.706702 
L 111.464923 162.642183 
L 111.911816 175.887559 
L 112.358709 149.855133 
L 112.805602 159.509088 
L 113.252495 148.544895 
L 113.699388 145.177641 
L 114.146282 144.145652 
L 114.593175 146.28433 
L 115.040068 153.117332 
L 115.486961 177.831372 
L 116.380747 146.341735 
L 116.82764 140.939014 
L 117.274533 145.992686 
L 117.721426 142.289567 
L 118.168319 146.213516 
L 118.615212 133.098407 
L 119.062105 138.653595 
L 119.508998 153.54895 
L 119.955891 143.10328 
L 120.402784 149.111515 
L 120.849677 143.381004 
L 121.29657 148.076761 
L 121.743463 149.587793 
L 122.190356 138.896633 
L 123.084142 148.05414 
L 123.531035 143.733423 
L 123.977928 147.225818 
L 124.424821 143.83867 
L 124.871715 142.912968 
L 125.318608 158.949712 
L 125.765501 162.465265 
L 126.212394 157.991846 
L 127.10618 139.55016 
L 127.553073 147.844631 
L 127.999966 137.801903 
L 128.446859 155.011504 
L 128.893752 141.907048 
L 129.340645 157.269476 
L 129.787538 155.53142 
L 130.234431 149.866033 
L 130.681324 133.233533 
L 131.128217 160.641825 
L 131.57511 158.075487 
L 132.022003 175.441742 
L 132.468896 180.56247 
L 132.915789 171.155985 
L 133.362682 152.063773 
L 134.256468 162.088898 
L 134.703361 154.778478 
L 135.150254 155.351141 
L 135.597148 146.252055 
L 136.044041 141.640033 
L 136.490934 161.012615 
L 136.937827 171.185941 
L 137.38472 152.306649 
L 137.831613 161.246782 
L 138.278506 148.474987 
L 139.172292 149.789243 
L 139.619185 164.187558 
L 140.066078 153.854052 
L 140.512971 140.728398 
L 140.959864 136.477195 
L 141.406757 144.150215 
L 141.85365 148.051279 
L 142.300543 144.886529 
L 143.194329 142.563242 
L 143.641222 131.316167 
L 144.088115 124.12236 
L 144.535008 129.918566 
L 144.981901 137.962523 
L 145.428794 134.806378 
L 145.875687 146.85113 
L 146.32258 162.847057 
L 146.769474 162.64276 
L 147.216367 163.285791 
L 147.66326 151.214161 
L 148.110153 149.375071 
L 148.557046 140.035689 
L 149.450832 146.589569 
L 149.897725 131.377679 
L 150.344618 147.349671 
L 150.791511 146.582294 
L 151.238404 152.641299 
L 151.685297 148.459443 
L 152.13219 137.843774 
L 152.579083 137.505677 
L 153.025976 143.260155 
L 153.472869 147.248981 
L 153.919762 139.813712 
L 154.366655 135.624628 
L 154.813548 148.001926 
L 155.260441 131.242255 
L 155.707334 144.425893 
L 156.154227 150.642787 
L 156.60112 136.118663 
L 157.048013 140.413475 
L 157.494907 132.369104 
L 157.9418 128.943945 
L 158.388693 132.273865 
L 158.835586 142.350742 
L 159.282479 114.858837 
L 159.729372 130.944067 
L 160.176265 114.372719 
L 160.623158 114.553329 
L 161.070051 111.20133 
L 161.516944 114.228625 
L 161.963837 126.838558 
L 162.41073 132.966084 
L 162.857623 123.651198 
L 163.304516 125.415978 
L 163.751409 110.354717 
L 164.198302 124.729447 
L 164.645195 124.776576 
L 165.092088 133.465289 
L 165.538981 126.692633 
L 166.432767 140.118702 
L 166.87966 135.047125 
L 167.326553 127.219745 
L 167.773446 131.427753 
L 168.220339 131.616786 
L 168.667233 117.741416 
L 169.561019 123.920724 
L 170.007912 132.978787 
L 170.901698 137.061712 
L 171.348591 144.857547 
L 171.795484 129.764451 
L 172.242377 118.689802 
L 173.136163 144.444614 
L 173.583056 141.749991 
L 174.029949 148.508729 
L 174.476842 148.417739 
L 174.923735 146.167664 
L 175.370628 134.29658 
L 176.264414 149.211896 
L 176.711307 140.35956 
L 177.1582 145.605902 
L 177.605093 135.317333 
L 178.051986 158.831821 
L 178.498879 130.074009 
L 178.945772 135.61585 
L 179.392666 137.939348 
L 179.839559 137.710776 
L 180.286452 146.972864 
L 181.180238 128.824762 
L 182.074024 146.953832 
L 182.520917 144.969382 
L 182.96781 140.704182 
L 183.414703 142.802187 
L 183.861596 121.426748 
L 184.308489 130.347723 
L 184.755382 116.936877 
L 185.202275 122.002743 
L 185.649168 120.036944 
L 186.096061 130.965297 
L 186.542954 118.370504 
L 186.989847 126.764373 
L 187.43674 120.806812 
L 187.883633 118.256904 
L 188.330526 117.883908 
L 188.777419 118.078686 
L 189.224312 114.03242 
L 189.671205 128.894832 
L 190.118098 119.53233 
L 190.564992 125.698514 
L 191.011885 115.727319 
L 191.458778 118.17593 
L 191.905671 111.033981 
L 192.352564 119.494075 
L 192.799457 122.448173 
L 193.24635 117.065712 
L 193.693243 133.374174 
L 194.140136 114.651767 
L 194.587029 113.971607 
L 195.033922 117.607005 
L 195.480815 113.772741 
L 195.927708 120.542051 
L 196.374601 130.17707 
L 196.821494 129.655783 
L 197.268387 133.399215 
L 197.71528 122.75617 
L 198.162173 136.024894 
L 198.609066 123.799199 
L 199.055959 107.572557 
L 199.502852 126.38091 
L 199.949745 124.256727 
L 200.396638 118.538743 
L 200.843531 99.688869 
L 201.290425 109.842948 
L 201.737318 105.729486 
L 202.184211 125.301476 
L 202.631104 100.348309 
L 203.077997 125.984389 
L 203.52489 133.434805 
L 203.971783 123.238209 
L 204.418676 129.814098 
L 204.865569 122.67855 
L 205.312462 126.086697 
L 206.206248 128.530227 
L 206.653141 142.06089 
L 207.100034 132.780929 
L 207.546927 132.041888 
L 207.99382 127.812747 
L 208.440713 130.897741 
L 208.887606 116.084976 
L 209.334499 120.314506 
L 209.781392 109.452393 
L 210.228285 120.159084 
L 210.675178 107.86006 
L 211.122071 112.924769 
L 211.568964 120.704039 
L 212.015858 132.466333 
L 212.462751 129.697525 
L 212.909644 113.942898 
L 213.356537 110.879477 
L 213.80343 113.782379 
L 214.250323 122.349833 
L 214.697216 113.693405 
L 215.144109 121.791684 
L 215.591002 118.193525 
L 216.037895 110.977947 
L 216.931681 120.12652 
L 217.378574 110.942432 
L 217.825467 123.558293 
L 218.27236 102.818638 
L 218.719253 114.633698 
L 219.166146 122.482704 
L 219.613039 121.779549 
L 220.059932 118.519007 
L 220.506825 121.213182 
L 220.953718 117.207238 
L 221.400611 102.662722 
L 221.847504 102.959068 
L 222.294397 114.308927 
L 222.74129 107.460299 
L 223.188184 113.942627 
L 223.635077 124.453242 
L 224.08197 121.643869 
L 224.528863 128.124394 
L 224.975756 127.627758 
L 225.422649 133.053961 
L 225.869542 130.759365 
L 226.316435 126.034735 
L 226.763328 128.505171 
L 227.210221 123.155039 
L 227.657114 125.451218 
L 228.104007 130.886708 
L 228.5509 114.906296 
L 228.997793 135.296651 
L 229.444686 121.829064 
L 229.891579 119.326857 
L 230.785365 131.683817 
L 231.232258 126.393138 
L 231.679151 134.369606 
L 232.126044 134.015193 
L 232.572937 127.863916 
L 233.01983 123.567516 
L 233.466723 103.908417 
L 233.913617 127.96066 
L 234.36051 122.102784 
L 234.807403 117.886412 
L 235.254296 135.562884 
L 235.701189 113.672914 
L 236.148082 119.151506 
L 236.594975 118.202773 
L 237.041868 123.221586 
L 237.488761 124.381817 
L 237.935654 117.107666 
L 238.382547 120.245553 
L 238.82944 137.058367 
L 239.276333 124.019505 
L 239.723226 121.406688 
L 240.170119 136.554799 
L 240.617012 129.595372 
L 241.063905 117.585437 
L 241.510798 135.245555 
L 241.957691 129.696983 
L 242.404584 118.699601 
L 242.851477 131.53643 
L 243.29837 125.565592 
L 243.745263 125.457029 
L 244.192156 124.074005 
L 244.639049 138.392158 
L 245.532836 124.473619 
L 245.979729 129.951996 
L 246.426622 139.147537 
L 246.873515 126.29008 
L 247.320408 141.522145 
L 247.767301 140.186763 
L 248.214194 138.232202 
L 248.661087 146.973108 
L 249.10798 139.72264 
L 249.554873 121.733427 
L 250.001766 130.346627 
L 250.448659 131.318089 
L 250.895552 134.99841 
L 251.342445 132.418018 
L 251.789338 139.211374 
L 252.236231 136.265804 
L 252.683124 119.57607 
L 253.130017 119.161687 
L 253.57691 128.278226 
L 254.023803 129.062446 
L 254.470696 155.763557 
L 254.917589 144.322477 
L 255.364482 136.875157 
L 255.811376 115.441725 
L 256.258269 125.470931 
L 256.705162 115.957599 
L 257.152055 123.645012 
L 257.598948 111.246259 
L 258.492734 100.520103 
L 258.939627 112.685251 
L 259.38652 120.80641 
L 259.833413 149.197653 
L 260.280306 142.739211 
L 260.727199 130.491497 
L 261.174092 129.353672 
L 261.620985 124.16182 
L 262.067878 150.033477 
L 262.514771 121.313442 
L 263.408557 142.837943 
L 263.85545 139.299254 
L 264.302343 147.497086 
L 264.749236 138.453392 
L 265.196129 132.068036 
L 265.643022 149.879805 
L 266.089915 144.674103 
L 266.536808 146.912006 
L 266.983702 127.242794 
L 267.430595 138.48975 
L 267.877488 155.143304 
L 268.324381 160.114874 
L 268.771274 150.261245 
L 269.218167 159.553534 
L 270.111953 132.870235 
L 270.558846 157.602848 
L 271.005739 143.737789 
L 271.452632 150.190518 
L 271.899525 147.613571 
L 272.346418 137.444902 
L 272.793311 147.356415 
L 273.240204 150.297565 
L 273.687097 138.519653 
L 274.13399 137.971238 
L 274.580883 143.226125 
L 275.027776 137.687153 
L 275.474669 146.390862 
L 275.921562 142.139803 
L 276.368455 143.795272 
L 277.262241 134.269132 
L 277.709135 141.994525 
L 278.156028 139.367982 
L 278.602921 142.297098 
L 279.049814 144.412142 
L 279.496707 125.90286 
L 279.9436 148.16067 
L 280.390493 139.639084 
L 280.837386 138.563639 
L 281.284279 140.204492 
L 282.178065 151.487211 
L 282.624958 150.266777 
L 283.071851 167.394621 
L 283.518744 159.075922 
L 283.965637 161.001086 
L 284.41253 150.595197 
L 284.859423 161.554804 
L 285.306316 149.66752 
L 286.200102 156.720514 
L 286.646995 138.529335 
L 287.540781 153.640384 
L 287.987674 168.45503 
L 288.434568 157.145184 
L 288.881461 155.497958 
L 289.328354 146.384791 
L 289.775247 141.936088 
L 290.22214 144.087217 
L 290.669033 153.827603 
L 291.115926 139.026297 
L 291.562819 148.462215 
L 292.009712 140.363111 
L 292.456605 128.453622 
L 292.903498 145.261115 
L 293.350391 138.63441 
L 293.797284 128.841053 
L 294.244177 133.737005 
L 294.69107 140.830763 
L 295.137963 163.880302 
L 295.584856 151.441966 
L 296.031749 151.471904 
L 296.478642 149.711303 
L 296.925535 162.495419 
L 297.372428 149.822455 
L 297.819321 153.717815 
L 298.713107 142.612334 
L 299.16 142.895819 
L 299.606894 160.831661 
L 300.053787 158.656868 
L 300.50068 170.30041 
L 300.947573 144.788231 
L 301.394466 150.397761 
L 301.841359 147.254699 
L 302.288252 154.056151 
L 302.735145 154.472006 
L 303.182038 151.1346 
L 303.628931 153.413035 
L 304.075824 146.771175 
L 304.522717 149.823372 
L 304.96961 146.358273 
L 305.416503 127.588466 
L 305.863396 155.761573 
L 306.310289 133.124173 
L 306.757182 127.772759 
L 307.204075 128.759686 
L 307.650968 149.992591 
L 308.097861 144.576205 
L 308.544754 141.401791 
L 308.991647 141.538512 
L 309.43854 129.060451 
L 309.885433 123.511537 
L 310.332327 149.859615 
L 311.226113 137.855781 
L 311.673006 118.0785 
L 312.119899 110.883402 
L 312.566792 124.702801 
L 313.013685 113.514661 
L 313.460578 132.860117 
L 313.907471 126.275261 
L 314.354364 142.768092 
L 314.801257 165.912385 
L 315.24815 150.041024 
L 315.695043 164.053176 
L 316.141936 145.193191 
L 316.588829 148.533414 
L 317.035722 153.431169 
L 317.482615 137.673286 
L 317.929508 135.716191 
L 318.376401 142.091076 
L 318.823294 125.006016 
L 319.270187 138.668653 
L 319.71708 138.6933 
L 320.163973 142.400537 
L 320.610866 141.414323 
L 321.057759 151.445197 
L 321.504653 138.580396 
L 321.951546 135.896205 
L 322.398439 134.276732 
L 322.845332 137.039782 
L 323.292225 125.567557 
L 323.739118 128.027332 
L 324.186011 128.122906 
L 324.632904 114.123027 
L 325.079797 130.241492 
L 325.52669 136.131254 
L 325.973583 143.766097 
L 326.420476 127.126019 
L 326.867369 139.382949 
L 327.314262 136.447898 
L 328.208048 159.40561 
L 328.654941 125.372961 
L 329.101834 139.579202 
L 329.548727 121.314416 
L 329.99562 122.091019 
L 330.442513 111.314913 
L 330.889406 137.649388 
L 331.336299 143.397861 
L 331.783192 150.966451 
L 332.230086 162.090244 
L 332.676979 158.271212 
L 333.123872 137.245047 
L 333.570765 151.270116 
L 334.017658 141.975791 
L 334.464551 147.843545 
L 335.358337 125.86023 
L 335.80523 155.024191 
L 336.252123 138.983136 
L 337.145909 128.968599 
L 337.592802 137.337833 
L 338.039695 129.162219 
L 338.486588 126.369327 
L 338.933481 119.969707 
L 339.380374 135.488912 
L 339.827267 127.40624 
L 340.27416 127.911743 
L 340.721053 120.523815 
L 341.167946 122.810443 
L 341.614839 134.46271 
L 342.061732 116.519807 
L 342.508625 117.742377 
L 342.955518 128.288189 
L 343.402412 128.881237 
L 343.849305 135.979127 
L 344.296198 152.629853 
L 344.743091 130.789312 
L 345.189984 132.9613 
L 345.636877 141.876322 
L 346.08377 141.241928 
L 346.530663 127.860848 
L 346.977556 133.231219 
L 347.424449 129.986909 
L 347.871342 130.99411 
L 348.318235 136.282744 
L 348.765128 112.280788 
L 349.212021 115.228227 
L 349.658914 105.917777 
L 350.105807 99.72324 
L 350.5527 107.940305 
L 350.999593 105.111127 
L 351.446486 110.95966 
L 351.893379 107.95717 
L 352.340272 100.222699 
L 352.787165 112.946534 
L 353.234058 110.605345 
L 353.680951 110.395375 
L 354.127845 100.524709 
L 354.574738 102.660286 
L 355.021631 94.994362 
L 355.468524 108.63328 
L 355.915417 110.829568 
L 356.36231 113.793042 
L 356.809203 102.644744 
L 357.256096 113.715645 
L 357.702989 105.222084 
L 358.149882 112.71437 
L 358.596775 109.209761 
L 359.043668 119.050231 
L 359.490561 104.446858 
L 359.937454 116.456502 
L 360.384347 95.503024 
L 360.83124 106.170969 
L 361.278133 113.864037 
L 362.171919 126.135802 
L 362.618812 115.825227 
L 363.065705 126.122284 
L 363.512598 124.453309 
L 363.959491 114.869013 
L 364.406384 118.574188 
L 364.853278 107.058902 
L 365.300171 125.04867 
L 365.747064 120.132397 
L 366.193957 122.094968 
L 367.087743 109.415247 
L 367.534636 107.922809 
L 367.981529 116.864693 
L 368.428422 112.444594 
L 368.875315 117.185102 
L 369.322208 112.876188 
L 369.769101 119.121937 
L 370.215994 108.997896 
L 370.662887 121.279089 
L 371.10978 111.713069 
L 371.556673 108.289869 
L 372.003566 120.491227 
L 372.450459 119.235364 
L 372.897352 119.403446 
L 373.344245 113.487058 
L 373.791138 104.988732 
L 374.238031 127.297043 
L 374.684924 130.860117 
L 375.131817 118.247204 
L 375.57871 112.151289 
L 376.025604 129.361793 
L 376.472497 128.48164 
L 376.91939 122.807426 
L 377.366283 101.753592 
L 377.813176 105.014043 
L 378.260069 104.728386 
L 378.706962 112.591741 
L 379.153855 112.376471 
L 379.600748 107.934401 
L 380.047641 98.156219 
L 380.494534 107.846554 
L 380.941427 102.595535 
L 381.38832 110.970265 
L 381.835213 116.425008 
L 382.282106 99.9312 
L 382.728999 103.301746 
L 383.622785 93.14776 
L 384.069678 105.801742 
L 384.516571 102.435328 
L 384.963464 102.423913 
L 385.410357 106.486959 
L 385.85725 84.461673 
L 386.304143 77.250114 
L 386.751037 103.906278 
L 387.19793 91.403218 
L 387.644823 97.922987 
L 388.091716 92.330348 
L 388.538609 109.468848 
L 388.985502 99.566228 
L 389.432395 99.197088 
L 389.879288 106.931194 
L 390.326181 102.456031 
L 390.773074 95.050605 
L 391.219967 93.866144 
L 391.66686 86.895214 
L 392.113753 92.826172 
L 393.007539 95.865059 
L 393.454432 96.290198 
L 394.348218 98.842385 
L 394.795111 97.445732 
L 395.242004 98.004412 
L 395.688897 91.244097 
L 396.13579 90.120324 
L 396.582683 85.917001 
L 397.029576 87.364141 
L 397.476469 87.932479 
L 398.370256 106.275296 
L 398.817149 102.910826 
L 399.264042 111.76228 
L 399.710935 105.197352 
L 400.157828 103.250156 
L 400.604721 99.026541 
L 401.051614 97.752008 
L 401.498507 105.021182 
L 401.9454 93.992152 
L 402.392293 113.412967 
L 402.839186 99.181563 
L 403.286079 98.087528 
L 403.732972 112.746049 
L 404.179865 102.530585 
L 404.626758 109.542609 
L 405.073651 112.200401 
L 405.520544 105.427048 
L 405.967437 110.476196 
L 406.41433 105.784719 
L 406.861223 102.548738 
L 407.308116 96.467764 
L 407.755009 100.465543 
L 408.201902 110.689032 
L 408.648796 98.370104 
L 409.095689 102.443467 
L 409.542582 101.959205 
L 409.989475 105.383711 
L 410.436368 100.579069 
L 410.883261 99.982786 
L 411.330154 104.09454 
L 411.777047 101.584392 
L 412.22394 110.812761 
L 412.670833 106.766406 
L 413.117726 104.558322 
L 413.564619 103.547356 
L 414.011512 107.813634 
L 414.458405 102.777824 
L 414.905298 112.605042 
L 415.352191 109.855783 
L 416.245977 95.944937 
L 416.69287 107.500876 
L 417.139763 103.714027 
L 417.586656 104.798342 
L 418.033549 94.320497 
L 418.480442 91.814251 
L 418.927335 97.529849 
L 419.374228 106.014389 
L 419.821122 103.014517 
L 420.268015 101.144861 
L 420.714908 101.558061 
L 421.608694 104.637615 
L 422.055587 116.224314 
L 422.50248 109.947945 
L 422.949373 105.32658 
L 423.396266 109.947004 
L 423.843159 105.991462 
L 424.290052 107.590817 
L 424.736945 108.36076 
L 425.183838 112.901796 
L 425.630731 106.24264 
L 426.077624 106.127493 
L 426.524517 95.843432 
L 426.97141 97.334754 
L 427.418303 92.226693 
L 427.865196 95.595691 
L 428.312089 90.599778 
L 428.758982 103.685814 
L 429.205875 101.904347 
L 429.652768 108.574117 
L 430.099661 103.271331 
L 430.546555 101.1055 
L 430.993448 94.471673 
L 431.440341 98.43436 
L 431.887234 98.372375 
L 432.78102 118.465413 
L 433.227913 115.600547 
L 433.674806 120.173901 
L 434.568592 115.218411 
L 435.015485 111.455653 
L 435.462378 109.498648 
L 435.909271 112.732281 
L 436.356164 113.302346 
L 436.803057 112.378957 
L 437.24995 124.177904 
L 437.696843 101.670096 
L 438.143736 131.304301 
L 438.590629 108.416472 
L 439.037522 110.134989 
L 439.484415 100.75917 
L 440.378201 111.516212 
L 440.825094 108.695348 
L 441.271988 107.225688 
L 441.718881 102.654925 
L 442.165774 105.406439 
L 442.612667 118.056731 
L 443.05956 113.060132 
L 443.506453 113.462683 
L 443.953346 113.451969 
L 444.400239 116.329046 
L 444.847132 113.809334 
L 445.294025 119.564535 
L 445.740918 113.943745 
L 446.187811 118.306993 
L 446.634704 109.733504 
L 447.081597 115.773031 
L 447.52849 119.948225 
L 447.975383 120.019128 
L 448.422276 122.252638 
L 448.869169 118.102287 
L 449.316062 108.533922 
L 450.209848 113.674918 
L 450.656741 116.296505 
L 451.103634 102.313854 
L 451.99742 105.72165 
L 452.444314 105.460183 
L 452.891207 105.805069 
L 453.3381 104.083132 
L 453.784993 100.601933 
L 454.231886 99.193456 
L 454.678779 113.685362 
L 455.125672 116.820839 
L 455.572565 110.353956 
L 456.019458 114.187067 
L 456.466351 110.220625 
L 456.913244 101.655527 
L 457.360137 102.321681 
L 457.80703 106.00573 
L 458.253923 114.193316 
L 458.700816 109.446215 
L 459.147709 110.332075 
L 459.594602 124.657966 
L 460.041495 122.237277 
L 460.488388 111.2272 
L 460.935281 113.268726 
L 461.382174 113.082575 
L 461.829067 115.008395 
L 462.27596 114.496849 
L 462.722853 118.19822 
L 463.169747 115.136556 
L 463.61664 109.163417 
L 464.063533 107.074588 
L 464.510426 112.262569 
L 464.957319 110.672947 
L 465.404212 104.954366 
L 465.851105 104.756444 
L 466.297998 119.767915 
L 466.744891 114.399237 
L 467.191784 96.548556 
L 467.638677 98.324589 
L 468.08557 88.13606 
L 468.979356 76.237731 
L 469.426249 78.070054 
L 469.873142 86.851079 
L 470.320035 84.551501 
L 470.766928 85.637804 
L 471.213821 92.311113 
L 471.660714 89.701068 
L 472.107607 89.735294 
L 472.5545 97.8984 
L 473.001393 95.138155 
L 473.448286 91.013133 
L 473.895179 94.759245 
L 474.342073 82.501069 
L 474.788966 80.233493 
L 475.235859 83.983657 
L 475.682752 80.050456 
L 476.129645 85.161354 
L 476.576538 83.830402 
L 477.023431 84.10862 
L 477.470324 95.698515 
L 477.917217 78.211441 
L 478.811003 94.25887 
L 479.257896 91.362208 
L 479.704789 95.01133 
L 480.151682 91.594844 
L 480.598575 87.239963 
L 481.045468 88.775979 
L 481.492361 94.681388 
L 481.939254 88.338929 
L 482.386147 92.947403 
L 482.83304 83.16369 
L 483.279933 90.759462 
L 483.726826 84.484841 
L 484.173719 81.877655 
L 484.620612 85.326622 
L 485.067506 91.046753 
L 485.514399 87.523135 
L 485.961292 82.729436 
L 486.408185 83.290724 
L 487.301971 78.368771 
L 487.748864 82.148542 
L 488.195757 87.551496 
L 488.64265 83.829859 
L 489.089543 78.404712 
L 489.536436 81.075719 
L 490.430222 75.496197 
L 490.877115 76.116855 
L 491.324008 75.50574 
L 491.770901 76.577505 
L 492.217794 71.795837 
L 492.664687 73.661578 
L 493.11158 80.206455 
L 493.558473 81.581965 
L 494.005366 82.458369 
L 494.452259 77.430115 
L 494.899152 82.105172 
L 495.346045 85.17579 
L 495.792938 78.685115 
L 496.239832 78.221527 
L 496.686725 71.99925 
L 497.133618 74.919493 
L 497.580511 69.103838 
L 498.027404 69.350064 
L 498.474297 66.369329 
L 498.92119 76.743649 
L 499.368083 84.484074 
L 499.814976 62.651214 
L 500.261869 85.004583 
L 500.708762 85.443601 
L 501.155655 66.959079 
L 501.602548 62.201866 
L 502.049441 85.771322 
L 502.496334 97.475083 
L 502.943227 89.01329 
L 503.39012 78.009582 
L 503.837013 80.866001 
L 504.283906 77.325363 
L 504.730799 84.742584 
L 505.177692 80.728726 
L 505.624585 83.521439 
L 506.071478 87.382401 
L 506.518371 74.851929 
L 506.965265 71.830935 
L 507.412158 71.468506 
L 507.859051 76.361371 
L 508.305944 77.244309 
L 508.752837 79.110488 
L 509.19973 70.510952 
L 509.646623 66.841568 
L 510.093516 70.685078 
L 510.540409 72.492332 
L 510.987302 67.063981 
L 511.434195 75.710407 
L 511.881088 73.414835 
L 512.327981 78.100965 
L 512.774874 75.203422 
L 513.221767 69.015538 
L 513.66866 72.879551 
L 514.115553 78.619596 
L 514.562446 77.66088 
L 515.009339 79.375311 
L 515.456232 76.2893 
L 515.903125 76.185503 
L 516.350018 79.205381 
L 516.796911 77.953619 
L 517.243804 71.684805 
L 517.690698 73.819623 
L 518.137591 80.9509 
L 518.584484 73.475366 
L 519.031377 73.215917 
L 519.47827 77.322167 
L 519.925163 74.63938 
L 520.372056 84.93407 
L 520.818949 73.458618 
L 521.265842 74.596837 
L 521.712735 80.321772 
L 522.159628 75.81331 
L 522.606521 73.884583 
L 523.053414 80.735596 
L 523.500307 82.827861 
L 523.9472 74.429853 
L 524.394093 80.092178 
L 524.840986 75.370734 
L 525.287879 82.069069 
L 525.734772 84.11161 
L 526.181665 81.217631 
L 527.075451 68.993907 
L 527.969237 70.337124 
L 528.41613 74.721306 
L 528.41613 74.721306 
" clip-path="url(#p16519d6c85)" style="fill: none; stroke: #000000; stroke-width: 0.7; stroke-linecap: round"/>
   </g>
   <g id="line2d_17">
    <path d="M 103.420849 130.899116 
L 104.761528 130.630558 
L 105.208421 131.279116 
L 105.655314 132.28916 
L 106.995993 133.475931 
L 107.442886 134.017673 
L 108.783565 136.279159 
L 109.230458 136.83351 
L 110.124244 138.629549 
L 110.571137 139.809597 
L 111.01803 140.67212 
L 111.464923 140.944387 
L 111.911816 141.802591 
L 112.358709 141.86461 
L 113.252495 143.159551 
L 113.699388 143.437458 
L 115.040068 145.143246 
L 116.380747 148.319905 
L 116.82764 148.772491 
L 118.168319 150.955408 
L 119.062105 151.299947 
L 119.508998 152.179152 
L 120.402784 152.824817 
L 120.849677 153.27977 
L 121.29657 154.005069 
L 121.743463 154.445304 
L 123.084142 154.418683 
L 123.531035 154.382293 
L 123.977928 154.777017 
L 124.871715 154.674993 
L 125.318608 155.07401 
L 126.212394 155.58098 
L 126.659287 155.241711 
L 127.10618 155.163987 
L 127.553073 154.569739 
L 127.999966 153.751541 
L 128.446859 153.731067 
L 128.893752 153.45622 
L 129.787538 153.236998 
L 130.234431 152.99782 
L 130.681324 152.138017 
L 131.128217 151.91145 
L 131.57511 151.830873 
L 132.468896 151.94766 
L 133.362682 151.096812 
L 133.809575 150.989436 
L 134.256468 150.713463 
L 134.703361 150.81193 
L 136.044041 150.612162 
L 136.490934 150.949501 
L 136.937827 151.447533 
L 137.38472 151.43132 
L 138.278506 150.857894 
L 138.725399 150.912959 
L 139.172292 151.089963 
L 140.066078 151.68515 
L 140.512971 151.575448 
L 141.406757 151.752956 
L 141.85365 151.643003 
L 142.300543 151.678668 
L 143.194329 151.552173 
L 143.641222 151.216961 
L 144.088115 150.707653 
L 145.428794 150.157695 
L 145.875687 150.220049 
L 146.769474 150.908555 
L 147.216367 151.316012 
L 148.110153 150.899497 
L 148.557046 150.540374 
L 149.003939 150.460174 
L 149.450832 150.600962 
L 149.897725 150.271623 
L 150.344618 150.462579 
L 150.791511 150.293994 
L 151.238404 150.508679 
L 151.685297 150.332479 
L 152.579083 149.731519 
L 153.025976 149.932051 
L 153.919762 149.298959 
L 155.260441 147.053131 
L 156.154227 146.767762 
L 156.60112 146.248357 
L 157.048013 145.961057 
L 157.9418 145.155254 
L 158.388693 144.967931 
L 158.835586 144.594693 
L 159.282479 143.468151 
L 159.729372 143.040899 
L 160.176265 142.103418 
L 162.41073 138.791161 
L 163.304516 138.228392 
L 163.751409 137.552483 
L 164.645195 136.683847 
L 165.538981 136.16365 
L 165.985874 136.22013 
L 166.432767 136.540057 
L 166.87966 136.642628 
L 167.326553 136.427773 
L 167.773446 136.3602 
L 168.220339 136.055513 
L 169.561019 133.531255 
L 170.454805 132.884397 
L 171.348591 132.84855 
L 172.68927 131.977525 
L 173.136163 131.934772 
L 173.583056 131.716946 
L 174.029949 131.717931 
L 174.923735 132.10265 
L 175.817521 131.827482 
L 176.711307 132.110144 
L 177.1582 132.062224 
L 177.605093 132.143726 
L 178.051986 132.431844 
L 178.498879 132.020469 
L 179.839559 132.067763 
L 180.286452 132.428341 
L 180.733345 132.524439 
L 181.180238 132.253919 
L 182.96781 134.17877 
L 183.414703 134.810787 
L 184.308489 135.024933 
L 184.755382 134.704349 
L 185.649168 134.563799 
L 186.096061 134.97601 
L 186.542954 134.848832 
L 186.989847 134.888588 
L 188.330526 134.141578 
L 189.224312 133.280483 
L 189.671205 133.313985 
L 190.564992 132.957711 
L 191.458778 132.862937 
L 192.799457 132.07912 
L 193.24635 131.6792 
L 195.033922 130.738827 
L 195.480815 130.125389 
L 196.821494 128.959358 
L 197.71528 128.473181 
L 198.162173 128.344596 
L 199.502852 126.796102 
L 199.949745 126.57489 
L 200.843531 125.161326 
L 202.184211 123.753485 
L 202.631104 122.820993 
L 203.077997 122.599107 
L 203.52489 122.691307 
L 204.418676 122.046395 
L 205.312462 121.308229 
L 205.759355 120.999753 
L 206.653141 121.376086 
L 207.546927 121.89375 
L 207.99382 122.049266 
L 208.887606 122.002204 
L 211.122071 121.380607 
L 212.462751 121.788773 
L 212.909644 121.553661 
L 213.80343 121.368833 
L 214.250323 121.59515 
L 215.144109 121.466007 
L 215.591002 121.488563 
L 216.037895 121.040638 
L 217.378574 121.044426 
L 217.825467 121.240137 
L 218.719253 120.574801 
L 220.059932 120.114203 
L 220.506825 119.817969 
L 221.400611 119.587933 
L 221.847504 119.119496 
L 222.74129 118.698971 
L 224.08197 119.59454 
L 224.528863 119.650998 
L 224.975756 120.196587 
L 225.422649 120.337978 
L 226.316435 120.3404 
L 227.657114 120.311042 
L 228.104007 120.381208 
L 228.5509 120.10873 
L 229.444686 119.754407 
L 229.891579 119.500107 
L 230.785365 119.479227 
L 231.679151 119.966492 
L 232.126044 120.457748 
L 232.572937 120.611845 
L 233.01983 120.925994 
L 233.466723 120.745667 
L 233.913617 120.890799 
L 234.807403 120.447306 
L 235.254296 120.879706 
L 238.382547 121.366017 
L 238.82944 121.800168 
L 239.276333 121.878028 
L 240.170119 122.347243 
L 240.617012 122.882778 
L 241.063905 122.941813 
L 241.957691 123.355419 
L 242.404584 123.35903 
L 243.29837 123.732662 
L 245.085943 125.584797 
L 246.426622 126.255465 
L 246.873515 126.218779 
L 247.320408 126.496667 
L 248.214194 126.78878 
L 248.661087 127.207547 
L 249.10798 127.431896 
L 249.554873 127.403464 
L 250.448659 127.51 
L 250.895552 127.911842 
L 251.342445 127.85427 
L 252.236231 128.540695 
L 252.683124 128.412563 
L 253.130017 128.16212 
L 253.57691 128.199822 
L 254.023803 128.093679 
L 254.917589 128.857817 
L 255.811376 129.354636 
L 257.152055 129.29711 
L 257.598948 128.810777 
L 258.045841 128.640897 
L 258.492734 128.268269 
L 259.38652 128.109615 
L 260.280306 129.118562 
L 260.727199 129.323481 
L 261.174092 129.169387 
L 261.620985 129.172234 
L 262.067878 129.744769 
L 262.514771 129.439942 
L 262.961664 129.476665 
L 263.408557 129.981715 
L 263.85545 130.062789 
L 264.749236 130.813867 
L 265.196129 130.824499 
L 266.536808 132.151885 
L 266.983702 131.928898 
L 267.430595 132.057202 
L 268.324381 133.273853 
L 268.771274 133.496127 
L 269.218167 134.161396 
L 269.66506 134.282738 
L 270.111953 134.136408 
L 270.558846 134.52382 
L 271.005739 134.459114 
L 271.452632 134.668472 
L 271.899525 135.186075 
L 272.346418 135.32804 
L 273.240204 135.95479 
L 273.687097 136.076822 
L 274.13399 136.05202 
L 274.580883 136.191226 
L 275.027776 136.553448 
L 275.474669 137.098031 
L 276.368455 137.669919 
L 276.815348 137.327692 
L 277.262241 137.126625 
L 277.709135 137.229012 
L 279.049814 138.613152 
L 279.496707 138.658309 
L 281.284279 141.397056 
L 281.731172 141.909618 
L 282.624958 142.105961 
L 283.965637 144.175253 
L 284.41253 144.186488 
L 284.859423 144.991315 
L 285.306316 145.356035 
L 285.753209 145.570941 
L 286.200102 145.919366 
L 286.646995 145.740011 
L 287.093888 145.883849 
L 287.987674 146.6868 
L 289.775247 147.559708 
L 291.562819 146.766315 
L 293.350391 146.184558 
L 294.244177 145.480037 
L 294.69107 145.547755 
L 295.137963 145.878232 
L 295.584856 145.90112 
L 297.819321 147.169598 
L 298.266214 147.281369 
L 299.16 147.342583 
L 299.606894 147.873834 
L 300.053787 148.207081 
L 300.50068 148.825729 
L 301.394466 148.995264 
L 301.841359 149.422301 
L 302.288252 149.540211 
L 303.628931 150.352459 
L 304.522717 150.325916 
L 304.96961 150.247746 
L 305.416503 149.451623 
L 305.863396 149.385336 
L 307.204075 147.715446 
L 307.650968 147.721948 
L 308.097861 147.541808 
L 308.544754 147.235433 
L 308.991647 147.295617 
L 309.43854 146.96392 
L 309.885433 146.361343 
L 311.673006 144.790089 
L 312.119899 144.169035 
L 312.566792 143.781347 
L 313.013685 142.975088 
L 313.460578 142.851764 
L 313.907471 142.408025 
L 314.354364 142.456125 
L 314.801257 143.2053 
L 315.24815 143.300898 
L 315.695043 143.809274 
L 317.035722 144.684253 
L 317.482615 144.160112 
L 318.823294 143.163874 
L 319.270187 142.687339 
L 320.610866 142.112129 
L 321.057759 142.288787 
L 321.504653 142.202478 
L 324.186011 139.336496 
L 324.632904 138.537833 
L 325.079797 138.053223 
L 326.867369 136.958506 
L 327.314262 136.760298 
L 327.761155 137.14932 
L 328.208048 137.2222 
L 328.654941 137.067176 
L 329.101834 137.303305 
L 329.548727 137.1544 
L 330.442513 135.931142 
L 331.336299 135.893281 
L 331.783192 136.331401 
L 332.230086 137.102975 
L 332.676979 137.271207 
L 333.123872 137.153581 
L 333.570765 137.421868 
L 334.017658 137.899814 
L 334.464551 138.639017 
L 335.358337 139.124316 
L 335.80523 139.567597 
L 336.252123 139.821755 
L 336.699016 139.644873 
L 337.145909 138.905998 
L 337.592802 138.651934 
L 338.039695 137.954115 
L 338.486588 137.577637 
L 338.933481 137.006363 
L 339.380374 136.647518 
L 340.27416 136.286088 
L 340.721053 135.854743 
L 341.614839 135.726713 
L 343.402412 134.076278 
L 343.849305 134.024252 
L 344.296198 134.358925 
L 345.189984 134.207607 
L 346.08377 134.798075 
L 346.530663 134.792833 
L 346.977556 135.174997 
L 347.871342 135.067163 
L 348.318235 134.917496 
L 348.765128 134.620591 
L 349.658914 133.526894 
L 350.5527 131.551262 
L 350.999593 131.146025 
L 351.446486 130.573635 
L 351.893379 130.30649 
L 352.340272 129.869123 
L 352.787165 129.901756 
L 353.680951 128.700825 
L 354.574738 126.503391 
L 355.021631 125.237854 
L 355.468524 124.665619 
L 355.915417 123.856808 
L 356.36231 123.293153 
L 356.809203 122.389177 
L 357.702989 121.518283 
L 358.149882 120.672087 
L 358.596775 120.076619 
L 359.043668 119.779143 
L 360.83124 117.793931 
L 361.278133 117.671817 
L 361.725026 117.350115 
L 362.171919 117.324706 
L 362.618812 117.082976 
L 363.512598 117.227802 
L 363.959491 116.835929 
L 364.406384 116.877016 
L 364.853278 116.663347 
L 365.747064 116.423579 
L 366.193957 116.145896 
L 366.64085 115.414385 
L 367.981529 113.985902 
L 368.428422 113.409955 
L 368.875315 113.19644 
L 369.322208 112.789339 
L 369.769101 112.57204 
L 370.662887 111.832043 
L 371.10978 111.820688 
L 371.556673 111.681921 
L 373.344245 112.760414 
L 373.791138 112.640996 
L 374.238031 113.027793 
L 374.684924 113.640541 
L 375.57871 113.777474 
L 376.025604 114.156802 
L 376.91939 115.118883 
L 377.366283 115.254068 
L 378.706962 115.035634 
L 379.153855 115.230268 
L 381.38832 114.582086 
L 381.835213 114.821649 
L 382.282106 114.491143 
L 382.728999 114.647117 
L 383.175892 114.492925 
L 384.516571 113.332549 
L 385.410357 112.671816 
L 386.304143 111.119606 
L 387.19793 110.513134 
L 388.091716 109.414579 
L 389.432395 108.627932 
L 389.879288 108.6081 
L 390.773074 107.972047 
L 393.007539 105.6606 
L 394.348218 104.703482 
L 396.13579 103.097481 
L 397.476469 100.793666 
L 397.923363 100.484275 
L 398.817149 99.511129 
L 399.264042 99.290226 
L 400.157828 99.323823 
L 400.604721 99.209787 
L 401.051614 98.912992 
L 401.498507 98.765886 
L 401.9454 98.487041 
L 402.392293 98.792176 
L 403.286079 98.528716 
L 403.732972 98.564232 
L 404.179865 98.286343 
L 406.41433 99.142087 
L 406.861223 99.144355 
L 407.755009 98.904804 
L 408.648796 99.85175 
L 409.095689 99.822494 
L 410.436368 100.347803 
L 410.883261 100.158082 
L 413.117726 100.650387 
L 413.564619 100.844011 
L 414.011512 101.26238 
L 414.458405 101.461413 
L 415.352191 102.104622 
L 415.799084 102.218555 
L 416.245977 102.187341 
L 417.586656 102.621755 
L 418.480442 102.717162 
L 418.927335 102.949419 
L 419.821122 103.624064 
L 420.268015 103.713327 
L 421.608694 103.479686 
L 422.50248 103.834181 
L 422.949373 103.960182 
L 423.396266 104.204082 
L 423.843159 104.223488 
L 424.290052 104.495461 
L 424.736945 104.394417 
L 425.630731 104.831924 
L 426.97141 104.321653 
L 427.418303 103.922178 
L 427.865196 103.725551 
L 428.312089 103.328023 
L 429.205875 103.273157 
L 429.652768 103.515284 
L 430.099661 103.5714 
L 430.993448 103.301761 
L 431.887234 103.149842 
L 432.334127 103.1985 
L 434.121699 104.509856 
L 435.909271 104.974259 
L 436.803057 105.276056 
L 437.24995 105.507514 
L 437.696843 105.3438 
L 438.143736 105.930149 
L 438.590629 106.17958 
L 439.484415 106.173165 
L 439.931308 106.190473 
L 440.825094 106.872009 
L 441.271988 107.065926 
L 441.718881 106.998737 
L 442.165774 107.046575 
L 443.05956 107.614854 
L 443.953346 107.99898 
L 444.847132 108.078303 
L 445.294025 108.363062 
L 445.740918 108.442997 
L 446.187811 108.689307 
L 447.081597 108.880406 
L 447.52849 109.021335 
L 448.422276 109.619368 
L 448.869169 110.064545 
L 449.316062 110.288528 
L 450.656741 111.547573 
L 451.99742 111.508207 
L 452.891207 111.645976 
L 453.3381 111.838205 
L 455.125672 111.982462 
L 456.466351 111.61083 
L 457.360137 111.156893 
L 458.700816 111.039133 
L 459.594602 111.007797 
L 460.041495 111.41914 
L 460.488388 111.017598 
L 461.382174 111.173595 
L 462.27596 111.635241 
L 463.61664 111.93646 
L 464.510426 112.161976 
L 465.851105 111.67806 
L 466.297998 111.804379 
L 466.744891 111.765783 
L 467.638677 110.995769 
L 468.08557 110.479615 
L 470.766928 106.220914 
L 471.660714 105.328434 
L 473.001393 104.156382 
L 473.895179 103.742343 
L 476.129645 101.547504 
L 476.576538 101.240243 
L 478.36411 99.028746 
L 479.257896 98.503645 
L 479.704789 98.357438 
L 480.151682 98.06922 
L 481.045468 97.116748 
L 481.492361 96.803734 
L 482.386147 95.491556 
L 487.748864 88.833989 
L 488.195757 88.48989 
L 489.089543 87.051239 
L 490.430222 86.088046 
L 491.324008 85.960737 
L 491.770901 85.930886 
L 492.664687 85.411982 
L 493.558473 85.088772 
L 494.452259 84.697815 
L 495.346045 84.182703 
L 498.92119 82.259892 
L 499.368083 82.267401 
L 499.814976 81.606455 
L 500.261869 81.742318 
L 500.708762 81.722114 
L 501.602548 80.592912 
L 502.049441 80.408111 
L 502.943227 80.561183 
L 504.730799 79.685179 
L 506.518371 79.409156 
L 508.305944 78.41474 
L 508.752837 78.331135 
L 510.093516 77.662572 
L 510.987302 77.026071 
L 514.115553 76.65587 
L 515.009339 76.887446 
L 517.243804 76.438176 
L 517.690698 76.211053 
L 518.137591 76.256369 
L 518.584484 76.161446 
L 519.925163 76.344543 
L 520.372056 76.656223 
L 520.818949 76.798009 
L 521.712735 76.671827 
L 522.159628 76.935069 
L 522.606521 76.712669 
L 523.053414 76.618509 
L 523.9472 77.180444 
L 524.394093 77.066861 
L 524.840986 76.624774 
L 525.287879 76.48589 
L 526.181665 76.614963 
L 526.628558 76.580901 
L 527.522344 76.04557 
L 528.41613 75.528662 
L 528.41613 75.528662 
" clip-path="url(#p16519d6c85)" style="fill: none; stroke-dasharray: 2.96,1.28; stroke-dashoffset: 0; stroke: #ff0000; stroke-width: 0.8"/>
   </g>
   <g id="patch_3">
    <path d="M 59.178438 200.648125 
L 59.178438 55.609187 
" style="fill: none; stroke: #ffffff; stroke-width: 1.25; stroke-linejoin: miter; stroke-linecap: square"/>
   </g>
   <g id="patch_4">
    <path d="M 550.760783 200.648125 
L 550.760783 55.609187 
" style="fill: none; stroke: #ffffff; stroke-width: 1.25; stroke-linejoin: miter; stroke-linecap: square"/>
   </g>
   <g id="patch_5">
    <path d="M 59.178438 200.648125 
L 550.760783 200.648125 
" style="fill: none; stroke: #ffffff; stroke-width: 1.25; stroke-linejoin: miter; stroke-linecap: square"/>
   </g>
   <g id="patch_6">
    <path d="M 59.178438 55.609187 
L 550.760783 55.609187 
" style="fill: none; stroke: #ffffff; stroke-width: 1.25; stroke-linejoin: miter; stroke-linecap: square"/>
   </g>
   <g id="legend_1">
    <g id="patch_7">
     <path d="M 478.921095 196.148125 
L 544.460783 196.148125 
Q 546.260783 196.148125 546.260783 194.348125 
L 546.260783 168.8275 
Q 546.260783 167.0275 544.460783 167.0275 
L 478.921095 167.0275 
Q 477.121095 167.0275 477.121095 168.8275 
L 477.121095 194.348125 
Q 477.121095 196.148125 478.921095 196.148125 
z
" style="fill: #eaeaf2; opacity: 0.8; stroke: #cccccc; stroke-linejoin: miter"/>
    </g>
    <g id="line2d_18">
     <path d="M 480.721095 174.316094 
L 489.721095 174.316094 
L 498.721095 174.316094 
" style="fill: none; stroke: #000000; stroke-width: 0.7; stroke-linecap: round"/>
    </g>
    <g id="text_18">
     <!-- TOTAL -->
     <g style="fill: #262626" transform="translate(505.921095 177.466094)scale(0.09 -0.09)">
      <defs>
       <path id="DejaVuSans-54" d="M -19 4666 
L 3928 4666 
L 3928 4134 
L 2272 4134 
L 2272 0 
L 1638 0 
L 1638 4134 
L -19 4134 
L -19 4666 
z
" transform="scale(0.015625)"/>
       <path id="DejaVuSans-4f" d="M 2522 4238 
Q 1834 4238 1429 3725 
Q 1025 3213 1025 2328 
Q 1025 1447 1429 934 
Q 1834 422 2522 422 
Q 3209 422 3611 934 
Q 4013 1447 4013 2328 
Q 4013 3213 3611 3725 
Q 3209 4238 2522 4238 
z
M 2522 4750 
Q 3503 4750 4090 4092 
Q 4678 3434 4678 2328 
Q 4678 1225 4090 567 
Q 3503 -91 2522 -91 
Q 1538 -91 948 565 
Q 359 1222 359 2328 
Q 359 3434 948 4092 
Q 1538 4750 2522 4750 
z
" transform="scale(0.015625)"/>
       <path id="DejaVuSans-41" d="M 2188 4044 
L 1331 1722 
L 3047 1722 
L 2188 4044 
z
M 1831 4666 
L 2547 4666 
L 4325 0 
L 3669 0 
L 3244 1197 
L 1141 1197 
L 716 0 
L 50 0 
L 1831 4666 
z
" transform="scale(0.015625)"/>
       <path id="DejaVuSans-4c" d="M 628 4666 
L 1259 4666 
L 1259 531 
L 3531 531 
L 3531 0 
L 628 0 
L 628 4666 
z
" transform="scale(0.015625)"/>
      </defs>
      <use xlink:href="#DejaVuSans-54"/>
      <use xlink:href="#DejaVuSans-4f" x="61.083984"/>
      <use xlink:href="#DejaVuSans-54" x="139.794922"/>
      <use xlink:href="#DejaVuSans-41" x="193.128906"/>
      <use xlink:href="#DejaVuSans-4c" x="261.537109"/>
     </g>
    </g>
    <g id="line2d_19">
     <path d="M 480.721095 187.526406 
L 489.721095 187.526406 
L 498.721095 187.526406 
" style="fill: none; stroke-dasharray: 2.96,1.28; stroke-dashoffset: 0; stroke: #ff0000; stroke-width: 0.8"/>
    </g>
    <g id="text_19">
     <!-- Mov. Av. -->
     <g style="fill: #262626" transform="translate(505.921095 190.676406)scale(0.09 -0.09)">
      <defs>
       <path id="DejaVuSans-4d" d="M 628 4666 
L 1569 4666 
L 2759 1491 
L 3956 4666 
L 4897 4666 
L 4897 0 
L 4281 0 
L 4281 4097 
L 3078 897 
L 2444 897 
L 1241 4097 
L 1241 0 
L 628 0 
L 628 4666 
z
" transform="scale(0.015625)"/>
       <path id="DejaVuSans-76" d="M 191 3500 
L 800 3500 
L 1894 563 
L 2988 3500 
L 3597 3500 
L 2284 0 
L 1503 0 
L 191 3500 
z
" transform="scale(0.015625)"/>
       <path id="DejaVuSans-2e" d="M 684 794 
L 1344 794 
L 1344 0 
L 684 0 
L 684 794 
z
" transform="scale(0.015625)"/>
      </defs>
      <use xlink:href="#DejaVuSans-4d"/>
      <use xlink:href="#DejaVuSans-6f" x="86.279297"/>
      <use xlink:href="#DejaVuSans-76" x="147.460938"/>
      <use xlink:href="#DejaVuSans-2e" x="198.890625"/>
      <use xlink:href="#DejaVuSans-20" x="230.677734"/>
      <use xlink:href="#DejaVuSans-41" x="262.464844"/>
      <use xlink:href="#DejaVuSans-76" x="324.998047"/>
      <use xlink:href="#DejaVuSans-2e" x="376.427734"/>
     </g>
    </g>
   </g>
  </g>
  <g id="text_20">
   <!-- Energetic Components -->
   <g style="fill: #262626" transform="translate(208.277656 15.605813)scale(0.14 -0.14)">
    <defs>
     <path id="DejaVuSans-74" d="M 1172 4494 
L 1172 3500 
L 2356 3500 
L 2356 3053 
L 1172 3053 
L 1172 1153 
Q 1172 725 1289 603 
Q 1406 481 1766 481 
L 2356 481 
L 2356 0 
L 1766 0 
Q 1100 0 847 248 
Q 594 497 594 1153 
L 594 3053 
L 172 3053 
L 172 3500 
L 594 3500 
L 594 4494 
L 1172 4494 
z
" transform="scale(0.015625)"/>
     <path id="DejaVuSans-69" d="M 603 3500 
L 1178 3500 
L 1178 0 
L 603 0 
L 603 3500 
z
M 603 4863 
L 1178 4863 
L 1178 4134 
L 603 4134 
L 603 4863 
z
" transform="scale(0.015625)"/>
     <path id="DejaVuSans-43" d="M 4122 4306 
L 4122 3641 
Q 3803 3938 3442 4084 
Q 3081 4231 2675 4231 
Q 1875 4231 1450 3742 
Q 1025 3253 1025 2328 
Q 1025 1406 1450 917 
Q 1875 428 2675 428 
Q 3081 428 3442 575 
Q 3803 722 4122 1019 
L 4122 359 
Q 3791 134 3420 21 
Q 3050 -91 2638 -91 
Q 1578 -91 968 557 
Q 359 1206 359 2328 
Q 359 3453 968 4101 
Q 1578 4750 2638 4750 
Q 3056 4750 3426 4639 
Q 3797 4528 4122 4306 
z
" transform="scale(0.015625)"/>
     <path id="DejaVuSans-70" d="M 1159 525 
L 1159 -1331 
L 581 -1331 
L 581 3500 
L 1159 3500 
L 1159 2969 
Q 1341 3281 1617 3432 
Q 1894 3584 2278 3584 
Q 2916 3584 3314 3078 
Q 3713 2572 3713 1747 
Q 3713 922 3314 415 
Q 2916 -91 2278 -91 
Q 1894 -91 1617 61 
Q 1341 213 1159 525 
z
M 3116 1747 
Q 3116 2381 2855 2742 
Q 2594 3103 2138 3103 
Q 1681 3103 1420 2742 
Q 1159 2381 1159 1747 
Q 1159 1113 1420 752 
Q 1681 391 2138 391 
Q 2594 391 2855 752 
Q 3116 1113 3116 1747 
z
" transform="scale(0.015625)"/>
    </defs>
    <use xlink:href="#DejaVuSans-45"/>
    <use xlink:href="#DejaVuSans-6e" x="63.183594"/>
    <use xlink:href="#DejaVuSans-65" x="126.5625"/>
    <use xlink:href="#DejaVuSans-72" x="188.085938"/>
    <use xlink:href="#DejaVuSans-67" x="227.449219"/>
    <use xlink:href="#DejaVuSans-65" x="290.925781"/>
    <use xlink:href="#DejaVuSans-74" x="352.449219"/>
    <use xlink:href="#DejaVuSans-69" x="391.658203"/>
    <use xlink:href="#DejaVuSans-63" x="419.441406"/>
    <use xlink:href="#DejaVuSans-20" x="474.421875"/>
    <use xlink:href="#DejaVuSans-43" x="506.208984"/>
    <use xlink:href="#DejaVuSans-6f" x="576.033203"/>
    <use xlink:href="#DejaVuSans-6d" x="637.214844"/>
    <use xlink:href="#DejaVuSans-70" x="734.626953"/>
    <use xlink:href="#DejaVuSans-6f" x="798.103516"/>
    <use xlink:href="#DejaVuSans-6e" x="859.285156"/>
    <use xlink:href="#DejaVuSans-65" x="922.664062"/>
    <use xlink:href="#DejaVuSans-6e" x="984.1875"/>
    <use xlink:href="#DejaVuSans-74" x="1047.566406"/>
    <use xlink:href="#DejaVuSans-73" x="1086.775391"/>
   </g>
   <!-- System-1 | Normal | GB | Delta | TOTAL -->
   <g style="fill: #262626" transform="translate(151.249531 31.35625)scale(0.14 -0.14)">
    <defs>
     <path id="DejaVuSans-53" d="M 3425 4513 
L 3425 3897 
Q 3066 4069 2747 4153 
Q 2428 4238 2131 4238 
Q 1616 4238 1336 4038 
Q 1056 3838 1056 3469 
Q 1056 3159 1242 3001 
Q 1428 2844 1947 2747 
L 2328 2669 
Q 3034 2534 3370 2195 
Q 3706 1856 3706 1288 
Q 3706 609 3251 259 
Q 2797 -91 1919 -91 
Q 1588 -91 1214 -16 
Q 841 59 441 206 
L 441 856 
Q 825 641 1194 531 
Q 1563 422 1919 422 
Q 2459 422 2753 634 
Q 3047 847 3047 1241 
Q 3047 1584 2836 1778 
Q 2625 1972 2144 2069 
L 1759 2144 
Q 1053 2284 737 2584 
Q 422 2884 422 3419 
Q 422 4038 858 4394 
Q 1294 4750 2059 4750 
Q 2388 4750 2728 4690 
Q 3069 4631 3425 4513 
z
" transform="scale(0.015625)"/>
     <path id="DejaVuSans-2d" d="M 313 2009 
L 1997 2009 
L 1997 1497 
L 313 1497 
L 313 2009 
z
" transform="scale(0.015625)"/>
     <path id="DejaVuSans-7c" d="M 1344 4891 
L 1344 -1509 
L 813 -1509 
L 813 4891 
L 1344 4891 
z
" transform="scale(0.015625)"/>
     <path id="DejaVuSans-4e" d="M 628 4666 
L 1478 4666 
L 3547 763 
L 3547 4666 
L 4159 4666 
L 4159 0 
L 3309 0 
L 1241 3903 
L 1241 0 
L 628 0 
L 628 4666 
z
" transform="scale(0.015625)"/>
     <path id="DejaVuSans-47" d="M 3809 666 
L 3809 1919 
L 2778 1919 
L 2778 2438 
L 4434 2438 
L 4434 434 
Q 4069 175 3628 42 
Q 3188 -91 2688 -91 
Q 1594 -91 976 548 
Q 359 1188 359 2328 
Q 359 3472 976 4111 
Q 1594 4750 2688 4750 
Q 3144 4750 3555 4637 
Q 3966 4525 4313 4306 
L 4313 3634 
Q 3963 3931 3569 4081 
Q 3175 4231 2741 4231 
Q 1884 4231 1454 3753 
Q 1025 3275 1025 2328 
Q 1025 1384 1454 906 
Q 1884 428 2741 428 
Q 3075 428 3337 486 
Q 3600 544 3809 666 
z
" transform="scale(0.015625)"/>
     <path id="DejaVuSans-42" d="M 1259 2228 
L 1259 519 
L 2272 519 
Q 2781 519 3026 730 
Q 3272 941 3272 1375 
Q 3272 1813 3026 2020 
Q 2781 2228 2272 2228 
L 1259 2228 
z
M 1259 4147 
L 1259 2741 
L 2194 2741 
Q 2656 2741 2882 2914 
Q 3109 3088 3109 3444 
Q 3109 3797 2882 3972 
Q 2656 4147 2194 4147 
L 1259 4147 
z
M 628 4666 
L 2241 4666 
Q 2963 4666 3353 4366 
Q 3744 4066 3744 3513 
Q 3744 3084 3544 2831 
Q 3344 2578 2956 2516 
Q 3422 2416 3680 2098 
Q 3938 1781 3938 1306 
Q 3938 681 3513 340 
Q 3088 0 2303 0 
L 628 0 
L 628 4666 
z
" transform="scale(0.015625)"/>
     <path id="DejaVuSans-44" d="M 1259 4147 
L 1259 519 
L 2022 519 
Q 2988 519 3436 956 
Q 3884 1394 3884 2338 
Q 3884 3275 3436 3711 
Q 2988 4147 2022 4147 
L 1259 4147 
z
M 628 4666 
L 1925 4666 
Q 3281 4666 3915 4102 
Q 4550 3538 4550 2338 
Q 4550 1131 3912 565 
Q 3275 0 1925 0 
L 628 0 
L 628 4666 
z
" transform="scale(0.015625)"/>
    </defs>
    <use xlink:href="#DejaVuSans-53"/>
    <use xlink:href="#DejaVuSans-79" x="63.476562"/>
    <use xlink:href="#DejaVuSans-73" x="122.65625"/>
    <use xlink:href="#DejaVuSans-74" x="174.755859"/>
    <use xlink:href="#DejaVuSans-65" x="213.964844"/>
    <use xlink:href="#DejaVuSans-6d" x="275.488281"/>
    <use xlink:href="#DejaVuSans-2d" x="372.900391"/>
    <use xlink:href="#DejaVuSans-31" x="408.984375"/>
    <use xlink:href="#DejaVuSans-20" x="472.607422"/>
    <use xlink:href="#DejaVuSans-7c" x="504.394531"/>
    <use xlink:href="#DejaVuSans-20" x="538.085938"/>
    <use xlink:href="#DejaVuSans-4e" x="569.873047"/>
    <use xlink:href="#DejaVuSans-6f" x="644.677734"/>
    <use xlink:href="#DejaVuSans-72" x="705.859375"/>
    <use xlink:href="#DejaVuSans-6d" x="745.222656"/>
    <use xlink:href="#DejaVuSans-61" x="842.634766"/>
    <use xlink:href="#DejaVuSans-6c" x="903.914062"/>
    <use xlink:href="#DejaVuSans-20" x="931.697266"/>
    <use xlink:href="#DejaVuSans-7c" x="963.484375"/>
    <use xlink:href="#DejaVuSans-20" x="997.175781"/>
    <use xlink:href="#DejaVuSans-47" x="1028.962891"/>
    <use xlink:href="#DejaVuSans-42" x="1106.453125"/>
    <use xlink:href="#DejaVuSans-20" x="1175.056641"/>
    <use xlink:href="#DejaVuSans-7c" x="1206.84375"/>
    <use xlink:href="#DejaVuSans-20" x="1240.535156"/>
    <use xlink:href="#DejaVuSans-44" x="1272.322266"/>
    <use xlink:href="#DejaVuSans-65" x="1349.324219"/>
    <use xlink:href="#DejaVuSans-6c" x="1410.847656"/>
    <use xlink:href="#DejaVuSans-74" x="1438.630859"/>
    <use xlink:href="#DejaVuSans-61" x="1477.839844"/>
    <use xlink:href="#DejaVuSans-20" x="1539.119141"/>
    <use xlink:href="#DejaVuSans-7c" x="1570.90625"/>
    <use xlink:href="#DejaVuSans-20" x="1604.597656"/>
    <use xlink:href="#DejaVuSans-54" x="1636.384766"/>
    <use xlink:href="#DejaVuSans-4f" x="1697.46875"/>
    <use xlink:href="#DejaVuSans-54" x="1776.179688"/>
    <use xlink:href="#DejaVuSans-41" x="1829.513672"/>
    <use xlink:href="#DejaVuSans-4c" x="1897.921875"/>
   </g>
  </g>
 </g>
 <defs>
  <clipPath id="p16519d6c85">
   <rect x="59.178438" y="55.609187" width="491.582345" height="145.038938"/>
  </clipPath>
 </defs>
</svg>
