<?xml version="1.0" encoding="utf-8" standalone="no"?>
<!DOCTYPE svg PUBLIC "-//W3C//DTD SVG 1.1//EN"
  "http://www.w3.org/Graphics/SVG/1.1/DTD/svg11.dtd">
<svg xmlns:xlink="http://www.w3.org/1999/xlink" width="360pt" height="248.4pt" viewBox="0 0 360 248.4" xmlns="http://www.w3.org/2000/svg" version="1.1">
 <metadata>
  <rdf:RDF xmlns:dc="http://purl.org/dc/elements/1.1/" xmlns:cc="http://creativecommons.org/ns#" xmlns:rdf="http://www.w3.org/1999/02/22-rdf-syntax-ns#">
   <cc:Work>
    <dc:type rdf:resource="http://purl.org/dc/dcmitype/StillImage"/>
    <dc:date>2024-10-20T17:25:12.626129</dc:date>
    <dc:format>image/svg+xml</dc:format>
    <dc:creator>
     <cc:Agent>
      <dc:title>Matplotlib v3.5.2, https://matplotlib.org/</dc:title>
     </cc:Agent>
    </dc:creator>
   </cc:Work>
  </rdf:RDF>
 </metadata>
 <defs>
  <style type="text/css">*{stroke-linejoin: round; stroke-linecap: butt}</style>
 </defs>
 <g id="figure_1">
  <g id="patch_1">
   <path d="M 0 248.4 
L 360 248.4 
L 360 0 
L 0 0 
z
" style="fill: #ffffff"/>
  </g>
  <g id="axes_1">
   <g id="patch_2">
    <path d="M 62.356563 185.253739 
L 347.04 185.253739 
L 347.04 55.609187 
L 62.356563 55.609187 
z
" style="fill: #eaeaf2"/>
   </g>
   <g id="matplotlib.axis_1">
    <g id="xtick_1">
     <g id="text_1">
      <!-- A:ARG:21 -->
      <g style="fill: #262626" transform="translate(31.367836 233.831332)rotate(-45)scale(0.1 -0.1)">
       <defs>
        <path id="DejaVuSans-41" d="M 2188 4044 
L 1331 1722 
L 3047 1722 
L 2188 4044 
z
M 1831 4666 
L 2547 4666 
L 4325 0 
L 3669 0 
L 3244 1197 
L 1141 1197 
L 716 0 
L 50 0 
L 1831 4666 
z
" transform="scale(0.015625)"/>
        <path id="DejaVuSans-3a" d="M 750 794 
L 1409 794 
L 1409 0 
L 750 0 
L 750 794 
z
M 750 3309 
L 1409 3309 
L 1409 2516 
L 750 2516 
L 750 3309 
z
" transform="scale(0.015625)"/>
        <path id="DejaVuSans-52" d="M 2841 2188 
Q 3044 2119 3236 1894 
Q 3428 1669 3622 1275 
L 4263 0 
L 3584 0 
L 2988 1197 
Q 2756 1666 2539 1819 
Q 2322 1972 1947 1972 
L 1259 1972 
L 1259 0 
L 628 0 
L 628 4666 
L 2053 4666 
Q 2853 4666 3247 4331 
Q 3641 3997 3641 3322 
Q 3641 2881 3436 2590 
Q 3231 2300 2841 2188 
z
M 1259 4147 
L 1259 2491 
L 2053 2491 
Q 2509 2491 2742 2702 
Q 2975 2913 2975 3322 
Q 2975 3731 2742 3939 
Q 2509 4147 2053 4147 
L 1259 4147 
z
" transform="scale(0.015625)"/>
        <path id="DejaVuSans-47" d="M 3809 666 
L 3809 1919 
L 2778 1919 
L 2778 2438 
L 4434 2438 
L 4434 434 
Q 4069 175 3628 42 
Q 3188 -91 2688 -91 
Q 1594 -91 976 548 
Q 359 1188 359 2328 
Q 359 3472 976 4111 
Q 1594 4750 2688 4750 
Q 3144 4750 3555 4637 
Q 3966 4525 4313 4306 
L 4313 3634 
Q 3963 3931 3569 4081 
Q 3175 4231 2741 4231 
Q 1884 4231 1454 3753 
Q 1025 3275 1025 2328 
Q 1025 1384 1454 906 
Q 1884 428 2741 428 
Q 3075 428 3337 486 
Q 3600 544 3809 666 
z
" transform="scale(0.015625)"/>
        <path id="DejaVuSans-32" d="M 1228 531 
L 3431 531 
L 3431 0 
L 469 0 
L 469 531 
Q 828 903 1448 1529 
Q 2069 2156 2228 2338 
Q 2531 2678 2651 2914 
Q 2772 3150 2772 3378 
Q 2772 3750 2511 3984 
Q 2250 4219 1831 4219 
Q 1534 4219 1204 4116 
Q 875 4013 500 3803 
L 500 4441 
Q 881 4594 1212 4672 
Q 1544 4750 1819 4750 
Q 2544 4750 2975 4387 
Q 3406 4025 3406 3419 
Q 3406 3131 3298 2873 
Q 3191 2616 2906 2266 
Q 2828 2175 2409 1742 
Q 1991 1309 1228 531 
z
" transform="scale(0.015625)"/>
        <path id="DejaVuSans-31" d="M 794 531 
L 1825 531 
L 1825 4091 
L 703 3866 
L 703 4441 
L 1819 4666 
L 2450 4666 
L 2450 531 
L 3481 531 
L 3481 0 
L 794 0 
L 794 531 
z
" transform="scale(0.015625)"/>
       </defs>
       <use xlink:href="#DejaVuSans-41"/>
       <use xlink:href="#DejaVuSans-3a" x="66.658203"/>
       <use xlink:href="#DejaVuSans-41" x="100.349609"/>
       <use xlink:href="#DejaVuSans-52" x="168.757812"/>
       <use xlink:href="#DejaVuSans-47" x="238.240234"/>
       <use xlink:href="#DejaVuSans-3a" x="315.730469"/>
       <use xlink:href="#DejaVuSans-32" x="349.421875"/>
       <use xlink:href="#DejaVuSans-31" x="413.044922"/>
      </g>
     </g>
    </g>
    <g id="xtick_2">
     <g id="text_2">
      <!-- A:MET:22 -->
      <g style="fill: #262626" transform="translate(40.860096 232.712115)rotate(-45)scale(0.1 -0.1)">
       <defs>
        <path id="DejaVuSans-4d" d="M 628 4666 
L 1569 4666 
L 2759 1491 
L 3956 4666 
L 4897 4666 
L 4897 0 
L 4281 0 
L 4281 4097 
L 3078 897 
L 2444 897 
L 1241 4097 
L 1241 0 
L 628 0 
L 628 4666 
z
" transform="scale(0.015625)"/>
        <path id="DejaVuSans-45" d="M 628 4666 
L 3578 4666 
L 3578 4134 
L 1259 4134 
L 1259 2753 
L 3481 2753 
L 3481 2222 
L 1259 2222 
L 1259 531 
L 3634 531 
L 3634 0 
L 628 0 
L 628 4666 
z
" transform="scale(0.015625)"/>
        <path id="DejaVuSans-54" d="M -19 4666 
L 3928 4666 
L 3928 4134 
L 2272 4134 
L 2272 0 
L 1638 0 
L 1638 4134 
L -19 4134 
L -19 4666 
z
" transform="scale(0.015625)"/>
       </defs>
       <use xlink:href="#DejaVuSans-41"/>
       <use xlink:href="#DejaVuSans-3a" x="66.658203"/>
       <use xlink:href="#DejaVuSans-4d" x="100.349609"/>
       <use xlink:href="#DejaVuSans-45" x="186.628906"/>
       <use xlink:href="#DejaVuSans-54" x="249.8125"/>
       <use xlink:href="#DejaVuSans-3a" x="299.896484"/>
       <use xlink:href="#DejaVuSans-32" x="333.587891"/>
       <use xlink:href="#DejaVuSans-32" x="397.210938"/>
      </g>
     </g>
    </g>
    <g id="xtick_3">
     <g id="text_3">
      <!-- A:GLU:23 -->
      <g style="fill: #262626" transform="translate(49.102765 232.842487)rotate(-45)scale(0.1 -0.1)">
       <defs>
        <path id="DejaVuSans-4c" d="M 628 4666 
L 1259 4666 
L 1259 531 
L 3531 531 
L 3531 0 
L 628 0 
L 628 4666 
z
" transform="scale(0.015625)"/>
        <path id="DejaVuSans-55" d="M 556 4666 
L 1191 4666 
L 1191 1831 
Q 1191 1081 1462 751 
Q 1734 422 2344 422 
Q 2950 422 3222 751 
Q 3494 1081 3494 1831 
L 3494 4666 
L 4128 4666 
L 4128 1753 
Q 4128 841 3676 375 
Q 3225 -91 2344 -91 
Q 1459 -91 1007 375 
Q 556 841 556 1753 
L 556 4666 
z
" transform="scale(0.015625)"/>
        <path id="DejaVuSans-33" d="M 2597 2516 
Q 3050 2419 3304 2112 
Q 3559 1806 3559 1356 
Q 3559 666 3084 287 
Q 2609 -91 1734 -91 
Q 1441 -91 1130 -33 
Q 819 25 488 141 
L 488 750 
Q 750 597 1062 519 
Q 1375 441 1716 441 
Q 2309 441 2620 675 
Q 2931 909 2931 1356 
Q 2931 1769 2642 2001 
Q 2353 2234 1838 2234 
L 1294 2234 
L 1294 2753 
L 1863 2753 
Q 2328 2753 2575 2939 
Q 2822 3125 2822 3475 
Q 2822 3834 2567 4026 
Q 2313 4219 1838 4219 
Q 1578 4219 1281 4162 
Q 984 4106 628 3988 
L 628 4550 
Q 988 4650 1302 4700 
Q 1616 4750 1894 4750 
Q 2613 4750 3031 4423 
Q 3450 4097 3450 3541 
Q 3450 3153 3228 2886 
Q 3006 2619 2597 2516 
z
" transform="scale(0.015625)"/>
       </defs>
       <use xlink:href="#DejaVuSans-41"/>
       <use xlink:href="#DejaVuSans-3a" x="66.658203"/>
       <use xlink:href="#DejaVuSans-47" x="100.349609"/>
       <use xlink:href="#DejaVuSans-4c" x="177.839844"/>
       <use xlink:href="#DejaVuSans-55" x="228.552734"/>
       <use xlink:href="#DejaVuSans-3a" x="301.746094"/>
       <use xlink:href="#DejaVuSans-32" x="335.4375"/>
       <use xlink:href="#DejaVuSans-33" x="399.060547"/>
      </g>
     </g>
    </g>
    <g id="xtick_4">
     <g id="text_4">
      <!-- A:LYS:24 -->
      <g style="fill: #262626" transform="translate(59.905382 230.412913)rotate(-45)scale(0.1 -0.1)">
       <defs>
        <path id="DejaVuSans-59" d="M -13 4666 
L 666 4666 
L 1959 2747 
L 3244 4666 
L 3922 4666 
L 2272 2222 
L 2272 0 
L 1638 0 
L 1638 2222 
L -13 4666 
z
" transform="scale(0.015625)"/>
        <path id="DejaVuSans-53" d="M 3425 4513 
L 3425 3897 
Q 3066 4069 2747 4153 
Q 2428 4238 2131 4238 
Q 1616 4238 1336 4038 
Q 1056 3838 1056 3469 
Q 1056 3159 1242 3001 
Q 1428 2844 1947 2747 
L 2328 2669 
Q 3034 2534 3370 2195 
Q 3706 1856 3706 1288 
Q 3706 609 3251 259 
Q 2797 -91 1919 -91 
Q 1588 -91 1214 -16 
Q 841 59 441 206 
L 441 856 
Q 825 641 1194 531 
Q 1563 422 1919 422 
Q 2459 422 2753 634 
Q 3047 847 3047 1241 
Q 3047 1584 2836 1778 
Q 2625 1972 2144 2069 
L 1759 2144 
Q 1053 2284 737 2584 
Q 422 2884 422 3419 
Q 422 4038 858 4394 
Q 1294 4750 2059 4750 
Q 2388 4750 2728 4690 
Q 3069 4631 3425 4513 
z
" transform="scale(0.015625)"/>
        <path id="DejaVuSans-34" d="M 2419 4116 
L 825 1625 
L 2419 1625 
L 2419 4116 
z
M 2253 4666 
L 3047 4666 
L 3047 1625 
L 3713 1625 
L 3713 1100 
L 3047 1100 
L 3047 0 
L 2419 0 
L 2419 1100 
L 313 1100 
L 313 1709 
L 2253 4666 
z
" transform="scale(0.015625)"/>
       </defs>
       <use xlink:href="#DejaVuSans-41"/>
       <use xlink:href="#DejaVuSans-3a" x="66.658203"/>
       <use xlink:href="#DejaVuSans-4c" x="100.349609"/>
       <use xlink:href="#DejaVuSans-59" x="142.8125"/>
       <use xlink:href="#DejaVuSans-53" x="203.896484"/>
       <use xlink:href="#DejaVuSans-3a" x="267.373047"/>
       <use xlink:href="#DejaVuSans-32" x="301.064453"/>
       <use xlink:href="#DejaVuSans-34" x="364.6875"/>
      </g>
     </g>
    </g>
    <g id="xtick_5">
     <g id="text_5">
      <!-- A:GLN:27 -->
      <g style="fill: #262626" transform="translate(65.380391 233.310946)rotate(-45)scale(0.1 -0.1)">
       <defs>
        <path id="DejaVuSans-4e" d="M 628 4666 
L 1478 4666 
L 3547 763 
L 3547 4666 
L 4159 4666 
L 4159 0 
L 3309 0 
L 1241 3903 
L 1241 0 
L 628 0 
L 628 4666 
z
" transform="scale(0.015625)"/>
        <path id="DejaVuSans-37" d="M 525 4666 
L 3525 4666 
L 3525 4397 
L 1831 0 
L 1172 0 
L 2766 4134 
L 525 4134 
L 525 4666 
z
" transform="scale(0.015625)"/>
       </defs>
       <use xlink:href="#DejaVuSans-41"/>
       <use xlink:href="#DejaVuSans-3a" x="66.658203"/>
       <use xlink:href="#DejaVuSans-47" x="100.349609"/>
       <use xlink:href="#DejaVuSans-4c" x="177.839844"/>
       <use xlink:href="#DejaVuSans-4e" x="233.552734"/>
       <use xlink:href="#DejaVuSans-3a" x="308.357422"/>
       <use xlink:href="#DejaVuSans-32" x="342.048828"/>
       <use xlink:href="#DejaVuSans-37" x="405.671875"/>
      </g>
     </g>
    </g>
    <g id="xtick_6">
     <g id="text_6">
      <!-- A:LEU:28 -->
      <g style="fill: #262626" transform="translate(74.87928 232.185099)rotate(-45)scale(0.1 -0.1)">
       <defs>
        <path id="DejaVuSans-38" d="M 2034 2216 
Q 1584 2216 1326 1975 
Q 1069 1734 1069 1313 
Q 1069 891 1326 650 
Q 1584 409 2034 409 
Q 2484 409 2743 651 
Q 3003 894 3003 1313 
Q 3003 1734 2745 1975 
Q 2488 2216 2034 2216 
z
M 1403 2484 
Q 997 2584 770 2862 
Q 544 3141 544 3541 
Q 544 4100 942 4425 
Q 1341 4750 2034 4750 
Q 2731 4750 3128 4425 
Q 3525 4100 3525 3541 
Q 3525 3141 3298 2862 
Q 3072 2584 2669 2484 
Q 3125 2378 3379 2068 
Q 3634 1759 3634 1313 
Q 3634 634 3220 271 
Q 2806 -91 2034 -91 
Q 1263 -91 848 271 
Q 434 634 434 1313 
Q 434 1759 690 2068 
Q 947 2378 1403 2484 
z
M 1172 3481 
Q 1172 3119 1398 2916 
Q 1625 2713 2034 2713 
Q 2441 2713 2670 2916 
Q 2900 3119 2900 3481 
Q 2900 3844 2670 4047 
Q 2441 4250 2034 4250 
Q 1625 4250 1398 4047 
Q 1172 3844 1172 3481 
z
" transform="scale(0.015625)"/>
       </defs>
       <use xlink:href="#DejaVuSans-41"/>
       <use xlink:href="#DejaVuSans-3a" x="66.658203"/>
       <use xlink:href="#DejaVuSans-4c" x="100.349609"/>
       <use xlink:href="#DejaVuSans-45" x="156.0625"/>
       <use xlink:href="#DejaVuSans-55" x="219.246094"/>
       <use xlink:href="#DejaVuSans-3a" x="292.439453"/>
       <use xlink:href="#DejaVuSans-32" x="326.130859"/>
       <use xlink:href="#DejaVuSans-38" x="389.753906"/>
      </g>
     </g>
    </g>
    <g id="xtick_7">
     <g id="text_7">
      <!-- A:GLU:30 -->
      <g style="fill: #262626" transform="translate(82.594934 232.842487)rotate(-45)scale(0.1 -0.1)">
       <defs>
        <path id="DejaVuSans-30" d="M 2034 4250 
Q 1547 4250 1301 3770 
Q 1056 3291 1056 2328 
Q 1056 1369 1301 889 
Q 1547 409 2034 409 
Q 2525 409 2770 889 
Q 3016 1369 3016 2328 
Q 3016 3291 2770 3770 
Q 2525 4250 2034 4250 
z
M 2034 4750 
Q 2819 4750 3233 4129 
Q 3647 3509 3647 2328 
Q 3647 1150 3233 529 
Q 2819 -91 2034 -91 
Q 1250 -91 836 529 
Q 422 1150 422 2328 
Q 422 3509 836 4129 
Q 1250 4750 2034 4750 
z
" transform="scale(0.015625)"/>
       </defs>
       <use xlink:href="#DejaVuSans-41"/>
       <use xlink:href="#DejaVuSans-3a" x="66.658203"/>
       <use xlink:href="#DejaVuSans-47" x="100.349609"/>
       <use xlink:href="#DejaVuSans-4c" x="177.839844"/>
       <use xlink:href="#DejaVuSans-55" x="228.552734"/>
       <use xlink:href="#DejaVuSans-3a" x="301.746094"/>
       <use xlink:href="#DejaVuSans-33" x="335.4375"/>
       <use xlink:href="#DejaVuSans-30" x="399.060547"/>
      </g>
     </g>
    </g>
    <g id="xtick_8">
     <g id="text_8">
      <!-- A:LYS:31 -->
      <g style="fill: #262626" transform="translate(93.397551 230.412913)rotate(-45)scale(0.1 -0.1)">
       <use xlink:href="#DejaVuSans-41"/>
       <use xlink:href="#DejaVuSans-3a" x="66.658203"/>
       <use xlink:href="#DejaVuSans-4c" x="100.349609"/>
       <use xlink:href="#DejaVuSans-59" x="142.8125"/>
       <use xlink:href="#DejaVuSans-53" x="203.896484"/>
       <use xlink:href="#DejaVuSans-3a" x="267.373047"/>
       <use xlink:href="#DejaVuSans-33" x="301.064453"/>
       <use xlink:href="#DejaVuSans-31" x="364.6875"/>
      </g>
     </g>
    </g>
    <g id="xtick_9">
     <g id="text_9">
      <!-- A:ARG:34 -->
      <g style="fill: #262626" transform="translate(98.352174 233.831332)rotate(-45)scale(0.1 -0.1)">
       <use xlink:href="#DejaVuSans-41"/>
       <use xlink:href="#DejaVuSans-3a" x="66.658203"/>
       <use xlink:href="#DejaVuSans-41" x="100.349609"/>
       <use xlink:href="#DejaVuSans-52" x="168.757812"/>
       <use xlink:href="#DejaVuSans-47" x="238.240234"/>
       <use xlink:href="#DejaVuSans-3a" x="315.730469"/>
       <use xlink:href="#DejaVuSans-33" x="349.421875"/>
       <use xlink:href="#DejaVuSans-34" x="413.044922"/>
      </g>
     </g>
    </g>
    <g id="xtick_10">
     <g id="text_10">
      <!-- A:LEU:35 -->
      <g style="fill: #262626" transform="translate(108.371449 232.185099)rotate(-45)scale(0.1 -0.1)">
       <defs>
        <path id="DejaVuSans-35" d="M 691 4666 
L 3169 4666 
L 3169 4134 
L 1269 4134 
L 1269 2991 
Q 1406 3038 1543 3061 
Q 1681 3084 1819 3084 
Q 2600 3084 3056 2656 
Q 3513 2228 3513 1497 
Q 3513 744 3044 326 
Q 2575 -91 1722 -91 
Q 1428 -91 1123 -41 
Q 819 9 494 109 
L 494 744 
Q 775 591 1075 516 
Q 1375 441 1709 441 
Q 2250 441 2565 725 
Q 2881 1009 2881 1497 
Q 2881 1984 2565 2268 
Q 2250 2553 1709 2553 
Q 1456 2553 1204 2497 
Q 953 2441 691 2322 
L 691 4666 
z
" transform="scale(0.015625)"/>
       </defs>
       <use xlink:href="#DejaVuSans-41"/>
       <use xlink:href="#DejaVuSans-3a" x="66.658203"/>
       <use xlink:href="#DejaVuSans-4c" x="100.349609"/>
       <use xlink:href="#DejaVuSans-45" x="156.0625"/>
       <use xlink:href="#DejaVuSans-55" x="219.246094"/>
       <use xlink:href="#DejaVuSans-3a" x="292.439453"/>
       <use xlink:href="#DejaVuSans-33" x="326.130859"/>
       <use xlink:href="#DejaVuSans-35" x="389.753906"/>
      </g>
     </g>
    </g>
    <g id="xtick_11">
     <g id="text_11">
      <!-- A:GLU:56 -->
      <g style="fill: #262626" transform="translate(116.087103 232.842487)rotate(-45)scale(0.1 -0.1)">
       <defs>
        <path id="DejaVuSans-36" d="M 2113 2584 
Q 1688 2584 1439 2293 
Q 1191 2003 1191 1497 
Q 1191 994 1439 701 
Q 1688 409 2113 409 
Q 2538 409 2786 701 
Q 3034 994 3034 1497 
Q 3034 2003 2786 2293 
Q 2538 2584 2113 2584 
z
M 3366 4563 
L 3366 3988 
Q 3128 4100 2886 4159 
Q 2644 4219 2406 4219 
Q 1781 4219 1451 3797 
Q 1122 3375 1075 2522 
Q 1259 2794 1537 2939 
Q 1816 3084 2150 3084 
Q 2853 3084 3261 2657 
Q 3669 2231 3669 1497 
Q 3669 778 3244 343 
Q 2819 -91 2113 -91 
Q 1303 -91 875 529 
Q 447 1150 447 2328 
Q 447 3434 972 4092 
Q 1497 4750 2381 4750 
Q 2619 4750 2861 4703 
Q 3103 4656 3366 4563 
z
" transform="scale(0.015625)"/>
       </defs>
       <use xlink:href="#DejaVuSans-41"/>
       <use xlink:href="#DejaVuSans-3a" x="66.658203"/>
       <use xlink:href="#DejaVuSans-47" x="100.349609"/>
       <use xlink:href="#DejaVuSans-4c" x="177.839844"/>
       <use xlink:href="#DejaVuSans-55" x="228.552734"/>
       <use xlink:href="#DejaVuSans-3a" x="301.746094"/>
       <use xlink:href="#DejaVuSans-35" x="335.4375"/>
       <use xlink:href="#DejaVuSans-36" x="399.060547"/>
      </g>
     </g>
    </g>
    <g id="xtick_12">
     <g id="text_12">
      <!-- A:LEU:57 -->
      <g style="fill: #262626" transform="translate(125.117534 232.185099)rotate(-45)scale(0.1 -0.1)">
       <use xlink:href="#DejaVuSans-41"/>
       <use xlink:href="#DejaVuSans-3a" x="66.658203"/>
       <use xlink:href="#DejaVuSans-4c" x="100.349609"/>
       <use xlink:href="#DejaVuSans-45" x="156.0625"/>
       <use xlink:href="#DejaVuSans-55" x="219.246094"/>
       <use xlink:href="#DejaVuSans-3a" x="292.439453"/>
       <use xlink:href="#DejaVuSans-35" x="326.130859"/>
       <use xlink:href="#DejaVuSans-37" x="389.753906"/>
      </g>
     </g>
    </g>
    <g id="xtick_13">
     <g id="text_13">
      <!-- A:LYS:60 -->
      <g style="fill: #262626" transform="translate(135.262763 230.412913)rotate(-45)scale(0.1 -0.1)">
       <use xlink:href="#DejaVuSans-41"/>
       <use xlink:href="#DejaVuSans-3a" x="66.658203"/>
       <use xlink:href="#DejaVuSans-4c" x="100.349609"/>
       <use xlink:href="#DejaVuSans-59" x="142.8125"/>
       <use xlink:href="#DejaVuSans-53" x="203.896484"/>
       <use xlink:href="#DejaVuSans-3a" x="267.373047"/>
       <use xlink:href="#DejaVuSans-36" x="301.064453"/>
       <use xlink:href="#DejaVuSans-30" x="364.6875"/>
      </g>
     </g>
    </g>
    <g id="xtick_14">
     <g id="text_14">
      <!-- A:LYS:63 -->
      <g style="fill: #262626" transform="translate(143.635805 230.412913)rotate(-45)scale(0.1 -0.1)">
       <use xlink:href="#DejaVuSans-41"/>
       <use xlink:href="#DejaVuSans-3a" x="66.658203"/>
       <use xlink:href="#DejaVuSans-4c" x="100.349609"/>
       <use xlink:href="#DejaVuSans-59" x="142.8125"/>
       <use xlink:href="#DejaVuSans-53" x="203.896484"/>
       <use xlink:href="#DejaVuSans-3a" x="267.373047"/>
       <use xlink:href="#DejaVuSans-36" x="301.064453"/>
       <use xlink:href="#DejaVuSans-33" x="364.6875"/>
      </g>
     </g>
    </g>
    <g id="xtick_15">
     <g id="text_15">
      <!-- A:LEU:64 -->
      <g style="fill: #262626" transform="translate(150.236661 232.185099)rotate(-45)scale(0.1 -0.1)">
       <use xlink:href="#DejaVuSans-41"/>
       <use xlink:href="#DejaVuSans-3a" x="66.658203"/>
       <use xlink:href="#DejaVuSans-4c" x="100.349609"/>
       <use xlink:href="#DejaVuSans-45" x="156.0625"/>
       <use xlink:href="#DejaVuSans-55" x="219.246094"/>
       <use xlink:href="#DejaVuSans-3a" x="292.439453"/>
       <use xlink:href="#DejaVuSans-36" x="326.130859"/>
       <use xlink:href="#DejaVuSans-34" x="389.753906"/>
      </g>
     </g>
    </g>
    <g id="xtick_16">
     <g id="text_16">
      <!-- A:ILE:78 -->
      <g style="fill: #262626" transform="translate(161.698876 229.095926)rotate(-45)scale(0.1 -0.1)">
       <defs>
        <path id="DejaVuSans-49" d="M 628 4666 
L 1259 4666 
L 1259 0 
L 628 0 
L 628 4666 
z
" transform="scale(0.015625)"/>
       </defs>
       <use xlink:href="#DejaVuSans-41"/>
       <use xlink:href="#DejaVuSans-3a" x="66.658203"/>
       <use xlink:href="#DejaVuSans-49" x="100.349609"/>
       <use xlink:href="#DejaVuSans-4c" x="129.841797"/>
       <use xlink:href="#DejaVuSans-45" x="185.554688"/>
       <use xlink:href="#DejaVuSans-3a" x="248.738281"/>
       <use xlink:href="#DejaVuSans-37" x="282.429688"/>
       <use xlink:href="#DejaVuSans-38" x="346.052734"/>
      </g>
     </g>
    </g>
    <g id="xtick_17">
     <g id="text_17">
      <!-- A:LEU:81 -->
      <g style="fill: #262626" transform="translate(166.982745 232.185099)rotate(-45)scale(0.1 -0.1)">
       <use xlink:href="#DejaVuSans-41"/>
       <use xlink:href="#DejaVuSans-3a" x="66.658203"/>
       <use xlink:href="#DejaVuSans-4c" x="100.349609"/>
       <use xlink:href="#DejaVuSans-45" x="156.0625"/>
       <use xlink:href="#DejaVuSans-55" x="219.246094"/>
       <use xlink:href="#DejaVuSans-3a" x="292.439453"/>
       <use xlink:href="#DejaVuSans-38" x="326.130859"/>
       <use xlink:href="#DejaVuSans-31" x="389.753906"/>
      </g>
     </g>
    </g>
    <g id="xtick_18">
     <g id="text_18">
      <!-- A:LEU:85 -->
      <g style="fill: #262626" transform="translate(175.355788 232.185099)rotate(-45)scale(0.1 -0.1)">
       <use xlink:href="#DejaVuSans-41"/>
       <use xlink:href="#DejaVuSans-3a" x="66.658203"/>
       <use xlink:href="#DejaVuSans-4c" x="100.349609"/>
       <use xlink:href="#DejaVuSans-45" x="156.0625"/>
       <use xlink:href="#DejaVuSans-55" x="219.246094"/>
       <use xlink:href="#DejaVuSans-3a" x="292.439453"/>
       <use xlink:href="#DejaVuSans-38" x="326.130859"/>
       <use xlink:href="#DejaVuSans-35" x="389.753906"/>
      </g>
     </g>
    </g>
    <g id="xtick_19">
     <g id="text_19">
      <!-- A:LEU:90 -->
      <g style="fill: #262626" transform="translate(183.72883 232.185099)rotate(-45)scale(0.1 -0.1)">
       <defs>
        <path id="DejaVuSans-39" d="M 703 97 
L 703 672 
Q 941 559 1184 500 
Q 1428 441 1663 441 
Q 2288 441 2617 861 
Q 2947 1281 2994 2138 
Q 2813 1869 2534 1725 
Q 2256 1581 1919 1581 
Q 1219 1581 811 2004 
Q 403 2428 403 3163 
Q 403 3881 828 4315 
Q 1253 4750 1959 4750 
Q 2769 4750 3195 4129 
Q 3622 3509 3622 2328 
Q 3622 1225 3098 567 
Q 2575 -91 1691 -91 
Q 1453 -91 1209 -44 
Q 966 3 703 97 
z
M 1959 2075 
Q 2384 2075 2632 2365 
Q 2881 2656 2881 3163 
Q 2881 3666 2632 3958 
Q 2384 4250 1959 4250 
Q 1534 4250 1286 3958 
Q 1038 3666 1038 3163 
Q 1038 2656 1286 2365 
Q 1534 2075 1959 2075 
z
" transform="scale(0.015625)"/>
       </defs>
       <use xlink:href="#DejaVuSans-41"/>
       <use xlink:href="#DejaVuSans-3a" x="66.658203"/>
       <use xlink:href="#DejaVuSans-4c" x="100.349609"/>
       <use xlink:href="#DejaVuSans-45" x="156.0625"/>
       <use xlink:href="#DejaVuSans-55" x="219.246094"/>
       <use xlink:href="#DejaVuSans-3a" x="292.439453"/>
       <use xlink:href="#DejaVuSans-39" x="326.130859"/>
       <use xlink:href="#DejaVuSans-30" x="389.753906"/>
      </g>
     </g>
    </g>
    <g id="xtick_20">
     <g id="text_20">
      <!-- A:LYS:93 -->
      <g style="fill: #262626" transform="translate(193.874058 230.412913)rotate(-45)scale(0.1 -0.1)">
       <use xlink:href="#DejaVuSans-41"/>
       <use xlink:href="#DejaVuSans-3a" x="66.658203"/>
       <use xlink:href="#DejaVuSans-4c" x="100.349609"/>
       <use xlink:href="#DejaVuSans-59" x="142.8125"/>
       <use xlink:href="#DejaVuSans-53" x="203.896484"/>
       <use xlink:href="#DejaVuSans-3a" x="267.373047"/>
       <use xlink:href="#DejaVuSans-39" x="301.064453"/>
       <use xlink:href="#DejaVuSans-33" x="364.6875"/>
      </g>
     </g>
    </g>
    <g id="xtick_21">
     <g id="text_21">
      <!-- A:ASP:95 -->
      <g style="fill: #262626" transform="translate(200.468285 232.191728)rotate(-45)scale(0.1 -0.1)">
       <defs>
        <path id="DejaVuSans-50" d="M 1259 4147 
L 1259 2394 
L 2053 2394 
Q 2494 2394 2734 2622 
Q 2975 2850 2975 3272 
Q 2975 3691 2734 3919 
Q 2494 4147 2053 4147 
L 1259 4147 
z
M 628 4666 
L 2053 4666 
Q 2838 4666 3239 4311 
Q 3641 3956 3641 3272 
Q 3641 2581 3239 2228 
Q 2838 1875 2053 1875 
L 1259 1875 
L 1259 0 
L 628 0 
L 628 4666 
z
" transform="scale(0.015625)"/>
       </defs>
       <use xlink:href="#DejaVuSans-41"/>
       <use xlink:href="#DejaVuSans-3a" x="66.658203"/>
       <use xlink:href="#DejaVuSans-41" x="100.349609"/>
       <use xlink:href="#DejaVuSans-53" x="168.757812"/>
       <use xlink:href="#DejaVuSans-50" x="232.234375"/>
       <use xlink:href="#DejaVuSans-3a" x="292.537109"/>
       <use xlink:href="#DejaVuSans-39" x="326.228516"/>
       <use xlink:href="#DejaVuSans-35" x="389.851562"/>
      </g>
     </g>
    </g>
    <g id="xtick_22">
     <g id="text_22">
      <!-- B:SER:1 -->
      <g style="fill: #262626" transform="translate(213.142526 227.89053)rotate(-45)scale(0.1 -0.1)">
       <defs>
        <path id="DejaVuSans-42" d="M 1259 2228 
L 1259 519 
L 2272 519 
Q 2781 519 3026 730 
Q 3272 941 3272 1375 
Q 3272 1813 3026 2020 
Q 2781 2228 2272 2228 
L 1259 2228 
z
M 1259 4147 
L 1259 2741 
L 2194 2741 
Q 2656 2741 2882 2914 
Q 3109 3088 3109 3444 
Q 3109 3797 2882 3972 
Q 2656 4147 2194 4147 
L 1259 4147 
z
M 628 4666 
L 2241 4666 
Q 2963 4666 3353 4366 
Q 3744 4066 3744 3513 
Q 3744 3084 3544 2831 
Q 3344 2578 2956 2516 
Q 3422 2416 3680 2098 
Q 3938 1781 3938 1306 
Q 3938 681 3513 340 
Q 3088 0 2303 0 
L 628 0 
L 628 4666 
z
" transform="scale(0.015625)"/>
       </defs>
       <use xlink:href="#DejaVuSans-42"/>
       <use xlink:href="#DejaVuSans-3a" x="68.603516"/>
       <use xlink:href="#DejaVuSans-53" x="102.294922"/>
       <use xlink:href="#DejaVuSans-45" x="165.771484"/>
       <use xlink:href="#DejaVuSans-52" x="228.955078"/>
       <use xlink:href="#DejaVuSans-3a" x="295.3125"/>
       <use xlink:href="#DejaVuSans-31" x="329.003906"/>
      </g>
     </g>
    </g>
    <g id="xtick_23">
     <g id="text_23">
      <!-- B:ALA:2 -->
      <g style="fill: #262626" transform="translate(221.515568 227.89053)rotate(-45)scale(0.1 -0.1)">
       <use xlink:href="#DejaVuSans-42"/>
       <use xlink:href="#DejaVuSans-3a" x="68.603516"/>
       <use xlink:href="#DejaVuSans-41" x="102.294922"/>
       <use xlink:href="#DejaVuSans-4c" x="170.703125"/>
       <use xlink:href="#DejaVuSans-41" x="228.666016"/>
       <use xlink:href="#DejaVuSans-3a" x="295.324219"/>
       <use xlink:href="#DejaVuSans-32" x="329.015625"/>
      </g>
     </g>
    </g>
    <g id="xtick_24">
     <g id="text_24">
      <!-- B:ARG:16 -->
      <g style="fill: #262626" transform="translate(223.809701 233.969439)rotate(-45)scale(0.1 -0.1)">
       <use xlink:href="#DejaVuSans-42"/>
       <use xlink:href="#DejaVuSans-3a" x="68.603516"/>
       <use xlink:href="#DejaVuSans-41" x="102.294922"/>
       <use xlink:href="#DejaVuSans-52" x="170.703125"/>
       <use xlink:href="#DejaVuSans-47" x="240.185547"/>
       <use xlink:href="#DejaVuSans-3a" x="317.675781"/>
       <use xlink:href="#DejaVuSans-31" x="351.367188"/>
       <use xlink:href="#DejaVuSans-36" x="414.990234"/>
      </g>
     </g>
    </g>
    <g id="xtick_25">
     <g id="text_25">
      <!-- B:TRP:22 -->
      <g style="fill: #262626" transform="translate(233.91626 232.235922)rotate(-45)scale(0.1 -0.1)">
       <use xlink:href="#DejaVuSans-42"/>
       <use xlink:href="#DejaVuSans-3a" x="68.603516"/>
       <use xlink:href="#DejaVuSans-54" x="102.294922"/>
       <use xlink:href="#DejaVuSans-52" x="163.378906"/>
       <use xlink:href="#DejaVuSans-50" x="232.861328"/>
       <use xlink:href="#DejaVuSans-3a" x="293.164062"/>
       <use xlink:href="#DejaVuSans-32" x="326.855469"/>
       <use xlink:href="#DejaVuSans-32" x="390.478516"/>
      </g>
     </g>
    </g>
    <g id="xtick_26">
     <g id="text_26">
      <!-- B:ASP:27 -->
      <g style="fill: #262626" transform="translate(242.19539 232.329835)rotate(-45)scale(0.1 -0.1)">
       <use xlink:href="#DejaVuSans-42"/>
       <use xlink:href="#DejaVuSans-3a" x="68.603516"/>
       <use xlink:href="#DejaVuSans-41" x="102.294922"/>
       <use xlink:href="#DejaVuSans-53" x="170.703125"/>
       <use xlink:href="#DejaVuSans-50" x="234.179688"/>
       <use xlink:href="#DejaVuSans-3a" x="294.482422"/>
       <use xlink:href="#DejaVuSans-32" x="328.173828"/>
       <use xlink:href="#DejaVuSans-37" x="391.796875"/>
      </g>
     </g>
    </g>
    <g id="xtick_27">
     <g id="text_27">
      <!-- B:ASP:28 -->
      <g style="fill: #262626" transform="translate(250.568432 232.329835)rotate(-45)scale(0.1 -0.1)">
       <use xlink:href="#DejaVuSans-42"/>
       <use xlink:href="#DejaVuSans-3a" x="68.603516"/>
       <use xlink:href="#DejaVuSans-41" x="102.294922"/>
       <use xlink:href="#DejaVuSans-53" x="170.703125"/>
       <use xlink:href="#DejaVuSans-50" x="234.179688"/>
       <use xlink:href="#DejaVuSans-3a" x="294.482422"/>
       <use xlink:href="#DejaVuSans-32" x="328.173828"/>
       <use xlink:href="#DejaVuSans-38" x="391.796875"/>
      </g>
     </g>
    </g>
    <g id="xtick_28">
     <g id="text_28">
      <!-- B:CYS:30 -->
      <g style="fill: #262626" transform="translate(258.909434 232.361876)rotate(-45)scale(0.1 -0.1)">
       <defs>
        <path id="DejaVuSans-43" d="M 4122 4306 
L 4122 3641 
Q 3803 3938 3442 4084 
Q 3081 4231 2675 4231 
Q 1875 4231 1450 3742 
Q 1025 3253 1025 2328 
Q 1025 1406 1450 917 
Q 1875 428 2675 428 
Q 3081 428 3442 575 
Q 3803 722 4122 1019 
L 4122 359 
Q 3791 134 3420 21 
Q 3050 -91 2638 -91 
Q 1578 -91 968 557 
Q 359 1206 359 2328 
Q 359 3453 968 4101 
Q 1578 4750 2638 4750 
Q 3056 4750 3426 4639 
Q 3797 4528 4122 4306 
z
" transform="scale(0.015625)"/>
       </defs>
       <use xlink:href="#DejaVuSans-42"/>
       <use xlink:href="#DejaVuSans-3a" x="68.603516"/>
       <use xlink:href="#DejaVuSans-43" x="102.294922"/>
       <use xlink:href="#DejaVuSans-59" x="170.369141"/>
       <use xlink:href="#DejaVuSans-53" x="231.453125"/>
       <use xlink:href="#DejaVuSans-3a" x="294.929688"/>
       <use xlink:href="#DejaVuSans-33" x="328.621094"/>
       <use xlink:href="#DejaVuSans-30" x="392.244141"/>
      </g>
     </g>
    </g>
    <g id="xtick_29">
     <g id="text_29">
      <!-- B:ASP:66 -->
      <g style="fill: #262626" transform="translate(267.314517 232.329835)rotate(-45)scale(0.1 -0.1)">
       <use xlink:href="#DejaVuSans-42"/>
       <use xlink:href="#DejaVuSans-3a" x="68.603516"/>
       <use xlink:href="#DejaVuSans-41" x="102.294922"/>
       <use xlink:href="#DejaVuSans-53" x="170.703125"/>
       <use xlink:href="#DejaVuSans-50" x="234.179688"/>
       <use xlink:href="#DejaVuSans-3a" x="294.482422"/>
       <use xlink:href="#DejaVuSans-36" x="328.173828"/>
       <use xlink:href="#DejaVuSans-36" x="391.796875"/>
      </g>
     </g>
    </g>
    <g id="xtick_30">
     <g id="text_30">
      <!-- B:ASP:68 -->
      <g style="fill: #262626" transform="translate(275.687559 232.329835)rotate(-45)scale(0.1 -0.1)">
       <use xlink:href="#DejaVuSans-42"/>
       <use xlink:href="#DejaVuSans-3a" x="68.603516"/>
       <use xlink:href="#DejaVuSans-41" x="102.294922"/>
       <use xlink:href="#DejaVuSans-53" x="170.703125"/>
       <use xlink:href="#DejaVuSans-50" x="234.179688"/>
       <use xlink:href="#DejaVuSans-3a" x="294.482422"/>
       <use xlink:href="#DejaVuSans-36" x="328.173828"/>
       <use xlink:href="#DejaVuSans-38" x="391.796875"/>
      </g>
     </g>
    </g>
    <g id="xtick_31">
     <g id="text_31">
      <!-- B:GLU:77 -->
      <g style="fill: #262626" transform="translate(283.409842 232.980594)rotate(-45)scale(0.1 -0.1)">
       <use xlink:href="#DejaVuSans-42"/>
       <use xlink:href="#DejaVuSans-3a" x="68.603516"/>
       <use xlink:href="#DejaVuSans-47" x="102.294922"/>
       <use xlink:href="#DejaVuSans-4c" x="179.785156"/>
       <use xlink:href="#DejaVuSans-55" x="230.498047"/>
       <use xlink:href="#DejaVuSans-3a" x="303.691406"/>
       <use xlink:href="#DejaVuSans-37" x="337.382812"/>
       <use xlink:href="#DejaVuSans-37" x="401.005859"/>
      </g>
     </g>
    </g>
    <g id="xtick_32">
     <g id="text_32">
      <!-- B:ALA:78 -->
      <g style="fill: #262626" transform="translate(292.373981 232.389497)rotate(-45)scale(0.1 -0.1)">
       <use xlink:href="#DejaVuSans-42"/>
       <use xlink:href="#DejaVuSans-3a" x="68.603516"/>
       <use xlink:href="#DejaVuSans-41" x="102.294922"/>
       <use xlink:href="#DejaVuSans-4c" x="170.703125"/>
       <use xlink:href="#DejaVuSans-41" x="228.666016"/>
       <use xlink:href="#DejaVuSans-3a" x="295.324219"/>
       <use xlink:href="#DejaVuSans-37" x="329.015625"/>
       <use xlink:href="#DejaVuSans-38" x="392.638672"/>
      </g>
     </g>
    </g>
    <g id="xtick_33">
     <g id="text_33">
      <!-- B:GLY:79 -->
      <g style="fill: #262626" transform="translate(302.532468 230.604053)rotate(-45)scale(0.1 -0.1)">
       <use xlink:href="#DejaVuSans-42"/>
       <use xlink:href="#DejaVuSans-3a" x="68.603516"/>
       <use xlink:href="#DejaVuSans-47" x="102.294922"/>
       <use xlink:href="#DejaVuSans-4c" x="179.785156"/>
       <use xlink:href="#DejaVuSans-59" x="222.248047"/>
       <use xlink:href="#DejaVuSans-3a" x="270.082031"/>
       <use xlink:href="#DejaVuSans-37" x="303.773438"/>
       <use xlink:href="#DejaVuSans-39" x="367.396484"/>
      </g>
     </g>
    </g>
    <g id="xtick_34">
     <g id="text_34">
      <!-- B:CYS:80 -->
      <g style="fill: #262626" transform="translate(309.147687 232.361876)rotate(-45)scale(0.1 -0.1)">
       <use xlink:href="#DejaVuSans-42"/>
       <use xlink:href="#DejaVuSans-3a" x="68.603516"/>
       <use xlink:href="#DejaVuSans-43" x="102.294922"/>
       <use xlink:href="#DejaVuSans-59" x="170.369141"/>
       <use xlink:href="#DejaVuSans-53" x="231.453125"/>
       <use xlink:href="#DejaVuSans-3a" x="294.929688"/>
       <use xlink:href="#DejaVuSans-38" x="328.621094"/>
       <use xlink:href="#DejaVuSans-30" x="392.244141"/>
      </g>
     </g>
    </g>
   </g>
   <g id="matplotlib.axis_2">
    <g id="ytick_1">
     <g id="line2d_1">
      <path d="M 62.356563 80.349837 
L 347.04 80.349837 
" clip-path="url(#pe0fec8cba5)" style="fill: none; stroke: #ffffff; stroke-linecap: round"/>
     </g>
     <g id="text_35">
      <!-- −5.0 -->
      <g style="fill: #262626" transform="translate(28.57375 84.149056)scale(0.1 -0.1)">
       <defs>
        <path id="DejaVuSans-2212" d="M 678 2272 
L 4684 2272 
L 4684 1741 
L 678 1741 
L 678 2272 
z
" transform="scale(0.015625)"/>
        <path id="DejaVuSans-2e" d="M 684 794 
L 1344 794 
L 1344 0 
L 684 0 
L 684 794 
z
" transform="scale(0.015625)"/>
       </defs>
       <use xlink:href="#DejaVuSans-2212"/>
       <use xlink:href="#DejaVuSans-35" x="83.789062"/>
       <use xlink:href="#DejaVuSans-2e" x="147.412109"/>
       <use xlink:href="#DejaVuSans-30" x="179.199219"/>
      </g>
     </g>
    </g>
    <g id="ytick_2">
     <g id="line2d_2">
      <path d="M 62.356563 107.748427 
L 347.04 107.748427 
" clip-path="url(#pe0fec8cba5)" style="fill: none; stroke: #ffffff; stroke-linecap: round"/>
     </g>
     <g id="text_36">
      <!-- −2.5 -->
      <g style="fill: #262626" transform="translate(28.57375 111.547646)scale(0.1 -0.1)">
       <use xlink:href="#DejaVuSans-2212"/>
       <use xlink:href="#DejaVuSans-32" x="83.789062"/>
       <use xlink:href="#DejaVuSans-2e" x="147.412109"/>
       <use xlink:href="#DejaVuSans-35" x="179.199219"/>
      </g>
     </g>
    </g>
    <g id="ytick_3">
     <g id="line2d_3">
      <path d="M 62.356563 135.147016 
L 347.04 135.147016 
" clip-path="url(#pe0fec8cba5)" style="fill: none; stroke: #ffffff; stroke-linecap: round"/>
     </g>
     <g id="text_37">
      <!-- 0.0 -->
      <g style="fill: #262626" transform="translate(36.953437 138.946235)scale(0.1 -0.1)">
       <use xlink:href="#DejaVuSans-30"/>
       <use xlink:href="#DejaVuSans-2e" x="63.623047"/>
       <use xlink:href="#DejaVuSans-30" x="95.410156"/>
      </g>
     </g>
    </g>
    <g id="ytick_4">
     <g id="line2d_4">
      <path d="M 62.356563 162.545606 
L 347.04 162.545606 
" clip-path="url(#pe0fec8cba5)" style="fill: none; stroke: #ffffff; stroke-linecap: round"/>
     </g>
     <g id="text_38">
      <!-- 2.5 -->
      <g style="fill: #262626" transform="translate(36.953437 166.344825)scale(0.1 -0.1)">
       <use xlink:href="#DejaVuSans-32"/>
       <use xlink:href="#DejaVuSans-2e" x="63.623047"/>
       <use xlink:href="#DejaVuSans-35" x="95.410156"/>
      </g>
     </g>
    </g>
    <g id="text_39">
     <!-- Energy (kcal/mol) -->
     <g style="fill: #262626" transform="translate(22.078125 173.348651)rotate(-90)scale(0.12 -0.12)">
      <defs>
       <path id="DejaVuSans-6e" d="M 3513 2113 
L 3513 0 
L 2938 0 
L 2938 2094 
Q 2938 2591 2744 2837 
Q 2550 3084 2163 3084 
Q 1697 3084 1428 2787 
Q 1159 2491 1159 1978 
L 1159 0 
L 581 0 
L 581 3500 
L 1159 3500 
L 1159 2956 
Q 1366 3272 1645 3428 
Q 1925 3584 2291 3584 
Q 2894 3584 3203 3211 
Q 3513 2838 3513 2113 
z
" transform="scale(0.015625)"/>
       <path id="DejaVuSans-65" d="M 3597 1894 
L 3597 1613 
L 953 1613 
Q 991 1019 1311 708 
Q 1631 397 2203 397 
Q 2534 397 2845 478 
Q 3156 559 3463 722 
L 3463 178 
Q 3153 47 2828 -22 
Q 2503 -91 2169 -91 
Q 1331 -91 842 396 
Q 353 884 353 1716 
Q 353 2575 817 3079 
Q 1281 3584 2069 3584 
Q 2775 3584 3186 3129 
Q 3597 2675 3597 1894 
z
M 3022 2063 
Q 3016 2534 2758 2815 
Q 2500 3097 2075 3097 
Q 1594 3097 1305 2825 
Q 1016 2553 972 2059 
L 3022 2063 
z
" transform="scale(0.015625)"/>
       <path id="DejaVuSans-72" d="M 2631 2963 
Q 2534 3019 2420 3045 
Q 2306 3072 2169 3072 
Q 1681 3072 1420 2755 
Q 1159 2438 1159 1844 
L 1159 0 
L 581 0 
L 581 3500 
L 1159 3500 
L 1159 2956 
Q 1341 3275 1631 3429 
Q 1922 3584 2338 3584 
Q 2397 3584 2469 3576 
Q 2541 3569 2628 3553 
L 2631 2963 
z
" transform="scale(0.015625)"/>
       <path id="DejaVuSans-67" d="M 2906 1791 
Q 2906 2416 2648 2759 
Q 2391 3103 1925 3103 
Q 1463 3103 1205 2759 
Q 947 2416 947 1791 
Q 947 1169 1205 825 
Q 1463 481 1925 481 
Q 2391 481 2648 825 
Q 2906 1169 2906 1791 
z
M 3481 434 
Q 3481 -459 3084 -895 
Q 2688 -1331 1869 -1331 
Q 1566 -1331 1297 -1286 
Q 1028 -1241 775 -1147 
L 775 -588 
Q 1028 -725 1275 -790 
Q 1522 -856 1778 -856 
Q 2344 -856 2625 -561 
Q 2906 -266 2906 331 
L 2906 616 
Q 2728 306 2450 153 
Q 2172 0 1784 0 
Q 1141 0 747 490 
Q 353 981 353 1791 
Q 353 2603 747 3093 
Q 1141 3584 1784 3584 
Q 2172 3584 2450 3431 
Q 2728 3278 2906 2969 
L 2906 3500 
L 3481 3500 
L 3481 434 
z
" transform="scale(0.015625)"/>
       <path id="DejaVuSans-79" d="M 2059 -325 
Q 1816 -950 1584 -1140 
Q 1353 -1331 966 -1331 
L 506 -1331 
L 506 -850 
L 844 -850 
Q 1081 -850 1212 -737 
Q 1344 -625 1503 -206 
L 1606 56 
L 191 3500 
L 800 3500 
L 1894 763 
L 2988 3500 
L 3597 3500 
L 2059 -325 
z
" transform="scale(0.015625)"/>
       <path id="DejaVuSans-20" transform="scale(0.015625)"/>
       <path id="DejaVuSans-28" d="M 1984 4856 
Q 1566 4138 1362 3434 
Q 1159 2731 1159 2009 
Q 1159 1288 1364 580 
Q 1569 -128 1984 -844 
L 1484 -844 
Q 1016 -109 783 600 
Q 550 1309 550 2009 
Q 550 2706 781 3412 
Q 1013 4119 1484 4856 
L 1984 4856 
z
" transform="scale(0.015625)"/>
       <path id="DejaVuSans-6b" d="M 581 4863 
L 1159 4863 
L 1159 1991 
L 2875 3500 
L 3609 3500 
L 1753 1863 
L 3688 0 
L 2938 0 
L 1159 1709 
L 1159 0 
L 581 0 
L 581 4863 
z
" transform="scale(0.015625)"/>
       <path id="DejaVuSans-63" d="M 3122 3366 
L 3122 2828 
Q 2878 2963 2633 3030 
Q 2388 3097 2138 3097 
Q 1578 3097 1268 2742 
Q 959 2388 959 1747 
Q 959 1106 1268 751 
Q 1578 397 2138 397 
Q 2388 397 2633 464 
Q 2878 531 3122 666 
L 3122 134 
Q 2881 22 2623 -34 
Q 2366 -91 2075 -91 
Q 1284 -91 818 406 
Q 353 903 353 1747 
Q 353 2603 823 3093 
Q 1294 3584 2113 3584 
Q 2378 3584 2631 3529 
Q 2884 3475 3122 3366 
z
" transform="scale(0.015625)"/>
       <path id="DejaVuSans-61" d="M 2194 1759 
Q 1497 1759 1228 1600 
Q 959 1441 959 1056 
Q 959 750 1161 570 
Q 1363 391 1709 391 
Q 2188 391 2477 730 
Q 2766 1069 2766 1631 
L 2766 1759 
L 2194 1759 
z
M 3341 1997 
L 3341 0 
L 2766 0 
L 2766 531 
Q 2569 213 2275 61 
Q 1981 -91 1556 -91 
Q 1019 -91 701 211 
Q 384 513 384 1019 
Q 384 1609 779 1909 
Q 1175 2209 1959 2209 
L 2766 2209 
L 2766 2266 
Q 2766 2663 2505 2880 
Q 2244 3097 1772 3097 
Q 1472 3097 1187 3025 
Q 903 2953 641 2809 
L 641 3341 
Q 956 3463 1253 3523 
Q 1550 3584 1831 3584 
Q 2591 3584 2966 3190 
Q 3341 2797 3341 1997 
z
" transform="scale(0.015625)"/>
       <path id="DejaVuSans-6c" d="M 603 4863 
L 1178 4863 
L 1178 0 
L 603 0 
L 603 4863 
z
" transform="scale(0.015625)"/>
       <path id="DejaVuSans-2f" d="M 1625 4666 
L 2156 4666 
L 531 -594 
L 0 -594 
L 1625 4666 
z
" transform="scale(0.015625)"/>
       <path id="DejaVuSans-6d" d="M 3328 2828 
Q 3544 3216 3844 3400 
Q 4144 3584 4550 3584 
Q 5097 3584 5394 3201 
Q 5691 2819 5691 2113 
L 5691 0 
L 5113 0 
L 5113 2094 
Q 5113 2597 4934 2840 
Q 4756 3084 4391 3084 
Q 3944 3084 3684 2787 
Q 3425 2491 3425 1978 
L 3425 0 
L 2847 0 
L 2847 2094 
Q 2847 2600 2669 2842 
Q 2491 3084 2119 3084 
Q 1678 3084 1418 2786 
Q 1159 2488 1159 1978 
L 1159 0 
L 581 0 
L 581 3500 
L 1159 3500 
L 1159 2956 
Q 1356 3278 1631 3431 
Q 1906 3584 2284 3584 
Q 2666 3584 2933 3390 
Q 3200 3197 3328 2828 
z
" transform="scale(0.015625)"/>
       <path id="DejaVuSans-6f" d="M 1959 3097 
Q 1497 3097 1228 2736 
Q 959 2375 959 1747 
Q 959 1119 1226 758 
Q 1494 397 1959 397 
Q 2419 397 2687 759 
Q 2956 1122 2956 1747 
Q 2956 2369 2687 2733 
Q 2419 3097 1959 3097 
z
M 1959 3584 
Q 2709 3584 3137 3096 
Q 3566 2609 3566 1747 
Q 3566 888 3137 398 
Q 2709 -91 1959 -91 
Q 1206 -91 779 398 
Q 353 888 353 1747 
Q 353 2609 779 3096 
Q 1206 3584 1959 3584 
z
" transform="scale(0.015625)"/>
       <path id="DejaVuSans-29" d="M 513 4856 
L 1013 4856 
Q 1481 4119 1714 3412 
Q 1947 2706 1947 2009 
Q 1947 1309 1714 600 
Q 1481 -109 1013 -844 
L 513 -844 
Q 928 -128 1133 580 
Q 1338 1288 1338 2009 
Q 1338 2731 1133 3434 
Q 928 4138 513 4856 
z
" transform="scale(0.015625)"/>
      </defs>
      <use xlink:href="#DejaVuSans-45"/>
      <use xlink:href="#DejaVuSans-6e" x="63.183594"/>
      <use xlink:href="#DejaVuSans-65" x="126.5625"/>
      <use xlink:href="#DejaVuSans-72" x="188.085938"/>
      <use xlink:href="#DejaVuSans-67" x="227.449219"/>
      <use xlink:href="#DejaVuSans-79" x="290.925781"/>
      <use xlink:href="#DejaVuSans-20" x="350.105469"/>
      <use xlink:href="#DejaVuSans-28" x="381.892578"/>
      <use xlink:href="#DejaVuSans-6b" x="420.90625"/>
      <use xlink:href="#DejaVuSans-63" x="478.816406"/>
      <use xlink:href="#DejaVuSans-61" x="533.796875"/>
      <use xlink:href="#DejaVuSans-6c" x="595.076172"/>
      <use xlink:href="#DejaVuSans-2f" x="622.859375"/>
      <use xlink:href="#DejaVuSans-6d" x="656.550781"/>
      <use xlink:href="#DejaVuSans-6f" x="753.962891"/>
      <use xlink:href="#DejaVuSans-6c" x="815.144531"/>
      <use xlink:href="#DejaVuSans-29" x="842.927734"/>
     </g>
    </g>
   </g>
   <g id="patch_3">
    <path d="M 63.193867 135.147016 
L 69.892301 135.147016 
L 69.892301 109.599435 
L 63.193867 109.599435 
z
" clip-path="url(#pe0fec8cba5)" style="fill: #e68193; stroke: #ffffff; stroke-linejoin: miter"/>
   </g>
   <g id="patch_4">
    <path d="M 71.566909 135.147016 
L 78.265343 135.147016 
L 78.265343 122.028406 
L 71.566909 122.028406 
z
" clip-path="url(#pe0fec8cba5)" style="fill: #e6837e; stroke: #ffffff; stroke-linejoin: miter"/>
   </g>
   <g id="patch_5">
    <path d="M 79.939951 135.147016 
L 86.638385 135.147016 
L 86.638385 163.158594 
L 79.939951 163.158594 
z
" clip-path="url(#pe0fec8cba5)" style="fill: #e07f53; stroke: #ffffff; stroke-linejoin: miter"/>
   </g>
   <g id="patch_6">
    <path d="M 88.312994 135.147016 
L 95.011427 135.147016 
L 95.011427 109.483236 
L 88.312994 109.483236 
z
" clip-path="url(#pe0fec8cba5)" style="fill: #cd8648; stroke: #ffffff; stroke-linejoin: miter"/>
   </g>
   <g id="patch_7">
    <path d="M 96.686036 135.147016 
L 103.38447 135.147016 
L 103.38447 120.477379 
L 96.686036 120.477379 
z
" clip-path="url(#pe0fec8cba5)" style="fill: #be8b46; stroke: #ffffff; stroke-linejoin: miter"/>
   </g>
   <g id="patch_8">
    <path d="M 105.059078 135.147016 
L 111.757512 135.147016 
L 111.757512 115.017847 
L 105.059078 115.017847 
z
" clip-path="url(#pe0fec8cba5)" style="fill: #b28e44; stroke: #ffffff; stroke-linejoin: miter"/>
   </g>
   <g id="patch_9">
    <path d="M 113.43212 135.147016 
L 120.130554 135.147016 
L 120.130554 146.332152 
L 113.43212 146.332152 
z
" clip-path="url(#pe0fec8cba5)" style="fill: #a79042; stroke: #ffffff; stroke-linejoin: miter"/>
   </g>
   <g id="patch_10">
    <path d="M 121.805163 135.147016 
L 128.503597 135.147016 
L 128.503597 114.192228 
L 121.805163 114.192228 
z
" clip-path="url(#pe0fec8cba5)" style="fill: #9c9241; stroke: #ffffff; stroke-linejoin: miter"/>
   </g>
   <g id="patch_11">
    <path d="M 130.178205 135.147016 
L 136.876639 135.147016 
L 136.876639 98.820738 
L 130.178205 98.820738 
z
" clip-path="url(#pe0fec8cba5)" style="fill: #91943f; stroke: #ffffff; stroke-linejoin: miter"/>
   </g>
   <g id="patch_12">
    <path d="M 138.551247 135.147016 
L 145.249681 135.147016 
L 145.249681 127.398818 
L 138.551247 127.398818 
z
" clip-path="url(#pe0fec8cba5)" style="fill: #869740; stroke: #ffffff; stroke-linejoin: miter"/>
   </g>
   <g id="patch_13">
    <path d="M 146.92429 135.147016 
L 153.622723 135.147016 
L 153.622723 153.987169 
L 146.92429 153.987169 
z
" clip-path="url(#pe0fec8cba5)" style="fill: #789b40; stroke: #ffffff; stroke-linejoin: miter"/>
   </g>
   <g id="patch_14">
    <path d="M 155.297332 135.147016 
L 161.995766 135.147016 
L 161.995766 127.13742 
L 155.297332 127.13742 
z
" clip-path="url(#pe0fec8cba5)" style="fill: #639f41; stroke: #ffffff; stroke-linejoin: miter"/>
   </g>
   <g id="patch_15">
    <path d="M 163.670374 135.147016 
L 170.368808 135.147016 
L 170.368808 94.478346 
L 163.670374 94.478346 
z
" clip-path="url(#pe0fec8cba5)" style="fill: #42a350; stroke: #ffffff; stroke-linejoin: miter"/>
   </g>
   <g id="patch_16">
    <path d="M 172.043416 135.147016 
L 178.74185 135.147016 
L 178.74185 122.32571 
L 172.043416 122.32571 
z
" clip-path="url(#pe0fec8cba5)" style="fill: #43a16e; stroke: #ffffff; stroke-linejoin: miter"/>
   </g>
   <g id="patch_17">
    <path d="M 180.416459 135.147016 
L 187.114892 135.147016 
L 187.114892 113.230203 
L 180.416459 113.230203 
z
" clip-path="url(#pe0fec8cba5)" style="fill: #43a07d; stroke: #ffffff; stroke-linejoin: miter"/>
   </g>
   <g id="patch_18">
    <path d="M 188.789501 135.147016 
L 195.487935 135.147016 
L 195.487935 126.851785 
L 188.789501 126.851785 
z
" clip-path="url(#pe0fec8cba5)" style="fill: #449f88; stroke: #ffffff; stroke-linejoin: miter"/>
   </g>
   <g id="patch_19">
    <path d="M 197.162543 135.147016 
L 203.860977 135.147016 
L 203.860977 124.888983 
L 197.162543 124.888983 
z
" clip-path="url(#pe0fec8cba5)" style="fill: #449f90; stroke: #ffffff; stroke-linejoin: miter"/>
   </g>
   <g id="patch_20">
    <path d="M 205.535585 135.147016 
L 212.234019 135.147016 
L 212.234019 117.894652 
L 205.535585 117.894652 
z
" clip-path="url(#pe0fec8cba5)" style="fill: #459e97; stroke: #ffffff; stroke-linejoin: miter"/>
   </g>
   <g id="patch_21">
    <path d="M 213.908628 135.147016 
L 220.607062 135.147016 
L 220.607062 120.048821 
L 213.908628 120.048821 
z
" clip-path="url(#pe0fec8cba5)" style="fill: #459d9e; stroke: #ffffff; stroke-linejoin: miter"/>
   </g>
   <g id="patch_22">
    <path d="M 222.28167 135.147016 
L 228.980104 135.147016 
L 228.980104 121.405406 
L 222.28167 121.405406 
z
" clip-path="url(#pe0fec8cba5)" style="fill: #479ea6; stroke: #ffffff; stroke-linejoin: miter"/>
   </g>
   <g id="patch_23">
    <path d="M 230.654712 135.147016 
L 237.353146 135.147016 
L 237.353146 142.838275 
L 230.654712 142.838275 
z
" clip-path="url(#pe0fec8cba5)" style="fill: #499eaf; stroke: #ffffff; stroke-linejoin: miter"/>
   </g>
   <g id="patch_24">
    <path d="M 239.027755 135.147016 
L 245.726188 135.147016 
L 245.726188 156.286752 
L 239.027755 156.286752 
z
" clip-path="url(#pe0fec8cba5)" style="fill: #4b9fba; stroke: #ffffff; stroke-linejoin: miter"/>
   </g>
   <g id="patch_25">
    <path d="M 247.400797 135.147016 
L 254.099231 135.147016 
L 254.099231 105.603895 
L 247.400797 105.603895 
z
" clip-path="url(#pe0fec8cba5)" style="fill: #4e9fc9; stroke: #ffffff; stroke-linejoin: miter"/>
   </g>
   <g id="patch_26">
    <path d="M 255.773839 135.147016 
L 262.472273 135.147016 
L 262.472273 122.165101 
L 255.773839 122.165101 
z
" clip-path="url(#pe0fec8cba5)" style="fill: #57a0de; stroke: #ffffff; stroke-linejoin: miter"/>
   </g>
   <g id="patch_27">
    <path d="M 264.146881 135.147016 
L 270.845315 135.147016 
L 270.845315 127.556548 
L 264.146881 127.556548 
z
" clip-path="url(#pe0fec8cba5)" style="fill: #86a0e5; stroke: #ffffff; stroke-linejoin: miter"/>
   </g>
   <g id="patch_28">
    <path d="M 272.519924 135.147016 
L 279.218358 135.147016 
L 279.218358 122.591893 
L 272.519924 122.591893 
z
" clip-path="url(#pe0fec8cba5)" style="fill: #a29de8; stroke: #ffffff; stroke-linejoin: miter"/>
   </g>
   <g id="patch_29">
    <path d="M 280.892966 135.147016 
L 287.5914 135.147016 
L 287.5914 143.715754 
L 280.892966 143.715754 
z
" clip-path="url(#pe0fec8cba5)" style="fill: #b495e7; stroke: #ffffff; stroke-linejoin: miter"/>
   </g>
   <g id="patch_30">
    <path d="M 289.266008 135.147016 
L 295.964442 135.147016 
L 295.964442 104.685088 
L 289.266008 104.685088 
z
" clip-path="url(#pe0fec8cba5)" style="fill: #c48be5; stroke: #ffffff; stroke-linejoin: miter"/>
   </g>
   <g id="patch_31">
    <path d="M 297.639051 135.147016 
L 304.337484 135.147016 
L 304.337484 118.148294 
L 297.639051 118.148294 
z
" clip-path="url(#pe0fec8cba5)" style="fill: #d47ee3; stroke: #ffffff; stroke-linejoin: miter"/>
   </g>
   <g id="patch_32">
    <path d="M 306.012093 135.147016 
L 312.710527 135.147016 
L 312.710527 128.866589 
L 306.012093 128.866589 
z
" clip-path="url(#pe0fec8cba5)" style="fill: #e16fdd; stroke: #ffffff; stroke-linejoin: miter"/>
   </g>
   <g id="patch_33">
    <path d="M 314.385135 135.147016 
L 321.083569 135.147016 
L 321.083569 119.234964 
L 314.385135 119.234964 
z
" clip-path="url(#pe0fec8cba5)" style="fill: #e375cd; stroke: #ffffff; stroke-linejoin: miter"/>
   </g>
   <g id="patch_34">
    <path d="M 322.758177 135.147016 
L 329.456611 135.147016 
L 329.456611 99.12321 
L 322.758177 99.12321 
z
" clip-path="url(#pe0fec8cba5)" style="fill: #e479bf; stroke: #ffffff; stroke-linejoin: miter"/>
   </g>
   <g id="patch_35">
    <path d="M 331.13122 135.147016 
L 337.829653 135.147016 
L 337.829653 116.557316 
L 331.13122 116.557316 
z
" clip-path="url(#pe0fec8cba5)" style="fill: #e57cb2; stroke: #ffffff; stroke-linejoin: miter"/>
   </g>
   <g id="patch_36">
    <path d="M 339.504262 135.147016 
L 346.202696 135.147016 
L 346.202696 109.926298 
L 339.504262 109.926298 
z
" clip-path="url(#pe0fec8cba5)" style="fill: #e57fa4; stroke: #ffffff; stroke-linejoin: miter"/>
   </g>
   <g id="LineCollection_1">
    <path d="M 66.543084 86.755555 
L 66.543084 132.443315 
" clip-path="url(#pe0fec8cba5)" style="fill: none; stroke: #000000; stroke-width: 0.7"/>
    <path d="M 74.916126 115.079135 
L 74.916126 128.977676 
" clip-path="url(#pe0fec8cba5)" style="fill: none; stroke: #000000; stroke-width: 0.7"/>
    <path d="M 83.289168 152.618357 
L 83.289168 173.698831 
" clip-path="url(#pe0fec8cba5)" style="fill: none; stroke: #000000; stroke-width: 0.7"/>
    <path d="M 91.66221 98.602768 
L 91.66221 120.363705 
" clip-path="url(#pe0fec8cba5)" style="fill: none; stroke: #000000; stroke-width: 0.7"/>
    <path d="M 100.035253 110.724835 
L 100.035253 130.229923 
" clip-path="url(#pe0fec8cba5)" style="fill: none; stroke: #000000; stroke-width: 0.7"/>
    <path d="M 108.408295 110.203296 
L 108.408295 119.832399 
" clip-path="url(#pe0fec8cba5)" style="fill: none; stroke: #000000; stroke-width: 0.7"/>
    <path d="M 116.781337 132.432727 
L 116.781337 160.231577 
" clip-path="url(#pe0fec8cba5)" style="fill: none; stroke: #000000; stroke-width: 0.7"/>
    <path d="M 125.15438 94.715952 
L 125.15438 133.668503 
" clip-path="url(#pe0fec8cba5)" style="fill: none; stroke: #000000; stroke-width: 0.7"/>
    <path d="M 133.527422 61.502122 
L 133.527422 136.139355 
" clip-path="url(#pe0fec8cba5)" style="fill: none; stroke: #000000; stroke-width: 0.7"/>
    <path d="M 141.900464 120.49084 
L 141.900464 134.306795 
" clip-path="url(#pe0fec8cba5)" style="fill: none; stroke: #000000; stroke-width: 0.7"/>
    <path d="M 150.273506 146.859868 
L 150.273506 161.114469 
" clip-path="url(#pe0fec8cba5)" style="fill: none; stroke: #000000; stroke-width: 0.7"/>
    <path d="M 158.646549 120.413938 
L 158.646549 133.860902 
" clip-path="url(#pe0fec8cba5)" style="fill: none; stroke: #000000; stroke-width: 0.7"/>
    <path d="M 167.019591 67.031243 
L 167.019591 121.925449 
" clip-path="url(#pe0fec8cba5)" style="fill: none; stroke: #000000; stroke-width: 0.7"/>
    <path d="M 175.392633 102.748443 
L 175.392633 141.902977 
" clip-path="url(#pe0fec8cba5)" style="fill: none; stroke: #000000; stroke-width: 0.7"/>
    <path d="M 183.765676 96.222272 
L 183.765676 130.238133 
" clip-path="url(#pe0fec8cba5)" style="fill: none; stroke: #000000; stroke-width: 0.7"/>
    <path d="M 192.138718 121.469671 
L 192.138718 132.2339 
" clip-path="url(#pe0fec8cba5)" style="fill: none; stroke: #000000; stroke-width: 0.7"/>
    <path d="M 200.51176 121.099385 
L 200.51176 128.678582 
" clip-path="url(#pe0fec8cba5)" style="fill: none; stroke: #000000; stroke-width: 0.7"/>
    <path d="M 208.884802 112.163477 
L 208.884802 123.625828 
" clip-path="url(#pe0fec8cba5)" style="fill: none; stroke: #000000; stroke-width: 0.7"/>
    <path d="M 217.257845 108.511853 
L 217.257845 131.585788 
" clip-path="url(#pe0fec8cba5)" style="fill: none; stroke: #000000; stroke-width: 0.7"/>
    <path d="M 225.630887 101.780301 
L 225.630887 141.03051 
" clip-path="url(#pe0fec8cba5)" style="fill: none; stroke: #000000; stroke-width: 0.7"/>
    <path d="M 234.003929 137.799825 
L 234.003929 147.876725 
" clip-path="url(#pe0fec8cba5)" style="fill: none; stroke: #000000; stroke-width: 0.7"/>
    <path d="M 242.376972 133.212698 
L 242.376972 179.360805 
" clip-path="url(#pe0fec8cba5)" style="fill: none; stroke: #000000; stroke-width: 0.7"/>
    <path d="M 250.750014 95.570107 
L 250.750014 115.637683 
" clip-path="url(#pe0fec8cba5)" style="fill: none; stroke: #000000; stroke-width: 0.7"/>
    <path d="M 259.123056 95.039761 
L 259.123056 149.290442 
" clip-path="url(#pe0fec8cba5)" style="fill: none; stroke: #000000; stroke-width: 0.7"/>
    <path d="M 267.496098 116.543883 
L 267.496098 138.569213 
" clip-path="url(#pe0fec8cba5)" style="fill: none; stroke: #000000; stroke-width: 0.7"/>
    <path d="M 275.869141 97.404962 
L 275.869141 147.778824 
" clip-path="url(#pe0fec8cba5)" style="fill: none; stroke: #000000; stroke-width: 0.7"/>
    <path d="M 284.242183 126.273627 
L 284.242183 161.157881 
" clip-path="url(#pe0fec8cba5)" style="fill: none; stroke: #000000; stroke-width: 0.7"/>
    <path d="M 292.615225 92.040141 
L 292.615225 117.330036 
" clip-path="url(#pe0fec8cba5)" style="fill: none; stroke: #000000; stroke-width: 0.7"/>
    <path d="M 300.988267 87.348821 
L 300.988267 148.947766 
" clip-path="url(#pe0fec8cba5)" style="fill: none; stroke: #000000; stroke-width: 0.7"/>
    <path d="M 309.36131 114.293955 
L 309.36131 143.439224 
" clip-path="url(#pe0fec8cba5)" style="fill: none; stroke: #000000; stroke-width: 0.7"/>
    <path d="M 317.734352 105.47691 
L 317.734352 132.993019 
" clip-path="url(#pe0fec8cba5)" style="fill: none; stroke: #000000; stroke-width: 0.7"/>
    <path d="M 326.107394 83.488559 
L 326.107394 114.757862 
" clip-path="url(#pe0fec8cba5)" style="fill: none; stroke: #000000; stroke-width: 0.7"/>
    <path d="M 334.480437 101.798643 
L 334.480437 131.315988 
" clip-path="url(#pe0fec8cba5)" style="fill: none; stroke: #000000; stroke-width: 0.7"/>
    <path d="M 342.853479 94.415275 
L 342.853479 125.437322 
" clip-path="url(#pe0fec8cba5)" style="fill: none; stroke: #000000; stroke-width: 0.7"/>
   </g>
   <g id="line2d_5">
    <path clip-path="url(#pe0fec8cba5)" style="fill: none; stroke: #424242; stroke-width: 2.7; stroke-linecap: round"/>
   </g>
   <g id="line2d_6">
    <path clip-path="url(#pe0fec8cba5)" style="fill: none; stroke: #424242; stroke-width: 2.7; stroke-linecap: round"/>
   </g>
   <g id="line2d_7">
    <path clip-path="url(#pe0fec8cba5)" style="fill: none; stroke: #424242; stroke-width: 2.7; stroke-linecap: round"/>
   </g>
   <g id="line2d_8">
    <path clip-path="url(#pe0fec8cba5)" style="fill: none; stroke: #424242; stroke-width: 2.7; stroke-linecap: round"/>
   </g>
   <g id="line2d_9">
    <path clip-path="url(#pe0fec8cba5)" style="fill: none; stroke: #424242; stroke-width: 2.7; stroke-linecap: round"/>
   </g>
   <g id="line2d_10">
    <path clip-path="url(#pe0fec8cba5)" style="fill: none; stroke: #424242; stroke-width: 2.7; stroke-linecap: round"/>
   </g>
   <g id="line2d_11">
    <path clip-path="url(#pe0fec8cba5)" style="fill: none; stroke: #424242; stroke-width: 2.7; stroke-linecap: round"/>
   </g>
   <g id="line2d_12">
    <path clip-path="url(#pe0fec8cba5)" style="fill: none; stroke: #424242; stroke-width: 2.7; stroke-linecap: round"/>
   </g>
   <g id="line2d_13">
    <path clip-path="url(#pe0fec8cba5)" style="fill: none; stroke: #424242; stroke-width: 2.7; stroke-linecap: round"/>
   </g>
   <g id="line2d_14">
    <path clip-path="url(#pe0fec8cba5)" style="fill: none; stroke: #424242; stroke-width: 2.7; stroke-linecap: round"/>
   </g>
   <g id="line2d_15">
    <path clip-path="url(#pe0fec8cba5)" style="fill: none; stroke: #424242; stroke-width: 2.7; stroke-linecap: round"/>
   </g>
   <g id="line2d_16">
    <path clip-path="url(#pe0fec8cba5)" style="fill: none; stroke: #424242; stroke-width: 2.7; stroke-linecap: round"/>
   </g>
   <g id="line2d_17">
    <path clip-path="url(#pe0fec8cba5)" style="fill: none; stroke: #424242; stroke-width: 2.7; stroke-linecap: round"/>
   </g>
   <g id="line2d_18">
    <path clip-path="url(#pe0fec8cba5)" style="fill: none; stroke: #424242; stroke-width: 2.7; stroke-linecap: round"/>
   </g>
   <g id="line2d_19">
    <path clip-path="url(#pe0fec8cba5)" style="fill: none; stroke: #424242; stroke-width: 2.7; stroke-linecap: round"/>
   </g>
   <g id="line2d_20">
    <path clip-path="url(#pe0fec8cba5)" style="fill: none; stroke: #424242; stroke-width: 2.7; stroke-linecap: round"/>
   </g>
   <g id="line2d_21">
    <path clip-path="url(#pe0fec8cba5)" style="fill: none; stroke: #424242; stroke-width: 2.7; stroke-linecap: round"/>
   </g>
   <g id="line2d_22">
    <path clip-path="url(#pe0fec8cba5)" style="fill: none; stroke: #424242; stroke-width: 2.7; stroke-linecap: round"/>
   </g>
   <g id="line2d_23">
    <path clip-path="url(#pe0fec8cba5)" style="fill: none; stroke: #424242; stroke-width: 2.7; stroke-linecap: round"/>
   </g>
   <g id="line2d_24">
    <path clip-path="url(#pe0fec8cba5)" style="fill: none; stroke: #424242; stroke-width: 2.7; stroke-linecap: round"/>
   </g>
   <g id="line2d_25">
    <path clip-path="url(#pe0fec8cba5)" style="fill: none; stroke: #424242; stroke-width: 2.7; stroke-linecap: round"/>
   </g>
   <g id="line2d_26">
    <path clip-path="url(#pe0fec8cba5)" style="fill: none; stroke: #424242; stroke-width: 2.7; stroke-linecap: round"/>
   </g>
   <g id="line2d_27">
    <path clip-path="url(#pe0fec8cba5)" style="fill: none; stroke: #424242; stroke-width: 2.7; stroke-linecap: round"/>
   </g>
   <g id="line2d_28">
    <path clip-path="url(#pe0fec8cba5)" style="fill: none; stroke: #424242; stroke-width: 2.7; stroke-linecap: round"/>
   </g>
   <g id="line2d_29">
    <path clip-path="url(#pe0fec8cba5)" style="fill: none; stroke: #424242; stroke-width: 2.7; stroke-linecap: round"/>
   </g>
   <g id="line2d_30">
    <path clip-path="url(#pe0fec8cba5)" style="fill: none; stroke: #424242; stroke-width: 2.7; stroke-linecap: round"/>
   </g>
   <g id="line2d_31">
    <path clip-path="url(#pe0fec8cba5)" style="fill: none; stroke: #424242; stroke-width: 2.7; stroke-linecap: round"/>
   </g>
   <g id="line2d_32">
    <path clip-path="url(#pe0fec8cba5)" style="fill: none; stroke: #424242; stroke-width: 2.7; stroke-linecap: round"/>
   </g>
   <g id="line2d_33">
    <path clip-path="url(#pe0fec8cba5)" style="fill: none; stroke: #424242; stroke-width: 2.7; stroke-linecap: round"/>
   </g>
   <g id="line2d_34">
    <path clip-path="url(#pe0fec8cba5)" style="fill: none; stroke: #424242; stroke-width: 2.7; stroke-linecap: round"/>
   </g>
   <g id="line2d_35">
    <path clip-path="url(#pe0fec8cba5)" style="fill: none; stroke: #424242; stroke-width: 2.7; stroke-linecap: round"/>
   </g>
   <g id="line2d_36">
    <path clip-path="url(#pe0fec8cba5)" style="fill: none; stroke: #424242; stroke-width: 2.7; stroke-linecap: round"/>
   </g>
   <g id="line2d_37">
    <path clip-path="url(#pe0fec8cba5)" style="fill: none; stroke: #424242; stroke-width: 2.7; stroke-linecap: round"/>
   </g>
   <g id="line2d_38">
    <path clip-path="url(#pe0fec8cba5)" style="fill: none; stroke: #424242; stroke-width: 2.7; stroke-linecap: round"/>
   </g>
   <g id="patch_37">
    <path d="M 62.356563 185.253739 
L 62.356563 55.609188 
" style="fill: none; stroke: #ffffff; stroke-width: 1.25; stroke-linejoin: miter; stroke-linecap: square"/>
   </g>
   <g id="patch_38">
    <path d="M 347.04 185.253739 
L 347.04 55.609188 
" style="fill: none; stroke: #ffffff; stroke-width: 1.25; stroke-linejoin: miter; stroke-linecap: square"/>
   </g>
   <g id="patch_39">
    <path d="M 62.356563 185.253739 
L 347.04 185.253739 
" style="fill: none; stroke: #ffffff; stroke-width: 1.25; stroke-linejoin: miter; stroke-linecap: square"/>
   </g>
   <g id="patch_40">
    <path d="M 62.356563 55.609187 
L 347.04 55.609187 
" style="fill: none; stroke: #ffffff; stroke-width: 1.25; stroke-linejoin: miter; stroke-linecap: square"/>
   </g>
  </g>
  <g id="text_40">
   <!-- Energetic Components [Per-residue] -->
   <g style="fill: #262626" transform="translate(53.55375 15.605813)scale(0.14 -0.14)">
    <defs>
     <path id="DejaVuSans-74" d="M 1172 4494 
L 1172 3500 
L 2356 3500 
L 2356 3053 
L 1172 3053 
L 1172 1153 
Q 1172 725 1289 603 
Q 1406 481 1766 481 
L 2356 481 
L 2356 0 
L 1766 0 
Q 1100 0 847 248 
Q 594 497 594 1153 
L 594 3053 
L 172 3053 
L 172 3500 
L 594 3500 
L 594 4494 
L 1172 4494 
z
" transform="scale(0.015625)"/>
     <path id="DejaVuSans-69" d="M 603 3500 
L 1178 3500 
L 1178 0 
L 603 0 
L 603 3500 
z
M 603 4863 
L 1178 4863 
L 1178 4134 
L 603 4134 
L 603 4863 
z
" transform="scale(0.015625)"/>
     <path id="DejaVuSans-70" d="M 1159 525 
L 1159 -1331 
L 581 -1331 
L 581 3500 
L 1159 3500 
L 1159 2969 
Q 1341 3281 1617 3432 
Q 1894 3584 2278 3584 
Q 2916 3584 3314 3078 
Q 3713 2572 3713 1747 
Q 3713 922 3314 415 
Q 2916 -91 2278 -91 
Q 1894 -91 1617 61 
Q 1341 213 1159 525 
z
M 3116 1747 
Q 3116 2381 2855 2742 
Q 2594 3103 2138 3103 
Q 1681 3103 1420 2742 
Q 1159 2381 1159 1747 
Q 1159 1113 1420 752 
Q 1681 391 2138 391 
Q 2594 391 2855 752 
Q 3116 1113 3116 1747 
z
" transform="scale(0.015625)"/>
     <path id="DejaVuSans-73" d="M 2834 3397 
L 2834 2853 
Q 2591 2978 2328 3040 
Q 2066 3103 1784 3103 
Q 1356 3103 1142 2972 
Q 928 2841 928 2578 
Q 928 2378 1081 2264 
Q 1234 2150 1697 2047 
L 1894 2003 
Q 2506 1872 2764 1633 
Q 3022 1394 3022 966 
Q 3022 478 2636 193 
Q 2250 -91 1575 -91 
Q 1294 -91 989 -36 
Q 684 19 347 128 
L 347 722 
Q 666 556 975 473 
Q 1284 391 1588 391 
Q 1994 391 2212 530 
Q 2431 669 2431 922 
Q 2431 1156 2273 1281 
Q 2116 1406 1581 1522 
L 1381 1569 
Q 847 1681 609 1914 
Q 372 2147 372 2553 
Q 372 3047 722 3315 
Q 1072 3584 1716 3584 
Q 2034 3584 2315 3537 
Q 2597 3491 2834 3397 
z
" transform="scale(0.015625)"/>
     <path id="DejaVuSans-5b" d="M 550 4863 
L 1875 4863 
L 1875 4416 
L 1125 4416 
L 1125 -397 
L 1875 -397 
L 1875 -844 
L 550 -844 
L 550 4863 
z
" transform="scale(0.015625)"/>
     <path id="DejaVuSans-2d" d="M 313 2009 
L 1997 2009 
L 1997 1497 
L 313 1497 
L 313 2009 
z
" transform="scale(0.015625)"/>
     <path id="DejaVuSans-64" d="M 2906 2969 
L 2906 4863 
L 3481 4863 
L 3481 0 
L 2906 0 
L 2906 525 
Q 2725 213 2448 61 
Q 2172 -91 1784 -91 
Q 1150 -91 751 415 
Q 353 922 353 1747 
Q 353 2572 751 3078 
Q 1150 3584 1784 3584 
Q 2172 3584 2448 3432 
Q 2725 3281 2906 2969 
z
M 947 1747 
Q 947 1113 1208 752 
Q 1469 391 1925 391 
Q 2381 391 2643 752 
Q 2906 1113 2906 1747 
Q 2906 2381 2643 2742 
Q 2381 3103 1925 3103 
Q 1469 3103 1208 2742 
Q 947 2381 947 1747 
z
" transform="scale(0.015625)"/>
     <path id="DejaVuSans-75" d="M 544 1381 
L 544 3500 
L 1119 3500 
L 1119 1403 
Q 1119 906 1312 657 
Q 1506 409 1894 409 
Q 2359 409 2629 706 
Q 2900 1003 2900 1516 
L 2900 3500 
L 3475 3500 
L 3475 0 
L 2900 0 
L 2900 538 
Q 2691 219 2414 64 
Q 2138 -91 1772 -91 
Q 1169 -91 856 284 
Q 544 659 544 1381 
z
M 1991 3584 
L 1991 3584 
z
" transform="scale(0.015625)"/>
     <path id="DejaVuSans-5d" d="M 1947 4863 
L 1947 -844 
L 622 -844 
L 622 -397 
L 1369 -397 
L 1369 4416 
L 622 4416 
L 622 4863 
L 1947 4863 
z
" transform="scale(0.015625)"/>
    </defs>
    <use xlink:href="#DejaVuSans-45"/>
    <use xlink:href="#DejaVuSans-6e" x="63.183594"/>
    <use xlink:href="#DejaVuSans-65" x="126.5625"/>
    <use xlink:href="#DejaVuSans-72" x="188.085938"/>
    <use xlink:href="#DejaVuSans-67" x="227.449219"/>
    <use xlink:href="#DejaVuSans-65" x="290.925781"/>
    <use xlink:href="#DejaVuSans-74" x="352.449219"/>
    <use xlink:href="#DejaVuSans-69" x="391.658203"/>
    <use xlink:href="#DejaVuSans-63" x="419.441406"/>
    <use xlink:href="#DejaVuSans-20" x="474.421875"/>
    <use xlink:href="#DejaVuSans-43" x="506.208984"/>
    <use xlink:href="#DejaVuSans-6f" x="576.033203"/>
    <use xlink:href="#DejaVuSans-6d" x="637.214844"/>
    <use xlink:href="#DejaVuSans-70" x="734.626953"/>
    <use xlink:href="#DejaVuSans-6f" x="798.103516"/>
    <use xlink:href="#DejaVuSans-6e" x="859.285156"/>
    <use xlink:href="#DejaVuSans-65" x="922.664062"/>
    <use xlink:href="#DejaVuSans-6e" x="984.1875"/>
    <use xlink:href="#DejaVuSans-74" x="1047.566406"/>
    <use xlink:href="#DejaVuSans-73" x="1086.775391"/>
    <use xlink:href="#DejaVuSans-20" x="1138.875"/>
    <use xlink:href="#DejaVuSans-5b" x="1170.662109"/>
    <use xlink:href="#DejaVuSans-50" x="1209.675781"/>
    <use xlink:href="#DejaVuSans-65" x="1266.353516"/>
    <use xlink:href="#DejaVuSans-72" x="1327.876953"/>
    <use xlink:href="#DejaVuSans-2d" x="1362.615234"/>
    <use xlink:href="#DejaVuSans-72" x="1398.699219"/>
    <use xlink:href="#DejaVuSans-65" x="1437.5625"/>
    <use xlink:href="#DejaVuSans-73" x="1499.085938"/>
    <use xlink:href="#DejaVuSans-69" x="1551.185547"/>
    <use xlink:href="#DejaVuSans-64" x="1578.96875"/>
    <use xlink:href="#DejaVuSans-75" x="1642.445312"/>
    <use xlink:href="#DejaVuSans-65" x="1705.824219"/>
    <use xlink:href="#DejaVuSans-5d" x="1767.347656"/>
   </g>
   <!-- System-1 | NORMAL | GB | Delta | TDC -->
   <g style="fill: #262626" transform="translate(45.892031 31.35625)scale(0.14 -0.14)">
    <defs>
     <path id="DejaVuSans-7c" d="M 1344 4891 
L 1344 -1509 
L 813 -1509 
L 813 4891 
L 1344 4891 
z
" transform="scale(0.015625)"/>
     <path id="DejaVuSans-4f" d="M 2522 4238 
Q 1834 4238 1429 3725 
Q 1025 3213 1025 2328 
Q 1025 1447 1429 934 
Q 1834 422 2522 422 
Q 3209 422 3611 934 
Q 4013 1447 4013 2328 
Q 4013 3213 3611 3725 
Q 3209 4238 2522 4238 
z
M 2522 4750 
Q 3503 4750 4090 4092 
Q 4678 3434 4678 2328 
Q 4678 1225 4090 567 
Q 3503 -91 2522 -91 
Q 1538 -91 948 565 
Q 359 1222 359 2328 
Q 359 3434 948 4092 
Q 1538 4750 2522 4750 
z
" transform="scale(0.015625)"/>
     <path id="DejaVuSans-44" d="M 1259 4147 
L 1259 519 
L 2022 519 
Q 2988 519 3436 956 
Q 3884 1394 3884 2338 
Q 3884 3275 3436 3711 
Q 2988 4147 2022 4147 
L 1259 4147 
z
M 628 4666 
L 1925 4666 
Q 3281 4666 3915 4102 
Q 4550 3538 4550 2338 
Q 4550 1131 3912 565 
Q 3275 0 1925 0 
L 628 0 
L 628 4666 
z
" transform="scale(0.015625)"/>
    </defs>
    <use xlink:href="#DejaVuSans-53"/>
    <use xlink:href="#DejaVuSans-79" x="63.476562"/>
    <use xlink:href="#DejaVuSans-73" x="122.65625"/>
    <use xlink:href="#DejaVuSans-74" x="174.755859"/>
    <use xlink:href="#DejaVuSans-65" x="213.964844"/>
    <use xlink:href="#DejaVuSans-6d" x="275.488281"/>
    <use xlink:href="#DejaVuSans-2d" x="372.900391"/>
    <use xlink:href="#DejaVuSans-31" x="408.984375"/>
    <use xlink:href="#DejaVuSans-20" x="472.607422"/>
    <use xlink:href="#DejaVuSans-7c" x="504.394531"/>
    <use xlink:href="#DejaVuSans-20" x="538.085938"/>
    <use xlink:href="#DejaVuSans-4e" x="569.873047"/>
    <use xlink:href="#DejaVuSans-4f" x="644.677734"/>
    <use xlink:href="#DejaVuSans-52" x="723.388672"/>
    <use xlink:href="#DejaVuSans-4d" x="792.871094"/>
    <use xlink:href="#DejaVuSans-41" x="879.150391"/>
    <use xlink:href="#DejaVuSans-4c" x="947.558594"/>
    <use xlink:href="#DejaVuSans-20" x="1003.271484"/>
    <use xlink:href="#DejaVuSans-7c" x="1035.058594"/>
    <use xlink:href="#DejaVuSans-20" x="1068.75"/>
    <use xlink:href="#DejaVuSans-47" x="1100.537109"/>
    <use xlink:href="#DejaVuSans-42" x="1178.027344"/>
    <use xlink:href="#DejaVuSans-20" x="1246.630859"/>
    <use xlink:href="#DejaVuSans-7c" x="1278.417969"/>
    <use xlink:href="#DejaVuSans-20" x="1312.109375"/>
    <use xlink:href="#DejaVuSans-44" x="1343.896484"/>
    <use xlink:href="#DejaVuSans-65" x="1420.898438"/>
    <use xlink:href="#DejaVuSans-6c" x="1482.421875"/>
    <use xlink:href="#DejaVuSans-74" x="1510.205078"/>
    <use xlink:href="#DejaVuSans-61" x="1549.414062"/>
    <use xlink:href="#DejaVuSans-20" x="1610.693359"/>
    <use xlink:href="#DejaVuSans-7c" x="1642.480469"/>
    <use xlink:href="#DejaVuSans-20" x="1676.171875"/>
    <use xlink:href="#DejaVuSans-54" x="1707.958984"/>
    <use xlink:href="#DejaVuSans-44" x="1769.042969"/>
    <use xlink:href="#DejaVuSans-43" x="1846.044922"/>
   </g>
  </g>
 </g>
 <defs>
  <clipPath id="pe0fec8cba5">
   <rect x="62.356563" y="55.609187" width="284.683437" height="129.644551"/>
  </clipPath>
 </defs>
</svg>
