<?xml version="1.0" encoding="utf-8" standalone="no"?>
<!DOCTYPE svg PUBLIC "-//W3C//DTD SVG 1.1//EN"
  "http://www.w3.org/Graphics/SVG/1.1/DTD/svg11.dtd">
<svg xmlns:xlink="http://www.w3.org/1999/xlink" width="576pt" height="248.4pt" viewBox="0 0 576 248.4" xmlns="http://www.w3.org/2000/svg" version="1.1">
 <metadata>
  <rdf:RDF xmlns:dc="http://purl.org/dc/elements/1.1/" xmlns:cc="http://creativecommons.org/ns#" xmlns:rdf="http://www.w3.org/1999/02/22-rdf-syntax-ns#">
   <cc:Work>
    <dc:type rdf:resource="http://purl.org/dc/dcmitype/StillImage"/>
    <dc:date>2024-10-20T17:24:58.250688</dc:date>
    <dc:format>image/svg+xml</dc:format>
    <dc:creator>
     <cc:Agent>
      <dc:title>Matplotlib v3.5.2, https://matplotlib.org/</dc:title>
     </cc:Agent>
    </dc:creator>
   </cc:Work>
  </rdf:RDF>
 </metadata>
 <defs>
  <style type="text/css">*{stroke-linejoin: round; stroke-linecap: butt}</style>
 </defs>
 <g id="figure_1">
  <g id="patch_1">
   <path d="M 0 248.4 
L 576 248.4 
L 576 0 
L 0 0 
z
" style="fill: #ffffff"/>
  </g>
  <g id="axes_1">
   <g id="patch_2">
    <path d="M 59.178438 200.648125 
L 550.760701 200.648125 
L 550.760701 55.609187 
L 59.178438 55.609187 
z
" style="fill: #eaeaf2"/>
   </g>
   <g id="matplotlib.axis_1">
    <g id="xtick_1">
     <g id="line2d_1">
      <path d="M 81.076193 200.648125 
L 81.076193 55.609187 
" clip-path="url(#p5043eec2b6)" style="fill: none; stroke: #ffffff; stroke-linecap: round"/>
     </g>
     <g id="text_1">
      <!-- 0 -->
      <g style="fill: #262626" transform="translate(77.894943 217.746562)scale(0.1 -0.1)">
       <defs>
        <path id="DejaVuSans-30" d="M 2034 4250 
Q 1547 4250 1301 3770 
Q 1056 3291 1056 2328 
Q 1056 1369 1301 889 
Q 1547 409 2034 409 
Q 2525 409 2770 889 
Q 3016 1369 3016 2328 
Q 3016 3291 2770 3770 
Q 2525 4250 2034 4250 
z
M 2034 4750 
Q 2819 4750 3233 4129 
Q 3647 3509 3647 2328 
Q 3647 1150 3233 529 
Q 2819 -91 2034 -91 
Q 1250 -91 836 529 
Q 422 1150 422 2328 
Q 422 3509 836 4129 
Q 1250 4750 2034 4750 
z
" transform="scale(0.015625)"/>
       </defs>
       <use xlink:href="#DejaVuSans-30"/>
      </g>
     </g>
    </g>
    <g id="xtick_2">
     <g id="line2d_2">
      <path d="M 148.110138 200.648125 
L 148.110138 55.609187 
" clip-path="url(#p5043eec2b6)" style="fill: none; stroke: #ffffff; stroke-linecap: round"/>
     </g>
     <g id="text_2">
      <!-- 150 -->
      <g style="fill: #262626" transform="translate(138.566388 217.746562)scale(0.1 -0.1)">
       <defs>
        <path id="DejaVuSans-31" d="M 794 531 
L 1825 531 
L 1825 4091 
L 703 3866 
L 703 4441 
L 1819 4666 
L 2450 4666 
L 2450 531 
L 3481 531 
L 3481 0 
L 794 0 
L 794 531 
z
" transform="scale(0.015625)"/>
        <path id="DejaVuSans-35" d="M 691 4666 
L 3169 4666 
L 3169 4134 
L 1269 4134 
L 1269 2991 
Q 1406 3038 1543 3061 
Q 1681 3084 1819 3084 
Q 2600 3084 3056 2656 
Q 3513 2228 3513 1497 
Q 3513 744 3044 326 
Q 2575 -91 1722 -91 
Q 1428 -91 1123 -41 
Q 819 9 494 109 
L 494 744 
Q 775 591 1075 516 
Q 1375 441 1709 441 
Q 2250 441 2565 725 
Q 2881 1009 2881 1497 
Q 2881 1984 2565 2268 
Q 2250 2553 1709 2553 
Q 1456 2553 1204 2497 
Q 953 2441 691 2322 
L 691 4666 
z
" transform="scale(0.015625)"/>
       </defs>
       <use xlink:href="#DejaVuSans-31"/>
       <use xlink:href="#DejaVuSans-35" x="63.623047"/>
       <use xlink:href="#DejaVuSans-30" x="127.246094"/>
      </g>
     </g>
    </g>
    <g id="xtick_3">
     <g id="line2d_3">
      <path d="M 215.144083 200.648125 
L 215.144083 55.609187 
" clip-path="url(#p5043eec2b6)" style="fill: none; stroke: #ffffff; stroke-linecap: round"/>
     </g>
     <g id="text_3">
      <!-- 300 -->
      <g style="fill: #262626" transform="translate(205.600333 217.746562)scale(0.1 -0.1)">
       <defs>
        <path id="DejaVuSans-33" d="M 2597 2516 
Q 3050 2419 3304 2112 
Q 3559 1806 3559 1356 
Q 3559 666 3084 287 
Q 2609 -91 1734 -91 
Q 1441 -91 1130 -33 
Q 819 25 488 141 
L 488 750 
Q 750 597 1062 519 
Q 1375 441 1716 441 
Q 2309 441 2620 675 
Q 2931 909 2931 1356 
Q 2931 1769 2642 2001 
Q 2353 2234 1838 2234 
L 1294 2234 
L 1294 2753 
L 1863 2753 
Q 2328 2753 2575 2939 
Q 2822 3125 2822 3475 
Q 2822 3834 2567 4026 
Q 2313 4219 1838 4219 
Q 1578 4219 1281 4162 
Q 984 4106 628 3988 
L 628 4550 
Q 988 4650 1302 4700 
Q 1616 4750 1894 4750 
Q 2613 4750 3031 4423 
Q 3450 4097 3450 3541 
Q 3450 3153 3228 2886 
Q 3006 2619 2597 2516 
z
" transform="scale(0.015625)"/>
       </defs>
       <use xlink:href="#DejaVuSans-33"/>
       <use xlink:href="#DejaVuSans-30" x="63.623047"/>
       <use xlink:href="#DejaVuSans-30" x="127.246094"/>
      </g>
     </g>
    </g>
    <g id="xtick_4">
     <g id="line2d_4">
      <path d="M 282.178028 200.648125 
L 282.178028 55.609187 
" clip-path="url(#p5043eec2b6)" style="fill: none; stroke: #ffffff; stroke-linecap: round"/>
     </g>
     <g id="text_4">
      <!-- 450 -->
      <g style="fill: #262626" transform="translate(272.634278 217.746562)scale(0.1 -0.1)">
       <defs>
        <path id="DejaVuSans-34" d="M 2419 4116 
L 825 1625 
L 2419 1625 
L 2419 4116 
z
M 2253 4666 
L 3047 4666 
L 3047 1625 
L 3713 1625 
L 3713 1100 
L 3047 1100 
L 3047 0 
L 2419 0 
L 2419 1100 
L 313 1100 
L 313 1709 
L 2253 4666 
z
" transform="scale(0.015625)"/>
       </defs>
       <use xlink:href="#DejaVuSans-34"/>
       <use xlink:href="#DejaVuSans-35" x="63.623047"/>
       <use xlink:href="#DejaVuSans-30" x="127.246094"/>
      </g>
     </g>
    </g>
    <g id="xtick_5">
     <g id="line2d_5">
      <path d="M 349.211973 200.648125 
L 349.211973 55.609187 
" clip-path="url(#p5043eec2b6)" style="fill: none; stroke: #ffffff; stroke-linecap: round"/>
     </g>
     <g id="text_5">
      <!-- 600 -->
      <g style="fill: #262626" transform="translate(339.668223 217.746562)scale(0.1 -0.1)">
       <defs>
        <path id="DejaVuSans-36" d="M 2113 2584 
Q 1688 2584 1439 2293 
Q 1191 2003 1191 1497 
Q 1191 994 1439 701 
Q 1688 409 2113 409 
Q 2538 409 2786 701 
Q 3034 994 3034 1497 
Q 3034 2003 2786 2293 
Q 2538 2584 2113 2584 
z
M 3366 4563 
L 3366 3988 
Q 3128 4100 2886 4159 
Q 2644 4219 2406 4219 
Q 1781 4219 1451 3797 
Q 1122 3375 1075 2522 
Q 1259 2794 1537 2939 
Q 1816 3084 2150 3084 
Q 2853 3084 3261 2657 
Q 3669 2231 3669 1497 
Q 3669 778 3244 343 
Q 2819 -91 2113 -91 
Q 1303 -91 875 529 
Q 447 1150 447 2328 
Q 447 3434 972 4092 
Q 1497 4750 2381 4750 
Q 2619 4750 2861 4703 
Q 3103 4656 3366 4563 
z
" transform="scale(0.015625)"/>
       </defs>
       <use xlink:href="#DejaVuSans-36"/>
       <use xlink:href="#DejaVuSans-30" x="63.623047"/>
       <use xlink:href="#DejaVuSans-30" x="127.246094"/>
      </g>
     </g>
    </g>
    <g id="xtick_6">
     <g id="line2d_6">
      <path d="M 416.245918 200.648125 
L 416.245918 55.609187 
" clip-path="url(#p5043eec2b6)" style="fill: none; stroke: #ffffff; stroke-linecap: round"/>
     </g>
     <g id="text_6">
      <!-- 750 -->
      <g style="fill: #262626" transform="translate(406.702168 217.746562)scale(0.1 -0.1)">
       <defs>
        <path id="DejaVuSans-37" d="M 525 4666 
L 3525 4666 
L 3525 4397 
L 1831 0 
L 1172 0 
L 2766 4134 
L 525 4134 
L 525 4666 
z
" transform="scale(0.015625)"/>
       </defs>
       <use xlink:href="#DejaVuSans-37"/>
       <use xlink:href="#DejaVuSans-35" x="63.623047"/>
       <use xlink:href="#DejaVuSans-30" x="127.246094"/>
      </g>
     </g>
    </g>
    <g id="xtick_7">
     <g id="line2d_7">
      <path d="M 483.279863 200.648125 
L 483.279863 55.609187 
" clip-path="url(#p5043eec2b6)" style="fill: none; stroke: #ffffff; stroke-linecap: round"/>
     </g>
     <g id="text_7">
      <!-- 900 -->
      <g style="fill: #262626" transform="translate(473.736113 217.746562)scale(0.1 -0.1)">
       <defs>
        <path id="DejaVuSans-39" d="M 703 97 
L 703 672 
Q 941 559 1184 500 
Q 1428 441 1663 441 
Q 2288 441 2617 861 
Q 2947 1281 2994 2138 
Q 2813 1869 2534 1725 
Q 2256 1581 1919 1581 
Q 1219 1581 811 2004 
Q 403 2428 403 3163 
Q 403 3881 828 4315 
Q 1253 4750 1959 4750 
Q 2769 4750 3195 4129 
Q 3622 3509 3622 2328 
Q 3622 1225 3098 567 
Q 2575 -91 1691 -91 
Q 1453 -91 1209 -44 
Q 966 3 703 97 
z
M 1959 2075 
Q 2384 2075 2632 2365 
Q 2881 2656 2881 3163 
Q 2881 3666 2632 3958 
Q 2384 4250 1959 4250 
Q 1534 4250 1286 3958 
Q 1038 3666 1038 3163 
Q 1038 2656 1286 2365 
Q 1534 2075 1959 2075 
z
" transform="scale(0.015625)"/>
       </defs>
       <use xlink:href="#DejaVuSans-39"/>
       <use xlink:href="#DejaVuSans-30" x="63.623047"/>
       <use xlink:href="#DejaVuSans-30" x="127.246094"/>
      </g>
     </g>
    </g>
    <g id="xtick_8">
     <g id="line2d_8">
      <path d="M 550.313808 200.648125 
L 550.313808 55.609187 
" clip-path="url(#p5043eec2b6)" style="fill: none; stroke: #ffffff; stroke-linecap: round"/>
     </g>
     <g id="text_8">
      <!-- 1050 -->
      <g style="fill: #262626" transform="translate(537.588808 217.746562)scale(0.1 -0.1)">
       <use xlink:href="#DejaVuSans-31"/>
       <use xlink:href="#DejaVuSans-30" x="63.623047"/>
       <use xlink:href="#DejaVuSans-35" x="127.246094"/>
       <use xlink:href="#DejaVuSans-30" x="190.869141"/>
      </g>
     </g>
    </g>
    <g id="text_9">
     <!-- Frames -->
     <g style="fill: #262626" transform="translate(283.148319 232.944375)scale(0.12 -0.12)">
      <defs>
       <path id="DejaVuSans-46" d="M 628 4666 
L 3309 4666 
L 3309 4134 
L 1259 4134 
L 1259 2759 
L 3109 2759 
L 3109 2228 
L 1259 2228 
L 1259 0 
L 628 0 
L 628 4666 
z
" transform="scale(0.015625)"/>
       <path id="DejaVuSans-72" d="M 2631 2963 
Q 2534 3019 2420 3045 
Q 2306 3072 2169 3072 
Q 1681 3072 1420 2755 
Q 1159 2438 1159 1844 
L 1159 0 
L 581 0 
L 581 3500 
L 1159 3500 
L 1159 2956 
Q 1341 3275 1631 3429 
Q 1922 3584 2338 3584 
Q 2397 3584 2469 3576 
Q 2541 3569 2628 3553 
L 2631 2963 
z
" transform="scale(0.015625)"/>
       <path id="DejaVuSans-61" d="M 2194 1759 
Q 1497 1759 1228 1600 
Q 959 1441 959 1056 
Q 959 750 1161 570 
Q 1363 391 1709 391 
Q 2188 391 2477 730 
Q 2766 1069 2766 1631 
L 2766 1759 
L 2194 1759 
z
M 3341 1997 
L 3341 0 
L 2766 0 
L 2766 531 
Q 2569 213 2275 61 
Q 1981 -91 1556 -91 
Q 1019 -91 701 211 
Q 384 513 384 1019 
Q 384 1609 779 1909 
Q 1175 2209 1959 2209 
L 2766 2209 
L 2766 2266 
Q 2766 2663 2505 2880 
Q 2244 3097 1772 3097 
Q 1472 3097 1187 3025 
Q 903 2953 641 2809 
L 641 3341 
Q 956 3463 1253 3523 
Q 1550 3584 1831 3584 
Q 2591 3584 2966 3190 
Q 3341 2797 3341 1997 
z
" transform="scale(0.015625)"/>
       <path id="DejaVuSans-6d" d="M 3328 2828 
Q 3544 3216 3844 3400 
Q 4144 3584 4550 3584 
Q 5097 3584 5394 3201 
Q 5691 2819 5691 2113 
L 5691 0 
L 5113 0 
L 5113 2094 
Q 5113 2597 4934 2840 
Q 4756 3084 4391 3084 
Q 3944 3084 3684 2787 
Q 3425 2491 3425 1978 
L 3425 0 
L 2847 0 
L 2847 2094 
Q 2847 2600 2669 2842 
Q 2491 3084 2119 3084 
Q 1678 3084 1418 2786 
Q 1159 2488 1159 1978 
L 1159 0 
L 581 0 
L 581 3500 
L 1159 3500 
L 1159 2956 
Q 1356 3278 1631 3431 
Q 1906 3584 2284 3584 
Q 2666 3584 2933 3390 
Q 3200 3197 3328 2828 
z
" transform="scale(0.015625)"/>
       <path id="DejaVuSans-65" d="M 3597 1894 
L 3597 1613 
L 953 1613 
Q 991 1019 1311 708 
Q 1631 397 2203 397 
Q 2534 397 2845 478 
Q 3156 559 3463 722 
L 3463 178 
Q 3153 47 2828 -22 
Q 2503 -91 2169 -91 
Q 1331 -91 842 396 
Q 353 884 353 1716 
Q 353 2575 817 3079 
Q 1281 3584 2069 3584 
Q 2775 3584 3186 3129 
Q 3597 2675 3597 1894 
z
M 3022 2063 
Q 3016 2534 2758 2815 
Q 2500 3097 2075 3097 
Q 1594 3097 1305 2825 
Q 1016 2553 972 2059 
L 3022 2063 
z
" transform="scale(0.015625)"/>
       <path id="DejaVuSans-73" d="M 2834 3397 
L 2834 2853 
Q 2591 2978 2328 3040 
Q 2066 3103 1784 3103 
Q 1356 3103 1142 2972 
Q 928 2841 928 2578 
Q 928 2378 1081 2264 
Q 1234 2150 1697 2047 
L 1894 2003 
Q 2506 1872 2764 1633 
Q 3022 1394 3022 966 
Q 3022 478 2636 193 
Q 2250 -91 1575 -91 
Q 1294 -91 989 -36 
Q 684 19 347 128 
L 347 722 
Q 666 556 975 473 
Q 1284 391 1588 391 
Q 1994 391 2212 530 
Q 2431 669 2431 922 
Q 2431 1156 2273 1281 
Q 2116 1406 1581 1522 
L 1381 1569 
Q 847 1681 609 1914 
Q 372 2147 372 2553 
Q 372 3047 722 3315 
Q 1072 3584 1716 3584 
Q 2034 3584 2315 3537 
Q 2597 3491 2834 3397 
z
" transform="scale(0.015625)"/>
      </defs>
      <use xlink:href="#DejaVuSans-46"/>
      <use xlink:href="#DejaVuSans-72" x="50.269531"/>
      <use xlink:href="#DejaVuSans-61" x="91.382812"/>
      <use xlink:href="#DejaVuSans-6d" x="152.662109"/>
      <use xlink:href="#DejaVuSans-65" x="250.074219"/>
      <use xlink:href="#DejaVuSans-73" x="311.597656"/>
     </g>
    </g>
   </g>
   <g id="matplotlib.axis_2">
    <g id="ytick_1">
     <g id="line2d_9">
      <path d="M 59.178438 194.512234 
L 550.760701 194.512234 
" clip-path="url(#p5043eec2b6)" style="fill: none; stroke: #ffffff; stroke-linecap: round"/>
     </g>
     <g id="text_10">
      <!-- −72 -->
      <g style="fill: #262626" transform="translate(28.57375 198.311453)scale(0.1 -0.1)">
       <defs>
        <path id="DejaVuSans-2212" d="M 678 2272 
L 4684 2272 
L 4684 1741 
L 678 1741 
L 678 2272 
z
" transform="scale(0.015625)"/>
        <path id="DejaVuSans-32" d="M 1228 531 
L 3431 531 
L 3431 0 
L 469 0 
L 469 531 
Q 828 903 1448 1529 
Q 2069 2156 2228 2338 
Q 2531 2678 2651 2914 
Q 2772 3150 2772 3378 
Q 2772 3750 2511 3984 
Q 2250 4219 1831 4219 
Q 1534 4219 1204 4116 
Q 875 4013 500 3803 
L 500 4441 
Q 881 4594 1212 4672 
Q 1544 4750 1819 4750 
Q 2544 4750 2975 4387 
Q 3406 4025 3406 3419 
Q 3406 3131 3298 2873 
Q 3191 2616 2906 2266 
Q 2828 2175 2409 1742 
Q 1991 1309 1228 531 
z
" transform="scale(0.015625)"/>
       </defs>
       <use xlink:href="#DejaVuSans-2212"/>
       <use xlink:href="#DejaVuSans-37" x="83.789062"/>
       <use xlink:href="#DejaVuSans-32" x="147.412109"/>
      </g>
     </g>
    </g>
    <g id="ytick_2">
     <g id="line2d_10">
      <path d="M 59.178438 178.138553 
L 550.760701 178.138553 
" clip-path="url(#p5043eec2b6)" style="fill: none; stroke: #ffffff; stroke-linecap: round"/>
     </g>
     <g id="text_11">
      <!-- −64 -->
      <g style="fill: #262626" transform="translate(28.57375 181.937772)scale(0.1 -0.1)">
       <use xlink:href="#DejaVuSans-2212"/>
       <use xlink:href="#DejaVuSans-36" x="83.789062"/>
       <use xlink:href="#DejaVuSans-34" x="147.412109"/>
      </g>
     </g>
    </g>
    <g id="ytick_3">
     <g id="line2d_11">
      <path d="M 59.178438 161.764873 
L 550.760701 161.764873 
" clip-path="url(#p5043eec2b6)" style="fill: none; stroke: #ffffff; stroke-linecap: round"/>
     </g>
     <g id="text_12">
      <!-- −56 -->
      <g style="fill: #262626" transform="translate(28.57375 165.564091)scale(0.1 -0.1)">
       <use xlink:href="#DejaVuSans-2212"/>
       <use xlink:href="#DejaVuSans-35" x="83.789062"/>
       <use xlink:href="#DejaVuSans-36" x="147.412109"/>
      </g>
     </g>
    </g>
    <g id="ytick_4">
     <g id="line2d_12">
      <path d="M 59.178438 145.391192 
L 550.760701 145.391192 
" clip-path="url(#p5043eec2b6)" style="fill: none; stroke: #ffffff; stroke-linecap: round"/>
     </g>
     <g id="text_13">
      <!-- −48 -->
      <g style="fill: #262626" transform="translate(28.57375 149.190411)scale(0.1 -0.1)">
       <defs>
        <path id="DejaVuSans-38" d="M 2034 2216 
Q 1584 2216 1326 1975 
Q 1069 1734 1069 1313 
Q 1069 891 1326 650 
Q 1584 409 2034 409 
Q 2484 409 2743 651 
Q 3003 894 3003 1313 
Q 3003 1734 2745 1975 
Q 2488 2216 2034 2216 
z
M 1403 2484 
Q 997 2584 770 2862 
Q 544 3141 544 3541 
Q 544 4100 942 4425 
Q 1341 4750 2034 4750 
Q 2731 4750 3128 4425 
Q 3525 4100 3525 3541 
Q 3525 3141 3298 2862 
Q 3072 2584 2669 2484 
Q 3125 2378 3379 2068 
Q 3634 1759 3634 1313 
Q 3634 634 3220 271 
Q 2806 -91 2034 -91 
Q 1263 -91 848 271 
Q 434 634 434 1313 
Q 434 1759 690 2068 
Q 947 2378 1403 2484 
z
M 1172 3481 
Q 1172 3119 1398 2916 
Q 1625 2713 2034 2713 
Q 2441 2713 2670 2916 
Q 2900 3119 2900 3481 
Q 2900 3844 2670 4047 
Q 2441 4250 2034 4250 
Q 1625 4250 1398 4047 
Q 1172 3844 1172 3481 
z
" transform="scale(0.015625)"/>
       </defs>
       <use xlink:href="#DejaVuSans-2212"/>
       <use xlink:href="#DejaVuSans-34" x="83.789062"/>
       <use xlink:href="#DejaVuSans-38" x="147.412109"/>
      </g>
     </g>
    </g>
    <g id="ytick_5">
     <g id="line2d_13">
      <path d="M 59.178438 129.017511 
L 550.760701 129.017511 
" clip-path="url(#p5043eec2b6)" style="fill: none; stroke: #ffffff; stroke-linecap: round"/>
     </g>
     <g id="text_14">
      <!-- −40 -->
      <g style="fill: #262626" transform="translate(28.57375 132.81673)scale(0.1 -0.1)">
       <use xlink:href="#DejaVuSans-2212"/>
       <use xlink:href="#DejaVuSans-34" x="83.789062"/>
       <use xlink:href="#DejaVuSans-30" x="147.412109"/>
      </g>
     </g>
    </g>
    <g id="ytick_6">
     <g id="line2d_14">
      <path d="M 59.178438 112.643831 
L 550.760701 112.643831 
" clip-path="url(#p5043eec2b6)" style="fill: none; stroke: #ffffff; stroke-linecap: round"/>
     </g>
     <g id="text_15">
      <!-- −32 -->
      <g style="fill: #262626" transform="translate(28.57375 116.443049)scale(0.1 -0.1)">
       <use xlink:href="#DejaVuSans-2212"/>
       <use xlink:href="#DejaVuSans-33" x="83.789062"/>
       <use xlink:href="#DejaVuSans-32" x="147.412109"/>
      </g>
     </g>
    </g>
    <g id="ytick_7">
     <g id="line2d_15">
      <path d="M 59.178438 96.27015 
L 550.760701 96.27015 
" clip-path="url(#p5043eec2b6)" style="fill: none; stroke: #ffffff; stroke-linecap: round"/>
     </g>
     <g id="text_16">
      <!-- −24 -->
      <g style="fill: #262626" transform="translate(28.57375 100.069369)scale(0.1 -0.1)">
       <use xlink:href="#DejaVuSans-2212"/>
       <use xlink:href="#DejaVuSans-32" x="83.789062"/>
       <use xlink:href="#DejaVuSans-34" x="147.412109"/>
      </g>
     </g>
    </g>
    <g id="ytick_8">
     <g id="line2d_16">
      <path d="M 59.178438 79.896469 
L 550.760701 79.896469 
" clip-path="url(#p5043eec2b6)" style="fill: none; stroke: #ffffff; stroke-linecap: round"/>
     </g>
     <g id="text_17">
      <!-- −16 -->
      <g style="fill: #262626" transform="translate(28.57375 83.695688)scale(0.1 -0.1)">
       <use xlink:href="#DejaVuSans-2212"/>
       <use xlink:href="#DejaVuSans-31" x="83.789062"/>
       <use xlink:href="#DejaVuSans-36" x="147.412109"/>
      </g>
     </g>
    </g>
    <g id="ytick_9">
     <g id="line2d_17">
      <path d="M 59.178438 63.522789 
L 550.760701 63.522789 
" clip-path="url(#p5043eec2b6)" style="fill: none; stroke: #ffffff; stroke-linecap: round"/>
     </g>
     <g id="text_18">
      <!-- −8 -->
      <g style="fill: #262626" transform="translate(34.93625 67.322007)scale(0.1 -0.1)">
       <use xlink:href="#DejaVuSans-2212"/>
       <use xlink:href="#DejaVuSans-38" x="83.789062"/>
      </g>
     </g>
    </g>
    <g id="text_19">
     <!-- Energy (kcal/mol) -->
     <g style="fill: #262626" transform="translate(22.078125 181.045844)rotate(-90)scale(0.12 -0.12)">
      <defs>
       <path id="DejaVuSans-45" d="M 628 4666 
L 3578 4666 
L 3578 4134 
L 1259 4134 
L 1259 2753 
L 3481 2753 
L 3481 2222 
L 1259 2222 
L 1259 531 
L 3634 531 
L 3634 0 
L 628 0 
L 628 4666 
z
" transform="scale(0.015625)"/>
       <path id="DejaVuSans-6e" d="M 3513 2113 
L 3513 0 
L 2938 0 
L 2938 2094 
Q 2938 2591 2744 2837 
Q 2550 3084 2163 3084 
Q 1697 3084 1428 2787 
Q 1159 2491 1159 1978 
L 1159 0 
L 581 0 
L 581 3500 
L 1159 3500 
L 1159 2956 
Q 1366 3272 1645 3428 
Q 1925 3584 2291 3584 
Q 2894 3584 3203 3211 
Q 3513 2838 3513 2113 
z
" transform="scale(0.015625)"/>
       <path id="DejaVuSans-67" d="M 2906 1791 
Q 2906 2416 2648 2759 
Q 2391 3103 1925 3103 
Q 1463 3103 1205 2759 
Q 947 2416 947 1791 
Q 947 1169 1205 825 
Q 1463 481 1925 481 
Q 2391 481 2648 825 
Q 2906 1169 2906 1791 
z
M 3481 434 
Q 3481 -459 3084 -895 
Q 2688 -1331 1869 -1331 
Q 1566 -1331 1297 -1286 
Q 1028 -1241 775 -1147 
L 775 -588 
Q 1028 -725 1275 -790 
Q 1522 -856 1778 -856 
Q 2344 -856 2625 -561 
Q 2906 -266 2906 331 
L 2906 616 
Q 2728 306 2450 153 
Q 2172 0 1784 0 
Q 1141 0 747 490 
Q 353 981 353 1791 
Q 353 2603 747 3093 
Q 1141 3584 1784 3584 
Q 2172 3584 2450 3431 
Q 2728 3278 2906 2969 
L 2906 3500 
L 3481 3500 
L 3481 434 
z
" transform="scale(0.015625)"/>
       <path id="DejaVuSans-79" d="M 2059 -325 
Q 1816 -950 1584 -1140 
Q 1353 -1331 966 -1331 
L 506 -1331 
L 506 -850 
L 844 -850 
Q 1081 -850 1212 -737 
Q 1344 -625 1503 -206 
L 1606 56 
L 191 3500 
L 800 3500 
L 1894 763 
L 2988 3500 
L 3597 3500 
L 2059 -325 
z
" transform="scale(0.015625)"/>
       <path id="DejaVuSans-20" transform="scale(0.015625)"/>
       <path id="DejaVuSans-28" d="M 1984 4856 
Q 1566 4138 1362 3434 
Q 1159 2731 1159 2009 
Q 1159 1288 1364 580 
Q 1569 -128 1984 -844 
L 1484 -844 
Q 1016 -109 783 600 
Q 550 1309 550 2009 
Q 550 2706 781 3412 
Q 1013 4119 1484 4856 
L 1984 4856 
z
" transform="scale(0.015625)"/>
       <path id="DejaVuSans-6b" d="M 581 4863 
L 1159 4863 
L 1159 1991 
L 2875 3500 
L 3609 3500 
L 1753 1863 
L 3688 0 
L 2938 0 
L 1159 1709 
L 1159 0 
L 581 0 
L 581 4863 
z
" transform="scale(0.015625)"/>
       <path id="DejaVuSans-63" d="M 3122 3366 
L 3122 2828 
Q 2878 2963 2633 3030 
Q 2388 3097 2138 3097 
Q 1578 3097 1268 2742 
Q 959 2388 959 1747 
Q 959 1106 1268 751 
Q 1578 397 2138 397 
Q 2388 397 2633 464 
Q 2878 531 3122 666 
L 3122 134 
Q 2881 22 2623 -34 
Q 2366 -91 2075 -91 
Q 1284 -91 818 406 
Q 353 903 353 1747 
Q 353 2603 823 3093 
Q 1294 3584 2113 3584 
Q 2378 3584 2631 3529 
Q 2884 3475 3122 3366 
z
" transform="scale(0.015625)"/>
       <path id="DejaVuSans-6c" d="M 603 4863 
L 1178 4863 
L 1178 0 
L 603 0 
L 603 4863 
z
" transform="scale(0.015625)"/>
       <path id="DejaVuSans-2f" d="M 1625 4666 
L 2156 4666 
L 531 -594 
L 0 -594 
L 1625 4666 
z
" transform="scale(0.015625)"/>
       <path id="DejaVuSans-6f" d="M 1959 3097 
Q 1497 3097 1228 2736 
Q 959 2375 959 1747 
Q 959 1119 1226 758 
Q 1494 397 1959 397 
Q 2419 397 2687 759 
Q 2956 1122 2956 1747 
Q 2956 2369 2687 2733 
Q 2419 3097 1959 3097 
z
M 1959 3584 
Q 2709 3584 3137 3096 
Q 3566 2609 3566 1747 
Q 3566 888 3137 398 
Q 2709 -91 1959 -91 
Q 1206 -91 779 398 
Q 353 888 353 1747 
Q 353 2609 779 3096 
Q 1206 3584 1959 3584 
z
" transform="scale(0.015625)"/>
       <path id="DejaVuSans-29" d="M 513 4856 
L 1013 4856 
Q 1481 4119 1714 3412 
Q 1947 2706 1947 2009 
Q 1947 1309 1714 600 
Q 1481 -109 1013 -844 
L 513 -844 
Q 928 -128 1133 580 
Q 1338 1288 1338 2009 
Q 1338 2731 1133 3434 
Q 928 4138 513 4856 
z
" transform="scale(0.015625)"/>
      </defs>
      <use xlink:href="#DejaVuSans-45"/>
      <use xlink:href="#DejaVuSans-6e" x="63.183594"/>
      <use xlink:href="#DejaVuSans-65" x="126.5625"/>
      <use xlink:href="#DejaVuSans-72" x="188.085938"/>
      <use xlink:href="#DejaVuSans-67" x="227.449219"/>
      <use xlink:href="#DejaVuSans-79" x="290.925781"/>
      <use xlink:href="#DejaVuSans-20" x="350.105469"/>
      <use xlink:href="#DejaVuSans-28" x="381.892578"/>
      <use xlink:href="#DejaVuSans-6b" x="420.90625"/>
      <use xlink:href="#DejaVuSans-63" x="478.816406"/>
      <use xlink:href="#DejaVuSans-61" x="533.796875"/>
      <use xlink:href="#DejaVuSans-6c" x="595.076172"/>
      <use xlink:href="#DejaVuSans-2f" x="622.859375"/>
      <use xlink:href="#DejaVuSans-6d" x="656.550781"/>
      <use xlink:href="#DejaVuSans-6f" x="753.962891"/>
      <use xlink:href="#DejaVuSans-6c" x="815.144531"/>
      <use xlink:href="#DejaVuSans-29" x="842.927734"/>
     </g>
    </g>
   </g>
   <g id="line2d_18">
    <path d="M 81.523086 144.870193 
L 81.969979 164.75051 
L 82.416872 166.183116 
L 82.863765 126.499814 
L 83.310658 153.703964 
L 83.757551 145.972937 
L 84.204444 164.462997 
L 84.651337 141.751346 
L 85.09823 125.752627 
L 85.545123 157.500795 
L 85.992015 149.327685 
L 86.438908 135.000559 
L 86.885801 160.233914 
L 87.332694 150.449728 
L 87.779587 156.342684 
L 88.22648 144.302997 
L 88.673373 154.773912 
L 89.120266 144.066696 
L 89.567159 148.370491 
L 90.014052 148.569183 
L 90.460945 120.197389 
L 91.354731 140.844779 
L 91.801624 138.263349 
L 92.248517 147.853666 
L 92.69541 135.633032 
L 93.142303 151.352985 
L 93.589196 141.629131 
L 94.036089 123.149839 
L 94.482982 126.143149 
L 94.929875 131.919417 
L 95.376768 108.186039 
L 95.823661 116.415966 
L 96.270554 134.619594 
L 96.717447 122.304849 
L 97.16434 92.698371 
L 97.611233 96.9948 
L 98.058126 95.899062 
L 98.505019 109.976162 
L 98.951912 110.103788 
L 99.398804 105.575581 
L 99.845697 133.823855 
L 100.29259 83.155745 
L 101.186376 110.821176 
L 101.633269 95.72412 
L 102.080162 107.075777 
L 102.527055 107.239198 
L 102.973948 95.793848 
L 103.420841 116.625913 
L 103.867734 120.069649 
L 104.314627 109.800055 
L 104.76152 95.882762 
L 105.208413 109.087847 
L 105.655306 130.245336 
L 106.102199 105.391985 
L 106.549092 94.002967 
L 106.995985 117.423334 
L 107.442878 117.955721 
L 107.889771 101.21003 
L 108.336664 96.931781 
L 108.783557 97.317199 
L 109.677343 124.691063 
L 110.124236 121.82537 
L 110.571129 117.967992 
L 111.018022 116.022405 
L 111.464915 98.201784 
L 111.911808 99.914037 
L 112.358701 99.934976 
L 112.805593 99.425209 
L 113.252486 96.560282 
L 113.699379 103.062924 
L 114.146272 95.86805 
L 114.593165 109.627299 
L 115.040058 102.291005 
L 115.486951 90.371428 
L 115.933844 107.116387 
L 116.380737 99.608871 
L 116.82763 88.43702 
L 117.274523 82.210709 
L 117.721416 98.829929 
L 118.168309 88.584863 
L 118.615202 83.653762 
L 119.062095 89.251934 
L 119.508988 77.807278 
L 119.955881 93.591275 
L 120.402774 89.283166 
L 120.849667 103.452154 
L 121.29656 89.89577 
L 121.743453 105.266104 
L 122.190346 90.889272 
L 122.637239 108.507859 
L 123.084132 114.63832 
L 123.977918 93.748143 
L 124.424811 103.889303 
L 124.871704 104.321383 
L 125.318597 92.134425 
L 125.76549 93.721033 
L 126.212382 86.486781 
L 126.659275 99.672711 
L 127.106168 87.411453 
L 127.553061 81.744139 
L 127.999954 83.803791 
L 128.446847 78.585699 
L 128.89374 66.149594 
L 129.340633 69.497199 
L 129.787526 76.573595 
L 130.234419 68.021811 
L 130.681312 76.000773 
L 131.128205 71.941302 
L 131.575098 62.201866 
L 132.021991 75.083794 
L 132.468884 83.549318 
L 132.915777 80.115659 
L 133.36267 75.798892 
L 133.809563 78.481688 
L 134.256456 78.063701 
L 134.703349 86.833525 
L 135.150242 81.90941 
L 135.597135 91.340364 
L 136.044028 79.204064 
L 136.490921 83.741226 
L 136.937814 76.569781 
L 137.384707 99.497601 
L 137.8316 79.391174 
L 138.278493 95.182405 
L 139.172279 80.369832 
L 139.619171 83.441045 
L 140.066064 91.68555 
L 140.512957 83.086237 
L 140.95985 114.645629 
L 141.406743 102.553517 
L 141.853636 100.604229 
L 142.300529 84.126516 
L 142.747422 101.463497 
L 143.641208 81.635682 
L 144.088101 90.941938 
L 144.534994 84.754648 
L 144.981887 111.376523 
L 145.42878 105.120693 
L 145.875673 118.03179 
L 146.322566 123.18583 
L 146.769459 131.519126 
L 147.663245 114.558805 
L 148.110138 119.917968 
L 148.557031 105.735243 
L 149.003924 100.982631 
L 149.450817 99.797448 
L 149.89771 100.310955 
L 150.344603 98.363057 
L 150.791496 87.34133 
L 151.238389 92.444135 
L 151.685282 107.085814 
L 152.132175 99.621923 
L 152.579067 101.074383 
L 153.02596 86.458895 
L 153.472853 123.741874 
L 153.919746 110.231473 
L 154.366639 135.304096 
L 154.813532 105.497297 
L 155.260425 112.093218 
L 155.707318 96.027692 
L 156.601104 137.153618 
L 157.047997 118.076197 
L 157.49489 111.242663 
L 157.941783 102.059543 
L 158.388676 107.603038 
L 158.835569 118.991861 
L 159.282462 111.155956 
L 159.729355 122.84849 
L 160.176248 107.47708 
L 160.623141 117.017938 
L 161.070034 122.997828 
L 161.516927 113.542685 
L 161.96382 115.244231 
L 162.410713 104.5382 
L 162.857606 112.277299 
L 163.304499 122.079754 
L 163.751392 119.188266 
L 164.198285 113.598298 
L 164.645178 116.651901 
L 165.092071 130.404215 
L 165.538964 113.766852 
L 165.985856 122.254628 
L 166.432749 133.641665 
L 166.879642 128.105098 
L 167.326535 125.277499 
L 167.773428 133.33812 
L 168.220321 125.403416 
L 168.667214 143.965367 
L 169.114107 112.216767 
L 170.454786 148.783922 
L 171.348572 138.008041 
L 171.795465 136.09658 
L 172.242358 132.527676 
L 172.689251 145.317109 
L 173.136144 123.97662 
L 173.583037 148.635945 
L 174.02993 124.113589 
L 174.476823 132.994968 
L 174.923716 131.670491 
L 175.370609 117.627679 
L 175.817502 133.213732 
L 176.264395 122.62207 
L 176.711288 130.015096 
L 177.158181 140.261146 
L 177.605074 141.567423 
L 178.051967 123.401015 
L 178.49886 129.584439 
L 178.945753 142.187843 
L 179.392645 149.545588 
L 179.839538 148.260146 
L 180.286431 128.706479 
L 180.733324 135.01027 
L 181.180217 149.093944 
L 181.62711 118.367092 
L 182.074003 118.391793 
L 182.520896 119.41784 
L 182.967789 113.89252 
L 183.414682 110.03143 
L 183.861575 136.438923 
L 184.308468 126.77125 
L 184.755361 129.926426 
L 185.202254 131.508935 
L 185.649147 131.481444 
L 186.09604 132.206528 
L 186.542933 103.119942 
L 186.989826 121.583166 
L 187.436719 144.814619 
L 187.883612 132.780977 
L 188.330505 134.529514 
L 188.777398 139.662819 
L 189.224291 138.358907 
L 189.671184 131.520603 
L 190.118077 115.716165 
L 190.56497 112.511037 
L 191.011863 128.621999 
L 191.458756 107.121674 
L 191.905649 113.724793 
L 192.352542 128.874091 
L 192.799434 117.370989 
L 193.246327 115.618404 
L 193.69322 110.912144 
L 194.140113 123.95307 
L 194.587006 108.950673 
L 195.033899 106.115105 
L 195.480792 96.066083 
L 195.927685 91.898803 
L 196.821471 120.824583 
L 197.268364 117.172645 
L 198.16215 97.457011 
L 199.055936 127.436187 
L 199.502829 106.639846 
L 200.396615 131.681391 
L 200.843508 108.914574 
L 201.290401 115.982968 
L 201.737294 119.00924 
L 202.184187 123.372608 
L 202.63108 131.070348 
L 203.077973 120.539418 
L 203.971759 134.716011 
L 204.418652 128.607017 
L 204.865545 126.146077 
L 205.312438 126.312194 
L 205.759331 122.308631 
L 206.206223 116.525467 
L 206.653116 120.958286 
L 207.100009 131.416717 
L 207.546902 117.712336 
L 207.993795 109.794155 
L 208.440688 120.857129 
L 208.887581 99.279631 
L 209.334474 125.758108 
L 209.781367 121.855221 
L 210.22826 126.126155 
L 210.675153 121.957994 
L 211.122046 130.459582 
L 211.568939 154.089332 
L 212.015832 134.151815 
L 212.909618 146.39547 
L 213.356511 128.783436 
L 213.803404 127.000131 
L 214.250297 127.060462 
L 214.69719 131.887628 
L 215.144083 141.223177 
L 215.590976 147.410877 
L 216.037869 119.536286 
L 216.484762 131.497746 
L 216.931655 118.159325 
L 217.378548 124.635458 
L 217.825441 133.409352 
L 218.272334 155.897353 
L 219.16612 128.986478 
L 219.613012 137.23427 
L 220.059905 131.158622 
L 220.506798 138.514655 
L 220.953691 153.668983 
L 221.400584 134.566663 
L 221.847477 125.874513 
L 222.29437 122.274831 
L 222.741263 168.314792 
L 223.188156 145.829278 
L 223.635049 170.049397 
L 224.081942 162.304287 
L 224.528835 149.639892 
L 224.975728 152.358499 
L 225.869514 128.808771 
L 226.316407 99.761436 
L 226.7633 136.457474 
L 227.210193 148.748142 
L 227.657086 173.608984 
L 228.103979 144.958698 
L 228.550872 140.688825 
L 228.997765 133.895435 
L 229.444658 147.842607 
L 229.891551 153.944664 
L 230.338444 155.329222 
L 230.785337 132.238984 
L 231.23223 133.768859 
L 231.679123 151.736959 
L 232.126016 148.661288 
L 232.572908 165.93746 
L 233.019801 152.269847 
L 233.466694 134.39413 
L 233.913587 139.064413 
L 234.36048 138.055032 
L 234.807373 154.134233 
L 235.254266 157.836399 
L 235.701159 143.289119 
L 236.148052 151.942307 
L 236.594945 156.108231 
L 237.041838 149.921672 
L 237.488731 132.252026 
L 238.82941 154.836116 
L 239.276303 149.939406 
L 239.723196 159.969739 
L 240.170089 141.780312 
L 240.616982 165.565402 
L 241.063875 154.792341 
L 241.510768 160.187706 
L 242.404554 181.978378 
L 242.851447 164.946344 
L 243.29834 154.002394 
L 244.192126 194.055446 
L 244.639019 183.381196 
L 245.085912 184.272401 
L 245.532805 178.920316 
L 245.979697 175.008317 
L 246.42659 181.867564 
L 246.873483 181.228716 
L 247.320376 151.66566 
L 248.214162 172.680377 
L 248.661055 174.582003 
L 249.107948 189.094367 
L 249.554841 158.128277 
L 250.001734 153.95575 
L 250.448627 161.844506 
L 250.89552 159.020808 
L 251.342413 152.56961 
L 252.236199 181.957554 
L 252.683092 160.194864 
L 253.129985 180.343808 
L 253.576878 171.225148 
L 254.023771 169.924231 
L 254.470664 159.294318 
L 254.917557 156.957933 
L 255.36445 121.660944 
L 255.811343 134.651916 
L 256.258236 132.165514 
L 256.705129 139.493314 
L 257.152022 128.244895 
L 257.598915 128.72239 
L 258.045808 114.591414 
L 258.492701 137.525734 
L 258.939594 138.167669 
L 259.386486 133.629833 
L 259.833379 133.986175 
L 260.280272 123.606277 
L 260.727165 123.156929 
L 261.174058 155.311779 
L 261.620951 147.904148 
L 262.067844 136.459813 
L 262.514737 147.994814 
L 262.96163 110.777732 
L 263.408523 143.155297 
L 263.855416 133.282223 
L 264.302309 129.97891 
L 264.749202 128.322408 
L 265.196095 109.956546 
L 265.642988 124.804945 
L 266.089881 135.465482 
L 266.536774 130.060236 
L 266.983667 126.838399 
L 267.43056 146.263678 
L 267.877453 143.723863 
L 268.324346 147.88809 
L 268.771239 142.853475 
L 269.218132 171.335607 
L 269.665025 170.268549 
L 270.111918 157.074578 
L 271.005704 147.930434 
L 271.452597 136.478192 
L 272.346383 155.489581 
L 272.793275 163.653803 
L 273.240168 164.067145 
L 273.687061 160.775526 
L 274.133954 134.490789 
L 274.580847 127.659686 
L 275.02774 132.140514 
L 275.474633 139.505677 
L 275.921526 115.991425 
L 276.368419 127.677596 
L 276.815312 144.2072 
L 277.262205 128.911398 
L 277.709098 146.585238 
L 278.155991 141.980366 
L 278.602884 131.688044 
L 279.049777 143.207046 
L 279.49667 127.435422 
L 279.943563 120.426442 
L 280.837349 137.164123 
L 281.284242 133.772744 
L 281.731135 127.176759 
L 282.178028 101.368166 
L 282.624921 131.454893 
L 283.071814 141.084418 
L 283.518707 139.421852 
L 284.412493 133.381947 
L 284.859386 142.678057 
L 285.306279 155.138863 
L 285.753172 141.703466 
L 286.200064 134.161159 
L 287.09385 153.677326 
L 287.540743 145.000324 
L 287.987636 141.697688 
L 288.434529 156.366338 
L 288.881422 137.999348 
L 289.328315 132.82588 
L 289.775208 146.387101 
L 290.222101 135.011683 
L 290.668994 139.614808 
L 291.115887 117.397321 
L 291.56278 127.288002 
L 292.009673 115.594296 
L 292.456566 133.053105 
L 292.903459 128.957474 
L 293.350352 128.511481 
L 293.797245 131.130137 
L 294.244138 164.691835 
L 294.691031 135.252023 
L 295.137924 143.821365 
L 295.584817 155.412951 
L 296.478603 159.81436 
L 296.925496 146.89796 
L 297.372389 122.916647 
L 297.819282 160.862429 
L 298.266175 144.95287 
L 298.713068 149.787213 
L 299.159961 144.436672 
L 299.606853 141.457754 
L 300.053746 152.354555 
L 300.500639 126.941207 
L 300.947532 149.549801 
L 301.394425 142.674448 
L 301.841318 145.972528 
L 302.288211 159.324471 
L 302.735104 139.42331 
L 303.181997 155.772459 
L 303.62889 153.041927 
L 304.075783 138.04197 
L 304.522676 148.010696 
L 304.969569 151.10066 
L 305.416462 151.904359 
L 305.863355 172.387817 
L 306.310248 169.128146 
L 306.757141 152.371829 
L 307.204034 164.440224 
L 307.650927 141.576557 
L 308.09782 150.142222 
L 308.544713 167.910308 
L 308.991606 146.923731 
L 309.438499 154.415947 
L 309.885392 146.985088 
L 310.332285 147.563824 
L 310.779178 153.604216 
L 311.226071 146.262259 
L 311.672964 153.747407 
L 312.119857 149.627897 
L 312.566749 146.858397 
L 313.013642 161.454943 
L 313.460535 159.869041 
L 314.354321 142.174546 
L 314.801214 137.178489 
L 315.248107 136.138068 
L 315.695 131.196408 
L 316.141893 165.071876 
L 316.588786 144.399726 
L 317.035679 140.770711 
L 317.482572 149.783848 
L 317.929465 176.22253 
L 318.376358 179.557094 
L 318.823251 175.878696 
L 319.270144 155.492795 
L 319.717037 155.349733 
L 320.16393 151.362732 
L 320.610823 172.651861 
L 321.057716 170.166416 
L 321.951502 183.42327 
L 322.398395 165.382721 
L 322.845288 170.425518 
L 323.739074 158.771178 
L 324.185967 184.897249 
L 324.63286 166.787147 
L 325.079753 172.35777 
L 325.526646 151.155427 
L 325.973538 142.169366 
L 326.420431 139.247248 
L 326.867324 139.327026 
L 327.314217 117.398019 
L 327.76111 147.449354 
L 328.208003 131.797229 
L 328.654896 155.299931 
L 329.101789 127.540299 
L 329.548682 130.677108 
L 330.442468 126.019857 
L 330.889361 117.479306 
L 331.336254 117.535659 
L 331.783147 119.781744 
L 332.23004 112.96224 
L 332.676933 113.245206 
L 333.123826 118.949656 
L 333.570719 144.275126 
L 334.017612 155.304799 
L 334.911398 131.975684 
L 335.358291 147.673113 
L 335.805184 135.927511 
L 336.252077 133.181355 
L 336.69897 127.309619 
L 337.145863 125.129083 
L 337.592756 119.336099 
L 338.039649 117.678181 
L 338.486542 143.075952 
L 338.933435 142.526543 
L 339.380327 129.95118 
L 339.82722 148.319826 
L 340.274113 148.337711 
L 340.721006 128.29473 
L 341.167899 152.973433 
L 341.614792 131.996709 
L 342.508578 142.456978 
L 342.955471 136.45419 
L 343.402364 128.091034 
L 343.849257 123.941479 
L 344.29615 125.875163 
L 344.743043 147.043455 
L 345.189936 136.050721 
L 345.636829 146.966532 
L 346.083722 151.453988 
L 346.530615 151.386451 
L 346.977508 147.55465 
L 347.424401 163.029139 
L 347.871294 141.101425 
L 348.318187 161.715107 
L 348.76508 133.829572 
L 349.211973 136.968222 
L 349.658866 136.471392 
L 350.105759 153.218285 
L 350.552652 140.372963 
L 350.999545 142.972462 
L 351.446438 142.616983 
L 351.893331 136.853582 
L 352.340224 143.158688 
L 352.787116 127.704933 
L 353.234009 132.701807 
L 353.680902 126.393095 
L 354.127795 126.731256 
L 354.574688 125.502514 
L 355.021581 136.389895 
L 355.468474 129.436573 
L 355.915367 113.724063 
L 356.36226 122.179911 
L 356.809153 121.187791 
L 357.256046 118.594508 
L 357.702939 125.630588 
L 358.149832 139.614238 
L 358.596725 122.221774 
L 359.043618 128.792036 
L 359.490511 132.945146 
L 359.937404 116.559747 
L 360.384297 125.797501 
L 360.83119 115.652869 
L 361.278083 119.992183 
L 361.724976 107.102245 
L 362.171869 83.108275 
L 362.618762 126.871174 
L 363.065655 116.50753 
L 363.512548 120.661762 
L 363.959441 111.525397 
L 364.406334 127.25665 
L 364.853227 131.495941 
L 365.30012 139.57157 
L 365.747013 120.145966 
L 366.193905 139.642594 
L 366.640798 127.880683 
L 367.087691 135.058314 
L 367.534584 121.981652 
L 367.981477 129.862991 
L 368.42837 121.435279 
L 368.875263 110.72907 
L 369.322156 107.6177 
L 369.769049 138.558935 
L 370.215942 110.484254 
L 370.662835 119.616026 
L 371.109728 124.146494 
L 371.556621 154.067563 
L 372.003514 156.636561 
L 372.450407 139.481397 
L 372.8973 145.521924 
L 373.344193 154.860758 
L 373.791086 138.116056 
L 374.237979 150.803198 
L 374.684872 156.421555 
L 375.131765 132.430152 
L 375.578658 122.854414 
L 376.025551 135.009435 
L 376.472444 120.936165 
L 376.919337 138.772896 
L 377.813123 119.778051 
L 378.706909 130.003507 
L 379.153802 117.082657 
L 379.600694 121.772133 
L 380.047587 115.545023 
L 380.49448 148.362049 
L 380.941373 151.463841 
L 381.388266 144.616298 
L 381.835159 139.981685 
L 382.282052 125.878734 
L 382.728945 136.54534 
L 383.175838 142.136897 
L 383.622731 134.381624 
L 384.069624 110.564236 
L 384.516517 115.587794 
L 384.96341 112.246736 
L 385.410303 113.901755 
L 385.857196 130.668638 
L 386.304089 115.45369 
L 386.750982 116.512489 
L 387.197875 101.649852 
L 387.644768 98.184462 
L 388.091661 123.392646 
L 388.538554 121.422381 
L 388.985447 93.548559 
L 389.43234 103.584224 
L 389.879233 90.075477 
L 390.326126 116.069494 
L 390.773019 109.086837 
L 391.219912 133.537913 
L 391.666805 94.979555 
L 392.113698 111.85665 
L 392.560591 138.69651 
L 393.007483 110.706844 
L 393.454376 117.82187 
L 393.901269 128.524192 
L 394.795055 107.497113 
L 395.241948 113.370164 
L 395.688841 102.657189 
L 396.135734 106.014081 
L 396.582627 120.162741 
L 397.02952 109.307027 
L 397.476413 86.333536 
L 397.923306 110.052638 
L 398.370199 105.007241 
L 398.817092 104.26813 
L 399.263985 112.336497 
L 399.710878 113.899029 
L 400.157771 135.727059 
L 400.604664 118.137975 
L 401.051557 114.031092 
L 401.49845 107.837394 
L 401.945343 112.054766 
L 402.392236 128.289343 
L 402.839129 100.952962 
L 403.732915 106.642497 
L 404.179808 133.905892 
L 405.073594 114.606591 
L 405.520487 118.138193 
L 405.967379 125.306128 
L 406.414272 121.883569 
L 406.861165 123.488339 
L 407.308058 127.551456 
L 407.754951 120.193155 
L 408.201844 108.569243 
L 408.648737 103.781779 
L 409.09563 126.085817 
L 409.542523 125.974404 
L 409.989416 117.469048 
L 410.436309 118.823307 
L 410.883202 129.980497 
L 411.330095 125.845184 
L 411.776988 113.502005 
L 412.223881 126.296153 
L 412.670774 114.174262 
L 413.117667 149.122512 
L 413.56456 140.670026 
L 414.011453 146.909085 
L 414.458346 147.411765 
L 414.905239 128.257386 
L 415.352132 146.271362 
L 415.799025 125.317263 
L 416.692811 144.696997 
L 417.139704 129.895545 
L 417.586597 142.386527 
L 418.03349 129.667371 
L 418.480383 143.38865 
L 418.927276 142.416879 
L 419.374168 133.055066 
L 419.821061 141.553943 
L 420.267954 123.112302 
L 420.714847 138.457978 
L 421.16174 137.106768 
L 421.608633 125.592619 
L 422.055526 117.265197 
L 422.502419 103.68996 
L 422.949312 129.947512 
L 423.396205 102.153025 
L 423.843098 106.679406 
L 424.289991 126.36929 
L 424.736884 133.612782 
L 425.183777 127.945377 
L 426.077563 140.111888 
L 426.524456 141.025433 
L 426.971349 127.255856 
L 427.865135 117.084062 
L 428.312028 134.366284 
L 428.758921 124.202739 
L 429.205814 128.652457 
L 429.652707 135.250454 
L 430.0996 127.773817 
L 430.546493 116.619817 
L 430.993386 119.377499 
L 431.440279 127.343278 
L 431.887172 132.361818 
L 432.334065 113.752565 
L 432.780957 140.92681 
L 433.22785 126.602352 
L 433.674743 126.258934 
L 434.568529 152.081335 
L 435.015422 130.263232 
L 435.462315 136.718813 
L 435.909208 120.332379 
L 436.356101 134.027406 
L 436.802994 141.445001 
L 437.249887 139.509903 
L 437.69678 150.589824 
L 438.143673 124.244935 
L 438.590566 132.904605 
L 439.037459 136.073405 
L 439.484352 135.977233 
L 439.931245 144.549711 
L 440.378138 128.204732 
L 440.825031 134.678561 
L 441.271924 158.155432 
L 441.718817 129.705635 
L 442.16571 122.699763 
L 442.612603 130.077488 
L 443.059496 121.571891 
L 443.506389 128.587051 
L 443.953282 111.338098 
L 444.400175 125.842214 
L 444.847068 132.869434 
L 445.293961 112.350945 
L 445.740854 122.90182 
L 446.634639 128.947756 
L 447.081532 128.493452 
L 447.528425 110.000333 
L 448.422211 122.158441 
L 448.869104 143.056626 
L 449.315997 119.782526 
L 449.76289 126.033478 
L 450.209783 129.041491 
L 450.656676 119.317476 
L 451.103569 114.576939 
L 451.550462 123.138047 
L 451.997355 123.341902 
L 452.444248 134.464629 
L 452.891141 139.09917 
L 453.338034 130.531672 
L 453.784927 129.649334 
L 454.23182 126.087585 
L 454.678713 118.131678 
L 455.125606 127.994649 
L 455.572499 111.779189 
L 456.019392 114.029036 
L 456.466285 133.090193 
L 457.360071 124.792617 
L 457.806964 133.532621 
L 458.253857 118.025837 
L 458.70075 126.7317 
L 459.147643 123.895307 
L 459.594535 109.106685 
L 460.041428 100.72713 
L 460.488321 102.484333 
L 460.935214 119.940036 
L 461.382107 127.199856 
L 461.829 126.357915 
L 462.275893 124.314738 
L 462.722786 125.88811 
L 463.169679 115.473648 
L 463.616572 127.760063 
L 464.063465 136.009454 
L 464.510358 133.055998 
L 464.957251 114.451619 
L 465.404144 121.17925 
L 465.851037 131.504993 
L 466.29793 127.695802 
L 466.744823 126.605013 
L 467.191716 114.746544 
L 467.638609 131.862355 
L 468.085502 123.677394 
L 468.532395 127.847086 
L 468.979288 113.617347 
L 469.426181 110.832243 
L 469.873074 111.19961 
L 470.319967 120.582459 
L 470.76686 111.732809 
L 471.213753 128.642277 
L 471.660646 124.636109 
L 472.107539 124.342901 
L 472.554432 127.823361 
L 473.001324 117.099494 
L 473.448217 114.903839 
L 473.89511 118.542123 
L 474.342003 112.750441 
L 474.788896 111.372059 
L 475.235789 113.96947 
L 475.682682 111.612359 
L 476.576468 94.148021 
L 477.023361 100.71529 
L 477.470254 104.880654 
L 478.36404 89.143746 
L 478.810933 117.191717 
L 479.257826 108.010023 
L 479.704719 90.246954 
L 480.151612 88.627312 
L 480.598505 85.541906 
L 481.045398 78.91237 
L 481.492291 100.551592 
L 481.939184 92.286641 
L 482.386077 105.215211 
L 482.83297 112.581557 
L 483.279863 86.316843 
L 483.726756 106.010602 
L 484.173649 101.278502 
L 484.620542 104.350213 
L 485.067435 92.600206 
L 485.514328 104.476082 
L 485.96122 103.198738 
L 486.408113 95.355133 
L 486.855006 104.6664 
L 487.301899 82.344403 
L 487.748792 111.82568 
L 488.195685 102.527599 
L 488.642578 104.315333 
L 489.089471 102.856784 
L 489.536364 121.971866 
L 489.983257 107.679173 
L 490.43015 121.804086 
L 490.877043 119.983675 
L 491.323936 146.247355 
L 491.770829 135.355025 
L 492.217722 114.170632 
L 492.664615 120.677726 
L 493.111508 136.115345 
L 493.558401 120.730264 
L 494.005294 125.509535 
L 494.452187 121.741007 
L 494.89908 139.676134 
L 495.345973 124.506307 
L 495.792866 118.96426 
L 496.239759 125.674061 
L 496.686652 136.759839 
L 497.133545 123.890088 
L 497.580438 116.871551 
L 498.027331 146.229687 
L 498.474224 120.789403 
L 498.921117 121.841847 
L 499.368009 118.335352 
L 499.814902 108.600871 
L 500.261795 135.219154 
L 500.708688 137.95184 
L 501.155581 119.368403 
L 501.602474 111.2691 
L 502.049367 128.665577 
L 502.49626 129.796478 
L 502.943153 131.971325 
L 503.390046 140.535076 
L 503.836939 130.032603 
L 504.283832 132.024885 
L 505.177618 141.150851 
L 505.624511 144.092739 
L 506.071404 134.180341 
L 506.518297 137.712319 
L 506.96519 126.180237 
L 507.412083 155.161353 
L 507.858976 139.096701 
L 508.305869 118.181382 
L 509.199655 131.327635 
L 509.646548 122.362791 
L 510.093441 136.89589 
L 510.540334 130.563129 
L 511.43412 127.177229 
L 511.881013 122.631737 
L 512.327906 110.513631 
L 512.774798 144.077869 
L 513.221691 114.341993 
L 513.668584 136.46347 
L 514.115477 119.216835 
L 514.56237 126.277846 
L 515.009263 122.56302 
L 515.456156 125.832863 
L 515.903049 114.287589 
L 516.349942 122.596625 
L 516.796835 116.321805 
L 517.243728 117.325025 
L 517.690621 143.076898 
L 518.137514 126.791989 
L 518.584407 125.822119 
L 519.0313 116.358732 
L 519.478193 118.745879 
L 519.925086 129.115169 
L 520.371979 120.762209 
L 520.818872 121.730058 
L 521.265765 112.305817 
L 521.712658 117.242836 
L 522.159551 109.855375 
L 522.606444 109.214814 
L 523.053337 118.093036 
L 523.50023 108.781423 
L 523.947123 121.549831 
L 524.394016 113.082781 
L 524.840909 114.275221 
L 525.734695 105.643593 
L 526.181587 104.091299 
L 526.62848 121.698602 
L 527.075373 121.375839 
L 527.522266 121.804483 
L 527.969159 116.244739 
L 528.416052 119.550264 
L 528.416052 119.550264 
" clip-path="url(#p5043eec2b6)" style="fill: none; stroke: #000000; stroke-width: 0.7; stroke-linecap: round"/>
   </g>
   <g id="line2d_19">
    <path d="M 103.420841 130.236692 
L 103.867734 129.740682 
L 104.314627 128.641672 
L 104.76152 127.235665 
L 105.655306 126.418253 
L 106.102199 125.606634 
L 106.549092 124.197434 
L 106.995985 123.710874 
L 107.442878 123.554935 
L 108.336664 121.381202 
L 108.783557 120.627535 
L 109.23045 119.635641 
L 109.677343 119.120467 
L 111.464915 116.211093 
L 112.358701 114.269279 
L 112.805593 113.853836 
L 113.699379 112.418477 
L 114.593165 110.806044 
L 115.040058 110.139203 
L 115.486951 108.919572 
L 115.933844 108.229317 
L 116.380737 107.758498 
L 116.82763 107.004375 
L 117.274523 106.010201 
L 117.721416 105.823079 
L 118.168309 105.266457 
L 118.615202 104.24714 
L 119.062095 103.586082 
L 119.508988 103.28826 
L 120.402774 103.087871 
L 120.849667 102.957391 
L 121.29656 102.553231 
L 121.743453 102.547041 
L 122.190346 101.68835 
L 122.637239 102.195392 
L 123.084132 102.520528 
L 123.531025 102.35874 
L 125.318597 102.123946 
L 125.76549 101.665848 
L 126.212382 100.994191 
L 127.106168 100.622218 
L 127.553061 100.075344 
L 127.999954 99.146513 
L 128.89374 98.05332 
L 129.787526 96.267155 
L 130.234419 95.60339 
L 131.128205 94.677252 
L 132.468884 91.950839 
L 133.36267 90.389322 
L 135.150242 88.945568 
L 135.597135 88.84117 
L 136.044028 88.363993 
L 136.490921 88.121456 
L 136.937814 87.460306 
L 137.384707 87.404438 
L 139.172279 86.561707 
L 139.619171 86.586314 
L 140.512957 86.333454 
L 140.95985 86.953291 
L 141.406743 87.219323 
L 141.853636 87.675262 
L 142.300529 87.485967 
L 142.747422 87.729573 
L 144.534994 86.925473 
L 144.981887 86.982846 
L 145.42878 86.792494 
L 145.875673 87.098494 
L 146.769459 88.239844 
L 147.663245 89.041913 
L 148.557031 89.950821 
L 149.003924 89.977019 
L 149.89771 90.596075 
L 151.238389 91.588264 
L 151.685282 92.340036 
L 152.132175 92.801003 
L 152.579067 93.462054 
L 153.02596 93.671217 
L 154.366639 96.872226 
L 154.813532 97.311186 
L 155.260425 97.950737 
L 155.707318 98.355313 
L 156.154211 99.118452 
L 156.601104 100.30025 
L 157.49489 101.511769 
L 157.941783 101.726152 
L 158.835569 102.999144 
L 159.282462 103.690868 
L 160.623141 105.156314 
L 161.96382 107.146716 
L 162.410713 107.403769 
L 162.857606 107.987591 
L 163.304499 108.136273 
L 164.198285 108.72885 
L 165.092071 109.958172 
L 165.538964 110.394188 
L 166.879642 112.927571 
L 167.326535 113.20559 
L 167.773428 113.769939 
L 168.220321 113.917371 
L 168.667214 114.332962 
L 169.114107 113.946915 
L 169.561 114.004869 
L 170.454786 115.104503 
L 173.136144 119.635859 
L 173.583037 120.759695 
L 174.02993 121.100251 
L 175.370609 123.00301 
L 176.264395 123.440259 
L 176.711288 123.334479 
L 177.605074 124.61924 
L 178.051967 125.166706 
L 178.49886 125.425623 
L 178.945753 125.526307 
L 181.180217 128.57917 
L 181.62711 128.723392 
L 182.074003 128.634258 
L 182.520896 128.873074 
L 182.967789 128.810565 
L 183.414682 128.551237 
L 183.861575 129.009162 
L 184.308468 129.239702 
L 185.202254 130.1321 
L 186.09604 130.580499 
L 186.542933 130.370932 
L 186.989826 130.469557 
L 188.777398 131.503968 
L 189.671184 131.833907 
L 191.011863 130.916753 
L 191.458756 130.814851 
L 192.352542 130.355374 
L 193.69322 128.634118 
L 194.140113 128.391247 
L 194.587006 127.919707 
L 195.033899 127.135667 
L 195.480792 126.577456 
L 195.927685 125.442714 
L 196.821471 124.850146 
L 197.715257 124.360867 
L 198.16215 123.645733 
L 198.609043 123.439657 
L 199.055936 123.388079 
L 199.502829 122.715653 
L 199.949722 122.279164 
L 200.396615 122.444772 
L 201.290401 121.507277 
L 202.184187 120.398799 
L 202.63108 120.446077 
L 203.077973 120.15666 
L 203.524866 119.72616 
L 204.418652 120.257443 
L 205.312438 120.640401 
L 205.759331 120.885945 
L 206.206223 120.487676 
L 206.653116 120.371417 
L 207.100009 120.401223 
L 207.546902 120.125291 
L 207.993795 119.691545 
L 208.440688 119.464557 
L 208.887581 119.387751 
L 209.334474 119.47125 
L 209.781367 119.012062 
L 210.22826 118.878965 
L 211.122046 118.44347 
L 211.568939 118.758079 
L 212.015832 118.810703 
L 212.462725 119.313195 
L 212.909618 119.990884 
L 213.356511 119.994112 
L 214.250297 120.658395 
L 214.69719 120.718666 
L 216.037869 122.004042 
L 216.931655 122.339108 
L 217.378548 122.709515 
L 217.825441 123.456381 
L 218.272334 124.736352 
L 218.719227 125.475548 
L 219.16612 125.638786 
L 220.059905 126.509959 
L 220.953691 128.158126 
L 221.400584 128.300735 
L 221.847477 128.685429 
L 222.29437 128.736066 
L 223.188156 130.207028 
L 224.081942 132.154257 
L 224.975728 133.105366 
L 225.422621 133.506673 
L 225.869514 133.531469 
L 226.316407 132.832378 
L 226.7633 132.989387 
L 227.210193 133.441428 
L 227.657086 134.387364 
L 228.550872 135.323632 
L 229.444658 135.910893 
L 230.338444 137.546241 
L 230.785337 137.773878 
L 231.679123 138.98324 
L 232.126016 139.519361 
L 233.019801 140.921824 
L 233.466694 141.000515 
L 233.913587 140.700017 
L 234.36048 140.778081 
L 235.701159 141.562883 
L 237.041838 143.003362 
L 237.935624 142.678221 
L 239.723196 145.04087 
L 241.063875 145.625189 
L 241.957661 146.956096 
L 242.404554 147.972491 
L 242.851447 148.501125 
L 243.29834 148.507793 
L 243.745233 149.313898 
L 244.639019 151.899644 
L 245.085912 152.218797 
L 245.532805 152.880617 
L 245.979697 152.979796 
L 246.42659 153.371061 
L 246.873483 154.002838 
L 247.320376 153.988981 
L 247.767269 154.437319 
L 248.214162 155.314751 
L 248.661055 156.811163 
L 249.107948 157.863901 
L 249.554841 158.051503 
L 250.001734 157.658439 
L 251.789306 159.097783 
L 252.236199 159.658041 
L 252.683092 159.755354 
L 253.576878 161.466576 
L 254.023771 161.830322 
L 254.470664 162.042982 
L 254.917557 161.863392 
L 255.36445 161.251214 
L 255.811343 161.256369 
L 256.258236 161.118391 
L 256.705129 161.147157 
L 258.492701 159.184804 
L 259.386486 158.500156 
L 259.833379 158.534839 
L 260.280272 158.204466 
L 260.727165 157.723284 
L 261.620951 157.692092 
L 262.067844 157.221893 
L 262.514737 157.346183 
L 262.96163 156.25043 
L 263.408523 156.017689 
L 263.855416 155.479579 
L 264.749202 153.554471 
L 265.196095 152.454675 
L 265.642988 151.870726 
L 266.089881 151.082597 
L 266.983667 148.671836 
L 267.877453 147.207733 
L 268.324346 146.665328 
L 268.771239 145.885047 
L 269.218132 145.687184 
L 269.665025 146.059242 
L 270.111918 145.9403 
L 271.005704 145.00634 
L 271.452597 143.954016 
L 271.89949 143.734917 
L 273.240168 143.902707 
L 273.687061 144.066825 
L 274.133954 143.438283 
L 274.580847 142.352326 
L 275.02774 141.791239 
L 275.474633 140.974476 
L 276.368419 139.024869 
L 276.815312 138.723127 
L 277.262205 138.162196 
L 277.709098 138.660682 
L 278.155991 138.807251 
L 279.943563 138.689868 
L 280.390456 138.986235 
L 281.284242 138.891104 
L 281.731135 138.762043 
L 282.178028 138.109682 
L 282.624921 138.266655 
L 283.071814 138.625204 
L 283.9656 138.070342 
L 284.859386 137.902449 
L 285.306279 138.789672 
L 286.200064 138.778214 
L 286.646957 139.064932 
L 287.09385 139.572031 
L 287.540743 140.272906 
L 288.881422 141.187561 
L 289.328315 141.30731 
L 289.775208 141.309779 
L 290.668994 140.970069 
L 291.115887 140.460946 
L 292.456566 138.00608 
L 293.350352 137.144172 
L 293.797245 137.03721 
L 294.244138 137.38758 
L 295.137924 136.586181 
L 296.03171 136.352209 
L 296.925496 137.243446 
L 297.372389 137.058969 
L 298.266175 138.065333 
L 298.713068 138.507525 
L 299.159961 138.512114 
L 299.606853 138.763042 
L 300.053746 138.878428 
L 300.500639 138.577645 
L 300.947532 138.93488 
L 301.394425 138.924228 
L 301.841318 139.29497 
L 302.288211 140.072931 
L 302.735104 140.273202 
L 304.075783 141.248056 
L 304.522676 142.180907 
L 304.969569 142.573822 
L 305.416462 142.790221 
L 306.310248 144.111084 
L 307.204034 144.926125 
L 307.650927 144.654879 
L 308.09782 144.823654 
L 308.544713 145.498637 
L 311.226071 145.832622 
L 311.672964 146.251052 
L 312.119857 146.315868 
L 312.566749 146.552802 
L 313.013642 146.989605 
L 313.460535 147.839039 
L 314.354321 148.8521 
L 315.695 149.131918 
L 316.141893 149.810753 
L 316.588786 149.404911 
L 317.482572 149.634534 
L 318.823251 150.808531 
L 319.270144 150.980428 
L 319.717037 151.62909 
L 320.16393 151.439096 
L 321.504609 153.053342 
L 321.951502 153.892652 
L 322.398395 154.153216 
L 322.845288 155.022902 
L 323.739074 155.644525 
L 324.185967 156.423019 
L 324.63286 156.572273 
L 325.079753 157.230962 
L 325.526646 157.138621 
L 325.973538 156.92117 
L 326.420431 156.945276 
L 326.867324 156.771602 
L 327.314217 156.097549 
L 327.76111 156.008449 
L 328.208003 155.196637 
L 328.654896 154.920073 
L 329.101789 154.423443 
L 329.548682 153.74818 
L 329.995575 153.479877 
L 330.442468 152.99743 
L 330.889361 151.98881 
L 331.783147 150.708364 
L 333.123826 148.648444 
L 334.464505 148.540139 
L 335.358291 147.966848 
L 336.252077 147.124429 
L 338.486542 145.53982 
L 338.933435 145.502356 
L 339.380327 145.285966 
L 339.82722 145.256685 
L 340.274113 144.698989 
L 340.721006 143.673742 
L 342.061685 142.384361 
L 342.508578 142.206246 
L 343.402364 140.640784 
L 344.29615 138.427236 
L 344.743043 138.060451 
L 345.189936 137.372955 
L 345.636829 137.021601 
L 346.083722 136.875257 
L 346.530615 136.205041 
L 346.977508 135.820391 
L 347.871294 135.432739 
L 348.318187 135.823654 
L 349.211973 135.668124 
L 349.658866 136.049591 
L 350.552652 136.336485 
L 350.999545 136.089935 
L 351.446438 136.391469 
L 351.893331 136.514999 
L 352.340224 136.814944 
L 352.787116 136.848646 
L 353.680902 137.330244 
L 354.574688 137.72004 
L 355.021581 138.182934 
L 355.468474 138.392672 
L 356.809153 136.650061 
L 357.256046 136.382438 
L 357.702939 135.941587 
L 358.149832 136.015322 
L 358.596725 135.79613 
L 359.043618 135.825778 
L 359.490511 135.9821 
L 359.937404 135.926573 
L 360.384297 136.088959 
L 361.278083 135.08981 
L 361.724976 134.632831 
L 362.171869 133.3286 
L 362.618762 132.89927 
L 363.065655 132.663526 
L 363.512548 132.017292 
L 363.959441 131.607866 
L 364.853227 131.188138 
L 365.30012 131.250485 
L 365.747013 131.091584 
L 366.193905 131.405606 
L 366.640798 131.445717 
L 367.534584 130.924632 
L 367.981477 130.582562 
L 368.42837 129.982187 
L 369.322156 128.370301 
L 370.215942 127.268553 
L 370.662835 126.426572 
L 371.109728 126.23291 
L 372.003514 126.9782 
L 372.450407 126.703463 
L 372.8973 126.806442 
L 373.344193 127.044208 
L 373.791086 126.954189 
L 374.684872 127.498439 
L 375.131765 127.592943 
L 375.578658 127.395995 
L 376.025551 127.568322 
L 376.472444 127.45242 
L 376.919337 127.717828 
L 377.813123 127.370043 
L 378.706909 127.746866 
L 379.153802 127.664763 
L 379.600694 127.728316 
L 380.047587 127.526604 
L 380.49448 127.701561 
L 380.941373 128.286402 
L 381.388266 128.602887 
L 382.282052 128.929998 
L 382.728945 129.144954 
L 383.175838 129.674635 
L 383.622731 129.962424 
L 384.069624 130.031664 
L 384.516517 130.681254 
L 384.96341 130.388765 
L 385.410303 130.33665 
L 386.304089 130.615353 
L 386.750982 130.40047 
L 387.197875 129.803548 
L 387.644768 128.975806 
L 388.091661 129.04074 
L 388.538554 128.676335 
L 389.879233 126.722088 
L 390.773019 126.199249 
L 391.219912 126.655426 
L 391.666805 126.402663 
L 392.113698 125.868617 
L 392.560591 126.432862 
L 393.454376 126.128186 
L 393.901269 125.617319 
L 394.795055 124.185898 
L 395.241948 123.542862 
L 395.688841 122.498791 
L 396.582627 121.243942 
L 397.476413 119.379719 
L 397.923306 119.123684 
L 398.370199 118.52364 
L 398.817092 118.190279 
L 399.263985 117.661551 
L 399.710878 117.366348 
L 400.157771 117.685328 
L 400.604664 117.553256 
L 401.49845 117.048902 
L 401.945343 116.854555 
L 402.392236 117.109442 
L 403.732915 114.446988 
L 404.626701 114.314204 
L 405.520487 113.395455 
L 405.967379 113.213945 
L 407.754951 114.030265 
L 408.201844 113.588277 
L 408.648737 113.354839 
L 409.09563 113.546306 
L 409.989416 114.418488 
L 410.436309 114.327102 
L 410.883202 114.498264 
L 411.330095 115.144196 
L 411.776988 115.342552 
L 412.223881 116.066966 
L 412.670774 116.029061 
L 413.117667 116.829774 
L 413.56456 116.972417 
L 414.011453 118.011007 
L 414.458346 118.72211 
L 414.905239 118.513327 
L 415.352132 119.224617 
L 416.245918 119.510383 
L 419.374168 123.299361 
L 419.821061 124.40377 
L 420.267954 124.664963 
L 421.16174 125.99075 
L 421.608633 126.255873 
L 422.055526 126.323196 
L 422.502419 125.682454 
L 422.949312 125.918645 
L 423.396205 125.681084 
L 423.843098 125.657924 
L 424.289991 125.944214 
L 424.736884 126.050683 
L 425.63067 127.191741 
L 426.077563 127.861129 
L 427.418242 128.193345 
L 427.865135 128.172262 
L 428.312028 128.353465 
L 429.205814 128.503131 
L 430.546493 128.969736 
L 430.993386 129.28165 
L 432.334065 129.360218 
L 432.780957 129.802288 
L 433.674743 129.743 
L 434.568529 130.778102 
L 435.015422 131.099881 
L 435.462315 130.851807 
L 436.356101 130.187421 
L 436.802994 130.068085 
L 437.249887 130.293136 
L 438.143673 130.358058 
L 438.590566 130.309809 
L 439.037459 130.137337 
L 439.931245 130.302235 
L 440.378138 130.272982 
L 440.825031 130.09878 
L 441.271924 130.413551 
L 441.718817 130.346563 
L 442.16571 129.969479 
L 442.612603 130.108783 
L 443.059496 129.771061 
L 443.953282 129.315576 
L 444.400175 129.487117 
L 444.847068 130.070706 
L 445.293961 129.718775 
L 446.187746 130.522648 
L 446.634639 130.574218 
L 447.081532 130.471831 
L 448.422211 129.387687 
L 448.869104 129.428311 
L 449.315997 129.278844 
L 449.76289 129.356366 
L 450.209783 129.595515 
L 451.103569 129.102023 
L 451.550462 128.991734 
L 451.997355 128.753563 
L 452.444248 128.88738 
L 452.891141 129.336967 
L 453.338034 129.56005 
L 453.784927 129.606171 
L 454.23182 129.480687 
L 454.678713 129.568269 
L 457.360071 128.074171 
L 458.70075 127.818402 
L 459.147643 127.467408 
L 459.594535 126.859344 
L 460.041428 125.86209 
L 460.488321 125.426878 
L 461.382107 124.990115 
L 461.829 124.797729 
L 462.275893 124.393029 
L 462.722786 124.346697 
L 463.169679 123.962599 
L 463.616572 123.354691 
L 464.510358 123.687893 
L 464.957251 123.375375 
L 465.851037 123.425881 
L 466.29793 123.753035 
L 466.744823 123.768291 
L 467.191716 123.405833 
L 467.638609 123.796062 
L 468.532395 123.846029 
L 469.426181 123.186197 
L 470.319967 123.312316 
L 471.213753 122.815516 
L 471.660646 122.912588 
L 473.89511 122.724674 
L 474.342003 122.512844 
L 476.129575 120.623172 
L 476.576468 119.98438 
L 477.917147 118.880083 
L 478.36404 118.382377 
L 479.257826 117.640329 
L 479.704719 116.949416 
L 481.045398 114.445244 
L 481.939184 113.641969 
L 482.83297 113.933675 
L 483.279863 113.261211 
L 484.620542 111.936548 
L 485.067435 111.270789 
L 485.514328 111.050838 
L 485.96122 110.559612 
L 486.408113 109.746525 
L 487.301899 108.536589 
L 487.748792 108.349518 
L 488.642578 107.30236 
L 489.089471 106.827396 
L 489.536364 106.971902 
L 489.983257 106.488239 
L 490.43015 106.450772 
L 490.877043 106.293504 
L 491.770829 107.43656 
L 492.664615 107.497886 
L 493.111508 107.985536 
L 493.558401 107.827296 
L 494.452187 107.792727 
L 495.345973 108.177919 
L 496.239759 108.401766 
L 496.686652 108.881954 
L 497.133545 109.132314 
L 497.580438 109.190356 
L 498.027331 109.882702 
L 498.474224 110.252345 
L 498.921117 110.806221 
L 499.368009 111.158623 
L 499.814902 111.233027 
L 500.708688 112.971678 
L 501.602474 113.080393 
L 502.943153 115.600737 
L 503.390046 116.833191 
L 503.836939 117.422811 
L 504.730725 118.847699 
L 505.177618 119.419085 
L 505.624511 120.574603 
L 506.96519 122.303274 
L 507.412083 123.554497 
L 507.858976 124.24691 
L 508.305869 124.546563 
L 510.987227 128.029682 
L 511.43412 128.516091 
L 512.327906 128.585977 
L 512.774798 129.031453 
L 513.668584 128.722942 
L 514.115477 128.400178 
L 514.56237 128.642322 
L 515.009263 128.680028 
L 515.903049 128.345525 
L 516.796835 128.178883 
L 517.243728 127.731861 
L 517.690621 128.103272 
L 518.137514 128.259827 
L 518.584407 128.262788 
L 519.0313 127.854766 
L 519.478193 127.751882 
L 519.925086 127.996754 
L 520.371979 127.487405 
L 520.818872 127.506218 
L 521.265765 127.315497 
L 522.159551 127.318737 
L 523.053337 126.401474 
L 523.50023 126.189734 
L 523.947123 126.395349 
L 525.287802 125.332934 
L 526.181587 124.116278 
L 527.075373 123.602843 
L 527.522266 123.215915 
L 527.969159 122.658955 
L 528.416052 122.366354 
L 528.416052 122.366354 
" clip-path="url(#p5043eec2b6)" style="fill: none; stroke-dasharray: 2.96,1.28; stroke-dashoffset: 0; stroke: #ff0000; stroke-width: 0.8"/>
   </g>
   <g id="patch_3">
    <path d="M 59.178438 200.648125 
L 59.178438 55.609187 
" style="fill: none; stroke: #ffffff; stroke-width: 1.25; stroke-linejoin: miter; stroke-linecap: square"/>
   </g>
   <g id="patch_4">
    <path d="M 550.760701 200.648125 
L 550.760701 55.609187 
" style="fill: none; stroke: #ffffff; stroke-width: 1.25; stroke-linejoin: miter; stroke-linecap: square"/>
   </g>
   <g id="patch_5">
    <path d="M 59.178438 200.648125 
L 550.760701 200.648125 
" style="fill: none; stroke: #ffffff; stroke-width: 1.25; stroke-linejoin: miter; stroke-linecap: square"/>
   </g>
   <g id="patch_6">
    <path d="M 59.178438 55.609187 
L 550.760701 55.609187 
" style="fill: none; stroke: #ffffff; stroke-width: 1.25; stroke-linejoin: miter; stroke-linecap: square"/>
   </g>
   <g id="legend_1">
    <g id="patch_7">
     <path d="M 478.921013 196.148125 
L 544.460701 196.148125 
Q 546.260701 196.148125 546.260701 194.348125 
L 546.260701 168.8275 
Q 546.260701 167.0275 544.460701 167.0275 
L 478.921013 167.0275 
Q 477.121013 167.0275 477.121013 168.8275 
L 477.121013 194.348125 
Q 477.121013 196.148125 478.921013 196.148125 
z
" style="fill: #eaeaf2; opacity: 0.8; stroke: #cccccc; stroke-linejoin: miter"/>
    </g>
    <g id="line2d_20">
     <path d="M 480.721013 174.316094 
L 489.721013 174.316094 
L 498.721013 174.316094 
" style="fill: none; stroke: #000000; stroke-width: 0.7; stroke-linecap: round"/>
    </g>
    <g id="text_20">
     <!-- TDC -->
     <g style="fill: #262626" transform="translate(505.921013 177.466094)scale(0.09 -0.09)">
      <defs>
       <path id="DejaVuSans-54" d="M -19 4666 
L 3928 4666 
L 3928 4134 
L 2272 4134 
L 2272 0 
L 1638 0 
L 1638 4134 
L -19 4134 
L -19 4666 
z
" transform="scale(0.015625)"/>
       <path id="DejaVuSans-44" d="M 1259 4147 
L 1259 519 
L 2022 519 
Q 2988 519 3436 956 
Q 3884 1394 3884 2338 
Q 3884 3275 3436 3711 
Q 2988 4147 2022 4147 
L 1259 4147 
z
M 628 4666 
L 1925 4666 
Q 3281 4666 3915 4102 
Q 4550 3538 4550 2338 
Q 4550 1131 3912 565 
Q 3275 0 1925 0 
L 628 0 
L 628 4666 
z
" transform="scale(0.015625)"/>
       <path id="DejaVuSans-43" d="M 4122 4306 
L 4122 3641 
Q 3803 3938 3442 4084 
Q 3081 4231 2675 4231 
Q 1875 4231 1450 3742 
Q 1025 3253 1025 2328 
Q 1025 1406 1450 917 
Q 1875 428 2675 428 
Q 3081 428 3442 575 
Q 3803 722 4122 1019 
L 4122 359 
Q 3791 134 3420 21 
Q 3050 -91 2638 -91 
Q 1578 -91 968 557 
Q 359 1206 359 2328 
Q 359 3453 968 4101 
Q 1578 4750 2638 4750 
Q 3056 4750 3426 4639 
Q 3797 4528 4122 4306 
z
" transform="scale(0.015625)"/>
      </defs>
      <use xlink:href="#DejaVuSans-54"/>
      <use xlink:href="#DejaVuSans-44" x="61.083984"/>
      <use xlink:href="#DejaVuSans-43" x="138.085938"/>
     </g>
    </g>
    <g id="line2d_21">
     <path d="M 480.721013 187.526406 
L 489.721013 187.526406 
L 498.721013 187.526406 
" style="fill: none; stroke-dasharray: 2.96,1.28; stroke-dashoffset: 0; stroke: #ff0000; stroke-width: 0.8"/>
    </g>
    <g id="text_21">
     <!-- Mov. Av. -->
     <g style="fill: #262626" transform="translate(505.921013 190.676406)scale(0.09 -0.09)">
      <defs>
       <path id="DejaVuSans-4d" d="M 628 4666 
L 1569 4666 
L 2759 1491 
L 3956 4666 
L 4897 4666 
L 4897 0 
L 4281 0 
L 4281 4097 
L 3078 897 
L 2444 897 
L 1241 4097 
L 1241 0 
L 628 0 
L 628 4666 
z
" transform="scale(0.015625)"/>
       <path id="DejaVuSans-76" d="M 191 3500 
L 800 3500 
L 1894 563 
L 2988 3500 
L 3597 3500 
L 2284 0 
L 1503 0 
L 191 3500 
z
" transform="scale(0.015625)"/>
       <path id="DejaVuSans-2e" d="M 684 794 
L 1344 794 
L 1344 0 
L 684 0 
L 684 794 
z
" transform="scale(0.015625)"/>
       <path id="DejaVuSans-41" d="M 2188 4044 
L 1331 1722 
L 3047 1722 
L 2188 4044 
z
M 1831 4666 
L 2547 4666 
L 4325 0 
L 3669 0 
L 3244 1197 
L 1141 1197 
L 716 0 
L 50 0 
L 1831 4666 
z
" transform="scale(0.015625)"/>
      </defs>
      <use xlink:href="#DejaVuSans-4d"/>
      <use xlink:href="#DejaVuSans-6f" x="86.279297"/>
      <use xlink:href="#DejaVuSans-76" x="147.460938"/>
      <use xlink:href="#DejaVuSans-2e" x="198.890625"/>
      <use xlink:href="#DejaVuSans-20" x="230.677734"/>
      <use xlink:href="#DejaVuSans-41" x="262.464844"/>
      <use xlink:href="#DejaVuSans-76" x="324.998047"/>
      <use xlink:href="#DejaVuSans-2e" x="376.427734"/>
     </g>
    </g>
   </g>
  </g>
  <g id="text_22">
   <!-- Energetic Components [Per-residue] -->
   <g style="fill: #262626" transform="translate(161.55375 15.605813)scale(0.14 -0.14)">
    <defs>
     <path id="DejaVuSans-74" d="M 1172 4494 
L 1172 3500 
L 2356 3500 
L 2356 3053 
L 1172 3053 
L 1172 1153 
Q 1172 725 1289 603 
Q 1406 481 1766 481 
L 2356 481 
L 2356 0 
L 1766 0 
Q 1100 0 847 248 
Q 594 497 594 1153 
L 594 3053 
L 172 3053 
L 172 3500 
L 594 3500 
L 594 4494 
L 1172 4494 
z
" transform="scale(0.015625)"/>
     <path id="DejaVuSans-69" d="M 603 3500 
L 1178 3500 
L 1178 0 
L 603 0 
L 603 3500 
z
M 603 4863 
L 1178 4863 
L 1178 4134 
L 603 4134 
L 603 4863 
z
" transform="scale(0.015625)"/>
     <path id="DejaVuSans-70" d="M 1159 525 
L 1159 -1331 
L 581 -1331 
L 581 3500 
L 1159 3500 
L 1159 2969 
Q 1341 3281 1617 3432 
Q 1894 3584 2278 3584 
Q 2916 3584 3314 3078 
Q 3713 2572 3713 1747 
Q 3713 922 3314 415 
Q 2916 -91 2278 -91 
Q 1894 -91 1617 61 
Q 1341 213 1159 525 
z
M 3116 1747 
Q 3116 2381 2855 2742 
Q 2594 3103 2138 3103 
Q 1681 3103 1420 2742 
Q 1159 2381 1159 1747 
Q 1159 1113 1420 752 
Q 1681 391 2138 391 
Q 2594 391 2855 752 
Q 3116 1113 3116 1747 
z
" transform="scale(0.015625)"/>
     <path id="DejaVuSans-5b" d="M 550 4863 
L 1875 4863 
L 1875 4416 
L 1125 4416 
L 1125 -397 
L 1875 -397 
L 1875 -844 
L 550 -844 
L 550 4863 
z
" transform="scale(0.015625)"/>
     <path id="DejaVuSans-50" d="M 1259 4147 
L 1259 2394 
L 2053 2394 
Q 2494 2394 2734 2622 
Q 2975 2850 2975 3272 
Q 2975 3691 2734 3919 
Q 2494 4147 2053 4147 
L 1259 4147 
z
M 628 4666 
L 2053 4666 
Q 2838 4666 3239 4311 
Q 3641 3956 3641 3272 
Q 3641 2581 3239 2228 
Q 2838 1875 2053 1875 
L 1259 1875 
L 1259 0 
L 628 0 
L 628 4666 
z
" transform="scale(0.015625)"/>
     <path id="DejaVuSans-2d" d="M 313 2009 
L 1997 2009 
L 1997 1497 
L 313 1497 
L 313 2009 
z
" transform="scale(0.015625)"/>
     <path id="DejaVuSans-64" d="M 2906 2969 
L 2906 4863 
L 3481 4863 
L 3481 0 
L 2906 0 
L 2906 525 
Q 2725 213 2448 61 
Q 2172 -91 1784 -91 
Q 1150 -91 751 415 
Q 353 922 353 1747 
Q 353 2572 751 3078 
Q 1150 3584 1784 3584 
Q 2172 3584 2448 3432 
Q 2725 3281 2906 2969 
z
M 947 1747 
Q 947 1113 1208 752 
Q 1469 391 1925 391 
Q 2381 391 2643 752 
Q 2906 1113 2906 1747 
Q 2906 2381 2643 2742 
Q 2381 3103 1925 3103 
Q 1469 3103 1208 2742 
Q 947 2381 947 1747 
z
" transform="scale(0.015625)"/>
     <path id="DejaVuSans-75" d="M 544 1381 
L 544 3500 
L 1119 3500 
L 1119 1403 
Q 1119 906 1312 657 
Q 1506 409 1894 409 
Q 2359 409 2629 706 
Q 2900 1003 2900 1516 
L 2900 3500 
L 3475 3500 
L 3475 0 
L 2900 0 
L 2900 538 
Q 2691 219 2414 64 
Q 2138 -91 1772 -91 
Q 1169 -91 856 284 
Q 544 659 544 1381 
z
M 1991 3584 
L 1991 3584 
z
" transform="scale(0.015625)"/>
     <path id="DejaVuSans-5d" d="M 1947 4863 
L 1947 -844 
L 622 -844 
L 622 -397 
L 1369 -397 
L 1369 4416 
L 622 4416 
L 622 4863 
L 1947 4863 
z
" transform="scale(0.015625)"/>
    </defs>
    <use xlink:href="#DejaVuSans-45"/>
    <use xlink:href="#DejaVuSans-6e" x="63.183594"/>
    <use xlink:href="#DejaVuSans-65" x="126.5625"/>
    <use xlink:href="#DejaVuSans-72" x="188.085938"/>
    <use xlink:href="#DejaVuSans-67" x="227.449219"/>
    <use xlink:href="#DejaVuSans-65" x="290.925781"/>
    <use xlink:href="#DejaVuSans-74" x="352.449219"/>
    <use xlink:href="#DejaVuSans-69" x="391.658203"/>
    <use xlink:href="#DejaVuSans-63" x="419.441406"/>
    <use xlink:href="#DejaVuSans-20" x="474.421875"/>
    <use xlink:href="#DejaVuSans-43" x="506.208984"/>
    <use xlink:href="#DejaVuSans-6f" x="576.033203"/>
    <use xlink:href="#DejaVuSans-6d" x="637.214844"/>
    <use xlink:href="#DejaVuSans-70" x="734.626953"/>
    <use xlink:href="#DejaVuSans-6f" x="798.103516"/>
    <use xlink:href="#DejaVuSans-6e" x="859.285156"/>
    <use xlink:href="#DejaVuSans-65" x="922.664062"/>
    <use xlink:href="#DejaVuSans-6e" x="984.1875"/>
    <use xlink:href="#DejaVuSans-74" x="1047.566406"/>
    <use xlink:href="#DejaVuSans-73" x="1086.775391"/>
    <use xlink:href="#DejaVuSans-20" x="1138.875"/>
    <use xlink:href="#DejaVuSans-5b" x="1170.662109"/>
    <use xlink:href="#DejaVuSans-50" x="1209.675781"/>
    <use xlink:href="#DejaVuSans-65" x="1266.353516"/>
    <use xlink:href="#DejaVuSans-72" x="1327.876953"/>
    <use xlink:href="#DejaVuSans-2d" x="1362.615234"/>
    <use xlink:href="#DejaVuSans-72" x="1398.699219"/>
    <use xlink:href="#DejaVuSans-65" x="1437.5625"/>
    <use xlink:href="#DejaVuSans-73" x="1499.085938"/>
    <use xlink:href="#DejaVuSans-69" x="1551.185547"/>
    <use xlink:href="#DejaVuSans-64" x="1578.96875"/>
    <use xlink:href="#DejaVuSans-75" x="1642.445312"/>
    <use xlink:href="#DejaVuSans-65" x="1705.824219"/>
    <use xlink:href="#DejaVuSans-5d" x="1767.347656"/>
   </g>
   <!-- System-1 | NORMAL | GB | Delta | TDC -->
   <g style="fill: #262626" transform="translate(153.892031 31.35625)scale(0.14 -0.14)">
    <defs>
     <path id="DejaVuSans-53" d="M 3425 4513 
L 3425 3897 
Q 3066 4069 2747 4153 
Q 2428 4238 2131 4238 
Q 1616 4238 1336 4038 
Q 1056 3838 1056 3469 
Q 1056 3159 1242 3001 
Q 1428 2844 1947 2747 
L 2328 2669 
Q 3034 2534 3370 2195 
Q 3706 1856 3706 1288 
Q 3706 609 3251 259 
Q 2797 -91 1919 -91 
Q 1588 -91 1214 -16 
Q 841 59 441 206 
L 441 856 
Q 825 641 1194 531 
Q 1563 422 1919 422 
Q 2459 422 2753 634 
Q 3047 847 3047 1241 
Q 3047 1584 2836 1778 
Q 2625 1972 2144 2069 
L 1759 2144 
Q 1053 2284 737 2584 
Q 422 2884 422 3419 
Q 422 4038 858 4394 
Q 1294 4750 2059 4750 
Q 2388 4750 2728 4690 
Q 3069 4631 3425 4513 
z
" transform="scale(0.015625)"/>
     <path id="DejaVuSans-7c" d="M 1344 4891 
L 1344 -1509 
L 813 -1509 
L 813 4891 
L 1344 4891 
z
" transform="scale(0.015625)"/>
     <path id="DejaVuSans-4e" d="M 628 4666 
L 1478 4666 
L 3547 763 
L 3547 4666 
L 4159 4666 
L 4159 0 
L 3309 0 
L 1241 3903 
L 1241 0 
L 628 0 
L 628 4666 
z
" transform="scale(0.015625)"/>
     <path id="DejaVuSans-4f" d="M 2522 4238 
Q 1834 4238 1429 3725 
Q 1025 3213 1025 2328 
Q 1025 1447 1429 934 
Q 1834 422 2522 422 
Q 3209 422 3611 934 
Q 4013 1447 4013 2328 
Q 4013 3213 3611 3725 
Q 3209 4238 2522 4238 
z
M 2522 4750 
Q 3503 4750 4090 4092 
Q 4678 3434 4678 2328 
Q 4678 1225 4090 567 
Q 3503 -91 2522 -91 
Q 1538 -91 948 565 
Q 359 1222 359 2328 
Q 359 3434 948 4092 
Q 1538 4750 2522 4750 
z
" transform="scale(0.015625)"/>
     <path id="DejaVuSans-52" d="M 2841 2188 
Q 3044 2119 3236 1894 
Q 3428 1669 3622 1275 
L 4263 0 
L 3584 0 
L 2988 1197 
Q 2756 1666 2539 1819 
Q 2322 1972 1947 1972 
L 1259 1972 
L 1259 0 
L 628 0 
L 628 4666 
L 2053 4666 
Q 2853 4666 3247 4331 
Q 3641 3997 3641 3322 
Q 3641 2881 3436 2590 
Q 3231 2300 2841 2188 
z
M 1259 4147 
L 1259 2491 
L 2053 2491 
Q 2509 2491 2742 2702 
Q 2975 2913 2975 3322 
Q 2975 3731 2742 3939 
Q 2509 4147 2053 4147 
L 1259 4147 
z
" transform="scale(0.015625)"/>
     <path id="DejaVuSans-4c" d="M 628 4666 
L 1259 4666 
L 1259 531 
L 3531 531 
L 3531 0 
L 628 0 
L 628 4666 
z
" transform="scale(0.015625)"/>
     <path id="DejaVuSans-47" d="M 3809 666 
L 3809 1919 
L 2778 1919 
L 2778 2438 
L 4434 2438 
L 4434 434 
Q 4069 175 3628 42 
Q 3188 -91 2688 -91 
Q 1594 -91 976 548 
Q 359 1188 359 2328 
Q 359 3472 976 4111 
Q 1594 4750 2688 4750 
Q 3144 4750 3555 4637 
Q 3966 4525 4313 4306 
L 4313 3634 
Q 3963 3931 3569 4081 
Q 3175 4231 2741 4231 
Q 1884 4231 1454 3753 
Q 1025 3275 1025 2328 
Q 1025 1384 1454 906 
Q 1884 428 2741 428 
Q 3075 428 3337 486 
Q 3600 544 3809 666 
z
" transform="scale(0.015625)"/>
     <path id="DejaVuSans-42" d="M 1259 2228 
L 1259 519 
L 2272 519 
Q 2781 519 3026 730 
Q 3272 941 3272 1375 
Q 3272 1813 3026 2020 
Q 2781 2228 2272 2228 
L 1259 2228 
z
M 1259 4147 
L 1259 2741 
L 2194 2741 
Q 2656 2741 2882 2914 
Q 3109 3088 3109 3444 
Q 3109 3797 2882 3972 
Q 2656 4147 2194 4147 
L 1259 4147 
z
M 628 4666 
L 2241 4666 
Q 2963 4666 3353 4366 
Q 3744 4066 3744 3513 
Q 3744 3084 3544 2831 
Q 3344 2578 2956 2516 
Q 3422 2416 3680 2098 
Q 3938 1781 3938 1306 
Q 3938 681 3513 340 
Q 3088 0 2303 0 
L 628 0 
L 628 4666 
z
" transform="scale(0.015625)"/>
    </defs>
    <use xlink:href="#DejaVuSans-53"/>
    <use xlink:href="#DejaVuSans-79" x="63.476562"/>
    <use xlink:href="#DejaVuSans-73" x="122.65625"/>
    <use xlink:href="#DejaVuSans-74" x="174.755859"/>
    <use xlink:href="#DejaVuSans-65" x="213.964844"/>
    <use xlink:href="#DejaVuSans-6d" x="275.488281"/>
    <use xlink:href="#DejaVuSans-2d" x="372.900391"/>
    <use xlink:href="#DejaVuSans-31" x="408.984375"/>
    <use xlink:href="#DejaVuSans-20" x="472.607422"/>
    <use xlink:href="#DejaVuSans-7c" x="504.394531"/>
    <use xlink:href="#DejaVuSans-20" x="538.085938"/>
    <use xlink:href="#DejaVuSans-4e" x="569.873047"/>
    <use xlink:href="#DejaVuSans-4f" x="644.677734"/>
    <use xlink:href="#DejaVuSans-52" x="723.388672"/>
    <use xlink:href="#DejaVuSans-4d" x="792.871094"/>
    <use xlink:href="#DejaVuSans-41" x="879.150391"/>
    <use xlink:href="#DejaVuSans-4c" x="947.558594"/>
    <use xlink:href="#DejaVuSans-20" x="1003.271484"/>
    <use xlink:href="#DejaVuSans-7c" x="1035.058594"/>
    <use xlink:href="#DejaVuSans-20" x="1068.75"/>
    <use xlink:href="#DejaVuSans-47" x="1100.537109"/>
    <use xlink:href="#DejaVuSans-42" x="1178.027344"/>
    <use xlink:href="#DejaVuSans-20" x="1246.630859"/>
    <use xlink:href="#DejaVuSans-7c" x="1278.417969"/>
    <use xlink:href="#DejaVuSans-20" x="1312.109375"/>
    <use xlink:href="#DejaVuSans-44" x="1343.896484"/>
    <use xlink:href="#DejaVuSans-65" x="1420.898438"/>
    <use xlink:href="#DejaVuSans-6c" x="1482.421875"/>
    <use xlink:href="#DejaVuSans-74" x="1510.205078"/>
    <use xlink:href="#DejaVuSans-61" x="1549.414062"/>
    <use xlink:href="#DejaVuSans-20" x="1610.693359"/>
    <use xlink:href="#DejaVuSans-7c" x="1642.480469"/>
    <use xlink:href="#DejaVuSans-20" x="1676.171875"/>
    <use xlink:href="#DejaVuSans-54" x="1707.958984"/>
    <use xlink:href="#DejaVuSans-44" x="1769.042969"/>
    <use xlink:href="#DejaVuSans-43" x="1846.044922"/>
   </g>
  </g>
 </g>
 <defs>
  <clipPath id="p5043eec2b6">
   <rect x="59.178438" y="55.609187" width="491.582263" height="145.038938"/>
  </clipPath>
 </defs>
</svg>
