<?xml version="1.0" encoding="utf-8" standalone="no"?>
<!DOCTYPE svg PUBLIC "-//W3C//DTD SVG 1.1//EN"
  "http://www.w3.org/Graphics/SVG/1.1/DTD/svg11.dtd">
<svg xmlns:xlink="http://www.w3.org/1999/xlink" width="576pt" height="248.4pt" viewBox="0 0 576 248.4" xmlns="http://www.w3.org/2000/svg" version="1.1">
 <metadata>
  <rdf:RDF xmlns:dc="http://purl.org/dc/elements/1.1/" xmlns:cc="http://creativecommons.org/ns#" xmlns:rdf="http://www.w3.org/1999/02/22-rdf-syntax-ns#">
   <cc:Work>
    <dc:type rdf:resource="http://purl.org/dc/dcmitype/StillImage"/>
    <dc:date>2024-10-20T17:24:24.077756</dc:date>
    <dc:format>image/svg+xml</dc:format>
    <dc:creator>
     <cc:Agent>
      <dc:title>Matplotlib v3.5.2, https://matplotlib.org/</dc:title>
     </cc:Agent>
    </dc:creator>
   </cc:Work>
  </rdf:RDF>
 </metadata>
 <defs>
  <style type="text/css">*{stroke-linejoin: round; stroke-linecap: butt}</style>
 </defs>
 <g id="figure_1">
  <g id="patch_1">
   <path d="M 0 248.4 
L 576 248.4 
L 576 0 
L 0 0 
z
" style="fill: #ffffff"/>
  </g>
  <g id="axes_1">
   <g id="patch_2">
    <path d="M 59.178438 200.648125 
L 550.760783 200.648125 
L 550.760783 55.609187 
L 59.178438 55.609187 
z
" style="fill: #eaeaf2"/>
   </g>
   <g id="matplotlib.axis_1">
    <g id="xtick_1">
     <g id="line2d_1">
      <path d="M 81.076197 200.648125 
L 81.076197 55.609187 
" clip-path="url(#p32b0a2592a)" style="fill: none; stroke: #ffffff; stroke-linecap: round"/>
     </g>
     <g id="text_1">
      <!-- 0 -->
      <g style="fill: #262626" transform="translate(77.894947 217.746562)scale(0.1 -0.1)">
       <defs>
        <path id="DejaVuSans-30" d="M 2034 4250 
Q 1547 4250 1301 3770 
Q 1056 3291 1056 2328 
Q 1056 1369 1301 889 
Q 1547 409 2034 409 
Q 2525 409 2770 889 
Q 3016 1369 3016 2328 
Q 3016 3291 2770 3770 
Q 2525 4250 2034 4250 
z
M 2034 4750 
Q 2819 4750 3233 4129 
Q 3647 3509 3647 2328 
Q 3647 1150 3233 529 
Q 2819 -91 2034 -91 
Q 1250 -91 836 529 
Q 422 1150 422 2328 
Q 422 3509 836 4129 
Q 1250 4750 2034 4750 
z
" transform="scale(0.015625)"/>
       </defs>
       <use xlink:href="#DejaVuSans-30"/>
      </g>
     </g>
    </g>
    <g id="xtick_2">
     <g id="line2d_2">
      <path d="M 148.110153 200.648125 
L 148.110153 55.609187 
" clip-path="url(#p32b0a2592a)" style="fill: none; stroke: #ffffff; stroke-linecap: round"/>
     </g>
     <g id="text_2">
      <!-- 150 -->
      <g style="fill: #262626" transform="translate(138.566403 217.746562)scale(0.1 -0.1)">
       <defs>
        <path id="DejaVuSans-31" d="M 794 531 
L 1825 531 
L 1825 4091 
L 703 3866 
L 703 4441 
L 1819 4666 
L 2450 4666 
L 2450 531 
L 3481 531 
L 3481 0 
L 794 0 
L 794 531 
z
" transform="scale(0.015625)"/>
        <path id="DejaVuSans-35" d="M 691 4666 
L 3169 4666 
L 3169 4134 
L 1269 4134 
L 1269 2991 
Q 1406 3038 1543 3061 
Q 1681 3084 1819 3084 
Q 2600 3084 3056 2656 
Q 3513 2228 3513 1497 
Q 3513 744 3044 326 
Q 2575 -91 1722 -91 
Q 1428 -91 1123 -41 
Q 819 9 494 109 
L 494 744 
Q 775 591 1075 516 
Q 1375 441 1709 441 
Q 2250 441 2565 725 
Q 2881 1009 2881 1497 
Q 2881 1984 2565 2268 
Q 2250 2553 1709 2553 
Q 1456 2553 1204 2497 
Q 953 2441 691 2322 
L 691 4666 
z
" transform="scale(0.015625)"/>
       </defs>
       <use xlink:href="#DejaVuSans-31"/>
       <use xlink:href="#DejaVuSans-35" x="63.623047"/>
       <use xlink:href="#DejaVuSans-30" x="127.246094"/>
      </g>
     </g>
    </g>
    <g id="xtick_3">
     <g id="line2d_3">
      <path d="M 215.144109 200.648125 
L 215.144109 55.609187 
" clip-path="url(#p32b0a2592a)" style="fill: none; stroke: #ffffff; stroke-linecap: round"/>
     </g>
     <g id="text_3">
      <!-- 300 -->
      <g style="fill: #262626" transform="translate(205.600359 217.746562)scale(0.1 -0.1)">
       <defs>
        <path id="DejaVuSans-33" d="M 2597 2516 
Q 3050 2419 3304 2112 
Q 3559 1806 3559 1356 
Q 3559 666 3084 287 
Q 2609 -91 1734 -91 
Q 1441 -91 1130 -33 
Q 819 25 488 141 
L 488 750 
Q 750 597 1062 519 
Q 1375 441 1716 441 
Q 2309 441 2620 675 
Q 2931 909 2931 1356 
Q 2931 1769 2642 2001 
Q 2353 2234 1838 2234 
L 1294 2234 
L 1294 2753 
L 1863 2753 
Q 2328 2753 2575 2939 
Q 2822 3125 2822 3475 
Q 2822 3834 2567 4026 
Q 2313 4219 1838 4219 
Q 1578 4219 1281 4162 
Q 984 4106 628 3988 
L 628 4550 
Q 988 4650 1302 4700 
Q 1616 4750 1894 4750 
Q 2613 4750 3031 4423 
Q 3450 4097 3450 3541 
Q 3450 3153 3228 2886 
Q 3006 2619 2597 2516 
z
" transform="scale(0.015625)"/>
       </defs>
       <use xlink:href="#DejaVuSans-33"/>
       <use xlink:href="#DejaVuSans-30" x="63.623047"/>
       <use xlink:href="#DejaVuSans-30" x="127.246094"/>
      </g>
     </g>
    </g>
    <g id="xtick_4">
     <g id="line2d_4">
      <path d="M 282.178065 200.648125 
L 282.178065 55.609187 
" clip-path="url(#p32b0a2592a)" style="fill: none; stroke: #ffffff; stroke-linecap: round"/>
     </g>
     <g id="text_4">
      <!-- 450 -->
      <g style="fill: #262626" transform="translate(272.634315 217.746562)scale(0.1 -0.1)">
       <defs>
        <path id="DejaVuSans-34" d="M 2419 4116 
L 825 1625 
L 2419 1625 
L 2419 4116 
z
M 2253 4666 
L 3047 4666 
L 3047 1625 
L 3713 1625 
L 3713 1100 
L 3047 1100 
L 3047 0 
L 2419 0 
L 2419 1100 
L 313 1100 
L 313 1709 
L 2253 4666 
z
" transform="scale(0.015625)"/>
       </defs>
       <use xlink:href="#DejaVuSans-34"/>
       <use xlink:href="#DejaVuSans-35" x="63.623047"/>
       <use xlink:href="#DejaVuSans-30" x="127.246094"/>
      </g>
     </g>
    </g>
    <g id="xtick_5">
     <g id="line2d_5">
      <path d="M 349.212021 200.648125 
L 349.212021 55.609187 
" clip-path="url(#p32b0a2592a)" style="fill: none; stroke: #ffffff; stroke-linecap: round"/>
     </g>
     <g id="text_5">
      <!-- 600 -->
      <g style="fill: #262626" transform="translate(339.668271 217.746562)scale(0.1 -0.1)">
       <defs>
        <path id="DejaVuSans-36" d="M 2113 2584 
Q 1688 2584 1439 2293 
Q 1191 2003 1191 1497 
Q 1191 994 1439 701 
Q 1688 409 2113 409 
Q 2538 409 2786 701 
Q 3034 994 3034 1497 
Q 3034 2003 2786 2293 
Q 2538 2584 2113 2584 
z
M 3366 4563 
L 3366 3988 
Q 3128 4100 2886 4159 
Q 2644 4219 2406 4219 
Q 1781 4219 1451 3797 
Q 1122 3375 1075 2522 
Q 1259 2794 1537 2939 
Q 1816 3084 2150 3084 
Q 2853 3084 3261 2657 
Q 3669 2231 3669 1497 
Q 3669 778 3244 343 
Q 2819 -91 2113 -91 
Q 1303 -91 875 529 
Q 447 1150 447 2328 
Q 447 3434 972 4092 
Q 1497 4750 2381 4750 
Q 2619 4750 2861 4703 
Q 3103 4656 3366 4563 
z
" transform="scale(0.015625)"/>
       </defs>
       <use xlink:href="#DejaVuSans-36"/>
       <use xlink:href="#DejaVuSans-30" x="63.623047"/>
       <use xlink:href="#DejaVuSans-30" x="127.246094"/>
      </g>
     </g>
    </g>
    <g id="xtick_6">
     <g id="line2d_6">
      <path d="M 416.245977 200.648125 
L 416.245977 55.609187 
" clip-path="url(#p32b0a2592a)" style="fill: none; stroke: #ffffff; stroke-linecap: round"/>
     </g>
     <g id="text_6">
      <!-- 750 -->
      <g style="fill: #262626" transform="translate(406.702227 217.746562)scale(0.1 -0.1)">
       <defs>
        <path id="DejaVuSans-37" d="M 525 4666 
L 3525 4666 
L 3525 4397 
L 1831 0 
L 1172 0 
L 2766 4134 
L 525 4134 
L 525 4666 
z
" transform="scale(0.015625)"/>
       </defs>
       <use xlink:href="#DejaVuSans-37"/>
       <use xlink:href="#DejaVuSans-35" x="63.623047"/>
       <use xlink:href="#DejaVuSans-30" x="127.246094"/>
      </g>
     </g>
    </g>
    <g id="xtick_7">
     <g id="line2d_7">
      <path d="M 483.279933 200.648125 
L 483.279933 55.609187 
" clip-path="url(#p32b0a2592a)" style="fill: none; stroke: #ffffff; stroke-linecap: round"/>
     </g>
     <g id="text_7">
      <!-- 900 -->
      <g style="fill: #262626" transform="translate(473.736183 217.746562)scale(0.1 -0.1)">
       <defs>
        <path id="DejaVuSans-39" d="M 703 97 
L 703 672 
Q 941 559 1184 500 
Q 1428 441 1663 441 
Q 2288 441 2617 861 
Q 2947 1281 2994 2138 
Q 2813 1869 2534 1725 
Q 2256 1581 1919 1581 
Q 1219 1581 811 2004 
Q 403 2428 403 3163 
Q 403 3881 828 4315 
Q 1253 4750 1959 4750 
Q 2769 4750 3195 4129 
Q 3622 3509 3622 2328 
Q 3622 1225 3098 567 
Q 2575 -91 1691 -91 
Q 1453 -91 1209 -44 
Q 966 3 703 97 
z
M 1959 2075 
Q 2384 2075 2632 2365 
Q 2881 2656 2881 3163 
Q 2881 3666 2632 3958 
Q 2384 4250 1959 4250 
Q 1534 4250 1286 3958 
Q 1038 3666 1038 3163 
Q 1038 2656 1286 2365 
Q 1534 2075 1959 2075 
z
" transform="scale(0.015625)"/>
       </defs>
       <use xlink:href="#DejaVuSans-39"/>
       <use xlink:href="#DejaVuSans-30" x="63.623047"/>
       <use xlink:href="#DejaVuSans-30" x="127.246094"/>
      </g>
     </g>
    </g>
    <g id="xtick_8">
     <g id="line2d_8">
      <path d="M 550.313889 200.648125 
L 550.313889 55.609187 
" clip-path="url(#p32b0a2592a)" style="fill: none; stroke: #ffffff; stroke-linecap: round"/>
     </g>
     <g id="text_8">
      <!-- 1050 -->
      <g style="fill: #262626" transform="translate(537.588889 217.746562)scale(0.1 -0.1)">
       <use xlink:href="#DejaVuSans-31"/>
       <use xlink:href="#DejaVuSans-30" x="63.623047"/>
       <use xlink:href="#DejaVuSans-35" x="127.246094"/>
       <use xlink:href="#DejaVuSans-30" x="190.869141"/>
      </g>
     </g>
    </g>
    <g id="text_9">
     <!-- Frames -->
     <g style="fill: #262626" transform="translate(283.14836 232.944375)scale(0.12 -0.12)">
      <defs>
       <path id="DejaVuSans-46" d="M 628 4666 
L 3309 4666 
L 3309 4134 
L 1259 4134 
L 1259 2759 
L 3109 2759 
L 3109 2228 
L 1259 2228 
L 1259 0 
L 628 0 
L 628 4666 
z
" transform="scale(0.015625)"/>
       <path id="DejaVuSans-72" d="M 2631 2963 
Q 2534 3019 2420 3045 
Q 2306 3072 2169 3072 
Q 1681 3072 1420 2755 
Q 1159 2438 1159 1844 
L 1159 0 
L 581 0 
L 581 3500 
L 1159 3500 
L 1159 2956 
Q 1341 3275 1631 3429 
Q 1922 3584 2338 3584 
Q 2397 3584 2469 3576 
Q 2541 3569 2628 3553 
L 2631 2963 
z
" transform="scale(0.015625)"/>
       <path id="DejaVuSans-61" d="M 2194 1759 
Q 1497 1759 1228 1600 
Q 959 1441 959 1056 
Q 959 750 1161 570 
Q 1363 391 1709 391 
Q 2188 391 2477 730 
Q 2766 1069 2766 1631 
L 2766 1759 
L 2194 1759 
z
M 3341 1997 
L 3341 0 
L 2766 0 
L 2766 531 
Q 2569 213 2275 61 
Q 1981 -91 1556 -91 
Q 1019 -91 701 211 
Q 384 513 384 1019 
Q 384 1609 779 1909 
Q 1175 2209 1959 2209 
L 2766 2209 
L 2766 2266 
Q 2766 2663 2505 2880 
Q 2244 3097 1772 3097 
Q 1472 3097 1187 3025 
Q 903 2953 641 2809 
L 641 3341 
Q 956 3463 1253 3523 
Q 1550 3584 1831 3584 
Q 2591 3584 2966 3190 
Q 3341 2797 3341 1997 
z
" transform="scale(0.015625)"/>
       <path id="DejaVuSans-6d" d="M 3328 2828 
Q 3544 3216 3844 3400 
Q 4144 3584 4550 3584 
Q 5097 3584 5394 3201 
Q 5691 2819 5691 2113 
L 5691 0 
L 5113 0 
L 5113 2094 
Q 5113 2597 4934 2840 
Q 4756 3084 4391 3084 
Q 3944 3084 3684 2787 
Q 3425 2491 3425 1978 
L 3425 0 
L 2847 0 
L 2847 2094 
Q 2847 2600 2669 2842 
Q 2491 3084 2119 3084 
Q 1678 3084 1418 2786 
Q 1159 2488 1159 1978 
L 1159 0 
L 581 0 
L 581 3500 
L 1159 3500 
L 1159 2956 
Q 1356 3278 1631 3431 
Q 1906 3584 2284 3584 
Q 2666 3584 2933 3390 
Q 3200 3197 3328 2828 
z
" transform="scale(0.015625)"/>
       <path id="DejaVuSans-65" d="M 3597 1894 
L 3597 1613 
L 953 1613 
Q 991 1019 1311 708 
Q 1631 397 2203 397 
Q 2534 397 2845 478 
Q 3156 559 3463 722 
L 3463 178 
Q 3153 47 2828 -22 
Q 2503 -91 2169 -91 
Q 1331 -91 842 396 
Q 353 884 353 1716 
Q 353 2575 817 3079 
Q 1281 3584 2069 3584 
Q 2775 3584 3186 3129 
Q 3597 2675 3597 1894 
z
M 3022 2063 
Q 3016 2534 2758 2815 
Q 2500 3097 2075 3097 
Q 1594 3097 1305 2825 
Q 1016 2553 972 2059 
L 3022 2063 
z
" transform="scale(0.015625)"/>
       <path id="DejaVuSans-73" d="M 2834 3397 
L 2834 2853 
Q 2591 2978 2328 3040 
Q 2066 3103 1784 3103 
Q 1356 3103 1142 2972 
Q 928 2841 928 2578 
Q 928 2378 1081 2264 
Q 1234 2150 1697 2047 
L 1894 2003 
Q 2506 1872 2764 1633 
Q 3022 1394 3022 966 
Q 3022 478 2636 193 
Q 2250 -91 1575 -91 
Q 1294 -91 989 -36 
Q 684 19 347 128 
L 347 722 
Q 666 556 975 473 
Q 1284 391 1588 391 
Q 1994 391 2212 530 
Q 2431 669 2431 922 
Q 2431 1156 2273 1281 
Q 2116 1406 1581 1522 
L 1381 1569 
Q 847 1681 609 1914 
Q 372 2147 372 2553 
Q 372 3047 722 3315 
Q 1072 3584 1716 3584 
Q 2034 3584 2315 3537 
Q 2597 3491 2834 3397 
z
" transform="scale(0.015625)"/>
      </defs>
      <use xlink:href="#DejaVuSans-46"/>
      <use xlink:href="#DejaVuSans-72" x="50.269531"/>
      <use xlink:href="#DejaVuSans-61" x="91.382812"/>
      <use xlink:href="#DejaVuSans-6d" x="152.662109"/>
      <use xlink:href="#DejaVuSans-65" x="250.074219"/>
      <use xlink:href="#DejaVuSans-73" x="311.597656"/>
     </g>
    </g>
   </g>
   <g id="matplotlib.axis_2">
    <g id="ytick_1">
     <g id="line2d_9">
      <path d="M 59.178438 193.078982 
L 550.760783 193.078982 
" clip-path="url(#p32b0a2592a)" style="fill: none; stroke: #ffffff; stroke-linecap: round"/>
     </g>
     <g id="text_10">
      <!-- −90 -->
      <g style="fill: #262626" transform="translate(28.57375 196.8782)scale(0.1 -0.1)">
       <defs>
        <path id="DejaVuSans-2212" d="M 678 2272 
L 4684 2272 
L 4684 1741 
L 678 1741 
L 678 2272 
z
" transform="scale(0.015625)"/>
       </defs>
       <use xlink:href="#DejaVuSans-2212"/>
       <use xlink:href="#DejaVuSans-39" x="83.789062"/>
       <use xlink:href="#DejaVuSans-30" x="147.412109"/>
      </g>
     </g>
    </g>
    <g id="ytick_2">
     <g id="line2d_10">
      <path d="M 59.178438 175.732143 
L 550.760783 175.732143 
" clip-path="url(#p32b0a2592a)" style="fill: none; stroke: #ffffff; stroke-linecap: round"/>
     </g>
     <g id="text_11">
      <!-- −80 -->
      <g style="fill: #262626" transform="translate(28.57375 179.531361)scale(0.1 -0.1)">
       <defs>
        <path id="DejaVuSans-38" d="M 2034 2216 
Q 1584 2216 1326 1975 
Q 1069 1734 1069 1313 
Q 1069 891 1326 650 
Q 1584 409 2034 409 
Q 2484 409 2743 651 
Q 3003 894 3003 1313 
Q 3003 1734 2745 1975 
Q 2488 2216 2034 2216 
z
M 1403 2484 
Q 997 2584 770 2862 
Q 544 3141 544 3541 
Q 544 4100 942 4425 
Q 1341 4750 2034 4750 
Q 2731 4750 3128 4425 
Q 3525 4100 3525 3541 
Q 3525 3141 3298 2862 
Q 3072 2584 2669 2484 
Q 3125 2378 3379 2068 
Q 3634 1759 3634 1313 
Q 3634 634 3220 271 
Q 2806 -91 2034 -91 
Q 1263 -91 848 271 
Q 434 634 434 1313 
Q 434 1759 690 2068 
Q 947 2378 1403 2484 
z
M 1172 3481 
Q 1172 3119 1398 2916 
Q 1625 2713 2034 2713 
Q 2441 2713 2670 2916 
Q 2900 3119 2900 3481 
Q 2900 3844 2670 4047 
Q 2441 4250 2034 4250 
Q 1625 4250 1398 4047 
Q 1172 3844 1172 3481 
z
" transform="scale(0.015625)"/>
       </defs>
       <use xlink:href="#DejaVuSans-2212"/>
       <use xlink:href="#DejaVuSans-38" x="83.789062"/>
       <use xlink:href="#DejaVuSans-30" x="147.412109"/>
      </g>
     </g>
    </g>
    <g id="ytick_3">
     <g id="line2d_11">
      <path d="M 59.178438 158.385304 
L 550.760783 158.385304 
" clip-path="url(#p32b0a2592a)" style="fill: none; stroke: #ffffff; stroke-linecap: round"/>
     </g>
     <g id="text_12">
      <!-- −70 -->
      <g style="fill: #262626" transform="translate(28.57375 162.184523)scale(0.1 -0.1)">
       <use xlink:href="#DejaVuSans-2212"/>
       <use xlink:href="#DejaVuSans-37" x="83.789062"/>
       <use xlink:href="#DejaVuSans-30" x="147.412109"/>
      </g>
     </g>
    </g>
    <g id="ytick_4">
     <g id="line2d_12">
      <path d="M 59.178438 141.038465 
L 550.760783 141.038465 
" clip-path="url(#p32b0a2592a)" style="fill: none; stroke: #ffffff; stroke-linecap: round"/>
     </g>
     <g id="text_13">
      <!-- −60 -->
      <g style="fill: #262626" transform="translate(28.57375 144.837684)scale(0.1 -0.1)">
       <use xlink:href="#DejaVuSans-2212"/>
       <use xlink:href="#DejaVuSans-36" x="83.789062"/>
       <use xlink:href="#DejaVuSans-30" x="147.412109"/>
      </g>
     </g>
    </g>
    <g id="ytick_5">
     <g id="line2d_13">
      <path d="M 59.178438 123.691626 
L 550.760783 123.691626 
" clip-path="url(#p32b0a2592a)" style="fill: none; stroke: #ffffff; stroke-linecap: round"/>
     </g>
     <g id="text_14">
      <!-- −50 -->
      <g style="fill: #262626" transform="translate(28.57375 127.490845)scale(0.1 -0.1)">
       <use xlink:href="#DejaVuSans-2212"/>
       <use xlink:href="#DejaVuSans-35" x="83.789062"/>
       <use xlink:href="#DejaVuSans-30" x="147.412109"/>
      </g>
     </g>
    </g>
    <g id="ytick_6">
     <g id="line2d_14">
      <path d="M 59.178438 106.344788 
L 550.760783 106.344788 
" clip-path="url(#p32b0a2592a)" style="fill: none; stroke: #ffffff; stroke-linecap: round"/>
     </g>
     <g id="text_15">
      <!-- −40 -->
      <g style="fill: #262626" transform="translate(28.57375 110.144006)scale(0.1 -0.1)">
       <use xlink:href="#DejaVuSans-2212"/>
       <use xlink:href="#DejaVuSans-34" x="83.789062"/>
       <use xlink:href="#DejaVuSans-30" x="147.412109"/>
      </g>
     </g>
    </g>
    <g id="ytick_7">
     <g id="line2d_15">
      <path d="M 59.178438 88.997949 
L 550.760783 88.997949 
" clip-path="url(#p32b0a2592a)" style="fill: none; stroke: #ffffff; stroke-linecap: round"/>
     </g>
     <g id="text_16">
      <!-- −30 -->
      <g style="fill: #262626" transform="translate(28.57375 92.797168)scale(0.1 -0.1)">
       <use xlink:href="#DejaVuSans-2212"/>
       <use xlink:href="#DejaVuSans-33" x="83.789062"/>
       <use xlink:href="#DejaVuSans-30" x="147.412109"/>
      </g>
     </g>
    </g>
    <g id="ytick_8">
     <g id="line2d_16">
      <path d="M 59.178438 71.65111 
L 550.760783 71.65111 
" clip-path="url(#p32b0a2592a)" style="fill: none; stroke: #ffffff; stroke-linecap: round"/>
     </g>
     <g id="text_17">
      <!-- −20 -->
      <g style="fill: #262626" transform="translate(28.57375 75.450329)scale(0.1 -0.1)">
       <defs>
        <path id="DejaVuSans-32" d="M 1228 531 
L 3431 531 
L 3431 0 
L 469 0 
L 469 531 
Q 828 903 1448 1529 
Q 2069 2156 2228 2338 
Q 2531 2678 2651 2914 
Q 2772 3150 2772 3378 
Q 2772 3750 2511 3984 
Q 2250 4219 1831 4219 
Q 1534 4219 1204 4116 
Q 875 4013 500 3803 
L 500 4441 
Q 881 4594 1212 4672 
Q 1544 4750 1819 4750 
Q 2544 4750 2975 4387 
Q 3406 4025 3406 3419 
Q 3406 3131 3298 2873 
Q 3191 2616 2906 2266 
Q 2828 2175 2409 1742 
Q 1991 1309 1228 531 
z
" transform="scale(0.015625)"/>
       </defs>
       <use xlink:href="#DejaVuSans-2212"/>
       <use xlink:href="#DejaVuSans-32" x="83.789062"/>
       <use xlink:href="#DejaVuSans-30" x="147.412109"/>
      </g>
     </g>
    </g>
    <g id="text_18">
     <!-- Energy (kcal/mol) -->
     <g style="fill: #262626" transform="translate(22.078125 181.045844)rotate(-90)scale(0.12 -0.12)">
      <defs>
       <path id="DejaVuSans-45" d="M 628 4666 
L 3578 4666 
L 3578 4134 
L 1259 4134 
L 1259 2753 
L 3481 2753 
L 3481 2222 
L 1259 2222 
L 1259 531 
L 3634 531 
L 3634 0 
L 628 0 
L 628 4666 
z
" transform="scale(0.015625)"/>
       <path id="DejaVuSans-6e" d="M 3513 2113 
L 3513 0 
L 2938 0 
L 2938 2094 
Q 2938 2591 2744 2837 
Q 2550 3084 2163 3084 
Q 1697 3084 1428 2787 
Q 1159 2491 1159 1978 
L 1159 0 
L 581 0 
L 581 3500 
L 1159 3500 
L 1159 2956 
Q 1366 3272 1645 3428 
Q 1925 3584 2291 3584 
Q 2894 3584 3203 3211 
Q 3513 2838 3513 2113 
z
" transform="scale(0.015625)"/>
       <path id="DejaVuSans-67" d="M 2906 1791 
Q 2906 2416 2648 2759 
Q 2391 3103 1925 3103 
Q 1463 3103 1205 2759 
Q 947 2416 947 1791 
Q 947 1169 1205 825 
Q 1463 481 1925 481 
Q 2391 481 2648 825 
Q 2906 1169 2906 1791 
z
M 3481 434 
Q 3481 -459 3084 -895 
Q 2688 -1331 1869 -1331 
Q 1566 -1331 1297 -1286 
Q 1028 -1241 775 -1147 
L 775 -588 
Q 1028 -725 1275 -790 
Q 1522 -856 1778 -856 
Q 2344 -856 2625 -561 
Q 2906 -266 2906 331 
L 2906 616 
Q 2728 306 2450 153 
Q 2172 0 1784 0 
Q 1141 0 747 490 
Q 353 981 353 1791 
Q 353 2603 747 3093 
Q 1141 3584 1784 3584 
Q 2172 3584 2450 3431 
Q 2728 3278 2906 2969 
L 2906 3500 
L 3481 3500 
L 3481 434 
z
" transform="scale(0.015625)"/>
       <path id="DejaVuSans-79" d="M 2059 -325 
Q 1816 -950 1584 -1140 
Q 1353 -1331 966 -1331 
L 506 -1331 
L 506 -850 
L 844 -850 
Q 1081 -850 1212 -737 
Q 1344 -625 1503 -206 
L 1606 56 
L 191 3500 
L 800 3500 
L 1894 763 
L 2988 3500 
L 3597 3500 
L 2059 -325 
z
" transform="scale(0.015625)"/>
       <path id="DejaVuSans-20" transform="scale(0.015625)"/>
       <path id="DejaVuSans-28" d="M 1984 4856 
Q 1566 4138 1362 3434 
Q 1159 2731 1159 2009 
Q 1159 1288 1364 580 
Q 1569 -128 1984 -844 
L 1484 -844 
Q 1016 -109 783 600 
Q 550 1309 550 2009 
Q 550 2706 781 3412 
Q 1013 4119 1484 4856 
L 1984 4856 
z
" transform="scale(0.015625)"/>
       <path id="DejaVuSans-6b" d="M 581 4863 
L 1159 4863 
L 1159 1991 
L 2875 3500 
L 3609 3500 
L 1753 1863 
L 3688 0 
L 2938 0 
L 1159 1709 
L 1159 0 
L 581 0 
L 581 4863 
z
" transform="scale(0.015625)"/>
       <path id="DejaVuSans-63" d="M 3122 3366 
L 3122 2828 
Q 2878 2963 2633 3030 
Q 2388 3097 2138 3097 
Q 1578 3097 1268 2742 
Q 959 2388 959 1747 
Q 959 1106 1268 751 
Q 1578 397 2138 397 
Q 2388 397 2633 464 
Q 2878 531 3122 666 
L 3122 134 
Q 2881 22 2623 -34 
Q 2366 -91 2075 -91 
Q 1284 -91 818 406 
Q 353 903 353 1747 
Q 353 2603 823 3093 
Q 1294 3584 2113 3584 
Q 2378 3584 2631 3529 
Q 2884 3475 3122 3366 
z
" transform="scale(0.015625)"/>
       <path id="DejaVuSans-6c" d="M 603 4863 
L 1178 4863 
L 1178 0 
L 603 0 
L 603 4863 
z
" transform="scale(0.015625)"/>
       <path id="DejaVuSans-2f" d="M 1625 4666 
L 2156 4666 
L 531 -594 
L 0 -594 
L 1625 4666 
z
" transform="scale(0.015625)"/>
       <path id="DejaVuSans-6f" d="M 1959 3097 
Q 1497 3097 1228 2736 
Q 959 2375 959 1747 
Q 959 1119 1226 758 
Q 1494 397 1959 397 
Q 2419 397 2687 759 
Q 2956 1122 2956 1747 
Q 2956 2369 2687 2733 
Q 2419 3097 1959 3097 
z
M 1959 3584 
Q 2709 3584 3137 3096 
Q 3566 2609 3566 1747 
Q 3566 888 3137 398 
Q 2709 -91 1959 -91 
Q 1206 -91 779 398 
Q 353 888 353 1747 
Q 353 2609 779 3096 
Q 1206 3584 1959 3584 
z
" transform="scale(0.015625)"/>
       <path id="DejaVuSans-29" d="M 513 4856 
L 1013 4856 
Q 1481 4119 1714 3412 
Q 1947 2706 1947 2009 
Q 1947 1309 1714 600 
Q 1481 -109 1013 -844 
L 513 -844 
Q 928 -128 1133 580 
Q 1338 1288 1338 2009 
Q 1338 2731 1133 3434 
Q 928 4138 513 4856 
z
" transform="scale(0.015625)"/>
      </defs>
      <use xlink:href="#DejaVuSans-45"/>
      <use xlink:href="#DejaVuSans-6e" x="63.183594"/>
      <use xlink:href="#DejaVuSans-65" x="126.5625"/>
      <use xlink:href="#DejaVuSans-72" x="188.085938"/>
      <use xlink:href="#DejaVuSans-67" x="227.449219"/>
      <use xlink:href="#DejaVuSans-79" x="290.925781"/>
      <use xlink:href="#DejaVuSans-20" x="350.105469"/>
      <use xlink:href="#DejaVuSans-28" x="381.892578"/>
      <use xlink:href="#DejaVuSans-6b" x="420.90625"/>
      <use xlink:href="#DejaVuSans-63" x="478.816406"/>
      <use xlink:href="#DejaVuSans-61" x="533.796875"/>
      <use xlink:href="#DejaVuSans-6c" x="595.076172"/>
      <use xlink:href="#DejaVuSans-2f" x="622.859375"/>
      <use xlink:href="#DejaVuSans-6d" x="656.550781"/>
      <use xlink:href="#DejaVuSans-6f" x="753.962891"/>
      <use xlink:href="#DejaVuSans-6c" x="815.144531"/>
      <use xlink:href="#DejaVuSans-29" x="842.927734"/>
     </g>
    </g>
   </g>
   <g id="line2d_17">
    <path d="M 81.52309 161.008435 
L 82.416876 181.668833 
L 82.863769 138.30329 
L 83.310662 157.640788 
L 83.757555 162.826932 
L 84.204448 173.138037 
L 84.651341 155.650683 
L 85.098234 153.956744 
L 85.545127 178.056894 
L 85.99202 172.566624 
L 86.438913 157.217333 
L 86.885806 175.489868 
L 87.332699 169.520367 
L 87.779592 172.550634 
L 88.226485 140.927183 
L 88.673378 163.904706 
L 89.120271 167.234261 
L 89.567164 154.725346 
L 90.014057 163.545909 
L 90.46095 146.427436 
L 90.907843 142.323488 
L 91.354736 155.526824 
L 91.801629 159.900354 
L 92.248523 172.020796 
L 92.695416 174.04037 
L 93.142309 181.712809 
L 93.589202 170.154777 
L 94.036095 155.260462 
L 94.482988 152.542723 
L 94.929881 159.039205 
L 95.376774 141.273674 
L 95.823667 144.628415 
L 96.27056 156.055097 
L 96.717453 145.948496 
L 97.164346 112.607693 
L 97.611239 122.032988 
L 98.058132 116.104695 
L 98.505025 127.313024 
L 98.951918 124.218372 
L 99.398811 127.835959 
L 99.845704 153.818188 
L 100.292597 102.477982 
L 101.186383 136.178628 
L 101.633276 117.530811 
L 102.080169 121.856886 
L 102.527062 123.435969 
L 102.973956 118.840719 
L 103.420849 146.279963 
L 103.867742 148.318329 
L 104.314635 131.00976 
L 104.761528 121.243367 
L 105.208421 135.153982 
L 105.655314 154.877138 
L 106.102207 121.530475 
L 106.5491 119.390325 
L 106.995993 136.371657 
L 107.442886 144.161304 
L 107.889779 120.449679 
L 108.336672 121.140233 
L 108.783565 117.43378 
L 109.230458 118.10792 
L 109.677351 135.17199 
L 110.124244 137.122006 
L 110.571137 128.700058 
L 111.01803 133.992444 
L 111.464923 112.807496 
L 111.911816 128.586443 
L 112.805602 104.785324 
L 113.252495 96.927502 
L 113.699388 108.10684 
L 114.146282 94.563496 
L 114.593175 103.363142 
L 115.040068 106.814082 
L 115.486961 100.538761 
L 115.933854 115.200581 
L 116.380747 103.782707 
L 117.274533 94.275877 
L 117.721426 110.967579 
L 118.615212 91.965328 
L 119.062105 101.055107 
L 119.508998 90.964344 
L 119.955891 99.161974 
L 120.402784 101.172701 
L 120.849677 108.405634 
L 121.29657 91.893903 
L 121.743463 111.735006 
L 122.190356 96.280405 
L 122.637249 107.971142 
L 123.084142 114.260605 
L 123.531035 95.101497 
L 123.977928 105.786602 
L 124.424821 104.656088 
L 124.871715 110.409354 
L 125.318608 87.736365 
L 125.765501 99.481906 
L 126.212394 89.877843 
L 126.659287 103.333131 
L 127.10618 83.864664 
L 127.553073 86.143768 
L 128.446859 87.234675 
L 128.893752 66.632833 
L 129.340645 81.283548 
L 130.234431 90.915656 
L 131.128217 63.503372 
L 131.57511 62.201866 
L 132.022003 81.12477 
L 132.915789 89.753941 
L 133.362682 90.697693 
L 133.809575 102.154846 
L 134.256468 89.948189 
L 134.703361 99.769933 
L 135.150254 94.833626 
L 135.597148 100.303991 
L 136.044041 89.490186 
L 136.490934 97.60465 
L 136.937827 92.770447 
L 137.38472 104.513772 
L 137.831613 85.623686 
L 138.278506 109.387763 
L 138.725399 93.412685 
L 139.172292 94.614851 
L 139.619185 91.666657 
L 140.066078 92.900867 
L 140.512971 81.357634 
L 140.959864 116.831718 
L 141.406757 110.228524 
L 141.85365 100.077783 
L 142.300543 85.645686 
L 142.747436 102.591658 
L 143.194329 86.78805 
L 144.088115 121.042957 
L 144.535008 107.311091 
L 144.981901 119.555794 
L 145.428794 99.241311 
L 145.875687 123.374035 
L 146.32258 132.855637 
L 146.769474 134.368294 
L 147.216367 139.743463 
L 147.66326 123.378011 
L 148.110153 122.755067 
L 148.557046 99.160033 
L 149.003939 98.900472 
L 149.450832 103.20203 
L 149.897725 102.611315 
L 150.344618 110.742426 
L 150.791511 102.634549 
L 151.238404 97.278722 
L 151.685297 119.778077 
L 152.579083 98.493296 
L 153.025976 80.240069 
L 153.472869 121.14411 
L 153.919762 103.405669 
L 154.366655 127.632372 
L 154.813548 116.064139 
L 155.260441 126.073293 
L 155.707334 130.136262 
L 156.154227 136.062823 
L 156.60112 146.242558 
L 157.494907 121.936558 
L 157.9418 123.473492 
L 158.388693 118.56914 
L 158.835586 129.390265 
L 159.282479 115.327426 
L 159.729372 116.122694 
L 160.176265 105.967936 
L 160.623158 113.291864 
L 161.070051 129.646731 
L 161.516944 132.923731 
L 161.963837 133.26162 
L 162.41073 111.224397 
L 162.857623 124.469091 
L 163.751409 124.771035 
L 164.198302 108.474379 
L 165.092088 129.760782 
L 165.538981 102.550421 
L 165.985874 116.398682 
L 166.432767 143.055085 
L 166.87966 140.677489 
L 167.326553 131.737737 
L 167.773446 141.994072 
L 168.220339 145.767948 
L 168.667233 148.399869 
L 169.114126 115.518251 
L 170.007912 154.982791 
L 170.454805 155.795086 
L 170.901698 157.465129 
L 171.348591 138.708173 
L 171.795484 146.727363 
L 172.242377 147.59748 
L 172.68927 158.071429 
L 173.136163 134.88709 
L 173.583056 180.232302 
L 174.029949 152.912742 
L 174.476842 151.792127 
L 174.923735 148.860307 
L 175.370628 156.441121 
L 175.817521 154.690669 
L 176.264414 133.56416 
L 176.711307 144.130566 
L 177.1582 164.292404 
L 177.605093 151.264005 
L 178.051986 132.897378 
L 178.498879 141.97047 
L 178.945772 147.767775 
L 179.392666 168.061274 
L 179.839559 158.172615 
L 180.286452 142.231901 
L 180.733345 149.831237 
L 181.180238 168.673917 
L 181.627131 140.036769 
L 182.074024 134.327278 
L 182.96781 107.997449 
L 183.414703 120.461603 
L 183.861596 136.422472 
L 184.308489 140.891625 
L 184.755382 119.623534 
L 185.202275 130.932478 
L 185.649168 134.769248 
L 186.096061 152.827346 
L 186.542954 119.630023 
L 186.989847 134.136303 
L 187.43674 164.369785 
L 187.883633 145.446634 
L 188.330526 141.166164 
L 188.777419 141.600859 
L 189.224312 155.206334 
L 189.671205 147.908601 
L 190.118098 121.355142 
L 190.564992 118.820834 
L 191.011885 130.154698 
L 191.458778 98.055025 
L 191.905671 103.807304 
L 192.352564 128.053377 
L 192.799457 117.350338 
L 193.24635 102.413089 
L 193.693243 108.633293 
L 194.140136 124.757867 
L 194.587029 96.441315 
L 195.033922 99.571212 
L 195.480815 88.331895 
L 195.927708 82.58343 
L 196.374601 95.260326 
L 196.821494 119.194854 
L 198.162173 100.799402 
L 198.609066 107.837367 
L 199.055959 127.300113 
L 199.502852 101.044079 
L 199.949745 113.100756 
L 200.396638 145.708523 
L 200.843531 127.42815 
L 201.290425 127.126692 
L 201.737318 141.247434 
L 202.184211 128.801018 
L 202.631104 136.341215 
L 203.077997 137.539987 
L 203.52489 125.661656 
L 204.418676 137.774783 
L 204.865569 124.969484 
L 205.312462 119.442933 
L 205.759355 115.425671 
L 206.206248 106.314463 
L 206.653141 117.91944 
L 207.100034 122.717186 
L 207.546927 104.799577 
L 207.99382 117.999927 
L 208.440713 125.923108 
L 208.887606 108.831449 
L 209.334499 136.755786 
L 209.781392 118.548158 
L 210.228285 142.400629 
L 210.675178 127.179408 
L 211.122071 134.540518 
L 211.568964 166.644442 
L 212.015858 141.334898 
L 212.909644 156.977272 
L 213.356537 137.737988 
L 213.80343 134.136562 
L 214.250323 126.683541 
L 214.697216 128.973238 
L 215.591002 150.790109 
L 216.037895 121.126623 
L 216.484788 141.606801 
L 216.931681 119.797878 
L 217.378574 129.971819 
L 217.825467 136.079611 
L 218.27236 164.055398 
L 218.719253 148.999535 
L 219.166146 138.838107 
L 219.613039 142.5852 
L 220.059932 125.069046 
L 220.506825 130.995811 
L 220.953718 161.026847 
L 221.400611 132.327518 
L 221.847504 132.511063 
L 222.294397 125.289727 
L 222.74129 172.113761 
L 223.188184 149.952526 
L 223.635077 164.048879 
L 224.08197 161.252171 
L 224.528863 154.641403 
L 224.975756 166.193527 
L 225.422649 133.89959 
L 225.869542 129.119438 
L 226.316435 100.415512 
L 226.763328 136.94099 
L 227.210221 147.947825 
L 227.657114 174.42522 
L 228.104007 141.260923 
L 228.5509 133.600701 
L 228.997793 131.170993 
L 229.444686 145.145971 
L 229.891579 152.790082 
L 230.338472 152.024649 
L 230.785365 125.563697 
L 231.232258 133.138096 
L 232.126044 144.937296 
L 232.572937 155.440199 
L 233.01983 156.85279 
L 233.466723 132.748743 
L 233.913617 131.362447 
L 234.36051 131.959595 
L 234.807403 145.368943 
L 235.254296 146.905093 
L 235.701189 136.738769 
L 236.148082 140.893645 
L 236.594975 151.0433 
L 237.041868 147.469114 
L 237.488761 137.247191 
L 237.935654 124.409068 
L 238.82944 152.018541 
L 239.276333 145.012585 
L 239.723226 163.217378 
L 240.170119 140.697689 
L 240.617012 164.727358 
L 241.063905 169.897209 
L 241.510798 162.548622 
L 241.957691 170.196407 
L 242.404584 185.308142 
L 242.851477 159.486779 
L 243.29837 154.458427 
L 244.192156 180.332521 
L 244.639049 177.90671 
L 245.085943 182.79406 
L 245.532836 176.431888 
L 245.979729 167.184671 
L 246.426622 171.984189 
L 246.873515 171.58976 
L 247.320408 146.942097 
L 248.214194 172.439115 
L 248.661087 166.429425 
L 249.10798 182.348065 
L 249.554873 152.453061 
L 250.001766 152.237691 
L 250.448659 158.599818 
L 250.895552 159.977559 
L 251.342445 150.444811 
L 251.789338 173.3385 
L 252.236231 186.511374 
L 252.683124 160.346502 
L 253.130017 173.303151 
L 253.57691 164.315749 
L 254.023803 168.382621 
L 254.917589 148.101172 
L 255.364482 130.165504 
L 255.811376 127.619974 
L 256.258269 135.759892 
L 256.705162 140.606411 
L 257.152055 124.920276 
L 257.598948 124.776872 
L 258.045841 115.283717 
L 258.492734 143.748665 
L 259.38652 128.29059 
L 259.833413 123.467321 
L 260.280306 125.211056 
L 260.727199 124.532698 
L 261.174092 157.197461 
L 261.620985 142.313005 
L 262.067878 134.044373 
L 262.514771 147.932937 
L 262.961664 118.218635 
L 263.408557 135.082632 
L 263.85545 137.886977 
L 264.302343 135.197561 
L 264.749236 123.373043 
L 265.196129 115.057808 
L 265.643022 119.914723 
L 266.536808 135.997055 
L 266.983702 133.37764 
L 267.430595 149.064242 
L 267.877488 143.421662 
L 268.324381 142.553404 
L 268.771274 134.399344 
L 269.218167 158.567598 
L 269.66506 161.996574 
L 270.111953 146.333968 
L 270.558846 139.353897 
L 271.005739 143.736542 
L 271.452632 121.417414 
L 271.899525 138.9885 
L 272.346418 134.832003 
L 272.793311 147.939605 
L 273.240204 149.932375 
L 273.687097 154.739021 
L 274.580883 122.284438 
L 275.027776 129.784835 
L 275.474669 134.877866 
L 275.921562 117.91197 
L 276.815348 129.620779 
L 277.262241 134.818794 
L 277.709135 136.46919 
L 278.156028 126.689265 
L 278.602921 120.53526 
L 279.049814 133.802167 
L 279.496707 121.845375 
L 279.9436 119.586685 
L 280.390493 125.11156 
L 280.837386 134.776224 
L 281.731172 119.146854 
L 282.178065 105.139648 
L 283.071851 136.409743 
L 283.518744 130.481396 
L 283.965637 131.09908 
L 284.41253 131.912302 
L 284.859423 138.230707 
L 285.306316 140.411522 
L 285.753209 130.756686 
L 286.200102 132.935342 
L 286.646995 144.686424 
L 287.093888 148.242023 
L 287.987674 138.491822 
L 288.434568 151.563604 
L 288.881461 137.00884 
L 289.328354 130.042267 
L 289.775247 135.412212 
L 290.22214 133.318191 
L 290.669033 135.856639 
L 291.115926 113.760086 
L 291.562819 137.778503 
L 292.009712 112.602813 
L 292.456605 124.747126 
L 292.903498 129.892007 
L 293.350391 132.00325 
L 293.797284 128.041444 
L 294.244177 161.787573 
L 294.69107 136.271169 
L 295.137963 149.253433 
L 295.584856 149.429138 
L 296.478642 157.98633 
L 296.925535 144.776499 
L 297.372428 135.257982 
L 297.819321 149.531032 
L 298.266214 136.579017 
L 298.713107 150.201176 
L 299.16 129.571199 
L 299.606894 139.699307 
L 300.053787 153.447294 
L 300.50068 135.85401 
L 300.947573 147.476207 
L 301.394466 154.020364 
L 301.841359 150.793046 
L 302.288252 162.10316 
L 302.735145 138.281749 
L 303.182038 157.828522 
L 303.628931 154.136791 
L 304.075824 148.067343 
L 304.522717 143.748203 
L 304.96961 147.467842 
L 305.416503 144.656629 
L 305.863396 168.363987 
L 306.310289 161.508301 
L 306.757182 158.248232 
L 307.204075 164.386531 
L 307.650968 146.324145 
L 308.544754 162.893186 
L 308.991647 145.716558 
L 309.43854 148.870834 
L 309.885433 137.200084 
L 310.332327 142.028121 
L 310.77922 155.884123 
L 311.226113 143.019562 
L 311.673006 162.826695 
L 312.119899 147.156118 
L 312.566792 155.049766 
L 313.013685 160.23263 
L 313.907471 139.537483 
L 314.354364 133.569038 
L 314.801257 123.412025 
L 315.24815 133.089029 
L 315.695043 131.154955 
L 316.141936 158.604012 
L 316.588829 138.534264 
L 317.035722 142.584473 
L 317.482615 155.201379 
L 317.929508 171.271741 
L 318.376401 169.715257 
L 318.823294 170.302889 
L 319.270187 145.840778 
L 319.71708 143.622163 
L 320.610866 164.503071 
L 321.057759 163.680484 
L 321.951546 177.79794 
L 322.398439 161.124545 
L 322.845332 159.067526 
L 323.292225 154.677032 
L 323.739118 147.259057 
L 324.186011 178.954532 
L 324.632904 166.291474 
L 325.079797 169.525026 
L 325.52669 142.604781 
L 325.973583 143.646355 
L 326.420476 138.127744 
L 326.867369 138.397233 
L 327.314262 112.823466 
L 327.761155 142.9142 
L 328.208048 115.13903 
L 328.654941 161.117749 
L 329.101834 137.949283 
L 329.548727 134.336759 
L 329.99562 136.843503 
L 330.442513 117.597488 
L 330.889406 114.851118 
L 331.336299 114.552087 
L 331.783192 123.304058 
L 332.230086 118.122348 
L 332.676979 103.723852 
L 333.570765 138.51458 
L 334.017658 145.778813 
L 334.464551 146.722103 
L 334.911444 127.930362 
L 335.358337 143.594633 
L 335.80523 131.997958 
L 336.252123 127.949721 
L 336.699016 129.729543 
L 337.145909 133.841222 
L 337.592802 117.796599 
L 338.039695 113.275728 
L 338.486588 139.047498 
L 339.380374 126.619571 
L 339.827267 161.587277 
L 340.27416 154.366586 
L 340.721053 155.003147 
L 341.167946 168.684341 
L 341.614839 152.019102 
L 342.061732 146.666345 
L 342.508625 154.523181 
L 342.955518 150.848936 
L 343.402412 141.41428 
L 343.849305 124.945218 
L 344.296198 126.850498 
L 344.743091 145.444905 
L 345.189984 146.189521 
L 345.636877 153.565854 
L 346.08377 136.453721 
L 346.530663 144.737319 
L 346.977556 147.550327 
L 347.424449 159.89683 
L 347.871342 139.407246 
L 348.318235 166.697467 
L 348.765128 142.893671 
L 349.658914 129.639311 
L 350.999593 150.390955 
L 351.446486 145.213835 
L 351.893379 137.649256 
L 352.340272 143.781813 
L 352.787165 123.611183 
L 353.234058 136.629591 
L 353.680951 135.101368 
L 354.127845 138.737877 
L 354.574738 126.530388 
L 355.021631 134.974149 
L 355.468524 138.461742 
L 355.915417 119.501275 
L 356.36231 123.140808 
L 356.809203 122.365996 
L 357.256096 132.309343 
L 357.702989 128.834199 
L 358.149882 149.30166 
L 358.596775 140.792287 
L 359.043668 163.749787 
L 359.490561 145.344879 
L 359.937454 144.852781 
L 360.83124 130.96352 
L 361.278133 136.645569 
L 362.171919 94.621539 
L 362.618812 135.272789 
L 363.065705 116.971182 
L 363.512598 123.617833 
L 363.959491 126.14677 
L 364.406384 144.717957 
L 364.853278 128.601178 
L 365.300171 139.297508 
L 365.747064 115.468438 
L 366.193957 149.969706 
L 366.64085 135.550288 
L 367.087743 131.453499 
L 367.534636 117.975989 
L 367.981529 119.517174 
L 368.428422 112.442005 
L 368.875315 109.617317 
L 369.322208 109.022075 
L 369.769101 143.789627 
L 370.215994 122.949764 
L 370.662887 137.379653 
L 371.10978 140.318831 
L 371.556673 150.611556 
L 372.003566 153.191254 
L 372.450459 150.293375 
L 372.897352 155.295513 
L 373.344245 146.512095 
L 374.238031 144.171299 
L 374.684924 158.440236 
L 375.131817 131.364839 
L 375.57871 120.719735 
L 376.025604 132.027432 
L 376.472497 134.688976 
L 376.91939 142.025986 
L 377.366283 126.216869 
L 377.813176 128.490383 
L 378.260069 133.553369 
L 378.706962 136.566149 
L 379.153855 112.781585 
L 379.600748 130.939162 
L 380.047641 126.369984 
L 380.494534 154.199531 
L 380.941427 154.79371 
L 381.38832 143.146555 
L 381.835213 151.273514 
L 382.728999 121.799809 
L 383.175892 135.781119 
L 383.622785 124.273064 
L 384.069678 101.823644 
L 384.516571 104.703138 
L 384.963464 108.470929 
L 385.410357 123.3587 
L 385.85725 133.675658 
L 386.751037 109.116375 
L 387.19793 107.984212 
L 387.644823 93.049437 
L 388.091716 123.712428 
L 388.538609 119.771807 
L 388.985502 91.449106 
L 389.432395 105.805709 
L 389.879288 87.283272 
L 390.326181 117.033848 
L 390.773074 121.717247 
L 391.219967 140.328489 
L 391.66686 102.410433 
L 392.560646 146.699596 
L 393.007539 131.22128 
L 393.454432 133.349984 
L 394.348218 115.929454 
L 394.795111 117.748203 
L 395.242004 123.015308 
L 395.688897 114.003775 
L 396.13579 101.403045 
L 396.582683 127.453522 
L 397.029576 117.32826 
L 397.476469 101.420993 
L 397.923363 112.653667 
L 398.370256 111.12037 
L 398.817149 121.025947 
L 399.264042 125.423811 
L 399.710935 126.378796 
L 400.157828 134.939591 
L 400.604721 127.991564 
L 401.051614 124.542755 
L 401.498507 115.056971 
L 401.9454 116.028484 
L 402.392293 123.006532 
L 403.286079 100.796972 
L 403.732972 118.245074 
L 404.179865 125.164126 
L 404.626758 124.275783 
L 405.073651 112.514087 
L 405.520544 114.898265 
L 406.41433 126.19366 
L 406.861223 111.027121 
L 407.308116 145.594723 
L 407.755009 115.411177 
L 408.201902 121.101212 
L 408.648796 125.310361 
L 409.095689 127.373292 
L 409.542582 124.683255 
L 409.989475 121.248743 
L 410.436368 146.51707 
L 411.777047 125.646808 
L 412.22394 142.204683 
L 412.670833 124.75663 
L 413.117726 149.910699 
L 413.564619 142.466417 
L 414.011512 153.017541 
L 414.458405 138.736811 
L 414.905298 130.84054 
L 415.352191 144.248706 
L 415.799084 123.908086 
L 416.245977 149.190556 
L 417.139763 135.305934 
L 417.586656 146.087465 
L 418.033549 131.245866 
L 418.480442 149.117198 
L 418.927335 142.142017 
L 419.374228 150.578557 
L 419.821122 147.128255 
L 420.268015 140.060257 
L 420.714908 152.118245 
L 421.161801 145.558263 
L 421.608694 131.054128 
L 422.50248 127.014309 
L 422.949373 123.855483 
L 423.396266 119.48741 
L 423.843159 127.518067 
L 424.290052 143.0213 
L 424.736945 141.758235 
L 425.183838 132.552027 
L 425.630731 142.759451 
L 426.077624 158.79196 
L 426.524517 158.539529 
L 426.97141 145.770965 
L 427.418303 143.473881 
L 427.865196 134.754819 
L 428.312089 135.034172 
L 428.758982 122.573533 
L 429.205875 132.625481 
L 429.652768 137.497197 
L 430.099661 131.881692 
L 430.546555 117.940746 
L 430.993448 120.888166 
L 431.440341 141.532487 
L 431.887234 140.843285 
L 432.334127 116.522342 
L 432.78102 145.582304 
L 433.227913 134.648657 
L 433.674806 126.525528 
L 434.568592 154.72841 
L 435.015485 133.789015 
L 435.462378 150.551613 
L 435.909271 140.308511 
L 436.356164 139.889823 
L 436.803057 152.332104 
L 437.24995 146.251569 
L 437.696843 142.095046 
L 438.143736 129.948929 
L 438.590629 160.719847 
L 439.037522 158.679396 
L 439.484415 135.487032 
L 439.931308 149.197361 
L 440.378201 128.91978 
L 440.825094 130.796833 
L 441.271988 167.820369 
L 441.718881 125.787808 
L 442.165774 129.324365 
L 442.612667 123.703061 
L 443.05956 127.903409 
L 443.506453 123.825894 
L 443.953346 114.901783 
L 444.400239 125.758775 
L 444.847132 131.631848 
L 445.294025 112.95517 
L 445.740918 117.622267 
L 446.634704 138.332475 
L 447.52849 119.438646 
L 447.975383 133.172607 
L 448.422276 131.152105 
L 448.869169 144.024885 
L 449.316062 109.511327 
L 449.762955 127.282724 
L 450.209848 124.059886 
L 450.656741 103.998356 
L 451.103634 105.133238 
L 451.550527 114.595318 
L 451.99742 114.78305 
L 452.444314 127.843153 
L 452.891207 132.925694 
L 453.3381 130.234499 
L 453.784993 110.793453 
L 454.231886 113.761139 
L 454.678779 123.228843 
L 455.125672 138.947442 
L 455.572565 114.316832 
L 456.019458 117.415984 
L 456.466351 142.444914 
L 456.913244 141.797236 
L 457.360137 145.993456 
L 457.80703 146.027864 
L 458.253923 126.741173 
L 458.700816 131.528028 
L 459.147709 149.066113 
L 459.594602 105.022907 
L 460.041495 104.513516 
L 460.488388 109.353229 
L 461.382174 129.943853 
L 461.829067 127.585627 
L 462.27596 123.235055 
L 462.722853 117.135871 
L 463.169747 119.549786 
L 463.61664 121.045714 
L 464.063533 133.390903 
L 464.510426 120.985339 
L 464.957319 111.880426 
L 465.851105 131.101708 
L 466.297998 139.580447 
L 466.744891 132.083981 
L 467.191784 118.005839 
L 467.638677 144.254335 
L 468.08557 117.301774 
L 468.532463 139.529249 
L 468.979356 111.729162 
L 469.426249 101.21036 
L 470.320035 112.885652 
L 470.766928 106.322067 
L 471.213821 124.009551 
L 471.660714 124.984089 
L 472.107607 124.681069 
L 472.5545 124.783113 
L 473.001393 125.019407 
L 473.448286 117.323357 
L 473.895179 140.820045 
L 474.342073 125.15644 
L 474.788966 114.496944 
L 475.235859 114.803688 
L 475.682752 102.469506 
L 476.129645 104.271781 
L 477.023431 92.120614 
L 477.470324 97.343264 
L 477.917217 89.389758 
L 478.36411 87.636286 
L 478.811003 110.017737 
L 479.257896 107.467071 
L 479.704789 78.130201 
L 480.151682 83.111987 
L 480.598575 81.636167 
L 481.045468 98.016374 
L 481.492361 100.623145 
L 481.939254 88.273585 
L 482.386147 107.325308 
L 482.83304 112.174845 
L 483.279933 87.510217 
L 483.726826 102.058806 
L 484.173719 111.964283 
L 484.620612 100.309493 
L 485.067506 84.523483 
L 485.514399 112.156756 
L 485.961292 96.719272 
L 486.408185 105.637919 
L 486.855078 98.319205 
L 487.301971 83.1413 
L 487.748864 109.005442 
L 488.195757 104.426989 
L 488.64265 111.259421 
L 489.536436 129.416785 
L 489.983329 103.527112 
L 490.877115 132.999843 
L 491.324008 170.365854 
L 491.770901 155.068466 
L 492.217794 111.785325 
L 492.664687 128.524276 
L 493.11158 154.729885 
L 493.558473 143.99754 
L 494.005366 153.606478 
L 494.452259 135.233758 
L 494.899152 147.968311 
L 495.346045 144.9149 
L 495.792938 121.426995 
L 496.239832 127.674418 
L 496.686725 140.504203 
L 497.133618 129.516694 
L 497.580511 130.255243 
L 498.027404 161.667842 
L 498.474297 122.211179 
L 498.92119 123.493267 
L 499.368083 107.320898 
L 499.814976 101.274795 
L 500.708762 134.817474 
L 501.155655 136.301125 
L 501.602548 115.606138 
L 502.496334 148.493404 
L 502.943227 128.791922 
L 503.39012 151.409582 
L 503.837013 137.446188 
L 504.283906 136.141912 
L 504.730799 160.202314 
L 505.177692 152.458195 
L 505.624585 170.895335 
L 506.071478 147.160338 
L 506.518371 167.334164 
L 506.965265 150.473344 
L 507.412158 160.923062 
L 507.859051 149.857874 
L 508.305944 112.120833 
L 508.752837 141.421075 
L 509.19973 142.673046 
L 509.646623 145.300605 
L 510.093516 149.969854 
L 510.540409 156.789661 
L 510.987302 140.78161 
L 511.434195 150.986115 
L 511.881088 130.937321 
L 512.327981 124.860991 
L 512.774874 143.143595 
L 513.221767 127.122754 
L 513.66866 155.945541 
L 514.115553 155.817303 
L 514.562446 154.788391 
L 515.009339 161.050181 
L 515.456232 145.65627 
L 515.903125 150.389036 
L 516.350018 143.039213 
L 516.796911 162.968271 
L 517.243804 145.500198 
L 517.690698 194.055446 
L 518.584484 146.596331 
L 519.031377 137.09037 
L 519.47827 140.791239 
L 519.925163 146.268418 
L 520.372056 165.894376 
L 521.265842 150.764406 
L 522.159628 138.495855 
L 522.606521 148.247034 
L 523.053414 149.011141 
L 523.500307 141.00394 
L 523.9472 165.967017 
L 524.840986 146.686421 
L 525.287879 150.919505 
L 525.734772 142.133877 
L 526.181665 150.086927 
L 526.628558 139.412941 
L 527.522344 155.499749 
L 527.969237 152.860864 
L 528.41613 156.482085 
L 528.41613 156.482085 
" clip-path="url(#p32b0a2592a)" style="fill: none; stroke: #000000; stroke-width: 0.7; stroke-linecap: round"/>
   </g>
   <g id="line2d_18">
    <path d="M 103.420849 150.00366 
L 103.867742 149.749858 
L 104.314635 148.929917 
L 104.761528 147.721408 
L 105.655314 147.603148 
L 106.102207 146.777219 
L 106.5491 145.702265 
L 106.995993 145.316684 
L 107.442886 145.120776 
L 108.336672 142.940103 
L 108.783565 142.144432 
L 109.230458 140.996793 
L 110.124244 139.601253 
L 110.571137 139.356711 
L 111.01803 138.758466 
L 111.464923 137.66993 
L 111.911816 137.147152 
L 114.146282 132.186827 
L 115.933854 126.746584 
L 116.82764 124.642172 
L 117.274533 123.346906 
L 117.721426 122.740784 
L 118.168319 121.879952 
L 118.615212 120.598157 
L 119.062105 119.700289 
L 120.402784 118.511362 
L 120.849677 118.133214 
L 121.29657 117.486724 
L 121.743463 117.164705 
L 122.190356 116.01395 
L 122.637249 116.123813 
L 123.084142 115.991895 
L 123.531035 115.170352 
L 124.424821 114.591452 
L 124.871715 114.33092 
L 125.318608 113.708832 
L 126.659287 111.050529 
L 127.10618 110.302955 
L 127.553073 109.322751 
L 127.999966 107.959001 
L 128.446859 107.273085 
L 129.787538 103.948625 
L 130.234431 103.357944 
L 131.128217 101.397223 
L 132.468896 98.164088 
L 133.362682 96.51927 
L 133.809575 96.306217 
L 134.256468 95.533452 
L 135.150254 95.023325 
L 135.597148 95.090855 
L 136.044041 94.718522 
L 136.490934 94.779345 
L 136.937827 94.567491 
L 137.38472 94.521485 
L 137.831613 94.223183 
L 139.619185 93.763641 
L 140.512971 92.997723 
L 140.959864 93.495051 
L 141.85365 93.860788 
L 142.300543 93.590462 
L 142.747436 93.618841 
L 143.194329 93.186489 
L 144.981901 94.036339 
L 145.428794 93.735953 
L 148.110153 97.202007 
L 148.557046 97.387651 
L 149.003939 97.298998 
L 150.791511 98.804149 
L 152.13219 100.662455 
L 153.025976 100.878118 
L 153.472869 102.030933 
L 155.260441 105.12446 
L 156.154227 106.591391 
L 156.60112 107.717279 
L 157.494907 108.937225 
L 158.388693 109.982195 
L 159.282479 111.069046 
L 159.729372 111.301225 
L 160.176265 111.70811 
L 160.623158 111.786192 
L 162.857623 115.337649 
L 163.304516 115.493591 
L 164.198302 115.952373 
L 165.092088 117.148612 
L 166.432767 118.182813 
L 166.87966 118.850141 
L 167.326553 119.09378 
L 167.773446 119.948835 
L 168.667233 120.707598 
L 169.114126 120.330597 
L 169.561019 120.250522 
L 170.454805 121.543418 
L 170.901698 122.70952 
L 172.242377 125.275904 
L 172.68927 126.222484 
L 173.136163 126.867535 
L 173.583056 128.526607 
L 174.476842 130.033967 
L 174.923735 131.041307 
L 175.370628 132.565328 
L 176.264414 133.839429 
L 176.711307 134.169393 
L 177.1582 135.133958 
L 177.605093 135.637772 
L 178.945772 135.841652 
L 179.839559 137.254312 
L 180.286452 137.62948 
L 181.627131 139.534582 
L 182.520917 140.202819 
L 183.861596 139.983203 
L 185.649168 140.635863 
L 186.096061 141.196989 
L 186.989847 141.737058 
L 188.330526 143.782512 
L 188.777419 143.753427 
L 189.671205 144.367421 
L 191.458778 142.701533 
L 192.799457 140.755401 
L 193.24635 139.65436 
L 194.140136 138.613473 
L 195.480815 135.489241 
L 195.927708 133.536264 
L 196.374601 132.383215 
L 197.268387 131.016497 
L 198.162173 128.973794 
L 198.609066 128.459258 
L 199.055959 128.122649 
L 199.502852 126.857682 
L 199.949745 126.094417 
L 200.396638 126.35064 
L 201.290425 125.646972 
L 202.184211 124.523264 
L 202.631104 124.40545 
L 203.077997 124.159625 
L 203.52489 123.29938 
L 203.971783 123.123966 
L 204.865569 123.268802 
L 205.312462 123.497712 
L 205.759355 123.396993 
L 206.653141 122.335389 
L 207.100034 122.397262 
L 207.546927 121.874604 
L 207.99382 121.539218 
L 208.440713 121.001133 
L 208.887606 120.785162 
L 209.334499 120.837551 
L 209.781392 119.921119 
L 210.228285 119.860199 
L 210.675178 119.580464 
L 211.122071 119.439257 
L 211.568964 119.668019 
L 212.015858 119.536545 
L 212.462751 120.110131 
L 212.909644 120.87326 
L 213.356537 121.024925 
L 213.80343 121.746556 
L 214.250323 122.204081 
L 214.697216 122.222478 
L 215.144109 122.698739 
L 215.591002 123.666279 
L 216.484788 124.253125 
L 217.378574 125.328268 
L 217.825467 126.283222 
L 218.27236 127.912662 
L 218.719253 128.987446 
L 219.166146 129.380311 
L 219.613039 129.969582 
L 220.059932 130.307018 
L 220.506825 130.910946 
L 220.953718 131.974736 
L 221.400611 132.075284 
L 221.847504 132.704624 
L 222.294397 132.948403 
L 224.975756 136.179388 
L 225.422649 136.10658 
L 225.869542 136.175736 
L 226.316435 135.558724 
L 226.763328 135.542048 
L 227.210221 136.001615 
L 227.657114 137.10126 
L 228.5509 138.16369 
L 228.997793 138.428721 
L 229.444686 138.877297 
L 229.891579 139.837107 
L 230.338472 140.517601 
L 230.785365 140.510413 
L 231.232258 140.996546 
L 231.679151 141.03701 
L 232.126044 141.564793 
L 232.572937 141.825584 
L 233.01983 142.419052 
L 233.466723 142.383216 
L 233.913617 141.677576 
L 235.254296 141.195317 
L 235.701189 141.175332 
L 236.148082 141.310474 
L 237.041868 142.167587 
L 237.488761 142.089263 
L 237.935654 141.561642 
L 238.382547 141.924717 
L 238.82944 142.132952 
L 239.723226 143.302157 
L 240.617012 143.407958 
L 241.510798 144.300121 
L 241.957691 144.852346 
L 242.404584 146.057128 
L 242.851477 146.626947 
L 243.29837 146.495578 
L 243.745263 147.228939 
L 244.639049 149.237707 
L 245.085943 149.451313 
L 245.532836 149.980901 
L 245.979729 150.043616 
L 246.426622 150.258257 
L 246.873515 150.597224 
L 247.320408 150.212195 
L 247.767301 150.761322 
L 248.214194 151.627715 
L 248.661087 152.947994 
L 249.10798 153.856135 
L 249.554873 153.94624 
L 250.001766 153.502489 
L 250.448659 153.849267 
L 252.236231 156.000557 
L 252.683124 156.166994 
L 253.130017 157.121783 
L 254.023803 158.337409 
L 254.470696 158.616844 
L 254.917589 158.470064 
L 255.364482 157.936318 
L 255.811376 157.833743 
L 256.705162 158.094628 
L 258.045841 156.813989 
L 258.492734 156.871089 
L 259.833413 155.901598 
L 260.280306 155.917638 
L 260.727199 155.622685 
L 261.174092 155.726263 
L 261.620985 155.672272 
L 262.067878 155.088812 
L 262.514771 155.233517 
L 263.408557 153.607051 
L 263.85545 153.113818 
L 264.302343 152.413841 
L 264.749236 151.175139 
L 265.643022 149.595685 
L 267.877488 145.647337 
L 268.324381 145.154711 
L 268.771274 144.403014 
L 269.218167 144.142571 
L 269.66506 144.443661 
L 270.111953 144.143222 
L 270.558846 143.481518 
L 271.005739 143.02766 
L 271.452632 141.809047 
L 273.240204 140.777534 
L 273.687097 140.863418 
L 274.13399 140.135898 
L 274.580883 138.851359 
L 275.474669 137.47162 
L 276.368455 135.666551 
L 276.815348 135.080786 
L 277.262241 134.815138 
L 277.709135 134.941212 
L 278.156028 134.922598 
L 278.602921 134.618105 
L 279.9436 134.316719 
L 280.390493 134.513275 
L 281.731172 133.97988 
L 282.178065 133.613326 
L 282.624958 133.530636 
L 283.071851 133.768177 
L 283.518744 133.233855 
L 283.965637 133.009577 
L 284.41253 132.966936 
L 284.859423 132.772891 
L 285.306316 133.216749 
L 286.200102 133.031197 
L 286.646995 133.220974 
L 288.434568 135.152347 
L 289.328354 135.105875 
L 290.22214 134.630765 
L 290.669033 134.49683 
L 291.562819 133.668263 
L 292.009712 132.680388 
L 292.456605 132.248651 
L 293.350391 131.824747 
L 293.797284 131.957228 
L 294.244177 132.413209 
L 296.031749 132.440029 
L 296.925535 133.310348 
L 297.372428 133.419811 
L 298.266214 134.086215 
L 298.713107 134.599579 
L 299.606894 134.696198 
L 300.053787 135.03576 
L 300.50068 135.219055 
L 301.841359 136.741191 
L 302.288252 137.591521 
L 302.735145 137.854924 
L 303.628931 138.859235 
L 304.075824 139.437645 
L 304.522717 140.209816 
L 304.96961 140.737642 
L 305.416503 140.90258 
L 306.310289 142.268416 
L 307.204075 143.318251 
L 307.650968 143.436504 
L 308.544754 144.510688 
L 309.43854 144.543867 
L 309.885433 144.41188 
L 311.226113 144.68923 
L 311.673006 145.344919 
L 312.119899 145.579797 
L 313.013685 146.501948 
L 313.460578 147.23517 
L 313.907471 147.27035 
L 314.354364 147.689674 
L 315.695043 147.709947 
L 316.141936 148.321198 
L 316.588829 147.856132 
L 317.482615 148.101357 
L 318.376401 148.855908 
L 318.823294 149.10224 
L 319.270187 149.123525 
L 320.163973 149.382514 
L 320.610866 149.940995 
L 321.057759 150.210581 
L 321.951546 151.786956 
L 322.398439 151.940501 
L 322.845332 152.404771 
L 323.292225 152.548788 
L 323.739118 152.413562 
L 324.186011 152.976791 
L 324.632904 153.060558 
L 325.079797 153.685423 
L 325.973583 153.17114 
L 326.867369 152.865328 
L 327.314262 152.172441 
L 327.761155 152.137592 
L 328.208048 151.073093 
L 328.654941 151.065282 
L 329.101834 150.659303 
L 329.548727 150.058308 
L 329.99562 149.868695 
L 330.442513 149.130484 
L 330.889406 148.169642 
L 331.783192 147.035018 
L 332.230086 146.653463 
L 333.123872 145.157259 
L 333.570765 145.067159 
L 334.017658 144.726202 
L 334.464551 144.717521 
L 334.911444 144.175133 
L 336.252123 143.242154 
L 336.699016 143.165364 
L 337.145909 143.373948 
L 338.039695 142.710515 
L 338.486588 142.319385 
L 338.933481 142.18919 
L 339.380374 141.869892 
L 339.827267 141.99761 
L 340.721053 141.365265 
L 341.167946 141.332894 
L 342.061732 141.517344 
L 342.508625 141.525482 
L 342.955518 141.2524 
L 343.402412 140.807076 
L 344.296198 138.881205 
L 345.189984 138.310052 
L 345.636877 138.287828 
L 346.08377 138.071722 
L 346.530663 137.387377 
L 346.977556 137.012554 
L 347.424449 136.81999 
L 347.871342 136.75604 
L 348.318235 137.217062 
L 348.765128 137.312381 
L 349.212021 137.251772 
L 349.658914 137.588089 
L 350.105807 137.452523 
L 350.5527 138.007535 
L 350.999593 137.792999 
L 352.787165 138.26358 
L 354.127845 139.418812 
L 354.574738 139.586972 
L 355.021631 140.211978 
L 355.468524 140.593649 
L 356.36231 139.760623 
L 356.809203 139.273501 
L 357.256096 139.36108 
L 357.702989 139.065872 
L 358.596775 139.668797 
L 359.043668 140.349202 
L 359.490561 140.579275 
L 360.384347 141.618724 
L 360.83124 141.457044 
L 361.278133 141.549465 
L 361.725026 141.353396 
L 362.171919 140.014081 
L 362.618812 139.632206 
L 363.959491 137.452789 
L 364.406384 137.413822 
L 364.853278 136.895382 
L 365.300171 136.664353 
L 365.747064 136.145436 
L 366.193957 136.645926 
L 366.64085 136.819922 
L 367.087743 136.540094 
L 368.875315 134.112215 
L 369.322208 133.34165 
L 370.215994 132.690356 
L 370.662887 132.104 
L 371.10978 132.052503 
L 371.556673 132.357398 
L 372.003566 132.828437 
L 372.897352 133.359704 
L 373.791138 133.285767 
L 374.238031 133.416208 
L 374.684924 133.709377 
L 375.131817 133.86445 
L 375.57871 133.546253 
L 376.472497 133.403796 
L 376.91939 133.713708 
L 377.813176 133.339135 
L 378.706962 133.888684 
L 379.153855 133.696996 
L 380.494534 133.718265 
L 380.941427 133.998294 
L 381.38832 133.586229 
L 381.835213 133.704802 
L 382.282106 133.520729 
L 382.728999 133.192886 
L 383.175892 133.289238 
L 384.069678 132.741938 
L 384.516571 132.943569 
L 384.963464 132.407532 
L 385.85725 132.736439 
L 386.304143 132.63552 
L 386.751037 131.923489 
L 387.19793 131.51115 
L 387.644823 130.586188 
L 388.091716 130.751068 
L 388.538609 130.14711 
L 388.985502 129.265086 
L 389.879288 128.138276 
L 390.326181 128.08861 
L 390.773074 128.274114 
L 391.219967 128.888338 
L 391.66686 128.756105 
L 392.113753 128.425616 
L 392.560646 128.900612 
L 393.454432 128.638068 
L 393.901325 128.105844 
L 395.242004 126.0641 
L 395.688897 125.413934 
L 396.13579 124.534078 
L 396.582683 124.199723 
L 397.476469 122.778606 
L 397.923363 122.617285 
L 398.817149 121.925883 
L 399.264042 121.593839 
L 399.710935 121.597078 
L 400.157828 121.726062 
L 400.604721 121.614826 
L 401.051614 121.374358 
L 401.498507 121.419866 
L 401.9454 121.121652 
L 402.392293 121.054383 
L 403.732972 118.603275 
L 404.179865 118.081087 
L 405.073651 117.667905 
L 405.520544 117.250248 
L 405.967437 117.175466 
L 406.41433 117.662866 
L 406.861223 117.789346 
L 407.308116 118.531821 
L 408.201902 118.121382 
L 408.648796 118.205573 
L 409.542582 118.904692 
L 410.436368 119.924771 
L 410.883261 120.323796 
L 411.330154 121.143111 
L 411.777047 121.539933 
L 412.22394 122.638361 
L 412.670833 122.792817 
L 413.117726 123.356686 
L 413.564619 123.399444 
L 414.011512 124.411587 
L 414.458405 124.64102 
L 414.905298 124.323839 
L 415.352191 124.584387 
L 415.799084 124.395549 
L 417.586656 126.249614 
L 418.033549 126.594456 
L 418.480442 127.548739 
L 418.927335 127.842509 
L 419.374228 128.507514 
L 419.821122 129.42166 
L 420.268015 129.969792 
L 420.714908 130.789749 
L 421.161801 131.280395 
L 422.055587 131.447563 
L 422.949373 131.206336 
L 423.396266 131.105229 
L 423.843159 131.354451 
L 424.736945 132.269341 
L 425.183838 132.709535 
L 426.524517 135.02723 
L 426.97141 135.457134 
L 427.418303 136.07633 
L 428.312089 136.763465 
L 428.758982 136.691063 
L 429.205875 137.12303 
L 429.652768 136.961079 
L 430.099661 137.29049 
L 430.993448 137.138836 
L 431.887234 137.745221 
L 433.674806 137.412723 
L 434.568592 137.961532 
L 435.015485 138.14218 
L 435.909271 138.11184 
L 436.356164 137.849286 
L 437.24995 138.429412 
L 437.696843 138.386339 
L 438.590629 138.737742 
L 439.037522 139.055078 
L 440.378201 139.074376 
L 440.825094 138.707969 
L 441.271988 139.221536 
L 442.165774 138.369643 
L 442.612667 138.042499 
L 443.506453 137.123555 
L 443.953346 136.800508 
L 444.400239 136.733546 
L 444.847132 136.825897 
L 445.294025 136.607891 
L 446.634704 136.506325 
L 447.975383 135.815548 
L 448.422276 135.262751 
L 448.869169 134.972458 
L 449.316062 134.247266 
L 450.209848 133.709544 
L 450.656741 133.088828 
L 451.99742 131.925135 
L 452.444314 131.844365 
L 453.3381 132.33099 
L 454.231886 131.174567 
L 454.678779 131.308697 
L 455.125672 131.175999 
L 455.572565 130.769363 
L 456.019458 130.587172 
L 456.466351 130.624799 
L 456.913244 130.366176 
L 457.360137 130.610265 
L 457.80703 130.51979 
L 458.700816 130.081207 
L 459.147709 130.015887 
L 460.041495 128.439683 
L 460.488388 128.027769 
L 460.935281 127.222176 
L 461.382174 126.647465 
L 461.829067 126.489437 
L 462.27596 125.970191 
L 463.169747 125.509572 
L 463.61664 124.574079 
L 464.063533 124.72614 
L 465.404212 124.211711 
L 465.851105 124.357228 
L 466.297998 124.850801 
L 466.744891 124.977305 
L 467.191784 124.704785 
L 467.638677 125.330768 
L 468.08557 125.324358 
L 468.532463 125.535069 
L 469.426249 124.428817 
L 469.873142 124.181545 
L 471.213821 122.878898 
L 471.660714 123.188353 
L 472.5545 123.150785 
L 473.001393 123.571206 
L 473.448286 123.815008 
L 473.895179 124.339503 
L 474.342073 124.546971 
L 475.235859 123.917606 
L 475.682752 123.362307 
L 476.129645 123.231873 
L 476.576538 122.905875 
L 477.023431 122.28371 
L 477.470324 121.451627 
L 478.36411 120.357491 
L 479.257896 119.022344 
L 480.151682 116.406762 
L 481.492361 113.865569 
L 481.939254 113.530583 
L 482.83304 113.643251 
L 483.726826 112.426951 
L 484.173719 112.114524 
L 484.620612 111.656013 
L 485.067506 111.003765 
L 485.514399 110.855904 
L 488.64265 107.419532 
L 489.089543 107.204494 
L 489.536436 107.432713 
L 489.983329 106.618169 
L 490.430222 106.623374 
L 490.877115 106.492786 
L 491.770901 108.742682 
L 492.217794 108.836887 
L 492.664687 109.14966 
L 493.11158 110.117816 
L 493.558473 110.517576 
L 494.005366 111.090024 
L 494.452259 111.301078 
L 495.346045 112.162691 
L 495.792938 112.244764 
L 496.239832 111.981852 
L 497.580511 112.898233 
L 498.027404 114.0822 
L 498.474297 114.440988 
L 498.92119 114.961629 
L 499.368083 115.265634 
L 499.814976 115.344265 
L 500.261869 115.927829 
L 500.708762 116.871453 
L 501.155655 117.39712 
L 501.602548 117.559902 
L 504.730799 124.678689 
L 505.177692 125.484356 
L 505.624585 127.152058 
L 506.518371 129.161486 
L 506.965265 130.164763 
L 507.412158 131.692755 
L 507.859051 132.446777 
L 508.305944 132.754808 
L 509.19973 134.357548 
L 509.646623 135.600734 
L 511.434195 138.6508 
L 511.881088 138.681211 
L 512.774874 139.61952 
L 513.221767 139.501978 
L 513.66866 139.213572 
L 514.115553 139.228548 
L 515.009339 140.739128 
L 515.456232 140.557656 
L 515.903125 140.685485 
L 516.350018 140.47414 
L 516.796911 141.02883 
L 517.243804 140.979468 
L 518.137591 142.917682 
L 518.584484 143.29612 
L 519.031377 143.227843 
L 520.372056 143.858128 
L 522.159628 146.601691 
L 522.606521 147.195272 
L 523.053414 147.479145 
L 523.500307 147.573202 
L 523.9472 148.580419 
L 524.394093 149.077059 
L 524.840986 149.040919 
L 525.287879 149.483471 
L 525.734772 149.297957 
L 526.181665 149.550772 
L 526.628558 149.616192 
L 527.075451 149.365446 
L 527.522344 149.426277 
L 527.969237 149.065587 
L 528.41613 149.252022 
L 528.41613 149.252022 
" clip-path="url(#p32b0a2592a)" style="fill: none; stroke-dasharray: 2.96,1.28; stroke-dashoffset: 0; stroke: #ff0000; stroke-width: 0.8"/>
   </g>
   <g id="patch_3">
    <path d="M 59.178438 200.648125 
L 59.178438 55.609187 
" style="fill: none; stroke: #ffffff; stroke-width: 1.25; stroke-linejoin: miter; stroke-linecap: square"/>
   </g>
   <g id="patch_4">
    <path d="M 550.760783 200.648125 
L 550.760783 55.609187 
" style="fill: none; stroke: #ffffff; stroke-width: 1.25; stroke-linejoin: miter; stroke-linecap: square"/>
   </g>
   <g id="patch_5">
    <path d="M 59.178438 200.648125 
L 550.760783 200.648125 
" style="fill: none; stroke: #ffffff; stroke-width: 1.25; stroke-linejoin: miter; stroke-linecap: square"/>
   </g>
   <g id="patch_6">
    <path d="M 59.178438 55.609187 
L 550.760783 55.609187 
" style="fill: none; stroke: #ffffff; stroke-width: 1.25; stroke-linejoin: miter; stroke-linecap: square"/>
   </g>
   <g id="legend_1">
    <g id="patch_7">
     <path d="M 478.921095 196.148125 
L 544.460783 196.148125 
Q 546.260783 196.148125 546.260783 194.348125 
L 546.260783 168.8275 
Q 546.260783 167.0275 544.460783 167.0275 
L 478.921095 167.0275 
Q 477.121095 167.0275 477.121095 168.8275 
L 477.121095 194.348125 
Q 477.121095 196.148125 478.921095 196.148125 
z
" style="fill: #eaeaf2; opacity: 0.8; stroke: #cccccc; stroke-linejoin: miter"/>
    </g>
    <g id="line2d_19">
     <path d="M 480.721095 174.316094 
L 489.721095 174.316094 
L 498.721095 174.316094 
" style="fill: none; stroke: #000000; stroke-width: 0.7; stroke-linecap: round"/>
    </g>
    <g id="text_19">
     <!-- TOTAL -->
     <g style="fill: #262626" transform="translate(505.921095 177.466094)scale(0.09 -0.09)">
      <defs>
       <path id="DejaVuSans-54" d="M -19 4666 
L 3928 4666 
L 3928 4134 
L 2272 4134 
L 2272 0 
L 1638 0 
L 1638 4134 
L -19 4134 
L -19 4666 
z
" transform="scale(0.015625)"/>
       <path id="DejaVuSans-4f" d="M 2522 4238 
Q 1834 4238 1429 3725 
Q 1025 3213 1025 2328 
Q 1025 1447 1429 934 
Q 1834 422 2522 422 
Q 3209 422 3611 934 
Q 4013 1447 4013 2328 
Q 4013 3213 3611 3725 
Q 3209 4238 2522 4238 
z
M 2522 4750 
Q 3503 4750 4090 4092 
Q 4678 3434 4678 2328 
Q 4678 1225 4090 567 
Q 3503 -91 2522 -91 
Q 1538 -91 948 565 
Q 359 1222 359 2328 
Q 359 3434 948 4092 
Q 1538 4750 2522 4750 
z
" transform="scale(0.015625)"/>
       <path id="DejaVuSans-41" d="M 2188 4044 
L 1331 1722 
L 3047 1722 
L 2188 4044 
z
M 1831 4666 
L 2547 4666 
L 4325 0 
L 3669 0 
L 3244 1197 
L 1141 1197 
L 716 0 
L 50 0 
L 1831 4666 
z
" transform="scale(0.015625)"/>
       <path id="DejaVuSans-4c" d="M 628 4666 
L 1259 4666 
L 1259 531 
L 3531 531 
L 3531 0 
L 628 0 
L 628 4666 
z
" transform="scale(0.015625)"/>
      </defs>
      <use xlink:href="#DejaVuSans-54"/>
      <use xlink:href="#DejaVuSans-4f" x="61.083984"/>
      <use xlink:href="#DejaVuSans-54" x="139.794922"/>
      <use xlink:href="#DejaVuSans-41" x="193.128906"/>
      <use xlink:href="#DejaVuSans-4c" x="261.537109"/>
     </g>
    </g>
    <g id="line2d_20">
     <path d="M 480.721095 187.526406 
L 489.721095 187.526406 
L 498.721095 187.526406 
" style="fill: none; stroke-dasharray: 2.96,1.28; stroke-dashoffset: 0; stroke: #ff0000; stroke-width: 0.8"/>
    </g>
    <g id="text_20">
     <!-- Mov. Av. -->
     <g style="fill: #262626" transform="translate(505.921095 190.676406)scale(0.09 -0.09)">
      <defs>
       <path id="DejaVuSans-4d" d="M 628 4666 
L 1569 4666 
L 2759 1491 
L 3956 4666 
L 4897 4666 
L 4897 0 
L 4281 0 
L 4281 4097 
L 3078 897 
L 2444 897 
L 1241 4097 
L 1241 0 
L 628 0 
L 628 4666 
z
" transform="scale(0.015625)"/>
       <path id="DejaVuSans-76" d="M 191 3500 
L 800 3500 
L 1894 563 
L 2988 3500 
L 3597 3500 
L 2284 0 
L 1503 0 
L 191 3500 
z
" transform="scale(0.015625)"/>
       <path id="DejaVuSans-2e" d="M 684 794 
L 1344 794 
L 1344 0 
L 684 0 
L 684 794 
z
" transform="scale(0.015625)"/>
      </defs>
      <use xlink:href="#DejaVuSans-4d"/>
      <use xlink:href="#DejaVuSans-6f" x="86.279297"/>
      <use xlink:href="#DejaVuSans-76" x="147.460938"/>
      <use xlink:href="#DejaVuSans-2e" x="198.890625"/>
      <use xlink:href="#DejaVuSans-20" x="230.677734"/>
      <use xlink:href="#DejaVuSans-41" x="262.464844"/>
      <use xlink:href="#DejaVuSans-76" x="324.998047"/>
      <use xlink:href="#DejaVuSans-2e" x="376.427734"/>
     </g>
    </g>
   </g>
  </g>
  <g id="text_21">
   <!-- Energetic Components -->
   <g style="fill: #262626" transform="translate(208.277656 15.605813)scale(0.14 -0.14)">
    <defs>
     <path id="DejaVuSans-74" d="M 1172 4494 
L 1172 3500 
L 2356 3500 
L 2356 3053 
L 1172 3053 
L 1172 1153 
Q 1172 725 1289 603 
Q 1406 481 1766 481 
L 2356 481 
L 2356 0 
L 1766 0 
Q 1100 0 847 248 
Q 594 497 594 1153 
L 594 3053 
L 172 3053 
L 172 3500 
L 594 3500 
L 594 4494 
L 1172 4494 
z
" transform="scale(0.015625)"/>
     <path id="DejaVuSans-69" d="M 603 3500 
L 1178 3500 
L 1178 0 
L 603 0 
L 603 3500 
z
M 603 4863 
L 1178 4863 
L 1178 4134 
L 603 4134 
L 603 4863 
z
" transform="scale(0.015625)"/>
     <path id="DejaVuSans-43" d="M 4122 4306 
L 4122 3641 
Q 3803 3938 3442 4084 
Q 3081 4231 2675 4231 
Q 1875 4231 1450 3742 
Q 1025 3253 1025 2328 
Q 1025 1406 1450 917 
Q 1875 428 2675 428 
Q 3081 428 3442 575 
Q 3803 722 4122 1019 
L 4122 359 
Q 3791 134 3420 21 
Q 3050 -91 2638 -91 
Q 1578 -91 968 557 
Q 359 1206 359 2328 
Q 359 3453 968 4101 
Q 1578 4750 2638 4750 
Q 3056 4750 3426 4639 
Q 3797 4528 4122 4306 
z
" transform="scale(0.015625)"/>
     <path id="DejaVuSans-70" d="M 1159 525 
L 1159 -1331 
L 581 -1331 
L 581 3500 
L 1159 3500 
L 1159 2969 
Q 1341 3281 1617 3432 
Q 1894 3584 2278 3584 
Q 2916 3584 3314 3078 
Q 3713 2572 3713 1747 
Q 3713 922 3314 415 
Q 2916 -91 2278 -91 
Q 1894 -91 1617 61 
Q 1341 213 1159 525 
z
M 3116 1747 
Q 3116 2381 2855 2742 
Q 2594 3103 2138 3103 
Q 1681 3103 1420 2742 
Q 1159 2381 1159 1747 
Q 1159 1113 1420 752 
Q 1681 391 2138 391 
Q 2594 391 2855 752 
Q 3116 1113 3116 1747 
z
" transform="scale(0.015625)"/>
    </defs>
    <use xlink:href="#DejaVuSans-45"/>
    <use xlink:href="#DejaVuSans-6e" x="63.183594"/>
    <use xlink:href="#DejaVuSans-65" x="126.5625"/>
    <use xlink:href="#DejaVuSans-72" x="188.085938"/>
    <use xlink:href="#DejaVuSans-67" x="227.449219"/>
    <use xlink:href="#DejaVuSans-65" x="290.925781"/>
    <use xlink:href="#DejaVuSans-74" x="352.449219"/>
    <use xlink:href="#DejaVuSans-69" x="391.658203"/>
    <use xlink:href="#DejaVuSans-63" x="419.441406"/>
    <use xlink:href="#DejaVuSans-20" x="474.421875"/>
    <use xlink:href="#DejaVuSans-43" x="506.208984"/>
    <use xlink:href="#DejaVuSans-6f" x="576.033203"/>
    <use xlink:href="#DejaVuSans-6d" x="637.214844"/>
    <use xlink:href="#DejaVuSans-70" x="734.626953"/>
    <use xlink:href="#DejaVuSans-6f" x="798.103516"/>
    <use xlink:href="#DejaVuSans-6e" x="859.285156"/>
    <use xlink:href="#DejaVuSans-65" x="922.664062"/>
    <use xlink:href="#DejaVuSans-6e" x="984.1875"/>
    <use xlink:href="#DejaVuSans-74" x="1047.566406"/>
    <use xlink:href="#DejaVuSans-73" x="1086.775391"/>
   </g>
   <!-- System-1 | Normal | GB | Delta | TOTAL -->
   <g style="fill: #262626" transform="translate(151.249531 31.35625)scale(0.14 -0.14)">
    <defs>
     <path id="DejaVuSans-53" d="M 3425 4513 
L 3425 3897 
Q 3066 4069 2747 4153 
Q 2428 4238 2131 4238 
Q 1616 4238 1336 4038 
Q 1056 3838 1056 3469 
Q 1056 3159 1242 3001 
Q 1428 2844 1947 2747 
L 2328 2669 
Q 3034 2534 3370 2195 
Q 3706 1856 3706 1288 
Q 3706 609 3251 259 
Q 2797 -91 1919 -91 
Q 1588 -91 1214 -16 
Q 841 59 441 206 
L 441 856 
Q 825 641 1194 531 
Q 1563 422 1919 422 
Q 2459 422 2753 634 
Q 3047 847 3047 1241 
Q 3047 1584 2836 1778 
Q 2625 1972 2144 2069 
L 1759 2144 
Q 1053 2284 737 2584 
Q 422 2884 422 3419 
Q 422 4038 858 4394 
Q 1294 4750 2059 4750 
Q 2388 4750 2728 4690 
Q 3069 4631 3425 4513 
z
" transform="scale(0.015625)"/>
     <path id="DejaVuSans-2d" d="M 313 2009 
L 1997 2009 
L 1997 1497 
L 313 1497 
L 313 2009 
z
" transform="scale(0.015625)"/>
     <path id="DejaVuSans-7c" d="M 1344 4891 
L 1344 -1509 
L 813 -1509 
L 813 4891 
L 1344 4891 
z
" transform="scale(0.015625)"/>
     <path id="DejaVuSans-4e" d="M 628 4666 
L 1478 4666 
L 3547 763 
L 3547 4666 
L 4159 4666 
L 4159 0 
L 3309 0 
L 1241 3903 
L 1241 0 
L 628 0 
L 628 4666 
z
" transform="scale(0.015625)"/>
     <path id="DejaVuSans-47" d="M 3809 666 
L 3809 1919 
L 2778 1919 
L 2778 2438 
L 4434 2438 
L 4434 434 
Q 4069 175 3628 42 
Q 3188 -91 2688 -91 
Q 1594 -91 976 548 
Q 359 1188 359 2328 
Q 359 3472 976 4111 
Q 1594 4750 2688 4750 
Q 3144 4750 3555 4637 
Q 3966 4525 4313 4306 
L 4313 3634 
Q 3963 3931 3569 4081 
Q 3175 4231 2741 4231 
Q 1884 4231 1454 3753 
Q 1025 3275 1025 2328 
Q 1025 1384 1454 906 
Q 1884 428 2741 428 
Q 3075 428 3337 486 
Q 3600 544 3809 666 
z
" transform="scale(0.015625)"/>
     <path id="DejaVuSans-42" d="M 1259 2228 
L 1259 519 
L 2272 519 
Q 2781 519 3026 730 
Q 3272 941 3272 1375 
Q 3272 1813 3026 2020 
Q 2781 2228 2272 2228 
L 1259 2228 
z
M 1259 4147 
L 1259 2741 
L 2194 2741 
Q 2656 2741 2882 2914 
Q 3109 3088 3109 3444 
Q 3109 3797 2882 3972 
Q 2656 4147 2194 4147 
L 1259 4147 
z
M 628 4666 
L 2241 4666 
Q 2963 4666 3353 4366 
Q 3744 4066 3744 3513 
Q 3744 3084 3544 2831 
Q 3344 2578 2956 2516 
Q 3422 2416 3680 2098 
Q 3938 1781 3938 1306 
Q 3938 681 3513 340 
Q 3088 0 2303 0 
L 628 0 
L 628 4666 
z
" transform="scale(0.015625)"/>
     <path id="DejaVuSans-44" d="M 1259 4147 
L 1259 519 
L 2022 519 
Q 2988 519 3436 956 
Q 3884 1394 3884 2338 
Q 3884 3275 3436 3711 
Q 2988 4147 2022 4147 
L 1259 4147 
z
M 628 4666 
L 1925 4666 
Q 3281 4666 3915 4102 
Q 4550 3538 4550 2338 
Q 4550 1131 3912 565 
Q 3275 0 1925 0 
L 628 0 
L 628 4666 
z
" transform="scale(0.015625)"/>
    </defs>
    <use xlink:href="#DejaVuSans-53"/>
    <use xlink:href="#DejaVuSans-79" x="63.476562"/>
    <use xlink:href="#DejaVuSans-73" x="122.65625"/>
    <use xlink:href="#DejaVuSans-74" x="174.755859"/>
    <use xlink:href="#DejaVuSans-65" x="213.964844"/>
    <use xlink:href="#DejaVuSans-6d" x="275.488281"/>
    <use xlink:href="#DejaVuSans-2d" x="372.900391"/>
    <use xlink:href="#DejaVuSans-31" x="408.984375"/>
    <use xlink:href="#DejaVuSans-20" x="472.607422"/>
    <use xlink:href="#DejaVuSans-7c" x="504.394531"/>
    <use xlink:href="#DejaVuSans-20" x="538.085938"/>
    <use xlink:href="#DejaVuSans-4e" x="569.873047"/>
    <use xlink:href="#DejaVuSans-6f" x="644.677734"/>
    <use xlink:href="#DejaVuSans-72" x="705.859375"/>
    <use xlink:href="#DejaVuSans-6d" x="745.222656"/>
    <use xlink:href="#DejaVuSans-61" x="842.634766"/>
    <use xlink:href="#DejaVuSans-6c" x="903.914062"/>
    <use xlink:href="#DejaVuSans-20" x="931.697266"/>
    <use xlink:href="#DejaVuSans-7c" x="963.484375"/>
    <use xlink:href="#DejaVuSans-20" x="997.175781"/>
    <use xlink:href="#DejaVuSans-47" x="1028.962891"/>
    <use xlink:href="#DejaVuSans-42" x="1106.453125"/>
    <use xlink:href="#DejaVuSans-20" x="1175.056641"/>
    <use xlink:href="#DejaVuSans-7c" x="1206.84375"/>
    <use xlink:href="#DejaVuSans-20" x="1240.535156"/>
    <use xlink:href="#DejaVuSans-44" x="1272.322266"/>
    <use xlink:href="#DejaVuSans-65" x="1349.324219"/>
    <use xlink:href="#DejaVuSans-6c" x="1410.847656"/>
    <use xlink:href="#DejaVuSans-74" x="1438.630859"/>
    <use xlink:href="#DejaVuSans-61" x="1477.839844"/>
    <use xlink:href="#DejaVuSans-20" x="1539.119141"/>
    <use xlink:href="#DejaVuSans-7c" x="1570.90625"/>
    <use xlink:href="#DejaVuSans-20" x="1604.597656"/>
    <use xlink:href="#DejaVuSans-54" x="1636.384766"/>
    <use xlink:href="#DejaVuSans-4f" x="1697.46875"/>
    <use xlink:href="#DejaVuSans-54" x="1776.179688"/>
    <use xlink:href="#DejaVuSans-41" x="1829.513672"/>
    <use xlink:href="#DejaVuSans-4c" x="1897.921875"/>
   </g>
  </g>
 </g>
 <defs>
  <clipPath id="p32b0a2592a">
   <rect x="59.178438" y="55.609187" width="491.582345" height="145.038938"/>
  </clipPath>
 </defs>
</svg>
