<?xml version="1.0" encoding="utf-8" standalone="no"?>
<!DOCTYPE svg PUBLIC "-//W3C//DTD SVG 1.1//EN"
  "http://www.w3.org/Graphics/SVG/1.1/DTD/svg11.dtd">
<svg xmlns:xlink="http://www.w3.org/1999/xlink" width="576pt" height="248.4pt" viewBox="0 0 576 248.4" xmlns="http://www.w3.org/2000/svg" version="1.1">
 <metadata>
  <rdf:RDF xmlns:dc="http://purl.org/dc/elements/1.1/" xmlns:cc="http://creativecommons.org/ns#" xmlns:rdf="http://www.w3.org/1999/02/22-rdf-syntax-ns#">
   <cc:Work>
    <dc:type rdf:resource="http://purl.org/dc/dcmitype/StillImage"/>
    <dc:date>2024-10-20T17:15:02.730692</dc:date>
    <dc:format>image/svg+xml</dc:format>
    <dc:creator>
     <cc:Agent>
      <dc:title>Matplotlib v3.5.2, https://matplotlib.org/</dc:title>
     </cc:Agent>
    </dc:creator>
   </cc:Work>
  </rdf:RDF>
 </metadata>
 <defs>
  <style type="text/css">*{stroke-linejoin: round; stroke-linecap: butt}</style>
 </defs>
 <g id="figure_1">
  <g id="patch_1">
   <path d="M 0 248.4 
L 576 248.4 
L 576 0 
L 0 0 
z
" style="fill: #ffffff"/>
  </g>
  <g id="axes_1">
   <g id="patch_2">
    <path d="M 65.540937 200.648125 
L 550.75505 200.648125 
L 550.75505 55.609187 
L 65.540937 55.609187 
z
" style="fill: #eaeaf2"/>
   </g>
   <g id="matplotlib.axis_1">
    <g id="xtick_1">
     <g id="line2d_1">
      <path d="M 87.155021 200.648125 
L 87.155021 55.609187 
" clip-path="url(#p2818abc6d1)" style="fill: none; stroke: #ffffff; stroke-linecap: round"/>
     </g>
     <g id="text_1">
      <!-- 0 -->
      <g style="fill: #262626" transform="translate(83.973771 217.746562)scale(0.1 -0.1)">
       <defs>
        <path id="DejaVuSans-30" d="M 2034 4250 
Q 1547 4250 1301 3770 
Q 1056 3291 1056 2328 
Q 1056 1369 1301 889 
Q 1547 409 2034 409 
Q 2525 409 2770 889 
Q 3016 1369 3016 2328 
Q 3016 3291 2770 3770 
Q 2525 4250 2034 4250 
z
M 2034 4750 
Q 2819 4750 3233 4129 
Q 3647 3509 3647 2328 
Q 3647 1150 3233 529 
Q 2819 -91 2034 -91 
Q 1250 -91 836 529 
Q 422 1150 422 2328 
Q 422 3509 836 4129 
Q 1250 4750 2034 4750 
z
" transform="scale(0.015625)"/>
       </defs>
       <use xlink:href="#DejaVuSans-30"/>
      </g>
     </g>
    </g>
    <g id="xtick_2">
     <g id="line2d_2">
      <path d="M 153.320581 200.648125 
L 153.320581 55.609187 
" clip-path="url(#p2818abc6d1)" style="fill: none; stroke: #ffffff; stroke-linecap: round"/>
     </g>
     <g id="text_2">
      <!-- 150 -->
      <g style="fill: #262626" transform="translate(143.776831 217.746562)scale(0.1 -0.1)">
       <defs>
        <path id="DejaVuSans-31" d="M 794 531 
L 1825 531 
L 1825 4091 
L 703 3866 
L 703 4441 
L 1819 4666 
L 2450 4666 
L 2450 531 
L 3481 531 
L 3481 0 
L 794 0 
L 794 531 
z
" transform="scale(0.015625)"/>
        <path id="DejaVuSans-35" d="M 691 4666 
L 3169 4666 
L 3169 4134 
L 1269 4134 
L 1269 2991 
Q 1406 3038 1543 3061 
Q 1681 3084 1819 3084 
Q 2600 3084 3056 2656 
Q 3513 2228 3513 1497 
Q 3513 744 3044 326 
Q 2575 -91 1722 -91 
Q 1428 -91 1123 -41 
Q 819 9 494 109 
L 494 744 
Q 775 591 1075 516 
Q 1375 441 1709 441 
Q 2250 441 2565 725 
Q 2881 1009 2881 1497 
Q 2881 1984 2565 2268 
Q 2250 2553 1709 2553 
Q 1456 2553 1204 2497 
Q 953 2441 691 2322 
L 691 4666 
z
" transform="scale(0.015625)"/>
       </defs>
       <use xlink:href="#DejaVuSans-31"/>
       <use xlink:href="#DejaVuSans-35" x="63.623047"/>
       <use xlink:href="#DejaVuSans-30" x="127.246094"/>
      </g>
     </g>
    </g>
    <g id="xtick_3">
     <g id="line2d_3">
      <path d="M 219.486142 200.648125 
L 219.486142 55.609187 
" clip-path="url(#p2818abc6d1)" style="fill: none; stroke: #ffffff; stroke-linecap: round"/>
     </g>
     <g id="text_3">
      <!-- 300 -->
      <g style="fill: #262626" transform="translate(209.942392 217.746562)scale(0.1 -0.1)">
       <defs>
        <path id="DejaVuSans-33" d="M 2597 2516 
Q 3050 2419 3304 2112 
Q 3559 1806 3559 1356 
Q 3559 666 3084 287 
Q 2609 -91 1734 -91 
Q 1441 -91 1130 -33 
Q 819 25 488 141 
L 488 750 
Q 750 597 1062 519 
Q 1375 441 1716 441 
Q 2309 441 2620 675 
Q 2931 909 2931 1356 
Q 2931 1769 2642 2001 
Q 2353 2234 1838 2234 
L 1294 2234 
L 1294 2753 
L 1863 2753 
Q 2328 2753 2575 2939 
Q 2822 3125 2822 3475 
Q 2822 3834 2567 4026 
Q 2313 4219 1838 4219 
Q 1578 4219 1281 4162 
Q 984 4106 628 3988 
L 628 4550 
Q 988 4650 1302 4700 
Q 1616 4750 1894 4750 
Q 2613 4750 3031 4423 
Q 3450 4097 3450 3541 
Q 3450 3153 3228 2886 
Q 3006 2619 2597 2516 
z
" transform="scale(0.015625)"/>
       </defs>
       <use xlink:href="#DejaVuSans-33"/>
       <use xlink:href="#DejaVuSans-30" x="63.623047"/>
       <use xlink:href="#DejaVuSans-30" x="127.246094"/>
      </g>
     </g>
    </g>
    <g id="xtick_4">
     <g id="line2d_4">
      <path d="M 285.651703 200.648125 
L 285.651703 55.609187 
" clip-path="url(#p2818abc6d1)" style="fill: none; stroke: #ffffff; stroke-linecap: round"/>
     </g>
     <g id="text_4">
      <!-- 450 -->
      <g style="fill: #262626" transform="translate(276.107953 217.746562)scale(0.1 -0.1)">
       <defs>
        <path id="DejaVuSans-34" d="M 2419 4116 
L 825 1625 
L 2419 1625 
L 2419 4116 
z
M 2253 4666 
L 3047 4666 
L 3047 1625 
L 3713 1625 
L 3713 1100 
L 3047 1100 
L 3047 0 
L 2419 0 
L 2419 1100 
L 313 1100 
L 313 1709 
L 2253 4666 
z
" transform="scale(0.015625)"/>
       </defs>
       <use xlink:href="#DejaVuSans-34"/>
       <use xlink:href="#DejaVuSans-35" x="63.623047"/>
       <use xlink:href="#DejaVuSans-30" x="127.246094"/>
      </g>
     </g>
    </g>
    <g id="xtick_5">
     <g id="line2d_5">
      <path d="M 351.817264 200.648125 
L 351.817264 55.609187 
" clip-path="url(#p2818abc6d1)" style="fill: none; stroke: #ffffff; stroke-linecap: round"/>
     </g>
     <g id="text_5">
      <!-- 600 -->
      <g style="fill: #262626" transform="translate(342.273514 217.746562)scale(0.1 -0.1)">
       <defs>
        <path id="DejaVuSans-36" d="M 2113 2584 
Q 1688 2584 1439 2293 
Q 1191 2003 1191 1497 
Q 1191 994 1439 701 
Q 1688 409 2113 409 
Q 2538 409 2786 701 
Q 3034 994 3034 1497 
Q 3034 2003 2786 2293 
Q 2538 2584 2113 2584 
z
M 3366 4563 
L 3366 3988 
Q 3128 4100 2886 4159 
Q 2644 4219 2406 4219 
Q 1781 4219 1451 3797 
Q 1122 3375 1075 2522 
Q 1259 2794 1537 2939 
Q 1816 3084 2150 3084 
Q 2853 3084 3261 2657 
Q 3669 2231 3669 1497 
Q 3669 778 3244 343 
Q 2819 -91 2113 -91 
Q 1303 -91 875 529 
Q 447 1150 447 2328 
Q 447 3434 972 4092 
Q 1497 4750 2381 4750 
Q 2619 4750 2861 4703 
Q 3103 4656 3366 4563 
z
" transform="scale(0.015625)"/>
       </defs>
       <use xlink:href="#DejaVuSans-36"/>
       <use xlink:href="#DejaVuSans-30" x="63.623047"/>
       <use xlink:href="#DejaVuSans-30" x="127.246094"/>
      </g>
     </g>
    </g>
    <g id="xtick_6">
     <g id="line2d_6">
      <path d="M 417.982825 200.648125 
L 417.982825 55.609187 
" clip-path="url(#p2818abc6d1)" style="fill: none; stroke: #ffffff; stroke-linecap: round"/>
     </g>
     <g id="text_6">
      <!-- 750 -->
      <g style="fill: #262626" transform="translate(408.439075 217.746562)scale(0.1 -0.1)">
       <defs>
        <path id="DejaVuSans-37" d="M 525 4666 
L 3525 4666 
L 3525 4397 
L 1831 0 
L 1172 0 
L 2766 4134 
L 525 4134 
L 525 4666 
z
" transform="scale(0.015625)"/>
       </defs>
       <use xlink:href="#DejaVuSans-37"/>
       <use xlink:href="#DejaVuSans-35" x="63.623047"/>
       <use xlink:href="#DejaVuSans-30" x="127.246094"/>
      </g>
     </g>
    </g>
    <g id="xtick_7">
     <g id="line2d_7">
      <path d="M 484.148386 200.648125 
L 484.148386 55.609187 
" clip-path="url(#p2818abc6d1)" style="fill: none; stroke: #ffffff; stroke-linecap: round"/>
     </g>
     <g id="text_7">
      <!-- 900 -->
      <g style="fill: #262626" transform="translate(474.604636 217.746562)scale(0.1 -0.1)">
       <defs>
        <path id="DejaVuSans-39" d="M 703 97 
L 703 672 
Q 941 559 1184 500 
Q 1428 441 1663 441 
Q 2288 441 2617 861 
Q 2947 1281 2994 2138 
Q 2813 1869 2534 1725 
Q 2256 1581 1919 1581 
Q 1219 1581 811 2004 
Q 403 2428 403 3163 
Q 403 3881 828 4315 
Q 1253 4750 1959 4750 
Q 2769 4750 3195 4129 
Q 3622 3509 3622 2328 
Q 3622 1225 3098 567 
Q 2575 -91 1691 -91 
Q 1453 -91 1209 -44 
Q 966 3 703 97 
z
M 1959 2075 
Q 2384 2075 2632 2365 
Q 2881 2656 2881 3163 
Q 2881 3666 2632 3958 
Q 2384 4250 1959 4250 
Q 1534 4250 1286 3958 
Q 1038 3666 1038 3163 
Q 1038 2656 1286 2365 
Q 1534 2075 1959 2075 
z
" transform="scale(0.015625)"/>
       </defs>
       <use xlink:href="#DejaVuSans-39"/>
       <use xlink:href="#DejaVuSans-30" x="63.623047"/>
       <use xlink:href="#DejaVuSans-30" x="127.246094"/>
      </g>
     </g>
    </g>
    <g id="xtick_8">
     <g id="line2d_8">
      <path d="M 550.313946 200.648125 
L 550.313946 55.609187 
" clip-path="url(#p2818abc6d1)" style="fill: none; stroke: #ffffff; stroke-linecap: round"/>
     </g>
     <g id="text_8">
      <!-- 1050 -->
      <g style="fill: #262626" transform="translate(537.588946 217.746562)scale(0.1 -0.1)">
       <use xlink:href="#DejaVuSans-31"/>
       <use xlink:href="#DejaVuSans-30" x="63.623047"/>
       <use xlink:href="#DejaVuSans-35" x="127.246094"/>
       <use xlink:href="#DejaVuSans-30" x="190.869141"/>
      </g>
     </g>
    </g>
    <g id="text_9">
     <!-- Frames -->
     <g style="fill: #262626" transform="translate(286.326744 232.944375)scale(0.12 -0.12)">
      <defs>
       <path id="DejaVuSans-46" d="M 628 4666 
L 3309 4666 
L 3309 4134 
L 1259 4134 
L 1259 2759 
L 3109 2759 
L 3109 2228 
L 1259 2228 
L 1259 0 
L 628 0 
L 628 4666 
z
" transform="scale(0.015625)"/>
       <path id="DejaVuSans-72" d="M 2631 2963 
Q 2534 3019 2420 3045 
Q 2306 3072 2169 3072 
Q 1681 3072 1420 2755 
Q 1159 2438 1159 1844 
L 1159 0 
L 581 0 
L 581 3500 
L 1159 3500 
L 1159 2956 
Q 1341 3275 1631 3429 
Q 1922 3584 2338 3584 
Q 2397 3584 2469 3576 
Q 2541 3569 2628 3553 
L 2631 2963 
z
" transform="scale(0.015625)"/>
       <path id="DejaVuSans-61" d="M 2194 1759 
Q 1497 1759 1228 1600 
Q 959 1441 959 1056 
Q 959 750 1161 570 
Q 1363 391 1709 391 
Q 2188 391 2477 730 
Q 2766 1069 2766 1631 
L 2766 1759 
L 2194 1759 
z
M 3341 1997 
L 3341 0 
L 2766 0 
L 2766 531 
Q 2569 213 2275 61 
Q 1981 -91 1556 -91 
Q 1019 -91 701 211 
Q 384 513 384 1019 
Q 384 1609 779 1909 
Q 1175 2209 1959 2209 
L 2766 2209 
L 2766 2266 
Q 2766 2663 2505 2880 
Q 2244 3097 1772 3097 
Q 1472 3097 1187 3025 
Q 903 2953 641 2809 
L 641 3341 
Q 956 3463 1253 3523 
Q 1550 3584 1831 3584 
Q 2591 3584 2966 3190 
Q 3341 2797 3341 1997 
z
" transform="scale(0.015625)"/>
       <path id="DejaVuSans-6d" d="M 3328 2828 
Q 3544 3216 3844 3400 
Q 4144 3584 4550 3584 
Q 5097 3584 5394 3201 
Q 5691 2819 5691 2113 
L 5691 0 
L 5113 0 
L 5113 2094 
Q 5113 2597 4934 2840 
Q 4756 3084 4391 3084 
Q 3944 3084 3684 2787 
Q 3425 2491 3425 1978 
L 3425 0 
L 2847 0 
L 2847 2094 
Q 2847 2600 2669 2842 
Q 2491 3084 2119 3084 
Q 1678 3084 1418 2786 
Q 1159 2488 1159 1978 
L 1159 0 
L 581 0 
L 581 3500 
L 1159 3500 
L 1159 2956 
Q 1356 3278 1631 3431 
Q 1906 3584 2284 3584 
Q 2666 3584 2933 3390 
Q 3200 3197 3328 2828 
z
" transform="scale(0.015625)"/>
       <path id="DejaVuSans-65" d="M 3597 1894 
L 3597 1613 
L 953 1613 
Q 991 1019 1311 708 
Q 1631 397 2203 397 
Q 2534 397 2845 478 
Q 3156 559 3463 722 
L 3463 178 
Q 3153 47 2828 -22 
Q 2503 -91 2169 -91 
Q 1331 -91 842 396 
Q 353 884 353 1716 
Q 353 2575 817 3079 
Q 1281 3584 2069 3584 
Q 2775 3584 3186 3129 
Q 3597 2675 3597 1894 
z
M 3022 2063 
Q 3016 2534 2758 2815 
Q 2500 3097 2075 3097 
Q 1594 3097 1305 2825 
Q 1016 2553 972 2059 
L 3022 2063 
z
" transform="scale(0.015625)"/>
       <path id="DejaVuSans-73" d="M 2834 3397 
L 2834 2853 
Q 2591 2978 2328 3040 
Q 2066 3103 1784 3103 
Q 1356 3103 1142 2972 
Q 928 2841 928 2578 
Q 928 2378 1081 2264 
Q 1234 2150 1697 2047 
L 1894 2003 
Q 2506 1872 2764 1633 
Q 3022 1394 3022 966 
Q 3022 478 2636 193 
Q 2250 -91 1575 -91 
Q 1294 -91 989 -36 
Q 684 19 347 128 
L 347 722 
Q 666 556 975 473 
Q 1284 391 1588 391 
Q 1994 391 2212 530 
Q 2431 669 2431 922 
Q 2431 1156 2273 1281 
Q 2116 1406 1581 1522 
L 1381 1569 
Q 847 1681 609 1914 
Q 372 2147 372 2553 
Q 372 3047 722 3315 
Q 1072 3584 1716 3584 
Q 2034 3584 2315 3537 
Q 2597 3491 2834 3397 
z
" transform="scale(0.015625)"/>
      </defs>
      <use xlink:href="#DejaVuSans-46"/>
      <use xlink:href="#DejaVuSans-72" x="50.269531"/>
      <use xlink:href="#DejaVuSans-61" x="91.382812"/>
      <use xlink:href="#DejaVuSans-6d" x="152.662109"/>
      <use xlink:href="#DejaVuSans-65" x="250.074219"/>
      <use xlink:href="#DejaVuSans-73" x="311.597656"/>
     </g>
    </g>
   </g>
   <g id="matplotlib.axis_2">
    <g id="ytick_1">
     <g id="line2d_9">
      <path d="M 65.540937 194.27358 
L 550.75505 194.27358 
" clip-path="url(#p2818abc6d1)" style="fill: none; stroke: #ffffff; stroke-linecap: round"/>
     </g>
     <g id="text_10">
      <!-- −150 -->
      <g style="fill: #262626" transform="translate(28.57375 198.072799)scale(0.1 -0.1)">
       <defs>
        <path id="DejaVuSans-2212" d="M 678 2272 
L 4684 2272 
L 4684 1741 
L 678 1741 
L 678 2272 
z
" transform="scale(0.015625)"/>
       </defs>
       <use xlink:href="#DejaVuSans-2212"/>
       <use xlink:href="#DejaVuSans-31" x="83.789062"/>
       <use xlink:href="#DejaVuSans-35" x="147.412109"/>
       <use xlink:href="#DejaVuSans-30" x="211.035156"/>
      </g>
     </g>
    </g>
    <g id="ytick_2">
     <g id="line2d_10">
      <path d="M 65.540937 176.458625 
L 550.75505 176.458625 
" clip-path="url(#p2818abc6d1)" style="fill: none; stroke: #ffffff; stroke-linecap: round"/>
     </g>
     <g id="text_11">
      <!-- −135 -->
      <g style="fill: #262626" transform="translate(28.57375 180.257843)scale(0.1 -0.1)">
       <use xlink:href="#DejaVuSans-2212"/>
       <use xlink:href="#DejaVuSans-31" x="83.789062"/>
       <use xlink:href="#DejaVuSans-33" x="147.412109"/>
       <use xlink:href="#DejaVuSans-35" x="211.035156"/>
      </g>
     </g>
    </g>
    <g id="ytick_3">
     <g id="line2d_11">
      <path d="M 65.540937 158.643669 
L 550.75505 158.643669 
" clip-path="url(#p2818abc6d1)" style="fill: none; stroke: #ffffff; stroke-linecap: round"/>
     </g>
     <g id="text_12">
      <!-- −120 -->
      <g style="fill: #262626" transform="translate(28.57375 162.442888)scale(0.1 -0.1)">
       <defs>
        <path id="DejaVuSans-32" d="M 1228 531 
L 3431 531 
L 3431 0 
L 469 0 
L 469 531 
Q 828 903 1448 1529 
Q 2069 2156 2228 2338 
Q 2531 2678 2651 2914 
Q 2772 3150 2772 3378 
Q 2772 3750 2511 3984 
Q 2250 4219 1831 4219 
Q 1534 4219 1204 4116 
Q 875 4013 500 3803 
L 500 4441 
Q 881 4594 1212 4672 
Q 1544 4750 1819 4750 
Q 2544 4750 2975 4387 
Q 3406 4025 3406 3419 
Q 3406 3131 3298 2873 
Q 3191 2616 2906 2266 
Q 2828 2175 2409 1742 
Q 1991 1309 1228 531 
z
" transform="scale(0.015625)"/>
       </defs>
       <use xlink:href="#DejaVuSans-2212"/>
       <use xlink:href="#DejaVuSans-31" x="83.789062"/>
       <use xlink:href="#DejaVuSans-32" x="147.412109"/>
       <use xlink:href="#DejaVuSans-30" x="211.035156"/>
      </g>
     </g>
    </g>
    <g id="ytick_4">
     <g id="line2d_12">
      <path d="M 65.540937 140.828714 
L 550.75505 140.828714 
" clip-path="url(#p2818abc6d1)" style="fill: none; stroke: #ffffff; stroke-linecap: round"/>
     </g>
     <g id="text_13">
      <!-- −105 -->
      <g style="fill: #262626" transform="translate(28.57375 144.627933)scale(0.1 -0.1)">
       <use xlink:href="#DejaVuSans-2212"/>
       <use xlink:href="#DejaVuSans-31" x="83.789062"/>
       <use xlink:href="#DejaVuSans-30" x="147.412109"/>
       <use xlink:href="#DejaVuSans-35" x="211.035156"/>
      </g>
     </g>
    </g>
    <g id="ytick_5">
     <g id="line2d_13">
      <path d="M 65.540937 123.013759 
L 550.75505 123.013759 
" clip-path="url(#p2818abc6d1)" style="fill: none; stroke: #ffffff; stroke-linecap: round"/>
     </g>
     <g id="text_14">
      <!-- −90 -->
      <g style="fill: #262626" transform="translate(34.93625 126.812978)scale(0.1 -0.1)">
       <use xlink:href="#DejaVuSans-2212"/>
       <use xlink:href="#DejaVuSans-39" x="83.789062"/>
       <use xlink:href="#DejaVuSans-30" x="147.412109"/>
      </g>
     </g>
    </g>
    <g id="ytick_6">
     <g id="line2d_14">
      <path d="M 65.540937 105.198803 
L 550.75505 105.198803 
" clip-path="url(#p2818abc6d1)" style="fill: none; stroke: #ffffff; stroke-linecap: round"/>
     </g>
     <g id="text_15">
      <!-- −75 -->
      <g style="fill: #262626" transform="translate(34.93625 108.998022)scale(0.1 -0.1)">
       <use xlink:href="#DejaVuSans-2212"/>
       <use xlink:href="#DejaVuSans-37" x="83.789062"/>
       <use xlink:href="#DejaVuSans-35" x="147.412109"/>
      </g>
     </g>
    </g>
    <g id="ytick_7">
     <g id="line2d_15">
      <path d="M 65.540937 87.383848 
L 550.75505 87.383848 
" clip-path="url(#p2818abc6d1)" style="fill: none; stroke: #ffffff; stroke-linecap: round"/>
     </g>
     <g id="text_16">
      <!-- −60 -->
      <g style="fill: #262626" transform="translate(34.93625 91.183067)scale(0.1 -0.1)">
       <use xlink:href="#DejaVuSans-2212"/>
       <use xlink:href="#DejaVuSans-36" x="83.789062"/>
       <use xlink:href="#DejaVuSans-30" x="147.412109"/>
      </g>
     </g>
    </g>
    <g id="ytick_8">
     <g id="line2d_16">
      <path d="M 65.540937 69.568893 
L 550.75505 69.568893 
" clip-path="url(#p2818abc6d1)" style="fill: none; stroke: #ffffff; stroke-linecap: round"/>
     </g>
     <g id="text_17">
      <!-- −45 -->
      <g style="fill: #262626" transform="translate(34.93625 73.368112)scale(0.1 -0.1)">
       <use xlink:href="#DejaVuSans-2212"/>
       <use xlink:href="#DejaVuSans-34" x="83.789062"/>
       <use xlink:href="#DejaVuSans-35" x="147.412109"/>
      </g>
     </g>
    </g>
    <g id="text_18">
     <!-- Energy (kcal/mol) -->
     <g style="fill: #262626" transform="translate(22.078125 181.045844)rotate(-90)scale(0.12 -0.12)">
      <defs>
       <path id="DejaVuSans-45" d="M 628 4666 
L 3578 4666 
L 3578 4134 
L 1259 4134 
L 1259 2753 
L 3481 2753 
L 3481 2222 
L 1259 2222 
L 1259 531 
L 3634 531 
L 3634 0 
L 628 0 
L 628 4666 
z
" transform="scale(0.015625)"/>
       <path id="DejaVuSans-6e" d="M 3513 2113 
L 3513 0 
L 2938 0 
L 2938 2094 
Q 2938 2591 2744 2837 
Q 2550 3084 2163 3084 
Q 1697 3084 1428 2787 
Q 1159 2491 1159 1978 
L 1159 0 
L 581 0 
L 581 3500 
L 1159 3500 
L 1159 2956 
Q 1366 3272 1645 3428 
Q 1925 3584 2291 3584 
Q 2894 3584 3203 3211 
Q 3513 2838 3513 2113 
z
" transform="scale(0.015625)"/>
       <path id="DejaVuSans-67" d="M 2906 1791 
Q 2906 2416 2648 2759 
Q 2391 3103 1925 3103 
Q 1463 3103 1205 2759 
Q 947 2416 947 1791 
Q 947 1169 1205 825 
Q 1463 481 1925 481 
Q 2391 481 2648 825 
Q 2906 1169 2906 1791 
z
M 3481 434 
Q 3481 -459 3084 -895 
Q 2688 -1331 1869 -1331 
Q 1566 -1331 1297 -1286 
Q 1028 -1241 775 -1147 
L 775 -588 
Q 1028 -725 1275 -790 
Q 1522 -856 1778 -856 
Q 2344 -856 2625 -561 
Q 2906 -266 2906 331 
L 2906 616 
Q 2728 306 2450 153 
Q 2172 0 1784 0 
Q 1141 0 747 490 
Q 353 981 353 1791 
Q 353 2603 747 3093 
Q 1141 3584 1784 3584 
Q 2172 3584 2450 3431 
Q 2728 3278 2906 2969 
L 2906 3500 
L 3481 3500 
L 3481 434 
z
" transform="scale(0.015625)"/>
       <path id="DejaVuSans-79" d="M 2059 -325 
Q 1816 -950 1584 -1140 
Q 1353 -1331 966 -1331 
L 506 -1331 
L 506 -850 
L 844 -850 
Q 1081 -850 1212 -737 
Q 1344 -625 1503 -206 
L 1606 56 
L 191 3500 
L 800 3500 
L 1894 763 
L 2988 3500 
L 3597 3500 
L 2059 -325 
z
" transform="scale(0.015625)"/>
       <path id="DejaVuSans-20" transform="scale(0.015625)"/>
       <path id="DejaVuSans-28" d="M 1984 4856 
Q 1566 4138 1362 3434 
Q 1159 2731 1159 2009 
Q 1159 1288 1364 580 
Q 1569 -128 1984 -844 
L 1484 -844 
Q 1016 -109 783 600 
Q 550 1309 550 2009 
Q 550 2706 781 3412 
Q 1013 4119 1484 4856 
L 1984 4856 
z
" transform="scale(0.015625)"/>
       <path id="DejaVuSans-6b" d="M 581 4863 
L 1159 4863 
L 1159 1991 
L 2875 3500 
L 3609 3500 
L 1753 1863 
L 3688 0 
L 2938 0 
L 1159 1709 
L 1159 0 
L 581 0 
L 581 4863 
z
" transform="scale(0.015625)"/>
       <path id="DejaVuSans-63" d="M 3122 3366 
L 3122 2828 
Q 2878 2963 2633 3030 
Q 2388 3097 2138 3097 
Q 1578 3097 1268 2742 
Q 959 2388 959 1747 
Q 959 1106 1268 751 
Q 1578 397 2138 397 
Q 2388 397 2633 464 
Q 2878 531 3122 666 
L 3122 134 
Q 2881 22 2623 -34 
Q 2366 -91 2075 -91 
Q 1284 -91 818 406 
Q 353 903 353 1747 
Q 353 2603 823 3093 
Q 1294 3584 2113 3584 
Q 2378 3584 2631 3529 
Q 2884 3475 3122 3366 
z
" transform="scale(0.015625)"/>
       <path id="DejaVuSans-6c" d="M 603 4863 
L 1178 4863 
L 1178 0 
L 603 0 
L 603 4863 
z
" transform="scale(0.015625)"/>
       <path id="DejaVuSans-2f" d="M 1625 4666 
L 2156 4666 
L 531 -594 
L 0 -594 
L 1625 4666 
z
" transform="scale(0.015625)"/>
       <path id="DejaVuSans-6f" d="M 1959 3097 
Q 1497 3097 1228 2736 
Q 959 2375 959 1747 
Q 959 1119 1226 758 
Q 1494 397 1959 397 
Q 2419 397 2687 759 
Q 2956 1122 2956 1747 
Q 2956 2369 2687 2733 
Q 2419 3097 1959 3097 
z
M 1959 3584 
Q 2709 3584 3137 3096 
Q 3566 2609 3566 1747 
Q 3566 888 3137 398 
Q 2709 -91 1959 -91 
Q 1206 -91 779 398 
Q 353 888 353 1747 
Q 353 2609 779 3096 
Q 1206 3584 1959 3584 
z
" transform="scale(0.015625)"/>
       <path id="DejaVuSans-29" d="M 513 4856 
L 1013 4856 
Q 1481 4119 1714 3412 
Q 1947 2706 1947 2009 
Q 1947 1309 1714 600 
Q 1481 -109 1013 -844 
L 513 -844 
Q 928 -128 1133 580 
Q 1338 1288 1338 2009 
Q 1338 2731 1133 3434 
Q 928 4138 513 4856 
z
" transform="scale(0.015625)"/>
      </defs>
      <use xlink:href="#DejaVuSans-45"/>
      <use xlink:href="#DejaVuSans-6e" x="63.183594"/>
      <use xlink:href="#DejaVuSans-65" x="126.5625"/>
      <use xlink:href="#DejaVuSans-72" x="188.085938"/>
      <use xlink:href="#DejaVuSans-67" x="227.449219"/>
      <use xlink:href="#DejaVuSans-79" x="290.925781"/>
      <use xlink:href="#DejaVuSans-20" x="350.105469"/>
      <use xlink:href="#DejaVuSans-28" x="381.892578"/>
      <use xlink:href="#DejaVuSans-6b" x="420.90625"/>
      <use xlink:href="#DejaVuSans-63" x="478.816406"/>
      <use xlink:href="#DejaVuSans-61" x="533.796875"/>
      <use xlink:href="#DejaVuSans-6c" x="595.076172"/>
      <use xlink:href="#DejaVuSans-2f" x="622.859375"/>
      <use xlink:href="#DejaVuSans-6d" x="656.550781"/>
      <use xlink:href="#DejaVuSans-6f" x="753.962891"/>
      <use xlink:href="#DejaVuSans-6c" x="815.144531"/>
      <use xlink:href="#DejaVuSans-29" x="842.927734"/>
     </g>
    </g>
   </g>
   <g id="line2d_17">
    <path d="M 87.596124 111.027044 
L 88.037228 86.556478 
L 88.478332 93.83381 
L 88.919436 95.645887 
L 89.360539 93.370631 
L 89.801643 88.678287 
L 90.242747 94.419811 
L 90.683851 89.230865 
L 91.124954 91.024434 
L 91.566058 88.881139 
L 92.007162 94.970827 
L 92.448266 90.664755 
L 93.330473 75.933145 
L 93.771577 75.225125 
L 94.212681 78.967264 
L 94.653784 75.169786 
L 95.094888 76.057692 
L 95.535992 86.564809 
L 95.977095 87.938352 
L 96.418199 89.909415 
L 96.859303 86.466703 
L 97.300407 71.988032 
L 97.74151 77.162158 
L 98.182614 73.996414 
L 98.623718 80.899377 
L 99.064822 81.821236 
L 99.505925 81.307993 
L 99.947029 62.201866 
L 100.388133 86.520639 
L 100.829237 91.095878 
L 101.27034 85.497312 
L 101.711444 93.468484 
L 102.152548 88.365217 
L 102.593652 93.566772 
L 103.034755 85.38116 
L 103.475859 88.241448 
L 103.916963 91.91823 
L 104.358067 82.640281 
L 104.79917 87.592182 
L 105.240274 89.370308 
L 105.681378 94.941691 
L 106.122481 87.054967 
L 106.563585 108.149165 
L 107.004689 88.025162 
L 107.886896 83.749043 
L 108.328 94.228127 
L 109.210208 75.934403 
L 109.651311 91.106043 
L 110.092415 89.023606 
L 110.533519 93.774143 
L 110.974623 80.864572 
L 111.415726 84.35584 
L 111.85683 79.18374 
L 112.297934 84.447556 
L 112.739038 82.747999 
L 113.180141 94.924811 
L 113.621245 76.745189 
L 114.062349 74.269016 
L 114.503452 80.328676 
L 114.944556 94.608924 
L 115.38566 82.18086 
L 115.826764 98.006162 
L 116.267867 97.310877 
L 116.708971 100.142299 
L 117.150075 99.488242 
L 117.591179 102.220614 
L 118.032282 105.653935 
L 118.473386 92.116482 
L 118.91449 90.689519 
L 119.796697 74.177678 
L 120.237801 87.728036 
L 120.678905 93.466673 
L 121.120009 90.070688 
L 121.561112 91.464873 
L 122.002216 91.872069 
L 122.44332 93.708636 
L 122.884424 86.242068 
L 123.325527 83.351169 
L 123.766631 83.034422 
L 124.207735 84.98101 
L 124.648838 98.056534 
L 125.089942 91.80499 
L 125.531046 91.131437 
L 125.97215 99.522364 
L 126.413253 88.205307 
L 126.854357 90.163324 
L 127.295461 79.426202 
L 127.736565 87.524734 
L 128.177668 84.365313 
L 128.618772 104.228944 
L 129.059876 105.444913 
L 129.50098 84.424297 
L 129.942083 81.281039 
L 130.824291 62.764729 
L 131.265395 83.479146 
L 131.706498 85.822576 
L 132.147602 88.856042 
L 132.588706 92.993833 
L 133.02981 89.751265 
L 133.470913 94.813201 
L 133.912017 93.563106 
L 134.353121 93.129618 
L 134.794224 90.868976 
L 135.235328 84.900148 
L 135.676432 109.514309 
L 136.117536 102.638249 
L 136.558639 104.753538 
L 136.999743 113.498966 
L 137.440847 104.703696 
L 137.881951 112.185213 
L 138.323054 102.123808 
L 138.764158 114.219711 
L 139.205262 117.855562 
L 139.646366 120.059946 
L 140.087469 123.367542 
L 140.528573 121.81186 
L 140.969677 91.106261 
L 141.410781 94.582254 
L 141.851884 95.184356 
L 142.292988 81.784439 
L 142.734092 82.22716 
L 143.175196 85.59742 
L 143.616299 84.919104 
L 144.057403 97.038414 
L 144.498507 88.647496 
L 144.93961 89.783727 
L 145.380714 87.350043 
L 145.821818 110.534119 
L 146.262922 99.143338 
L 146.704025 83.895986 
L 147.145129 83.141176 
L 147.586233 77.806528 
L 148.027337 96.956992 
L 148.46844 94.027428 
L 148.909544 101.550448 
L 149.350648 83.925134 
L 149.791752 87.874963 
L 150.232855 86.224381 
L 150.673959 94.6741 
L 151.115063 100.801803 
L 151.556167 100.034003 
L 151.99727 95.51547 
L 152.438374 77.558741 
L 152.879478 88.687631 
L 153.320581 95.56232 
L 153.761685 99.147075 
L 154.202789 98.353646 
L 154.643893 93.434678 
L 155.084996 100.700245 
L 155.5261 93.246797 
L 155.967204 93.236294 
L 156.408308 103.127803 
L 156.849411 108.440155 
L 157.290515 97.786765 
L 157.731619 100.631283 
L 158.172723 92.565444 
L 159.05493 101.632369 
L 159.496034 100.904529 
L 159.937138 99.476378 
L 160.378241 101.150677 
L 161.260449 94.885447 
L 161.701553 100.979971 
L 162.142656 109.569854 
L 162.58376 121.803396 
L 163.024864 130.122665 
L 163.465967 114.028254 
L 163.907071 121.616804 
L 164.348175 94.067517 
L 164.789279 112.180029 
L 165.230382 110.245974 
L 165.671486 100.626378 
L 166.11259 102.325262 
L 166.553694 92.516549 
L 166.994797 94.680669 
L 167.435901 95.267196 
L 167.877005 95.009119 
L 168.318109 91.015367 
L 168.759212 90.054362 
L 169.200316 116.187325 
L 169.64142 106.409679 
L 170.082524 99.372722 
L 170.523627 102.002955 
L 170.964731 93.082706 
L 171.405835 124.095145 
L 171.846939 124.186581 
L 172.288042 122.06955 
L 172.729146 97.007077 
L 173.611353 124.582764 
L 174.052457 119.179772 
L 174.493561 126.246133 
L 174.934665 120.923544 
L 175.375768 112.190824 
L 175.816872 105.84655 
L 176.257976 106.807674 
L 176.69908 104.565538 
L 177.140183 110.279532 
L 177.581287 96.776755 
L 178.022391 101.262841 
L 178.463495 119.243056 
L 178.904598 101.29286 
L 179.345702 106.679026 
L 179.786806 132.909024 
L 180.22791 115.274706 
L 180.669013 117.423671 
L 181.551221 107.380902 
L 181.992325 115.371133 
L 182.433428 125.68691 
L 182.874532 112.338773 
L 183.315636 112.045781 
L 183.756739 99.048748 
L 184.197843 116.374986 
L 185.080051 103.850231 
L 185.521154 109.308978 
L 185.962258 125.417864 
L 186.403362 118.763281 
L 186.844466 115.433934 
L 187.285569 120.625996 
L 187.726673 121.93699 
L 188.167777 121.037349 
L 188.608881 115.827541 
L 189.049984 96.277089 
L 189.491088 112.644422 
L 189.932192 102.311571 
L 190.373296 98.879315 
L 190.814399 116.554073 
L 191.255503 103.825657 
L 192.137711 115.235227 
L 192.578814 131.421361 
L 193.019918 111.379027 
L 193.461022 122.290219 
L 194.343229 108.041115 
L 194.784333 112.965577 
L 195.225437 116.462474 
L 195.66654 116.630983 
L 196.107644 111.27664 
L 196.548748 112.006535 
L 197.430955 119.740174 
L 197.872059 113.731931 
L 198.313163 113.996078 
L 198.754267 129.097217 
L 199.19537 117.034325 
L 199.636474 124.832465 
L 200.077578 109.396865 
L 200.518682 99.584337 
L 200.959785 101.148611 
L 201.400889 97.820368 
L 201.841993 107.248778 
L 202.283096 104.403751 
L 202.7242 106.009258 
L 203.165304 101.960434 
L 203.606408 106.147043 
L 204.047511 117.997884 
L 204.488615 110.74748 
L 204.929719 113.916178 
L 205.370823 114.328579 
L 205.811926 112.815771 
L 206.25303 109.07767 
L 206.694134 97.493134 
L 207.135238 107.95206 
L 207.576341 101.599577 
L 208.017445 102.212627 
L 208.458549 96.327337 
L 208.899653 106.590207 
L 209.340756 95.654707 
L 209.78186 107.250198 
L 210.222964 104.21519 
L 211.546275 99.135701 
L 211.987379 90.955452 
L 212.428482 109.672421 
L 212.869586 104.802236 
L 213.31069 103.795856 
L 213.751794 96.237233 
L 214.192897 98.536815 
L 214.634001 102.413603 
L 215.075105 110.323545 
L 215.516209 98.980854 
L 215.957312 106.322303 
L 216.398416 88.845536 
L 216.83952 92.015517 
L 217.280624 101.567422 
L 218.162831 100.785298 
L 218.603935 94.431327 
L 219.045039 107.535797 
L 219.486142 97.974004 
L 219.927246 107.92131 
L 220.36835 114.1468 
L 220.809454 100.906754 
L 221.250557 101.352831 
L 221.691661 115.336455 
L 222.132765 100.768803 
L 222.573868 107.420005 
L 223.014972 107.006598 
L 223.89718 108.011075 
L 224.338283 104.663327 
L 224.779387 94.983355 
L 225.220491 115.294118 
L 225.661595 105.213835 
L 226.102698 114.601141 
L 226.543802 104.166459 
L 226.984906 104.630646 
L 227.42601 102.410903 
L 227.867113 103.796745 
L 228.308217 114.335831 
L 228.749321 103.399319 
L 229.190425 104.814775 
L 229.631528 95.533599 
L 230.513736 102.316438 
L 230.95484 109.319933 
L 231.395943 105.961737 
L 231.837047 106.243435 
L 232.278151 102.902331 
L 232.719254 110.578572 
L 233.160358 122.191557 
L 233.601462 110.94061 
L 234.042566 119.643292 
L 234.483669 112.681814 
L 234.924773 115.59423 
L 235.365877 114.424361 
L 235.806981 118.770124 
L 236.248084 120.062747 
L 237.130292 112.598366 
L 237.571396 114.800727 
L 238.012499 102.480722 
L 238.453603 107.884104 
L 238.894707 108.185993 
L 239.335811 113.485555 
L 239.776914 108.46197 
L 240.218018 116.060707 
L 240.659122 120.247583 
L 241.100225 117.876535 
L 241.982433 119.957805 
L 242.423537 129.784599 
L 242.86464 108.599628 
L 243.305744 119.38033 
L 243.746848 118.524225 
L 244.187952 116.45877 
L 244.629055 116.041757 
L 245.070159 118.377244 
L 245.511263 99.968795 
L 245.952367 102.924352 
L 246.39347 101.237115 
L 246.834574 93.723863 
L 247.275678 104.062102 
L 247.716782 109.854278 
L 248.157885 106.460489 
L 248.598989 107.477581 
L 249.040093 101.386956 
L 249.9223 132.595855 
L 250.363404 112.68689 
L 250.804508 122.436493 
L 251.245611 117.539734 
L 251.686715 116.698825 
L 252.127819 114.673351 
L 252.568923 119.020219 
L 253.010026 127.108427 
L 253.45113 108.954078 
L 253.892234 109.361134 
L 254.333338 104.405494 
L 254.774441 107.200549 
L 255.215545 112.676568 
L 255.656649 120.571816 
L 256.097753 108.726801 
L 256.538856 114.240369 
L 256.97996 104.744263 
L 257.421064 123.010861 
L 257.862168 114.719855 
L 258.303271 119.325071 
L 258.744375 115.213322 
L 259.185479 115.527299 
L 259.626583 129.251393 
L 260.067686 115.862369 
L 260.50879 117.789416 
L 260.949894 123.08355 
L 261.390997 114.406178 
L 261.832101 119.685642 
L 262.273205 119.032951 
L 262.714309 128.989152 
L 263.155412 124.355727 
L 263.596516 120.895133 
L 264.03762 114.411553 
L 264.478724 127.107057 
L 264.919827 135.230004 
L 265.360931 147.255998 
L 265.802035 141.651751 
L 266.243139 132.308148 
L 266.684242 144.004982 
L 267.125346 139.354271 
L 268.448657 105.928318 
L 268.889761 104.032223 
L 269.330865 104.856392 
L 269.771969 120.613572 
L 270.213072 112.290733 
L 270.654176 109.050694 
L 271.09528 115.468516 
L 271.536383 117.138865 
L 271.977487 126.842639 
L 272.418591 119.665089 
L 272.859695 124.05677 
L 273.300798 116.453733 
L 273.741902 121.068941 
L 274.183006 114.328552 
L 274.62411 122.463452 
L 275.506317 112.973713 
L 275.947421 119.142079 
L 276.388525 113.064353 
L 276.829628 113.037195 
L 277.270732 119.438758 
L 277.711836 115.06627 
L 278.15294 112.989106 
L 278.594043 120.563926 
L 279.035147 124.237015 
L 279.476251 112.932315 
L 279.917354 141.520303 
L 280.358458 137.328352 
L 280.799562 126.956208 
L 281.240666 126.368214 
L 281.681769 134.234315 
L 282.122873 123.581346 
L 282.563977 100.121627 
L 283.005081 117.006412 
L 283.446184 113.83881 
L 283.887288 106.69973 
L 284.328392 117.949352 
L 284.769496 109.93322 
L 285.210599 117.188255 
L 285.651703 112.416125 
L 286.092807 119.81132 
L 286.533911 106.896358 
L 286.975014 120.760866 
L 287.416118 120.041055 
L 287.857222 124.22942 
L 288.298326 124.947767 
L 288.739429 96.731107 
L 289.180533 123.165526 
L 289.621637 100.37439 
L 290.06274 109.290683 
L 290.503844 134.015179 
L 290.944948 112.81288 
L 291.386052 109.316143 
L 291.827155 94.163534 
L 292.268259 111.533553 
L 292.709363 115.223052 
L 293.150467 113.374081 
L 293.59157 128.113171 
L 294.032674 112.18597 
L 294.473778 114.426827 
L 295.355985 127.949929 
L 295.797089 124.605671 
L 296.238193 119.727999 
L 296.679297 125.780946 
L 297.1204 123.511879 
L 297.561504 118.120268 
L 298.002608 131.866963 
L 298.443712 103.818876 
L 298.884815 132.433567 
L 299.325919 121.781273 
L 299.767023 123.349045 
L 300.208126 110.589318 
L 300.64923 119.439076 
L 301.090334 104.297367 
L 301.531438 122.227663 
L 301.972541 105.342194 
L 302.413645 116.632337 
L 302.854749 111.777448 
L 303.295853 114.744704 
L 303.736956 113.997516 
L 304.17806 117.718801 
L 304.619164 115.535253 
L 305.060268 100.50107 
L 305.501371 125.010108 
L 305.942475 129.228541 
L 306.383579 117.802129 
L 306.824683 120.474003 
L 307.265786 119.130677 
L 307.70689 137.114481 
L 308.147994 124.205048 
L 308.589098 121.780831 
L 309.030201 133.673085 
L 309.471305 120.615258 
L 309.912409 132.993421 
L 310.353512 122.204223 
L 310.794616 125.919155 
L 311.23572 127.813001 
L 311.676824 141.325069 
L 312.117927 130.516114 
L 312.559031 143.02269 
L 313.000135 137.378144 
L 313.441239 129.898852 
L 313.882342 118.404228 
L 314.323446 116.055348 
L 314.76455 129.466298 
L 315.205654 135.403395 
L 315.646757 134.441758 
L 316.087861 131.450233 
L 316.528965 139.229775 
L 316.970069 131.680404 
L 317.411172 142.2024 
L 317.852276 137.889725 
L 318.29338 131.519782 
L 318.734484 132.110405 
L 319.175587 137.386717 
L 319.616691 130.000983 
L 320.057795 125.234058 
L 320.498898 132.145354 
L 320.940002 135.586016 
L 321.381106 128.754864 
L 321.82221 133.316074 
L 322.263313 134.878188 
L 322.704417 126.362195 
L 323.586625 138.992542 
L 324.027728 150.253881 
L 324.468832 142.580171 
L 324.909936 139.69117 
L 325.35104 129.042087 
L 325.792143 129.845247 
L 326.233247 122.625236 
L 326.674351 162.444224 
L 327.115455 125.373222 
L 327.556558 129.482657 
L 327.997662 142.331363 
L 328.438766 121.074961 
L 329.320973 142.375077 
L 329.762077 141.329668 
L 330.203181 140.93139 
L 330.644284 140.324479 
L 331.085388 134.50489 
L 331.526492 130.529501 
L 331.967596 134.520925 
L 332.408699 135.318655 
L 332.849803 126.860609 
L 333.290907 122.09039 
L 333.732011 128.92902 
L 334.173114 128.339293 
L 334.614218 128.56843 
L 335.055322 133.741388 
L 335.496426 135.586804 
L 335.937529 132.461163 
L 336.378633 146.429311 
L 336.819737 141.854063 
L 337.260841 149.017842 
L 337.701944 138.160683 
L 338.143048 142.494331 
L 338.584152 135.692642 
L 339.025255 144.017619 
L 339.466359 133.757141 
L 339.907463 134.491348 
L 340.348567 123.469841 
L 340.78967 140.877204 
L 341.230774 135.358832 
L 341.671878 119.328371 
L 342.112982 132.498265 
L 342.554085 117.633183 
L 342.995189 110.823883 
L 343.436293 135.565961 
L 343.877397 123.18695 
L 344.3185 126.888086 
L 344.759604 147.851598 
L 345.200708 152.022141 
L 345.641812 150.546917 
L 346.082915 138.585889 
L 346.524019 120.169732 
L 346.965123 123.170293 
L 347.406227 131.340689 
L 347.84733 133.29965 
L 348.288434 140.427311 
L 348.729538 144.333372 
L 349.170641 149.479097 
L 349.611745 132.329164 
L 350.052849 142.952992 
L 350.493953 149.428618 
L 350.935056 151.574471 
L 351.37616 154.569024 
L 351.817264 143.728879 
L 352.258368 151.939473 
L 352.699471 148.080274 
L 353.140575 146.187011 
L 353.581679 164.494563 
L 354.022783 149.179655 
L 354.463886 161.622627 
L 354.90499 150.729861 
L 355.346094 161.522712 
L 355.787198 167.158548 
L 356.669405 152.988851 
L 357.110509 150.860709 
L 357.551613 141.174371 
L 357.992716 152.708366 
L 358.43382 153.184431 
L 358.874924 140.164559 
L 359.316027 143.230295 
L 359.757131 158.460271 
L 360.198235 154.289894 
L 360.639339 158.891632 
L 361.080442 161.69203 
L 361.521546 167.832195 
L 361.96265 143.529906 
L 362.403754 174.106661 
L 362.844857 153.735794 
L 363.285961 160.717593 
L 363.727065 156.348261 
L 364.168169 161.178194 
L 364.609272 153.40005 
L 365.050376 157.065735 
L 365.49148 156.356044 
L 365.932584 160.392104 
L 366.373687 144.350453 
L 366.814791 150.916689 
L 367.255895 160.444255 
L 367.696998 158.154919 
L 368.138102 154.174693 
L 368.579206 147.231745 
L 369.02031 157.2834 
L 369.461413 161.615927 
L 369.902517 170.394689 
L 370.343621 152.219581 
L 370.784725 143.423625 
L 371.225828 164.35406 
L 371.666932 161.806545 
L 372.108036 148.704323 
L 372.54914 141.341851 
L 372.990243 164.717837 
L 373.431347 165.016333 
L 373.872451 165.07999 
L 374.313555 159.84049 
L 374.754658 171.659493 
L 375.195762 157.029065 
L 375.636866 169.791296 
L 376.07797 145.352905 
L 376.519073 156.347836 
L 376.960177 158.591988 
L 377.401281 157.821266 
L 377.842384 162.023889 
L 378.283488 168.012254 
L 378.724592 169.343151 
L 379.165696 176.000598 
L 379.606799 161.458238 
L 380.047903 182.069725 
L 380.489007 175.857023 
L 380.930111 161.678672 
L 381.371214 154.151285 
L 381.812318 163.853241 
L 382.253422 166.255474 
L 382.694526 164.485236 
L 383.135629 177.030119 
L 383.576733 181.844602 
L 384.017837 177.134242 
L 384.458941 162.609826 
L 384.900044 171.782378 
L 385.341148 187.464376 
L 385.782252 172.589077 
L 386.223356 151.943349 
L 386.664459 162.856834 
L 387.105563 166.16585 
L 387.546667 170.881198 
L 387.98777 194.055446 
L 388.428874 164.910223 
L 388.869978 174.54199 
L 389.311082 174.642348 
L 389.752185 168.573189 
L 390.193289 182.98752 
L 390.634393 184.724051 
L 391.075497 166.611825 
L 391.5166 173.394807 
L 391.957704 171.560538 
L 392.398808 152.804955 
L 392.839912 166.404407 
L 393.281015 167.040773 
L 393.722119 152.313103 
L 394.163223 156.655274 
L 394.604327 151.003151 
L 395.04543 157.097077 
L 395.486534 144.009225 
L 395.927638 138.679127 
L 396.368742 163.966936 
L 396.809845 160.350629 
L 397.250949 159.301033 
L 397.692053 164.993965 
L 398.133156 163.894235 
L 398.57426 169.340798 
L 399.456468 149.051954 
L 399.897571 156.968767 
L 400.338675 152.966732 
L 400.779779 162.506933 
L 401.220883 157.61002 
L 401.661986 163.11202 
L 402.10309 176.626616 
L 402.544194 174.236429 
L 402.985298 174.526721 
L 403.426401 164.429197 
L 403.867505 172.76225 
L 404.749713 182.734759 
L 405.190816 177.013569 
L 405.63192 184.139354 
L 406.073024 170.626897 
L 406.514127 180.719831 
L 406.955231 179.733916 
L 407.396335 161.838965 
L 407.837439 178.488762 
L 408.278542 177.395822 
L 409.16075 174.205618 
L 409.601854 163.873881 
L 410.042957 161.269932 
L 410.484061 187.973471 
L 410.925165 152.96559 
L 411.366269 168.825155 
L 411.807372 160.896932 
L 412.248476 156.514227 
L 412.68958 175.269638 
L 413.130684 157.988084 
L 413.571787 167.097611 
L 414.012891 166.810294 
L 414.453995 154.848347 
L 414.895099 186.310614 
L 415.336202 188.56883 
L 415.777306 160.451636 
L 416.21841 173.910259 
L 416.659513 170.908688 
L 417.100617 173.775956 
L 417.541721 163.52593 
L 417.982825 167.492925 
L 418.423928 173.40577 
L 418.865032 154.818984 
L 419.306136 152.449477 
L 419.74724 175.318767 
L 420.188343 151.562084 
L 421.070551 166.349301 
L 421.511655 170.655161 
L 421.952758 152.138587 
L 422.834966 170.364411 
L 423.27607 165.318197 
L 423.717173 166.43661 
L 424.158277 154.715004 
L 424.599381 160.318804 
L 425.040485 156.946242 
L 425.481588 151.45495 
L 425.922692 168.05308 
L 426.363796 173.762082 
L 426.804899 167.706968 
L 427.246003 176.673702 
L 427.687107 176.150102 
L 428.128211 159.042265 
L 428.569314 164.183518 
L 429.010418 162.424714 
L 429.451522 171.752266 
L 429.892626 156.016124 
L 430.333729 164.155808 
L 430.774833 168.931217 
L 431.215937 166.603404 
L 431.657041 176.963515 
L 432.098144 178.15297 
L 432.539248 161.888149 
L 432.980352 171.065343 
L 433.421456 165.525145 
L 433.862559 189.748742 
L 434.303663 175.52073 
L 434.744767 177.180216 
L 435.185871 186.930753 
L 435.626974 180.177597 
L 436.068078 154.798707 
L 436.509182 161.888673 
L 436.950285 159.528131 
L 437.391389 171.430087 
L 437.832493 173.320301 
L 438.273597 158.321678 
L 438.7147 172.880241 
L 439.155804 171.1874 
L 439.596908 163.424175 
L 440.038012 165.231634 
L 440.479115 153.108636 
L 440.920219 174.071092 
L 441.361323 144.181835 
L 441.802427 156.045739 
L 442.24353 163.720276 
L 442.684634 165.865554 
L 443.125738 154.595271 
L 443.566842 177.233028 
L 444.007945 166.82972 
L 444.449049 164.284553 
L 444.890153 157.447865 
L 445.331257 167.312039 
L 445.77236 164.168989 
L 446.213464 158.059887 
L 446.654568 179.633933 
L 447.095671 158.319076 
L 447.536775 170.430113 
L 447.977879 156.800157 
L 448.418983 156.147894 
L 448.860086 161.985927 
L 449.742294 182.720586 
L 450.183398 180.184626 
L 450.624501 174.087308 
L 451.065605 162.062013 
L 451.506709 173.560239 
L 451.947813 181.633288 
L 452.388916 169.94184 
L 452.83002 175.447603 
L 453.271124 183.458069 
L 453.712228 178.330528 
L 454.153331 179.539022 
L 454.594435 172.324285 
L 455.035539 179.090713 
L 455.476642 171.799026 
L 455.917746 173.164088 
L 456.35885 188.16143 
L 456.799954 173.004862 
L 457.241057 172.462087 
L 457.682161 178.243913 
L 458.123265 176.963019 
L 459.005472 159.005523 
L 459.446576 183.251768 
L 459.88768 182.164418 
L 460.328784 165.964652 
L 460.769887 172.003445 
L 461.210991 164.339712 
L 461.652095 154.416127 
L 462.093199 164.500623 
L 462.534302 171.82731 
L 462.975406 170.20046 
L 463.41651 151.624827 
L 463.857614 174.196569 
L 464.298717 157.922704 
L 464.739821 164.963883 
L 465.180925 165.768726 
L 465.622028 161.721416 
L 466.063132 150.206426 
L 466.504236 158.232667 
L 466.94534 159.018646 
L 467.386443 167.9507 
L 467.827547 161.352581 
L 468.268651 150.688023 
L 468.709755 163.109566 
L 469.150858 160.50664 
L 469.591962 167.879033 
L 470.033066 180.507102 
L 470.47417 155.178647 
L 470.915273 166.807252 
L 471.356377 175.055808 
L 471.797481 150.097486 
L 472.238585 141.754374 
L 472.679688 171.306098 
L 473.120792 160.341124 
L 473.561896 158.273838 
L 474.003 145.541163 
L 474.444103 162.695933 
L 474.885207 160.327832 
L 475.326311 157.015717 
L 475.767414 159.227369 
L 476.208518 165.785037 
L 476.649622 150.729868 
L 477.090726 157.933329 
L 477.531829 171.732514 
L 477.972933 147.765815 
L 478.414037 159.327567 
L 478.855141 156.707078 
L 479.296244 153.231573 
L 479.737348 147.906385 
L 480.178452 167.014135 
L 480.619556 167.358477 
L 481.060659 151.351632 
L 481.501763 144.087277 
L 481.942867 154.684031 
L 482.383971 149.989234 
L 482.825074 143.243137 
L 483.266178 144.957351 
L 483.707282 151.690462 
L 484.148386 147.375715 
L 484.589489 146.526942 
L 485.030593 159.818682 
L 485.471697 159.961255 
L 485.9128 163.520712 
L 486.353904 147.388686 
L 486.795008 167.109195 
L 487.677215 157.051464 
L 488.118319 148.266683 
L 488.559423 156.505886 
L 489.000527 157.853085 
L 489.44163 174.54661 
L 489.882734 157.605751 
L 490.323838 165.196982 
L 490.764942 159.562599 
L 491.206045 139.19908 
L 491.647149 148.062845 
L 492.088253 165.950367 
L 492.529357 170.49555 
L 492.97046 154.778129 
L 493.411564 161.911388 
L 493.852668 160.020316 
L 494.293771 151.473815 
L 495.175979 164.987743 
L 495.617083 148.392673 
L 496.058186 169.912354 
L 496.49929 148.134961 
L 496.940394 161.119259 
L 497.381498 163.300519 
L 497.822601 157.522901 
L 498.263705 155.051234 
L 498.704809 166.739286 
L 499.145913 166.399553 
L 499.587016 157.081178 
L 500.02812 166.175936 
L 500.469224 163.157837 
L 500.910328 175.796175 
L 501.351431 164.541382 
L 501.792535 160.64519 
L 502.233639 168.140008 
L 502.674743 172.926408 
L 503.115846 152.07232 
L 503.55695 152.795992 
L 503.998054 145.120717 
L 504.439157 164.02813 
L 504.880261 165.31966 
L 505.321365 157.063538 
L 505.762469 161.534709 
L 506.203572 162.473779 
L 506.644676 152.906427 
L 507.08578 161.104114 
L 507.526884 152.775982 
L 507.967987 176.246875 
L 508.409091 162.434263 
L 508.850195 164.492773 
L 509.291299 163.694161 
L 509.732402 176.718277 
L 510.173506 153.949978 
L 510.61461 156.384953 
L 511.055714 150.669866 
L 511.496817 151.778941 
L 511.937921 154.975679 
L 512.379025 156.709191 
L 512.820129 167.558246 
L 513.261232 168.475588 
L 513.702336 163.525224 
L 514.14344 160.820668 
L 514.584543 164.106984 
L 515.025647 158.586982 
L 515.907855 144.02677 
L 516.348958 169.686871 
L 517.231166 147.561647 
L 517.67227 161.223788 
L 518.113373 152.465822 
L 518.995581 163.884425 
L 519.436685 148.66457 
L 519.877788 159.487763 
L 520.318892 148.58341 
L 520.759996 169.882185 
L 521.2011 162.440257 
L 521.642203 172.893986 
L 522.083307 159.070482 
L 522.524411 159.383054 
L 522.965515 160.09685 
L 523.406618 158.025717 
L 523.847722 166.302792 
L 524.288826 166.503671 
L 524.729929 166.472612 
L 525.171033 168.595137 
L 525.612137 165.577176 
L 526.053241 139.809884 
L 526.494344 155.97396 
L 526.935448 151.373786 
L 527.376552 153.8911 
L 527.817656 145.186049 
L 528.699863 162.257971 
L 528.699863 162.257971 
" clip-path="url(#p2818abc6d1)" style="fill: none; stroke: #000000; stroke-width: 0.7; stroke-linecap: round"/>
   </g>
   <g id="line2d_18">
    <path d="M 109.210208 86.575749 
L 109.651311 86.177329 
L 110.533519 86.225478 
L 111.415726 85.749556 
L 112.739038 85.230563 
L 113.180141 85.30857 
L 113.621245 85.065851 
L 114.062349 84.651815 
L 114.503452 84.445094 
L 115.826764 85.268007 
L 116.708971 86.134329 
L 117.591179 86.916056 
L 118.032282 87.270368 
L 118.91449 87.398966 
L 119.355594 87.618822 
L 119.796697 87.559132 
L 120.678905 88.085111 
L 121.561112 88.453237 
L 122.002216 89.046641 
L 122.44332 89.190401 
L 124.207735 88.774037 
L 126.854357 89.364914 
L 127.736565 89.017693 
L 128.618772 88.885496 
L 129.059876 89.233891 
L 129.942083 89.157828 
L 130.824291 88.276754 
L 131.265395 88.427649 
L 132.147602 88.318629 
L 132.588706 88.303022 
L 133.470913 88.689903 
L 134.353121 89.151132 
L 134.794224 89.313552 
L 135.235328 89.113058 
L 136.117536 90.335825 
L 137.440847 91.65258 
L 137.881951 91.936161 
L 138.323054 92.03242 
L 139.205262 92.681314 
L 140.087469 93.392373 
L 140.528573 93.986281 
L 140.969677 93.994616 
L 141.410781 94.226644 
L 141.851884 94.646777 
L 143.616299 94.082734 
L 144.057403 94.186061 
L 144.498507 94.084839 
L 145.380714 94.235649 
L 145.821818 94.785643 
L 146.262922 95.06889 
L 147.586233 94.345904 
L 148.027337 94.294597 
L 150.232855 94.772946 
L 151.115063 94.488987 
L 151.99727 95.08587 
L 152.438374 95.191207 
L 152.879478 95.709665 
L 154.202789 96.40777 
L 154.643893 96.416587 
L 155.084996 96.635567 
L 155.967204 96.597702 
L 156.408308 96.797666 
L 157.290515 97.406822 
L 160.819345 95.960096 
L 161.701553 95.119094 
L 162.142656 94.84314 
L 162.58376 94.842971 
L 163.024864 95.623299 
L 164.348175 96.786529 
L 165.230382 97.878558 
L 165.671486 98.192703 
L 167.435901 98.632103 
L 167.877005 98.321603 
L 168.318109 98.159044 
L 168.759212 98.282211 
L 169.64142 99.515197 
L 170.964731 99.553668 
L 172.288042 101.800204 
L 172.729146 101.846863 
L 173.17025 102.050759 
L 174.052457 103.01502 
L 174.493561 103.988768 
L 174.934665 104.633486 
L 175.375768 104.966057 
L 176.257976 105.269127 
L 177.140183 105.68333 
L 178.022391 105.91446 
L 178.463495 106.236765 
L 178.904598 106.093819 
L 179.345702 106.271664 
L 180.22791 107.371404 
L 180.669013 107.787504 
L 181.992325 108.44709 
L 182.433428 108.937815 
L 183.315636 109.561361 
L 183.756739 109.522736 
L 184.197843 109.658839 
L 184.638947 109.41008 
L 185.080051 108.884632 
L 185.521154 108.790246 
L 185.962258 108.866268 
L 186.403362 109.360183 
L 186.844466 109.425261 
L 187.285569 109.632861 
L 188.608881 110.899535 
L 189.049984 110.931464 
L 189.491088 111.279008 
L 190.373296 111.582336 
L 190.814399 112.11233 
L 191.255503 111.865097 
L 191.696607 111.92168 
L 192.137711 112.23893 
L 192.578814 112.827298 
L 193.019918 113.193225 
L 193.461022 113.157126 
L 194.343229 112.695108 
L 194.784333 113.014278 
L 195.225437 113.123595 
L 196.107644 112.806497 
L 196.548748 112.521705 
L 196.989852 112.415508 
L 198.313163 112.86797 
L 198.754267 113.358604 
L 199.19537 113.4937 
L 199.636474 114.054814 
L 200.077578 114.217494 
L 200.518682 113.82432 
L 200.959785 113.821435 
L 201.400889 113.644262 
L 201.841993 113.131057 
L 203.165304 112.479747 
L 204.047511 112.507605 
L 204.488615 112.208816 
L 205.370823 112.28602 
L 205.811926 112.561361 
L 206.694134 112.177968 
L 207.135238 112.260004 
L 207.576341 112.105816 
L 208.458549 111.192992 
L 208.899653 111.016118 
L 209.340756 110.516692 
L 210.664068 109.622704 
L 211.105171 109.726327 
L 211.987379 109.22903 
L 212.428482 109.444892 
L 212.869586 109.209855 
L 213.31069 109.209259 
L 214.192897 108.615259 
L 214.634001 108.035104 
L 215.075105 108.013994 
L 215.516209 107.547807 
L 215.957312 107.371971 
L 217.721727 105.962463 
L 218.162831 105.752636 
L 218.603935 105.401132 
L 219.045039 105.239575 
L 219.486142 104.804251 
L 219.927246 104.688039 
L 220.36835 104.691053 
L 220.809454 104.127244 
L 221.691661 103.623694 
L 222.132765 103.451133 
L 223.456076 103.917548 
L 224.338283 103.937986 
L 224.779387 103.717468 
L 225.220491 103.984142 
L 226.102698 103.897543 
L 226.984906 103.580211 
L 227.867113 103.161477 
L 228.749321 103.384764 
L 230.072632 103.132494 
L 231.395943 103.513011 
L 232.278151 103.466619 
L 232.719254 103.625448 
L 233.160358 104.040115 
L 233.601462 104.276213 
L 234.042566 104.84997 
L 234.483669 104.910158 
L 235.365877 105.338568 
L 236.248084 106.219744 
L 236.689188 106.487889 
L 237.130292 106.533386 
L 237.571396 106.849783 
L 238.012499 106.772952 
L 238.894707 107.477133 
L 240.218018 108.166317 
L 240.659122 108.682643 
L 241.100225 108.889457 
L 241.541329 109.311501 
L 245.070159 111.156797 
L 245.952367 110.905488 
L 246.834574 110.811774 
L 247.275678 110.587134 
L 247.716782 110.679943 
L 248.157885 110.517129 
L 248.598989 110.583352 
L 249.040093 110.518478 
L 249.481197 110.85495 
L 249.9223 111.430933 
L 250.363404 111.397954 
L 251.686715 112.456501 
L 253.010026 113.463766 
L 254.333338 113.61603 
L 254.774441 113.54847 
L 255.215545 113.35817 
L 255.656649 113.550794 
L 256.097753 113.332464 
L 256.538856 113.363635 
L 256.97996 113.146636 
L 257.421064 113.318366 
L 258.303271 113.222607 
L 259.185479 113.269035 
L 260.949894 114.321739 
L 261.390997 114.340151 
L 261.832101 114.564625 
L 262.273205 114.624069 
L 263.155412 114.928485 
L 263.596516 114.964864 
L 264.478724 114.800388 
L 265.802035 116.353059 
L 266.243139 116.670047 
L 267.56645 118.214521 
L 268.007554 118.542389 
L 269.330865 118.858266 
L 270.213072 119.190057 
L 270.654176 119.221519 
L 271.09528 119.50315 
L 272.418591 119.485737 
L 274.62411 119.645794 
L 275.065213 119.454174 
L 275.506317 119.534567 
L 276.829628 120.020096 
L 277.270732 120.155339 
L 277.711836 120.045229 
L 278.594043 120.256946 
L 279.035147 120.646801 
L 279.476251 120.44523 
L 279.917354 120.981239 
L 280.799562 121.576162 
L 281.681769 121.892639 
L 282.122873 122.047018 
L 282.563977 121.693663 
L 284.328392 121.279382 
L 284.769496 120.898264 
L 285.651703 120.585334 
L 286.092807 120.693329 
L 287.857222 119.106987 
L 288.298326 118.95978 
L 288.739429 118.014302 
L 289.180533 117.690527 
L 289.621637 117.13297 
L 290.06274 116.932429 
L 290.503844 117.494166 
L 291.386052 117.758974 
L 291.827155 117.229973 
L 292.268259 117.21483 
L 292.709363 117.338277 
L 293.150467 117.296388 
L 293.59157 117.515874 
L 294.032674 117.222741 
L 294.914882 117.046902 
L 295.355985 117.276826 
L 297.1204 117.641588 
L 297.561504 117.744519 
L 298.002608 117.999017 
L 298.443712 117.814107 
L 298.884815 118.202034 
L 299.325919 118.248885 
L 299.767023 118.41454 
L 300.64923 118.344047 
L 301.090334 117.945255 
L 301.531438 118.131161 
L 301.972541 117.407599 
L 302.854749 116.690104 
L 303.295853 116.457634 
L 303.736956 116.052898 
L 304.17806 115.935647 
L 304.619164 116.243919 
L 305.060268 115.913812 
L 305.501371 116.137238 
L 305.942475 116.587815 
L 306.383579 116.58487 
L 306.824683 116.795686 
L 307.265786 116.834534 
L 307.70689 117.328501 
L 308.147994 117.416376 
L 309.030201 117.97231 
L 309.471305 117.983794 
L 309.912409 118.159074 
L 310.353512 118.104203 
L 310.794616 118.687964 
L 311.23572 118.780913 
L 311.676824 119.599927 
L 312.117927 120.024436 
L 312.559031 120.204586 
L 313.882342 121.592359 
L 314.323446 121.682795 
L 314.76455 121.96766 
L 315.205654 122.408246 
L 315.646757 122.534818 
L 316.970069 123.639709 
L 318.29338 124.426275 
L 318.734484 124.552864 
L 319.616691 125.067975 
L 320.057795 124.935317 
L 320.498898 125.501846 
L 321.381106 125.704367 
L 321.82221 125.903708 
L 322.263313 126.389485 
L 322.704417 126.527948 
L 323.145521 127.105812 
L 323.586625 127.44111 
L 324.027728 128.339344 
L 324.909936 129.416575 
L 325.792143 130.019477 
L 326.233247 130.117606 
L 326.674351 131.055785 
L 327.115455 131.553228 
L 327.556558 131.642679 
L 327.997662 131.904736 
L 328.438766 131.970192 
L 328.879869 132.190712 
L 329.320973 132.6556 
L 329.762077 132.739903 
L 330.644284 133.445303 
L 331.085388 133.461939 
L 331.526492 133.660224 
L 331.967596 133.690774 
L 332.408699 133.953063 
L 332.849803 133.971892 
L 333.290907 133.85744 
L 333.732011 133.609519 
L 334.173114 133.565982 
L 334.614218 133.276897 
L 335.055322 133.204162 
L 335.496426 133.317921 
L 335.937529 133.59906 
L 336.378633 134.206539 
L 337.260841 134.726583 
L 337.701944 134.800962 
L 338.143048 135.021844 
L 338.584152 134.951101 
L 339.025255 135.197845 
L 340.348567 134.799974 
L 340.78967 134.97531 
L 341.230774 134.934752 
L 341.671878 134.7213 
L 342.112982 134.866584 
L 342.554085 134.576341 
L 342.995189 134.081098 
L 343.436293 134.21732 
L 344.3185 133.854935 
L 345.200708 134.661354 
L 345.641812 134.892442 
L 346.082915 134.659082 
L 346.965123 133.880456 
L 347.84733 133.995516 
L 348.288434 134.351557 
L 348.729538 133.98934 
L 349.170641 134.471458 
L 350.052849 134.54082 
L 350.935056 135.509383 
L 351.37616 135.753262 
L 351.817264 135.801247 
L 353.140575 136.410167 
L 353.581679 137.089468 
L 354.022783 137.382642 
L 354.90499 138.386107 
L 356.228301 140.555603 
L 357.110509 141.386398 
L 357.551613 141.49815 
L 357.992716 141.903094 
L 358.43382 142.038196 
L 359.316027 141.888655 
L 359.757131 142.294647 
L 360.198235 142.530558 
L 361.521546 144.029527 
L 361.96265 144.210298 
L 362.403754 145.223035 
L 362.844857 145.480207 
L 363.285961 145.987382 
L 365.050376 148.941552 
L 365.49148 149.357354 
L 365.932584 150.101457 
L 366.373687 150.450705 
L 367.255895 150.680449 
L 367.696998 150.832609 
L 368.138102 151.144385 
L 369.02031 152.367887 
L 369.902517 153.715293 
L 370.343621 153.951138 
L 370.784725 153.932943 
L 371.225828 154.230442 
L 371.666932 154.81999 
L 372.108036 154.935017 
L 372.54914 154.773281 
L 374.313555 155.830137 
L 374.754658 156.301722 
L 375.636866 156.624497 
L 376.519073 156.442467 
L 376.960177 156.599709 
L 377.842384 156.422987 
L 378.283488 156.600187 
L 378.724592 156.927273 
L 380.930111 159.306709 
L 382.253422 159.8723 
L 382.694526 159.984172 
L 383.576733 160.571182 
L 384.017837 161.243269 
L 384.458941 161.013332 
L 384.900044 161.374264 
L 385.341148 161.909199 
L 385.782252 162.234016 
L 386.223356 162.049319 
L 387.546667 162.71096 
L 387.98777 163.384227 
L 389.311082 164.55189 
L 389.752185 164.760255 
L 390.634393 166.086358 
L 391.957704 166.531821 
L 392.398808 166.543529 
L 392.839912 167.003144 
L 393.281015 167.056878 
L 393.722119 166.86701 
L 394.604327 167.219255 
L 395.04543 167.066839 
L 395.927638 166.11868 
L 396.368742 166.201209 
L 396.809845 165.975032 
L 397.250949 166.020471 
L 397.692053 165.924524 
L 398.57426 166.55521 
L 399.015364 166.568335 
L 400.779779 165.854211 
L 401.220883 165.4864 
L 401.661986 165.519476 
L 402.544194 165.378201 
L 403.426401 165.840721 
L 404.308609 166.256962 
L 404.749713 166.621953 
L 406.073024 166.53737 
L 406.514127 166.89957 
L 406.955231 167.058601 
L 407.396335 166.546092 
L 407.837439 166.664086 
L 408.278542 167.173136 
L 409.16075 167.589482 
L 409.601854 167.449335 
L 410.042957 166.793625 
L 410.484061 167.25489 
L 410.925165 166.823362 
L 411.807372 166.553493 
L 412.248476 166.024027 
L 413.571787 165.53652 
L 414.012891 165.441515 
L 414.453995 165.482383 
L 415.336202 166.311069 
L 415.777306 166.473839 
L 417.541721 167.940961 
L 417.982825 168.517237 
L 418.423928 168.706014 
L 419.306136 168.45835 
L 419.74724 168.664846 
L 420.629447 168.216803 
L 421.070551 168.358825 
L 421.511655 168.790889 
L 421.952758 168.694285 
L 423.27607 169.189579 
L 423.717173 169.256071 
L 424.158277 168.817838 
L 425.922692 167.834208 
L 426.363796 167.746279 
L 426.804899 167.445723 
L 427.246003 167.438926 
L 428.128211 167.047448 
L 429.010418 166.370538 
L 429.451522 166.568804 
L 429.892626 166.119351 
L 430.333729 165.854551 
L 431.215937 165.568443 
L 432.098144 166.167897 
L 432.539248 165.64619 
L 432.980352 166.008185 
L 433.421456 165.942185 
L 433.862559 166.519221 
L 434.303663 166.899351 
L 434.744767 166.937563 
L 435.185871 167.516416 
L 435.626974 167.778016 
L 436.068078 167.537784 
L 436.509182 167.678591 
L 436.950285 167.142941 
L 437.391389 166.800166 
L 437.832493 167.05754 
L 438.273597 166.745768 
L 439.155804 166.733428 
L 440.038012 166.686167 
L 440.479115 166.280224 
L 440.920219 166.665266 
L 441.361323 166.499914 
L 441.802427 166.114453 
L 442.684634 166.489512 
L 443.125738 166.254431 
L 443.566842 166.385989 
L 444.007945 166.679811 
L 444.449049 166.722187 
L 444.890153 166.463856 
L 446.213464 166.525278 
L 446.654568 166.911581 
L 447.095671 166.939038 
L 447.536775 167.318541 
L 447.977879 167.093482 
L 448.418983 166.741199 
L 449.30119 166.543299 
L 449.742294 166.674709 
L 450.183398 167.097556 
L 450.624501 167.295632 
L 451.506709 167.324537 
L 451.947813 167.83688 
L 452.83002 168.082929 
L 453.271124 168.420022 
L 454.153331 168.475083 
L 455.035539 168.844313 
L 455.476642 168.969791 
L 455.917746 168.638098 
L 456.35885 168.890912 
L 456.799954 168.807405 
L 457.241057 168.518032 
L 457.682161 168.479358 
L 458.123265 168.922644 
L 458.564369 169.031202 
L 459.005472 169.02075 
L 459.88768 169.434066 
L 460.328784 169.586925 
L 460.769887 169.569389 
L 462.093199 169.237654 
L 462.534302 169.612028 
L 462.975406 169.534615 
L 463.41651 169.683475 
L 463.857614 170.046492 
L 464.739821 169.912507 
L 465.180925 170.135976 
L 466.063132 169.493278 
L 466.504236 169.37224 
L 467.827547 169.360101 
L 468.268651 169.212663 
L 468.709755 168.882176 
L 469.591962 168.874906 
L 470.033066 169.349045 
L 470.47417 169.32966 
L 471.356377 169.477207 
L 472.238585 168.05614 
L 473.120792 167.966098 
L 473.561896 167.66037 
L 474.003 166.938528 
L 474.444103 166.79361 
L 474.885207 166.491214 
L 475.767414 165.580304 
L 476.208518 165.305224 
L 477.090726 164.450188 
L 477.531829 164.448858 
L 478.855141 163.03826 
L 479.296244 162.653649 
L 479.737348 162.046899 
L 480.178452 161.847921 
L 480.619556 161.848759 
L 481.060659 161.695681 
L 481.501763 160.912392 
L 481.942867 160.362784 
L 482.383971 160.043276 
L 482.825074 159.468069 
L 483.266178 159.080422 
L 483.707282 159.025909 
L 484.148386 158.683411 
L 484.589489 158.177403 
L 485.030593 157.969768 
L 485.471697 158.136496 
L 486.353904 157.712299 
L 487.236112 157.692243 
L 488.559423 157.525514 
L 489.000527 157.502203 
L 489.44163 157.634121 
L 489.882734 157.559184 
L 490.323838 157.849364 
L 490.764942 157.778424 
L 491.647149 156.955949 
L 492.088253 156.664815 
L 492.529357 156.971153 
L 493.411564 156.467682 
L 494.293771 156.860527 
L 494.734875 156.604003 
L 495.175979 156.696935 
L 495.617083 156.499312 
L 496.058186 156.986736 
L 496.49929 156.695516 
L 497.822601 156.802952 
L 498.263705 156.588276 
L 498.704809 156.908464 
L 499.145913 157.077788 
L 499.587016 156.784762 
L 500.02812 157.152964 
L 500.469224 157.22957 
L 500.910328 157.611352 
L 501.792535 158.092324 
L 503.115846 158.240614 
L 503.55695 158.414788 
L 503.998054 158.223522 
L 504.439157 158.5043 
L 504.880261 158.94583 
L 506.644676 159.81439 
L 507.08578 159.840098 
L 507.526884 159.696393 
L 508.409091 160.251828 
L 509.291299 160.22097 
L 509.732402 160.614306 
L 510.173506 160.727972 
L 510.61461 160.725553 
L 511.055714 160.581889 
L 511.496817 160.126535 
L 511.937921 160.073934 
L 512.379025 159.904178 
L 512.820129 160.064091 
L 513.261232 160.649621 
L 513.702336 160.958869 
L 514.584543 160.728503 
L 515.025647 160.80468 
L 515.907855 160.257442 
L 516.348958 160.621703 
L 516.790062 160.620436 
L 517.231166 160.271914 
L 517.67227 160.528536 
L 518.113373 160.179605 
L 518.554477 160.37193 
L 518.995581 160.427233 
L 519.436685 160.134514 
L 519.877788 160.173812 
L 520.318892 160.044455 
L 520.759996 160.107313 
L 521.2011 160.028127 
L 521.642203 160.344383 
L 523.406618 159.682479 
L 523.847722 159.795631 
L 524.729929 159.633828 
L 525.612137 160.219908 
L 526.494344 159.952608 
L 526.935448 159.673691 
L 527.376552 159.610242 
L 527.817656 159.283269 
L 528.258759 159.106021 
L 528.699863 159.293052 
L 528.699863 159.293052 
" clip-path="url(#p2818abc6d1)" style="fill: none; stroke-dasharray: 2.96,1.28; stroke-dashoffset: 0; stroke: #ff0000; stroke-width: 0.8"/>
   </g>
   <g id="patch_3">
    <path d="M 65.540937 200.648125 
L 65.540937 55.609187 
" style="fill: none; stroke: #ffffff; stroke-width: 1.25; stroke-linejoin: miter; stroke-linecap: square"/>
   </g>
   <g id="patch_4">
    <path d="M 550.75505 200.648125 
L 550.75505 55.609187 
" style="fill: none; stroke: #ffffff; stroke-width: 1.25; stroke-linejoin: miter; stroke-linecap: square"/>
   </g>
   <g id="patch_5">
    <path d="M 65.540938 200.648125 
L 550.75505 200.648125 
" style="fill: none; stroke: #ffffff; stroke-width: 1.25; stroke-linejoin: miter; stroke-linecap: square"/>
   </g>
   <g id="patch_6">
    <path d="M 65.540938 55.609187 
L 550.75505 55.609187 
" style="fill: none; stroke: #ffffff; stroke-width: 1.25; stroke-linejoin: miter; stroke-linecap: square"/>
   </g>
   <g id="legend_1">
    <g id="patch_7">
     <path d="M 478.915363 196.148125 
L 544.45505 196.148125 
Q 546.25505 196.148125 546.25505 194.348125 
L 546.25505 168.8275 
Q 546.25505 167.0275 544.45505 167.0275 
L 478.915363 167.0275 
Q 477.115363 167.0275 477.115363 168.8275 
L 477.115363 194.348125 
Q 477.115363 196.148125 478.915363 196.148125 
z
" style="fill: #eaeaf2; opacity: 0.8; stroke: #cccccc; stroke-linejoin: miter"/>
    </g>
    <g id="line2d_19">
     <path d="M 480.715363 174.316094 
L 489.715363 174.316094 
L 498.715363 174.316094 
" style="fill: none; stroke: #000000; stroke-width: 0.7; stroke-linecap: round"/>
    </g>
    <g id="text_19">
     <!-- TOTAL -->
     <g style="fill: #262626" transform="translate(505.915363 177.466094)scale(0.09 -0.09)">
      <defs>
       <path id="DejaVuSans-54" d="M -19 4666 
L 3928 4666 
L 3928 4134 
L 2272 4134 
L 2272 0 
L 1638 0 
L 1638 4134 
L -19 4134 
L -19 4666 
z
" transform="scale(0.015625)"/>
       <path id="DejaVuSans-4f" d="M 2522 4238 
Q 1834 4238 1429 3725 
Q 1025 3213 1025 2328 
Q 1025 1447 1429 934 
Q 1834 422 2522 422 
Q 3209 422 3611 934 
Q 4013 1447 4013 2328 
Q 4013 3213 3611 3725 
Q 3209 4238 2522 4238 
z
M 2522 4750 
Q 3503 4750 4090 4092 
Q 4678 3434 4678 2328 
Q 4678 1225 4090 567 
Q 3503 -91 2522 -91 
Q 1538 -91 948 565 
Q 359 1222 359 2328 
Q 359 3434 948 4092 
Q 1538 4750 2522 4750 
z
" transform="scale(0.015625)"/>
       <path id="DejaVuSans-41" d="M 2188 4044 
L 1331 1722 
L 3047 1722 
L 2188 4044 
z
M 1831 4666 
L 2547 4666 
L 4325 0 
L 3669 0 
L 3244 1197 
L 1141 1197 
L 716 0 
L 50 0 
L 1831 4666 
z
" transform="scale(0.015625)"/>
       <path id="DejaVuSans-4c" d="M 628 4666 
L 1259 4666 
L 1259 531 
L 3531 531 
L 3531 0 
L 628 0 
L 628 4666 
z
" transform="scale(0.015625)"/>
      </defs>
      <use xlink:href="#DejaVuSans-54"/>
      <use xlink:href="#DejaVuSans-4f" x="61.083984"/>
      <use xlink:href="#DejaVuSans-54" x="139.794922"/>
      <use xlink:href="#DejaVuSans-41" x="193.128906"/>
      <use xlink:href="#DejaVuSans-4c" x="261.537109"/>
     </g>
    </g>
    <g id="line2d_20">
     <path d="M 480.715363 187.526406 
L 489.715363 187.526406 
L 498.715363 187.526406 
" style="fill: none; stroke-dasharray: 2.96,1.28; stroke-dashoffset: 0; stroke: #ff0000; stroke-width: 0.8"/>
    </g>
    <g id="text_20">
     <!-- Mov. Av. -->
     <g style="fill: #262626" transform="translate(505.915363 190.676406)scale(0.09 -0.09)">
      <defs>
       <path id="DejaVuSans-4d" d="M 628 4666 
L 1569 4666 
L 2759 1491 
L 3956 4666 
L 4897 4666 
L 4897 0 
L 4281 0 
L 4281 4097 
L 3078 897 
L 2444 897 
L 1241 4097 
L 1241 0 
L 628 0 
L 628 4666 
z
" transform="scale(0.015625)"/>
       <path id="DejaVuSans-76" d="M 191 3500 
L 800 3500 
L 1894 563 
L 2988 3500 
L 3597 3500 
L 2284 0 
L 1503 0 
L 191 3500 
z
" transform="scale(0.015625)"/>
       <path id="DejaVuSans-2e" d="M 684 794 
L 1344 794 
L 1344 0 
L 684 0 
L 684 794 
z
" transform="scale(0.015625)"/>
      </defs>
      <use xlink:href="#DejaVuSans-4d"/>
      <use xlink:href="#DejaVuSans-6f" x="86.279297"/>
      <use xlink:href="#DejaVuSans-76" x="147.460938"/>
      <use xlink:href="#DejaVuSans-2e" x="198.890625"/>
      <use xlink:href="#DejaVuSans-20" x="230.677734"/>
      <use xlink:href="#DejaVuSans-41" x="262.464844"/>
      <use xlink:href="#DejaVuSans-76" x="324.998047"/>
      <use xlink:href="#DejaVuSans-2e" x="376.427734"/>
     </g>
    </g>
   </g>
  </g>
  <g id="text_21">
   <!-- Energetic Components -->
   <g style="fill: #262626" transform="translate(208.277656 15.605813)scale(0.14 -0.14)">
    <defs>
     <path id="DejaVuSans-74" d="M 1172 4494 
L 1172 3500 
L 2356 3500 
L 2356 3053 
L 1172 3053 
L 1172 1153 
Q 1172 725 1289 603 
Q 1406 481 1766 481 
L 2356 481 
L 2356 0 
L 1766 0 
Q 1100 0 847 248 
Q 594 497 594 1153 
L 594 3053 
L 172 3053 
L 172 3500 
L 594 3500 
L 594 4494 
L 1172 4494 
z
" transform="scale(0.015625)"/>
     <path id="DejaVuSans-69" d="M 603 3500 
L 1178 3500 
L 1178 0 
L 603 0 
L 603 3500 
z
M 603 4863 
L 1178 4863 
L 1178 4134 
L 603 4134 
L 603 4863 
z
" transform="scale(0.015625)"/>
     <path id="DejaVuSans-43" d="M 4122 4306 
L 4122 3641 
Q 3803 3938 3442 4084 
Q 3081 4231 2675 4231 
Q 1875 4231 1450 3742 
Q 1025 3253 1025 2328 
Q 1025 1406 1450 917 
Q 1875 428 2675 428 
Q 3081 428 3442 575 
Q 3803 722 4122 1019 
L 4122 359 
Q 3791 134 3420 21 
Q 3050 -91 2638 -91 
Q 1578 -91 968 557 
Q 359 1206 359 2328 
Q 359 3453 968 4101 
Q 1578 4750 2638 4750 
Q 3056 4750 3426 4639 
Q 3797 4528 4122 4306 
z
" transform="scale(0.015625)"/>
     <path id="DejaVuSans-70" d="M 1159 525 
L 1159 -1331 
L 581 -1331 
L 581 3500 
L 1159 3500 
L 1159 2969 
Q 1341 3281 1617 3432 
Q 1894 3584 2278 3584 
Q 2916 3584 3314 3078 
Q 3713 2572 3713 1747 
Q 3713 922 3314 415 
Q 2916 -91 2278 -91 
Q 1894 -91 1617 61 
Q 1341 213 1159 525 
z
M 3116 1747 
Q 3116 2381 2855 2742 
Q 2594 3103 2138 3103 
Q 1681 3103 1420 2742 
Q 1159 2381 1159 1747 
Q 1159 1113 1420 752 
Q 1681 391 2138 391 
Q 2594 391 2855 752 
Q 3116 1113 3116 1747 
z
" transform="scale(0.015625)"/>
    </defs>
    <use xlink:href="#DejaVuSans-45"/>
    <use xlink:href="#DejaVuSans-6e" x="63.183594"/>
    <use xlink:href="#DejaVuSans-65" x="126.5625"/>
    <use xlink:href="#DejaVuSans-72" x="188.085938"/>
    <use xlink:href="#DejaVuSans-67" x="227.449219"/>
    <use xlink:href="#DejaVuSans-65" x="290.925781"/>
    <use xlink:href="#DejaVuSans-74" x="352.449219"/>
    <use xlink:href="#DejaVuSans-69" x="391.658203"/>
    <use xlink:href="#DejaVuSans-63" x="419.441406"/>
    <use xlink:href="#DejaVuSans-20" x="474.421875"/>
    <use xlink:href="#DejaVuSans-43" x="506.208984"/>
    <use xlink:href="#DejaVuSans-6f" x="576.033203"/>
    <use xlink:href="#DejaVuSans-6d" x="637.214844"/>
    <use xlink:href="#DejaVuSans-70" x="734.626953"/>
    <use xlink:href="#DejaVuSans-6f" x="798.103516"/>
    <use xlink:href="#DejaVuSans-6e" x="859.285156"/>
    <use xlink:href="#DejaVuSans-65" x="922.664062"/>
    <use xlink:href="#DejaVuSans-6e" x="984.1875"/>
    <use xlink:href="#DejaVuSans-74" x="1047.566406"/>
    <use xlink:href="#DejaVuSans-73" x="1086.775391"/>
   </g>
   <!-- System-1 | Normal | GB | Delta | TOTAL -->
   <g style="fill: #262626" transform="translate(151.249531 31.35625)scale(0.14 -0.14)">
    <defs>
     <path id="DejaVuSans-53" d="M 3425 4513 
L 3425 3897 
Q 3066 4069 2747 4153 
Q 2428 4238 2131 4238 
Q 1616 4238 1336 4038 
Q 1056 3838 1056 3469 
Q 1056 3159 1242 3001 
Q 1428 2844 1947 2747 
L 2328 2669 
Q 3034 2534 3370 2195 
Q 3706 1856 3706 1288 
Q 3706 609 3251 259 
Q 2797 -91 1919 -91 
Q 1588 -91 1214 -16 
Q 841 59 441 206 
L 441 856 
Q 825 641 1194 531 
Q 1563 422 1919 422 
Q 2459 422 2753 634 
Q 3047 847 3047 1241 
Q 3047 1584 2836 1778 
Q 2625 1972 2144 2069 
L 1759 2144 
Q 1053 2284 737 2584 
Q 422 2884 422 3419 
Q 422 4038 858 4394 
Q 1294 4750 2059 4750 
Q 2388 4750 2728 4690 
Q 3069 4631 3425 4513 
z
" transform="scale(0.015625)"/>
     <path id="DejaVuSans-2d" d="M 313 2009 
L 1997 2009 
L 1997 1497 
L 313 1497 
L 313 2009 
z
" transform="scale(0.015625)"/>
     <path id="DejaVuSans-7c" d="M 1344 4891 
L 1344 -1509 
L 813 -1509 
L 813 4891 
L 1344 4891 
z
" transform="scale(0.015625)"/>
     <path id="DejaVuSans-4e" d="M 628 4666 
L 1478 4666 
L 3547 763 
L 3547 4666 
L 4159 4666 
L 4159 0 
L 3309 0 
L 1241 3903 
L 1241 0 
L 628 0 
L 628 4666 
z
" transform="scale(0.015625)"/>
     <path id="DejaVuSans-47" d="M 3809 666 
L 3809 1919 
L 2778 1919 
L 2778 2438 
L 4434 2438 
L 4434 434 
Q 4069 175 3628 42 
Q 3188 -91 2688 -91 
Q 1594 -91 976 548 
Q 359 1188 359 2328 
Q 359 3472 976 4111 
Q 1594 4750 2688 4750 
Q 3144 4750 3555 4637 
Q 3966 4525 4313 4306 
L 4313 3634 
Q 3963 3931 3569 4081 
Q 3175 4231 2741 4231 
Q 1884 4231 1454 3753 
Q 1025 3275 1025 2328 
Q 1025 1384 1454 906 
Q 1884 428 2741 428 
Q 3075 428 3337 486 
Q 3600 544 3809 666 
z
" transform="scale(0.015625)"/>
     <path id="DejaVuSans-42" d="M 1259 2228 
L 1259 519 
L 2272 519 
Q 2781 519 3026 730 
Q 3272 941 3272 1375 
Q 3272 1813 3026 2020 
Q 2781 2228 2272 2228 
L 1259 2228 
z
M 1259 4147 
L 1259 2741 
L 2194 2741 
Q 2656 2741 2882 2914 
Q 3109 3088 3109 3444 
Q 3109 3797 2882 3972 
Q 2656 4147 2194 4147 
L 1259 4147 
z
M 628 4666 
L 2241 4666 
Q 2963 4666 3353 4366 
Q 3744 4066 3744 3513 
Q 3744 3084 3544 2831 
Q 3344 2578 2956 2516 
Q 3422 2416 3680 2098 
Q 3938 1781 3938 1306 
Q 3938 681 3513 340 
Q 3088 0 2303 0 
L 628 0 
L 628 4666 
z
" transform="scale(0.015625)"/>
     <path id="DejaVuSans-44" d="M 1259 4147 
L 1259 519 
L 2022 519 
Q 2988 519 3436 956 
Q 3884 1394 3884 2338 
Q 3884 3275 3436 3711 
Q 2988 4147 2022 4147 
L 1259 4147 
z
M 628 4666 
L 1925 4666 
Q 3281 4666 3915 4102 
Q 4550 3538 4550 2338 
Q 4550 1131 3912 565 
Q 3275 0 1925 0 
L 628 0 
L 628 4666 
z
" transform="scale(0.015625)"/>
    </defs>
    <use xlink:href="#DejaVuSans-53"/>
    <use xlink:href="#DejaVuSans-79" x="63.476562"/>
    <use xlink:href="#DejaVuSans-73" x="122.65625"/>
    <use xlink:href="#DejaVuSans-74" x="174.755859"/>
    <use xlink:href="#DejaVuSans-65" x="213.964844"/>
    <use xlink:href="#DejaVuSans-6d" x="275.488281"/>
    <use xlink:href="#DejaVuSans-2d" x="372.900391"/>
    <use xlink:href="#DejaVuSans-31" x="408.984375"/>
    <use xlink:href="#DejaVuSans-20" x="472.607422"/>
    <use xlink:href="#DejaVuSans-7c" x="504.394531"/>
    <use xlink:href="#DejaVuSans-20" x="538.085938"/>
    <use xlink:href="#DejaVuSans-4e" x="569.873047"/>
    <use xlink:href="#DejaVuSans-6f" x="644.677734"/>
    <use xlink:href="#DejaVuSans-72" x="705.859375"/>
    <use xlink:href="#DejaVuSans-6d" x="745.222656"/>
    <use xlink:href="#DejaVuSans-61" x="842.634766"/>
    <use xlink:href="#DejaVuSans-6c" x="903.914062"/>
    <use xlink:href="#DejaVuSans-20" x="931.697266"/>
    <use xlink:href="#DejaVuSans-7c" x="963.484375"/>
    <use xlink:href="#DejaVuSans-20" x="997.175781"/>
    <use xlink:href="#DejaVuSans-47" x="1028.962891"/>
    <use xlink:href="#DejaVuSans-42" x="1106.453125"/>
    <use xlink:href="#DejaVuSans-20" x="1175.056641"/>
    <use xlink:href="#DejaVuSans-7c" x="1206.84375"/>
    <use xlink:href="#DejaVuSans-20" x="1240.535156"/>
    <use xlink:href="#DejaVuSans-44" x="1272.322266"/>
    <use xlink:href="#DejaVuSans-65" x="1349.324219"/>
    <use xlink:href="#DejaVuSans-6c" x="1410.847656"/>
    <use xlink:href="#DejaVuSans-74" x="1438.630859"/>
    <use xlink:href="#DejaVuSans-61" x="1477.839844"/>
    <use xlink:href="#DejaVuSans-20" x="1539.119141"/>
    <use xlink:href="#DejaVuSans-7c" x="1570.90625"/>
    <use xlink:href="#DejaVuSans-20" x="1604.597656"/>
    <use xlink:href="#DejaVuSans-54" x="1636.384766"/>
    <use xlink:href="#DejaVuSans-4f" x="1697.46875"/>
    <use xlink:href="#DejaVuSans-54" x="1776.179688"/>
    <use xlink:href="#DejaVuSans-41" x="1829.513672"/>
    <use xlink:href="#DejaVuSans-4c" x="1897.921875"/>
   </g>
  </g>
 </g>
 <defs>
  <clipPath id="p2818abc6d1">
   <rect x="65.540937" y="55.609187" width="485.214113" height="145.038938"/>
  </clipPath>
 </defs>
</svg>
