<?xml version="1.0" encoding="utf-8" standalone="no"?>
<!DOCTYPE svg PUBLIC "-//W3C//DTD SVG 1.1//EN"
  "http://www.w3.org/Graphics/SVG/1.1/DTD/svg11.dtd">
<svg xmlns:xlink="http://www.w3.org/1999/xlink" width="576pt" height="248.4pt" viewBox="0 0 576 248.4" xmlns="http://www.w3.org/2000/svg" version="1.1">
 <metadata>
  <rdf:RDF xmlns:dc="http://purl.org/dc/elements/1.1/" xmlns:cc="http://creativecommons.org/ns#" xmlns:rdf="http://www.w3.org/1999/02/22-rdf-syntax-ns#">
   <cc:Work>
    <dc:type rdf:resource="http://purl.org/dc/dcmitype/StillImage"/>
    <dc:date>2024-10-20T17:16:55.459851</dc:date>
    <dc:format>image/svg+xml</dc:format>
    <dc:creator>
     <cc:Agent>
      <dc:title>Matplotlib v3.5.2, https://matplotlib.org/</dc:title>
     </cc:Agent>
    </dc:creator>
   </cc:Work>
  </rdf:RDF>
 </metadata>
 <defs>
  <style type="text/css">*{stroke-linejoin: round; stroke-linecap: butt}</style>
 </defs>
 <g id="figure_1">
  <g id="patch_1">
   <path d="M 0 248.4 
L 576 248.4 
L 576 0 
L 0 0 
z
" style="fill: #ffffff"/>
  </g>
  <g id="axes_1">
   <g id="patch_2">
    <path d="M 65.540937 200.648125 
L 550.75505 200.648125 
L 550.75505 56.561804 
L 65.540937 56.561804 
z
" style="fill: #eaeaf2"/>
   </g>
   <g id="matplotlib.axis_1">
    <g id="xtick_1">
     <g id="line2d_1">
      <path d="M 87.155021 200.648125 
L 87.155021 56.561804 
" clip-path="url(#pbf94214ac2)" style="fill: none; stroke: #ffffff; stroke-linecap: round"/>
     </g>
     <g id="text_1">
      <!-- 0 -->
      <g style="fill: #262626" transform="translate(83.973771 217.746562)scale(0.1 -0.1)">
       <defs>
        <path id="DejaVuSans-30" d="M 2034 4250 
Q 1547 4250 1301 3770 
Q 1056 3291 1056 2328 
Q 1056 1369 1301 889 
Q 1547 409 2034 409 
Q 2525 409 2770 889 
Q 3016 1369 3016 2328 
Q 3016 3291 2770 3770 
Q 2525 4250 2034 4250 
z
M 2034 4750 
Q 2819 4750 3233 4129 
Q 3647 3509 3647 2328 
Q 3647 1150 3233 529 
Q 2819 -91 2034 -91 
Q 1250 -91 836 529 
Q 422 1150 422 2328 
Q 422 3509 836 4129 
Q 1250 4750 2034 4750 
z
" transform="scale(0.015625)"/>
       </defs>
       <use xlink:href="#DejaVuSans-30"/>
      </g>
     </g>
    </g>
    <g id="xtick_2">
     <g id="line2d_2">
      <path d="M 153.320581 200.648125 
L 153.320581 56.561804 
" clip-path="url(#pbf94214ac2)" style="fill: none; stroke: #ffffff; stroke-linecap: round"/>
     </g>
     <g id="text_2">
      <!-- 150 -->
      <g style="fill: #262626" transform="translate(143.776831 217.746562)scale(0.1 -0.1)">
       <defs>
        <path id="DejaVuSans-31" d="M 794 531 
L 1825 531 
L 1825 4091 
L 703 3866 
L 703 4441 
L 1819 4666 
L 2450 4666 
L 2450 531 
L 3481 531 
L 3481 0 
L 794 0 
L 794 531 
z
" transform="scale(0.015625)"/>
        <path id="DejaVuSans-35" d="M 691 4666 
L 3169 4666 
L 3169 4134 
L 1269 4134 
L 1269 2991 
Q 1406 3038 1543 3061 
Q 1681 3084 1819 3084 
Q 2600 3084 3056 2656 
Q 3513 2228 3513 1497 
Q 3513 744 3044 326 
Q 2575 -91 1722 -91 
Q 1428 -91 1123 -41 
Q 819 9 494 109 
L 494 744 
Q 775 591 1075 516 
Q 1375 441 1709 441 
Q 2250 441 2565 725 
Q 2881 1009 2881 1497 
Q 2881 1984 2565 2268 
Q 2250 2553 1709 2553 
Q 1456 2553 1204 2497 
Q 953 2441 691 2322 
L 691 4666 
z
" transform="scale(0.015625)"/>
       </defs>
       <use xlink:href="#DejaVuSans-31"/>
       <use xlink:href="#DejaVuSans-35" x="63.623047"/>
       <use xlink:href="#DejaVuSans-30" x="127.246094"/>
      </g>
     </g>
    </g>
    <g id="xtick_3">
     <g id="line2d_3">
      <path d="M 219.486142 200.648125 
L 219.486142 56.561804 
" clip-path="url(#pbf94214ac2)" style="fill: none; stroke: #ffffff; stroke-linecap: round"/>
     </g>
     <g id="text_3">
      <!-- 300 -->
      <g style="fill: #262626" transform="translate(209.942392 217.746562)scale(0.1 -0.1)">
       <defs>
        <path id="DejaVuSans-33" d="M 2597 2516 
Q 3050 2419 3304 2112 
Q 3559 1806 3559 1356 
Q 3559 666 3084 287 
Q 2609 -91 1734 -91 
Q 1441 -91 1130 -33 
Q 819 25 488 141 
L 488 750 
Q 750 597 1062 519 
Q 1375 441 1716 441 
Q 2309 441 2620 675 
Q 2931 909 2931 1356 
Q 2931 1769 2642 2001 
Q 2353 2234 1838 2234 
L 1294 2234 
L 1294 2753 
L 1863 2753 
Q 2328 2753 2575 2939 
Q 2822 3125 2822 3475 
Q 2822 3834 2567 4026 
Q 2313 4219 1838 4219 
Q 1578 4219 1281 4162 
Q 984 4106 628 3988 
L 628 4550 
Q 988 4650 1302 4700 
Q 1616 4750 1894 4750 
Q 2613 4750 3031 4423 
Q 3450 4097 3450 3541 
Q 3450 3153 3228 2886 
Q 3006 2619 2597 2516 
z
" transform="scale(0.015625)"/>
       </defs>
       <use xlink:href="#DejaVuSans-33"/>
       <use xlink:href="#DejaVuSans-30" x="63.623047"/>
       <use xlink:href="#DejaVuSans-30" x="127.246094"/>
      </g>
     </g>
    </g>
    <g id="xtick_4">
     <g id="line2d_4">
      <path d="M 285.651703 200.648125 
L 285.651703 56.561804 
" clip-path="url(#pbf94214ac2)" style="fill: none; stroke: #ffffff; stroke-linecap: round"/>
     </g>
     <g id="text_4">
      <!-- 450 -->
      <g style="fill: #262626" transform="translate(276.107953 217.746562)scale(0.1 -0.1)">
       <defs>
        <path id="DejaVuSans-34" d="M 2419 4116 
L 825 1625 
L 2419 1625 
L 2419 4116 
z
M 2253 4666 
L 3047 4666 
L 3047 1625 
L 3713 1625 
L 3713 1100 
L 3047 1100 
L 3047 0 
L 2419 0 
L 2419 1100 
L 313 1100 
L 313 1709 
L 2253 4666 
z
" transform="scale(0.015625)"/>
       </defs>
       <use xlink:href="#DejaVuSans-34"/>
       <use xlink:href="#DejaVuSans-35" x="63.623047"/>
       <use xlink:href="#DejaVuSans-30" x="127.246094"/>
      </g>
     </g>
    </g>
    <g id="xtick_5">
     <g id="line2d_5">
      <path d="M 351.817264 200.648125 
L 351.817264 56.561804 
" clip-path="url(#pbf94214ac2)" style="fill: none; stroke: #ffffff; stroke-linecap: round"/>
     </g>
     <g id="text_5">
      <!-- 600 -->
      <g style="fill: #262626" transform="translate(342.273514 217.746562)scale(0.1 -0.1)">
       <defs>
        <path id="DejaVuSans-36" d="M 2113 2584 
Q 1688 2584 1439 2293 
Q 1191 2003 1191 1497 
Q 1191 994 1439 701 
Q 1688 409 2113 409 
Q 2538 409 2786 701 
Q 3034 994 3034 1497 
Q 3034 2003 2786 2293 
Q 2538 2584 2113 2584 
z
M 3366 4563 
L 3366 3988 
Q 3128 4100 2886 4159 
Q 2644 4219 2406 4219 
Q 1781 4219 1451 3797 
Q 1122 3375 1075 2522 
Q 1259 2794 1537 2939 
Q 1816 3084 2150 3084 
Q 2853 3084 3261 2657 
Q 3669 2231 3669 1497 
Q 3669 778 3244 343 
Q 2819 -91 2113 -91 
Q 1303 -91 875 529 
Q 447 1150 447 2328 
Q 447 3434 972 4092 
Q 1497 4750 2381 4750 
Q 2619 4750 2861 4703 
Q 3103 4656 3366 4563 
z
" transform="scale(0.015625)"/>
       </defs>
       <use xlink:href="#DejaVuSans-36"/>
       <use xlink:href="#DejaVuSans-30" x="63.623047"/>
       <use xlink:href="#DejaVuSans-30" x="127.246094"/>
      </g>
     </g>
    </g>
    <g id="xtick_6">
     <g id="line2d_6">
      <path d="M 417.982825 200.648125 
L 417.982825 56.561804 
" clip-path="url(#pbf94214ac2)" style="fill: none; stroke: #ffffff; stroke-linecap: round"/>
     </g>
     <g id="text_6">
      <!-- 750 -->
      <g style="fill: #262626" transform="translate(408.439075 217.746562)scale(0.1 -0.1)">
       <defs>
        <path id="DejaVuSans-37" d="M 525 4666 
L 3525 4666 
L 3525 4397 
L 1831 0 
L 1172 0 
L 2766 4134 
L 525 4134 
L 525 4666 
z
" transform="scale(0.015625)"/>
       </defs>
       <use xlink:href="#DejaVuSans-37"/>
       <use xlink:href="#DejaVuSans-35" x="63.623047"/>
       <use xlink:href="#DejaVuSans-30" x="127.246094"/>
      </g>
     </g>
    </g>
    <g id="xtick_7">
     <g id="line2d_7">
      <path d="M 484.148386 200.648125 
L 484.148386 56.561804 
" clip-path="url(#pbf94214ac2)" style="fill: none; stroke: #ffffff; stroke-linecap: round"/>
     </g>
     <g id="text_7">
      <!-- 900 -->
      <g style="fill: #262626" transform="translate(474.604636 217.746562)scale(0.1 -0.1)">
       <defs>
        <path id="DejaVuSans-39" d="M 703 97 
L 703 672 
Q 941 559 1184 500 
Q 1428 441 1663 441 
Q 2288 441 2617 861 
Q 2947 1281 2994 2138 
Q 2813 1869 2534 1725 
Q 2256 1581 1919 1581 
Q 1219 1581 811 2004 
Q 403 2428 403 3163 
Q 403 3881 828 4315 
Q 1253 4750 1959 4750 
Q 2769 4750 3195 4129 
Q 3622 3509 3622 2328 
Q 3622 1225 3098 567 
Q 2575 -91 1691 -91 
Q 1453 -91 1209 -44 
Q 966 3 703 97 
z
M 1959 2075 
Q 2384 2075 2632 2365 
Q 2881 2656 2881 3163 
Q 2881 3666 2632 3958 
Q 2384 4250 1959 4250 
Q 1534 4250 1286 3958 
Q 1038 3666 1038 3163 
Q 1038 2656 1286 2365 
Q 1534 2075 1959 2075 
z
" transform="scale(0.015625)"/>
       </defs>
       <use xlink:href="#DejaVuSans-39"/>
       <use xlink:href="#DejaVuSans-30" x="63.623047"/>
       <use xlink:href="#DejaVuSans-30" x="127.246094"/>
      </g>
     </g>
    </g>
    <g id="xtick_8">
     <g id="line2d_8">
      <path d="M 550.313946 200.648125 
L 550.313946 56.561804 
" clip-path="url(#pbf94214ac2)" style="fill: none; stroke: #ffffff; stroke-linecap: round"/>
     </g>
     <g id="text_8">
      <!-- 1050 -->
      <g style="fill: #262626" transform="translate(537.588946 217.746562)scale(0.1 -0.1)">
       <use xlink:href="#DejaVuSans-31"/>
       <use xlink:href="#DejaVuSans-30" x="63.623047"/>
       <use xlink:href="#DejaVuSans-35" x="127.246094"/>
       <use xlink:href="#DejaVuSans-30" x="190.869141"/>
      </g>
     </g>
    </g>
    <g id="text_9">
     <!-- Frames -->
     <g style="fill: #262626" transform="translate(286.326744 232.944375)scale(0.12 -0.12)">
      <defs>
       <path id="DejaVuSans-46" d="M 628 4666 
L 3309 4666 
L 3309 4134 
L 1259 4134 
L 1259 2759 
L 3109 2759 
L 3109 2228 
L 1259 2228 
L 1259 0 
L 628 0 
L 628 4666 
z
" transform="scale(0.015625)"/>
       <path id="DejaVuSans-72" d="M 2631 2963 
Q 2534 3019 2420 3045 
Q 2306 3072 2169 3072 
Q 1681 3072 1420 2755 
Q 1159 2438 1159 1844 
L 1159 0 
L 581 0 
L 581 3500 
L 1159 3500 
L 1159 2956 
Q 1341 3275 1631 3429 
Q 1922 3584 2338 3584 
Q 2397 3584 2469 3576 
Q 2541 3569 2628 3553 
L 2631 2963 
z
" transform="scale(0.015625)"/>
       <path id="DejaVuSans-61" d="M 2194 1759 
Q 1497 1759 1228 1600 
Q 959 1441 959 1056 
Q 959 750 1161 570 
Q 1363 391 1709 391 
Q 2188 391 2477 730 
Q 2766 1069 2766 1631 
L 2766 1759 
L 2194 1759 
z
M 3341 1997 
L 3341 0 
L 2766 0 
L 2766 531 
Q 2569 213 2275 61 
Q 1981 -91 1556 -91 
Q 1019 -91 701 211 
Q 384 513 384 1019 
Q 384 1609 779 1909 
Q 1175 2209 1959 2209 
L 2766 2209 
L 2766 2266 
Q 2766 2663 2505 2880 
Q 2244 3097 1772 3097 
Q 1472 3097 1187 3025 
Q 903 2953 641 2809 
L 641 3341 
Q 956 3463 1253 3523 
Q 1550 3584 1831 3584 
Q 2591 3584 2966 3190 
Q 3341 2797 3341 1997 
z
" transform="scale(0.015625)"/>
       <path id="DejaVuSans-6d" d="M 3328 2828 
Q 3544 3216 3844 3400 
Q 4144 3584 4550 3584 
Q 5097 3584 5394 3201 
Q 5691 2819 5691 2113 
L 5691 0 
L 5113 0 
L 5113 2094 
Q 5113 2597 4934 2840 
Q 4756 3084 4391 3084 
Q 3944 3084 3684 2787 
Q 3425 2491 3425 1978 
L 3425 0 
L 2847 0 
L 2847 2094 
Q 2847 2600 2669 2842 
Q 2491 3084 2119 3084 
Q 1678 3084 1418 2786 
Q 1159 2488 1159 1978 
L 1159 0 
L 581 0 
L 581 3500 
L 1159 3500 
L 1159 2956 
Q 1356 3278 1631 3431 
Q 1906 3584 2284 3584 
Q 2666 3584 2933 3390 
Q 3200 3197 3328 2828 
z
" transform="scale(0.015625)"/>
       <path id="DejaVuSans-65" d="M 3597 1894 
L 3597 1613 
L 953 1613 
Q 991 1019 1311 708 
Q 1631 397 2203 397 
Q 2534 397 2845 478 
Q 3156 559 3463 722 
L 3463 178 
Q 3153 47 2828 -22 
Q 2503 -91 2169 -91 
Q 1331 -91 842 396 
Q 353 884 353 1716 
Q 353 2575 817 3079 
Q 1281 3584 2069 3584 
Q 2775 3584 3186 3129 
Q 3597 2675 3597 1894 
z
M 3022 2063 
Q 3016 2534 2758 2815 
Q 2500 3097 2075 3097 
Q 1594 3097 1305 2825 
Q 1016 2553 972 2059 
L 3022 2063 
z
" transform="scale(0.015625)"/>
       <path id="DejaVuSans-73" d="M 2834 3397 
L 2834 2853 
Q 2591 2978 2328 3040 
Q 2066 3103 1784 3103 
Q 1356 3103 1142 2972 
Q 928 2841 928 2578 
Q 928 2378 1081 2264 
Q 1234 2150 1697 2047 
L 1894 2003 
Q 2506 1872 2764 1633 
Q 3022 1394 3022 966 
Q 3022 478 2636 193 
Q 2250 -91 1575 -91 
Q 1294 -91 989 -36 
Q 684 19 347 128 
L 347 722 
Q 666 556 975 473 
Q 1284 391 1588 391 
Q 1994 391 2212 530 
Q 2431 669 2431 922 
Q 2431 1156 2273 1281 
Q 2116 1406 1581 1522 
L 1381 1569 
Q 847 1681 609 1914 
Q 372 2147 372 2553 
Q 372 3047 722 3315 
Q 1072 3584 1716 3584 
Q 2034 3584 2315 3537 
Q 2597 3491 2834 3397 
z
" transform="scale(0.015625)"/>
      </defs>
      <use xlink:href="#DejaVuSans-46"/>
      <use xlink:href="#DejaVuSans-72" x="50.269531"/>
      <use xlink:href="#DejaVuSans-61" x="91.382812"/>
      <use xlink:href="#DejaVuSans-6d" x="152.662109"/>
      <use xlink:href="#DejaVuSans-65" x="250.074219"/>
      <use xlink:href="#DejaVuSans-73" x="311.597656"/>
     </g>
    </g>
   </g>
   <g id="matplotlib.axis_2">
    <g id="ytick_1">
     <g id="line2d_9">
      <path d="M 65.540937 186.368932 
L 550.75505 186.368932 
" clip-path="url(#pbf94214ac2)" style="fill: none; stroke: #ffffff; stroke-linecap: round"/>
     </g>
     <g id="text_10">
      <!-- −120 -->
      <g style="fill: #262626" transform="translate(28.57375 190.168151)scale(0.1 -0.1)">
       <defs>
        <path id="DejaVuSans-2212" d="M 678 2272 
L 4684 2272 
L 4684 1741 
L 678 1741 
L 678 2272 
z
" transform="scale(0.015625)"/>
        <path id="DejaVuSans-32" d="M 1228 531 
L 3431 531 
L 3431 0 
L 469 0 
L 469 531 
Q 828 903 1448 1529 
Q 2069 2156 2228 2338 
Q 2531 2678 2651 2914 
Q 2772 3150 2772 3378 
Q 2772 3750 2511 3984 
Q 2250 4219 1831 4219 
Q 1534 4219 1204 4116 
Q 875 4013 500 3803 
L 500 4441 
Q 881 4594 1212 4672 
Q 1544 4750 1819 4750 
Q 2544 4750 2975 4387 
Q 3406 4025 3406 3419 
Q 3406 3131 3298 2873 
Q 3191 2616 2906 2266 
Q 2828 2175 2409 1742 
Q 1991 1309 1228 531 
z
" transform="scale(0.015625)"/>
       </defs>
       <use xlink:href="#DejaVuSans-2212"/>
       <use xlink:href="#DejaVuSans-31" x="83.789062"/>
       <use xlink:href="#DejaVuSans-32" x="147.412109"/>
       <use xlink:href="#DejaVuSans-30" x="211.035156"/>
      </g>
     </g>
    </g>
    <g id="ytick_2">
     <g id="line2d_10">
      <path d="M 65.540937 165.21584 
L 550.75505 165.21584 
" clip-path="url(#pbf94214ac2)" style="fill: none; stroke: #ffffff; stroke-linecap: round"/>
     </g>
     <g id="text_11">
      <!-- −105 -->
      <g style="fill: #262626" transform="translate(28.57375 169.015059)scale(0.1 -0.1)">
       <use xlink:href="#DejaVuSans-2212"/>
       <use xlink:href="#DejaVuSans-31" x="83.789062"/>
       <use xlink:href="#DejaVuSans-30" x="147.412109"/>
       <use xlink:href="#DejaVuSans-35" x="211.035156"/>
      </g>
     </g>
    </g>
    <g id="ytick_3">
     <g id="line2d_11">
      <path d="M 65.540937 144.062748 
L 550.75505 144.062748 
" clip-path="url(#pbf94214ac2)" style="fill: none; stroke: #ffffff; stroke-linecap: round"/>
     </g>
     <g id="text_12">
      <!-- −90 -->
      <g style="fill: #262626" transform="translate(34.93625 147.861967)scale(0.1 -0.1)">
       <use xlink:href="#DejaVuSans-2212"/>
       <use xlink:href="#DejaVuSans-39" x="83.789062"/>
       <use xlink:href="#DejaVuSans-30" x="147.412109"/>
      </g>
     </g>
    </g>
    <g id="ytick_4">
     <g id="line2d_12">
      <path d="M 65.540937 122.909656 
L 550.75505 122.909656 
" clip-path="url(#pbf94214ac2)" style="fill: none; stroke: #ffffff; stroke-linecap: round"/>
     </g>
     <g id="text_13">
      <!-- −75 -->
      <g style="fill: #262626" transform="translate(34.93625 126.708874)scale(0.1 -0.1)">
       <use xlink:href="#DejaVuSans-2212"/>
       <use xlink:href="#DejaVuSans-37" x="83.789062"/>
       <use xlink:href="#DejaVuSans-35" x="147.412109"/>
      </g>
     </g>
    </g>
    <g id="ytick_5">
     <g id="line2d_13">
      <path d="M 65.540937 101.756564 
L 550.75505 101.756564 
" clip-path="url(#pbf94214ac2)" style="fill: none; stroke: #ffffff; stroke-linecap: round"/>
     </g>
     <g id="text_14">
      <!-- −60 -->
      <g style="fill: #262626" transform="translate(34.93625 105.555782)scale(0.1 -0.1)">
       <use xlink:href="#DejaVuSans-2212"/>
       <use xlink:href="#DejaVuSans-36" x="83.789062"/>
       <use xlink:href="#DejaVuSans-30" x="147.412109"/>
      </g>
     </g>
    </g>
    <g id="ytick_6">
     <g id="line2d_14">
      <path d="M 65.540937 80.603471 
L 550.75505 80.603471 
" clip-path="url(#pbf94214ac2)" style="fill: none; stroke: #ffffff; stroke-linecap: round"/>
     </g>
     <g id="text_15">
      <!-- −45 -->
      <g style="fill: #262626" transform="translate(34.93625 84.40269)scale(0.1 -0.1)">
       <use xlink:href="#DejaVuSans-2212"/>
       <use xlink:href="#DejaVuSans-34" x="83.789062"/>
       <use xlink:href="#DejaVuSans-35" x="147.412109"/>
      </g>
     </g>
    </g>
    <g id="ytick_7">
     <g id="line2d_15">
      <path d="M 65.540937 59.450379 
L 550.75505 59.450379 
" clip-path="url(#pbf94214ac2)" style="fill: none; stroke: #ffffff; stroke-linecap: round"/>
     </g>
     <g id="text_16">
      <!-- −30 -->
      <g style="fill: #262626" transform="translate(34.93625 63.249598)scale(0.1 -0.1)">
       <use xlink:href="#DejaVuSans-2212"/>
       <use xlink:href="#DejaVuSans-33" x="83.789062"/>
       <use xlink:href="#DejaVuSans-30" x="147.412109"/>
      </g>
     </g>
    </g>
    <g id="text_17">
     <!-- Energy (kcal/mol) -->
     <g style="fill: #262626" transform="translate(22.078125 181.522152)rotate(-90)scale(0.12 -0.12)">
      <defs>
       <path id="DejaVuSans-45" d="M 628 4666 
L 3578 4666 
L 3578 4134 
L 1259 4134 
L 1259 2753 
L 3481 2753 
L 3481 2222 
L 1259 2222 
L 1259 531 
L 3634 531 
L 3634 0 
L 628 0 
L 628 4666 
z
" transform="scale(0.015625)"/>
       <path id="DejaVuSans-6e" d="M 3513 2113 
L 3513 0 
L 2938 0 
L 2938 2094 
Q 2938 2591 2744 2837 
Q 2550 3084 2163 3084 
Q 1697 3084 1428 2787 
Q 1159 2491 1159 1978 
L 1159 0 
L 581 0 
L 581 3500 
L 1159 3500 
L 1159 2956 
Q 1366 3272 1645 3428 
Q 1925 3584 2291 3584 
Q 2894 3584 3203 3211 
Q 3513 2838 3513 2113 
z
" transform="scale(0.015625)"/>
       <path id="DejaVuSans-67" d="M 2906 1791 
Q 2906 2416 2648 2759 
Q 2391 3103 1925 3103 
Q 1463 3103 1205 2759 
Q 947 2416 947 1791 
Q 947 1169 1205 825 
Q 1463 481 1925 481 
Q 2391 481 2648 825 
Q 2906 1169 2906 1791 
z
M 3481 434 
Q 3481 -459 3084 -895 
Q 2688 -1331 1869 -1331 
Q 1566 -1331 1297 -1286 
Q 1028 -1241 775 -1147 
L 775 -588 
Q 1028 -725 1275 -790 
Q 1522 -856 1778 -856 
Q 2344 -856 2625 -561 
Q 2906 -266 2906 331 
L 2906 616 
Q 2728 306 2450 153 
Q 2172 0 1784 0 
Q 1141 0 747 490 
Q 353 981 353 1791 
Q 353 2603 747 3093 
Q 1141 3584 1784 3584 
Q 2172 3584 2450 3431 
Q 2728 3278 2906 2969 
L 2906 3500 
L 3481 3500 
L 3481 434 
z
" transform="scale(0.015625)"/>
       <path id="DejaVuSans-79" d="M 2059 -325 
Q 1816 -950 1584 -1140 
Q 1353 -1331 966 -1331 
L 506 -1331 
L 506 -850 
L 844 -850 
Q 1081 -850 1212 -737 
Q 1344 -625 1503 -206 
L 1606 56 
L 191 3500 
L 800 3500 
L 1894 763 
L 2988 3500 
L 3597 3500 
L 2059 -325 
z
" transform="scale(0.015625)"/>
       <path id="DejaVuSans-20" transform="scale(0.015625)"/>
       <path id="DejaVuSans-28" d="M 1984 4856 
Q 1566 4138 1362 3434 
Q 1159 2731 1159 2009 
Q 1159 1288 1364 580 
Q 1569 -128 1984 -844 
L 1484 -844 
Q 1016 -109 783 600 
Q 550 1309 550 2009 
Q 550 2706 781 3412 
Q 1013 4119 1484 4856 
L 1984 4856 
z
" transform="scale(0.015625)"/>
       <path id="DejaVuSans-6b" d="M 581 4863 
L 1159 4863 
L 1159 1991 
L 2875 3500 
L 3609 3500 
L 1753 1863 
L 3688 0 
L 2938 0 
L 1159 1709 
L 1159 0 
L 581 0 
L 581 4863 
z
" transform="scale(0.015625)"/>
       <path id="DejaVuSans-63" d="M 3122 3366 
L 3122 2828 
Q 2878 2963 2633 3030 
Q 2388 3097 2138 3097 
Q 1578 3097 1268 2742 
Q 959 2388 959 1747 
Q 959 1106 1268 751 
Q 1578 397 2138 397 
Q 2388 397 2633 464 
Q 2878 531 3122 666 
L 3122 134 
Q 2881 22 2623 -34 
Q 2366 -91 2075 -91 
Q 1284 -91 818 406 
Q 353 903 353 1747 
Q 353 2603 823 3093 
Q 1294 3584 2113 3584 
Q 2378 3584 2631 3529 
Q 2884 3475 3122 3366 
z
" transform="scale(0.015625)"/>
       <path id="DejaVuSans-6c" d="M 603 4863 
L 1178 4863 
L 1178 0 
L 603 0 
L 603 4863 
z
" transform="scale(0.015625)"/>
       <path id="DejaVuSans-2f" d="M 1625 4666 
L 2156 4666 
L 531 -594 
L 0 -594 
L 1625 4666 
z
" transform="scale(0.015625)"/>
       <path id="DejaVuSans-6f" d="M 1959 3097 
Q 1497 3097 1228 2736 
Q 959 2375 959 1747 
Q 959 1119 1226 758 
Q 1494 397 1959 397 
Q 2419 397 2687 759 
Q 2956 1122 2956 1747 
Q 2956 2369 2687 2733 
Q 2419 3097 1959 3097 
z
M 1959 3584 
Q 2709 3584 3137 3096 
Q 3566 2609 3566 1747 
Q 3566 888 3137 398 
Q 2709 -91 1959 -91 
Q 1206 -91 779 398 
Q 353 888 353 1747 
Q 353 2609 779 3096 
Q 1206 3584 1959 3584 
z
" transform="scale(0.015625)"/>
       <path id="DejaVuSans-29" d="M 513 4856 
L 1013 4856 
Q 1481 4119 1714 3412 
Q 1947 2706 1947 2009 
Q 1947 1309 1714 600 
Q 1481 -109 1013 -844 
L 513 -844 
Q 928 -128 1133 580 
Q 1338 1288 1338 2009 
Q 1338 2731 1133 3434 
Q 928 4138 513 4856 
z
" transform="scale(0.015625)"/>
      </defs>
      <use xlink:href="#DejaVuSans-45"/>
      <use xlink:href="#DejaVuSans-6e" x="63.183594"/>
      <use xlink:href="#DejaVuSans-65" x="126.5625"/>
      <use xlink:href="#DejaVuSans-72" x="188.085938"/>
      <use xlink:href="#DejaVuSans-67" x="227.449219"/>
      <use xlink:href="#DejaVuSans-79" x="290.925781"/>
      <use xlink:href="#DejaVuSans-20" x="350.105469"/>
      <use xlink:href="#DejaVuSans-28" x="381.892578"/>
      <use xlink:href="#DejaVuSans-6b" x="420.90625"/>
      <use xlink:href="#DejaVuSans-63" x="478.816406"/>
      <use xlink:href="#DejaVuSans-61" x="533.796875"/>
      <use xlink:href="#DejaVuSans-6c" x="595.076172"/>
      <use xlink:href="#DejaVuSans-2f" x="622.859375"/>
      <use xlink:href="#DejaVuSans-6d" x="656.550781"/>
      <use xlink:href="#DejaVuSans-6f" x="753.962891"/>
      <use xlink:href="#DejaVuSans-6c" x="815.144531"/>
      <use xlink:href="#DejaVuSans-29" x="842.927734"/>
     </g>
    </g>
   </g>
   <g id="line2d_16">
    <path d="M 87.596124 120.966372 
L 88.037228 101.808081 
L 88.478332 107.568255 
L 88.919436 107.160832 
L 89.360539 109.477264 
L 89.801643 103.687454 
L 90.242747 103.375049 
L 90.683851 98.551017 
L 91.124954 105.685848 
L 91.566058 104.349511 
L 92.007162 105.087275 
L 92.448266 102.536464 
L 93.330473 84.186081 
L 93.771577 86.103669 
L 94.212681 90.399973 
L 94.653784 84.900927 
L 95.094888 91.038322 
L 95.535992 91.240558 
L 95.977095 90.684592 
L 96.859303 96.318628 
L 97.300407 73.537629 
L 97.74151 78.835008 
L 98.182614 71.912443 
L 98.623718 82.573941 
L 99.064822 84.674099 
L 99.505925 88.143324 
L 99.947029 63.111182 
L 100.388133 89.807472 
L 100.829237 95.416733 
L 101.27034 89.266997 
L 101.711444 96.514454 
L 102.152548 93.649838 
L 102.593652 97.067736 
L 103.034755 86.821329 
L 103.475859 89.747901 
L 103.916963 96.045551 
L 104.358067 90.426531 
L 104.79917 91.716371 
L 105.681378 104.619794 
L 106.122481 90.26235 
L 106.563585 114.384688 
L 107.004689 96.321361 
L 107.886896 89.608643 
L 108.328 101.804025 
L 109.210208 83.548358 
L 109.651311 96.074463 
L 110.092415 92.673226 
L 110.533519 98.662911 
L 110.974623 85.827945 
L 111.415726 85.526737 
L 111.85683 86.821957 
L 113.180141 100.539399 
L 113.621245 84.893726 
L 114.062349 80.224933 
L 114.503452 87.161821 
L 114.944556 100.428847 
L 115.38566 89.009815 
L 115.826764 99.609836 
L 116.267867 107.07057 
L 116.708971 108.844947 
L 117.150075 103.650187 
L 117.591179 106.527351 
L 118.032282 111.534168 
L 118.473386 100.133018 
L 118.91449 93.464637 
L 119.355594 91.173355 
L 119.796697 81.919959 
L 120.237801 92.697913 
L 120.678905 100.136732 
L 121.120009 89.797986 
L 122.002216 93.839033 
L 122.44332 98.54157 
L 122.884424 95.157533 
L 123.325527 94.345339 
L 123.766631 94.117704 
L 124.207735 94.971753 
L 125.089942 105.799664 
L 125.531046 105.400695 
L 125.97215 108.499627 
L 126.413253 98.632798 
L 127.295461 86.486911 
L 127.736565 93.164632 
L 128.177668 95.601647 
L 128.618772 111.36406 
L 129.059876 111.075319 
L 129.50098 100.913034 
L 129.942083 97.390184 
L 130.383187 86.005312 
L 130.824291 77.749317 
L 131.265395 93.166872 
L 132.147602 103.47791 
L 132.588706 106.428419 
L 133.02981 106.740363 
L 133.470913 112.788541 
L 133.912017 105.951005 
L 134.353121 104.299131 
L 134.794224 104.68022 
L 135.235328 100.942147 
L 135.676432 121.089957 
L 136.117536 117.687076 
L 136.558639 119.200403 
L 136.999743 130.805918 
L 137.440847 115.961062 
L 137.881951 126.510155 
L 138.323054 115.862903 
L 138.764158 129.898293 
L 139.205262 130.791802 
L 139.646366 138.260863 
L 140.087469 139.783011 
L 140.528573 132.612717 
L 140.969677 108.900711 
L 141.410781 109.312935 
L 141.851884 111.515826 
L 142.292988 97.470199 
L 142.734092 97.858203 
L 143.175196 101.87784 
L 143.616299 98.799406 
L 144.057403 111.496037 
L 144.498507 110.150039 
L 144.93961 111.089744 
L 145.380714 105.640404 
L 145.821818 131.688028 
L 146.704025 102.387207 
L 147.145129 101.816517 
L 147.586233 91.388862 
L 148.027337 114.26094 
L 148.46844 109.677189 
L 148.909544 121.537368 
L 149.350648 99.266638 
L 149.791752 106.321731 
L 150.232855 103.083476 
L 151.115063 118.094594 
L 151.556167 119.105603 
L 151.99727 114.589516 
L 152.438374 97.497004 
L 153.320581 117.696666 
L 153.761685 114.802017 
L 154.202789 116.352908 
L 154.643893 111.23845 
L 155.084996 113.797178 
L 155.5261 109.066951 
L 155.967204 115.0747 
L 156.408308 119.4211 
L 156.849411 129.102254 
L 157.290515 107.431634 
L 157.731619 112.469231 
L 158.172723 101.714374 
L 159.05493 113.069478 
L 159.496034 111.494149 
L 159.937138 112.847382 
L 160.378241 113.084432 
L 160.819345 112.856818 
L 161.260449 107.488613 
L 161.701553 114.734226 
L 162.142656 126.777153 
L 163.024864 140.193862 
L 163.465967 128.79825 
L 163.907071 129.742852 
L 164.348175 101.698486 
L 164.789279 121.273936 
L 165.230382 115.169927 
L 165.671486 112.463097 
L 166.11259 115.82119 
L 166.553694 99.175561 
L 166.994797 102.11156 
L 167.435901 108.172932 
L 167.877005 104.675033 
L 168.318109 108.641548 
L 168.759212 106.229883 
L 169.200316 132.562323 
L 169.64142 115.147904 
L 170.082524 111.888888 
L 170.523627 114.224854 
L 170.964731 107.154498 
L 171.405835 136.906446 
L 171.846939 143.361552 
L 172.288042 142.632845 
L 172.729146 113.408208 
L 173.17025 120.607476 
L 173.611353 132.615888 
L 174.052457 136.284562 
L 175.816872 115.570747 
L 176.257976 113.705397 
L 176.69908 116.63662 
L 177.140183 122.915945 
L 177.581287 102.845089 
L 178.022391 112.141106 
L 178.463495 127.61423 
L 178.904598 114.421848 
L 179.345702 116.228036 
L 179.786806 133.400671 
L 180.22791 115.024658 
L 180.669013 122.932231 
L 181.110117 127.257512 
L 181.551221 112.231082 
L 181.992325 123.144385 
L 182.433428 127.710629 
L 182.874532 115.35044 
L 183.315636 115.65452 
L 183.756739 100.712852 
L 184.197843 128.903551 
L 184.638947 113.275665 
L 185.080051 109.89749 
L 185.521154 116.816559 
L 185.962258 126.938207 
L 186.403362 125.890557 
L 186.844466 117.598502 
L 187.726673 128.343369 
L 188.167777 121.273012 
L 188.608881 119.757395 
L 189.049984 101.59193 
L 189.491088 112.654416 
L 189.932192 105.071444 
L 190.373296 107.529662 
L 190.814399 126.064075 
L 191.255503 111.617379 
L 191.696607 111.153225 
L 192.137711 116.426948 
L 192.578814 135.073703 
L 193.019918 116.604755 
L 193.461022 127.271532 
L 193.902125 123.86478 
L 194.343229 111.632594 
L 194.784333 119.075636 
L 195.225437 116.365164 
L 195.66654 121.895819 
L 196.107644 111.697406 
L 196.548748 122.146794 
L 196.989852 126.365267 
L 197.430955 118.250835 
L 197.872059 117.153184 
L 198.313163 117.524032 
L 198.754267 136.063601 
L 199.19537 123.739698 
L 199.636474 130.397915 
L 200.518682 103.565186 
L 200.959785 118.306982 
L 201.400889 117.460097 
L 201.841993 117.999334 
L 202.7242 118.338564 
L 203.165304 116.259497 
L 203.606408 120.736749 
L 204.047511 128.692859 
L 204.488615 121.972516 
L 204.929719 126.972896 
L 205.370823 121.001351 
L 205.811926 122.705231 
L 206.694134 107.431937 
L 207.135238 113.114904 
L 207.576341 109.351486 
L 208.017445 108.505827 
L 208.458549 103.381789 
L 208.899653 114.796552 
L 209.340756 101.033014 
L 209.78186 114.445748 
L 210.664068 111.118118 
L 211.105171 107.226213 
L 211.546275 109.705219 
L 211.987379 100.932489 
L 212.428482 115.433261 
L 212.869586 112.795988 
L 213.751794 101.798466 
L 214.192897 104.283942 
L 214.634001 111.515059 
L 215.075105 120.760877 
L 215.516209 104.433617 
L 215.957312 117.42569 
L 216.398416 95.027464 
L 217.280624 104.477676 
L 217.721727 108.328138 
L 218.603935 103.855768 
L 219.045039 112.773897 
L 219.486142 101.413657 
L 219.927246 114.214967 
L 220.36835 118.827174 
L 220.809454 111.588494 
L 221.250557 108.014009 
L 221.691661 117.248289 
L 222.132765 113.057987 
L 222.573868 116.384262 
L 223.014972 108.665017 
L 223.456076 118.295632 
L 223.89718 114.804849 
L 224.338283 115.331762 
L 224.779387 107.805382 
L 225.220491 127.663004 
L 225.661595 114.517796 
L 226.102698 124.758257 
L 226.543802 118.405245 
L 226.984906 115.709881 
L 227.42601 115.279892 
L 227.867113 114.492593 
L 228.308217 127.319168 
L 228.749321 115.156014 
L 229.190425 117.607988 
L 229.631528 112.92522 
L 230.072632 116.492944 
L 230.513736 115.811702 
L 230.95484 125.99322 
L 231.395943 117.975464 
L 231.837047 117.252548 
L 232.278151 120.148683 
L 232.719254 122.136944 
L 233.160358 137.319359 
L 233.601462 127.901109 
L 234.042566 131.938705 
L 234.483669 124.453444 
L 234.924773 127.745017 
L 235.365877 132.173787 
L 235.806981 140.305314 
L 236.248084 140.752894 
L 237.130292 127.805785 
L 237.571396 128.397772 
L 238.012499 121.15612 
L 238.453603 122.158877 
L 238.894707 119.019816 
L 239.335811 125.416385 
L 239.776914 123.415269 
L 240.659122 135.813524 
L 241.100225 137.155311 
L 241.541329 137.2694 
L 241.982433 140.315084 
L 242.423537 145.209101 
L 242.86464 125.015148 
L 243.305744 134.110683 
L 243.746848 134.641052 
L 244.187952 128.928845 
L 244.629055 127.636163 
L 245.070159 135.132374 
L 245.511263 124.065412 
L 245.952367 118.573207 
L 246.39347 121.111155 
L 246.834574 107.779406 
L 247.275678 119.044495 
L 247.716782 122.512564 
L 248.157885 121.182911 
L 248.598989 124.786114 
L 249.040093 117.556973 
L 249.481197 131.200919 
L 249.9223 149.073735 
L 250.363404 125.664879 
L 250.804508 135.135117 
L 251.245611 130.908372 
L 251.686715 128.536335 
L 252.127819 130.837093 
L 253.010026 142.67901 
L 253.45113 123.947556 
L 253.892234 124.462138 
L 254.774441 122.314312 
L 255.215545 129.326004 
L 255.656649 133.579754 
L 256.097753 122.45458 
L 256.538856 123.887452 
L 256.97996 115.981322 
L 257.421064 135.84825 
L 257.862168 127.449142 
L 258.303271 136.19858 
L 258.744375 125.164662 
L 259.185479 126.871913 
L 259.626583 141.806582 
L 260.067686 124.824043 
L 260.949894 133.464294 
L 261.390997 123.20104 
L 261.832101 125.610265 
L 262.273205 129.343165 
L 262.714309 137.239433 
L 263.155412 139.782792 
L 263.596516 136.486535 
L 264.03762 131.239854 
L 264.919827 142.793106 
L 265.360931 153.883301 
L 265.802035 148.719244 
L 266.243139 138.965358 
L 266.684242 152.694405 
L 267.125346 149.395287 
L 268.007554 131.832899 
L 268.448657 123.016812 
L 268.889761 118.229057 
L 269.330865 119.55896 
L 269.771969 128.164 
L 270.213072 125.504243 
L 270.654176 126.151118 
L 271.09528 133.626938 
L 271.536383 133.604574 
L 271.977487 138.359564 
L 272.418591 133.928439 
L 272.859695 140.592611 
L 273.300798 136.669152 
L 273.741902 135.877949 
L 274.183006 126.458034 
L 274.62411 132.789597 
L 275.065213 133.184648 
L 275.506317 126.300174 
L 275.947421 132.615438 
L 276.388525 126.65938 
L 276.829628 131.135611 
L 277.270732 137.734923 
L 277.711836 138.514218 
L 278.15294 135.576425 
L 278.594043 139.861587 
L 279.035147 138.652008 
L 279.476251 130.294191 
L 279.917354 160.521235 
L 280.358458 152.824709 
L 280.799562 147.626268 
L 281.240666 147.663678 
L 281.681769 157.551152 
L 282.122873 147.122886 
L 282.563977 119.881787 
L 283.005081 140.009962 
L 283.446184 137.183409 
L 283.887288 127.195747 
L 284.328392 142.146897 
L 284.769496 129.660218 
L 285.210599 133.901617 
L 285.651703 135.070967 
L 286.092807 138.288052 
L 286.533911 127.662584 
L 286.975014 139.020082 
L 287.416118 137.818178 
L 287.857222 138.303574 
L 288.298326 143.493701 
L 288.739429 115.941286 
L 289.180533 145.480632 
L 289.621637 120.400518 
L 290.06274 130.50956 
L 290.503844 155.262999 
L 290.944948 132.772962 
L 291.386052 135.0027 
L 291.827155 118.831954 
L 292.268259 136.53849 
L 292.709363 137.882729 
L 293.150467 136.044472 
L 293.59157 144.401636 
L 294.032674 128.715046 
L 294.473778 132.195163 
L 294.914882 133.767654 
L 295.355985 145.298986 
L 295.797089 138.69008 
L 296.238193 134.748537 
L 296.679297 143.741215 
L 297.561504 128.399395 
L 298.002608 143.7477 
L 298.443712 113.878252 
L 298.884815 144.67282 
L 299.325919 131.988814 
L 299.767023 134.867919 
L 300.208126 121.387802 
L 300.64923 127.938873 
L 301.090334 116.271407 
L 301.531438 132.514321 
L 301.972541 116.122121 
L 302.413645 129.697092 
L 302.854749 116.16482 
L 303.295853 126.148789 
L 303.736956 126.698411 
L 304.17806 129.374165 
L 304.619164 127.635138 
L 305.060268 115.388971 
L 305.501371 140.213675 
L 305.942475 148.159283 
L 306.383579 128.271833 
L 306.824683 135.565145 
L 307.265786 132.50314 
L 307.70689 149.980979 
L 308.147994 139.153846 
L 308.589098 139.995484 
L 309.030201 151.1962 
L 309.471305 141.63705 
L 310.353512 135.506165 
L 311.23572 139.952848 
L 311.676824 157.261976 
L 312.117927 137.770961 
L 312.559031 156.679951 
L 313.441239 143.141688 
L 313.882342 131.165414 
L 314.323446 123.550348 
L 315.205654 137.452051 
L 315.646757 141.153936 
L 316.087861 142.182989 
L 316.528965 148.130994 
L 316.970069 140.466617 
L 317.411172 143.801158 
L 317.852276 141.585164 
L 318.29338 143.187504 
L 318.734484 133.639704 
L 319.175587 140.490295 
L 320.057795 132.557992 
L 320.498898 138.633258 
L 320.940002 136.918203 
L 321.381106 135.948982 
L 321.82221 137.189162 
L 322.263313 144.077492 
L 322.704417 129.914474 
L 323.145521 140.51189 
L 323.586625 141.880985 
L 324.468832 148.939101 
L 324.909936 145.47046 
L 325.35104 136.363901 
L 325.792143 137.148956 
L 326.233247 129.01575 
L 326.674351 158.079318 
L 327.115455 130.491287 
L 327.556558 134.973186 
L 327.997662 147.69297 
L 328.438766 120.92248 
L 328.879869 131.287069 
L 329.320973 145.423544 
L 329.762077 141.605854 
L 330.203181 141.977126 
L 330.644284 141.252301 
L 331.085388 132.504338 
L 331.526492 129.323633 
L 331.967596 138.000923 
L 332.408699 135.997536 
L 332.849803 134.829792 
L 333.290907 125.359189 
L 333.732011 134.572494 
L 334.173114 132.72472 
L 334.614218 139.184318 
L 335.055322 140.175509 
L 335.496426 142.807554 
L 335.937529 136.045099 
L 336.378633 155.019203 
L 336.819737 147.928029 
L 337.260841 155.895705 
L 337.701944 143.777266 
L 338.143048 149.182931 
L 338.584152 151.900406 
L 339.025255 149.685794 
L 339.466359 140.637224 
L 339.907463 141.796391 
L 340.348567 126.460957 
L 340.78967 141.786797 
L 341.230774 141.985619 
L 341.671878 122.212913 
L 342.112982 141.002493 
L 342.554085 126.143718 
L 342.995189 116.985189 
L 343.436293 144.407543 
L 343.877397 128.326589 
L 344.3185 132.302946 
L 344.759604 151.970268 
L 345.200708 156.129929 
L 345.641812 152.663713 
L 346.082915 140.874309 
L 346.524019 121.331169 
L 346.965123 126.298885 
L 347.406227 135.550507 
L 347.84733 137.807899 
L 348.288434 142.143816 
L 348.729538 149.613637 
L 349.170641 153.156053 
L 349.611745 139.930704 
L 350.052849 146.601431 
L 350.493953 147.600208 
L 350.935056 158.274407 
L 351.37616 152.73559 
L 351.817264 151.864169 
L 352.258368 156.289029 
L 352.699471 155.922154 
L 353.140575 143.881858 
L 353.581679 160.378378 
L 354.463886 168.70887 
L 354.90499 153.93472 
L 355.346094 164.171007 
L 355.787198 167.28628 
L 356.669405 157.581664 
L 357.110509 158.899939 
L 357.551613 147.970619 
L 357.992716 157.386776 
L 358.43382 158.817262 
L 358.874924 151.532896 
L 359.316027 158.492379 
L 359.757131 160.252103 
L 360.198235 157.689569 
L 360.639339 161.411488 
L 361.080442 163.404703 
L 361.521546 171.81833 
L 361.96265 145.189984 
L 362.403754 170.672497 
L 362.844857 167.356948 
L 363.285961 167.269913 
L 363.727065 165.462186 
L 364.168169 164.421816 
L 364.609272 158.670949 
L 365.050376 161.702605 
L 365.49148 161.806994 
L 365.932584 163.196327 
L 366.373687 144.23277 
L 366.814791 155.538829 
L 367.255895 158.433365 
L 367.696998 159.218836 
L 368.138102 155.833483 
L 368.579206 156.340129 
L 369.02031 162.174912 
L 369.461413 165.40585 
L 369.902517 166.966375 
L 370.343621 153.374927 
L 370.784725 147.483353 
L 371.225828 162.528393 
L 371.666932 165.984149 
L 372.108036 150.11697 
L 372.54914 146.238553 
L 372.990243 162.316166 
L 373.431347 164.76441 
L 373.872451 163.179018 
L 374.313555 157.39347 
L 374.754658 170.6661 
L 375.195762 161.60999 
L 375.636866 169.872804 
L 376.07797 150.820134 
L 376.519073 156.759692 
L 376.960177 168.19636 
L 377.401281 161.246198 
L 377.842384 168.828441 
L 378.283488 169.998424 
L 378.724592 168.973837 
L 379.165696 179.631247 
L 379.606799 166.515978 
L 380.047903 176.660161 
L 380.489007 175.07017 
L 381.371214 158.030312 
L 382.253422 176.08382 
L 382.694526 172.306471 
L 383.135629 170.581364 
L 383.576733 175.051032 
L 384.017837 174.230368 
L 384.458941 167.655989 
L 384.900044 176.382247 
L 385.341148 194.098747 
L 385.782252 169.958365 
L 386.223356 153.50917 
L 386.664459 170.007146 
L 387.105563 172.192978 
L 387.546667 180.27034 
L 387.98777 178.190479 
L 388.428874 165.128458 
L 388.869978 176.167957 
L 389.311082 171.323328 
L 389.752185 160.849799 
L 390.193289 187.680298 
L 390.634393 182.88101 
L 391.075497 169.3949 
L 391.5166 176.865127 
L 391.957704 174.20831 
L 392.398808 160.680154 
L 392.839912 161.36015 
L 393.281015 170.899051 
L 393.722119 158.893949 
L 394.163223 163.432152 
L 394.604327 157.858542 
L 395.04543 159.875933 
L 395.486534 159.395651 
L 395.927638 152.152452 
L 396.368742 164.904921 
L 396.809845 166.881141 
L 397.250949 161.644331 
L 397.692053 171.205809 
L 398.133156 163.000486 
L 398.57426 172.660696 
L 399.015364 171.067733 
L 399.456468 157.931316 
L 400.338675 152.032512 
L 400.779779 161.216079 
L 401.220883 157.554614 
L 401.661986 161.618543 
L 402.10309 176.593947 
L 402.544194 177.294921 
L 402.985298 175.933665 
L 403.426401 168.44207 
L 403.867505 175.119232 
L 404.308609 179.265056 
L 404.749713 181.65434 
L 405.190816 175.808724 
L 405.63192 184.214153 
L 406.073024 167.224689 
L 406.514127 175.977759 
L 406.955231 175.720756 
L 407.396335 162.219672 
L 407.837439 170.65923 
L 408.278542 164.699959 
L 408.719646 171.278297 
L 409.16075 169.329453 
L 409.601854 157.860683 
L 410.042957 156.587338 
L 410.484061 183.226988 
L 410.925165 151.928567 
L 411.366269 166.979394 
L 411.807372 163.302402 
L 412.248476 150.86583 
L 412.68958 171.669423 
L 413.130684 158.145196 
L 413.571787 169.441615 
L 414.012891 168.360675 
L 414.453995 157.345485 
L 414.895099 181.072937 
L 415.336202 182.954882 
L 415.777306 157.249783 
L 416.21841 169.263199 
L 416.659513 175.430365 
L 417.541721 166.738852 
L 417.982825 168.305809 
L 418.423928 170.55998 
L 418.865032 157.795658 
L 419.306136 149.905324 
L 419.74724 176.243549 
L 420.188343 157.579496 
L 420.629447 164.300419 
L 421.070551 168.973093 
L 421.511655 176.278245 
L 421.952758 151.647527 
L 422.834966 170.003678 
L 423.27607 167.574229 
L 423.717173 168.651015 
L 424.158277 158.528084 
L 424.599381 159.155805 
L 425.040485 155.89424 
L 425.481588 154.211151 
L 425.922692 162.985837 
L 426.363796 175.503832 
L 426.804899 167.268688 
L 427.246003 179.638085 
L 427.687107 178.745435 
L 428.128211 158.971529 
L 428.569314 161.852072 
L 429.451522 171.413151 
L 429.892626 150.685156 
L 430.333729 163.295332 
L 430.774833 166.248889 
L 431.215937 161.980134 
L 431.657041 170.736306 
L 432.098144 173.07423 
L 432.539248 161.687043 
L 432.980352 166.637231 
L 433.421456 167.965373 
L 433.862559 185.626939 
L 434.303663 171.96259 
L 435.185871 181.048173 
L 435.626974 178.104113 
L 436.068078 157.665697 
L 436.509182 165.792244 
L 436.950285 167.414313 
L 437.391389 170.816657 
L 437.832493 175.382863 
L 438.273597 164.749904 
L 438.7147 173.755798 
L 439.155804 165.563805 
L 439.596908 170.560616 
L 440.038012 167.303656 
L 440.479115 153.314317 
L 440.920219 174.771517 
L 441.361323 150.016714 
L 441.802427 158.221677 
L 442.24353 161.504101 
L 442.684634 166.227535 
L 443.125738 155.482544 
L 443.566842 178.117571 
L 444.007945 170.05284 
L 444.449049 169.460484 
L 444.890153 155.992379 
L 445.331257 169.033827 
L 445.77236 166.225796 
L 446.213464 158.094778 
L 446.654568 177.182917 
L 447.095671 168.954578 
L 447.536775 165.800427 
L 447.977879 157.375221 
L 448.418983 157.020839 
L 448.860086 167.363323 
L 449.30119 169.894794 
L 449.742294 182.11581 
L 450.183398 183.984096 
L 450.624501 176.371176 
L 451.065605 156.225999 
L 451.506709 171.278588 
L 451.947813 179.831471 
L 452.388916 173.625587 
L 452.83002 169.462651 
L 453.271124 183.09779 
L 453.712228 178.407425 
L 454.153331 177.191087 
L 454.594435 170.047161 
L 455.035539 178.955418 
L 455.476642 171.406896 
L 455.917746 176.411425 
L 456.35885 186.964153 
L 456.799954 171.283137 
L 457.241057 166.664524 
L 457.682161 174.213832 
L 458.123265 178.133482 
L 459.005472 154.712458 
L 459.446576 183.652828 
L 459.88768 178.622517 
L 460.328784 165.002619 
L 460.769887 169.795703 
L 461.210991 162.560712 
L 461.652095 158.989704 
L 462.093199 166.550307 
L 462.534302 170.858042 
L 462.975406 170.547995 
L 463.41651 157.387109 
L 463.857614 178.03572 
L 464.298717 154.470019 
L 464.739821 163.709584 
L 465.180925 164.213744 
L 465.622028 161.40446 
L 466.063132 149.791065 
L 466.504236 163.413407 
L 466.94534 162.466602 
L 467.386443 161.074182 
L 467.827547 163.402082 
L 468.268651 153.393021 
L 469.150858 162.251911 
L 469.591962 171.443346 
L 470.033066 157.308153 
L 470.47417 157.161751 
L 470.915273 168.077388 
L 471.356377 173.255258 
L 471.797481 146.11598 
L 472.238585 147.251512 
L 472.679688 170.191295 
L 473.120792 166.659885 
L 473.561896 164.117894 
L 474.003 149.605832 
L 474.444103 167.468905 
L 474.885207 166.861675 
L 475.326311 162.938312 
L 475.767414 162.759196 
L 476.208518 170.521606 
L 476.649622 159.077078 
L 477.090726 159.83672 
L 477.531829 173.397117 
L 477.972933 159.156479 
L 478.414037 158.027201 
L 478.855141 156.053678 
L 479.296244 158.061434 
L 479.737348 148.678773 
L 480.178452 165.477042 
L 480.619556 165.063056 
L 481.060659 157.375599 
L 481.501763 158.787653 
L 481.942867 163.756799 
L 482.383971 154.277806 
L 482.825074 151.529357 
L 483.266178 154.948985 
L 483.707282 163.238971 
L 484.589489 152.348174 
L 485.030593 157.865347 
L 485.471697 161.411584 
L 485.9128 169.076494 
L 486.353904 142.897228 
L 486.795008 163.269186 
L 487.236112 159.024534 
L 487.677215 156.142536 
L 488.118319 149.369 
L 488.559423 159.080291 
L 489.000527 159.242282 
L 489.44163 168.502475 
L 489.882734 161.530829 
L 490.323838 169.701123 
L 491.206045 139.28092 
L 491.647149 151.185194 
L 492.088253 157.816867 
L 492.529357 172.694949 
L 492.97046 161.095944 
L 493.411564 164.058909 
L 493.852668 158.643335 
L 494.293771 149.133432 
L 494.734875 164.503071 
L 495.175979 169.545941 
L 495.617083 149.973426 
L 496.058186 175.589684 
L 496.49929 150.627089 
L 496.940394 163.508014 
L 497.381498 166.219818 
L 497.822601 157.808345 
L 498.263705 157.46873 
L 498.704809 170.042052 
L 499.145913 167.01321 
L 499.587016 160.988263 
L 500.02812 163.538735 
L 500.469224 161.046873 
L 500.910328 171.177907 
L 501.792535 158.943486 
L 502.233639 169.7702 
L 502.674743 169.004334 
L 503.115846 146.344814 
L 503.55695 149.431199 
L 503.998054 141.13502 
L 504.439157 161.011081 
L 504.880261 160.029262 
L 505.321365 159.708772 
L 505.762469 151.970505 
L 506.203572 167.40957 
L 506.644676 149.6481 
L 507.08578 158.836906 
L 507.526884 154.316864 
L 507.967987 168.613563 
L 508.409091 163.375965 
L 508.850195 168.276317 
L 509.291299 163.010578 
L 509.732402 175.763773 
L 510.173506 157.589051 
L 511.055714 152.178192 
L 511.496817 153.819627 
L 511.937921 162.578894 
L 512.379025 159.372608 
L 512.820129 166.357359 
L 513.261232 165.543001 
L 513.702336 167.652356 
L 514.584543 164.220838 
L 515.025647 157.651517 
L 515.466751 154.416332 
L 515.907855 145.607973 
L 516.348958 171.132055 
L 516.790062 165.000939 
L 517.231166 151.363597 
L 517.67227 161.14418 
L 518.113373 158.356929 
L 518.554477 158.693398 
L 518.995581 165.359569 
L 519.436685 148.230178 
L 519.877788 168.282065 
L 520.318892 149.239812 
L 520.759996 171.414236 
L 521.2011 159.787932 
L 521.642203 170.212172 
L 522.083307 157.868309 
L 522.524411 155.957376 
L 522.965515 158.896997 
L 523.406618 157.333039 
L 523.847722 161.808345 
L 524.288826 170.160776 
L 524.729929 168.211082 
L 525.171033 171.814255 
L 525.612137 164.312686 
L 526.053241 144.443106 
L 526.494344 158.267746 
L 526.935448 152.551769 
L 527.376552 152.314924 
L 527.817656 135.728726 
L 528.258759 157.336398 
L 528.699863 155.129547 
L 528.699863 155.129547 
" clip-path="url(#pbf94214ac2)" style="fill: none; stroke: #000000; stroke-width: 0.7; stroke-linecap: round"/>
   </g>
   <g id="line2d_17">
    <path d="M 109.210208 93.895266 
L 109.651311 93.397428 
L 110.533519 93.036624 
L 111.85683 91.793645 
L 112.297934 91.550526 
L 113.180141 91.376993 
L 114.503452 90.183138 
L 115.826764 90.714366 
L 116.267867 91.047778 
L 116.708971 91.526659 
L 117.591179 92.084632 
L 118.032282 92.501623 
L 118.473386 92.635628 
L 118.91449 92.578548 
L 119.355594 92.931262 
L 119.796697 92.992961 
L 120.678905 93.759927 
L 121.561112 93.93174 
L 122.002216 94.546297 
L 122.44332 94.720979 
L 124.207735 94.795865 
L 124.648838 94.872785 
L 125.531046 95.565408 
L 126.413253 95.978615 
L 126.854357 96.004416 
L 127.736565 95.532048 
L 128.177668 95.638834 
L 128.618772 95.578421 
L 129.50098 96.041409 
L 129.942083 96.19704 
L 130.824291 95.575623 
L 131.265395 95.767993 
L 131.706498 95.820705 
L 132.588706 96.192109 
L 134.353121 97.799775 
L 134.794224 97.992963 
L 135.235328 98.001018 
L 136.999743 100.722499 
L 137.881951 101.79953 
L 138.323054 101.975377 
L 139.205262 102.939276 
L 140.528573 104.788517 
L 141.410781 105.46003 
L 141.851884 106.051948 
L 142.292988 106.147393 
L 142.734092 106.101823 
L 145.380714 107.617061 
L 145.821818 108.368467 
L 146.262922 108.837827 
L 147.145129 108.787633 
L 147.586233 108.507396 
L 148.46844 108.84351 
L 148.909544 109.414129 
L 150.232855 110.082502 
L 150.673959 110.050646 
L 151.115063 110.191032 
L 151.99727 110.89887 
L 152.438374 111.128704 
L 153.320581 112.237412 
L 154.202789 112.816751 
L 155.084996 113.054088 
L 155.5261 112.979656 
L 156.408308 113.464569 
L 156.849411 113.95301 
L 157.290515 114.082799 
L 157.731619 113.910385 
L 159.05493 113.010854 
L 159.496034 112.921516 
L 159.937138 112.648261 
L 160.378241 112.592691 
L 161.260449 111.785798 
L 161.701553 111.315265 
L 162.142656 111.055148 
L 162.58376 111.066811 
L 163.024864 111.692674 
L 163.907071 112.446921 
L 164.348175 112.531487 
L 164.789279 112.999802 
L 165.671486 113.538917 
L 166.11259 113.62542 
L 166.994797 113.226367 
L 167.435901 113.277018 
L 167.877005 112.736758 
L 168.318109 112.540794 
L 168.759212 112.617648 
L 169.64142 113.707745 
L 170.082524 113.660304 
L 170.523627 113.751257 
L 170.964731 113.4636 
L 172.288042 115.74818 
L 173.17025 115.871176 
L 173.611353 116.141381 
L 174.052457 116.575282 
L 174.493561 117.244555 
L 174.934665 117.586146 
L 175.816872 117.654827 
L 176.257976 117.601877 
L 177.140183 117.892216 
L 178.022391 117.709106 
L 178.463495 117.872969 
L 178.904598 117.579361 
L 179.345702 117.755289 
L 180.22791 118.440124 
L 181.110117 119.023869 
L 181.551221 119.038607 
L 183.315636 119.750262 
L 183.756739 119.469834 
L 184.197843 119.512362 
L 184.638947 119.113958 
L 185.080051 118.50803 
L 185.521154 118.268396 
L 185.962258 118.212304 
L 186.403362 118.696145 
L 186.844466 118.622636 
L 187.285569 118.792305 
L 187.726673 119.10991 
L 188.167777 119.218947 
L 188.608881 119.630583 
L 189.491088 119.70982 
L 190.373296 119.695511 
L 190.814399 120.092195 
L 191.255503 119.673296 
L 191.696607 119.593402 
L 192.137711 119.684164 
L 192.578814 120.101141 
L 193.019918 120.290146 
L 193.461022 120.097447 
L 193.902125 119.707512 
L 194.343229 119.087507 
L 194.784333 119.200855 
L 195.225437 119.116009 
L 195.66654 118.901608 
L 196.107644 118.409865 
L 196.548748 118.233587 
L 198.313163 118.312002 
L 198.754267 118.700541 
L 199.19537 118.717016 
L 199.636474 119.268073 
L 200.077578 119.347983 
L 200.518682 118.867002 
L 201.400889 118.969346 
L 201.841993 118.661319 
L 202.283096 118.723352 
L 202.7242 118.631479 
L 203.165304 118.411518 
L 204.047511 118.692601 
L 204.488615 118.577839 
L 205.811926 119.357072 
L 206.25303 119.096659 
L 206.694134 118.979784 
L 207.135238 119.044132 
L 207.576341 118.894831 
L 208.458549 118.076008 
L 208.899653 118.019969 
L 209.340756 117.567562 
L 210.222964 117.116525 
L 210.664068 116.94374 
L 211.105171 117.056425 
L 211.987379 116.914662 
L 212.428482 117.072734 
L 212.869586 116.807373 
L 213.31069 116.733305 
L 214.192897 116.30335 
L 214.634001 115.832177 
L 215.075105 115.915299 
L 215.516209 115.458541 
L 215.957312 115.329759 
L 217.721727 114.107926 
L 218.162831 113.996945 
L 219.486142 113.022553 
L 220.36835 112.989852 
L 220.809454 112.50035 
L 221.691661 111.922843 
L 222.132765 111.861271 
L 222.573868 112.117653 
L 223.014972 111.924813 
L 223.89718 111.877634 
L 224.338283 111.821743 
L 224.779387 111.61108 
L 225.220491 111.83915 
L 227.867113 111.060791 
L 228.749321 111.443999 
L 230.072632 111.765077 
L 231.837047 112.632594 
L 232.719254 113.003569 
L 233.160358 113.605432 
L 233.601462 113.969349 
L 234.042566 114.589474 
L 234.924773 115.068858 
L 235.365877 115.554054 
L 236.248084 117.05357 
L 236.689188 117.50465 
L 237.130292 117.645548 
L 237.571396 118.124831 
L 238.012499 118.19944 
L 238.894707 119.121578 
L 240.659122 120.944306 
L 241.100225 121.431934 
L 241.982433 122.671051 
L 242.423537 123.19869 
L 242.86464 123.467223 
L 243.305744 123.989156 
L 244.187952 124.654429 
L 244.629055 124.879467 
L 245.070159 125.408814 
L 246.39347 125.715165 
L 246.834574 125.714645 
L 247.275678 125.542275 
L 247.716782 125.70217 
L 248.157885 125.630663 
L 249.481197 126.113643 
L 249.9223 126.805266 
L 250.363404 126.77218 
L 251.245611 127.43777 
L 253.45113 128.925907 
L 254.333338 129.135842 
L 254.774441 129.139389 
L 255.215545 128.979522 
L 255.656649 129.093095 
L 256.097753 128.903412 
L 256.538856 128.892092 
L 256.97996 128.656819 
L 257.421064 128.730308 
L 257.862168 128.473184 
L 259.185479 128.185333 
L 259.626583 128.453509 
L 260.50879 128.658589 
L 260.949894 128.947478 
L 261.832101 128.947071 
L 263.596516 129.013323 
L 264.478724 128.677968 
L 265.802035 129.710543 
L 266.243139 129.911274 
L 266.684242 130.412438 
L 268.007554 131.312305 
L 268.448657 131.350418 
L 268.889761 131.559411 
L 269.771969 131.682729 
L 270.654176 131.796456 
L 271.09528 132.117855 
L 271.536383 132.165928 
L 271.977487 131.951645 
L 273.300798 132.341281 
L 273.741902 132.488114 
L 275.506317 132.161382 
L 277.270732 132.733523 
L 277.711836 132.832212 
L 278.594043 133.414132 
L 279.035147 133.867545 
L 279.476251 133.756464 
L 279.917354 134.417906 
L 280.799562 135.199661 
L 282.122873 136.376364 
L 282.563977 136.199101 
L 283.005081 136.330015 
L 283.446184 136.609662 
L 283.887288 136.641372 
L 284.328392 136.897446 
L 285.210599 136.628238 
L 285.651703 136.599927 
L 286.092807 136.740891 
L 287.857222 135.938734 
L 288.298326 136.029301 
L 288.739429 135.294239 
L 289.180533 135.215946 
L 289.621637 134.793234 
L 290.06274 134.766767 
L 290.503844 135.411691 
L 291.386052 136.011444 
L 291.827155 135.824803 
L 292.709363 136.28012 
L 293.150467 136.328471 
L 293.59157 136.544412 
L 294.032674 136.351521 
L 295.355985 136.352953 
L 296.238193 136.575006 
L 296.679297 136.794039 
L 297.561504 136.888571 
L 298.002608 137.111216 
L 298.443712 136.855593 
L 298.884815 137.126337 
L 299.767023 136.938489 
L 301.090334 135.968651 
L 301.531438 136.013053 
L 301.972541 135.125071 
L 302.413645 134.662519 
L 302.854749 134.03329 
L 303.295853 133.602992 
L 303.736956 132.985937 
L 304.17806 132.630963 
L 304.619164 132.78603 
L 305.060268 132.29361 
L 305.501371 132.354215 
L 305.942475 132.773486 
L 306.383579 132.495984 
L 306.824683 132.614083 
L 307.265786 132.586113 
L 307.70689 132.884314 
L 308.147994 132.90163 
L 309.030201 133.39181 
L 309.912409 133.478127 
L 310.353512 133.318377 
L 310.794616 133.756346 
L 311.23572 133.64579 
L 311.676824 134.383019 
L 313.441239 135.056932 
L 313.882342 135.303602 
L 314.76455 134.905925 
L 315.646757 134.869122 
L 316.970069 135.591177 
L 317.852276 135.619122 
L 318.29338 135.787901 
L 318.734484 135.585871 
L 319.616691 135.834508 
L 320.057795 135.610714 
L 320.498898 136.105814 
L 320.940002 135.950722 
L 321.82221 136.07635 
L 322.263313 136.530144 
L 322.704417 136.569656 
L 323.145521 137.054466 
L 323.586625 137.241799 
L 324.027728 137.823602 
L 324.468832 138.208442 
L 324.909936 138.794555 
L 325.792143 139.207868 
L 326.233247 139.2007 
L 326.674351 139.809583 
L 327.115455 140.11163 
L 328.879869 139.764945 
L 329.320973 140.023353 
L 329.762077 139.855851 
L 330.644284 139.937452 
L 331.526492 139.317347 
L 332.849803 139.250982 
L 333.290907 138.959109 
L 333.732011 138.505319 
L 334.173114 138.404395 
L 334.614218 138.054482 
L 335.055322 137.864967 
L 335.937529 137.955878 
L 336.378633 138.585255 
L 337.260841 139.292948 
L 338.584152 139.560802 
L 339.025255 139.745185 
L 339.907463 139.686131 
L 340.348567 139.3516 
L 340.78967 139.514542 
L 341.230774 139.544448 
L 341.671878 139.265647 
L 342.112982 139.434537 
L 342.554085 139.184746 
L 342.995189 138.786086 
L 343.436293 138.955257 
L 344.3185 138.542515 
L 345.200708 139.295992 
L 345.641812 139.511646 
L 346.082915 139.424887 
L 346.965123 138.489297 
L 347.84733 138.486208 
L 348.288434 138.748769 
L 348.729538 138.579455 
L 349.170641 139.032751 
L 349.611745 139.131901 
L 350.052849 139.11007 
L 350.935056 140.183372 
L 351.817264 140.534779 
L 353.140575 141.341964 
L 354.463886 143.155601 
L 354.90499 143.537699 
L 355.787198 144.968212 
L 356.228301 145.57267 
L 357.110509 146.315106 
L 357.551613 146.418367 
L 357.992716 146.845201 
L 359.316027 147.045193 
L 359.757131 147.374689 
L 360.639339 147.735044 
L 361.080442 148.009422 
L 361.521546 148.633044 
L 361.96265 148.700916 
L 362.403754 149.585147 
L 363.285961 150.602236 
L 363.727065 151.467221 
L 364.168169 151.935608 
L 364.609272 152.586152 
L 365.050376 153.480501 
L 365.49148 153.82849 
L 365.932584 154.525884 
L 366.373687 154.764481 
L 367.696998 155.013023 
L 368.138102 155.312207 
L 369.902517 157.910183 
L 370.343621 158.134805 
L 370.784725 158.092199 
L 371.225828 158.279646 
L 371.666932 158.800715 
L 373.431347 159.165204 
L 373.872451 159.391501 
L 374.313555 159.41359 
L 375.636866 160.25292 
L 376.519073 159.732006 
L 376.960177 160.017239 
L 377.842384 159.989586 
L 378.724592 160.358444 
L 380.047903 161.529445 
L 380.930111 162.144225 
L 381.371214 162.134984 
L 381.812318 162.28655 
L 382.253422 162.654435 
L 383.135629 163.015868 
L 383.576733 163.080522 
L 384.017837 163.66133 
L 384.458941 163.601 
L 384.900044 163.781506 
L 385.341148 164.318082 
L 385.782252 164.408006 
L 386.223356 164.189753 
L 387.105563 164.626285 
L 389.311082 166.38373 
L 389.752185 166.416349 
L 390.634393 167.584103 
L 392.398808 168.248632 
L 393.281015 168.693581 
L 393.722119 168.551777 
L 394.604327 169.05048 
L 395.486534 168.894301 
L 395.927638 168.673769 
L 396.368742 168.823998 
L 397.250949 168.748986 
L 397.692053 168.775646 
L 399.015364 169.3947 
L 399.456468 169.328403 
L 401.661986 167.996428 
L 402.544194 168.039599 
L 403.867505 168.591904 
L 404.308609 168.655529 
L 405.63192 169.130296 
L 406.073024 168.990182 
L 406.514127 169.156618 
L 406.955231 169.143388 
L 407.396335 168.505806 
L 407.837439 168.519823 
L 408.278542 168.743639 
L 409.16075 168.711792 
L 410.042957 167.831536 
L 410.484061 168.193506 
L 410.925165 167.708719 
L 411.366269 167.62184 
L 411.807372 167.670892 
L 412.248476 166.934603 
L 413.571787 166.336907 
L 414.453995 166.153261 
L 414.895099 166.547516 
L 415.336202 166.788633 
L 415.777306 166.75575 
L 416.21841 166.87237 
L 417.100617 167.457749 
L 417.541721 167.604613 
L 417.982825 167.92768 
L 418.423928 168.040781 
L 419.306136 167.624291 
L 419.74724 167.725046 
L 421.070551 167.407528 
L 421.511655 167.774467 
L 421.952758 167.708868 
L 423.717173 168.393835 
L 425.481588 166.984329 
L 425.922692 166.741661 
L 426.363796 166.666436 
L 426.804899 166.378723 
L 427.246003 166.45531 
L 428.128211 166.180873 
L 429.010418 165.719577 
L 429.451522 165.903446 
L 429.892626 165.503965 
L 430.774833 165.375284 
L 431.215937 165.228298 
L 432.098144 165.815548 
L 432.539248 165.384749 
L 432.980352 165.678923 
L 433.421456 165.698642 
L 434.303663 166.567068 
L 434.744767 166.657597 
L 435.185871 167.115657 
L 435.626974 167.288907 
L 436.068078 167.075007 
L 436.509182 167.243942 
L 437.391389 166.728005 
L 437.832493 167.090667 
L 439.155804 166.846725 
L 440.038012 166.903118 
L 440.479115 166.558204 
L 440.920219 166.897722 
L 441.361323 166.899949 
L 441.802427 166.539512 
L 442.684634 166.656546 
L 443.125738 166.386735 
L 443.566842 166.423522 
L 444.007945 166.791628 
L 444.449049 166.972014 
L 444.890153 166.691788 
L 445.77236 166.672476 
L 446.213464 166.66381 
L 447.095671 167.285559 
L 447.536775 167.517344 
L 447.977879 167.405132 
L 448.418983 167.035472 
L 448.860086 167.037365 
L 449.30119 166.842499 
L 449.742294 166.909907 
L 450.183398 167.410158 
L 450.624501 167.70054 
L 451.065605 167.489427 
L 451.506709 167.486736 
L 451.947813 168.069662 
L 452.388916 168.276267 
L 452.83002 168.340542 
L 453.271124 168.762896 
L 455.476642 169.481052 
L 455.917746 169.296741 
L 456.35885 169.596773 
L 456.799954 169.498518 
L 457.241057 169.210845 
L 457.682161 169.133039 
L 458.123265 169.542395 
L 458.564369 169.578972 
L 459.005472 169.324935 
L 459.446576 169.581658 
L 460.328784 169.651506 
L 461.210991 169.512242 
L 461.652095 169.280824 
L 462.093199 169.265757 
L 462.534302 169.616631 
L 462.975406 169.532161 
L 463.41651 169.679569 
L 463.857614 170.07585 
L 464.739821 169.884809 
L 465.180925 170.059433 
L 466.063132 169.319935 
L 466.504236 169.198994 
L 466.94534 169.328478 
L 467.827547 169.112811 
L 468.268651 169.018776 
L 468.709755 168.635878 
L 469.150858 168.501824 
L 470.033066 168.613341 
L 471.356377 168.69765 
L 472.238585 167.243002 
L 472.679688 167.119404 
L 473.120792 167.328082 
L 473.561896 167.184868 
L 474.003 166.580355 
L 474.885207 166.405202 
L 475.767414 165.689048 
L 476.649622 165.336257 
L 477.090726 164.953883 
L 477.531829 164.993687 
L 477.972933 164.648588 
L 478.414037 164.069849 
L 480.178452 162.829368 
L 481.060659 162.83147 
L 481.501763 162.334167 
L 482.825074 161.457029 
L 483.266178 161.304795 
L 483.707282 161.38978 
L 484.148386 161.219264 
L 485.030593 160.595413 
L 485.471697 160.675903 
L 486.795008 160.256455 
L 488.559423 159.952328 
L 489.000527 159.887842 
L 489.44163 160.036408 
L 489.882734 159.998983 
L 490.323838 160.325145 
L 490.764942 160.287366 
L 491.647149 159.422783 
L 492.088253 159.432957 
L 492.529357 159.743621 
L 493.411564 159.420065 
L 493.852668 159.670612 
L 494.293771 159.708251 
L 494.734875 159.594486 
L 495.175979 159.652208 
L 495.617083 159.369318 
L 496.058186 159.888995 
L 496.49929 159.552159 
L 496.940394 159.485086 
L 497.381498 159.550716 
L 497.822601 159.451699 
L 498.263705 159.190641 
L 499.145913 159.553471 
L 499.587016 159.305293 
L 500.469224 159.453332 
L 500.910328 159.755817 
L 502.674743 160.254917 
L 503.55695 159.847173 
L 503.998054 159.394737 
L 505.321365 159.794596 
L 505.762469 159.569227 
L 506.203572 159.756929 
L 507.967987 159.571205 
L 508.409091 159.98078 
L 509.291299 160.160643 
L 509.732402 160.553068 
L 510.173506 160.717469 
L 511.055714 160.485511 
L 511.496817 160.191854 
L 511.937921 160.212815 
L 512.379025 160.006245 
L 512.820129 160.21041 
L 513.261232 160.735652 
L 513.702336 161.064995 
L 514.14344 161.228831 
L 515.907855 160.536902 
L 516.348958 160.976874 
L 516.790062 160.986832 
L 517.231166 160.623185 
L 517.67227 160.8466 
L 518.113373 160.501945 
L 518.554477 160.663271 
L 518.995581 160.700302 
L 519.436685 160.340509 
L 519.877788 160.549984 
L 520.318892 160.385405 
L 520.759996 160.412849 
L 521.2011 160.268343 
L 521.642203 160.452822 
L 522.524411 160.237623 
L 523.406618 159.848319 
L 524.288826 159.913428 
L 524.729929 159.897563 
L 525.171033 160.406952 
L 525.612137 160.704581 
L 526.053241 160.770743 
L 526.935448 160.566327 
L 527.376552 160.41845 
L 528.258759 159.892151 
L 528.699863 160.00178 
L 528.699863 160.00178 
" clip-path="url(#pbf94214ac2)" style="fill: none; stroke-dasharray: 2.96,1.28; stroke-dashoffset: 0; stroke: #ff0000; stroke-width: 0.8"/>
   </g>
   <g id="patch_3">
    <path d="M 65.540937 200.648125 
L 65.540937 56.561804 
" style="fill: none; stroke: #ffffff; stroke-width: 1.25; stroke-linejoin: miter; stroke-linecap: square"/>
   </g>
   <g id="patch_4">
    <path d="M 550.75505 200.648125 
L 550.75505 56.561804 
" style="fill: none; stroke: #ffffff; stroke-width: 1.25; stroke-linejoin: miter; stroke-linecap: square"/>
   </g>
   <g id="patch_5">
    <path d="M 65.540938 200.648125 
L 550.75505 200.648125 
" style="fill: none; stroke: #ffffff; stroke-width: 1.25; stroke-linejoin: miter; stroke-linecap: square"/>
   </g>
   <g id="patch_6">
    <path d="M 65.540938 56.561804 
L 550.75505 56.561804 
" style="fill: none; stroke: #ffffff; stroke-width: 1.25; stroke-linejoin: miter; stroke-linecap: square"/>
   </g>
   <g id="legend_1">
    <g id="patch_7">
     <path d="M 478.915363 196.148125 
L 544.45505 196.148125 
Q 546.25505 196.148125 546.25505 194.348125 
L 546.25505 168.8275 
Q 546.25505 167.0275 544.45505 167.0275 
L 478.915363 167.0275 
Q 477.115363 167.0275 477.115363 168.8275 
L 477.115363 194.348125 
Q 477.115363 196.148125 478.915363 196.148125 
z
" style="fill: #eaeaf2; opacity: 0.8; stroke: #cccccc; stroke-linejoin: miter"/>
    </g>
    <g id="line2d_18">
     <path d="M 480.715363 174.316094 
L 489.715363 174.316094 
L 498.715363 174.316094 
" style="fill: none; stroke: #000000; stroke-width: 0.7; stroke-linecap: round"/>
    </g>
    <g id="text_18">
     <!-- TDC -->
     <g style="fill: #262626" transform="translate(505.915363 177.466094)scale(0.09 -0.09)">
      <defs>
       <path id="DejaVuSans-54" d="M -19 4666 
L 3928 4666 
L 3928 4134 
L 2272 4134 
L 2272 0 
L 1638 0 
L 1638 4134 
L -19 4134 
L -19 4666 
z
" transform="scale(0.015625)"/>
       <path id="DejaVuSans-44" d="M 1259 4147 
L 1259 519 
L 2022 519 
Q 2988 519 3436 956 
Q 3884 1394 3884 2338 
Q 3884 3275 3436 3711 
Q 2988 4147 2022 4147 
L 1259 4147 
z
M 628 4666 
L 1925 4666 
Q 3281 4666 3915 4102 
Q 4550 3538 4550 2338 
Q 4550 1131 3912 565 
Q 3275 0 1925 0 
L 628 0 
L 628 4666 
z
" transform="scale(0.015625)"/>
       <path id="DejaVuSans-43" d="M 4122 4306 
L 4122 3641 
Q 3803 3938 3442 4084 
Q 3081 4231 2675 4231 
Q 1875 4231 1450 3742 
Q 1025 3253 1025 2328 
Q 1025 1406 1450 917 
Q 1875 428 2675 428 
Q 3081 428 3442 575 
Q 3803 722 4122 1019 
L 4122 359 
Q 3791 134 3420 21 
Q 3050 -91 2638 -91 
Q 1578 -91 968 557 
Q 359 1206 359 2328 
Q 359 3453 968 4101 
Q 1578 4750 2638 4750 
Q 3056 4750 3426 4639 
Q 3797 4528 4122 4306 
z
" transform="scale(0.015625)"/>
      </defs>
      <use xlink:href="#DejaVuSans-54"/>
      <use xlink:href="#DejaVuSans-44" x="61.083984"/>
      <use xlink:href="#DejaVuSans-43" x="138.085938"/>
     </g>
    </g>
    <g id="line2d_19">
     <path d="M 480.715363 187.526406 
L 489.715363 187.526406 
L 498.715363 187.526406 
" style="fill: none; stroke-dasharray: 2.96,1.28; stroke-dashoffset: 0; stroke: #ff0000; stroke-width: 0.8"/>
    </g>
    <g id="text_19">
     <!-- Mov. Av. -->
     <g style="fill: #262626" transform="translate(505.915363 190.676406)scale(0.09 -0.09)">
      <defs>
       <path id="DejaVuSans-4d" d="M 628 4666 
L 1569 4666 
L 2759 1491 
L 3956 4666 
L 4897 4666 
L 4897 0 
L 4281 0 
L 4281 4097 
L 3078 897 
L 2444 897 
L 1241 4097 
L 1241 0 
L 628 0 
L 628 4666 
z
" transform="scale(0.015625)"/>
       <path id="DejaVuSans-76" d="M 191 3500 
L 800 3500 
L 1894 563 
L 2988 3500 
L 3597 3500 
L 2284 0 
L 1503 0 
L 191 3500 
z
" transform="scale(0.015625)"/>
       <path id="DejaVuSans-2e" d="M 684 794 
L 1344 794 
L 1344 0 
L 684 0 
L 684 794 
z
" transform="scale(0.015625)"/>
       <path id="DejaVuSans-41" d="M 2188 4044 
L 1331 1722 
L 3047 1722 
L 2188 4044 
z
M 1831 4666 
L 2547 4666 
L 4325 0 
L 3669 0 
L 3244 1197 
L 1141 1197 
L 716 0 
L 50 0 
L 1831 4666 
z
" transform="scale(0.015625)"/>
      </defs>
      <use xlink:href="#DejaVuSans-4d"/>
      <use xlink:href="#DejaVuSans-6f" x="86.279297"/>
      <use xlink:href="#DejaVuSans-76" x="147.460938"/>
      <use xlink:href="#DejaVuSans-2e" x="198.890625"/>
      <use xlink:href="#DejaVuSans-20" x="230.677734"/>
      <use xlink:href="#DejaVuSans-41" x="262.464844"/>
      <use xlink:href="#DejaVuSans-76" x="324.998047"/>
      <use xlink:href="#DejaVuSans-2e" x="376.427734"/>
     </g>
    </g>
   </g>
  </g>
  <g id="text_20">
   <!-- Energetic Components [Per-residue] -->
   <g style="fill: #262626" transform="translate(161.55375 15.605813)scale(0.14 -0.14)">
    <defs>
     <path id="DejaVuSans-74" d="M 1172 4494 
L 1172 3500 
L 2356 3500 
L 2356 3053 
L 1172 3053 
L 1172 1153 
Q 1172 725 1289 603 
Q 1406 481 1766 481 
L 2356 481 
L 2356 0 
L 1766 0 
Q 1100 0 847 248 
Q 594 497 594 1153 
L 594 3053 
L 172 3053 
L 172 3500 
L 594 3500 
L 594 4494 
L 1172 4494 
z
" transform="scale(0.015625)"/>
     <path id="DejaVuSans-69" d="M 603 3500 
L 1178 3500 
L 1178 0 
L 603 0 
L 603 3500 
z
M 603 4863 
L 1178 4863 
L 1178 4134 
L 603 4134 
L 603 4863 
z
" transform="scale(0.015625)"/>
     <path id="DejaVuSans-70" d="M 1159 525 
L 1159 -1331 
L 581 -1331 
L 581 3500 
L 1159 3500 
L 1159 2969 
Q 1341 3281 1617 3432 
Q 1894 3584 2278 3584 
Q 2916 3584 3314 3078 
Q 3713 2572 3713 1747 
Q 3713 922 3314 415 
Q 2916 -91 2278 -91 
Q 1894 -91 1617 61 
Q 1341 213 1159 525 
z
M 3116 1747 
Q 3116 2381 2855 2742 
Q 2594 3103 2138 3103 
Q 1681 3103 1420 2742 
Q 1159 2381 1159 1747 
Q 1159 1113 1420 752 
Q 1681 391 2138 391 
Q 2594 391 2855 752 
Q 3116 1113 3116 1747 
z
" transform="scale(0.015625)"/>
     <path id="DejaVuSans-5b" d="M 550 4863 
L 1875 4863 
L 1875 4416 
L 1125 4416 
L 1125 -397 
L 1875 -397 
L 1875 -844 
L 550 -844 
L 550 4863 
z
" transform="scale(0.015625)"/>
     <path id="DejaVuSans-50" d="M 1259 4147 
L 1259 2394 
L 2053 2394 
Q 2494 2394 2734 2622 
Q 2975 2850 2975 3272 
Q 2975 3691 2734 3919 
Q 2494 4147 2053 4147 
L 1259 4147 
z
M 628 4666 
L 2053 4666 
Q 2838 4666 3239 4311 
Q 3641 3956 3641 3272 
Q 3641 2581 3239 2228 
Q 2838 1875 2053 1875 
L 1259 1875 
L 1259 0 
L 628 0 
L 628 4666 
z
" transform="scale(0.015625)"/>
     <path id="DejaVuSans-2d" d="M 313 2009 
L 1997 2009 
L 1997 1497 
L 313 1497 
L 313 2009 
z
" transform="scale(0.015625)"/>
     <path id="DejaVuSans-64" d="M 2906 2969 
L 2906 4863 
L 3481 4863 
L 3481 0 
L 2906 0 
L 2906 525 
Q 2725 213 2448 61 
Q 2172 -91 1784 -91 
Q 1150 -91 751 415 
Q 353 922 353 1747 
Q 353 2572 751 3078 
Q 1150 3584 1784 3584 
Q 2172 3584 2448 3432 
Q 2725 3281 2906 2969 
z
M 947 1747 
Q 947 1113 1208 752 
Q 1469 391 1925 391 
Q 2381 391 2643 752 
Q 2906 1113 2906 1747 
Q 2906 2381 2643 2742 
Q 2381 3103 1925 3103 
Q 1469 3103 1208 2742 
Q 947 2381 947 1747 
z
" transform="scale(0.015625)"/>
     <path id="DejaVuSans-75" d="M 544 1381 
L 544 3500 
L 1119 3500 
L 1119 1403 
Q 1119 906 1312 657 
Q 1506 409 1894 409 
Q 2359 409 2629 706 
Q 2900 1003 2900 1516 
L 2900 3500 
L 3475 3500 
L 3475 0 
L 2900 0 
L 2900 538 
Q 2691 219 2414 64 
Q 2138 -91 1772 -91 
Q 1169 -91 856 284 
Q 544 659 544 1381 
z
M 1991 3584 
L 1991 3584 
z
" transform="scale(0.015625)"/>
     <path id="DejaVuSans-5d" d="M 1947 4863 
L 1947 -844 
L 622 -844 
L 622 -397 
L 1369 -397 
L 1369 4416 
L 622 4416 
L 622 4863 
L 1947 4863 
z
" transform="scale(0.015625)"/>
    </defs>
    <use xlink:href="#DejaVuSans-45"/>
    <use xlink:href="#DejaVuSans-6e" x="63.183594"/>
    <use xlink:href="#DejaVuSans-65" x="126.5625"/>
    <use xlink:href="#DejaVuSans-72" x="188.085938"/>
    <use xlink:href="#DejaVuSans-67" x="227.449219"/>
    <use xlink:href="#DejaVuSans-65" x="290.925781"/>
    <use xlink:href="#DejaVuSans-74" x="352.449219"/>
    <use xlink:href="#DejaVuSans-69" x="391.658203"/>
    <use xlink:href="#DejaVuSans-63" x="419.441406"/>
    <use xlink:href="#DejaVuSans-20" x="474.421875"/>
    <use xlink:href="#DejaVuSans-43" x="506.208984"/>
    <use xlink:href="#DejaVuSans-6f" x="576.033203"/>
    <use xlink:href="#DejaVuSans-6d" x="637.214844"/>
    <use xlink:href="#DejaVuSans-70" x="734.626953"/>
    <use xlink:href="#DejaVuSans-6f" x="798.103516"/>
    <use xlink:href="#DejaVuSans-6e" x="859.285156"/>
    <use xlink:href="#DejaVuSans-65" x="922.664062"/>
    <use xlink:href="#DejaVuSans-6e" x="984.1875"/>
    <use xlink:href="#DejaVuSans-74" x="1047.566406"/>
    <use xlink:href="#DejaVuSans-73" x="1086.775391"/>
    <use xlink:href="#DejaVuSans-20" x="1138.875"/>
    <use xlink:href="#DejaVuSans-5b" x="1170.662109"/>
    <use xlink:href="#DejaVuSans-50" x="1209.675781"/>
    <use xlink:href="#DejaVuSans-65" x="1266.353516"/>
    <use xlink:href="#DejaVuSans-72" x="1327.876953"/>
    <use xlink:href="#DejaVuSans-2d" x="1362.615234"/>
    <use xlink:href="#DejaVuSans-72" x="1398.699219"/>
    <use xlink:href="#DejaVuSans-65" x="1437.5625"/>
    <use xlink:href="#DejaVuSans-73" x="1499.085938"/>
    <use xlink:href="#DejaVuSans-69" x="1551.185547"/>
    <use xlink:href="#DejaVuSans-64" x="1578.96875"/>
    <use xlink:href="#DejaVuSans-75" x="1642.445312"/>
    <use xlink:href="#DejaVuSans-65" x="1705.824219"/>
    <use xlink:href="#DejaVuSans-5d" x="1767.347656"/>
   </g>
   <!-- System-1 | NORMAL | GB | Delta | TDC -->
   <g style="fill: #262626" transform="translate(153.892031 31.35625)scale(0.14 -0.14)">
    <defs>
     <path id="DejaVuSans-53" d="M 3425 4513 
L 3425 3897 
Q 3066 4069 2747 4153 
Q 2428 4238 2131 4238 
Q 1616 4238 1336 4038 
Q 1056 3838 1056 3469 
Q 1056 3159 1242 3001 
Q 1428 2844 1947 2747 
L 2328 2669 
Q 3034 2534 3370 2195 
Q 3706 1856 3706 1288 
Q 3706 609 3251 259 
Q 2797 -91 1919 -91 
Q 1588 -91 1214 -16 
Q 841 59 441 206 
L 441 856 
Q 825 641 1194 531 
Q 1563 422 1919 422 
Q 2459 422 2753 634 
Q 3047 847 3047 1241 
Q 3047 1584 2836 1778 
Q 2625 1972 2144 2069 
L 1759 2144 
Q 1053 2284 737 2584 
Q 422 2884 422 3419 
Q 422 4038 858 4394 
Q 1294 4750 2059 4750 
Q 2388 4750 2728 4690 
Q 3069 4631 3425 4513 
z
" transform="scale(0.015625)"/>
     <path id="DejaVuSans-7c" d="M 1344 4891 
L 1344 -1509 
L 813 -1509 
L 813 4891 
L 1344 4891 
z
" transform="scale(0.015625)"/>
     <path id="DejaVuSans-4e" d="M 628 4666 
L 1478 4666 
L 3547 763 
L 3547 4666 
L 4159 4666 
L 4159 0 
L 3309 0 
L 1241 3903 
L 1241 0 
L 628 0 
L 628 4666 
z
" transform="scale(0.015625)"/>
     <path id="DejaVuSans-4f" d="M 2522 4238 
Q 1834 4238 1429 3725 
Q 1025 3213 1025 2328 
Q 1025 1447 1429 934 
Q 1834 422 2522 422 
Q 3209 422 3611 934 
Q 4013 1447 4013 2328 
Q 4013 3213 3611 3725 
Q 3209 4238 2522 4238 
z
M 2522 4750 
Q 3503 4750 4090 4092 
Q 4678 3434 4678 2328 
Q 4678 1225 4090 567 
Q 3503 -91 2522 -91 
Q 1538 -91 948 565 
Q 359 1222 359 2328 
Q 359 3434 948 4092 
Q 1538 4750 2522 4750 
z
" transform="scale(0.015625)"/>
     <path id="DejaVuSans-52" d="M 2841 2188 
Q 3044 2119 3236 1894 
Q 3428 1669 3622 1275 
L 4263 0 
L 3584 0 
L 2988 1197 
Q 2756 1666 2539 1819 
Q 2322 1972 1947 1972 
L 1259 1972 
L 1259 0 
L 628 0 
L 628 4666 
L 2053 4666 
Q 2853 4666 3247 4331 
Q 3641 3997 3641 3322 
Q 3641 2881 3436 2590 
Q 3231 2300 2841 2188 
z
M 1259 4147 
L 1259 2491 
L 2053 2491 
Q 2509 2491 2742 2702 
Q 2975 2913 2975 3322 
Q 2975 3731 2742 3939 
Q 2509 4147 2053 4147 
L 1259 4147 
z
" transform="scale(0.015625)"/>
     <path id="DejaVuSans-4c" d="M 628 4666 
L 1259 4666 
L 1259 531 
L 3531 531 
L 3531 0 
L 628 0 
L 628 4666 
z
" transform="scale(0.015625)"/>
     <path id="DejaVuSans-47" d="M 3809 666 
L 3809 1919 
L 2778 1919 
L 2778 2438 
L 4434 2438 
L 4434 434 
Q 4069 175 3628 42 
Q 3188 -91 2688 -91 
Q 1594 -91 976 548 
Q 359 1188 359 2328 
Q 359 3472 976 4111 
Q 1594 4750 2688 4750 
Q 3144 4750 3555 4637 
Q 3966 4525 4313 4306 
L 4313 3634 
Q 3963 3931 3569 4081 
Q 3175 4231 2741 4231 
Q 1884 4231 1454 3753 
Q 1025 3275 1025 2328 
Q 1025 1384 1454 906 
Q 1884 428 2741 428 
Q 3075 428 3337 486 
Q 3600 544 3809 666 
z
" transform="scale(0.015625)"/>
     <path id="DejaVuSans-42" d="M 1259 2228 
L 1259 519 
L 2272 519 
Q 2781 519 3026 730 
Q 3272 941 3272 1375 
Q 3272 1813 3026 2020 
Q 2781 2228 2272 2228 
L 1259 2228 
z
M 1259 4147 
L 1259 2741 
L 2194 2741 
Q 2656 2741 2882 2914 
Q 3109 3088 3109 3444 
Q 3109 3797 2882 3972 
Q 2656 4147 2194 4147 
L 1259 4147 
z
M 628 4666 
L 2241 4666 
Q 2963 4666 3353 4366 
Q 3744 4066 3744 3513 
Q 3744 3084 3544 2831 
Q 3344 2578 2956 2516 
Q 3422 2416 3680 2098 
Q 3938 1781 3938 1306 
Q 3938 681 3513 340 
Q 3088 0 2303 0 
L 628 0 
L 628 4666 
z
" transform="scale(0.015625)"/>
    </defs>
    <use xlink:href="#DejaVuSans-53"/>
    <use xlink:href="#DejaVuSans-79" x="63.476562"/>
    <use xlink:href="#DejaVuSans-73" x="122.65625"/>
    <use xlink:href="#DejaVuSans-74" x="174.755859"/>
    <use xlink:href="#DejaVuSans-65" x="213.964844"/>
    <use xlink:href="#DejaVuSans-6d" x="275.488281"/>
    <use xlink:href="#DejaVuSans-2d" x="372.900391"/>
    <use xlink:href="#DejaVuSans-31" x="408.984375"/>
    <use xlink:href="#DejaVuSans-20" x="472.607422"/>
    <use xlink:href="#DejaVuSans-7c" x="504.394531"/>
    <use xlink:href="#DejaVuSans-20" x="538.085938"/>
    <use xlink:href="#DejaVuSans-4e" x="569.873047"/>
    <use xlink:href="#DejaVuSans-4f" x="644.677734"/>
    <use xlink:href="#DejaVuSans-52" x="723.388672"/>
    <use xlink:href="#DejaVuSans-4d" x="792.871094"/>
    <use xlink:href="#DejaVuSans-41" x="879.150391"/>
    <use xlink:href="#DejaVuSans-4c" x="947.558594"/>
    <use xlink:href="#DejaVuSans-20" x="1003.271484"/>
    <use xlink:href="#DejaVuSans-7c" x="1035.058594"/>
    <use xlink:href="#DejaVuSans-20" x="1068.75"/>
    <use xlink:href="#DejaVuSans-47" x="1100.537109"/>
    <use xlink:href="#DejaVuSans-42" x="1178.027344"/>
    <use xlink:href="#DejaVuSans-20" x="1246.630859"/>
    <use xlink:href="#DejaVuSans-7c" x="1278.417969"/>
    <use xlink:href="#DejaVuSans-20" x="1312.109375"/>
    <use xlink:href="#DejaVuSans-44" x="1343.896484"/>
    <use xlink:href="#DejaVuSans-65" x="1420.898438"/>
    <use xlink:href="#DejaVuSans-6c" x="1482.421875"/>
    <use xlink:href="#DejaVuSans-74" x="1510.205078"/>
    <use xlink:href="#DejaVuSans-61" x="1549.414062"/>
    <use xlink:href="#DejaVuSans-20" x="1610.693359"/>
    <use xlink:href="#DejaVuSans-7c" x="1642.480469"/>
    <use xlink:href="#DejaVuSans-20" x="1676.171875"/>
    <use xlink:href="#DejaVuSans-54" x="1707.958984"/>
    <use xlink:href="#DejaVuSans-44" x="1769.042969"/>
    <use xlink:href="#DejaVuSans-43" x="1846.044922"/>
   </g>
  </g>
 </g>
 <defs>
  <clipPath id="pbf94214ac2">
   <rect x="65.540937" y="56.561804" width="485.214113" height="144.086321"/>
  </clipPath>
 </defs>
</svg>
