<?xml version="1.0" encoding="utf-8" standalone="no"?>
<!DOCTYPE svg PUBLIC "-//W3C//DTD SVG 1.1//EN"
  "http://www.w3.org/Graphics/SVG/1.1/DTD/svg11.dtd">
<svg xmlns:xlink="http://www.w3.org/1999/xlink" width="576pt" height="248.4pt" viewBox="0 0 576 248.4" xmlns="http://www.w3.org/2000/svg" version="1.1">
 <metadata>
  <rdf:RDF xmlns:dc="http://purl.org/dc/elements/1.1/" xmlns:cc="http://creativecommons.org/ns#" xmlns:rdf="http://www.w3.org/1999/02/22-rdf-syntax-ns#">
   <cc:Work>
    <dc:type rdf:resource="http://purl.org/dc/dcmitype/StillImage"/>
    <dc:date>2024-10-20T18:16:23.330021</dc:date>
    <dc:format>image/svg+xml</dc:format>
    <dc:creator>
     <cc:Agent>
      <dc:title>Matplotlib v3.5.2, https://matplotlib.org/</dc:title>
     </cc:Agent>
    </dc:creator>
   </cc:Work>
  </rdf:RDF>
 </metadata>
 <defs>
  <style type="text/css">*{stroke-linejoin: round; stroke-linecap: butt}</style>
 </defs>
 <g id="figure_1">
  <g id="patch_1">
   <path d="M 0 248.4 
L 576 248.4 
L 576 0 
L 0 0 
z
" style="fill: #ffffff"/>
  </g>
  <g id="axes_1">
   <g id="patch_2">
    <path d="M 59.178438 200.648125 
L 550.760701 200.648125 
L 550.760701 55.609187 
L 59.178438 55.609187 
z
" style="fill: #eaeaf2"/>
   </g>
   <g id="matplotlib.axis_1">
    <g id="xtick_1">
     <g id="line2d_1">
      <path d="M 81.076193 200.648125 
L 81.076193 55.609187 
" clip-path="url(#p42c31898a9)" style="fill: none; stroke: #ffffff; stroke-linecap: round"/>
     </g>
     <g id="text_1">
      <!-- 0 -->
      <g style="fill: #262626" transform="translate(77.894943 217.746562)scale(0.1 -0.1)">
       <defs>
        <path id="DejaVuSans-30" d="M 2034 4250 
Q 1547 4250 1301 3770 
Q 1056 3291 1056 2328 
Q 1056 1369 1301 889 
Q 1547 409 2034 409 
Q 2525 409 2770 889 
Q 3016 1369 3016 2328 
Q 3016 3291 2770 3770 
Q 2525 4250 2034 4250 
z
M 2034 4750 
Q 2819 4750 3233 4129 
Q 3647 3509 3647 2328 
Q 3647 1150 3233 529 
Q 2819 -91 2034 -91 
Q 1250 -91 836 529 
Q 422 1150 422 2328 
Q 422 3509 836 4129 
Q 1250 4750 2034 4750 
z
" transform="scale(0.015625)"/>
       </defs>
       <use xlink:href="#DejaVuSans-30"/>
      </g>
     </g>
    </g>
    <g id="xtick_2">
     <g id="line2d_2">
      <path d="M 148.110138 200.648125 
L 148.110138 55.609187 
" clip-path="url(#p42c31898a9)" style="fill: none; stroke: #ffffff; stroke-linecap: round"/>
     </g>
     <g id="text_2">
      <!-- 150 -->
      <g style="fill: #262626" transform="translate(138.566388 217.746562)scale(0.1 -0.1)">
       <defs>
        <path id="DejaVuSans-31" d="M 794 531 
L 1825 531 
L 1825 4091 
L 703 3866 
L 703 4441 
L 1819 4666 
L 2450 4666 
L 2450 531 
L 3481 531 
L 3481 0 
L 794 0 
L 794 531 
z
" transform="scale(0.015625)"/>
        <path id="DejaVuSans-35" d="M 691 4666 
L 3169 4666 
L 3169 4134 
L 1269 4134 
L 1269 2991 
Q 1406 3038 1543 3061 
Q 1681 3084 1819 3084 
Q 2600 3084 3056 2656 
Q 3513 2228 3513 1497 
Q 3513 744 3044 326 
Q 2575 -91 1722 -91 
Q 1428 -91 1123 -41 
Q 819 9 494 109 
L 494 744 
Q 775 591 1075 516 
Q 1375 441 1709 441 
Q 2250 441 2565 725 
Q 2881 1009 2881 1497 
Q 2881 1984 2565 2268 
Q 2250 2553 1709 2553 
Q 1456 2553 1204 2497 
Q 953 2441 691 2322 
L 691 4666 
z
" transform="scale(0.015625)"/>
       </defs>
       <use xlink:href="#DejaVuSans-31"/>
       <use xlink:href="#DejaVuSans-35" x="63.623047"/>
       <use xlink:href="#DejaVuSans-30" x="127.246094"/>
      </g>
     </g>
    </g>
    <g id="xtick_3">
     <g id="line2d_3">
      <path d="M 215.144083 200.648125 
L 215.144083 55.609187 
" clip-path="url(#p42c31898a9)" style="fill: none; stroke: #ffffff; stroke-linecap: round"/>
     </g>
     <g id="text_3">
      <!-- 300 -->
      <g style="fill: #262626" transform="translate(205.600333 217.746562)scale(0.1 -0.1)">
       <defs>
        <path id="DejaVuSans-33" d="M 2597 2516 
Q 3050 2419 3304 2112 
Q 3559 1806 3559 1356 
Q 3559 666 3084 287 
Q 2609 -91 1734 -91 
Q 1441 -91 1130 -33 
Q 819 25 488 141 
L 488 750 
Q 750 597 1062 519 
Q 1375 441 1716 441 
Q 2309 441 2620 675 
Q 2931 909 2931 1356 
Q 2931 1769 2642 2001 
Q 2353 2234 1838 2234 
L 1294 2234 
L 1294 2753 
L 1863 2753 
Q 2328 2753 2575 2939 
Q 2822 3125 2822 3475 
Q 2822 3834 2567 4026 
Q 2313 4219 1838 4219 
Q 1578 4219 1281 4162 
Q 984 4106 628 3988 
L 628 4550 
Q 988 4650 1302 4700 
Q 1616 4750 1894 4750 
Q 2613 4750 3031 4423 
Q 3450 4097 3450 3541 
Q 3450 3153 3228 2886 
Q 3006 2619 2597 2516 
z
" transform="scale(0.015625)"/>
       </defs>
       <use xlink:href="#DejaVuSans-33"/>
       <use xlink:href="#DejaVuSans-30" x="63.623047"/>
       <use xlink:href="#DejaVuSans-30" x="127.246094"/>
      </g>
     </g>
    </g>
    <g id="xtick_4">
     <g id="line2d_4">
      <path d="M 282.178028 200.648125 
L 282.178028 55.609187 
" clip-path="url(#p42c31898a9)" style="fill: none; stroke: #ffffff; stroke-linecap: round"/>
     </g>
     <g id="text_4">
      <!-- 450 -->
      <g style="fill: #262626" transform="translate(272.634278 217.746562)scale(0.1 -0.1)">
       <defs>
        <path id="DejaVuSans-34" d="M 2419 4116 
L 825 1625 
L 2419 1625 
L 2419 4116 
z
M 2253 4666 
L 3047 4666 
L 3047 1625 
L 3713 1625 
L 3713 1100 
L 3047 1100 
L 3047 0 
L 2419 0 
L 2419 1100 
L 313 1100 
L 313 1709 
L 2253 4666 
z
" transform="scale(0.015625)"/>
       </defs>
       <use xlink:href="#DejaVuSans-34"/>
       <use xlink:href="#DejaVuSans-35" x="63.623047"/>
       <use xlink:href="#DejaVuSans-30" x="127.246094"/>
      </g>
     </g>
    </g>
    <g id="xtick_5">
     <g id="line2d_5">
      <path d="M 349.211973 200.648125 
L 349.211973 55.609187 
" clip-path="url(#p42c31898a9)" style="fill: none; stroke: #ffffff; stroke-linecap: round"/>
     </g>
     <g id="text_5">
      <!-- 600 -->
      <g style="fill: #262626" transform="translate(339.668223 217.746562)scale(0.1 -0.1)">
       <defs>
        <path id="DejaVuSans-36" d="M 2113 2584 
Q 1688 2584 1439 2293 
Q 1191 2003 1191 1497 
Q 1191 994 1439 701 
Q 1688 409 2113 409 
Q 2538 409 2786 701 
Q 3034 994 3034 1497 
Q 3034 2003 2786 2293 
Q 2538 2584 2113 2584 
z
M 3366 4563 
L 3366 3988 
Q 3128 4100 2886 4159 
Q 2644 4219 2406 4219 
Q 1781 4219 1451 3797 
Q 1122 3375 1075 2522 
Q 1259 2794 1537 2939 
Q 1816 3084 2150 3084 
Q 2853 3084 3261 2657 
Q 3669 2231 3669 1497 
Q 3669 778 3244 343 
Q 2819 -91 2113 -91 
Q 1303 -91 875 529 
Q 447 1150 447 2328 
Q 447 3434 972 4092 
Q 1497 4750 2381 4750 
Q 2619 4750 2861 4703 
Q 3103 4656 3366 4563 
z
" transform="scale(0.015625)"/>
       </defs>
       <use xlink:href="#DejaVuSans-36"/>
       <use xlink:href="#DejaVuSans-30" x="63.623047"/>
       <use xlink:href="#DejaVuSans-30" x="127.246094"/>
      </g>
     </g>
    </g>
    <g id="xtick_6">
     <g id="line2d_6">
      <path d="M 416.245918 200.648125 
L 416.245918 55.609187 
" clip-path="url(#p42c31898a9)" style="fill: none; stroke: #ffffff; stroke-linecap: round"/>
     </g>
     <g id="text_6">
      <!-- 750 -->
      <g style="fill: #262626" transform="translate(406.702168 217.746562)scale(0.1 -0.1)">
       <defs>
        <path id="DejaVuSans-37" d="M 525 4666 
L 3525 4666 
L 3525 4397 
L 1831 0 
L 1172 0 
L 2766 4134 
L 525 4134 
L 525 4666 
z
" transform="scale(0.015625)"/>
       </defs>
       <use xlink:href="#DejaVuSans-37"/>
       <use xlink:href="#DejaVuSans-35" x="63.623047"/>
       <use xlink:href="#DejaVuSans-30" x="127.246094"/>
      </g>
     </g>
    </g>
    <g id="xtick_7">
     <g id="line2d_7">
      <path d="M 483.279863 200.648125 
L 483.279863 55.609187 
" clip-path="url(#p42c31898a9)" style="fill: none; stroke: #ffffff; stroke-linecap: round"/>
     </g>
     <g id="text_7">
      <!-- 900 -->
      <g style="fill: #262626" transform="translate(473.736113 217.746562)scale(0.1 -0.1)">
       <defs>
        <path id="DejaVuSans-39" d="M 703 97 
L 703 672 
Q 941 559 1184 500 
Q 1428 441 1663 441 
Q 2288 441 2617 861 
Q 2947 1281 2994 2138 
Q 2813 1869 2534 1725 
Q 2256 1581 1919 1581 
Q 1219 1581 811 2004 
Q 403 2428 403 3163 
Q 403 3881 828 4315 
Q 1253 4750 1959 4750 
Q 2769 4750 3195 4129 
Q 3622 3509 3622 2328 
Q 3622 1225 3098 567 
Q 2575 -91 1691 -91 
Q 1453 -91 1209 -44 
Q 966 3 703 97 
z
M 1959 2075 
Q 2384 2075 2632 2365 
Q 2881 2656 2881 3163 
Q 2881 3666 2632 3958 
Q 2384 4250 1959 4250 
Q 1534 4250 1286 3958 
Q 1038 3666 1038 3163 
Q 1038 2656 1286 2365 
Q 1534 2075 1959 2075 
z
" transform="scale(0.015625)"/>
       </defs>
       <use xlink:href="#DejaVuSans-39"/>
       <use xlink:href="#DejaVuSans-30" x="63.623047"/>
       <use xlink:href="#DejaVuSans-30" x="127.246094"/>
      </g>
     </g>
    </g>
    <g id="xtick_8">
     <g id="line2d_8">
      <path d="M 550.313808 200.648125 
L 550.313808 55.609187 
" clip-path="url(#p42c31898a9)" style="fill: none; stroke: #ffffff; stroke-linecap: round"/>
     </g>
     <g id="text_8">
      <!-- 1050 -->
      <g style="fill: #262626" transform="translate(537.588808 217.746562)scale(0.1 -0.1)">
       <use xlink:href="#DejaVuSans-31"/>
       <use xlink:href="#DejaVuSans-30" x="63.623047"/>
       <use xlink:href="#DejaVuSans-35" x="127.246094"/>
       <use xlink:href="#DejaVuSans-30" x="190.869141"/>
      </g>
     </g>
    </g>
    <g id="text_9">
     <!-- Frames -->
     <g style="fill: #262626" transform="translate(283.148319 232.944375)scale(0.12 -0.12)">
      <defs>
       <path id="DejaVuSans-46" d="M 628 4666 
L 3309 4666 
L 3309 4134 
L 1259 4134 
L 1259 2759 
L 3109 2759 
L 3109 2228 
L 1259 2228 
L 1259 0 
L 628 0 
L 628 4666 
z
" transform="scale(0.015625)"/>
       <path id="DejaVuSans-72" d="M 2631 2963 
Q 2534 3019 2420 3045 
Q 2306 3072 2169 3072 
Q 1681 3072 1420 2755 
Q 1159 2438 1159 1844 
L 1159 0 
L 581 0 
L 581 3500 
L 1159 3500 
L 1159 2956 
Q 1341 3275 1631 3429 
Q 1922 3584 2338 3584 
Q 2397 3584 2469 3576 
Q 2541 3569 2628 3553 
L 2631 2963 
z
" transform="scale(0.015625)"/>
       <path id="DejaVuSans-61" d="M 2194 1759 
Q 1497 1759 1228 1600 
Q 959 1441 959 1056 
Q 959 750 1161 570 
Q 1363 391 1709 391 
Q 2188 391 2477 730 
Q 2766 1069 2766 1631 
L 2766 1759 
L 2194 1759 
z
M 3341 1997 
L 3341 0 
L 2766 0 
L 2766 531 
Q 2569 213 2275 61 
Q 1981 -91 1556 -91 
Q 1019 -91 701 211 
Q 384 513 384 1019 
Q 384 1609 779 1909 
Q 1175 2209 1959 2209 
L 2766 2209 
L 2766 2266 
Q 2766 2663 2505 2880 
Q 2244 3097 1772 3097 
Q 1472 3097 1187 3025 
Q 903 2953 641 2809 
L 641 3341 
Q 956 3463 1253 3523 
Q 1550 3584 1831 3584 
Q 2591 3584 2966 3190 
Q 3341 2797 3341 1997 
z
" transform="scale(0.015625)"/>
       <path id="DejaVuSans-6d" d="M 3328 2828 
Q 3544 3216 3844 3400 
Q 4144 3584 4550 3584 
Q 5097 3584 5394 3201 
Q 5691 2819 5691 2113 
L 5691 0 
L 5113 0 
L 5113 2094 
Q 5113 2597 4934 2840 
Q 4756 3084 4391 3084 
Q 3944 3084 3684 2787 
Q 3425 2491 3425 1978 
L 3425 0 
L 2847 0 
L 2847 2094 
Q 2847 2600 2669 2842 
Q 2491 3084 2119 3084 
Q 1678 3084 1418 2786 
Q 1159 2488 1159 1978 
L 1159 0 
L 581 0 
L 581 3500 
L 1159 3500 
L 1159 2956 
Q 1356 3278 1631 3431 
Q 1906 3584 2284 3584 
Q 2666 3584 2933 3390 
Q 3200 3197 3328 2828 
z
" transform="scale(0.015625)"/>
       <path id="DejaVuSans-65" d="M 3597 1894 
L 3597 1613 
L 953 1613 
Q 991 1019 1311 708 
Q 1631 397 2203 397 
Q 2534 397 2845 478 
Q 3156 559 3463 722 
L 3463 178 
Q 3153 47 2828 -22 
Q 2503 -91 2169 -91 
Q 1331 -91 842 396 
Q 353 884 353 1716 
Q 353 2575 817 3079 
Q 1281 3584 2069 3584 
Q 2775 3584 3186 3129 
Q 3597 2675 3597 1894 
z
M 3022 2063 
Q 3016 2534 2758 2815 
Q 2500 3097 2075 3097 
Q 1594 3097 1305 2825 
Q 1016 2553 972 2059 
L 3022 2063 
z
" transform="scale(0.015625)"/>
       <path id="DejaVuSans-73" d="M 2834 3397 
L 2834 2853 
Q 2591 2978 2328 3040 
Q 2066 3103 1784 3103 
Q 1356 3103 1142 2972 
Q 928 2841 928 2578 
Q 928 2378 1081 2264 
Q 1234 2150 1697 2047 
L 1894 2003 
Q 2506 1872 2764 1633 
Q 3022 1394 3022 966 
Q 3022 478 2636 193 
Q 2250 -91 1575 -91 
Q 1294 -91 989 -36 
Q 684 19 347 128 
L 347 722 
Q 666 556 975 473 
Q 1284 391 1588 391 
Q 1994 391 2212 530 
Q 2431 669 2431 922 
Q 2431 1156 2273 1281 
Q 2116 1406 1581 1522 
L 1381 1569 
Q 847 1681 609 1914 
Q 372 2147 372 2553 
Q 372 3047 722 3315 
Q 1072 3584 1716 3584 
Q 2034 3584 2315 3537 
Q 2597 3491 2834 3397 
z
" transform="scale(0.015625)"/>
      </defs>
      <use xlink:href="#DejaVuSans-46"/>
      <use xlink:href="#DejaVuSans-72" x="50.269531"/>
      <use xlink:href="#DejaVuSans-61" x="91.382812"/>
      <use xlink:href="#DejaVuSans-6d" x="152.662109"/>
      <use xlink:href="#DejaVuSans-65" x="250.074219"/>
      <use xlink:href="#DejaVuSans-73" x="311.597656"/>
     </g>
    </g>
   </g>
   <g id="matplotlib.axis_2">
    <g id="ytick_1">
     <g id="line2d_9">
      <path d="M 59.178438 195.648208 
L 550.760701 195.648208 
" clip-path="url(#p42c31898a9)" style="fill: none; stroke: #ffffff; stroke-linecap: round"/>
     </g>
     <g id="text_10">
      <!-- −64 -->
      <g style="fill: #262626" transform="translate(28.57375 199.447426)scale(0.1 -0.1)">
       <defs>
        <path id="DejaVuSans-2212" d="M 678 2272 
L 4684 2272 
L 4684 1741 
L 678 1741 
L 678 2272 
z
" transform="scale(0.015625)"/>
       </defs>
       <use xlink:href="#DejaVuSans-2212"/>
       <use xlink:href="#DejaVuSans-36" x="83.789062"/>
       <use xlink:href="#DejaVuSans-34" x="147.412109"/>
      </g>
     </g>
    </g>
    <g id="ytick_2">
     <g id="line2d_10">
      <path d="M 59.178438 179.304942 
L 550.760701 179.304942 
" clip-path="url(#p42c31898a9)" style="fill: none; stroke: #ffffff; stroke-linecap: round"/>
     </g>
     <g id="text_11">
      <!-- −56 -->
      <g style="fill: #262626" transform="translate(28.57375 183.10416)scale(0.1 -0.1)">
       <use xlink:href="#DejaVuSans-2212"/>
       <use xlink:href="#DejaVuSans-35" x="83.789062"/>
       <use xlink:href="#DejaVuSans-36" x="147.412109"/>
      </g>
     </g>
    </g>
    <g id="ytick_3">
     <g id="line2d_11">
      <path d="M 59.178438 162.961676 
L 550.760701 162.961676 
" clip-path="url(#p42c31898a9)" style="fill: none; stroke: #ffffff; stroke-linecap: round"/>
     </g>
     <g id="text_12">
      <!-- −48 -->
      <g style="fill: #262626" transform="translate(28.57375 166.760894)scale(0.1 -0.1)">
       <defs>
        <path id="DejaVuSans-38" d="M 2034 2216 
Q 1584 2216 1326 1975 
Q 1069 1734 1069 1313 
Q 1069 891 1326 650 
Q 1584 409 2034 409 
Q 2484 409 2743 651 
Q 3003 894 3003 1313 
Q 3003 1734 2745 1975 
Q 2488 2216 2034 2216 
z
M 1403 2484 
Q 997 2584 770 2862 
Q 544 3141 544 3541 
Q 544 4100 942 4425 
Q 1341 4750 2034 4750 
Q 2731 4750 3128 4425 
Q 3525 4100 3525 3541 
Q 3525 3141 3298 2862 
Q 3072 2584 2669 2484 
Q 3125 2378 3379 2068 
Q 3634 1759 3634 1313 
Q 3634 634 3220 271 
Q 2806 -91 2034 -91 
Q 1263 -91 848 271 
Q 434 634 434 1313 
Q 434 1759 690 2068 
Q 947 2378 1403 2484 
z
M 1172 3481 
Q 1172 3119 1398 2916 
Q 1625 2713 2034 2713 
Q 2441 2713 2670 2916 
Q 2900 3119 2900 3481 
Q 2900 3844 2670 4047 
Q 2441 4250 2034 4250 
Q 1625 4250 1398 4047 
Q 1172 3844 1172 3481 
z
" transform="scale(0.015625)"/>
       </defs>
       <use xlink:href="#DejaVuSans-2212"/>
       <use xlink:href="#DejaVuSans-34" x="83.789062"/>
       <use xlink:href="#DejaVuSans-38" x="147.412109"/>
      </g>
     </g>
    </g>
    <g id="ytick_4">
     <g id="line2d_12">
      <path d="M 59.178438 146.618409 
L 550.760701 146.618409 
" clip-path="url(#p42c31898a9)" style="fill: none; stroke: #ffffff; stroke-linecap: round"/>
     </g>
     <g id="text_13">
      <!-- −40 -->
      <g style="fill: #262626" transform="translate(28.57375 150.417628)scale(0.1 -0.1)">
       <use xlink:href="#DejaVuSans-2212"/>
       <use xlink:href="#DejaVuSans-34" x="83.789062"/>
       <use xlink:href="#DejaVuSans-30" x="147.412109"/>
      </g>
     </g>
    </g>
    <g id="ytick_5">
     <g id="line2d_13">
      <path d="M 59.178438 130.275143 
L 550.760701 130.275143 
" clip-path="url(#p42c31898a9)" style="fill: none; stroke: #ffffff; stroke-linecap: round"/>
     </g>
     <g id="text_14">
      <!-- −32 -->
      <g style="fill: #262626" transform="translate(28.57375 134.074362)scale(0.1 -0.1)">
       <defs>
        <path id="DejaVuSans-32" d="M 1228 531 
L 3431 531 
L 3431 0 
L 469 0 
L 469 531 
Q 828 903 1448 1529 
Q 2069 2156 2228 2338 
Q 2531 2678 2651 2914 
Q 2772 3150 2772 3378 
Q 2772 3750 2511 3984 
Q 2250 4219 1831 4219 
Q 1534 4219 1204 4116 
Q 875 4013 500 3803 
L 500 4441 
Q 881 4594 1212 4672 
Q 1544 4750 1819 4750 
Q 2544 4750 2975 4387 
Q 3406 4025 3406 3419 
Q 3406 3131 3298 2873 
Q 3191 2616 2906 2266 
Q 2828 2175 2409 1742 
Q 1991 1309 1228 531 
z
" transform="scale(0.015625)"/>
       </defs>
       <use xlink:href="#DejaVuSans-2212"/>
       <use xlink:href="#DejaVuSans-33" x="83.789062"/>
       <use xlink:href="#DejaVuSans-32" x="147.412109"/>
      </g>
     </g>
    </g>
    <g id="ytick_6">
     <g id="line2d_14">
      <path d="M 59.178438 113.931877 
L 550.760701 113.931877 
" clip-path="url(#p42c31898a9)" style="fill: none; stroke: #ffffff; stroke-linecap: round"/>
     </g>
     <g id="text_15">
      <!-- −24 -->
      <g style="fill: #262626" transform="translate(28.57375 117.731096)scale(0.1 -0.1)">
       <use xlink:href="#DejaVuSans-2212"/>
       <use xlink:href="#DejaVuSans-32" x="83.789062"/>
       <use xlink:href="#DejaVuSans-34" x="147.412109"/>
      </g>
     </g>
    </g>
    <g id="ytick_7">
     <g id="line2d_15">
      <path d="M 59.178438 97.588611 
L 550.760701 97.588611 
" clip-path="url(#p42c31898a9)" style="fill: none; stroke: #ffffff; stroke-linecap: round"/>
     </g>
     <g id="text_16">
      <!-- −16 -->
      <g style="fill: #262626" transform="translate(28.57375 101.38783)scale(0.1 -0.1)">
       <use xlink:href="#DejaVuSans-2212"/>
       <use xlink:href="#DejaVuSans-31" x="83.789062"/>
       <use xlink:href="#DejaVuSans-36" x="147.412109"/>
      </g>
     </g>
    </g>
    <g id="ytick_8">
     <g id="line2d_16">
      <path d="M 59.178438 81.245345 
L 550.760701 81.245345 
" clip-path="url(#p42c31898a9)" style="fill: none; stroke: #ffffff; stroke-linecap: round"/>
     </g>
     <g id="text_17">
      <!-- −8 -->
      <g style="fill: #262626" transform="translate(34.93625 85.044564)scale(0.1 -0.1)">
       <use xlink:href="#DejaVuSans-2212"/>
       <use xlink:href="#DejaVuSans-38" x="83.789062"/>
      </g>
     </g>
    </g>
    <g id="ytick_9">
     <g id="line2d_17">
      <path d="M 59.178438 64.902079 
L 550.760701 64.902079 
" clip-path="url(#p42c31898a9)" style="fill: none; stroke: #ffffff; stroke-linecap: round"/>
     </g>
     <g id="text_18">
      <!-- 0 -->
      <g style="fill: #262626" transform="translate(43.315938 68.701298)scale(0.1 -0.1)">
       <use xlink:href="#DejaVuSans-30"/>
      </g>
     </g>
    </g>
    <g id="text_19">
     <!-- Energy (kcal/mol) -->
     <g style="fill: #262626" transform="translate(22.078125 181.045844)rotate(-90)scale(0.12 -0.12)">
      <defs>
       <path id="DejaVuSans-45" d="M 628 4666 
L 3578 4666 
L 3578 4134 
L 1259 4134 
L 1259 2753 
L 3481 2753 
L 3481 2222 
L 1259 2222 
L 1259 531 
L 3634 531 
L 3634 0 
L 628 0 
L 628 4666 
z
" transform="scale(0.015625)"/>
       <path id="DejaVuSans-6e" d="M 3513 2113 
L 3513 0 
L 2938 0 
L 2938 2094 
Q 2938 2591 2744 2837 
Q 2550 3084 2163 3084 
Q 1697 3084 1428 2787 
Q 1159 2491 1159 1978 
L 1159 0 
L 581 0 
L 581 3500 
L 1159 3500 
L 1159 2956 
Q 1366 3272 1645 3428 
Q 1925 3584 2291 3584 
Q 2894 3584 3203 3211 
Q 3513 2838 3513 2113 
z
" transform="scale(0.015625)"/>
       <path id="DejaVuSans-67" d="M 2906 1791 
Q 2906 2416 2648 2759 
Q 2391 3103 1925 3103 
Q 1463 3103 1205 2759 
Q 947 2416 947 1791 
Q 947 1169 1205 825 
Q 1463 481 1925 481 
Q 2391 481 2648 825 
Q 2906 1169 2906 1791 
z
M 3481 434 
Q 3481 -459 3084 -895 
Q 2688 -1331 1869 -1331 
Q 1566 -1331 1297 -1286 
Q 1028 -1241 775 -1147 
L 775 -588 
Q 1028 -725 1275 -790 
Q 1522 -856 1778 -856 
Q 2344 -856 2625 -561 
Q 2906 -266 2906 331 
L 2906 616 
Q 2728 306 2450 153 
Q 2172 0 1784 0 
Q 1141 0 747 490 
Q 353 981 353 1791 
Q 353 2603 747 3093 
Q 1141 3584 1784 3584 
Q 2172 3584 2450 3431 
Q 2728 3278 2906 2969 
L 2906 3500 
L 3481 3500 
L 3481 434 
z
" transform="scale(0.015625)"/>
       <path id="DejaVuSans-79" d="M 2059 -325 
Q 1816 -950 1584 -1140 
Q 1353 -1331 966 -1331 
L 506 -1331 
L 506 -850 
L 844 -850 
Q 1081 -850 1212 -737 
Q 1344 -625 1503 -206 
L 1606 56 
L 191 3500 
L 800 3500 
L 1894 763 
L 2988 3500 
L 3597 3500 
L 2059 -325 
z
" transform="scale(0.015625)"/>
       <path id="DejaVuSans-20" transform="scale(0.015625)"/>
       <path id="DejaVuSans-28" d="M 1984 4856 
Q 1566 4138 1362 3434 
Q 1159 2731 1159 2009 
Q 1159 1288 1364 580 
Q 1569 -128 1984 -844 
L 1484 -844 
Q 1016 -109 783 600 
Q 550 1309 550 2009 
Q 550 2706 781 3412 
Q 1013 4119 1484 4856 
L 1984 4856 
z
" transform="scale(0.015625)"/>
       <path id="DejaVuSans-6b" d="M 581 4863 
L 1159 4863 
L 1159 1991 
L 2875 3500 
L 3609 3500 
L 1753 1863 
L 3688 0 
L 2938 0 
L 1159 1709 
L 1159 0 
L 581 0 
L 581 4863 
z
" transform="scale(0.015625)"/>
       <path id="DejaVuSans-63" d="M 3122 3366 
L 3122 2828 
Q 2878 2963 2633 3030 
Q 2388 3097 2138 3097 
Q 1578 3097 1268 2742 
Q 959 2388 959 1747 
Q 959 1106 1268 751 
Q 1578 397 2138 397 
Q 2388 397 2633 464 
Q 2878 531 3122 666 
L 3122 134 
Q 2881 22 2623 -34 
Q 2366 -91 2075 -91 
Q 1284 -91 818 406 
Q 353 903 353 1747 
Q 353 2603 823 3093 
Q 1294 3584 2113 3584 
Q 2378 3584 2631 3529 
Q 2884 3475 3122 3366 
z
" transform="scale(0.015625)"/>
       <path id="DejaVuSans-6c" d="M 603 4863 
L 1178 4863 
L 1178 0 
L 603 0 
L 603 4863 
z
" transform="scale(0.015625)"/>
       <path id="DejaVuSans-2f" d="M 1625 4666 
L 2156 4666 
L 531 -594 
L 0 -594 
L 1625 4666 
z
" transform="scale(0.015625)"/>
       <path id="DejaVuSans-6f" d="M 1959 3097 
Q 1497 3097 1228 2736 
Q 959 2375 959 1747 
Q 959 1119 1226 758 
Q 1494 397 1959 397 
Q 2419 397 2687 759 
Q 2956 1122 2956 1747 
Q 2956 2369 2687 2733 
Q 2419 3097 1959 3097 
z
M 1959 3584 
Q 2709 3584 3137 3096 
Q 3566 2609 3566 1747 
Q 3566 888 3137 398 
Q 2709 -91 1959 -91 
Q 1206 -91 779 398 
Q 353 888 353 1747 
Q 353 2609 779 3096 
Q 1206 3584 1959 3584 
z
" transform="scale(0.015625)"/>
       <path id="DejaVuSans-29" d="M 513 4856 
L 1013 4856 
Q 1481 4119 1714 3412 
Q 1947 2706 1947 2009 
Q 1947 1309 1714 600 
Q 1481 -109 1013 -844 
L 513 -844 
Q 928 -128 1133 580 
Q 1338 1288 1338 2009 
Q 1338 2731 1133 3434 
Q 928 4138 513 4856 
z
" transform="scale(0.015625)"/>
      </defs>
      <use xlink:href="#DejaVuSans-45"/>
      <use xlink:href="#DejaVuSans-6e" x="63.183594"/>
      <use xlink:href="#DejaVuSans-65" x="126.5625"/>
      <use xlink:href="#DejaVuSans-72" x="188.085938"/>
      <use xlink:href="#DejaVuSans-67" x="227.449219"/>
      <use xlink:href="#DejaVuSans-79" x="290.925781"/>
      <use xlink:href="#DejaVuSans-20" x="350.105469"/>
      <use xlink:href="#DejaVuSans-28" x="381.892578"/>
      <use xlink:href="#DejaVuSans-6b" x="420.90625"/>
      <use xlink:href="#DejaVuSans-63" x="478.816406"/>
      <use xlink:href="#DejaVuSans-61" x="533.796875"/>
      <use xlink:href="#DejaVuSans-6c" x="595.076172"/>
      <use xlink:href="#DejaVuSans-2f" x="622.859375"/>
      <use xlink:href="#DejaVuSans-6d" x="656.550781"/>
      <use xlink:href="#DejaVuSans-6f" x="753.962891"/>
      <use xlink:href="#DejaVuSans-6c" x="815.144531"/>
      <use xlink:href="#DejaVuSans-29" x="842.927734"/>
     </g>
    </g>
   </g>
   <g id="line2d_18">
    <path d="M 81.523086 131.141238 
L 81.969979 124.491927 
L 82.416872 151.759914 
L 82.863765 118.890092 
L 83.310658 110.820541 
L 83.757551 106.530289 
L 84.204444 100.810952 
L 84.651337 102.364589 
L 85.09823 109.627649 
L 85.545123 130.722367 
L 85.992015 131.502691 
L 86.885801 117.919524 
L 87.332694 126.054076 
L 87.779587 115.05243 
L 88.22648 130.832754 
L 88.673373 120.633042 
L 89.120266 104.282506 
L 89.567159 104.158855 
L 90.014052 123.547987 
L 90.460945 137.897227 
L 90.907838 91.302616 
L 91.354731 126.077318 
L 91.801624 90.52222 
L 92.248517 93.196873 
L 92.69541 75.694133 
L 93.142303 84.457993 
L 93.589196 108.183968 
L 94.036089 94.307146 
L 94.929875 131.417356 
L 95.376768 123.197612 
L 95.823661 105.873512 
L 96.270554 126.420676 
L 96.717447 97.362102 
L 97.16434 100.659111 
L 97.611233 75.925916 
L 98.058126 97.796109 
L 98.505019 84.659706 
L 99.398804 126.099644 
L 99.845697 99.187139 
L 100.29259 115.937604 
L 100.739483 102.629842 
L 101.186376 111.056358 
L 101.633269 103.876868 
L 102.080162 91.223618 
L 102.527055 92.108723 
L 102.973948 83.509461 
L 103.420841 109.751582 
L 103.867734 104.882261 
L 104.314627 124.899058 
L 104.76152 113.419713 
L 105.208413 116.582113 
L 105.655306 110.852755 
L 106.102199 114.427421 
L 106.549092 137.053136 
L 106.995985 99.959474 
L 107.442878 104.93295 
L 107.889771 104.823252 
L 108.336664 133.649816 
L 108.783557 108.376591 
L 109.23045 141.427707 
L 109.677343 163.739231 
L 110.124236 152.465252 
L 110.571129 154.72171 
L 111.018022 143.220578 
L 111.464915 127.129824 
L 111.911808 124.302911 
L 112.358701 148.867852 
L 112.805593 129.655733 
L 113.252486 137.34991 
L 113.699379 129.121991 
L 114.146272 135.742428 
L 114.593165 110.628887 
L 115.040058 104.27791 
L 115.486951 141.79247 
L 115.933844 125.031094 
L 116.380737 129.331757 
L 116.82763 124.638876 
L 117.274523 121.339461 
L 117.721416 109.620984 
L 118.168309 136.50393 
L 118.615202 130.283295 
L 119.062095 126.513116 
L 119.508988 149.020675 
L 119.955881 133.89901 
L 120.402774 111.624779 
L 120.849667 128.522367 
L 121.29656 122.600746 
L 121.743453 115.039821 
L 122.637239 128.918978 
L 123.084132 122.942349 
L 123.531025 138.785007 
L 123.977918 132.106482 
L 124.424811 132.851199 
L 125.318597 137.438588 
L 126.212382 150.269922 
L 126.659275 152.779112 
L 127.106168 143.753178 
L 127.553061 152.191854 
L 127.999954 145.937346 
L 128.446847 146.750496 
L 128.89374 148.625662 
L 129.787526 194.055446 
L 130.681312 162.212299 
L 131.128205 162.117826 
L 131.575098 172.849471 
L 132.021991 143.497988 
L 132.468884 181.394528 
L 132.915777 144.588168 
L 133.36267 161.277166 
L 133.809563 157.143364 
L 134.256456 134.492992 
L 134.703349 158.764024 
L 135.150242 168.465388 
L 135.597135 154.477388 
L 136.044028 169.450723 
L 136.490921 154.600881 
L 136.937814 165.393176 
L 137.384707 184.558751 
L 137.8316 177.727616 
L 138.278493 164.396462 
L 138.725386 174.557922 
L 139.172279 124.667124 
L 139.619171 157.240057 
L 140.066064 148.991163 
L 140.512957 172.41598 
L 140.95985 157.167459 
L 141.853636 120.191449 
L 142.300529 140.52692 
L 142.747422 90.669885 
L 143.194315 86.697826 
L 143.641208 91.333158 
L 144.534994 133.282035 
L 144.981887 100.938947 
L 145.42878 110.527235 
L 145.875673 115.307156 
L 146.322566 100.904182 
L 146.769459 106.504771 
L 147.216352 130.649673 
L 147.663245 100.264276 
L 148.110138 97.305279 
L 148.557031 99.269602 
L 149.003924 72.434749 
L 149.450817 74.572784 
L 149.89771 81.933687 
L 150.344603 78.692774 
L 150.791496 81.229887 
L 151.238389 100.506398 
L 151.685282 98.002242 
L 152.132175 99.904208 
L 152.579067 100.909242 
L 153.02596 98.345742 
L 153.472853 100.281915 
L 153.919746 99.067914 
L 154.366639 116.626031 
L 154.813532 95.200426 
L 155.260425 116.627621 
L 155.707318 101.730572 
L 156.154211 100.242374 
L 156.601104 131.203987 
L 157.49489 107.758637 
L 157.941783 104.811836 
L 158.388676 111.582556 
L 158.835569 120.890352 
L 159.282462 113.028126 
L 159.729355 124.448281 
L 160.176248 115.532722 
L 160.623141 108.904456 
L 161.070034 106.415772 
L 161.96382 118.302706 
L 162.410713 108.977524 
L 162.857606 127.543087 
L 163.304499 118.529077 
L 164.198285 109.298488 
L 164.645178 109.156767 
L 165.092071 108.34486 
L 165.538964 112.272855 
L 165.985856 105.815406 
L 166.432749 118.134802 
L 166.879642 96.014768 
L 167.326535 90.954 
L 167.773428 93.378574 
L 168.220321 100.918303 
L 168.667214 92.949639 
L 169.114107 103.861864 
L 169.561 103.644459 
L 170.007893 124.963753 
L 170.454786 111.829266 
L 170.901679 128.800589 
L 171.348572 120.066217 
L 172.242358 136.927798 
L 173.136144 108.422651 
L 173.583037 140.790592 
L 174.02993 132.606542 
L 174.476823 159.242519 
L 174.923716 145.869592 
L 175.370609 117.877675 
L 175.817502 132.639225 
L 176.264395 143.341191 
L 176.711288 131.144813 
L 177.158181 126.796427 
L 177.605074 93.185342 
L 178.051967 116.14322 
L 178.49886 102.234034 
L 178.945753 92.473772 
L 179.392645 97.162107 
L 179.839538 107.289637 
L 180.286431 91.921886 
L 180.733324 110.883188 
L 181.180217 111.930881 
L 181.62711 107.947248 
L 182.520896 106.183879 
L 182.967789 101.009438 
L 183.414682 134.034089 
L 183.861575 96.959785 
L 184.308468 114.449594 
L 185.202254 87.658921 
L 185.649147 83.659144 
L 186.09604 97.366013 
L 186.542933 80.982271 
L 186.989826 94.545921 
L 187.436719 76.091534 
L 187.883612 90.035071 
L 188.330505 85.655417 
L 188.777398 83.828124 
L 189.224291 106.578827 
L 189.671184 100.614019 
L 190.118077 104.44633 
L 190.56497 106.953874 
L 191.011863 112.196102 
L 191.458756 110.058911 
L 191.905649 99.911951 
L 192.352542 86.007163 
L 192.799434 85.807893 
L 193.246327 99.841212 
L 193.69322 109.461041 
L 194.140113 104.562771 
L 194.587006 104.053691 
L 195.033899 109.029029 
L 195.480792 105.816309 
L 195.927685 96.202678 
L 196.374578 105.762492 
L 196.821471 120.87486 
L 197.268364 118.833923 
L 197.715257 108.861761 
L 198.16215 113.425433 
L 199.055936 129.369446 
L 199.502829 132.36015 
L 200.396615 122.274834 
L 200.843508 133.833943 
L 201.290401 114.412024 
L 201.737294 126.918369 
L 202.184187 127.240259 
L 202.63108 118.200462 
L 203.077973 115.740284 
L 203.524866 117.131528 
L 203.971759 114.193476 
L 204.418652 120.639796 
L 204.865545 110.392062 
L 205.312438 80.000088 
L 205.759331 95.994464 
L 206.206223 104.463882 
L 206.653116 125.383048 
L 207.546902 90.29899 
L 207.993795 113.37625 
L 208.440688 111.168483 
L 208.887581 105.931202 
L 209.334474 104.181704 
L 209.781367 97.233491 
L 210.22826 87.458813 
L 210.675153 86.480974 
L 211.122046 91.312296 
L 211.568939 104.336335 
L 212.015832 95.195478 
L 212.462725 107.940389 
L 212.909618 99.328051 
L 213.803404 123.400718 
L 214.250297 114.743719 
L 214.69719 140.936769 
L 215.144083 125.628991 
L 215.590976 115.081558 
L 216.037869 131.663685 
L 216.484762 113.25436 
L 216.931655 139.127944 
L 217.378548 154.429163 
L 217.825441 136.087656 
L 218.272334 131.004649 
L 218.719227 128.874067 
L 219.16612 140.4343 
L 219.613012 160.921303 
L 220.059905 124.936391 
L 220.506798 122.784994 
L 220.953691 114.368089 
L 221.400584 131.3012 
L 221.847477 123.813402 
L 222.29437 149.301179 
L 222.741263 154.532284 
L 223.188156 143.733827 
L 223.635049 118.57373 
L 224.528835 142.246458 
L 224.975728 150.850058 
L 225.422621 149.241518 
L 225.869514 130.125399 
L 226.316407 146.630528 
L 226.7633 155.066001 
L 227.210193 148.288053 
L 227.657086 137.48394 
L 228.103979 142.291615 
L 228.550872 124.5527 
L 228.997765 150.246739 
L 229.444658 117.572869 
L 229.891551 142.98654 
L 230.338444 142.974109 
L 230.785337 131.910207 
L 231.23223 124.684872 
L 231.679123 150.290688 
L 232.126016 138.525864 
L 232.572908 134.090029 
L 233.019801 157.597255 
L 233.466694 153.811656 
L 233.913587 166.366603 
L 234.36048 150.860826 
L 234.807373 146.779638 
L 235.254266 146.148773 
L 235.701159 141.89343 
L 236.148052 152.028824 
L 236.594945 138.400832 
L 237.041838 134.327088 
L 237.488731 146.40016 
L 237.935624 132.01191 
L 238.382517 141.537012 
L 238.82941 148.321603 
L 239.276303 120.640004 
L 239.723196 121.03269 
L 240.170089 131.56612 
L 240.616982 93.959778 
L 241.063875 110.42747 
L 241.510768 105.008532 
L 241.957661 101.252122 
L 242.404554 113.141456 
L 242.851447 113.297196 
L 243.29834 108.548989 
L 243.745233 108.499752 
L 244.192126 114.881546 
L 244.639019 112.340764 
L 245.085912 107.258057 
L 245.532805 113.608098 
L 245.979697 104.409657 
L 246.42659 101.477253 
L 246.873483 90.869341 
L 247.320376 88.390177 
L 247.767269 70.279635 
L 248.661055 107.339058 
L 249.107948 80.154919 
L 249.554841 82.319639 
L 250.001734 88.036905 
L 250.448627 80.726653 
L 250.89552 92.831419 
L 251.342413 74.922715 
L 251.789306 99.225774 
L 252.236199 86.80193 
L 252.683092 92.313681 
L 253.129985 75.537619 
L 253.576878 85.143153 
L 254.023771 84.174756 
L 254.470664 74.683636 
L 254.917557 72.503999 
L 255.36445 65.368151 
L 255.811343 81.382609 
L 256.258236 73.552691 
L 256.705129 68.66522 
L 257.152022 73.21593 
L 257.598915 70.129364 
L 258.045808 69.016907 
L 258.492701 73.915634 
L 258.939594 74.094802 
L 259.386486 65.73701 
L 259.833379 102.080101 
L 260.280272 118.173918 
L 260.727165 119.354827 
L 261.174058 110.449297 
L 261.620951 92.582304 
L 262.067844 82.393749 
L 262.514737 91.208436 
L 262.96163 88.363691 
L 263.408523 93.223335 
L 263.855416 92.857696 
L 264.302309 99.505978 
L 265.196095 86.38525 
L 265.642988 93.800282 
L 266.089881 94.285676 
L 266.536774 97.500849 
L 266.983667 87.286711 
L 267.43056 90.275753 
L 267.877453 86.826083 
L 268.324346 90.136707 
L 268.771239 84.186345 
L 269.218132 88.195775 
L 269.665025 87.905415 
L 270.111918 94.289113 
L 270.558811 79.999658 
L 271.452597 72.468361 
L 271.89949 84.856551 
L 272.346383 73.138232 
L 272.793275 77.270563 
L 273.240168 75.192636 
L 273.687061 79.680278 
L 274.133954 88.036895 
L 274.580847 80.332278 
L 275.02774 87.697363 
L 275.474633 91.031674 
L 275.921526 82.74408 
L 276.368419 76.927748 
L 276.815312 99.592558 
L 277.262205 87.797808 
L 277.709098 80.201521 
L 278.155991 80.19646 
L 278.602884 87.081619 
L 279.049777 84.179615 
L 279.49667 94.290426 
L 279.943563 92.770233 
L 280.390456 86.906035 
L 280.837349 66.86641 
L 281.284242 76.405292 
L 281.731135 83.438066 
L 282.178028 62.965604 
L 282.624921 85.367121 
L 283.071814 76.68442 
L 283.518707 85.454511 
L 283.9656 73.538566 
L 284.412493 86.238243 
L 284.859386 87.236196 
L 285.306279 87.723259 
L 285.753172 94.659021 
L 286.200064 85.364224 
L 287.09385 81.640968 
L 287.540743 91.010616 
L 287.987636 109.740424 
L 288.434529 111.158688 
L 288.881422 119.479033 
L 289.328315 117.178881 
L 289.775208 131.404853 
L 290.222101 126.554987 
L 290.668994 129.132549 
L 291.115887 130.682419 
L 291.56278 132.882272 
L 292.009673 133.292182 
L 292.456566 131.980944 
L 292.903459 109.149778 
L 293.350352 114.562383 
L 293.797245 97.135959 
L 294.244138 130.572106 
L 294.691031 116.030368 
L 295.137924 113.465687 
L 295.584817 126.065498 
L 296.03171 124.013799 
L 296.478603 118.605989 
L 296.925496 98.831121 
L 297.372389 111.149574 
L 297.819282 91.414784 
L 298.266175 98.164928 
L 298.713068 97.735415 
L 299.159961 109.175175 
L 299.606853 102.72248 
L 300.053746 114.216432 
L 300.500639 109.252327 
L 300.947532 131.446496 
L 301.394425 121.791072 
L 301.841318 143.510133 
L 302.288211 141.836637 
L 303.181997 109.319005 
L 303.62889 122.329314 
L 304.075783 113.493086 
L 304.522676 124.016607 
L 304.969569 118.896939 
L 305.416462 133.633491 
L 305.863355 130.190459 
L 306.310248 107.086822 
L 306.757141 112.56311 
L 307.204034 107.006594 
L 307.650927 100.031289 
L 308.09782 116.500229 
L 308.544713 112.725543 
L 308.991606 117.214176 
L 309.438499 114.76929 
L 309.885392 110.847014 
L 310.332285 113.216191 
L 310.779178 103.979327 
L 311.226071 89.533238 
L 311.672964 120.327242 
L 312.119857 115.057779 
L 312.566749 107.090595 
L 313.013642 109.910801 
L 313.460535 93.944811 
L 313.907428 96.766637 
L 314.354321 101.969183 
L 314.801214 112.659016 
L 315.248107 106.610487 
L 315.695 112.566941 
L 316.141893 105.499309 
L 316.588786 96.212888 
L 317.035679 110.638326 
L 317.482572 108.589061 
L 317.929465 105.973139 
L 318.376358 99.407393 
L 318.823251 85.689287 
L 319.270144 82.830278 
L 319.717037 103.123736 
L 320.16393 86.710583 
L 320.610823 80.59578 
L 321.057716 78.720147 
L 321.504609 87.305644 
L 321.951502 87.261569 
L 322.398395 98.34476 
L 322.845288 98.520642 
L 323.292181 91.205323 
L 323.739074 88.810423 
L 324.185967 84.148936 
L 324.63286 77.064646 
L 325.079753 72.125264 
L 325.526646 100.787995 
L 325.973538 93.244494 
L 326.420431 99.529131 
L 326.867324 87.978896 
L 327.314217 84.910159 
L 327.76111 88.227447 
L 328.208003 111.158847 
L 328.654896 107.501515 
L 329.101789 99.479321 
L 329.548682 98.486037 
L 329.995575 100.979839 
L 330.442468 101.546248 
L 330.889361 99.124382 
L 331.336254 100.41549 
L 331.783147 95.308274 
L 332.23004 93.586305 
L 332.676933 81.089601 
L 333.123826 82.285359 
L 333.570719 77.474388 
L 334.017612 97.182813 
L 334.464505 111.049962 
L 334.911398 108.118174 
L 335.358291 94.869114 
L 335.805184 88.356387 
L 336.252077 112.926894 
L 336.69897 115.258822 
L 337.145863 106.559818 
L 337.592756 117.058542 
L 338.039649 117.724428 
L 338.486542 124.599137 
L 338.933435 122.281524 
L 339.380327 110.355553 
L 339.82722 106.631437 
L 340.274113 110.284093 
L 340.721006 91.707291 
L 341.167899 112.592204 
L 341.614792 96.235784 
L 342.061685 118.416922 
L 342.955471 110.781703 
L 343.402364 100.065529 
L 343.849257 105.91572 
L 344.29615 116.714775 
L 344.743043 108.273309 
L 345.189936 122.42149 
L 345.636829 120.09419 
L 346.083722 118.642644 
L 346.530615 121.345436 
L 346.977508 122.888469 
L 347.424401 112.204911 
L 347.871294 118.600065 
L 348.318187 127.025338 
L 348.76508 118.414767 
L 349.211973 129.148609 
L 349.658866 127.104809 
L 350.105759 116.250372 
L 350.552652 110.764886 
L 350.999545 122.170656 
L 351.446438 116.156103 
L 352.340224 97.996511 
L 352.787116 113.992316 
L 353.234009 96.312953 
L 353.680902 111.965947 
L 354.127795 91.083511 
L 354.574688 98.685812 
L 355.021581 95.82734 
L 355.468474 90.503493 
L 355.915367 87.1929 
L 356.36226 115.608466 
L 356.809153 95.566783 
L 357.256046 88.34234 
L 357.702939 97.984889 
L 358.149832 94.760215 
L 358.596725 99.724157 
L 359.043618 98.257807 
L 359.490511 100.671048 
L 359.937404 88.945831 
L 360.384297 99.707847 
L 360.83119 93.549635 
L 361.278083 107.697036 
L 361.724976 112.908756 
L 362.171869 101.002555 
L 362.618762 108.685935 
L 363.065655 79.539461 
L 363.512548 85.362266 
L 363.959441 69.401386 
L 364.406334 70.949241 
L 364.853227 62.201866 
L 365.30012 106.248743 
L 365.747013 91.615896 
L 366.193905 90.283549 
L 366.640798 114.022634 
L 367.087691 92.469809 
L 367.534584 101.682569 
L 367.981477 95.943457 
L 368.42837 97.12308 
L 368.875263 89.893832 
L 369.322156 94.524645 
L 369.769049 107.593784 
L 370.215942 99.245955 
L 370.662835 94.000384 
L 371.109728 98.348404 
L 371.556621 95.395001 
L 372.003514 107.839549 
L 372.450407 98.885218 
L 372.8973 104.586818 
L 373.344193 101.555015 
L 373.791086 101.713096 
L 374.237979 105.233643 
L 374.684872 117.818016 
L 375.131765 107.511185 
L 375.578658 94.386503 
L 376.025551 97.090363 
L 376.472444 108.480978 
L 377.36623 95.701851 
L 377.813123 94.188903 
L 378.260016 88.751513 
L 378.706909 84.708949 
L 379.153802 84.977413 
L 379.600694 92.901914 
L 380.047587 80.757626 
L 380.49448 80.795161 
L 380.941373 64.059978 
L 381.835159 100.255662 
L 382.282052 92.594452 
L 382.728945 100.646238 
L 383.175838 96.752555 
L 383.622731 83.687156 
L 384.069624 84.947586 
L 384.516517 80.683549 
L 384.96341 79.728871 
L 385.410303 84.62469 
L 385.857196 96.416652 
L 386.304089 85.825337 
L 386.750982 92.923941 
L 387.197875 92.064612 
L 387.644768 87.139836 
L 388.091661 80.909482 
L 388.538554 86.261216 
L 388.985447 88.280409 
L 389.43234 74.947105 
L 389.879233 75.867956 
L 390.326126 77.472172 
L 390.773019 81.571646 
L 391.219912 92.029166 
L 391.666805 72.047426 
L 392.560591 101.172807 
L 393.007483 90.606901 
L 393.454376 86.266164 
L 393.901269 102.040726 
L 394.348162 93.1123 
L 394.795055 92.921253 
L 395.241948 91.45074 
L 395.688841 101.277479 
L 396.135734 117.057227 
L 396.582627 120.296406 
L 397.02952 97.246021 
L 397.476413 101.618582 
L 397.923306 104.323971 
L 398.370199 94.157489 
L 398.817092 92.786254 
L 399.263985 123.856076 
L 399.710878 114.333538 
L 400.157771 98.59017 
L 400.604664 113.14443 
L 401.051557 114.415495 
L 401.49845 108.001521 
L 401.945343 106.625246 
L 402.392236 108.989045 
L 402.839129 119.130704 
L 403.286022 111.584576 
L 403.732915 109.19835 
L 404.179808 119.387733 
L 404.626701 103.186658 
L 405.073594 114.697158 
L 405.520487 107.913932 
L 406.414272 104.066884 
L 406.861165 93.968805 
L 407.308058 107.540992 
L 407.754951 102.482757 
L 408.201844 105.370344 
L 408.648737 111.149873 
L 409.09563 120.164267 
L 409.542523 104.217093 
L 409.989416 96.235499 
L 410.436309 124.370978 
L 410.883202 96.812947 
L 411.330095 118.454043 
L 411.776988 120.601689 
L 412.223881 126.346005 
L 412.670774 140.443906 
L 413.117667 112.707904 
L 413.56456 112.271495 
L 414.011453 121.214045 
L 414.458346 114.619704 
L 414.905239 95.433682 
L 415.352132 130.829141 
L 415.799025 121.566911 
L 416.692811 138.568255 
L 417.139704 126.471401 
L 417.586597 124.602211 
L 418.03349 120.065543 
L 418.480383 137.412711 
L 418.927276 160.442243 
L 419.374168 121.191932 
L 419.821061 102.858595 
L 420.267954 110.975079 
L 420.714847 114.274159 
L 421.608633 109.079714 
L 422.055526 119.42292 
L 422.502419 111.501541 
L 422.949312 113.064949 
L 423.843098 122.490788 
L 424.289991 101.890193 
L 424.736884 106.65775 
L 425.63067 126.564369 
L 426.077563 125.691374 
L 426.524456 111.432491 
L 426.971349 113.695587 
L 427.418242 127.533696 
L 427.865135 117.053691 
L 428.312028 100.170119 
L 428.758921 118.095545 
L 429.205814 111.815137 
L 429.652707 110.336178 
L 430.0996 99.912215 
L 430.546493 117.785417 
L 430.993386 111.632472 
L 431.440279 113.836142 
L 431.887172 115.449696 
L 432.334065 116.224233 
L 432.780957 113.177017 
L 433.22785 117.844528 
L 433.674743 133.803018 
L 434.121636 138.861194 
L 434.568529 116.391641 
L 435.015422 130.97724 
L 435.909208 117.774835 
L 436.356101 123.105605 
L 436.802994 110.894366 
L 437.249887 132.543065 
L 437.69678 123.096279 
L 438.143673 116.63418 
L 438.590566 115.639835 
L 439.037459 112.320064 
L 439.484352 119.82491 
L 439.931245 115.909783 
L 440.378138 120.286989 
L 440.825031 128.831757 
L 441.718817 94.56235 
L 442.16571 110.396472 
L 442.612603 115.904839 
L 443.059496 109.259852 
L 443.953282 91.17509 
L 444.400175 108.700124 
L 444.847068 108.114632 
L 445.293961 124.482249 
L 445.740854 132.129176 
L 446.187746 133.571001 
L 446.634639 130.809359 
L 447.081532 111.927261 
L 447.528425 117.513966 
L 447.975318 108.587292 
L 448.422211 102.09849 
L 449.315997 134.277539 
L 449.76289 102.847756 
L 450.209783 114.21147 
L 450.656676 117.905459 
L 451.103569 87.900165 
L 451.550462 112.191425 
L 451.997355 130.414099 
L 452.444248 93.251556 
L 452.891141 102.889625 
L 453.338034 122.238992 
L 453.784927 108.896833 
L 454.23182 105.433738 
L 454.678713 106.331624 
L 455.125606 102.892192 
L 455.572499 107.528315 
L 456.019392 107.675305 
L 456.466285 123.143769 
L 456.913178 115.26243 
L 457.360071 115.109861 
L 457.806964 118.346767 
L 458.253857 124.224194 
L 458.70075 131.926669 
L 459.147643 132.633369 
L 459.594535 115.146719 
L 460.041428 115.543603 
L 460.488321 112.810064 
L 460.935214 105.682044 
L 461.382107 100.399977 
L 461.829 119.170721 
L 462.275893 112.043574 
L 462.722786 111.945738 
L 463.169679 103.063921 
L 463.616572 118.3339 
L 464.063465 110.16389 
L 464.510358 120.252052 
L 464.957251 116.370167 
L 465.404144 122.88249 
L 465.851037 116.745107 
L 466.744823 121.733648 
L 467.191716 118.054484 
L 467.638609 99.508877 
L 468.085502 118.8039 
L 468.532395 124.065642 
L 468.979288 112.060759 
L 469.426181 124.862009 
L 469.873074 123.410455 
L 470.319967 125.738171 
L 470.76686 113.029964 
L 471.213753 120.831521 
L 471.660646 120.970588 
L 472.107539 130.298196 
L 472.554432 137.231873 
L 473.001324 112.55231 
L 473.448217 115.210414 
L 473.89511 111.637398 
L 474.342003 120.633041 
L 474.788896 121.801896 
L 475.235789 107.697709 
L 475.682682 108.445873 
L 476.129575 119.873249 
L 476.576468 106.422784 
L 477.023361 110.812919 
L 477.470254 108.477108 
L 477.917147 122.702854 
L 478.36404 102.375949 
L 478.810933 121.841883 
L 479.257826 148.81539 
L 479.704719 142.929071 
L 480.151612 126.481683 
L 480.598505 130.285775 
L 481.045398 141.858267 
L 481.492291 131.884899 
L 481.939184 133.522748 
L 482.386077 115.497093 
L 482.83297 137.054605 
L 483.279863 146.780458 
L 483.726756 119.10758 
L 484.173649 131.795343 
L 484.620542 124.773761 
L 485.067435 129.69036 
L 485.514328 133.002111 
L 485.96122 131.249466 
L 486.408113 117.543761 
L 486.855006 121.480891 
L 487.301899 136.824462 
L 487.748792 123.477521 
L 488.195685 121.146451 
L 488.642578 125.579933 
L 489.089471 147.172138 
L 489.536364 129.995241 
L 489.983257 122.506607 
L 490.877043 117.986881 
L 491.323936 127.882333 
L 491.770829 109.798133 
L 492.217722 131.221483 
L 492.664615 125.695732 
L 493.111508 116.733264 
L 493.558401 119.399338 
L 494.005294 119.89007 
L 494.452187 117.878873 
L 494.89908 99.144521 
L 495.345973 119.120443 
L 495.792866 126.250641 
L 496.239759 127.521326 
L 496.686652 132.701392 
L 497.133545 156.303068 
L 497.580438 122.704689 
L 498.027331 122.980292 
L 498.474224 124.580774 
L 498.921117 138.246696 
L 499.368009 139.664131 
L 499.814902 139.578651 
L 500.261795 133.019417 
L 500.708688 119.94587 
L 501.155581 133.760725 
L 501.602474 119.932462 
L 502.049367 126.718486 
L 502.49626 146.138533 
L 502.943153 98.27085 
L 503.390046 118.116224 
L 503.836939 121.129811 
L 504.283832 121.582608 
L 504.730725 120.474138 
L 505.177618 121.337731 
L 505.624511 101.418645 
L 506.071404 102.515452 
L 506.96519 131.956178 
L 507.412083 140.466307 
L 507.858976 117.393965 
L 508.305869 132.063072 
L 508.752762 114.025824 
L 509.199655 124.270268 
L 509.646548 116.188707 
L 510.093441 115.586746 
L 510.540334 104.211585 
L 510.987227 115.432982 
L 511.881013 119.901555 
L 512.327906 110.435849 
L 512.774798 109.841978 
L 513.221691 102.784735 
L 513.668584 116.296719 
L 514.115477 119.475899 
L 514.56237 112.393435 
L 515.009263 120.468944 
L 515.456156 106.178619 
L 515.903049 112.693833 
L 516.349942 111.045549 
L 516.796835 117.016061 
L 517.243728 115.864677 
L 517.690621 117.903291 
L 518.137514 123.948461 
L 519.0313 117.479616 
L 519.925086 95.537178 
L 520.371979 134.25034 
L 520.818872 100.924174 
L 521.265765 134.511624 
L 521.712658 106.399557 
L 522.159551 120.127659 
L 522.606444 96.801266 
L 523.053337 112.278178 
L 523.50023 109.576709 
L 523.947123 126.472459 
L 524.394016 116.073455 
L 524.840909 118.670096 
L 525.287802 110.303921 
L 525.734695 128.714264 
L 526.181587 134.931819 
L 526.62848 116.44642 
L 527.075373 123.267352 
L 527.522266 123.210651 
L 527.969159 98.785557 
L 528.416052 92.537239 
L 528.416052 92.537239 
" clip-path="url(#p42c31898a9)" style="fill: none; stroke: #000000; stroke-width: 0.7; stroke-linecap: round"/>
   </g>
   <g id="line2d_19">
    <path d="M 103.420841 109.704773 
L 103.867734 109.179593 
L 104.314627 109.187736 
L 104.76152 108.420932 
L 105.655306 108.375417 
L 106.102199 108.533359 
L 106.549092 109.258203 
L 107.442878 109.116207 
L 107.889771 108.598224 
L 108.336664 108.641167 
L 108.783557 108.333195 
L 109.23045 108.803358 
L 110.124236 110.305318 
L 112.358701 112.601072 
L 112.805593 112.436242 
L 113.252486 113.357188 
L 113.699379 113.418082 
L 114.146272 114.322486 
L 114.593165 114.671126 
L 115.040058 115.242802 
L 115.486951 116.389491 
L 115.933844 116.726434 
L 116.380737 117.426926 
L 116.82763 117.615581 
L 117.721416 117.142491 
L 118.168309 117.755099 
L 118.615202 117.832351 
L 119.062095 118.415372 
L 119.955881 120.542065 
L 120.402774 120.818638 
L 120.849667 121.695891 
L 121.29656 122.052277 
L 121.743453 121.831081 
L 122.190346 122.300546 
L 122.637239 122.560174 
L 123.531025 123.520997 
L 123.977918 124.085589 
L 124.871704 125.776984 
L 125.318597 126.855567 
L 125.76549 127.537298 
L 126.212382 128.445052 
L 127.106168 129.609322 
L 128.446847 131.66967 
L 128.89374 131.901121 
L 129.340633 133.300685 
L 130.234419 136.534351 
L 130.681312 137.105601 
L 131.128205 138.180426 
L 131.575098 138.808861 
L 132.021991 138.404036 
L 132.468884 138.982622 
L 132.915777 138.779951 
L 133.36267 139.141082 
L 133.809563 139.741353 
L 134.703349 140.143078 
L 135.150242 140.919271 
L 135.597135 141.261821 
L 136.044028 142.068396 
L 136.490921 142.445565 
L 136.937814 143.54085 
L 137.384707 145.146467 
L 138.278493 146.652478 
L 138.725386 147.557001 
L 139.172279 147.557566 
L 140.95985 150.318906 
L 141.406743 150.521944 
L 141.853636 149.945359 
L 142.300529 150.077917 
L 142.747422 149.658819 
L 143.641208 148.196977 
L 144.088101 148.170887 
L 144.534994 148.383319 
L 144.981887 147.823719 
L 145.42878 147.575416 
L 146.322566 146.481813 
L 146.769459 145.954885 
L 147.216352 145.866861 
L 148.110138 144.192716 
L 148.557031 143.17271 
L 149.450817 140.182215 
L 150.791496 136.121748 
L 151.238389 135.159363 
L 151.685282 133.720654 
L 152.579067 130.308132 
L 153.919746 126.318452 
L 154.366639 125.781013 
L 154.813532 124.057131 
L 155.260425 123.49792 
L 156.154211 121.168968 
L 156.601104 121.103188 
L 157.047997 120.321754 
L 158.388676 116.956945 
L 158.835569 116.282734 
L 159.729355 114.033224 
L 161.070034 110.316643 
L 161.516927 110.082061 
L 163.751392 106.373748 
L 164.198285 106.155888 
L 164.645178 105.528485 
L 165.092071 105.881985 
L 165.538964 106.393485 
L 165.985856 106.68313 
L 166.432749 106.77112 
L 166.879642 106.025775 
L 167.326535 105.826076 
L 168.220321 105.195325 
L 169.114107 104.983376 
L 169.561 104.443272 
L 170.007893 104.937262 
L 170.454786 105.227741 
L 170.901679 105.818361 
L 171.795465 107.842264 
L 172.689251 109.835001 
L 173.136144 110.378857 
L 174.02993 111.876627 
L 174.923716 113.9626 
L 175.370609 114.353238 
L 175.817502 115.000385 
L 176.264395 115.88585 
L 176.711288 116.176226 
L 177.158181 116.808146 
L 177.605074 116.3393 
L 178.051967 116.627553 
L 178.49886 116.667386 
L 178.945753 115.892782 
L 179.392645 115.442177 
L 179.839538 115.432797 
L 180.286431 115.174998 
L 180.733324 115.161011 
L 182.967789 114.189429 
L 183.414682 114.741795 
L 183.861575 114.422231 
L 184.755361 114.167068 
L 185.649147 112.671986 
L 186.09604 112.345074 
L 186.542933 111.77875 
L 186.989826 111.486533 
L 187.436719 110.841466 
L 188.330505 109.993511 
L 188.777398 109.307377 
L 191.458756 110.562796 
L 191.905649 110.488146 
L 192.352542 109.709014 
L 193.246327 108.609399 
L 193.69322 108.397295 
L 194.140113 107.925821 
L 194.587006 107.268339 
L 195.033899 106.982209 
L 195.480792 106.930082 
L 195.927685 106.038324 
L 196.374578 105.501443 
L 196.821471 104.73409 
L 197.268364 104.193377 
L 197.715257 104.013058 
L 198.609043 103.196802 
L 199.055936 103.161294 
L 199.502829 103.272569 
L 199.949722 103.96183 
L 200.396615 104.084462 
L 200.843508 104.71646 
L 201.290401 105.155225 
L 201.737294 105.75035 
L 202.63108 106.674934 
L 203.971759 107.001014 
L 204.418652 107.270742 
L 204.865545 107.354905 
L 205.312438 106.934718 
L 205.759331 106.173926 
L 207.546902 106.765322 
L 207.993795 107.359665 
L 208.440688 107.635714 
L 208.887581 108.134693 
L 209.334474 108.327408 
L 209.781367 108.750247 
L 210.675153 108.715233 
L 211.122046 108.864917 
L 213.356511 108.610105 
L 214.250297 109.173577 
L 214.69719 110.272169 
L 215.144083 111.068591 
L 215.590976 111.373398 
L 216.037869 111.81745 
L 216.484762 111.991282 
L 218.719227 115.364468 
L 219.16612 115.755657 
L 219.613012 116.597404 
L 220.506798 117.106088 
L 220.953691 116.958607 
L 221.400584 116.997242 
L 221.847477 116.826307 
L 222.29437 117.259363 
L 222.741263 117.904512 
L 223.635049 118.185744 
L 224.081942 118.27635 
L 224.528835 118.576474 
L 225.422621 119.89949 
L 225.869514 120.159368 
L 227.210193 122.254553 
L 228.103979 124.330173 
L 229.444658 125.409386 
L 229.891551 126.463137 
L 230.785337 127.469929 
L 231.23223 127.845002 
L 232.572908 130.525654 
L 233.913587 134.438572 
L 234.36048 135.551879 
L 236.148052 138.450543 
L 236.594945 138.923685 
L 237.041838 138.791491 
L 237.935624 139.545522 
L 238.382517 139.742988 
L 238.82941 140.444333 
L 239.276303 140.074574 
L 239.723196 139.406645 
L 240.170089 139.316214 
L 240.616982 138.575317 
L 241.063875 138.206385 
L 241.510768 137.497869 
L 241.957661 136.304486 
L 242.851447 135.878831 
L 243.29834 135.762449 
L 243.745233 135.30642 
L 244.192126 135.127783 
L 245.532805 132.840575 
L 245.979697 132.557294 
L 246.42659 131.957865 
L 247.320376 129.681126 
L 247.767269 128.101888 
L 248.661055 126.526368 
L 249.554841 123.708778 
L 250.89552 120.854113 
L 251.342413 119.347632 
L 251.789306 118.98069 
L 253.129985 115.716338 
L 253.576878 114.925503 
L 254.917557 111.09462 
L 256.258236 105.945178 
L 257.598915 101.309604 
L 259.386486 95.631888 
L 259.833379 94.745486 
L 260.280272 94.468727 
L 260.727165 94.025083 
L 262.514737 91.12655 
L 262.96163 91.014629 
L 263.855416 90.427529 
L 264.302309 90.392606 
L 268.771239 86.520022 
L 269.665025 86.456856 
L 270.111918 86.937045 
L 270.558811 86.724221 
L 271.005704 86.099383 
L 271.452597 85.945652 
L 271.89949 85.99639 
L 272.346383 85.698417 
L 272.793275 85.629295 
L 273.240168 85.276519 
L 273.687061 85.37167 
L 274.580847 85.0185 
L 275.02774 84.926173 
L 275.474633 85.236054 
L 276.368419 85.043133 
L 276.815312 85.541311 
L 277.709098 86.143855 
L 278.155991 86.120132 
L 279.049777 86.700998 
L 280.390456 87.933088 
L 280.837349 87.792104 
L 281.284242 87.838314 
L 281.731135 88.192335 
L 283.071814 85.900501 
L 283.9656 85.01973 
L 284.412493 85.09662 
L 285.306279 85.004367 
L 285.753172 85.03308 
L 286.200064 84.883211 
L 287.09385 84.334306 
L 287.540743 84.426813 
L 288.434529 85.083077 
L 288.881422 85.52264 
L 289.328315 86.120484 
L 293.350352 93.355091 
L 293.797245 93.848443 
L 296.03171 98.248626 
L 296.478603 98.860008 
L 297.372389 99.699029 
L 297.819282 99.706692 
L 299.606853 100.921408 
L 301.394425 103.82235 
L 302.735104 106.518105 
L 304.969569 110.778354 
L 305.863355 112.812054 
L 306.757141 114.009517 
L 307.204034 114.404925 
L 307.650927 114.651085 
L 308.544713 115.635136 
L 309.438499 116.970592 
L 309.885392 117.36732 
L 310.332285 117.436835 
L 310.779178 117.293248 
L 311.226071 116.694332 
L 311.672964 116.757299 
L 313.013642 115.656635 
L 314.354321 113.57311 
L 314.801214 113.186672 
L 315.695 113.095977 
L 316.141893 113.263244 
L 316.588786 112.57606 
L 317.482572 112.370686 
L 318.376358 111.476711 
L 318.823251 110.818377 
L 319.270144 110.49836 
L 320.16393 110.243759 
L 322.845288 108.233395 
L 323.739074 106.768959 
L 325.079753 103.260647 
L 325.526646 103.090027 
L 325.973538 102.50833 
L 326.420431 102.229051 
L 328.208003 99.539808 
L 328.654896 99.548102 
L 329.548682 99.116015 
L 329.995575 99.134986 
L 331.783147 97.838689 
L 332.23004 97.493475 
L 332.676933 96.850943 
L 333.123826 96.417064 
L 333.570719 96.175887 
L 334.017612 95.712999 
L 334.911398 95.653394 
L 335.358291 95.35256 
L 335.805184 95.240792 
L 336.69897 95.829789 
L 337.145863 95.707806 
L 338.486542 96.401913 
L 338.933435 96.923286 
L 340.721006 96.810695 
L 341.167899 97.348753 
L 342.061685 97.922727 
L 343.402364 99.506069 
L 343.849257 99.87827 
L 344.29615 100.467334 
L 344.743043 100.665905 
L 345.636829 101.7217 
L 346.530615 103.062274 
L 347.424401 104.780343 
L 347.871294 105.136585 
L 348.318187 105.812202 
L 348.76508 106.189914 
L 349.658866 107.857202 
L 350.105759 108.41766 
L 350.552652 108.409781 
L 351.893331 109.206264 
L 352.340224 109.146598 
L 352.787116 109.395519 
L 353.234009 109.339291 
L 353.680902 109.5703 
L 354.127795 109.485805 
L 354.574688 109.587795 
L 355.468474 110.046912 
L 355.915367 110.241282 
L 356.36226 110.609795 
L 357.256046 109.904615 
L 358.149832 110.095007 
L 359.490511 109.373157 
L 359.937404 108.810903 
L 360.384297 108.450571 
L 360.83119 107.829581 
L 361.278083 107.537891 
L 361.724976 107.588955 
L 363.065655 107.201058 
L 363.959441 106.119771 
L 364.853227 104.127527 
L 365.747013 103.867876 
L 366.193905 103.555232 
L 366.640798 103.501389 
L 367.534584 102.770541 
L 368.875263 101.228103 
L 369.322156 100.660826 
L 369.769049 100.568604 
L 370.215942 100.181522 
L 370.662835 99.521023 
L 371.109728 99.119695 
L 371.556621 98.444623 
L 372.450407 97.712015 
L 372.8973 97.588454 
L 373.791086 96.887281 
L 374.237979 96.852668 
L 374.684872 97.249098 
L 376.025551 96.783434 
L 376.472444 97.131384 
L 377.813123 97.280423 
L 378.260016 97.311595 
L 378.706909 96.693605 
L 379.153802 96.481817 
L 379.600694 96.573009 
L 380.49448 95.949163 
L 380.941373 95.235879 
L 381.388266 94.95059 
L 382.728945 95.034023 
L 383.175838 95.098081 
L 384.96341 93.073139 
L 385.410303 93.174843 
L 386.304089 93.72441 
L 386.750982 94.163904 
L 387.197875 94.761159 
L 387.644768 94.378981 
L 388.091661 94.164853 
L 388.538554 94.084406 
L 389.879233 92.702815 
L 390.773019 92.022361 
L 391.219912 92.065067 
L 392.113698 91.233436 
L 393.007483 91.204103 
L 393.454376 90.962459 
L 393.901269 91.095373 
L 394.348162 90.800828 
L 394.795055 90.681549 
L 395.241948 90.418827 
L 395.688841 90.413277 
L 396.582627 91.021414 
L 397.02952 90.609975 
L 397.476413 90.492123 
L 397.923306 90.690872 
L 398.370199 90.632214 
L 398.817092 90.31832 
L 399.710878 91.116518 
L 400.157771 91.204544 
L 402.392236 93.58611 
L 403.732915 95.807412 
L 404.179808 96.190054 
L 405.520487 96.906144 
L 406.414272 97.737738 
L 406.861165 98.003443 
L 407.308058 98.559685 
L 407.754951 98.916847 
L 408.201844 99.095921 
L 409.09563 100.147218 
L 409.989416 100.572181 
L 410.436309 101.441411 
L 410.883202 101.652445 
L 411.330095 102.255918 
L 412.223881 104.178571 
L 412.670774 105.438005 
L 413.117667 106.06073 
L 413.56456 106.465577 
L 414.011453 107.448909 
L 414.458346 107.971515 
L 414.905239 107.856732 
L 415.799025 109.367192 
L 416.245918 109.939212 
L 417.139704 111.519334 
L 417.586597 112.182364 
L 418.480383 112.965235 
L 418.927276 113.768151 
L 419.374168 114.24707 
L 420.267954 114.404892 
L 421.16174 115.189897 
L 421.608633 114.894369 
L 422.055526 114.996157 
L 422.502419 115.254384 
L 423.396205 115.315908 
L 423.843098 115.605694 
L 425.183777 115.424438 
L 426.077563 116.053894 
L 426.524456 115.894789 
L 427.865135 116.544494 
L 428.312028 116.424945 
L 429.205814 117.062445 
L 430.993386 117.324891 
L 431.440279 117.198329 
L 431.887172 117.422981 
L 432.334065 117.822755 
L 432.780957 117.598876 
L 433.674743 118.326487 
L 434.121636 118.691677 
L 435.015422 118.303257 
L 435.462315 118.54277 
L 436.356101 118.690668 
L 436.802994 118.616161 
L 437.249887 119.358349 
L 438.590566 118.804999 
L 439.037459 118.280035 
L 440.825031 117.806067 
L 441.271924 116.835392 
L 441.718817 116.3028 
L 442.612603 116.552153 
L 443.059496 116.451867 
L 444.400175 115.622374 
L 444.847068 115.554636 
L 446.187746 116.295746 
L 446.634639 116.87413 
L 447.528425 116.987114 
L 448.422211 116.155715 
L 448.869104 116.259751 
L 449.315997 116.67139 
L 449.76289 116.177672 
L 450.209783 116.120827 
L 450.656676 116.475534 
L 451.103569 115.871626 
L 451.550462 115.879152 
L 451.997355 116.280711 
L 452.444248 116.147497 
L 452.891141 115.849581 
L 453.338034 116.061712 
L 454.23182 115.762607 
L 455.572499 115.152734 
L 456.019392 114.630179 
L 456.466285 114.315831 
L 456.913178 114.293247 
L 457.360071 113.975899 
L 457.806964 113.849163 
L 458.70075 114.154572 
L 459.147643 114.589352 
L 459.594535 114.241425 
L 461.829 113.563248 
L 462.722786 113.319098 
L 463.169679 112.803742 
L 463.616572 112.93225 
L 464.510358 113.441392 
L 464.957251 113.450699 
L 465.851037 114.076602 
L 466.29793 114.639313 
L 467.191716 115.09878 
L 467.638609 114.599313 
L 468.979288 113.767728 
L 469.426181 114.026423 
L 469.873074 114.144353 
L 470.76686 114.706 
L 471.213753 114.789944 
L 471.660646 114.523805 
L 472.554432 115.533221 
L 473.001324 115.426159 
L 473.448217 115.972363 
L 473.89511 115.961283 
L 474.342003 115.765662 
L 474.788896 116.336669 
L 475.235789 116.43283 
L 475.682682 116.156968 
L 476.129575 116.376496 
L 477.023361 116.485903 
L 477.470254 116.597601 
L 477.917147 116.901092 
L 478.810933 116.769067 
L 479.704719 117.996511 
L 481.045398 118.479073 
L 481.492291 118.464103 
L 481.939184 118.831624 
L 482.386077 118.830694 
L 482.83297 119.315584 
L 483.279863 120.137553 
L 484.173649 120.764197 
L 485.067435 121.373693 
L 485.514328 121.972457 
L 486.408113 122.378366 
L 486.855006 122.402943 
L 487.301899 122.812029 
L 488.195685 122.911956 
L 488.642578 123.037342 
L 489.089471 123.546112 
L 489.536364 123.784927 
L 489.983257 124.244882 
L 490.43015 124.276264 
L 490.877043 124.154688 
L 491.323936 124.47112 
L 491.770829 124.169842 
L 492.217722 124.326063 
L 494.005294 124.349026 
L 494.452187 124.10064 
L 494.89908 123.338893 
L 495.792866 123.69106 
L 496.686652 124.250105 
L 497.133545 124.940129 
L 498.027331 125.530957 
L 498.474224 125.625107 
L 499.814902 127.460641 
L 500.261795 127.666972 
L 501.155581 128.256747 
L 501.602474 127.679089 
L 502.049367 127.354877 
L 502.49626 127.748014 
L 503.390046 126.632875 
L 504.283832 126.17897 
L 504.730725 126.278511 
L 505.177618 125.964173 
L 505.624511 125.056937 
L 506.518297 124.454791 
L 507.412083 124.813958 
L 507.858976 124.501795 
L 509.199655 124.503496 
L 509.646548 124.090781 
L 510.093441 123.932966 
L 512.327906 122.359634 
L 513.668584 121.613258 
L 514.115477 121.806813 
L 514.56237 121.430252 
L 515.456156 121.114624 
L 516.796835 120.786367 
L 517.243728 121.12077 
L 518.137514 121.050383 
L 518.584407 120.91443 
L 519.0313 120.609995 
L 519.478193 119.626972 
L 519.925086 119.083622 
L 520.371979 119.309023 
L 520.818872 118.835891 
L 521.265765 118.761189 
L 521.712658 118.095898 
L 522.159551 117.706878 
L 522.606444 116.982515 
L 523.053337 116.829161 
L 523.50023 116.345481 
L 523.947123 116.476281 
L 524.394016 116.26338 
L 524.840909 115.714011 
L 526.181587 116.442674 
L 526.62848 116.33995 
L 527.522266 116.433273 
L 527.969159 116.380611 
L 528.416052 116.181047 
L 528.416052 116.181047 
" clip-path="url(#p42c31898a9)" style="fill: none; stroke-dasharray: 2.96,1.28; stroke-dashoffset: 0; stroke: #ff0000; stroke-width: 0.8"/>
   </g>
   <g id="patch_3">
    <path d="M 59.178438 200.648125 
L 59.178438 55.609187 
" style="fill: none; stroke: #ffffff; stroke-width: 1.25; stroke-linejoin: miter; stroke-linecap: square"/>
   </g>
   <g id="patch_4">
    <path d="M 550.760701 200.648125 
L 550.760701 55.609187 
" style="fill: none; stroke: #ffffff; stroke-width: 1.25; stroke-linejoin: miter; stroke-linecap: square"/>
   </g>
   <g id="patch_5">
    <path d="M 59.178438 200.648125 
L 550.760701 200.648125 
" style="fill: none; stroke: #ffffff; stroke-width: 1.25; stroke-linejoin: miter; stroke-linecap: square"/>
   </g>
   <g id="patch_6">
    <path d="M 59.178438 55.609187 
L 550.760701 55.609187 
" style="fill: none; stroke: #ffffff; stroke-width: 1.25; stroke-linejoin: miter; stroke-linecap: square"/>
   </g>
   <g id="legend_1">
    <g id="patch_7">
     <path d="M 478.921013 196.148125 
L 544.460701 196.148125 
Q 546.260701 196.148125 546.260701 194.348125 
L 546.260701 168.8275 
Q 546.260701 167.0275 544.460701 167.0275 
L 478.921013 167.0275 
Q 477.121013 167.0275 477.121013 168.8275 
L 477.121013 194.348125 
Q 477.121013 196.148125 478.921013 196.148125 
z
" style="fill: #eaeaf2; opacity: 0.8; stroke: #cccccc; stroke-linejoin: miter"/>
    </g>
    <g id="line2d_20">
     <path d="M 480.721013 174.316094 
L 489.721013 174.316094 
L 498.721013 174.316094 
" style="fill: none; stroke: #000000; stroke-width: 0.7; stroke-linecap: round"/>
    </g>
    <g id="text_20">
     <!-- TOTAL -->
     <g style="fill: #262626" transform="translate(505.921013 177.466094)scale(0.09 -0.09)">
      <defs>
       <path id="DejaVuSans-54" d="M -19 4666 
L 3928 4666 
L 3928 4134 
L 2272 4134 
L 2272 0 
L 1638 0 
L 1638 4134 
L -19 4134 
L -19 4666 
z
" transform="scale(0.015625)"/>
       <path id="DejaVuSans-4f" d="M 2522 4238 
Q 1834 4238 1429 3725 
Q 1025 3213 1025 2328 
Q 1025 1447 1429 934 
Q 1834 422 2522 422 
Q 3209 422 3611 934 
Q 4013 1447 4013 2328 
Q 4013 3213 3611 3725 
Q 3209 4238 2522 4238 
z
M 2522 4750 
Q 3503 4750 4090 4092 
Q 4678 3434 4678 2328 
Q 4678 1225 4090 567 
Q 3503 -91 2522 -91 
Q 1538 -91 948 565 
Q 359 1222 359 2328 
Q 359 3434 948 4092 
Q 1538 4750 2522 4750 
z
" transform="scale(0.015625)"/>
       <path id="DejaVuSans-41" d="M 2188 4044 
L 1331 1722 
L 3047 1722 
L 2188 4044 
z
M 1831 4666 
L 2547 4666 
L 4325 0 
L 3669 0 
L 3244 1197 
L 1141 1197 
L 716 0 
L 50 0 
L 1831 4666 
z
" transform="scale(0.015625)"/>
       <path id="DejaVuSans-4c" d="M 628 4666 
L 1259 4666 
L 1259 531 
L 3531 531 
L 3531 0 
L 628 0 
L 628 4666 
z
" transform="scale(0.015625)"/>
      </defs>
      <use xlink:href="#DejaVuSans-54"/>
      <use xlink:href="#DejaVuSans-4f" x="61.083984"/>
      <use xlink:href="#DejaVuSans-54" x="139.794922"/>
      <use xlink:href="#DejaVuSans-41" x="193.128906"/>
      <use xlink:href="#DejaVuSans-4c" x="261.537109"/>
     </g>
    </g>
    <g id="line2d_21">
     <path d="M 480.721013 187.526406 
L 489.721013 187.526406 
L 498.721013 187.526406 
" style="fill: none; stroke-dasharray: 2.96,1.28; stroke-dashoffset: 0; stroke: #ff0000; stroke-width: 0.8"/>
    </g>
    <g id="text_21">
     <!-- Mov. Av. -->
     <g style="fill: #262626" transform="translate(505.921013 190.676406)scale(0.09 -0.09)">
      <defs>
       <path id="DejaVuSans-4d" d="M 628 4666 
L 1569 4666 
L 2759 1491 
L 3956 4666 
L 4897 4666 
L 4897 0 
L 4281 0 
L 4281 4097 
L 3078 897 
L 2444 897 
L 1241 4097 
L 1241 0 
L 628 0 
L 628 4666 
z
" transform="scale(0.015625)"/>
       <path id="DejaVuSans-76" d="M 191 3500 
L 800 3500 
L 1894 563 
L 2988 3500 
L 3597 3500 
L 2284 0 
L 1503 0 
L 191 3500 
z
" transform="scale(0.015625)"/>
       <path id="DejaVuSans-2e" d="M 684 794 
L 1344 794 
L 1344 0 
L 684 0 
L 684 794 
z
" transform="scale(0.015625)"/>
      </defs>
      <use xlink:href="#DejaVuSans-4d"/>
      <use xlink:href="#DejaVuSans-6f" x="86.279297"/>
      <use xlink:href="#DejaVuSans-76" x="147.460938"/>
      <use xlink:href="#DejaVuSans-2e" x="198.890625"/>
      <use xlink:href="#DejaVuSans-20" x="230.677734"/>
      <use xlink:href="#DejaVuSans-41" x="262.464844"/>
      <use xlink:href="#DejaVuSans-76" x="324.998047"/>
      <use xlink:href="#DejaVuSans-2e" x="376.427734"/>
     </g>
    </g>
   </g>
  </g>
  <g id="text_22">
   <!-- Energetic Components -->
   <g style="fill: #262626" transform="translate(208.277656 15.605813)scale(0.14 -0.14)">
    <defs>
     <path id="DejaVuSans-74" d="M 1172 4494 
L 1172 3500 
L 2356 3500 
L 2356 3053 
L 1172 3053 
L 1172 1153 
Q 1172 725 1289 603 
Q 1406 481 1766 481 
L 2356 481 
L 2356 0 
L 1766 0 
Q 1100 0 847 248 
Q 594 497 594 1153 
L 594 3053 
L 172 3053 
L 172 3500 
L 594 3500 
L 594 4494 
L 1172 4494 
z
" transform="scale(0.015625)"/>
     <path id="DejaVuSans-69" d="M 603 3500 
L 1178 3500 
L 1178 0 
L 603 0 
L 603 3500 
z
M 603 4863 
L 1178 4863 
L 1178 4134 
L 603 4134 
L 603 4863 
z
" transform="scale(0.015625)"/>
     <path id="DejaVuSans-43" d="M 4122 4306 
L 4122 3641 
Q 3803 3938 3442 4084 
Q 3081 4231 2675 4231 
Q 1875 4231 1450 3742 
Q 1025 3253 1025 2328 
Q 1025 1406 1450 917 
Q 1875 428 2675 428 
Q 3081 428 3442 575 
Q 3803 722 4122 1019 
L 4122 359 
Q 3791 134 3420 21 
Q 3050 -91 2638 -91 
Q 1578 -91 968 557 
Q 359 1206 359 2328 
Q 359 3453 968 4101 
Q 1578 4750 2638 4750 
Q 3056 4750 3426 4639 
Q 3797 4528 4122 4306 
z
" transform="scale(0.015625)"/>
     <path id="DejaVuSans-70" d="M 1159 525 
L 1159 -1331 
L 581 -1331 
L 581 3500 
L 1159 3500 
L 1159 2969 
Q 1341 3281 1617 3432 
Q 1894 3584 2278 3584 
Q 2916 3584 3314 3078 
Q 3713 2572 3713 1747 
Q 3713 922 3314 415 
Q 2916 -91 2278 -91 
Q 1894 -91 1617 61 
Q 1341 213 1159 525 
z
M 3116 1747 
Q 3116 2381 2855 2742 
Q 2594 3103 2138 3103 
Q 1681 3103 1420 2742 
Q 1159 2381 1159 1747 
Q 1159 1113 1420 752 
Q 1681 391 2138 391 
Q 2594 391 2855 752 
Q 3116 1113 3116 1747 
z
" transform="scale(0.015625)"/>
    </defs>
    <use xlink:href="#DejaVuSans-45"/>
    <use xlink:href="#DejaVuSans-6e" x="63.183594"/>
    <use xlink:href="#DejaVuSans-65" x="126.5625"/>
    <use xlink:href="#DejaVuSans-72" x="188.085938"/>
    <use xlink:href="#DejaVuSans-67" x="227.449219"/>
    <use xlink:href="#DejaVuSans-65" x="290.925781"/>
    <use xlink:href="#DejaVuSans-74" x="352.449219"/>
    <use xlink:href="#DejaVuSans-69" x="391.658203"/>
    <use xlink:href="#DejaVuSans-63" x="419.441406"/>
    <use xlink:href="#DejaVuSans-20" x="474.421875"/>
    <use xlink:href="#DejaVuSans-43" x="506.208984"/>
    <use xlink:href="#DejaVuSans-6f" x="576.033203"/>
    <use xlink:href="#DejaVuSans-6d" x="637.214844"/>
    <use xlink:href="#DejaVuSans-70" x="734.626953"/>
    <use xlink:href="#DejaVuSans-6f" x="798.103516"/>
    <use xlink:href="#DejaVuSans-6e" x="859.285156"/>
    <use xlink:href="#DejaVuSans-65" x="922.664062"/>
    <use xlink:href="#DejaVuSans-6e" x="984.1875"/>
    <use xlink:href="#DejaVuSans-74" x="1047.566406"/>
    <use xlink:href="#DejaVuSans-73" x="1086.775391"/>
   </g>
   <!-- System-1 | Normal | GB | Delta | TOTAL -->
   <g style="fill: #262626" transform="translate(151.249531 31.35625)scale(0.14 -0.14)">
    <defs>
     <path id="DejaVuSans-53" d="M 3425 4513 
L 3425 3897 
Q 3066 4069 2747 4153 
Q 2428 4238 2131 4238 
Q 1616 4238 1336 4038 
Q 1056 3838 1056 3469 
Q 1056 3159 1242 3001 
Q 1428 2844 1947 2747 
L 2328 2669 
Q 3034 2534 3370 2195 
Q 3706 1856 3706 1288 
Q 3706 609 3251 259 
Q 2797 -91 1919 -91 
Q 1588 -91 1214 -16 
Q 841 59 441 206 
L 441 856 
Q 825 641 1194 531 
Q 1563 422 1919 422 
Q 2459 422 2753 634 
Q 3047 847 3047 1241 
Q 3047 1584 2836 1778 
Q 2625 1972 2144 2069 
L 1759 2144 
Q 1053 2284 737 2584 
Q 422 2884 422 3419 
Q 422 4038 858 4394 
Q 1294 4750 2059 4750 
Q 2388 4750 2728 4690 
Q 3069 4631 3425 4513 
z
" transform="scale(0.015625)"/>
     <path id="DejaVuSans-2d" d="M 313 2009 
L 1997 2009 
L 1997 1497 
L 313 1497 
L 313 2009 
z
" transform="scale(0.015625)"/>
     <path id="DejaVuSans-7c" d="M 1344 4891 
L 1344 -1509 
L 813 -1509 
L 813 4891 
L 1344 4891 
z
" transform="scale(0.015625)"/>
     <path id="DejaVuSans-4e" d="M 628 4666 
L 1478 4666 
L 3547 763 
L 3547 4666 
L 4159 4666 
L 4159 0 
L 3309 0 
L 1241 3903 
L 1241 0 
L 628 0 
L 628 4666 
z
" transform="scale(0.015625)"/>
     <path id="DejaVuSans-47" d="M 3809 666 
L 3809 1919 
L 2778 1919 
L 2778 2438 
L 4434 2438 
L 4434 434 
Q 4069 175 3628 42 
Q 3188 -91 2688 -91 
Q 1594 -91 976 548 
Q 359 1188 359 2328 
Q 359 3472 976 4111 
Q 1594 4750 2688 4750 
Q 3144 4750 3555 4637 
Q 3966 4525 4313 4306 
L 4313 3634 
Q 3963 3931 3569 4081 
Q 3175 4231 2741 4231 
Q 1884 4231 1454 3753 
Q 1025 3275 1025 2328 
Q 1025 1384 1454 906 
Q 1884 428 2741 428 
Q 3075 428 3337 486 
Q 3600 544 3809 666 
z
" transform="scale(0.015625)"/>
     <path id="DejaVuSans-42" d="M 1259 2228 
L 1259 519 
L 2272 519 
Q 2781 519 3026 730 
Q 3272 941 3272 1375 
Q 3272 1813 3026 2020 
Q 2781 2228 2272 2228 
L 1259 2228 
z
M 1259 4147 
L 1259 2741 
L 2194 2741 
Q 2656 2741 2882 2914 
Q 3109 3088 3109 3444 
Q 3109 3797 2882 3972 
Q 2656 4147 2194 4147 
L 1259 4147 
z
M 628 4666 
L 2241 4666 
Q 2963 4666 3353 4366 
Q 3744 4066 3744 3513 
Q 3744 3084 3544 2831 
Q 3344 2578 2956 2516 
Q 3422 2416 3680 2098 
Q 3938 1781 3938 1306 
Q 3938 681 3513 340 
Q 3088 0 2303 0 
L 628 0 
L 628 4666 
z
" transform="scale(0.015625)"/>
     <path id="DejaVuSans-44" d="M 1259 4147 
L 1259 519 
L 2022 519 
Q 2988 519 3436 956 
Q 3884 1394 3884 2338 
Q 3884 3275 3436 3711 
Q 2988 4147 2022 4147 
L 1259 4147 
z
M 628 4666 
L 1925 4666 
Q 3281 4666 3915 4102 
Q 4550 3538 4550 2338 
Q 4550 1131 3912 565 
Q 3275 0 1925 0 
L 628 0 
L 628 4666 
z
" transform="scale(0.015625)"/>
    </defs>
    <use xlink:href="#DejaVuSans-53"/>
    <use xlink:href="#DejaVuSans-79" x="63.476562"/>
    <use xlink:href="#DejaVuSans-73" x="122.65625"/>
    <use xlink:href="#DejaVuSans-74" x="174.755859"/>
    <use xlink:href="#DejaVuSans-65" x="213.964844"/>
    <use xlink:href="#DejaVuSans-6d" x="275.488281"/>
    <use xlink:href="#DejaVuSans-2d" x="372.900391"/>
    <use xlink:href="#DejaVuSans-31" x="408.984375"/>
    <use xlink:href="#DejaVuSans-20" x="472.607422"/>
    <use xlink:href="#DejaVuSans-7c" x="504.394531"/>
    <use xlink:href="#DejaVuSans-20" x="538.085938"/>
    <use xlink:href="#DejaVuSans-4e" x="569.873047"/>
    <use xlink:href="#DejaVuSans-6f" x="644.677734"/>
    <use xlink:href="#DejaVuSans-72" x="705.859375"/>
    <use xlink:href="#DejaVuSans-6d" x="745.222656"/>
    <use xlink:href="#DejaVuSans-61" x="842.634766"/>
    <use xlink:href="#DejaVuSans-6c" x="903.914062"/>
    <use xlink:href="#DejaVuSans-20" x="931.697266"/>
    <use xlink:href="#DejaVuSans-7c" x="963.484375"/>
    <use xlink:href="#DejaVuSans-20" x="997.175781"/>
    <use xlink:href="#DejaVuSans-47" x="1028.962891"/>
    <use xlink:href="#DejaVuSans-42" x="1106.453125"/>
    <use xlink:href="#DejaVuSans-20" x="1175.056641"/>
    <use xlink:href="#DejaVuSans-7c" x="1206.84375"/>
    <use xlink:href="#DejaVuSans-20" x="1240.535156"/>
    <use xlink:href="#DejaVuSans-44" x="1272.322266"/>
    <use xlink:href="#DejaVuSans-65" x="1349.324219"/>
    <use xlink:href="#DejaVuSans-6c" x="1410.847656"/>
    <use xlink:href="#DejaVuSans-74" x="1438.630859"/>
    <use xlink:href="#DejaVuSans-61" x="1477.839844"/>
    <use xlink:href="#DejaVuSans-20" x="1539.119141"/>
    <use xlink:href="#DejaVuSans-7c" x="1570.90625"/>
    <use xlink:href="#DejaVuSans-20" x="1604.597656"/>
    <use xlink:href="#DejaVuSans-54" x="1636.384766"/>
    <use xlink:href="#DejaVuSans-4f" x="1697.46875"/>
    <use xlink:href="#DejaVuSans-54" x="1776.179688"/>
    <use xlink:href="#DejaVuSans-41" x="1829.513672"/>
    <use xlink:href="#DejaVuSans-4c" x="1897.921875"/>
   </g>
  </g>
 </g>
 <defs>
  <clipPath id="p42c31898a9">
   <rect x="59.178438" y="55.609187" width="491.582263" height="145.038938"/>
  </clipPath>
 </defs>
</svg>
