<?xml version="1.0" encoding="utf-8" standalone="no"?>
<!DOCTYPE svg PUBLIC "-//W3C//DTD SVG 1.1//EN"
  "http://www.w3.org/Graphics/SVG/1.1/DTD/svg11.dtd">
<svg xmlns:xlink="http://www.w3.org/1999/xlink" width="576pt" height="248.4pt" viewBox="0 0 576 248.4" xmlns="http://www.w3.org/2000/svg" version="1.1">
 <metadata>
  <rdf:RDF xmlns:dc="http://purl.org/dc/elements/1.1/" xmlns:cc="http://creativecommons.org/ns#" xmlns:rdf="http://www.w3.org/1999/02/22-rdf-syntax-ns#">
   <cc:Work>
    <dc:type rdf:resource="http://purl.org/dc/dcmitype/StillImage"/>
    <dc:date>2024-10-20T18:16:42.159387</dc:date>
    <dc:format>image/svg+xml</dc:format>
    <dc:creator>
     <cc:Agent>
      <dc:title>Matplotlib v3.5.2, https://matplotlib.org/</dc:title>
     </cc:Agent>
    </dc:creator>
   </cc:Work>
  </rdf:RDF>
 </metadata>
 <defs>
  <style type="text/css">*{stroke-linejoin: round; stroke-linecap: butt}</style>
 </defs>
 <g id="figure_1">
  <g id="patch_1">
   <path d="M 0 248.4 
L 576 248.4 
L 576 0 
L 0 0 
z
" style="fill: #ffffff"/>
  </g>
  <g id="axes_1">
   <g id="patch_2">
    <path d="M 59.178438 200.648125 
L 550.760783 200.648125 
L 550.760783 55.609187 
L 59.178438 55.609187 
z
" style="fill: #eaeaf2"/>
   </g>
   <g id="matplotlib.axis_1">
    <g id="xtick_1">
     <g id="line2d_1">
      <path d="M 81.076197 200.648125 
L 81.076197 55.609187 
" clip-path="url(#pa7878d1e80)" style="fill: none; stroke: #ffffff; stroke-linecap: round"/>
     </g>
     <g id="text_1">
      <!-- 0 -->
      <g style="fill: #262626" transform="translate(77.894947 217.746562)scale(0.1 -0.1)">
       <defs>
        <path id="DejaVuSans-30" d="M 2034 4250 
Q 1547 4250 1301 3770 
Q 1056 3291 1056 2328 
Q 1056 1369 1301 889 
Q 1547 409 2034 409 
Q 2525 409 2770 889 
Q 3016 1369 3016 2328 
Q 3016 3291 2770 3770 
Q 2525 4250 2034 4250 
z
M 2034 4750 
Q 2819 4750 3233 4129 
Q 3647 3509 3647 2328 
Q 3647 1150 3233 529 
Q 2819 -91 2034 -91 
Q 1250 -91 836 529 
Q 422 1150 422 2328 
Q 422 3509 836 4129 
Q 1250 4750 2034 4750 
z
" transform="scale(0.015625)"/>
       </defs>
       <use xlink:href="#DejaVuSans-30"/>
      </g>
     </g>
    </g>
    <g id="xtick_2">
     <g id="line2d_2">
      <path d="M 148.110153 200.648125 
L 148.110153 55.609187 
" clip-path="url(#pa7878d1e80)" style="fill: none; stroke: #ffffff; stroke-linecap: round"/>
     </g>
     <g id="text_2">
      <!-- 150 -->
      <g style="fill: #262626" transform="translate(138.566403 217.746562)scale(0.1 -0.1)">
       <defs>
        <path id="DejaVuSans-31" d="M 794 531 
L 1825 531 
L 1825 4091 
L 703 3866 
L 703 4441 
L 1819 4666 
L 2450 4666 
L 2450 531 
L 3481 531 
L 3481 0 
L 794 0 
L 794 531 
z
" transform="scale(0.015625)"/>
        <path id="DejaVuSans-35" d="M 691 4666 
L 3169 4666 
L 3169 4134 
L 1269 4134 
L 1269 2991 
Q 1406 3038 1543 3061 
Q 1681 3084 1819 3084 
Q 2600 3084 3056 2656 
Q 3513 2228 3513 1497 
Q 3513 744 3044 326 
Q 2575 -91 1722 -91 
Q 1428 -91 1123 -41 
Q 819 9 494 109 
L 494 744 
Q 775 591 1075 516 
Q 1375 441 1709 441 
Q 2250 441 2565 725 
Q 2881 1009 2881 1497 
Q 2881 1984 2565 2268 
Q 2250 2553 1709 2553 
Q 1456 2553 1204 2497 
Q 953 2441 691 2322 
L 691 4666 
z
" transform="scale(0.015625)"/>
       </defs>
       <use xlink:href="#DejaVuSans-31"/>
       <use xlink:href="#DejaVuSans-35" x="63.623047"/>
       <use xlink:href="#DejaVuSans-30" x="127.246094"/>
      </g>
     </g>
    </g>
    <g id="xtick_3">
     <g id="line2d_3">
      <path d="M 215.144109 200.648125 
L 215.144109 55.609187 
" clip-path="url(#pa7878d1e80)" style="fill: none; stroke: #ffffff; stroke-linecap: round"/>
     </g>
     <g id="text_3">
      <!-- 300 -->
      <g style="fill: #262626" transform="translate(205.600359 217.746562)scale(0.1 -0.1)">
       <defs>
        <path id="DejaVuSans-33" d="M 2597 2516 
Q 3050 2419 3304 2112 
Q 3559 1806 3559 1356 
Q 3559 666 3084 287 
Q 2609 -91 1734 -91 
Q 1441 -91 1130 -33 
Q 819 25 488 141 
L 488 750 
Q 750 597 1062 519 
Q 1375 441 1716 441 
Q 2309 441 2620 675 
Q 2931 909 2931 1356 
Q 2931 1769 2642 2001 
Q 2353 2234 1838 2234 
L 1294 2234 
L 1294 2753 
L 1863 2753 
Q 2328 2753 2575 2939 
Q 2822 3125 2822 3475 
Q 2822 3834 2567 4026 
Q 2313 4219 1838 4219 
Q 1578 4219 1281 4162 
Q 984 4106 628 3988 
L 628 4550 
Q 988 4650 1302 4700 
Q 1616 4750 1894 4750 
Q 2613 4750 3031 4423 
Q 3450 4097 3450 3541 
Q 3450 3153 3228 2886 
Q 3006 2619 2597 2516 
z
" transform="scale(0.015625)"/>
       </defs>
       <use xlink:href="#DejaVuSans-33"/>
       <use xlink:href="#DejaVuSans-30" x="63.623047"/>
       <use xlink:href="#DejaVuSans-30" x="127.246094"/>
      </g>
     </g>
    </g>
    <g id="xtick_4">
     <g id="line2d_4">
      <path d="M 282.178065 200.648125 
L 282.178065 55.609187 
" clip-path="url(#pa7878d1e80)" style="fill: none; stroke: #ffffff; stroke-linecap: round"/>
     </g>
     <g id="text_4">
      <!-- 450 -->
      <g style="fill: #262626" transform="translate(272.634315 217.746562)scale(0.1 -0.1)">
       <defs>
        <path id="DejaVuSans-34" d="M 2419 4116 
L 825 1625 
L 2419 1625 
L 2419 4116 
z
M 2253 4666 
L 3047 4666 
L 3047 1625 
L 3713 1625 
L 3713 1100 
L 3047 1100 
L 3047 0 
L 2419 0 
L 2419 1100 
L 313 1100 
L 313 1709 
L 2253 4666 
z
" transform="scale(0.015625)"/>
       </defs>
       <use xlink:href="#DejaVuSans-34"/>
       <use xlink:href="#DejaVuSans-35" x="63.623047"/>
       <use xlink:href="#DejaVuSans-30" x="127.246094"/>
      </g>
     </g>
    </g>
    <g id="xtick_5">
     <g id="line2d_5">
      <path d="M 349.212021 200.648125 
L 349.212021 55.609187 
" clip-path="url(#pa7878d1e80)" style="fill: none; stroke: #ffffff; stroke-linecap: round"/>
     </g>
     <g id="text_5">
      <!-- 600 -->
      <g style="fill: #262626" transform="translate(339.668271 217.746562)scale(0.1 -0.1)">
       <defs>
        <path id="DejaVuSans-36" d="M 2113 2584 
Q 1688 2584 1439 2293 
Q 1191 2003 1191 1497 
Q 1191 994 1439 701 
Q 1688 409 2113 409 
Q 2538 409 2786 701 
Q 3034 994 3034 1497 
Q 3034 2003 2786 2293 
Q 2538 2584 2113 2584 
z
M 3366 4563 
L 3366 3988 
Q 3128 4100 2886 4159 
Q 2644 4219 2406 4219 
Q 1781 4219 1451 3797 
Q 1122 3375 1075 2522 
Q 1259 2794 1537 2939 
Q 1816 3084 2150 3084 
Q 2853 3084 3261 2657 
Q 3669 2231 3669 1497 
Q 3669 778 3244 343 
Q 2819 -91 2113 -91 
Q 1303 -91 875 529 
Q 447 1150 447 2328 
Q 447 3434 972 4092 
Q 1497 4750 2381 4750 
Q 2619 4750 2861 4703 
Q 3103 4656 3366 4563 
z
" transform="scale(0.015625)"/>
       </defs>
       <use xlink:href="#DejaVuSans-36"/>
       <use xlink:href="#DejaVuSans-30" x="63.623047"/>
       <use xlink:href="#DejaVuSans-30" x="127.246094"/>
      </g>
     </g>
    </g>
    <g id="xtick_6">
     <g id="line2d_6">
      <path d="M 416.245977 200.648125 
L 416.245977 55.609187 
" clip-path="url(#pa7878d1e80)" style="fill: none; stroke: #ffffff; stroke-linecap: round"/>
     </g>
     <g id="text_6">
      <!-- 750 -->
      <g style="fill: #262626" transform="translate(406.702227 217.746562)scale(0.1 -0.1)">
       <defs>
        <path id="DejaVuSans-37" d="M 525 4666 
L 3525 4666 
L 3525 4397 
L 1831 0 
L 1172 0 
L 2766 4134 
L 525 4134 
L 525 4666 
z
" transform="scale(0.015625)"/>
       </defs>
       <use xlink:href="#DejaVuSans-37"/>
       <use xlink:href="#DejaVuSans-35" x="63.623047"/>
       <use xlink:href="#DejaVuSans-30" x="127.246094"/>
      </g>
     </g>
    </g>
    <g id="xtick_7">
     <g id="line2d_7">
      <path d="M 483.279933 200.648125 
L 483.279933 55.609187 
" clip-path="url(#pa7878d1e80)" style="fill: none; stroke: #ffffff; stroke-linecap: round"/>
     </g>
     <g id="text_7">
      <!-- 900 -->
      <g style="fill: #262626" transform="translate(473.736183 217.746562)scale(0.1 -0.1)">
       <defs>
        <path id="DejaVuSans-39" d="M 703 97 
L 703 672 
Q 941 559 1184 500 
Q 1428 441 1663 441 
Q 2288 441 2617 861 
Q 2947 1281 2994 2138 
Q 2813 1869 2534 1725 
Q 2256 1581 1919 1581 
Q 1219 1581 811 2004 
Q 403 2428 403 3163 
Q 403 3881 828 4315 
Q 1253 4750 1959 4750 
Q 2769 4750 3195 4129 
Q 3622 3509 3622 2328 
Q 3622 1225 3098 567 
Q 2575 -91 1691 -91 
Q 1453 -91 1209 -44 
Q 966 3 703 97 
z
M 1959 2075 
Q 2384 2075 2632 2365 
Q 2881 2656 2881 3163 
Q 2881 3666 2632 3958 
Q 2384 4250 1959 4250 
Q 1534 4250 1286 3958 
Q 1038 3666 1038 3163 
Q 1038 2656 1286 2365 
Q 1534 2075 1959 2075 
z
" transform="scale(0.015625)"/>
       </defs>
       <use xlink:href="#DejaVuSans-39"/>
       <use xlink:href="#DejaVuSans-30" x="63.623047"/>
       <use xlink:href="#DejaVuSans-30" x="127.246094"/>
      </g>
     </g>
    </g>
    <g id="xtick_8">
     <g id="line2d_8">
      <path d="M 550.313889 200.648125 
L 550.313889 55.609187 
" clip-path="url(#pa7878d1e80)" style="fill: none; stroke: #ffffff; stroke-linecap: round"/>
     </g>
     <g id="text_8">
      <!-- 1050 -->
      <g style="fill: #262626" transform="translate(537.588889 217.746562)scale(0.1 -0.1)">
       <use xlink:href="#DejaVuSans-31"/>
       <use xlink:href="#DejaVuSans-30" x="63.623047"/>
       <use xlink:href="#DejaVuSans-35" x="127.246094"/>
       <use xlink:href="#DejaVuSans-30" x="190.869141"/>
      </g>
     </g>
    </g>
    <g id="text_9">
     <!-- Frames -->
     <g style="fill: #262626" transform="translate(283.14836 232.944375)scale(0.12 -0.12)">
      <defs>
       <path id="DejaVuSans-46" d="M 628 4666 
L 3309 4666 
L 3309 4134 
L 1259 4134 
L 1259 2759 
L 3109 2759 
L 3109 2228 
L 1259 2228 
L 1259 0 
L 628 0 
L 628 4666 
z
" transform="scale(0.015625)"/>
       <path id="DejaVuSans-72" d="M 2631 2963 
Q 2534 3019 2420 3045 
Q 2306 3072 2169 3072 
Q 1681 3072 1420 2755 
Q 1159 2438 1159 1844 
L 1159 0 
L 581 0 
L 581 3500 
L 1159 3500 
L 1159 2956 
Q 1341 3275 1631 3429 
Q 1922 3584 2338 3584 
Q 2397 3584 2469 3576 
Q 2541 3569 2628 3553 
L 2631 2963 
z
" transform="scale(0.015625)"/>
       <path id="DejaVuSans-61" d="M 2194 1759 
Q 1497 1759 1228 1600 
Q 959 1441 959 1056 
Q 959 750 1161 570 
Q 1363 391 1709 391 
Q 2188 391 2477 730 
Q 2766 1069 2766 1631 
L 2766 1759 
L 2194 1759 
z
M 3341 1997 
L 3341 0 
L 2766 0 
L 2766 531 
Q 2569 213 2275 61 
Q 1981 -91 1556 -91 
Q 1019 -91 701 211 
Q 384 513 384 1019 
Q 384 1609 779 1909 
Q 1175 2209 1959 2209 
L 2766 2209 
L 2766 2266 
Q 2766 2663 2505 2880 
Q 2244 3097 1772 3097 
Q 1472 3097 1187 3025 
Q 903 2953 641 2809 
L 641 3341 
Q 956 3463 1253 3523 
Q 1550 3584 1831 3584 
Q 2591 3584 2966 3190 
Q 3341 2797 3341 1997 
z
" transform="scale(0.015625)"/>
       <path id="DejaVuSans-6d" d="M 3328 2828 
Q 3544 3216 3844 3400 
Q 4144 3584 4550 3584 
Q 5097 3584 5394 3201 
Q 5691 2819 5691 2113 
L 5691 0 
L 5113 0 
L 5113 2094 
Q 5113 2597 4934 2840 
Q 4756 3084 4391 3084 
Q 3944 3084 3684 2787 
Q 3425 2491 3425 1978 
L 3425 0 
L 2847 0 
L 2847 2094 
Q 2847 2600 2669 2842 
Q 2491 3084 2119 3084 
Q 1678 3084 1418 2786 
Q 1159 2488 1159 1978 
L 1159 0 
L 581 0 
L 581 3500 
L 1159 3500 
L 1159 2956 
Q 1356 3278 1631 3431 
Q 1906 3584 2284 3584 
Q 2666 3584 2933 3390 
Q 3200 3197 3328 2828 
z
" transform="scale(0.015625)"/>
       <path id="DejaVuSans-65" d="M 3597 1894 
L 3597 1613 
L 953 1613 
Q 991 1019 1311 708 
Q 1631 397 2203 397 
Q 2534 397 2845 478 
Q 3156 559 3463 722 
L 3463 178 
Q 3153 47 2828 -22 
Q 2503 -91 2169 -91 
Q 1331 -91 842 396 
Q 353 884 353 1716 
Q 353 2575 817 3079 
Q 1281 3584 2069 3584 
Q 2775 3584 3186 3129 
Q 3597 2675 3597 1894 
z
M 3022 2063 
Q 3016 2534 2758 2815 
Q 2500 3097 2075 3097 
Q 1594 3097 1305 2825 
Q 1016 2553 972 2059 
L 3022 2063 
z
" transform="scale(0.015625)"/>
       <path id="DejaVuSans-73" d="M 2834 3397 
L 2834 2853 
Q 2591 2978 2328 3040 
Q 2066 3103 1784 3103 
Q 1356 3103 1142 2972 
Q 928 2841 928 2578 
Q 928 2378 1081 2264 
Q 1234 2150 1697 2047 
L 1894 2003 
Q 2506 1872 2764 1633 
Q 3022 1394 3022 966 
Q 3022 478 2636 193 
Q 2250 -91 1575 -91 
Q 1294 -91 989 -36 
Q 684 19 347 128 
L 347 722 
Q 666 556 975 473 
Q 1284 391 1588 391 
Q 1994 391 2212 530 
Q 2431 669 2431 922 
Q 2431 1156 2273 1281 
Q 2116 1406 1581 1522 
L 1381 1569 
Q 847 1681 609 1914 
Q 372 2147 372 2553 
Q 372 3047 722 3315 
Q 1072 3584 1716 3584 
Q 2034 3584 2315 3537 
Q 2597 3491 2834 3397 
z
" transform="scale(0.015625)"/>
      </defs>
      <use xlink:href="#DejaVuSans-46"/>
      <use xlink:href="#DejaVuSans-72" x="50.269531"/>
      <use xlink:href="#DejaVuSans-61" x="91.382812"/>
      <use xlink:href="#DejaVuSans-6d" x="152.662109"/>
      <use xlink:href="#DejaVuSans-65" x="250.074219"/>
      <use xlink:href="#DejaVuSans-73" x="311.597656"/>
     </g>
    </g>
   </g>
   <g id="matplotlib.axis_2">
    <g id="ytick_1">
     <g id="line2d_9">
      <path d="M 59.178438 199.358403 
L 550.760783 199.358403 
" clip-path="url(#pa7878d1e80)" style="fill: none; stroke: #ffffff; stroke-linecap: round"/>
     </g>
     <g id="text_10">
      <!-- −50 -->
      <g style="fill: #262626" transform="translate(28.57375 203.157622)scale(0.1 -0.1)">
       <defs>
        <path id="DejaVuSans-2212" d="M 678 2272 
L 4684 2272 
L 4684 1741 
L 678 1741 
L 678 2272 
z
" transform="scale(0.015625)"/>
       </defs>
       <use xlink:href="#DejaVuSans-2212"/>
       <use xlink:href="#DejaVuSans-35" x="83.789062"/>
       <use xlink:href="#DejaVuSans-30" x="147.412109"/>
      </g>
     </g>
    </g>
    <g id="ytick_2">
     <g id="line2d_10">
      <path d="M 59.178438 184.723723 
L 550.760783 184.723723 
" clip-path="url(#pa7878d1e80)" style="fill: none; stroke: #ffffff; stroke-linecap: round"/>
     </g>
     <g id="text_11">
      <!-- −45 -->
      <g style="fill: #262626" transform="translate(28.57375 188.522942)scale(0.1 -0.1)">
       <use xlink:href="#DejaVuSans-2212"/>
       <use xlink:href="#DejaVuSans-34" x="83.789062"/>
       <use xlink:href="#DejaVuSans-35" x="147.412109"/>
      </g>
     </g>
    </g>
    <g id="ytick_3">
     <g id="line2d_11">
      <path d="M 59.178438 170.089044 
L 550.760783 170.089044 
" clip-path="url(#pa7878d1e80)" style="fill: none; stroke: #ffffff; stroke-linecap: round"/>
     </g>
     <g id="text_12">
      <!-- −40 -->
      <g style="fill: #262626" transform="translate(28.57375 173.888262)scale(0.1 -0.1)">
       <use xlink:href="#DejaVuSans-2212"/>
       <use xlink:href="#DejaVuSans-34" x="83.789062"/>
       <use xlink:href="#DejaVuSans-30" x="147.412109"/>
      </g>
     </g>
    </g>
    <g id="ytick_4">
     <g id="line2d_12">
      <path d="M 59.178438 155.454364 
L 550.760783 155.454364 
" clip-path="url(#pa7878d1e80)" style="fill: none; stroke: #ffffff; stroke-linecap: round"/>
     </g>
     <g id="text_13">
      <!-- −35 -->
      <g style="fill: #262626" transform="translate(28.57375 159.253583)scale(0.1 -0.1)">
       <use xlink:href="#DejaVuSans-2212"/>
       <use xlink:href="#DejaVuSans-33" x="83.789062"/>
       <use xlink:href="#DejaVuSans-35" x="147.412109"/>
      </g>
     </g>
    </g>
    <g id="ytick_5">
     <g id="line2d_13">
      <path d="M 59.178438 140.819684 
L 550.760783 140.819684 
" clip-path="url(#pa7878d1e80)" style="fill: none; stroke: #ffffff; stroke-linecap: round"/>
     </g>
     <g id="text_14">
      <!-- −30 -->
      <g style="fill: #262626" transform="translate(28.57375 144.618903)scale(0.1 -0.1)">
       <use xlink:href="#DejaVuSans-2212"/>
       <use xlink:href="#DejaVuSans-33" x="83.789062"/>
       <use xlink:href="#DejaVuSans-30" x="147.412109"/>
      </g>
     </g>
    </g>
    <g id="ytick_6">
     <g id="line2d_14">
      <path d="M 59.178438 126.185005 
L 550.760783 126.185005 
" clip-path="url(#pa7878d1e80)" style="fill: none; stroke: #ffffff; stroke-linecap: round"/>
     </g>
     <g id="text_15">
      <!-- −25 -->
      <g style="fill: #262626" transform="translate(28.57375 129.984223)scale(0.1 -0.1)">
       <defs>
        <path id="DejaVuSans-32" d="M 1228 531 
L 3431 531 
L 3431 0 
L 469 0 
L 469 531 
Q 828 903 1448 1529 
Q 2069 2156 2228 2338 
Q 2531 2678 2651 2914 
Q 2772 3150 2772 3378 
Q 2772 3750 2511 3984 
Q 2250 4219 1831 4219 
Q 1534 4219 1204 4116 
Q 875 4013 500 3803 
L 500 4441 
Q 881 4594 1212 4672 
Q 1544 4750 1819 4750 
Q 2544 4750 2975 4387 
Q 3406 4025 3406 3419 
Q 3406 3131 3298 2873 
Q 3191 2616 2906 2266 
Q 2828 2175 2409 1742 
Q 1991 1309 1228 531 
z
" transform="scale(0.015625)"/>
       </defs>
       <use xlink:href="#DejaVuSans-2212"/>
       <use xlink:href="#DejaVuSans-32" x="83.789062"/>
       <use xlink:href="#DejaVuSans-35" x="147.412109"/>
      </g>
     </g>
    </g>
    <g id="ytick_7">
     <g id="line2d_15">
      <path d="M 59.178438 111.550325 
L 550.760783 111.550325 
" clip-path="url(#pa7878d1e80)" style="fill: none; stroke: #ffffff; stroke-linecap: round"/>
     </g>
     <g id="text_16">
      <!-- −20 -->
      <g style="fill: #262626" transform="translate(28.57375 115.349544)scale(0.1 -0.1)">
       <use xlink:href="#DejaVuSans-2212"/>
       <use xlink:href="#DejaVuSans-32" x="83.789062"/>
       <use xlink:href="#DejaVuSans-30" x="147.412109"/>
      </g>
     </g>
    </g>
    <g id="ytick_8">
     <g id="line2d_16">
      <path d="M 59.178438 96.915645 
L 550.760783 96.915645 
" clip-path="url(#pa7878d1e80)" style="fill: none; stroke: #ffffff; stroke-linecap: round"/>
     </g>
     <g id="text_17">
      <!-- −15 -->
      <g style="fill: #262626" transform="translate(28.57375 100.714864)scale(0.1 -0.1)">
       <use xlink:href="#DejaVuSans-2212"/>
       <use xlink:href="#DejaVuSans-31" x="83.789062"/>
       <use xlink:href="#DejaVuSans-35" x="147.412109"/>
      </g>
     </g>
    </g>
    <g id="ytick_9">
     <g id="line2d_17">
      <path d="M 59.178438 82.280965 
L 550.760783 82.280965 
" clip-path="url(#pa7878d1e80)" style="fill: none; stroke: #ffffff; stroke-linecap: round"/>
     </g>
     <g id="text_18">
      <!-- −10 -->
      <g style="fill: #262626" transform="translate(28.57375 86.080184)scale(0.1 -0.1)">
       <use xlink:href="#DejaVuSans-2212"/>
       <use xlink:href="#DejaVuSans-31" x="83.789062"/>
       <use xlink:href="#DejaVuSans-30" x="147.412109"/>
      </g>
     </g>
    </g>
    <g id="ytick_10">
     <g id="line2d_18">
      <path d="M 59.178438 67.646286 
L 550.760783 67.646286 
" clip-path="url(#pa7878d1e80)" style="fill: none; stroke: #ffffff; stroke-linecap: round"/>
     </g>
     <g id="text_19">
      <!-- −5 -->
      <g style="fill: #262626" transform="translate(34.93625 71.445505)scale(0.1 -0.1)">
       <use xlink:href="#DejaVuSans-2212"/>
       <use xlink:href="#DejaVuSans-35" x="83.789062"/>
      </g>
     </g>
    </g>
    <g id="text_20">
     <!-- Energy (kcal/mol) -->
     <g style="fill: #262626" transform="translate(22.078125 181.045844)rotate(-90)scale(0.12 -0.12)">
      <defs>
       <path id="DejaVuSans-45" d="M 628 4666 
L 3578 4666 
L 3578 4134 
L 1259 4134 
L 1259 2753 
L 3481 2753 
L 3481 2222 
L 1259 2222 
L 1259 531 
L 3634 531 
L 3634 0 
L 628 0 
L 628 4666 
z
" transform="scale(0.015625)"/>
       <path id="DejaVuSans-6e" d="M 3513 2113 
L 3513 0 
L 2938 0 
L 2938 2094 
Q 2938 2591 2744 2837 
Q 2550 3084 2163 3084 
Q 1697 3084 1428 2787 
Q 1159 2491 1159 1978 
L 1159 0 
L 581 0 
L 581 3500 
L 1159 3500 
L 1159 2956 
Q 1366 3272 1645 3428 
Q 1925 3584 2291 3584 
Q 2894 3584 3203 3211 
Q 3513 2838 3513 2113 
z
" transform="scale(0.015625)"/>
       <path id="DejaVuSans-67" d="M 2906 1791 
Q 2906 2416 2648 2759 
Q 2391 3103 1925 3103 
Q 1463 3103 1205 2759 
Q 947 2416 947 1791 
Q 947 1169 1205 825 
Q 1463 481 1925 481 
Q 2391 481 2648 825 
Q 2906 1169 2906 1791 
z
M 3481 434 
Q 3481 -459 3084 -895 
Q 2688 -1331 1869 -1331 
Q 1566 -1331 1297 -1286 
Q 1028 -1241 775 -1147 
L 775 -588 
Q 1028 -725 1275 -790 
Q 1522 -856 1778 -856 
Q 2344 -856 2625 -561 
Q 2906 -266 2906 331 
L 2906 616 
Q 2728 306 2450 153 
Q 2172 0 1784 0 
Q 1141 0 747 490 
Q 353 981 353 1791 
Q 353 2603 747 3093 
Q 1141 3584 1784 3584 
Q 2172 3584 2450 3431 
Q 2728 3278 2906 2969 
L 2906 3500 
L 3481 3500 
L 3481 434 
z
" transform="scale(0.015625)"/>
       <path id="DejaVuSans-79" d="M 2059 -325 
Q 1816 -950 1584 -1140 
Q 1353 -1331 966 -1331 
L 506 -1331 
L 506 -850 
L 844 -850 
Q 1081 -850 1212 -737 
Q 1344 -625 1503 -206 
L 1606 56 
L 191 3500 
L 800 3500 
L 1894 763 
L 2988 3500 
L 3597 3500 
L 2059 -325 
z
" transform="scale(0.015625)"/>
       <path id="DejaVuSans-20" transform="scale(0.015625)"/>
       <path id="DejaVuSans-28" d="M 1984 4856 
Q 1566 4138 1362 3434 
Q 1159 2731 1159 2009 
Q 1159 1288 1364 580 
Q 1569 -128 1984 -844 
L 1484 -844 
Q 1016 -109 783 600 
Q 550 1309 550 2009 
Q 550 2706 781 3412 
Q 1013 4119 1484 4856 
L 1984 4856 
z
" transform="scale(0.015625)"/>
       <path id="DejaVuSans-6b" d="M 581 4863 
L 1159 4863 
L 1159 1991 
L 2875 3500 
L 3609 3500 
L 1753 1863 
L 3688 0 
L 2938 0 
L 1159 1709 
L 1159 0 
L 581 0 
L 581 4863 
z
" transform="scale(0.015625)"/>
       <path id="DejaVuSans-63" d="M 3122 3366 
L 3122 2828 
Q 2878 2963 2633 3030 
Q 2388 3097 2138 3097 
Q 1578 3097 1268 2742 
Q 959 2388 959 1747 
Q 959 1106 1268 751 
Q 1578 397 2138 397 
Q 2388 397 2633 464 
Q 2878 531 3122 666 
L 3122 134 
Q 2881 22 2623 -34 
Q 2366 -91 2075 -91 
Q 1284 -91 818 406 
Q 353 903 353 1747 
Q 353 2603 823 3093 
Q 1294 3584 2113 3584 
Q 2378 3584 2631 3529 
Q 2884 3475 3122 3366 
z
" transform="scale(0.015625)"/>
       <path id="DejaVuSans-6c" d="M 603 4863 
L 1178 4863 
L 1178 0 
L 603 0 
L 603 4863 
z
" transform="scale(0.015625)"/>
       <path id="DejaVuSans-2f" d="M 1625 4666 
L 2156 4666 
L 531 -594 
L 0 -594 
L 1625 4666 
z
" transform="scale(0.015625)"/>
       <path id="DejaVuSans-6f" d="M 1959 3097 
Q 1497 3097 1228 2736 
Q 959 2375 959 1747 
Q 959 1119 1226 758 
Q 1494 397 1959 397 
Q 2419 397 2687 759 
Q 2956 1122 2956 1747 
Q 2956 2369 2687 2733 
Q 2419 3097 1959 3097 
z
M 1959 3584 
Q 2709 3584 3137 3096 
Q 3566 2609 3566 1747 
Q 3566 888 3137 398 
Q 2709 -91 1959 -91 
Q 1206 -91 779 398 
Q 353 888 353 1747 
Q 353 2609 779 3096 
Q 1206 3584 1959 3584 
z
" transform="scale(0.015625)"/>
       <path id="DejaVuSans-29" d="M 513 4856 
L 1013 4856 
Q 1481 4119 1714 3412 
Q 1947 2706 1947 2009 
Q 1947 1309 1714 600 
Q 1481 -109 1013 -844 
L 513 -844 
Q 928 -128 1133 580 
Q 1338 1288 1338 2009 
Q 1338 2731 1133 3434 
Q 928 4138 513 4856 
z
" transform="scale(0.015625)"/>
      </defs>
      <use xlink:href="#DejaVuSans-45"/>
      <use xlink:href="#DejaVuSans-6e" x="63.183594"/>
      <use xlink:href="#DejaVuSans-65" x="126.5625"/>
      <use xlink:href="#DejaVuSans-72" x="188.085938"/>
      <use xlink:href="#DejaVuSans-67" x="227.449219"/>
      <use xlink:href="#DejaVuSans-79" x="290.925781"/>
      <use xlink:href="#DejaVuSans-20" x="350.105469"/>
      <use xlink:href="#DejaVuSans-28" x="381.892578"/>
      <use xlink:href="#DejaVuSans-6b" x="420.90625"/>
      <use xlink:href="#DejaVuSans-63" x="478.816406"/>
      <use xlink:href="#DejaVuSans-61" x="533.796875"/>
      <use xlink:href="#DejaVuSans-6c" x="595.076172"/>
      <use xlink:href="#DejaVuSans-2f" x="622.859375"/>
      <use xlink:href="#DejaVuSans-6d" x="656.550781"/>
      <use xlink:href="#DejaVuSans-6f" x="753.962891"/>
      <use xlink:href="#DejaVuSans-6c" x="815.144531"/>
      <use xlink:href="#DejaVuSans-29" x="842.927734"/>
     </g>
    </g>
   </g>
   <g id="line2d_19">
    <path d="M 81.52309 94.219202 
L 81.969983 85.481071 
L 82.416876 119.623097 
L 82.863769 93.079872 
L 83.310662 89.03122 
L 83.757555 94.923067 
L 84.204448 91.645554 
L 84.651341 80.833198 
L 85.098234 96.711673 
L 85.545127 104.798338 
L 85.99202 109.926889 
L 86.438913 109.73204 
L 86.885806 109.237336 
L 87.332699 119.803668 
L 87.779592 106.379574 
L 88.226485 137.952886 
L 88.673378 132.04832 
L 89.120271 103.42183 
L 90.014057 114.004989 
L 90.46095 142.986221 
L 90.907843 99.360119 
L 91.354736 123.699579 
L 91.801629 97.635138 
L 92.248523 96.227235 
L 93.142309 78.293074 
L 93.589202 92.88311 
L 94.036095 102.797145 
L 94.482988 125.235347 
L 94.929881 132.989046 
L 95.823667 96.374003 
L 96.27056 110.240451 
L 96.717453 89.442309 
L 97.164346 101.087276 
L 97.611239 72.326824 
L 98.058132 95.124737 
L 98.505025 78.431258 
L 98.951918 105.692945 
L 99.398811 114.083262 
L 99.845704 100.427774 
L 100.292597 115.459632 
L 100.73949 101.24633 
L 101.186383 111.589998 
L 101.633276 96.125974 
L 102.080169 95.841331 
L 102.527062 95.413905 
L 102.973956 89.801498 
L 103.420849 109.145423 
L 103.867742 88.206622 
L 104.314635 112.154674 
L 104.761528 104.847805 
L 105.655314 99.161261 
L 106.5491 141.772592 
L 106.995993 95.992171 
L 107.442886 107.948601 
L 107.889779 115.641235 
L 108.336672 152.467908 
L 108.783565 125.642163 
L 109.230458 161.386458 
L 109.677351 172.116757 
L 110.124244 161.214981 
L 110.571137 160.791545 
L 111.01803 149.750482 
L 111.464923 118.217899 
L 111.911816 119.876167 
L 112.358709 138.908358 
L 112.805602 129.816988 
L 113.252495 146.225861 
L 113.699388 143.612712 
L 114.146282 144.097553 
L 114.593175 132.130323 
L 115.040068 112.909411 
L 115.486961 158.257706 
L 115.933854 157.202117 
L 116.380747 163.367614 
L 116.82764 142.724497 
L 117.274533 142.839858 
L 117.721426 127.995762 
L 118.168319 145.587145 
L 118.615212 142.794268 
L 119.062105 146.468071 
L 119.508998 170.110649 
L 119.955891 152.527702 
L 120.402784 124.173963 
L 120.849677 139.623572 
L 121.29657 138.787389 
L 121.743463 124.808125 
L 122.190356 134.726075 
L 122.637249 141.470319 
L 123.084142 139.660894 
L 123.531035 149.969822 
L 123.977928 146.501455 
L 124.424821 140.220592 
L 124.871715 154.86834 
L 125.318608 144.086491 
L 125.765501 162.373875 
L 126.212394 165.922857 
L 126.659287 158.951392 
L 127.10618 159.482437 
L 127.553073 144.531107 
L 127.999966 140.092076 
L 128.446859 155.787868 
L 128.893752 164.130029 
L 129.340645 181.47641 
L 129.787538 187.434834 
L 130.234431 177.042024 
L 130.681324 160.005894 
L 131.128217 178.764088 
L 131.57511 186.53984 
L 132.022003 156.710521 
L 132.468896 194.055446 
L 132.915789 148.68977 
L 133.362682 166.542782 
L 133.809575 160.94494 
L 134.256468 143.89873 
L 134.703361 167.636531 
L 135.150254 183.628815 
L 135.597148 160.099144 
L 136.044041 192.729795 
L 136.490934 158.463128 
L 136.937827 180.577335 
L 137.38472 190.280104 
L 137.831613 173.237944 
L 138.278506 178.513287 
L 138.725399 170.448551 
L 139.172292 132.017648 
L 139.619185 149.050626 
L 140.066078 144.929154 
L 140.512971 169.590938 
L 140.959864 158.594357 
L 141.85365 120.797902 
L 142.300543 138.468519 
L 142.747436 104.080187 
L 143.194329 91.920995 
L 143.641222 95.965911 
L 144.535008 135.209984 
L 144.981901 88.743408 
L 145.875687 109.104729 
L 146.32258 99.025877 
L 146.769474 108.01365 
L 147.216367 128.301266 
L 147.66326 103.348519 
L 148.110153 98.492966 
L 148.557046 97.765372 
L 149.003939 71.973529 
L 149.450832 80.473936 
L 149.897725 85.87536 
L 150.344618 69.260027 
L 150.791511 77.145687 
L 151.238404 103.076953 
L 151.685297 90.904826 
L 152.13219 103.700842 
L 152.579083 97.634861 
L 153.025976 104.655091 
L 153.472869 107.688273 
L 153.919762 108.655878 
L 154.366655 111.681555 
L 154.813548 104.390625 
L 155.260441 120.984783 
L 155.707334 105.468072 
L 156.154227 105.714417 
L 156.60112 131.28247 
L 157.048013 110.532491 
L 157.494907 116.90839 
L 157.9418 107.314538 
L 158.388693 108.757974 
L 158.835586 116.644516 
L 159.282479 114.901439 
L 159.729372 126.411976 
L 160.176265 117.466913 
L 160.623158 121.628426 
L 161.070051 110.531892 
L 161.516944 114.212867 
L 161.963837 120.690511 
L 162.41073 109.18692 
L 162.857623 133.099076 
L 163.304516 120.499225 
L 163.751409 114.710507 
L 164.198302 103.265286 
L 164.645195 104.5192 
L 165.092088 110.814863 
L 165.538981 112.57859 
L 165.985874 106.370936 
L 166.432767 120.406744 
L 167.326553 98.531883 
L 167.773446 97.142 
L 168.220339 116.399258 
L 168.667233 100.631814 
L 169.114126 110.432596 
L 169.561019 109.051199 
L 170.007912 123.711908 
L 170.454805 107.239854 
L 170.901698 123.65268 
L 171.348591 122.303815 
L 172.242377 133.861969 
L 172.68927 117.012336 
L 173.136163 110.765454 
L 173.583056 156.941734 
L 174.029949 145.575981 
L 174.476842 160.538859 
L 174.923735 142.304678 
L 175.370628 119.430615 
L 175.817521 139.637017 
L 176.264414 146.835306 
L 176.711307 132.284971 
L 177.1582 131.833752 
L 177.605093 92.012489 
L 178.051986 112.815386 
L 178.498879 102.408734 
L 178.945772 88.517716 
L 179.392666 98.470771 
L 179.839559 112.913221 
L 180.286452 96.643206 
L 180.733345 118.828399 
L 181.180238 119.705679 
L 181.627131 100.414802 
L 182.074024 110.103978 
L 182.520917 103.176708 
L 182.96781 102.448622 
L 183.414703 119.258785 
L 183.861596 101.998951 
L 184.308489 116.006524 
L 184.755382 101.016826 
L 185.202275 95.812883 
L 185.649168 87.676058 
L 186.096061 103.648998 
L 186.542954 87.370146 
L 186.989847 100.498339 
L 187.43674 81.783468 
L 187.883633 90.183168 
L 188.330526 88.251622 
L 188.777419 83.980309 
L 189.224312 108.452374 
L 189.671205 109.244756 
L 190.118098 103.804128 
L 190.564992 102.454516 
L 191.011885 114.412056 
L 191.458778 106.628633 
L 191.905671 101.552455 
L 192.352564 86.572781 
L 192.799457 92.285186 
L 193.24635 104.521454 
L 193.693243 108.693303 
L 194.587029 100.257094 
L 195.033922 107.771665 
L 195.480815 90.69585 
L 195.927708 91.694539 
L 196.374601 101.484803 
L 196.821494 113.970468 
L 197.268387 112.938749 
L 197.71528 106.051078 
L 198.162173 117.955624 
L 199.055959 127.598441 
L 199.502852 125.70402 
L 199.949745 125.34344 
L 200.396638 109.327134 
L 200.843531 130.255038 
L 201.290425 111.519936 
L 201.737318 122.933802 
L 202.184211 124.663771 
L 202.631104 117.852926 
L 203.077997 114.971611 
L 203.52489 120.443028 
L 203.971783 116.087642 
L 204.418676 119.604072 
L 204.865569 116.683655 
L 205.312462 80.295824 
L 205.759355 94.818023 
L 206.206248 100.869067 
L 206.653141 121.528645 
L 207.100034 111.74583 
L 207.546927 91.605832 
L 207.99382 115.701551 
L 208.440713 118.239898 
L 208.887606 101.316001 
L 209.334499 105.715162 
L 209.781392 100.29727 
L 210.228285 84.614499 
L 210.675178 78.564178 
L 211.122071 83.635048 
L 211.568964 95.240911 
L 212.015858 78.525716 
L 212.462751 104.271824 
L 212.909644 102.975697 
L 213.80343 133.470607 
L 214.250323 124.401599 
L 214.697216 158.851242 
L 215.144109 136.19366 
L 215.591002 124.250934 
L 216.037895 145.877298 
L 216.484788 124.754908 
L 217.378574 168.5269 
L 217.825467 137.919978 
L 218.27236 135.741567 
L 218.719253 136.45035 
L 219.166146 143.723366 
L 219.613039 162.498098 
L 220.059932 136.601068 
L 220.506825 135.666043 
L 220.953718 132.170228 
L 221.400611 139.740968 
L 221.847504 136.739503 
L 222.294397 163.544626 
L 222.74129 166.525028 
L 223.188184 158.478626 
L 223.635077 128.636025 
L 224.08197 136.264372 
L 224.528863 151.43879 
L 225.422649 158.074517 
L 225.869542 130.990186 
L 226.316435 149.016582 
L 226.763328 158.985789 
L 227.210221 154.885166 
L 227.657114 140.280102 
L 228.104007 147.295127 
L 228.5509 130.332957 
L 228.997793 149.748558 
L 229.444686 121.202779 
L 229.891579 138.876271 
L 230.338472 147.307217 
L 231.232258 108.334421 
L 231.679151 147.592574 
L 232.126044 127.425854 
L 232.572937 151.633752 
L 233.01983 158.39519 
L 233.466723 156.763955 
L 233.913617 174.045664 
L 234.36051 168.807697 
L 234.807403 153.108123 
L 235.254296 159.433428 
L 235.701189 152.77496 
L 236.148082 163.228556 
L 237.041868 134.27566 
L 237.488761 152.320283 
L 237.935654 136.178351 
L 238.382547 147.776025 
L 238.82944 151.824547 
L 239.276333 120.943249 
L 239.723226 129.347149 
L 240.170119 142.865765 
L 240.617012 83.261576 
L 241.063905 104.977806 
L 241.510798 101.18512 
L 241.957691 95.406056 
L 242.404584 103.592433 
L 242.851477 106.000726 
L 243.29837 105.497606 
L 243.745263 108.640974 
L 244.192156 119.278026 
L 244.639049 107.899361 
L 245.085943 104.915891 
L 245.532836 108.538484 
L 245.979729 106.050219 
L 246.426622 109.973655 
L 246.873515 98.518529 
L 247.320408 91.266478 
L 247.767301 76.161321 
L 248.661087 122.466091 
L 249.10798 89.919954 
L 249.554873 88.158583 
L 250.001766 98.685915 
L 250.448659 80.018795 
L 250.895552 100.661571 
L 251.342445 80.90716 
L 251.789338 102.915309 
L 252.236231 96.136654 
L 252.683124 99.252736 
L 253.130017 78.335051 
L 253.57691 93.740812 
L 254.023803 85.667243 
L 254.470696 70.209593 
L 254.917589 76.363329 
L 255.364482 66.112424 
L 255.811376 77.525788 
L 256.258269 75.610954 
L 256.705162 67.090863 
L 257.152055 74.622207 
L 257.598948 67.634384 
L 258.045841 69.604694 
L 258.492734 81.795569 
L 258.939627 76.466151 
L 259.38652 65.325912 
L 259.833413 107.758344 
L 260.280306 132.559269 
L 260.727199 130.438484 
L 261.174092 121.124332 
L 261.620985 88.292344 
L 262.067878 83.647845 
L 262.514771 88.941721 
L 262.961664 88.835773 
L 263.85545 96.082183 
L 264.302343 101.420867 
L 264.749236 91.7808 
L 265.196129 89.357681 
L 265.643022 96.209687 
L 266.089915 96.674231 
L 266.536808 100.047462 
L 266.983702 84.057482 
L 267.430595 88.613403 
L 267.877488 87.892302 
L 268.324381 89.848725 
L 268.771274 83.873151 
L 269.218167 80.381363 
L 269.66506 90.311232 
L 270.111953 96.923658 
L 271.005739 74.04494 
L 271.452632 72.123938 
L 271.899525 85.974178 
L 272.346418 70.154541 
L 272.793311 80.055808 
L 273.240204 71.130763 
L 273.687097 78.209656 
L 274.13399 91.359457 
L 274.580883 82.024533 
L 275.027776 90.244219 
L 275.474669 90.867287 
L 275.921562 78.386061 
L 276.368455 71.005654 
L 276.815348 104.670939 
L 277.262241 86.07678 
L 277.709135 87.811846 
L 278.156028 80.756067 
L 279.049814 86.96869 
L 279.496707 97.091783 
L 279.9436 98.352862 
L 280.390493 95.71599 
L 280.837386 69.707769 
L 281.284279 83.479422 
L 281.731172 84.497785 
L 282.178065 66.843795 
L 282.624958 100.873977 
L 283.071851 80.571916 
L 283.518744 94.939057 
L 283.965637 84.006987 
L 284.41253 100.235472 
L 284.859423 86.705216 
L 285.306316 102.429889 
L 285.753209 109.970428 
L 286.200102 98.728873 
L 286.646995 99.067753 
L 287.093888 96.790358 
L 287.987674 122.115472 
L 288.434568 129.617642 
L 288.881461 133.528406 
L 289.328354 133.965362 
L 289.775247 133.490674 
L 290.22214 136.791389 
L 290.669033 127.249133 
L 291.115926 138.553487 
L 291.562819 144.291105 
L 292.009712 152.812633 
L 292.456605 145.500677 
L 292.903498 127.013121 
L 293.350391 123.940836 
L 293.797284 118.250037 
L 294.244177 153.140097 
L 294.69107 128.193508 
L 295.137963 128.236562 
L 295.584856 139.878089 
L 296.031749 135.746035 
L 296.478642 139.152132 
L 296.925535 116.727527 
L 297.372428 140.335642 
L 297.819321 102.194433 
L 298.266214 115.018657 
L 299.16 115.820823 
L 299.606894 122.632393 
L 300.053787 118.216667 
L 300.50068 106.172923 
L 300.947573 120.092812 
L 301.394466 119.7766 
L 301.841359 135.751493 
L 302.288252 140.083115 
L 302.735145 122.696685 
L 303.182038 115.062447 
L 303.628931 113.417087 
L 304.075824 110.837084 
L 304.522717 109.400631 
L 304.96961 101.603091 
L 305.416503 121.590666 
L 305.863396 117.89414 
L 306.310289 105.620432 
L 306.757182 105.446872 
L 307.204075 98.831788 
L 307.650968 98.54242 
L 308.097861 111.856702 
L 308.544754 101.780777 
L 308.991647 110.117021 
L 309.43854 111.466495 
L 309.885433 109.941393 
L 310.77922 102.317952 
L 311.226113 97.291457 
L 311.673006 126.179954 
L 312.119899 110.246956 
L 312.566792 117.125082 
L 313.013685 121.648902 
L 313.460578 101.677585 
L 313.907471 108.336329 
L 314.354364 113.289124 
L 314.801257 124.940876 
L 315.24815 113.05714 
L 315.695043 122.62626 
L 316.588829 104.836294 
L 317.035722 115.318177 
L 317.482615 116.69829 
L 317.929508 117.532764 
L 318.376401 111.335029 
L 318.823294 91.61137 
L 319.270187 94.439699 
L 319.71708 107.301491 
L 320.610866 80.274851 
L 321.057759 90.404297 
L 321.504653 92.506174 
L 321.951546 91.552646 
L 322.398439 108.715562 
L 323.292225 100.30337 
L 323.739118 95.156966 
L 324.186011 101.953176 
L 324.632904 84.888184 
L 325.079797 81.824752 
L 325.52669 109.277133 
L 325.973583 98.873529 
L 326.420476 103.453802 
L 327.314262 97.417041 
L 327.761155 96.505003 
L 328.208048 115.738447 
L 329.101834 104.929596 
L 329.548727 106.294 
L 329.99562 108.033644 
L 330.442513 109.297013 
L 331.336299 98.953329 
L 331.783192 100.309615 
L 332.230086 95.885366 
L 332.676979 78.691849 
L 333.123872 80.847664 
L 333.570765 85.817826 
L 334.017658 98.434327 
L 334.464551 105.385177 
L 334.911444 105.919247 
L 335.358337 101.639366 
L 335.80523 90.687034 
L 336.252123 109.475811 
L 336.699016 122.398823 
L 337.145909 110.714181 
L 337.592802 123.437799 
L 338.039695 116.599608 
L 338.486588 121.404033 
L 338.933481 122.137691 
L 339.380374 110.653273 
L 339.827267 112.975555 
L 340.27416 108.153515 
L 340.721053 96.031149 
L 341.167946 113.090214 
L 341.614839 103.175183 
L 342.061732 110.098431 
L 342.508625 118.939342 
L 342.955518 116.518747 
L 343.402412 100.567611 
L 343.849305 111.978671 
L 344.296198 115.492411 
L 344.743091 120.214931 
L 345.189984 135.63328 
L 345.636877 111.264136 
L 346.08377 125.275058 
L 346.530663 120.680251 
L 346.977556 133.269981 
L 347.424449 117.530291 
L 347.871342 120.625657 
L 348.318235 129.021866 
L 348.765128 123.191063 
L 349.212021 132.019472 
L 349.658914 135.217786 
L 350.105807 124.363975 
L 350.5527 121.463751 
L 350.999593 131.019228 
L 351.446486 116.463821 
L 351.893379 111.042057 
L 352.340272 114.78029 
L 352.787165 119.665409 
L 353.234058 108.596253 
L 353.680951 121.808027 
L 354.127845 101.046182 
L 354.574738 114.167973 
L 355.021631 108.140304 
L 355.468524 95.019932 
L 355.915417 99.379626 
L 356.36231 119.663904 
L 356.809203 111.488728 
L 357.256096 95.862323 
L 357.702989 108.471603 
L 358.149882 103.984062 
L 358.596775 117.210525 
L 359.043668 116.173558 
L 359.490561 115.966294 
L 359.937454 98.68088 
L 360.384347 110.422967 
L 360.83124 105.165479 
L 361.278133 123.19675 
L 361.725026 123.673768 
L 362.171919 116.341614 
L 362.618812 121.107571 
L 363.065705 88.48762 
L 363.512598 87.514292 
L 363.959491 78.597536 
L 364.406384 78.527151 
L 364.853278 62.201866 
L 365.300171 109.538248 
L 365.747064 93.873376 
L 366.193957 96.50716 
L 366.64085 101.229267 
L 367.087743 89.11615 
L 367.534636 107.966622 
L 367.981529 110.045121 
L 368.428422 98.152311 
L 368.875315 98.618733 
L 369.322208 104.081824 
L 369.769101 116.781883 
L 370.662887 107.196372 
L 371.10978 101.247503 
L 371.556673 102.896516 
L 372.003566 121.285002 
L 372.450459 112.625698 
L 372.897352 117.369366 
L 373.344245 110.517419 
L 373.791138 118.448146 
L 374.238031 113.983011 
L 374.684924 126.084854 
L 375.57871 101.433008 
L 376.025604 107.163201 
L 376.472497 117.754813 
L 376.91939 113.747257 
L 377.366283 114.246171 
L 377.813176 109.613604 
L 378.260069 101.883032 
L 378.706962 90.749336 
L 379.153855 92.815621 
L 379.600748 96.532226 
L 380.941427 75.289049 
L 381.835213 117.985257 
L 382.282106 110.007497 
L 382.728999 120.292691 
L 383.622785 94.454408 
L 384.069678 97.415863 
L 384.516571 85.647974 
L 384.963464 85.50278 
L 385.410357 88.185998 
L 385.85725 109.434895 
L 386.304143 91.818951 
L 386.751037 97.700272 
L 387.19793 92.971482 
L 387.644823 97.16805 
L 388.091716 88.48724 
L 388.538609 94.353087 
L 388.985502 92.124422 
L 389.432395 82.156271 
L 389.879288 76.566055 
L 390.326181 80.865296 
L 390.773074 81.036535 
L 391.219967 94.200837 
L 391.66686 79.910545 
L 392.113753 95.225394 
L 392.560646 106.354681 
L 393.007539 93.370081 
L 393.454432 93.845477 
L 393.901325 105.791007 
L 394.348218 100.296626 
L 394.795111 101.767983 
L 395.242004 96.300602 
L 395.688897 108.549 
L 396.13579 111.36035 
L 396.582683 108.968863 
L 397.029576 104.808772 
L 397.476469 102.171116 
L 397.923363 100.391922 
L 398.370256 100.39603 
L 398.817149 93.839564 
L 399.264042 126.852044 
L 400.157828 96.125536 
L 400.604721 110.436963 
L 401.051614 116.117666 
L 401.498507 110.527639 
L 401.9454 103.102026 
L 402.392293 104.452224 
L 402.839186 104.061534 
L 403.286079 109.935539 
L 403.732972 121.403651 
L 404.179865 112.980962 
L 404.626758 109.405555 
L 405.073651 121.11358 
L 406.861223 100.864805 
L 407.308116 112.661629 
L 407.755009 107.980718 
L 408.201902 113.530502 
L 408.648796 122.627122 
L 409.095689 123.792056 
L 409.542582 97.346598 
L 409.989475 99.73753 
L 410.436368 99.902892 
L 410.883261 83.938264 
L 411.330154 107.339696 
L 411.777047 108.665513 
L 412.22394 134.542306 
L 412.670833 136.800643 
L 413.117726 112.573448 
L 413.564619 121.585479 
L 414.011512 121.482369 
L 414.458405 120.974663 
L 414.905298 118.763616 
L 415.352191 142.82553 
L 415.799084 121.586952 
L 416.245977 143.653349 
L 416.69287 131.88909 
L 417.139763 126.475511 
L 417.586656 131.061458 
L 418.033549 118.681502 
L 418.927335 152.419462 
L 419.374228 113.948106 
L 419.821122 123.290815 
L 420.714908 129.731154 
L 421.161801 117.200082 
L 421.608694 112.54882 
L 422.055587 125.672152 
L 422.50248 123.604962 
L 422.949373 126.901551 
L 423.396266 119.152411 
L 423.843159 125.165878 
L 424.290052 115.039614 
L 424.736945 112.947588 
L 425.630731 137.504489 
L 426.524517 113.074102 
L 426.97141 109.310765 
L 427.418303 141.639123 
L 428.312089 113.558561 
L 428.758982 120.561506 
L 429.205875 133.803044 
L 429.652768 133.817046 
L 430.099661 113.031181 
L 430.546555 127.944339 
L 430.993448 118.363122 
L 431.440341 125.892826 
L 431.887234 123.952715 
L 432.334127 131.504837 
L 432.78102 127.039223 
L 433.227913 136.897939 
L 433.674806 130.168379 
L 434.121699 139.043673 
L 434.568592 132.644335 
L 435.015485 139.202346 
L 435.462378 132.022368 
L 435.909271 128.692363 
L 436.356164 121.799307 
L 436.803057 128.432875 
L 437.24995 127.764438 
L 438.143736 133.290947 
L 438.590629 121.784216 
L 439.037522 125.266862 
L 439.484415 127.657373 
L 439.931308 129.211173 
L 440.378201 127.314259 
L 440.825094 114.87933 
L 441.271988 125.203591 
L 441.718881 109.907906 
L 442.165774 124.671423 
L 442.612667 120.500829 
L 443.05956 110.136334 
L 443.506453 112.056568 
L 443.953346 103.622471 
L 444.400239 123.025846 
L 444.847132 108.7665 
L 445.294025 121.934066 
L 445.740918 124.109133 
L 446.187811 131.488804 
L 446.634704 126.368788 
L 447.081597 105.75613 
L 447.52849 105.198586 
L 447.975383 97.266899 
L 448.422276 96.646575 
L 448.869169 114.406965 
L 449.316062 125.163883 
L 449.762955 104.076677 
L 450.209848 112.881959 
L 450.656741 103.778481 
L 451.103634 98.057122 
L 451.550527 101.602957 
L 451.99742 135.732946 
L 452.444314 95.782354 
L 452.891207 108.701098 
L 453.3381 129.07326 
L 453.784993 117.120565 
L 454.231886 112.689217 
L 454.678779 116.316807 
L 455.125672 111.722897 
L 455.572565 115.508378 
L 456.019458 113.069667 
L 456.466351 119.903114 
L 456.913244 111.462924 
L 457.360137 116.221438 
L 457.80703 119.405998 
L 458.253923 126.344733 
L 458.700816 122.506387 
L 459.147709 123.763225 
L 459.594602 122.838908 
L 460.041495 118.271577 
L 460.488388 121.307376 
L 460.935281 104.753411 
L 461.382174 107.377521 
L 461.829067 122.012561 
L 462.27596 116.696955 
L 462.722853 117.936841 
L 463.169747 107.887707 
L 463.61664 116.860103 
L 464.063533 115.213345 
L 464.510426 126.0407 
L 464.957319 117.060846 
L 465.404212 127.365042 
L 465.851105 116.961293 
L 466.297998 120.658626 
L 466.744891 119.404978 
L 467.191784 120.752672 
L 467.638677 103.794928 
L 468.08557 114.876877 
L 468.532463 122.32376 
L 468.979356 111.655889 
L 469.426249 124.867277 
L 470.320035 134.035641 
L 470.766928 122.155047 
L 471.213821 114.515922 
L 471.660714 126.629599 
L 472.107607 125.57833 
L 472.5545 144.409049 
L 473.001393 113.805883 
L 473.448286 118.660241 
L 474.342073 125.313103 
L 474.788966 126.9861 
L 475.235859 114.498904 
L 475.682752 116.072008 
L 476.129645 121.064454 
L 476.576538 111.454108 
L 477.023431 112.761414 
L 477.470324 108.046996 
L 477.917217 133.474386 
L 478.36411 106.875502 
L 478.811003 121.00736 
L 479.257896 147.855483 
L 479.704789 139.292833 
L 480.151682 126.712902 
L 480.598575 121.868322 
L 481.045468 138.538782 
L 481.492361 127.126827 
L 481.939254 124.262415 
L 482.386147 113.81833 
L 482.83304 123.815807 
L 483.279933 139.549368 
L 483.726826 108.021986 
L 484.173719 127.708105 
L 484.620612 111.396726 
L 485.067506 114.717778 
L 485.514399 120.53669 
L 485.961292 124.688141 
L 486.408185 107.5791 
L 486.855078 109.155878 
L 487.301971 117.792812 
L 487.748864 109.74171 
L 488.195757 108.425125 
L 488.64265 107.859363 
L 489.089543 126.932043 
L 489.536436 109.756748 
L 489.983329 102.71516 
L 490.430222 104.423449 
L 490.877115 102.378715 
L 491.324008 113.666034 
L 491.770901 102.268419 
L 492.217794 118.023693 
L 493.558473 100.128857 
L 494.005366 101.871507 
L 494.452259 107.019302 
L 494.899152 83.618076 
L 495.346045 110.316713 
L 495.792938 120.411614 
L 496.239832 108.262636 
L 496.686725 122.89001 
L 497.133618 143.837582 
L 497.580511 114.86393 
L 498.027404 107.72023 
L 498.474297 114.651879 
L 499.368083 132.880045 
L 499.814976 144.937914 
L 500.261869 119.725845 
L 500.708762 122.539328 
L 501.155655 124.341555 
L 501.602548 119.033275 
L 502.049441 122.27755 
L 502.496334 131.751882 
L 502.943227 94.34954 
L 503.39012 118.526927 
L 503.837013 112.764081 
L 504.283906 111.720862 
L 504.730799 115.216167 
L 505.177692 116.704746 
L 505.624585 97.845381 
L 506.071478 98.520547 
L 506.518371 108.997002 
L 506.965265 127.596073 
L 507.412158 137.803465 
L 507.859051 117.454261 
L 508.305944 120.085387 
L 508.752837 117.170669 
L 509.19973 120.255159 
L 510.093516 110.27272 
L 510.540409 101.499735 
L 510.987302 101.725676 
L 511.434195 107.624271 
L 511.881088 96.160861 
L 512.327981 96.445942 
L 512.774874 96.955313 
L 513.221767 92.687621 
L 513.66866 108.126995 
L 514.115553 105.1137 
L 514.562446 105.669883 
L 515.009339 104.1509 
L 515.456232 88.918317 
L 515.903125 100.712363 
L 516.350018 97.697306 
L 516.796911 96.70887 
L 517.243804 102.491915 
L 517.690698 101.6491 
L 518.137591 108.000087 
L 518.584484 109.986299 
L 519.031377 99.093508 
L 519.47827 97.201239 
L 519.925163 90.66105 
L 520.372056 113.672583 
L 520.818949 94.726868 
L 521.265842 125.459658 
L 521.712735 110.445556 
L 522.159628 127.022019 
L 522.606521 92.574692 
L 523.053414 98.104707 
L 523.500307 117.017546 
L 523.9472 97.95289 
L 524.394093 118.698935 
L 525.287879 102.485035 
L 525.734772 124.492528 
L 526.181665 130.513528 
L 526.628558 96.629805 
L 527.075451 103.245488 
L 527.522344 102.104822 
L 527.969237 93.534877 
L 528.41613 99.009809 
L 528.41613 99.009809 
" clip-path="url(#pa7878d1e80)" style="fill: none; stroke: #000000; stroke-width: 0.7; stroke-linecap: round"/>
   </g>
   <g id="line2d_20">
    <path d="M 103.420849 103.481191 
L 103.867742 103.36094 
L 104.314635 103.894412 
L 104.761528 103.598906 
L 105.655314 103.97989 
L 106.102207 104.522125 
L 106.5491 105.524666 
L 107.442886 106.052584 
L 107.889779 106.269442 
L 108.336672 107.120263 
L 108.783565 107.438465 
L 110.124244 110.624417 
L 111.01803 111.435234 
L 112.358709 112.448491 
L 112.805602 112.185106 
L 113.252495 113.122421 
L 113.699388 113.520684 
L 114.593175 115.167994 
L 115.040068 115.69652 
L 115.933854 118.582192 
L 116.380747 119.793602 
L 116.82764 120.143385 
L 117.721426 120.583338 
L 118.168319 121.5676 
L 118.615212 122.218677 
L 119.508998 124.73966 
L 119.955891 126.343677 
L 120.402784 126.924662 
L 120.849677 128.148508 
L 121.29657 128.810397 
L 121.743463 129.024894 
L 123.531035 131.766962 
L 125.765501 137.001414 
L 126.212394 138.555739 
L 127.999966 142.253623 
L 128.446859 142.928684 
L 128.893752 143.375833 
L 129.787538 146.675242 
L 130.234431 147.903258 
L 130.681324 148.054018 
L 131.128217 149.116456 
L 131.57511 149.619524 
L 132.022003 149.311399 
L 132.468896 149.968208 
L 132.915789 149.726173 
L 133.362682 150.062019 
L 133.809575 150.91656 
L 134.703361 151.971574 
L 135.150254 153.047811 
L 135.597148 153.325277 
L 136.044041 154.307618 
L 136.490934 154.59493 
L 136.937827 155.56387 
L 137.38472 157.111284 
L 138.725399 157.978731 
L 139.172292 157.764594 
L 139.619185 157.888809 
L 140.066078 158.227477 
L 140.512971 158.707553 
L 140.959864 159.023555 
L 141.406757 158.857711 
L 141.85365 157.871456 
L 142.747436 157.188397 
L 143.641222 155.377916 
L 144.088115 155.154666 
L 144.535008 155.164344 
L 145.428794 153.3136 
L 146.769474 150.902648 
L 147.216367 150.371306 
L 147.66326 149.556547 
L 148.557046 146.915779 
L 149.450832 143.596051 
L 150.344618 141.006296 
L 152.579083 133.138136 
L 153.025976 132.03112 
L 153.919762 129.051924 
L 154.366655 128.151345 
L 154.813548 126.358048 
L 155.260441 125.803949 
L 156.154227 123.477844 
L 156.60112 123.225519 
L 157.9418 119.693337 
L 158.388693 118.013901 
L 158.835586 117.177529 
L 160.176265 113.471228 
L 161.070051 111.135197 
L 161.516944 110.779101 
L 162.41073 109.497055 
L 163.304516 108.005315 
L 164.645195 106.506368 
L 165.092088 106.641062 
L 165.538981 107.054214 
L 166.432767 107.397537 
L 166.87966 106.897286 
L 167.326553 107.093055 
L 167.773446 107.038883 
L 168.667233 107.216892 
L 169.114126 107.265271 
L 169.561019 106.88027 
L 170.007912 107.287538 
L 170.454805 107.462476 
L 170.901698 107.980222 
L 172.68927 111.856053 
L 173.136163 112.528449 
L 174.923735 116.729324 
L 175.370628 117.024834 
L 177.1582 119.388329 
L 177.605093 118.808883 
L 178.051986 118.955829 
L 178.498879 118.889716 
L 178.945772 118.03442 
L 179.392666 117.793186 
L 179.839559 117.713283 
L 180.286452 117.499856 
L 180.733345 117.701265 
L 181.180238 117.762488 
L 182.96781 116.477195 
L 183.414703 116.651733 
L 183.861596 116.407454 
L 184.755382 116.150373 
L 185.649168 114.748186 
L 186.989847 114.128635 
L 187.883633 113.100099 
L 188.330526 112.737713 
L 188.777419 112.009184 
L 189.224312 111.974283 
L 190.118098 112.321783 
L 190.564992 112.042888 
L 191.011885 112.318493 
L 191.905671 112.092439 
L 192.352564 111.349656 
L 193.693243 110.395728 
L 194.140136 109.928369 
L 194.587029 109.256272 
L 195.033922 109.071458 
L 195.480815 108.670066 
L 195.927708 107.365122 
L 197.268387 104.964612 
L 197.71528 104.697022 
L 198.609066 103.776497 
L 199.502852 103.560172 
L 199.949745 104.226791 
L 200.396638 104.157026 
L 201.737318 105.663257 
L 202.184211 105.898268 
L 202.631104 106.322462 
L 203.52489 106.260073 
L 204.418676 106.763532 
L 204.865569 107.033671 
L 205.759355 106.1018 
L 206.206248 106.079202 
L 207.546927 106.320084 
L 207.99382 106.880593 
L 208.887606 107.451329 
L 209.334499 107.555665 
L 209.781392 107.925941 
L 211.122071 107.613914 
L 211.568964 107.349684 
L 212.015858 106.735303 
L 213.356537 106.840503 
L 214.250323 107.834326 
L 214.697216 109.279895 
L 215.144109 110.158064 
L 215.591002 110.552654 
L 216.037895 111.296334 
L 216.484788 111.694865 
L 216.931681 112.638524 
L 217.825467 114.798112 
L 218.719253 116.378363 
L 219.166146 116.973421 
L 219.613039 117.964608 
L 220.059932 118.575608 
L 220.506825 118.929816 
L 221.847504 119.586972 
L 222.294397 120.350996 
L 222.74129 121.494953 
L 223.188184 122.059425 
L 224.528863 123.203859 
L 225.422649 124.802932 
L 225.869542 125.013875 
L 226.763328 126.460089 
L 227.210221 127.224119 
L 228.104007 129.473346 
L 228.997793 130.627023 
L 229.444686 130.816161 
L 229.891579 131.76157 
L 230.338472 132.393684 
L 231.232258 132.742684 
L 231.679151 133.580233 
L 232.126044 134.122804 
L 233.01983 137.05981 
L 233.913617 140.098483 
L 234.36051 141.904122 
L 235.701189 144.691839 
L 236.594975 145.745331 
L 237.041868 145.25382 
L 237.935654 145.8149 
L 238.382547 145.852875 
L 238.82944 146.394268 
L 239.276333 145.864331 
L 239.723226 145.080736 
L 240.170119 145.179652 
L 240.617012 144.130052 
L 241.063905 143.500601 
L 241.510798 142.649836 
L 241.957691 141.307995 
L 243.29837 139.521064 
L 243.745263 138.899064 
L 244.192156 138.549835 
L 245.532836 135.205944 
L 246.426622 134.228413 
L 247.320408 131.901264 
L 247.767301 130.263 
L 248.661087 129.134797 
L 249.554873 126.418948 
L 250.001766 125.587065 
L 250.448659 124.241538 
L 250.895552 123.64811 
L 251.342445 122.271282 
L 251.789338 121.905533 
L 252.683124 120.089651 
L 253.130017 119.082921 
L 253.57691 118.791049 
L 254.917589 114.902809 
L 258.045841 102.400255 
L 258.939627 99.354553 
L 259.38652 97.975558 
L 259.833413 97.084319 
L 260.280306 97.011937 
L 260.727199 96.665187 
L 261.620985 95.398164 
L 262.514771 93.405697 
L 262.961664 93.517181 
L 263.408557 93.259864 
L 263.85545 93.157806 
L 264.302343 93.278102 
L 266.089915 92.283915 
L 269.218167 89.47471 
L 269.66506 89.455605 
L 270.111953 89.870851 
L 270.558846 89.560289 
L 271.005739 88.591866 
L 271.452632 88.235946 
L 271.899525 88.192258 
L 272.346418 87.62163 
L 272.793311 87.62237 
L 273.240204 87.031754 
L 273.687097 86.977804 
L 275.027776 86.284274 
L 275.474669 86.534919 
L 276.368455 85.934592 
L 276.815348 86.623819 
L 277.262241 86.818088 
L 277.709135 87.252077 
L 278.602921 87.483689 
L 279.496707 88.330637 
L 280.390493 89.467233 
L 280.837386 89.225477 
L 281.284279 89.365742 
L 281.731172 89.74918 
L 283.071851 87.299851 
L 283.518744 86.776146 
L 283.965637 86.690439 
L 284.41253 87.022191 
L 284.859423 86.977461 
L 285.753209 87.606513 
L 287.093888 87.712576 
L 287.987674 88.645502 
L 288.881461 89.973989 
L 290.22214 92.847673 
L 290.669033 93.595682 
L 291.562819 95.967483 
L 292.456605 98.189052 
L 293.350391 100.015184 
L 293.797284 100.937706 
L 294.69107 103.441803 
L 295.137963 104.405419 
L 296.031749 106.931093 
L 297.372428 109.582834 
L 297.819321 109.809377 
L 298.713107 111.430547 
L 299.16 111.653544 
L 300.053787 112.992753 
L 300.50068 113.50109 
L 303.628931 118.533139 
L 304.075824 119.059925 
L 304.522717 119.911061 
L 304.96961 119.925644 
L 305.416503 120.746019 
L 306.310289 121.637389 
L 306.757182 121.741617 
L 307.204075 121.984149 
L 307.650968 121.906399 
L 308.544754 122.005163 
L 309.43854 122.519671 
L 309.885433 122.516535 
L 310.332327 122.201183 
L 310.77922 121.655189 
L 311.226113 120.93045 
L 311.673006 120.774742 
L 312.566792 119.916541 
L 313.013685 119.804536 
L 314.354364 117.557453 
L 315.24815 116.867137 
L 316.141936 116.740737 
L 316.588829 115.774661 
L 317.482615 115.286389 
L 318.376401 114.351262 
L 318.823294 113.400447 
L 319.270187 112.95469 
L 319.71708 112.294007 
L 320.163973 112.121704 
L 321.057759 110.926283 
L 322.398439 109.648373 
L 322.845332 109.616307 
L 323.739118 108.728125 
L 324.186011 108.052159 
L 325.079797 106.130822 
L 325.52669 106.015116 
L 325.973583 105.724244 
L 327.314262 105.311086 
L 327.761155 104.809373 
L 328.208048 104.766259 
L 330.442513 105.132571 
L 330.889406 105.165165 
L 332.230086 104.437633 
L 333.123872 103.455107 
L 333.570765 103.225634 
L 334.017658 102.670722 
L 334.464551 102.573486 
L 334.911444 102.34937 
L 335.358337 101.949179 
L 335.80523 101.729368 
L 336.252123 101.752157 
L 336.699016 101.934351 
L 337.145909 101.649818 
L 337.592802 101.857431 
L 338.039695 101.736898 
L 338.486588 101.900086 
L 338.933481 102.246114 
L 340.27416 101.890776 
L 340.721053 101.584699 
L 341.167946 102.014276 
L 342.061732 102.244924 
L 342.508625 102.752126 
L 342.955518 103.477004 
L 343.402412 103.68027 
L 344.743091 104.778503 
L 345.189984 105.399776 
L 345.636877 105.618991 
L 346.08377 106.221353 
L 346.530663 106.595895 
L 347.424449 108.277641 
L 347.871342 108.504612 
L 348.318235 109.107579 
L 348.765128 109.502324 
L 350.105807 111.449666 
L 350.5527 111.564173 
L 350.999593 111.983366 
L 351.446486 112.214051 
L 352.340272 112.443945 
L 353.234058 112.755028 
L 353.680951 113.212122 
L 354.127845 113.226853 
L 354.574738 113.592506 
L 355.021631 114.181475 
L 356.809203 115.282819 
L 357.256096 115.08168 
L 357.702989 115.218325 
L 358.596775 115.63896 
L 359.043668 115.514454 
L 359.490561 115.619497 
L 359.937454 115.124358 
L 360.384347 115.000825 
L 360.83124 114.676054 
L 361.278133 114.697236 
L 361.725026 114.957645 
L 362.171919 115.024967 
L 362.618812 115.284048 
L 363.065705 115.133177 
L 364.406384 113.49868 
L 364.853278 112.363931 
L 365.747064 112.090436 
L 366.64085 111.495743 
L 367.534636 110.320434 
L 367.981529 110.296054 
L 369.322208 108.728605 
L 369.769101 108.713637 
L 370.215994 108.5488 
L 372.003566 106.812304 
L 372.450459 106.577539 
L 372.897352 106.495651 
L 373.344245 106.085615 
L 374.238031 106.184121 
L 374.684924 106.410212 
L 375.57871 106.138786 
L 376.025604 105.845889 
L 376.472497 106.180062 
L 376.91939 106.171648 
L 377.366283 106.293765 
L 377.813176 106.585638 
L 378.260069 106.635707 
L 378.706962 106.057415 
L 379.153855 105.683953 
L 379.600748 105.697351 
L 380.494534 104.905062 
L 380.941427 104.066633 
L 381.38832 103.700751 
L 381.835213 103.74113 
L 382.728999 104.165057 
L 383.175892 104.175955 
L 384.963464 101.749982 
L 385.410357 101.743949 
L 385.85725 102.182361 
L 386.751037 102.830252 
L 387.19793 103.445644 
L 387.644823 103.19824 
L 389.432395 102.726142 
L 390.326181 101.514534 
L 390.773074 101.172218 
L 391.219967 101.083861 
L 392.113753 100.169305 
L 392.560646 100.048722 
L 393.454432 99.624156 
L 393.901325 99.682046 
L 394.348218 99.262278 
L 394.795111 99.045124 
L 395.242004 98.623749 
L 396.13579 98.442625 
L 396.582683 98.342342 
L 397.029576 97.91682 
L 397.476469 97.695095 
L 397.923363 97.674274 
L 398.370256 97.53893 
L 398.817149 97.060625 
L 399.264042 97.322721 
L 399.710935 97.289282 
L 400.157828 97.019521 
L 400.604721 97.190599 
L 401.498507 98.052206 
L 401.9454 98.183602 
L 402.839186 98.897053 
L 403.286079 99.589983 
L 403.732972 100.060467 
L 404.626758 99.948342 
L 405.073651 99.96476 
L 405.520544 100.16909 
L 405.967437 100.501223 
L 406.41433 100.663546 
L 406.861223 100.967883 
L 407.755009 101.906954 
L 408.201902 101.988866 
L 409.095689 103.126865 
L 410.436368 103.49407 
L 410.883261 103.285774 
L 411.330154 103.590079 
L 411.777047 104.120264 
L 412.670833 106.398496 
L 414.458405 108.923349 
L 414.905298 109.171528 
L 415.352191 110.160637 
L 415.799084 110.715466 
L 416.69287 112.104562 
L 417.139763 112.598713 
L 417.586656 113.29393 
L 418.033549 113.49658 
L 418.480442 113.973393 
L 418.927335 114.842405 
L 419.374228 115.025191 
L 420.268015 115.964364 
L 421.161801 117.018277 
L 421.608694 116.732213 
L 422.055587 116.994171 
L 422.50248 117.54376 
L 422.949373 117.873051 
L 423.396266 117.933746 
L 424.290052 118.465263 
L 424.736945 118.63517 
L 425.630731 119.607665 
L 426.524517 119.668264 
L 426.97141 119.666368 
L 427.865196 120.340094 
L 428.312089 120.390045 
L 428.758982 120.690634 
L 429.205875 121.349399 
L 429.652768 121.772507 
L 430.099661 121.873517 
L 430.546555 122.161793 
L 430.993448 122.076513 
L 431.440341 122.118529 
L 432.78102 123.828724 
L 433.227913 124.887917 
L 434.121699 125.952054 
L 435.015485 125.962129 
L 435.462378 126.351107 
L 435.909271 126.493245 
L 436.356164 126.499584 
L 437.24995 126.828764 
L 437.696843 126.584493 
L 438.143736 126.818573 
L 438.590629 126.381191 
L 439.037522 126.248746 
L 440.378201 126.408033 
L 441.271988 125.457282 
L 442.612667 125.289489 
L 443.05956 124.897593 
L 444.400239 124.56327 
L 444.847132 124.2665 
L 445.294025 124.167151 
L 446.187811 124.392744 
L 446.634704 124.619327 
L 447.081597 124.475498 
L 447.52849 124.077123 
L 447.975383 123.272371 
L 448.422276 122.718494 
L 448.869169 122.745151 
L 449.316062 123.062214 
L 449.762955 122.310965 
L 451.103634 121.341161 
L 451.550527 120.697159 
L 451.99742 120.735477 
L 452.891207 120.005635 
L 453.3381 120.219838 
L 454.231886 119.819123 
L 455.572565 118.781245 
L 456.913244 117.632831 
L 457.360137 117.173213 
L 457.80703 116.920886 
L 459.594602 116.696171 
L 460.935281 115.869075 
L 461.382174 115.511289 
L 461.829067 115.398392 
L 462.722853 114.96056 
L 463.61664 114.653857 
L 464.510426 114.787352 
L 464.957319 114.718552 
L 465.404212 115.063126 
L 465.851105 115.161221 
L 466.297998 115.501944 
L 466.744891 115.429526 
L 467.191784 115.66925 
L 467.638677 115.306467 
L 468.979356 114.644263 
L 469.873142 115.501713 
L 470.320035 116.237088 
L 470.766928 116.747257 
L 471.660714 116.778751 
L 472.107607 117.208784 
L 472.5545 117.839325 
L 473.001393 118.039873 
L 473.895179 118.860242 
L 474.342073 118.651845 
L 474.788966 119.27592 
L 475.235859 119.391876 
L 475.682752 119.131851 
L 476.576538 119.186027 
L 477.470324 119.041401 
L 477.917217 119.400721 
L 478.36411 119.276838 
L 478.811003 119.298922 
L 479.257896 120.026774 
L 479.704789 120.488202 
L 480.151682 120.63434 
L 480.598575 120.544811 
L 481.045468 120.865459 
L 481.939254 120.961201 
L 482.386147 120.872136 
L 482.83304 120.922305 
L 483.279933 121.618224 
L 485.067506 121.574639 
L 485.961292 121.984179 
L 486.408185 121.831494 
L 486.855078 121.493798 
L 487.301971 121.508437 
L 487.748864 121.15597 
L 488.64265 120.729262 
L 489.089543 120.879803 
L 489.536436 120.659885 
L 489.983329 120.638289 
L 490.430222 120.429221 
L 490.877115 120.03032 
L 491.324008 120.070523 
L 491.770901 119.618545 
L 492.217794 119.399821 
L 493.11158 118.611563 
L 493.558473 118.323822 
L 494.452259 117.45748 
L 494.899152 116.24166 
L 496.686725 115.88333 
L 497.133618 116.22036 
L 497.580511 116.22766 
L 498.474297 115.932373 
L 498.92119 116.178426 
L 499.368083 116.580799 
L 499.814976 117.318617 
L 500.261869 117.043646 
L 500.708762 117.356923 
L 501.155655 117.423607 
L 501.602548 116.847163 
L 502.049441 116.506857 
L 502.496334 116.607636 
L 503.39012 115.657024 
L 504.283906 115.118938 
L 504.730799 115.146895 
L 505.177692 115.004673 
L 505.624585 114.170594 
L 506.071478 113.980565 
L 506.518371 113.606343 
L 506.965265 113.93033 
L 507.412158 114.392043 
L 508.305944 114.23834 
L 509.19973 114.652157 
L 510.540409 114.481435 
L 510.987302 114.358761 
L 511.881088 113.700688 
L 515.009339 112.776368 
L 515.456232 112.456996 
L 516.350018 112.385182 
L 516.796911 112.178973 
L 517.243804 112.55645 
L 518.137591 112.134867 
L 518.584484 112.169341 
L 519.031377 111.69341 
L 519.47827 110.760684 
L 519.925163 110.276626 
L 520.372056 110.395673 
L 520.818949 109.997173 
L 521.265842 110.031231 
L 523.053414 108.192508 
L 523.500307 108.046027 
L 523.9472 107.62442 
L 524.394093 107.552847 
L 524.840986 107.110553 
L 525.734772 107.392575 
L 526.181665 107.747564 
L 527.522344 106.914331 
L 528.41613 106.837906 
L 528.41613 106.837906 
" clip-path="url(#pa7878d1e80)" style="fill: none; stroke-dasharray: 2.96,1.28; stroke-dashoffset: 0; stroke: #ff0000; stroke-width: 0.8"/>
   </g>
   <g id="patch_3">
    <path d="M 59.178438 200.648125 
L 59.178438 55.609187 
" style="fill: none; stroke: #ffffff; stroke-width: 1.25; stroke-linejoin: miter; stroke-linecap: square"/>
   </g>
   <g id="patch_4">
    <path d="M 550.760783 200.648125 
L 550.760783 55.609187 
" style="fill: none; stroke: #ffffff; stroke-width: 1.25; stroke-linejoin: miter; stroke-linecap: square"/>
   </g>
   <g id="patch_5">
    <path d="M 59.178438 200.648125 
L 550.760783 200.648125 
" style="fill: none; stroke: #ffffff; stroke-width: 1.25; stroke-linejoin: miter; stroke-linecap: square"/>
   </g>
   <g id="patch_6">
    <path d="M 59.178438 55.609187 
L 550.760783 55.609187 
" style="fill: none; stroke: #ffffff; stroke-width: 1.25; stroke-linejoin: miter; stroke-linecap: square"/>
   </g>
   <g id="legend_1">
    <g id="patch_7">
     <path d="M 478.921095 196.148125 
L 544.460783 196.148125 
Q 546.260783 196.148125 546.260783 194.348125 
L 546.260783 168.8275 
Q 546.260783 167.0275 544.460783 167.0275 
L 478.921095 167.0275 
Q 477.121095 167.0275 477.121095 168.8275 
L 477.121095 194.348125 
Q 477.121095 196.148125 478.921095 196.148125 
z
" style="fill: #eaeaf2; opacity: 0.8; stroke: #cccccc; stroke-linejoin: miter"/>
    </g>
    <g id="line2d_21">
     <path d="M 480.721095 174.316094 
L 489.721095 174.316094 
L 498.721095 174.316094 
" style="fill: none; stroke: #000000; stroke-width: 0.7; stroke-linecap: round"/>
    </g>
    <g id="text_21">
     <!-- TDC -->
     <g style="fill: #262626" transform="translate(505.921095 177.466094)scale(0.09 -0.09)">
      <defs>
       <path id="DejaVuSans-54" d="M -19 4666 
L 3928 4666 
L 3928 4134 
L 2272 4134 
L 2272 0 
L 1638 0 
L 1638 4134 
L -19 4134 
L -19 4666 
z
" transform="scale(0.015625)"/>
       <path id="DejaVuSans-44" d="M 1259 4147 
L 1259 519 
L 2022 519 
Q 2988 519 3436 956 
Q 3884 1394 3884 2338 
Q 3884 3275 3436 3711 
Q 2988 4147 2022 4147 
L 1259 4147 
z
M 628 4666 
L 1925 4666 
Q 3281 4666 3915 4102 
Q 4550 3538 4550 2338 
Q 4550 1131 3912 565 
Q 3275 0 1925 0 
L 628 0 
L 628 4666 
z
" transform="scale(0.015625)"/>
       <path id="DejaVuSans-43" d="M 4122 4306 
L 4122 3641 
Q 3803 3938 3442 4084 
Q 3081 4231 2675 4231 
Q 1875 4231 1450 3742 
Q 1025 3253 1025 2328 
Q 1025 1406 1450 917 
Q 1875 428 2675 428 
Q 3081 428 3442 575 
Q 3803 722 4122 1019 
L 4122 359 
Q 3791 134 3420 21 
Q 3050 -91 2638 -91 
Q 1578 -91 968 557 
Q 359 1206 359 2328 
Q 359 3453 968 4101 
Q 1578 4750 2638 4750 
Q 3056 4750 3426 4639 
Q 3797 4528 4122 4306 
z
" transform="scale(0.015625)"/>
      </defs>
      <use xlink:href="#DejaVuSans-54"/>
      <use xlink:href="#DejaVuSans-44" x="61.083984"/>
      <use xlink:href="#DejaVuSans-43" x="138.085938"/>
     </g>
    </g>
    <g id="line2d_22">
     <path d="M 480.721095 187.526406 
L 489.721095 187.526406 
L 498.721095 187.526406 
" style="fill: none; stroke-dasharray: 2.96,1.28; stroke-dashoffset: 0; stroke: #ff0000; stroke-width: 0.8"/>
    </g>
    <g id="text_22">
     <!-- Mov. Av. -->
     <g style="fill: #262626" transform="translate(505.921095 190.676406)scale(0.09 -0.09)">
      <defs>
       <path id="DejaVuSans-4d" d="M 628 4666 
L 1569 4666 
L 2759 1491 
L 3956 4666 
L 4897 4666 
L 4897 0 
L 4281 0 
L 4281 4097 
L 3078 897 
L 2444 897 
L 1241 4097 
L 1241 0 
L 628 0 
L 628 4666 
z
" transform="scale(0.015625)"/>
       <path id="DejaVuSans-76" d="M 191 3500 
L 800 3500 
L 1894 563 
L 2988 3500 
L 3597 3500 
L 2284 0 
L 1503 0 
L 191 3500 
z
" transform="scale(0.015625)"/>
       <path id="DejaVuSans-2e" d="M 684 794 
L 1344 794 
L 1344 0 
L 684 0 
L 684 794 
z
" transform="scale(0.015625)"/>
       <path id="DejaVuSans-41" d="M 2188 4044 
L 1331 1722 
L 3047 1722 
L 2188 4044 
z
M 1831 4666 
L 2547 4666 
L 4325 0 
L 3669 0 
L 3244 1197 
L 1141 1197 
L 716 0 
L 50 0 
L 1831 4666 
z
" transform="scale(0.015625)"/>
      </defs>
      <use xlink:href="#DejaVuSans-4d"/>
      <use xlink:href="#DejaVuSans-6f" x="86.279297"/>
      <use xlink:href="#DejaVuSans-76" x="147.460938"/>
      <use xlink:href="#DejaVuSans-2e" x="198.890625"/>
      <use xlink:href="#DejaVuSans-20" x="230.677734"/>
      <use xlink:href="#DejaVuSans-41" x="262.464844"/>
      <use xlink:href="#DejaVuSans-76" x="324.998047"/>
      <use xlink:href="#DejaVuSans-2e" x="376.427734"/>
     </g>
    </g>
   </g>
  </g>
  <g id="text_23">
   <!-- Energetic Components [Per-residue] -->
   <g style="fill: #262626" transform="translate(161.55375 15.605813)scale(0.14 -0.14)">
    <defs>
     <path id="DejaVuSans-74" d="M 1172 4494 
L 1172 3500 
L 2356 3500 
L 2356 3053 
L 1172 3053 
L 1172 1153 
Q 1172 725 1289 603 
Q 1406 481 1766 481 
L 2356 481 
L 2356 0 
L 1766 0 
Q 1100 0 847 248 
Q 594 497 594 1153 
L 594 3053 
L 172 3053 
L 172 3500 
L 594 3500 
L 594 4494 
L 1172 4494 
z
" transform="scale(0.015625)"/>
     <path id="DejaVuSans-69" d="M 603 3500 
L 1178 3500 
L 1178 0 
L 603 0 
L 603 3500 
z
M 603 4863 
L 1178 4863 
L 1178 4134 
L 603 4134 
L 603 4863 
z
" transform="scale(0.015625)"/>
     <path id="DejaVuSans-70" d="M 1159 525 
L 1159 -1331 
L 581 -1331 
L 581 3500 
L 1159 3500 
L 1159 2969 
Q 1341 3281 1617 3432 
Q 1894 3584 2278 3584 
Q 2916 3584 3314 3078 
Q 3713 2572 3713 1747 
Q 3713 922 3314 415 
Q 2916 -91 2278 -91 
Q 1894 -91 1617 61 
Q 1341 213 1159 525 
z
M 3116 1747 
Q 3116 2381 2855 2742 
Q 2594 3103 2138 3103 
Q 1681 3103 1420 2742 
Q 1159 2381 1159 1747 
Q 1159 1113 1420 752 
Q 1681 391 2138 391 
Q 2594 391 2855 752 
Q 3116 1113 3116 1747 
z
" transform="scale(0.015625)"/>
     <path id="DejaVuSans-5b" d="M 550 4863 
L 1875 4863 
L 1875 4416 
L 1125 4416 
L 1125 -397 
L 1875 -397 
L 1875 -844 
L 550 -844 
L 550 4863 
z
" transform="scale(0.015625)"/>
     <path id="DejaVuSans-50" d="M 1259 4147 
L 1259 2394 
L 2053 2394 
Q 2494 2394 2734 2622 
Q 2975 2850 2975 3272 
Q 2975 3691 2734 3919 
Q 2494 4147 2053 4147 
L 1259 4147 
z
M 628 4666 
L 2053 4666 
Q 2838 4666 3239 4311 
Q 3641 3956 3641 3272 
Q 3641 2581 3239 2228 
Q 2838 1875 2053 1875 
L 1259 1875 
L 1259 0 
L 628 0 
L 628 4666 
z
" transform="scale(0.015625)"/>
     <path id="DejaVuSans-2d" d="M 313 2009 
L 1997 2009 
L 1997 1497 
L 313 1497 
L 313 2009 
z
" transform="scale(0.015625)"/>
     <path id="DejaVuSans-64" d="M 2906 2969 
L 2906 4863 
L 3481 4863 
L 3481 0 
L 2906 0 
L 2906 525 
Q 2725 213 2448 61 
Q 2172 -91 1784 -91 
Q 1150 -91 751 415 
Q 353 922 353 1747 
Q 353 2572 751 3078 
Q 1150 3584 1784 3584 
Q 2172 3584 2448 3432 
Q 2725 3281 2906 2969 
z
M 947 1747 
Q 947 1113 1208 752 
Q 1469 391 1925 391 
Q 2381 391 2643 752 
Q 2906 1113 2906 1747 
Q 2906 2381 2643 2742 
Q 2381 3103 1925 3103 
Q 1469 3103 1208 2742 
Q 947 2381 947 1747 
z
" transform="scale(0.015625)"/>
     <path id="DejaVuSans-75" d="M 544 1381 
L 544 3500 
L 1119 3500 
L 1119 1403 
Q 1119 906 1312 657 
Q 1506 409 1894 409 
Q 2359 409 2629 706 
Q 2900 1003 2900 1516 
L 2900 3500 
L 3475 3500 
L 3475 0 
L 2900 0 
L 2900 538 
Q 2691 219 2414 64 
Q 2138 -91 1772 -91 
Q 1169 -91 856 284 
Q 544 659 544 1381 
z
M 1991 3584 
L 1991 3584 
z
" transform="scale(0.015625)"/>
     <path id="DejaVuSans-5d" d="M 1947 4863 
L 1947 -844 
L 622 -844 
L 622 -397 
L 1369 -397 
L 1369 4416 
L 622 4416 
L 622 4863 
L 1947 4863 
z
" transform="scale(0.015625)"/>
    </defs>
    <use xlink:href="#DejaVuSans-45"/>
    <use xlink:href="#DejaVuSans-6e" x="63.183594"/>
    <use xlink:href="#DejaVuSans-65" x="126.5625"/>
    <use xlink:href="#DejaVuSans-72" x="188.085938"/>
    <use xlink:href="#DejaVuSans-67" x="227.449219"/>
    <use xlink:href="#DejaVuSans-65" x="290.925781"/>
    <use xlink:href="#DejaVuSans-74" x="352.449219"/>
    <use xlink:href="#DejaVuSans-69" x="391.658203"/>
    <use xlink:href="#DejaVuSans-63" x="419.441406"/>
    <use xlink:href="#DejaVuSans-20" x="474.421875"/>
    <use xlink:href="#DejaVuSans-43" x="506.208984"/>
    <use xlink:href="#DejaVuSans-6f" x="576.033203"/>
    <use xlink:href="#DejaVuSans-6d" x="637.214844"/>
    <use xlink:href="#DejaVuSans-70" x="734.626953"/>
    <use xlink:href="#DejaVuSans-6f" x="798.103516"/>
    <use xlink:href="#DejaVuSans-6e" x="859.285156"/>
    <use xlink:href="#DejaVuSans-65" x="922.664062"/>
    <use xlink:href="#DejaVuSans-6e" x="984.1875"/>
    <use xlink:href="#DejaVuSans-74" x="1047.566406"/>
    <use xlink:href="#DejaVuSans-73" x="1086.775391"/>
    <use xlink:href="#DejaVuSans-20" x="1138.875"/>
    <use xlink:href="#DejaVuSans-5b" x="1170.662109"/>
    <use xlink:href="#DejaVuSans-50" x="1209.675781"/>
    <use xlink:href="#DejaVuSans-65" x="1266.353516"/>
    <use xlink:href="#DejaVuSans-72" x="1327.876953"/>
    <use xlink:href="#DejaVuSans-2d" x="1362.615234"/>
    <use xlink:href="#DejaVuSans-72" x="1398.699219"/>
    <use xlink:href="#DejaVuSans-65" x="1437.5625"/>
    <use xlink:href="#DejaVuSans-73" x="1499.085938"/>
    <use xlink:href="#DejaVuSans-69" x="1551.185547"/>
    <use xlink:href="#DejaVuSans-64" x="1578.96875"/>
    <use xlink:href="#DejaVuSans-75" x="1642.445312"/>
    <use xlink:href="#DejaVuSans-65" x="1705.824219"/>
    <use xlink:href="#DejaVuSans-5d" x="1767.347656"/>
   </g>
   <!-- System-1 | NORMAL | GB | Delta | TDC -->
   <g style="fill: #262626" transform="translate(153.892031 31.35625)scale(0.14 -0.14)">
    <defs>
     <path id="DejaVuSans-53" d="M 3425 4513 
L 3425 3897 
Q 3066 4069 2747 4153 
Q 2428 4238 2131 4238 
Q 1616 4238 1336 4038 
Q 1056 3838 1056 3469 
Q 1056 3159 1242 3001 
Q 1428 2844 1947 2747 
L 2328 2669 
Q 3034 2534 3370 2195 
Q 3706 1856 3706 1288 
Q 3706 609 3251 259 
Q 2797 -91 1919 -91 
Q 1588 -91 1214 -16 
Q 841 59 441 206 
L 441 856 
Q 825 641 1194 531 
Q 1563 422 1919 422 
Q 2459 422 2753 634 
Q 3047 847 3047 1241 
Q 3047 1584 2836 1778 
Q 2625 1972 2144 2069 
L 1759 2144 
Q 1053 2284 737 2584 
Q 422 2884 422 3419 
Q 422 4038 858 4394 
Q 1294 4750 2059 4750 
Q 2388 4750 2728 4690 
Q 3069 4631 3425 4513 
z
" transform="scale(0.015625)"/>
     <path id="DejaVuSans-7c" d="M 1344 4891 
L 1344 -1509 
L 813 -1509 
L 813 4891 
L 1344 4891 
z
" transform="scale(0.015625)"/>
     <path id="DejaVuSans-4e" d="M 628 4666 
L 1478 4666 
L 3547 763 
L 3547 4666 
L 4159 4666 
L 4159 0 
L 3309 0 
L 1241 3903 
L 1241 0 
L 628 0 
L 628 4666 
z
" transform="scale(0.015625)"/>
     <path id="DejaVuSans-4f" d="M 2522 4238 
Q 1834 4238 1429 3725 
Q 1025 3213 1025 2328 
Q 1025 1447 1429 934 
Q 1834 422 2522 422 
Q 3209 422 3611 934 
Q 4013 1447 4013 2328 
Q 4013 3213 3611 3725 
Q 3209 4238 2522 4238 
z
M 2522 4750 
Q 3503 4750 4090 4092 
Q 4678 3434 4678 2328 
Q 4678 1225 4090 567 
Q 3503 -91 2522 -91 
Q 1538 -91 948 565 
Q 359 1222 359 2328 
Q 359 3434 948 4092 
Q 1538 4750 2522 4750 
z
" transform="scale(0.015625)"/>
     <path id="DejaVuSans-52" d="M 2841 2188 
Q 3044 2119 3236 1894 
Q 3428 1669 3622 1275 
L 4263 0 
L 3584 0 
L 2988 1197 
Q 2756 1666 2539 1819 
Q 2322 1972 1947 1972 
L 1259 1972 
L 1259 0 
L 628 0 
L 628 4666 
L 2053 4666 
Q 2853 4666 3247 4331 
Q 3641 3997 3641 3322 
Q 3641 2881 3436 2590 
Q 3231 2300 2841 2188 
z
M 1259 4147 
L 1259 2491 
L 2053 2491 
Q 2509 2491 2742 2702 
Q 2975 2913 2975 3322 
Q 2975 3731 2742 3939 
Q 2509 4147 2053 4147 
L 1259 4147 
z
" transform="scale(0.015625)"/>
     <path id="DejaVuSans-4c" d="M 628 4666 
L 1259 4666 
L 1259 531 
L 3531 531 
L 3531 0 
L 628 0 
L 628 4666 
z
" transform="scale(0.015625)"/>
     <path id="DejaVuSans-47" d="M 3809 666 
L 3809 1919 
L 2778 1919 
L 2778 2438 
L 4434 2438 
L 4434 434 
Q 4069 175 3628 42 
Q 3188 -91 2688 -91 
Q 1594 -91 976 548 
Q 359 1188 359 2328 
Q 359 3472 976 4111 
Q 1594 4750 2688 4750 
Q 3144 4750 3555 4637 
Q 3966 4525 4313 4306 
L 4313 3634 
Q 3963 3931 3569 4081 
Q 3175 4231 2741 4231 
Q 1884 4231 1454 3753 
Q 1025 3275 1025 2328 
Q 1025 1384 1454 906 
Q 1884 428 2741 428 
Q 3075 428 3337 486 
Q 3600 544 3809 666 
z
" transform="scale(0.015625)"/>
     <path id="DejaVuSans-42" d="M 1259 2228 
L 1259 519 
L 2272 519 
Q 2781 519 3026 730 
Q 3272 941 3272 1375 
Q 3272 1813 3026 2020 
Q 2781 2228 2272 2228 
L 1259 2228 
z
M 1259 4147 
L 1259 2741 
L 2194 2741 
Q 2656 2741 2882 2914 
Q 3109 3088 3109 3444 
Q 3109 3797 2882 3972 
Q 2656 4147 2194 4147 
L 1259 4147 
z
M 628 4666 
L 2241 4666 
Q 2963 4666 3353 4366 
Q 3744 4066 3744 3513 
Q 3744 3084 3544 2831 
Q 3344 2578 2956 2516 
Q 3422 2416 3680 2098 
Q 3938 1781 3938 1306 
Q 3938 681 3513 340 
Q 3088 0 2303 0 
L 628 0 
L 628 4666 
z
" transform="scale(0.015625)"/>
    </defs>
    <use xlink:href="#DejaVuSans-53"/>
    <use xlink:href="#DejaVuSans-79" x="63.476562"/>
    <use xlink:href="#DejaVuSans-73" x="122.65625"/>
    <use xlink:href="#DejaVuSans-74" x="174.755859"/>
    <use xlink:href="#DejaVuSans-65" x="213.964844"/>
    <use xlink:href="#DejaVuSans-6d" x="275.488281"/>
    <use xlink:href="#DejaVuSans-2d" x="372.900391"/>
    <use xlink:href="#DejaVuSans-31" x="408.984375"/>
    <use xlink:href="#DejaVuSans-20" x="472.607422"/>
    <use xlink:href="#DejaVuSans-7c" x="504.394531"/>
    <use xlink:href="#DejaVuSans-20" x="538.085938"/>
    <use xlink:href="#DejaVuSans-4e" x="569.873047"/>
    <use xlink:href="#DejaVuSans-4f" x="644.677734"/>
    <use xlink:href="#DejaVuSans-52" x="723.388672"/>
    <use xlink:href="#DejaVuSans-4d" x="792.871094"/>
    <use xlink:href="#DejaVuSans-41" x="879.150391"/>
    <use xlink:href="#DejaVuSans-4c" x="947.558594"/>
    <use xlink:href="#DejaVuSans-20" x="1003.271484"/>
    <use xlink:href="#DejaVuSans-7c" x="1035.058594"/>
    <use xlink:href="#DejaVuSans-20" x="1068.75"/>
    <use xlink:href="#DejaVuSans-47" x="1100.537109"/>
    <use xlink:href="#DejaVuSans-42" x="1178.027344"/>
    <use xlink:href="#DejaVuSans-20" x="1246.630859"/>
    <use xlink:href="#DejaVuSans-7c" x="1278.417969"/>
    <use xlink:href="#DejaVuSans-20" x="1312.109375"/>
    <use xlink:href="#DejaVuSans-44" x="1343.896484"/>
    <use xlink:href="#DejaVuSans-65" x="1420.898438"/>
    <use xlink:href="#DejaVuSans-6c" x="1482.421875"/>
    <use xlink:href="#DejaVuSans-74" x="1510.205078"/>
    <use xlink:href="#DejaVuSans-61" x="1549.414062"/>
    <use xlink:href="#DejaVuSans-20" x="1610.693359"/>
    <use xlink:href="#DejaVuSans-7c" x="1642.480469"/>
    <use xlink:href="#DejaVuSans-20" x="1676.171875"/>
    <use xlink:href="#DejaVuSans-54" x="1707.958984"/>
    <use xlink:href="#DejaVuSans-44" x="1769.042969"/>
    <use xlink:href="#DejaVuSans-43" x="1846.044922"/>
   </g>
  </g>
 </g>
 <defs>
  <clipPath id="pa7878d1e80">
   <rect x="59.178438" y="55.609187" width="491.582345" height="145.038938"/>
  </clipPath>
 </defs>
</svg>
