<?xml version="1.0" encoding="utf-8" standalone="no"?>
<!DOCTYPE svg PUBLIC "-//W3C//DTD SVG 1.1//EN"
  "http://www.w3.org/Graphics/SVG/1.1/DTD/svg11.dtd">
<svg xmlns:xlink="http://www.w3.org/1999/xlink" width="576pt" height="248.4pt" viewBox="0 0 576 248.4" xmlns="http://www.w3.org/2000/svg" version="1.1">
 <metadata>
  <rdf:RDF xmlns:dc="http://purl.org/dc/elements/1.1/" xmlns:cc="http://creativecommons.org/ns#" xmlns:rdf="http://www.w3.org/1999/02/22-rdf-syntax-ns#">
   <cc:Work>
    <dc:type rdf:resource="http://purl.org/dc/dcmitype/StillImage"/>
    <dc:date>2024-10-20T16:56:57.614572</dc:date>
    <dc:format>image/svg+xml</dc:format>
    <dc:creator>
     <cc:Agent>
      <dc:title>Matplotlib v3.5.2, https://matplotlib.org/</dc:title>
     </cc:Agent>
    </dc:creator>
   </cc:Work>
  </rdf:RDF>
 </metadata>
 <defs>
  <style type="text/css">*{stroke-linejoin: round; stroke-linecap: butt}</style>
 </defs>
 <g id="figure_1">
  <g id="patch_1">
   <path d="M 0 248.4 
L 576 248.4 
L 576 0 
L 0 0 
z
" style="fill: #ffffff"/>
  </g>
  <g id="axes_1">
   <g id="patch_2">
    <path d="M 65.540937 200.648125 
L 550.75505 200.648125 
L 550.75505 56.44648 
L 65.540937 56.44648 
z
" style="fill: #eaeaf2"/>
   </g>
   <g id="matplotlib.axis_1">
    <g id="xtick_1">
     <g id="line2d_1">
      <path d="M 87.155021 200.648125 
L 87.155021 56.44648 
" clip-path="url(#p218e86c07d)" style="fill: none; stroke: #ffffff; stroke-linecap: round"/>
     </g>
     <g id="text_1">
      <!-- 0 -->
      <g style="fill: #262626" transform="translate(83.973771 217.746562)scale(0.1 -0.1)">
       <defs>
        <path id="DejaVuSans-30" d="M 2034 4250 
Q 1547 4250 1301 3770 
Q 1056 3291 1056 2328 
Q 1056 1369 1301 889 
Q 1547 409 2034 409 
Q 2525 409 2770 889 
Q 3016 1369 3016 2328 
Q 3016 3291 2770 3770 
Q 2525 4250 2034 4250 
z
M 2034 4750 
Q 2819 4750 3233 4129 
Q 3647 3509 3647 2328 
Q 3647 1150 3233 529 
Q 2819 -91 2034 -91 
Q 1250 -91 836 529 
Q 422 1150 422 2328 
Q 422 3509 836 4129 
Q 1250 4750 2034 4750 
z
" transform="scale(0.015625)"/>
       </defs>
       <use xlink:href="#DejaVuSans-30"/>
      </g>
     </g>
    </g>
    <g id="xtick_2">
     <g id="line2d_2">
      <path d="M 153.320581 200.648125 
L 153.320581 56.44648 
" clip-path="url(#p218e86c07d)" style="fill: none; stroke: #ffffff; stroke-linecap: round"/>
     </g>
     <g id="text_2">
      <!-- 150 -->
      <g style="fill: #262626" transform="translate(143.776831 217.746562)scale(0.1 -0.1)">
       <defs>
        <path id="DejaVuSans-31" d="M 794 531 
L 1825 531 
L 1825 4091 
L 703 3866 
L 703 4441 
L 1819 4666 
L 2450 4666 
L 2450 531 
L 3481 531 
L 3481 0 
L 794 0 
L 794 531 
z
" transform="scale(0.015625)"/>
        <path id="DejaVuSans-35" d="M 691 4666 
L 3169 4666 
L 3169 4134 
L 1269 4134 
L 1269 2991 
Q 1406 3038 1543 3061 
Q 1681 3084 1819 3084 
Q 2600 3084 3056 2656 
Q 3513 2228 3513 1497 
Q 3513 744 3044 326 
Q 2575 -91 1722 -91 
Q 1428 -91 1123 -41 
Q 819 9 494 109 
L 494 744 
Q 775 591 1075 516 
Q 1375 441 1709 441 
Q 2250 441 2565 725 
Q 2881 1009 2881 1497 
Q 2881 1984 2565 2268 
Q 2250 2553 1709 2553 
Q 1456 2553 1204 2497 
Q 953 2441 691 2322 
L 691 4666 
z
" transform="scale(0.015625)"/>
       </defs>
       <use xlink:href="#DejaVuSans-31"/>
       <use xlink:href="#DejaVuSans-35" x="63.623047"/>
       <use xlink:href="#DejaVuSans-30" x="127.246094"/>
      </g>
     </g>
    </g>
    <g id="xtick_3">
     <g id="line2d_3">
      <path d="M 219.486142 200.648125 
L 219.486142 56.44648 
" clip-path="url(#p218e86c07d)" style="fill: none; stroke: #ffffff; stroke-linecap: round"/>
     </g>
     <g id="text_3">
      <!-- 300 -->
      <g style="fill: #262626" transform="translate(209.942392 217.746562)scale(0.1 -0.1)">
       <defs>
        <path id="DejaVuSans-33" d="M 2597 2516 
Q 3050 2419 3304 2112 
Q 3559 1806 3559 1356 
Q 3559 666 3084 287 
Q 2609 -91 1734 -91 
Q 1441 -91 1130 -33 
Q 819 25 488 141 
L 488 750 
Q 750 597 1062 519 
Q 1375 441 1716 441 
Q 2309 441 2620 675 
Q 2931 909 2931 1356 
Q 2931 1769 2642 2001 
Q 2353 2234 1838 2234 
L 1294 2234 
L 1294 2753 
L 1863 2753 
Q 2328 2753 2575 2939 
Q 2822 3125 2822 3475 
Q 2822 3834 2567 4026 
Q 2313 4219 1838 4219 
Q 1578 4219 1281 4162 
Q 984 4106 628 3988 
L 628 4550 
Q 988 4650 1302 4700 
Q 1616 4750 1894 4750 
Q 2613 4750 3031 4423 
Q 3450 4097 3450 3541 
Q 3450 3153 3228 2886 
Q 3006 2619 2597 2516 
z
" transform="scale(0.015625)"/>
       </defs>
       <use xlink:href="#DejaVuSans-33"/>
       <use xlink:href="#DejaVuSans-30" x="63.623047"/>
       <use xlink:href="#DejaVuSans-30" x="127.246094"/>
      </g>
     </g>
    </g>
    <g id="xtick_4">
     <g id="line2d_4">
      <path d="M 285.651703 200.648125 
L 285.651703 56.44648 
" clip-path="url(#p218e86c07d)" style="fill: none; stroke: #ffffff; stroke-linecap: round"/>
     </g>
     <g id="text_4">
      <!-- 450 -->
      <g style="fill: #262626" transform="translate(276.107953 217.746562)scale(0.1 -0.1)">
       <defs>
        <path id="DejaVuSans-34" d="M 2419 4116 
L 825 1625 
L 2419 1625 
L 2419 4116 
z
M 2253 4666 
L 3047 4666 
L 3047 1625 
L 3713 1625 
L 3713 1100 
L 3047 1100 
L 3047 0 
L 2419 0 
L 2419 1100 
L 313 1100 
L 313 1709 
L 2253 4666 
z
" transform="scale(0.015625)"/>
       </defs>
       <use xlink:href="#DejaVuSans-34"/>
       <use xlink:href="#DejaVuSans-35" x="63.623047"/>
       <use xlink:href="#DejaVuSans-30" x="127.246094"/>
      </g>
     </g>
    </g>
    <g id="xtick_5">
     <g id="line2d_5">
      <path d="M 351.817264 200.648125 
L 351.817264 56.44648 
" clip-path="url(#p218e86c07d)" style="fill: none; stroke: #ffffff; stroke-linecap: round"/>
     </g>
     <g id="text_5">
      <!-- 600 -->
      <g style="fill: #262626" transform="translate(342.273514 217.746562)scale(0.1 -0.1)">
       <defs>
        <path id="DejaVuSans-36" d="M 2113 2584 
Q 1688 2584 1439 2293 
Q 1191 2003 1191 1497 
Q 1191 994 1439 701 
Q 1688 409 2113 409 
Q 2538 409 2786 701 
Q 3034 994 3034 1497 
Q 3034 2003 2786 2293 
Q 2538 2584 2113 2584 
z
M 3366 4563 
L 3366 3988 
Q 3128 4100 2886 4159 
Q 2644 4219 2406 4219 
Q 1781 4219 1451 3797 
Q 1122 3375 1075 2522 
Q 1259 2794 1537 2939 
Q 1816 3084 2150 3084 
Q 2853 3084 3261 2657 
Q 3669 2231 3669 1497 
Q 3669 778 3244 343 
Q 2819 -91 2113 -91 
Q 1303 -91 875 529 
Q 447 1150 447 2328 
Q 447 3434 972 4092 
Q 1497 4750 2381 4750 
Q 2619 4750 2861 4703 
Q 3103 4656 3366 4563 
z
" transform="scale(0.015625)"/>
       </defs>
       <use xlink:href="#DejaVuSans-36"/>
       <use xlink:href="#DejaVuSans-30" x="63.623047"/>
       <use xlink:href="#DejaVuSans-30" x="127.246094"/>
      </g>
     </g>
    </g>
    <g id="xtick_6">
     <g id="line2d_6">
      <path d="M 417.982825 200.648125 
L 417.982825 56.44648 
" clip-path="url(#p218e86c07d)" style="fill: none; stroke: #ffffff; stroke-linecap: round"/>
     </g>
     <g id="text_6">
      <!-- 750 -->
      <g style="fill: #262626" transform="translate(408.439075 217.746562)scale(0.1 -0.1)">
       <defs>
        <path id="DejaVuSans-37" d="M 525 4666 
L 3525 4666 
L 3525 4397 
L 1831 0 
L 1172 0 
L 2766 4134 
L 525 4134 
L 525 4666 
z
" transform="scale(0.015625)"/>
       </defs>
       <use xlink:href="#DejaVuSans-37"/>
       <use xlink:href="#DejaVuSans-35" x="63.623047"/>
       <use xlink:href="#DejaVuSans-30" x="127.246094"/>
      </g>
     </g>
    </g>
    <g id="xtick_7">
     <g id="line2d_7">
      <path d="M 484.148386 200.648125 
L 484.148386 56.44648 
" clip-path="url(#p218e86c07d)" style="fill: none; stroke: #ffffff; stroke-linecap: round"/>
     </g>
     <g id="text_7">
      <!-- 900 -->
      <g style="fill: #262626" transform="translate(474.604636 217.746562)scale(0.1 -0.1)">
       <defs>
        <path id="DejaVuSans-39" d="M 703 97 
L 703 672 
Q 941 559 1184 500 
Q 1428 441 1663 441 
Q 2288 441 2617 861 
Q 2947 1281 2994 2138 
Q 2813 1869 2534 1725 
Q 2256 1581 1919 1581 
Q 1219 1581 811 2004 
Q 403 2428 403 3163 
Q 403 3881 828 4315 
Q 1253 4750 1959 4750 
Q 2769 4750 3195 4129 
Q 3622 3509 3622 2328 
Q 3622 1225 3098 567 
Q 2575 -91 1691 -91 
Q 1453 -91 1209 -44 
Q 966 3 703 97 
z
M 1959 2075 
Q 2384 2075 2632 2365 
Q 2881 2656 2881 3163 
Q 2881 3666 2632 3958 
Q 2384 4250 1959 4250 
Q 1534 4250 1286 3958 
Q 1038 3666 1038 3163 
Q 1038 2656 1286 2365 
Q 1534 2075 1959 2075 
z
" transform="scale(0.015625)"/>
       </defs>
       <use xlink:href="#DejaVuSans-39"/>
       <use xlink:href="#DejaVuSans-30" x="63.623047"/>
       <use xlink:href="#DejaVuSans-30" x="127.246094"/>
      </g>
     </g>
    </g>
    <g id="xtick_8">
     <g id="line2d_8">
      <path d="M 550.313946 200.648125 
L 550.313946 56.44648 
" clip-path="url(#p218e86c07d)" style="fill: none; stroke: #ffffff; stroke-linecap: round"/>
     </g>
     <g id="text_8">
      <!-- 1050 -->
      <g style="fill: #262626" transform="translate(537.588946 217.746562)scale(0.1 -0.1)">
       <use xlink:href="#DejaVuSans-31"/>
       <use xlink:href="#DejaVuSans-30" x="63.623047"/>
       <use xlink:href="#DejaVuSans-35" x="127.246094"/>
       <use xlink:href="#DejaVuSans-30" x="190.869141"/>
      </g>
     </g>
    </g>
    <g id="text_9">
     <!-- Frames -->
     <g style="fill: #262626" transform="translate(286.326744 232.944375)scale(0.12 -0.12)">
      <defs>
       <path id="DejaVuSans-46" d="M 628 4666 
L 3309 4666 
L 3309 4134 
L 1259 4134 
L 1259 2759 
L 3109 2759 
L 3109 2228 
L 1259 2228 
L 1259 0 
L 628 0 
L 628 4666 
z
" transform="scale(0.015625)"/>
       <path id="DejaVuSans-72" d="M 2631 2963 
Q 2534 3019 2420 3045 
Q 2306 3072 2169 3072 
Q 1681 3072 1420 2755 
Q 1159 2438 1159 1844 
L 1159 0 
L 581 0 
L 581 3500 
L 1159 3500 
L 1159 2956 
Q 1341 3275 1631 3429 
Q 1922 3584 2338 3584 
Q 2397 3584 2469 3576 
Q 2541 3569 2628 3553 
L 2631 2963 
z
" transform="scale(0.015625)"/>
       <path id="DejaVuSans-61" d="M 2194 1759 
Q 1497 1759 1228 1600 
Q 959 1441 959 1056 
Q 959 750 1161 570 
Q 1363 391 1709 391 
Q 2188 391 2477 730 
Q 2766 1069 2766 1631 
L 2766 1759 
L 2194 1759 
z
M 3341 1997 
L 3341 0 
L 2766 0 
L 2766 531 
Q 2569 213 2275 61 
Q 1981 -91 1556 -91 
Q 1019 -91 701 211 
Q 384 513 384 1019 
Q 384 1609 779 1909 
Q 1175 2209 1959 2209 
L 2766 2209 
L 2766 2266 
Q 2766 2663 2505 2880 
Q 2244 3097 1772 3097 
Q 1472 3097 1187 3025 
Q 903 2953 641 2809 
L 641 3341 
Q 956 3463 1253 3523 
Q 1550 3584 1831 3584 
Q 2591 3584 2966 3190 
Q 3341 2797 3341 1997 
z
" transform="scale(0.015625)"/>
       <path id="DejaVuSans-6d" d="M 3328 2828 
Q 3544 3216 3844 3400 
Q 4144 3584 4550 3584 
Q 5097 3584 5394 3201 
Q 5691 2819 5691 2113 
L 5691 0 
L 5113 0 
L 5113 2094 
Q 5113 2597 4934 2840 
Q 4756 3084 4391 3084 
Q 3944 3084 3684 2787 
Q 3425 2491 3425 1978 
L 3425 0 
L 2847 0 
L 2847 2094 
Q 2847 2600 2669 2842 
Q 2491 3084 2119 3084 
Q 1678 3084 1418 2786 
Q 1159 2488 1159 1978 
L 1159 0 
L 581 0 
L 581 3500 
L 1159 3500 
L 1159 2956 
Q 1356 3278 1631 3431 
Q 1906 3584 2284 3584 
Q 2666 3584 2933 3390 
Q 3200 3197 3328 2828 
z
" transform="scale(0.015625)"/>
       <path id="DejaVuSans-65" d="M 3597 1894 
L 3597 1613 
L 953 1613 
Q 991 1019 1311 708 
Q 1631 397 2203 397 
Q 2534 397 2845 478 
Q 3156 559 3463 722 
L 3463 178 
Q 3153 47 2828 -22 
Q 2503 -91 2169 -91 
Q 1331 -91 842 396 
Q 353 884 353 1716 
Q 353 2575 817 3079 
Q 1281 3584 2069 3584 
Q 2775 3584 3186 3129 
Q 3597 2675 3597 1894 
z
M 3022 2063 
Q 3016 2534 2758 2815 
Q 2500 3097 2075 3097 
Q 1594 3097 1305 2825 
Q 1016 2553 972 2059 
L 3022 2063 
z
" transform="scale(0.015625)"/>
       <path id="DejaVuSans-73" d="M 2834 3397 
L 2834 2853 
Q 2591 2978 2328 3040 
Q 2066 3103 1784 3103 
Q 1356 3103 1142 2972 
Q 928 2841 928 2578 
Q 928 2378 1081 2264 
Q 1234 2150 1697 2047 
L 1894 2003 
Q 2506 1872 2764 1633 
Q 3022 1394 3022 966 
Q 3022 478 2636 193 
Q 2250 -91 1575 -91 
Q 1294 -91 989 -36 
Q 684 19 347 128 
L 347 722 
Q 666 556 975 473 
Q 1284 391 1588 391 
Q 1994 391 2212 530 
Q 2431 669 2431 922 
Q 2431 1156 2273 1281 
Q 2116 1406 1581 1522 
L 1381 1569 
Q 847 1681 609 1914 
Q 372 2147 372 2553 
Q 372 3047 722 3315 
Q 1072 3584 1716 3584 
Q 2034 3584 2315 3537 
Q 2597 3491 2834 3397 
z
" transform="scale(0.015625)"/>
      </defs>
      <use xlink:href="#DejaVuSans-46"/>
      <use xlink:href="#DejaVuSans-72" x="50.269531"/>
      <use xlink:href="#DejaVuSans-61" x="91.382812"/>
      <use xlink:href="#DejaVuSans-6d" x="152.662109"/>
      <use xlink:href="#DejaVuSans-65" x="250.074219"/>
      <use xlink:href="#DejaVuSans-73" x="311.597656"/>
     </g>
    </g>
   </g>
   <g id="matplotlib.axis_2">
    <g id="ytick_1">
     <g id="line2d_9">
      <path d="M 65.540937 192.518876 
L 550.75505 192.518876 
" clip-path="url(#p218e86c07d)" style="fill: none; stroke: #ffffff; stroke-linecap: round"/>
     </g>
     <g id="text_10">
      <!-- −135 -->
      <g style="fill: #262626" transform="translate(28.57375 196.318095)scale(0.1 -0.1)">
       <defs>
        <path id="DejaVuSans-2212" d="M 678 2272 
L 4684 2272 
L 4684 1741 
L 678 1741 
L 678 2272 
z
" transform="scale(0.015625)"/>
       </defs>
       <use xlink:href="#DejaVuSans-2212"/>
       <use xlink:href="#DejaVuSans-31" x="83.789062"/>
       <use xlink:href="#DejaVuSans-33" x="147.412109"/>
       <use xlink:href="#DejaVuSans-35" x="211.035156"/>
      </g>
     </g>
    </g>
    <g id="ytick_2">
     <g id="line2d_10">
      <path d="M 65.540937 173.509328 
L 550.75505 173.509328 
" clip-path="url(#p218e86c07d)" style="fill: none; stroke: #ffffff; stroke-linecap: round"/>
     </g>
     <g id="text_11">
      <!-- −120 -->
      <g style="fill: #262626" transform="translate(28.57375 177.308546)scale(0.1 -0.1)">
       <defs>
        <path id="DejaVuSans-32" d="M 1228 531 
L 3431 531 
L 3431 0 
L 469 0 
L 469 531 
Q 828 903 1448 1529 
Q 2069 2156 2228 2338 
Q 2531 2678 2651 2914 
Q 2772 3150 2772 3378 
Q 2772 3750 2511 3984 
Q 2250 4219 1831 4219 
Q 1534 4219 1204 4116 
Q 875 4013 500 3803 
L 500 4441 
Q 881 4594 1212 4672 
Q 1544 4750 1819 4750 
Q 2544 4750 2975 4387 
Q 3406 4025 3406 3419 
Q 3406 3131 3298 2873 
Q 3191 2616 2906 2266 
Q 2828 2175 2409 1742 
Q 1991 1309 1228 531 
z
" transform="scale(0.015625)"/>
       </defs>
       <use xlink:href="#DejaVuSans-2212"/>
       <use xlink:href="#DejaVuSans-31" x="83.789062"/>
       <use xlink:href="#DejaVuSans-32" x="147.412109"/>
       <use xlink:href="#DejaVuSans-30" x="211.035156"/>
      </g>
     </g>
    </g>
    <g id="ytick_3">
     <g id="line2d_11">
      <path d="M 65.540937 154.499779 
L 550.75505 154.499779 
" clip-path="url(#p218e86c07d)" style="fill: none; stroke: #ffffff; stroke-linecap: round"/>
     </g>
     <g id="text_12">
      <!-- −105 -->
      <g style="fill: #262626" transform="translate(28.57375 158.298997)scale(0.1 -0.1)">
       <use xlink:href="#DejaVuSans-2212"/>
       <use xlink:href="#DejaVuSans-31" x="83.789062"/>
       <use xlink:href="#DejaVuSans-30" x="147.412109"/>
       <use xlink:href="#DejaVuSans-35" x="211.035156"/>
      </g>
     </g>
    </g>
    <g id="ytick_4">
     <g id="line2d_12">
      <path d="M 65.540937 135.49023 
L 550.75505 135.49023 
" clip-path="url(#p218e86c07d)" style="fill: none; stroke: #ffffff; stroke-linecap: round"/>
     </g>
     <g id="text_13">
      <!-- −90 -->
      <g style="fill: #262626" transform="translate(34.93625 139.289448)scale(0.1 -0.1)">
       <use xlink:href="#DejaVuSans-2212"/>
       <use xlink:href="#DejaVuSans-39" x="83.789062"/>
       <use xlink:href="#DejaVuSans-30" x="147.412109"/>
      </g>
     </g>
    </g>
    <g id="ytick_5">
     <g id="line2d_13">
      <path d="M 65.540937 116.480681 
L 550.75505 116.480681 
" clip-path="url(#p218e86c07d)" style="fill: none; stroke: #ffffff; stroke-linecap: round"/>
     </g>
     <g id="text_14">
      <!-- −75 -->
      <g style="fill: #262626" transform="translate(34.93625 120.2799)scale(0.1 -0.1)">
       <use xlink:href="#DejaVuSans-2212"/>
       <use xlink:href="#DejaVuSans-37" x="83.789062"/>
       <use xlink:href="#DejaVuSans-35" x="147.412109"/>
      </g>
     </g>
    </g>
    <g id="ytick_6">
     <g id="line2d_14">
      <path d="M 65.540937 97.471132 
L 550.75505 97.471132 
" clip-path="url(#p218e86c07d)" style="fill: none; stroke: #ffffff; stroke-linecap: round"/>
     </g>
     <g id="text_15">
      <!-- −60 -->
      <g style="fill: #262626" transform="translate(34.93625 101.270351)scale(0.1 -0.1)">
       <use xlink:href="#DejaVuSans-2212"/>
       <use xlink:href="#DejaVuSans-36" x="83.789062"/>
       <use xlink:href="#DejaVuSans-30" x="147.412109"/>
      </g>
     </g>
    </g>
    <g id="ytick_7">
     <g id="line2d_15">
      <path d="M 65.540937 78.461583 
L 550.75505 78.461583 
" clip-path="url(#p218e86c07d)" style="fill: none; stroke: #ffffff; stroke-linecap: round"/>
     </g>
     <g id="text_16">
      <!-- −45 -->
      <g style="fill: #262626" transform="translate(34.93625 82.260802)scale(0.1 -0.1)">
       <use xlink:href="#DejaVuSans-2212"/>
       <use xlink:href="#DejaVuSans-34" x="83.789062"/>
       <use xlink:href="#DejaVuSans-35" x="147.412109"/>
      </g>
     </g>
    </g>
    <g id="ytick_8">
     <g id="line2d_16">
      <path d="M 65.540937 59.452034 
L 550.75505 59.452034 
" clip-path="url(#p218e86c07d)" style="fill: none; stroke: #ffffff; stroke-linecap: round"/>
     </g>
     <g id="text_17">
      <!-- −30 -->
      <g style="fill: #262626" transform="translate(34.93625 63.251253)scale(0.1 -0.1)">
       <use xlink:href="#DejaVuSans-2212"/>
       <use xlink:href="#DejaVuSans-33" x="83.789062"/>
       <use xlink:href="#DejaVuSans-30" x="147.412109"/>
      </g>
     </g>
    </g>
    <g id="text_18">
     <!-- Energy (kcal/mol) -->
     <g style="fill: #262626" transform="translate(22.078125 181.46449)rotate(-90)scale(0.12 -0.12)">
      <defs>
       <path id="DejaVuSans-45" d="M 628 4666 
L 3578 4666 
L 3578 4134 
L 1259 4134 
L 1259 2753 
L 3481 2753 
L 3481 2222 
L 1259 2222 
L 1259 531 
L 3634 531 
L 3634 0 
L 628 0 
L 628 4666 
z
" transform="scale(0.015625)"/>
       <path id="DejaVuSans-6e" d="M 3513 2113 
L 3513 0 
L 2938 0 
L 2938 2094 
Q 2938 2591 2744 2837 
Q 2550 3084 2163 3084 
Q 1697 3084 1428 2787 
Q 1159 2491 1159 1978 
L 1159 0 
L 581 0 
L 581 3500 
L 1159 3500 
L 1159 2956 
Q 1366 3272 1645 3428 
Q 1925 3584 2291 3584 
Q 2894 3584 3203 3211 
Q 3513 2838 3513 2113 
z
" transform="scale(0.015625)"/>
       <path id="DejaVuSans-67" d="M 2906 1791 
Q 2906 2416 2648 2759 
Q 2391 3103 1925 3103 
Q 1463 3103 1205 2759 
Q 947 2416 947 1791 
Q 947 1169 1205 825 
Q 1463 481 1925 481 
Q 2391 481 2648 825 
Q 2906 1169 2906 1791 
z
M 3481 434 
Q 3481 -459 3084 -895 
Q 2688 -1331 1869 -1331 
Q 1566 -1331 1297 -1286 
Q 1028 -1241 775 -1147 
L 775 -588 
Q 1028 -725 1275 -790 
Q 1522 -856 1778 -856 
Q 2344 -856 2625 -561 
Q 2906 -266 2906 331 
L 2906 616 
Q 2728 306 2450 153 
Q 2172 0 1784 0 
Q 1141 0 747 490 
Q 353 981 353 1791 
Q 353 2603 747 3093 
Q 1141 3584 1784 3584 
Q 2172 3584 2450 3431 
Q 2728 3278 2906 2969 
L 2906 3500 
L 3481 3500 
L 3481 434 
z
" transform="scale(0.015625)"/>
       <path id="DejaVuSans-79" d="M 2059 -325 
Q 1816 -950 1584 -1140 
Q 1353 -1331 966 -1331 
L 506 -1331 
L 506 -850 
L 844 -850 
Q 1081 -850 1212 -737 
Q 1344 -625 1503 -206 
L 1606 56 
L 191 3500 
L 800 3500 
L 1894 763 
L 2988 3500 
L 3597 3500 
L 2059 -325 
z
" transform="scale(0.015625)"/>
       <path id="DejaVuSans-20" transform="scale(0.015625)"/>
       <path id="DejaVuSans-28" d="M 1984 4856 
Q 1566 4138 1362 3434 
Q 1159 2731 1159 2009 
Q 1159 1288 1364 580 
Q 1569 -128 1984 -844 
L 1484 -844 
Q 1016 -109 783 600 
Q 550 1309 550 2009 
Q 550 2706 781 3412 
Q 1013 4119 1484 4856 
L 1984 4856 
z
" transform="scale(0.015625)"/>
       <path id="DejaVuSans-6b" d="M 581 4863 
L 1159 4863 
L 1159 1991 
L 2875 3500 
L 3609 3500 
L 1753 1863 
L 3688 0 
L 2938 0 
L 1159 1709 
L 1159 0 
L 581 0 
L 581 4863 
z
" transform="scale(0.015625)"/>
       <path id="DejaVuSans-63" d="M 3122 3366 
L 3122 2828 
Q 2878 2963 2633 3030 
Q 2388 3097 2138 3097 
Q 1578 3097 1268 2742 
Q 959 2388 959 1747 
Q 959 1106 1268 751 
Q 1578 397 2138 397 
Q 2388 397 2633 464 
Q 2878 531 3122 666 
L 3122 134 
Q 2881 22 2623 -34 
Q 2366 -91 2075 -91 
Q 1284 -91 818 406 
Q 353 903 353 1747 
Q 353 2603 823 3093 
Q 1294 3584 2113 3584 
Q 2378 3584 2631 3529 
Q 2884 3475 3122 3366 
z
" transform="scale(0.015625)"/>
       <path id="DejaVuSans-6c" d="M 603 4863 
L 1178 4863 
L 1178 0 
L 603 0 
L 603 4863 
z
" transform="scale(0.015625)"/>
       <path id="DejaVuSans-2f" d="M 1625 4666 
L 2156 4666 
L 531 -594 
L 0 -594 
L 1625 4666 
z
" transform="scale(0.015625)"/>
       <path id="DejaVuSans-6f" d="M 1959 3097 
Q 1497 3097 1228 2736 
Q 959 2375 959 1747 
Q 959 1119 1226 758 
Q 1494 397 1959 397 
Q 2419 397 2687 759 
Q 2956 1122 2956 1747 
Q 2956 2369 2687 2733 
Q 2419 3097 1959 3097 
z
M 1959 3584 
Q 2709 3584 3137 3096 
Q 3566 2609 3566 1747 
Q 3566 888 3137 398 
Q 2709 -91 1959 -91 
Q 1206 -91 779 398 
Q 353 888 353 1747 
Q 353 2609 779 3096 
Q 1206 3584 1959 3584 
z
" transform="scale(0.015625)"/>
       <path id="DejaVuSans-29" d="M 513 4856 
L 1013 4856 
Q 1481 4119 1714 3412 
Q 1947 2706 1947 2009 
Q 1947 1309 1714 600 
Q 1481 -109 1013 -844 
L 513 -844 
Q 928 -128 1133 580 
Q 1338 1288 1338 2009 
Q 1338 2731 1133 3434 
Q 928 4138 513 4856 
z
" transform="scale(0.015625)"/>
      </defs>
      <use xlink:href="#DejaVuSans-45"/>
      <use xlink:href="#DejaVuSans-6e" x="63.183594"/>
      <use xlink:href="#DejaVuSans-65" x="126.5625"/>
      <use xlink:href="#DejaVuSans-72" x="188.085938"/>
      <use xlink:href="#DejaVuSans-67" x="227.449219"/>
      <use xlink:href="#DejaVuSans-79" x="290.925781"/>
      <use xlink:href="#DejaVuSans-20" x="350.105469"/>
      <use xlink:href="#DejaVuSans-28" x="381.892578"/>
      <use xlink:href="#DejaVuSans-6b" x="420.90625"/>
      <use xlink:href="#DejaVuSans-63" x="478.816406"/>
      <use xlink:href="#DejaVuSans-61" x="533.796875"/>
      <use xlink:href="#DejaVuSans-6c" x="595.076172"/>
      <use xlink:href="#DejaVuSans-2f" x="622.859375"/>
      <use xlink:href="#DejaVuSans-6d" x="656.550781"/>
      <use xlink:href="#DejaVuSans-6f" x="753.962891"/>
      <use xlink:href="#DejaVuSans-6c" x="815.144531"/>
      <use xlink:href="#DejaVuSans-29" x="842.927734"/>
     </g>
    </g>
   </g>
   <g id="line2d_17">
    <path d="M 87.596124 87.102753 
L 88.037228 80.216113 
L 88.478332 76.353563 
L 88.919436 89.297135 
L 89.360539 86.496298 
L 89.801643 71.639122 
L 90.242747 68.051896 
L 90.683851 63.001101 
L 91.124954 67.107788 
L 91.566058 69.037106 
L 92.007162 64.194733 
L 92.448266 65.691147 
L 92.889369 82.534096 
L 93.330473 87.356644 
L 93.771577 80.07575 
L 94.212681 78.738886 
L 94.653784 89.282577 
L 95.094888 68.45032 
L 95.535992 84.705346 
L 95.977095 83.891147 
L 96.418199 80.836481 
L 96.859303 90.808122 
L 97.300407 90.956178 
L 97.74151 83.390784 
L 98.182614 98.800156 
L 98.623718 95.495062 
L 99.064822 111.02978 
L 99.505925 101.191311 
L 99.947029 107.674964 
L 100.388133 102.534036 
L 100.829237 102.851274 
L 101.27034 103.39445 
L 101.711444 97.090528 
L 102.152548 106.873251 
L 102.593652 104.023862 
L 103.034755 94.034904 
L 103.475859 96.018738 
L 103.916963 77.843935 
L 104.358067 104.766287 
L 104.79917 95.539722 
L 105.240274 95.442035 
L 106.122481 115.158897 
L 106.563585 98.901452 
L 107.004689 96.214704 
L 107.445793 96.544998 
L 107.886896 107.315871 
L 108.769104 99.366263 
L 109.210208 102.192776 
L 109.651311 99.187066 
L 110.092415 108.616841 
L 110.533519 106.401116 
L 110.974623 100.382617 
L 111.415726 113.165024 
L 111.85683 102.638786 
L 112.297934 103.277095 
L 113.180141 98.92964 
L 113.621245 119.533188 
L 114.062349 121.23497 
L 114.503452 119.145584 
L 114.944556 119.141084 
L 115.38566 105.993635 
L 115.826764 108.559847 
L 116.267867 116.381488 
L 116.708971 108.488349 
L 117.150075 106.662231 
L 117.591179 100.024518 
L 118.032282 115.088551 
L 118.473386 112.558675 
L 118.91449 109.072044 
L 119.355594 119.52914 
L 119.796697 99.046153 
L 120.237801 108.173021 
L 120.678905 103.324612 
L 121.120009 96.687234 
L 121.561112 113.119577 
L 122.002216 113.268136 
L 122.44332 116.803385 
L 122.884424 110.812221 
L 123.325527 109.75402 
L 123.766631 113.848679 
L 124.207735 107.461306 
L 124.648838 103.962293 
L 125.089942 101.659879 
L 125.531046 109.461639 
L 125.97215 110.108042 
L 126.413253 103.061484 
L 126.854357 113.399851 
L 127.736565 99.387685 
L 128.177668 104.135284 
L 128.618772 101.599797 
L 129.059876 100.230511 
L 129.942083 118.699666 
L 130.383187 109.69984 
L 131.265395 115.244775 
L 131.706498 118.067278 
L 132.147602 113.639967 
L 132.588706 107.518455 
L 133.02981 109.50169 
L 133.470913 107.948612 
L 133.912017 111.813964 
L 134.353121 113.523622 
L 134.794224 113.588496 
L 135.235328 114.768764 
L 136.117536 105.215832 
L 136.558639 94.144032 
L 136.999743 97.555852 
L 137.440847 96.783807 
L 137.881951 105.103143 
L 138.323054 109.957234 
L 138.764158 103.314272 
L 139.205262 106.117545 
L 139.646366 112.422441 
L 140.087469 107.895038 
L 140.528573 109.608154 
L 140.969677 101.442906 
L 141.410781 115.083052 
L 141.851884 116.23358 
L 142.292988 116.889834 
L 142.734092 123.246096 
L 143.175196 115.796583 
L 143.616299 119.730306 
L 144.057403 120.400111 
L 144.498507 101.42123 
L 144.93961 108.109645 
L 145.380714 100.079305 
L 145.821818 104.899771 
L 146.262922 117.148481 
L 146.704025 103.642944 
L 147.145129 95.525501 
L 147.586233 115.969222 
L 148.027337 112.111251 
L 148.909544 92.723515 
L 150.232855 109.585764 
L 150.673959 109.866247 
L 151.115063 92.668802 
L 151.556167 127.851816 
L 151.99727 114.086687 
L 152.438374 114.072083 
L 152.879478 118.538404 
L 153.320581 118.404485 
L 153.761685 117.709595 
L 154.202789 126.947553 
L 154.643893 130.714323 
L 155.084996 121.912988 
L 155.5261 126.972064 
L 155.967204 127.73097 
L 156.408308 133.275851 
L 156.849411 132.137738 
L 157.290515 133.061321 
L 157.731619 132.059073 
L 158.172723 122.921703 
L 158.613826 116.719682 
L 159.05493 113.819186 
L 159.496034 124.54168 
L 159.937138 123.222882 
L 160.378241 117.32188 
L 160.819345 121.436003 
L 161.260449 127.883376 
L 161.701553 124.322875 
L 162.142656 123.316094 
L 162.58376 119.6057 
L 163.024864 121.597706 
L 163.465967 132.303161 
L 163.907071 126.614724 
L 164.348175 136.337028 
L 164.789279 139.238425 
L 165.230382 129.187556 
L 165.671486 125.854157 
L 166.11259 147.481903 
L 166.553694 137.867249 
L 166.994797 141.117625 
L 167.435901 125.321735 
L 168.318109 138.377916 
L 168.759212 138.408186 
L 169.200316 142.504796 
L 169.64142 144.616962 
L 170.082524 138.239443 
L 170.523627 141.496301 
L 170.964731 120.37331 
L 171.405835 120.980962 
L 171.846939 123.149971 
L 172.288042 115.475055 
L 172.729146 112.605865 
L 173.17025 128.211514 
L 173.611353 117.729883 
L 174.052457 128.029024 
L 174.493561 124.983654 
L 174.934665 133.989718 
L 175.375768 134.962995 
L 175.816872 144.704072 
L 176.257976 137.135371 
L 176.69908 142.430172 
L 177.140183 133.323572 
L 177.581287 131.426799 
L 178.022391 138.842165 
L 178.463495 125.145896 
L 178.904598 130.433179 
L 179.345702 138.504545 
L 179.786806 125.482255 
L 180.22791 132.900574 
L 180.669013 142.239568 
L 181.110117 127.465793 
L 181.551221 131.202646 
L 181.992325 118.362173 
L 182.433428 131.995013 
L 182.874532 137.839421 
L 183.315636 132.012807 
L 184.197843 139.179809 
L 184.638947 146.54802 
L 185.080051 134.49497 
L 186.403362 149.266597 
L 186.844466 145.309817 
L 187.285569 144.452313 
L 187.726673 158.52816 
L 188.167777 157.17846 
L 188.608881 149.807398 
L 189.049984 144.315939 
L 189.491088 143.257905 
L 189.932192 147.563027 
L 190.373296 134.435418 
L 190.814399 151.30221 
L 191.255503 155.616072 
L 191.696607 145.882028 
L 192.137711 147.738506 
L 192.578814 150.560865 
L 193.019918 144.104417 
L 193.461022 135.372893 
L 193.902125 131.087795 
L 194.343229 135.673074 
L 194.784333 124.988304 
L 195.66654 130.387988 
L 196.107644 131.213246 
L 196.548748 138.900613 
L 196.989852 134.112302 
L 197.430955 145.279167 
L 197.872059 138.425397 
L 198.313163 139.047639 
L 198.754267 133.02309 
L 199.19537 147.289554 
L 199.636474 138.492101 
L 200.077578 149.527014 
L 200.518682 145.296644 
L 201.400889 132.876314 
L 201.841993 131.425832 
L 202.283096 133.666236 
L 202.7242 128.464186 
L 203.165304 116.717843 
L 203.606408 130.05649 
L 204.047511 132.816725 
L 204.488615 133.323638 
L 204.929719 130.045701 
L 205.370823 138.668123 
L 205.811926 138.39518 
L 206.25303 128.868392 
L 206.694134 144.918514 
L 207.135238 134.082684 
L 207.576341 140.952785 
L 208.017445 117.543286 
L 208.458549 129.71559 
L 208.899653 132.539798 
L 209.340756 132.42392 
L 209.78186 114.794542 
L 210.664068 137.520854 
L 211.105171 131.687812 
L 211.546275 120.17527 
L 211.987379 118.787077 
L 212.428482 141.584702 
L 212.869586 138.997481 
L 213.31069 146.433779 
L 213.751794 140.735132 
L 214.192897 118.43287 
L 214.634001 122.117284 
L 215.075105 130.423407 
L 215.516209 128.891246 
L 215.957312 129.334802 
L 216.398416 129.269099 
L 216.83952 126.197039 
L 217.280624 125.329686 
L 217.721727 129.510553 
L 218.162831 136.951328 
L 218.603935 119.482314 
L 219.045039 127.330668 
L 219.486142 125.454751 
L 219.927246 122.614625 
L 220.36835 133.873825 
L 220.809454 129.060029 
L 221.250557 117.067093 
L 221.691661 112.674781 
L 222.132765 133.308138 
L 222.573868 122.821513 
L 223.014972 127.902947 
L 223.456076 126.650916 
L 223.89718 131.223359 
L 224.338283 137.41471 
L 224.779387 120.929312 
L 225.220491 127.561768 
L 225.661595 127.901002 
L 226.543802 135.289178 
L 226.984906 140.562586 
L 227.42601 141.307788 
L 227.867113 135.25836 
L 228.308217 139.189036 
L 228.749321 147.81611 
L 229.190425 159.762768 
L 229.631528 158.943313 
L 230.072632 145.837215 
L 230.513736 144.243977 
L 230.95484 156.884555 
L 231.395943 139.313707 
L 231.837047 146.226373 
L 232.278151 140.403645 
L 232.719254 141.936396 
L 233.160358 144.205767 
L 233.601462 162.214233 
L 234.042566 146.420159 
L 234.483669 156.081094 
L 234.924773 135.707771 
L 235.365877 147.258587 
L 235.806981 132.80659 
L 236.248084 139.505368 
L 236.689188 149.409146 
L 237.130292 137.994819 
L 237.571396 141.826609 
L 238.012499 132.410635 
L 238.453603 131.046161 
L 238.894707 150.226948 
L 239.335811 143.383434 
L 239.776914 141.801465 
L 240.218018 154.727862 
L 240.659122 141.196858 
L 241.100225 150.238319 
L 241.541329 142.692484 
L 241.982433 155.142104 
L 242.86464 141.477132 
L 243.305744 141.057792 
L 243.746848 134.035214 
L 244.187952 143.522086 
L 244.629055 145.887738 
L 245.070159 144.433624 
L 245.511263 132.490469 
L 245.952367 141.764712 
L 246.39347 137.188678 
L 246.834574 124.605262 
L 247.275678 131.714296 
L 247.716782 133.508252 
L 248.157885 130.050091 
L 249.040093 133.843674 
L 249.481197 132.870995 
L 249.9223 133.05091 
L 250.363404 127.420729 
L 250.804508 126.906323 
L 251.245611 131.339073 
L 251.686715 133.831616 
L 252.127819 138.517661 
L 252.568923 139.535445 
L 253.010026 133.889218 
L 253.45113 133.537973 
L 253.892234 144.74314 
L 254.333338 147.118262 
L 254.774441 139.298026 
L 255.215545 147.03045 
L 255.656649 147.803818 
L 256.097753 147.029923 
L 256.538856 143.453363 
L 256.97996 141.163289 
L 257.421064 151.510825 
L 257.862168 147.593876 
L 258.303271 145.482904 
L 258.744375 147.779244 
L 259.185479 149.426236 
L 259.626583 156.028092 
L 260.067686 153.91793 
L 260.50879 149.639343 
L 260.949894 154.024405 
L 261.390997 148.634385 
L 261.832101 147.042493 
L 262.273205 161.759473 
L 262.714309 158.292428 
L 263.155412 145.926603 
L 263.596516 158.46443 
L 264.03762 151.33567 
L 264.478724 153.164735 
L 264.919827 157.625155 
L 265.360931 160.902025 
L 265.802035 160.016497 
L 266.243139 149.944769 
L 266.684242 148.578828 
L 267.125346 149.417048 
L 267.56645 145.547613 
L 268.007554 144.378633 
L 268.448657 161.186807 
L 268.889761 160.351403 
L 269.330865 161.075597 
L 269.771969 153.124318 
L 270.213072 149.538634 
L 271.09528 133.550388 
L 271.536383 152.372404 
L 271.977487 148.125551 
L 272.418591 155.111506 
L 272.859695 168.108341 
L 273.300798 152.631927 
L 273.741902 150.547253 
L 274.183006 149.311473 
L 274.62411 149.874874 
L 275.065213 143.953149 
L 275.506317 158.323374 
L 275.947421 165.237407 
L 276.388525 140.93753 
L 276.829628 158.622466 
L 277.270732 154.492406 
L 277.711836 142.344075 
L 278.15294 145.529851 
L 278.594043 140.340188 
L 279.035147 149.283213 
L 279.476251 142.11189 
L 279.917354 132.069841 
L 280.358458 142.034601 
L 280.799562 139.148376 
L 281.240666 148.459908 
L 281.681769 137.924205 
L 282.122873 147.517588 
L 282.563977 145.214403 
L 283.005081 139.658608 
L 283.446184 151.517692 
L 283.887288 143.289704 
L 284.328392 145.389386 
L 284.769496 143.071007 
L 285.210599 165.271635 
L 285.651703 165.732383 
L 286.092807 162.244938 
L 286.533911 168.797881 
L 286.975014 165.771745 
L 287.416118 167.120203 
L 287.857222 163.658891 
L 288.298326 172.217676 
L 288.739429 175.092678 
L 289.180533 157.9042 
L 289.621637 152.432011 
L 290.06274 172.195857 
L 290.503844 160.767029 
L 290.944948 175.054211 
L 291.386052 161.109499 
L 291.827155 179.748583 
L 292.268259 153.914695 
L 292.709363 165.179804 
L 293.150467 163.85651 
L 294.032674 176.287681 
L 294.473778 157.216072 
L 294.914882 176.75105 
L 295.355985 180.52164 
L 295.797089 162.032955 
L 296.238193 158.812023 
L 296.679297 172.305748 
L 297.561504 144.601367 
L 298.002608 166.052515 
L 298.443712 157.893343 
L 298.884815 158.569764 
L 299.325919 168.627338 
L 299.767023 157.087257 
L 300.208126 172.796378 
L 300.64923 163.730096 
L 301.090334 158.356193 
L 301.531438 166.421022 
L 301.972541 176.821166 
L 302.413645 174.910867 
L 302.854749 162.847108 
L 303.295853 172.309648 
L 303.736956 171.002926 
L 304.17806 171.609784 
L 304.619164 159.42077 
L 305.501371 163.08901 
L 305.942475 177.201777 
L 306.383579 167.808033 
L 306.824683 167.443614 
L 307.265786 169.447913 
L 307.70689 172.183496 
L 308.147994 172.231223 
L 308.589098 174.473485 
L 309.030201 169.84381 
L 309.471305 160.639752 
L 309.912409 174.636283 
L 310.353512 164.797768 
L 310.794616 157.778357 
L 311.23572 160.287403 
L 311.676824 158.025305 
L 312.117927 173.092486 
L 312.559031 172.578188 
L 313.000135 164.898075 
L 313.441239 163.317778 
L 313.882342 153.695008 
L 314.323446 150.696106 
L 314.76455 171.92197 
L 315.205654 167.80692 
L 315.646757 174.683042 
L 316.087861 168.637331 
L 316.528965 171.509761 
L 316.970069 161.895422 
L 317.411172 163.772102 
L 317.852276 173.658102 
L 318.29338 159.499127 
L 318.734484 160.074483 
L 319.175587 150.89781 
L 319.616691 154.513933 
L 320.057795 167.758486 
L 320.498898 164.469393 
L 320.940002 165.183777 
L 321.381106 168.036226 
L 321.82221 166.369632 
L 322.263313 158.511415 
L 322.704417 160.306699 
L 323.145521 171.413017 
L 323.586625 171.195879 
L 324.027728 162.183363 
L 324.468832 164.480302 
L 325.35104 175.725482 
L 325.792143 171.89352 
L 326.233247 173.236851 
L 326.674351 183.586647 
L 327.115455 177.352769 
L 327.556558 172.880022 
L 327.997662 184.881161 
L 328.438766 163.982468 
L 328.879869 170.546746 
L 329.320973 178.837401 
L 330.203181 163.305987 
L 330.644284 166.066151 
L 331.085388 173.014375 
L 331.526492 172.987112 
L 331.967596 170.734415 
L 332.408699 170.524226 
L 332.849803 165.1428 
L 333.290907 167.768442 
L 333.732011 180.555698 
L 334.173114 171.685791 
L 334.614218 176.344954 
L 335.055322 169.348534 
L 335.496426 177.064189 
L 335.937529 178.248472 
L 336.378633 184.108617 
L 336.819737 171.109023 
L 337.260841 177.47056 
L 337.701944 175.932036 
L 338.584152 164.123018 
L 339.025255 164.315004 
L 339.466359 176.938674 
L 339.907463 155.295594 
L 340.348567 169.607189 
L 340.78967 169.309231 
L 341.230774 176.351111 
L 341.671878 163.121127 
L 342.112982 171.547711 
L 342.554085 159.176326 
L 342.995189 164.603224 
L 343.877397 180.428237 
L 344.3185 175.403253 
L 344.759604 167.083049 
L 345.200708 178.664567 
L 345.641812 177.75292 
L 346.082915 159.528926 
L 346.524019 170.827066 
L 346.965123 175.360848 
L 347.406227 169.646038 
L 347.84733 167.145433 
L 348.288434 174.090577 
L 348.729538 176.628347 
L 349.170641 173.284507 
L 349.611745 165.880073 
L 350.493953 169.25261 
L 350.935056 174.549968 
L 351.37616 164.360146 
L 351.817264 165.142663 
L 352.258368 181.651218 
L 352.699471 168.753746 
L 353.140575 165.796201 
L 353.581679 170.750389 
L 354.022783 168.566096 
L 355.346094 179.306567 
L 355.787198 173.922156 
L 356.228301 175.550542 
L 356.669405 179.723902 
L 357.110509 172.887266 
L 357.551613 178.922158 
L 357.992716 159.129108 
L 358.43382 183.700706 
L 358.874924 172.389714 
L 359.316027 175.93276 
L 359.757131 180.927991 
L 360.198235 173.866391 
L 360.639339 170.929173 
L 361.080442 173.722838 
L 361.521546 181.490668 
L 361.96265 182.46971 
L 362.403754 175.548244 
L 362.844857 180.095679 
L 363.285961 174.966976 
L 363.727065 178.437168 
L 364.168169 179.184764 
L 364.609272 178.203751 
L 365.050376 189.824562 
L 365.49148 188.905393 
L 365.932584 169.473392 
L 366.373687 193.61034 
L 366.814791 184.296432 
L 367.255895 178.435864 
L 367.696998 183.796832 
L 368.138102 171.161341 
L 368.579206 174.029323 
L 369.02031 161.250069 
L 369.461413 180.19244 
L 369.902517 168.230191 
L 370.343621 173.862757 
L 370.784725 176.216147 
L 371.225828 171.302539 
L 371.666932 181.464808 
L 372.54914 170.620905 
L 372.990243 176.24939 
L 373.431347 183.952871 
L 373.872451 169.518318 
L 374.313555 183.073287 
L 374.754658 178.738062 
L 375.195762 179.526182 
L 375.636866 180.555749 
L 376.07797 175.527819 
L 376.519073 168.175948 
L 376.960177 181.640212 
L 377.401281 167.262393 
L 377.842384 177.392495 
L 378.283488 181.956389 
L 378.724592 167.276301 
L 379.165696 171.839787 
L 380.047903 164.609118 
L 380.489007 154.131499 
L 380.930111 164.067506 
L 381.371214 166.145349 
L 381.812318 167.218709 
L 382.253422 179.470153 
L 382.694526 176.432057 
L 383.576733 182.257064 
L 384.017837 174.088773 
L 384.458941 180.553091 
L 384.900044 173.217691 
L 385.341148 181.736193 
L 385.782252 169.186985 
L 386.223356 180.865386 
L 386.664459 163.663102 
L 387.105563 182.057327 
L 387.546667 181.443538 
L 387.98777 168.524837 
L 388.428874 185.964185 
L 388.869978 180.656422 
L 389.752185 191.851898 
L 390.193289 182.338237 
L 390.634393 189.615153 
L 391.075497 168.701613 
L 391.5166 178.953167 
L 391.957704 194.093505 
L 392.398808 165.476585 
L 393.281015 180.568373 
L 393.722119 178.31995 
L 394.163223 179.556804 
L 394.604327 176.88985 
L 395.04543 179.657595 
L 395.486534 180.210279 
L 395.927638 179.172233 
L 396.368742 186.527094 
L 396.809845 157.563959 
L 397.250949 174.410056 
L 397.692053 176.563516 
L 398.133156 170.627489 
L 398.57426 169.086025 
L 399.015364 178.282845 
L 399.456468 176.013786 
L 399.897571 172.059926 
L 400.338675 173.717573 
L 400.779779 170.454284 
L 401.220883 177.001319 
L 401.661986 169.33862 
L 402.10309 180.527637 
L 402.544194 173.313263 
L 402.985298 162.126762 
L 403.426401 170.419417 
L 403.867505 159.851219 
L 404.308609 172.223967 
L 404.749713 172.24966 
L 405.190816 174.156329 
L 405.63192 184.625369 
L 406.073024 178.948832 
L 406.514127 176.600673 
L 406.955231 169.350061 
L 407.396335 169.879584 
L 408.719646 160.523945 
L 409.16075 159.728169 
L 409.601854 164.959938 
L 410.042957 151.816022 
L 410.484061 167.198004 
L 410.925165 149.964121 
L 411.366269 164.994997 
L 411.807372 169.725424 
L 412.248476 163.783985 
L 412.68958 177.078337 
L 413.130684 168.756444 
L 413.571787 166.1067 
L 414.012891 171.348381 
L 414.453995 160.918262 
L 414.895099 167.078456 
L 415.336202 161.083643 
L 415.777306 161.90307 
L 416.21841 159.366509 
L 416.659513 174.235664 
L 417.100617 178.983917 
L 417.541721 165.487443 
L 417.982825 169.884345 
L 418.423928 163.268549 
L 418.865032 162.149339 
L 419.306136 167.07693 
L 419.74724 166.201455 
L 420.188343 177.538392 
L 420.629447 165.149121 
L 421.070551 169.917398 
L 421.511655 167.047136 
L 421.952758 155.43204 
L 422.393862 173.866188 
L 422.834966 163.490852 
L 423.717173 177.719964 
L 424.158277 170.399251 
L 424.599381 187.884305 
L 425.040485 173.689639 
L 425.481588 177.923212 
L 425.922692 166.014742 
L 426.363796 184.960012 
L 426.804899 178.790573 
L 427.246003 167.116912 
L 428.128211 178.506205 
L 428.569314 162.15974 
L 429.010418 174.479426 
L 429.451522 169.088368 
L 429.892626 174.221856 
L 430.333729 170.026496 
L 430.774833 162.745882 
L 431.215937 177.656036 
L 431.657041 181.096059 
L 432.098144 177.693598 
L 432.539248 168.871739 
L 433.421456 175.047819 
L 433.862559 177.038892 
L 434.303663 177.638873 
L 434.744767 174.82492 
L 435.185871 168.802335 
L 435.626974 171.391968 
L 436.068078 172.781015 
L 436.509182 180.074821 
L 436.950285 161.243459 
L 437.391389 178.176611 
L 437.832493 175.086532 
L 438.273597 164.08185 
L 438.7147 155.874056 
L 439.155804 182.197936 
L 439.596908 161.179901 
L 440.038012 164.322129 
L 440.479115 178.370196 
L 440.920219 158.404565 
L 441.361323 173.943452 
L 441.802427 158.495497 
L 442.684634 171.267585 
L 443.125738 177.875193 
L 443.566842 176.167495 
L 444.007945 163.509206 
L 444.449049 185.667555 
L 444.890153 172.942409 
L 445.331257 167.691354 
L 445.77236 178.770481 
L 446.213464 178.352205 
L 446.654568 170.435003 
L 447.095671 171.74548 
L 447.536775 181.98217 
L 447.977879 166.515276 
L 448.418983 168.195173 
L 448.860086 163.820637 
L 449.30119 177.234491 
L 449.742294 161.342739 
L 450.183398 172.69789 
L 450.624501 175.131471 
L 451.065605 159.860941 
L 451.506709 178.027758 
L 451.947813 147.514366 
L 452.388916 173.466241 
L 452.83002 173.747772 
L 453.271124 181.184182 
L 453.712228 163.892777 
L 454.153331 175.141201 
L 454.594435 174.426003 
L 455.035539 181.171905 
L 455.476642 168.503629 
L 455.917746 165.513101 
L 456.35885 172.363389 
L 456.799954 174.5439 
L 457.241057 171.559634 
L 457.682161 172.850204 
L 458.123265 170.886238 
L 458.564369 178.196756 
L 459.005472 164.444802 
L 459.446576 168.421818 
L 459.88768 155.959446 
L 460.328784 148.264297 
L 460.769887 161.4547 
L 461.210991 153.893478 
L 461.652095 161.56517 
L 462.093199 164.528418 
L 462.534302 146.672851 
L 462.975406 137.160219 
L 463.41651 158.021788 
L 463.857614 157.780623 
L 464.298717 167.585409 
L 464.739821 159.681195 
L 465.180925 169.500428 
L 465.622028 154.087082 
L 466.063132 159.721896 
L 466.504236 172.180678 
L 466.94534 158.836151 
L 467.386443 155.278463 
L 467.827547 164.266464 
L 468.268651 160.90278 
L 468.709755 155.025738 
L 469.150858 164.648627 
L 469.591962 168.422158 
L 470.033066 168.547759 
L 470.47417 164.544227 
L 470.915273 150.81797 
L 471.356377 154.790128 
L 471.797481 168.607484 
L 472.238585 148.839251 
L 472.679688 166.600785 
L 473.120792 149.523582 
L 473.561896 166.011574 
L 474.003 158.793474 
L 474.444103 163.175141 
L 474.885207 162.677057 
L 475.326311 163.924881 
L 475.767414 164.468777 
L 476.208518 169.022783 
L 476.649622 154.696198 
L 477.090726 159.837389 
L 477.531829 152.911681 
L 477.972933 148.162823 
L 478.414037 150.119966 
L 479.296244 164.621375 
L 479.737348 161.043951 
L 480.178452 149.396859 
L 481.060659 153.557004 
L 481.501763 173.605669 
L 481.942867 153.892142 
L 482.383971 168.041658 
L 482.825074 164.873083 
L 483.266178 168.393072 
L 483.707282 153.508574 
L 484.148386 162.42472 
L 484.589489 162.056506 
L 485.030593 173.236995 
L 485.471697 175.062076 
L 485.9128 161.346267 
L 486.353904 153.279336 
L 486.795008 172.037584 
L 487.236112 166.250823 
L 487.677215 169.360339 
L 488.118319 185.226818 
L 488.559423 173.641438 
L 489.000527 184.824815 
L 490.323838 158.024039 
L 490.764942 164.690824 
L 491.206045 177.827007 
L 491.647149 166.155419 
L 492.088253 182.240822 
L 492.529357 159.329779 
L 492.97046 180.261712 
L 493.411564 175.867762 
L 493.852668 186.745026 
L 494.293771 170.173633 
L 494.734875 172.424337 
L 495.175979 145.149003 
L 495.617083 170.159007 
L 496.058186 169.513217 
L 496.49929 182.538651 
L 496.940394 154.989198 
L 497.381498 174.073218 
L 497.822601 174.230491 
L 498.263705 178.763659 
L 498.704809 178.827489 
L 499.145913 161.991469 
L 499.587016 157.859311 
L 500.02812 157.734221 
L 500.469224 163.723643 
L 500.910328 161.585668 
L 501.351431 167.303161 
L 501.792535 161.048012 
L 502.233639 158.525938 
L 502.674743 162.89154 
L 503.115846 174.529997 
L 503.55695 164.839859 
L 503.998054 162.885294 
L 504.439157 171.790421 
L 504.880261 167.20363 
L 505.321365 166.068255 
L 505.762469 151.099787 
L 506.203572 154.843613 
L 506.644676 173.221026 
L 507.08578 159.667514 
L 507.526884 152.834568 
L 507.967987 174.84086 
L 508.409091 157.966709 
L 509.291299 165.855317 
L 509.732402 157.129485 
L 510.173506 171.509497 
L 510.61461 157.123875 
L 511.055714 182.50701 
L 511.496817 153.604379 
L 511.937921 148.640456 
L 512.379025 154.466932 
L 512.820129 153.984998 
L 513.261232 164.866699 
L 513.702336 168.155657 
L 514.14344 173.341208 
L 514.584543 169.954469 
L 515.025647 173.6389 
L 515.466751 174.57218 
L 515.907855 170.903499 
L 516.348958 169.925104 
L 516.790062 171.976272 
L 517.231166 172.916571 
L 517.67227 174.601634 
L 518.113373 166.542819 
L 518.554477 165.413846 
L 519.436685 182.557474 
L 519.877788 193.178532 
L 520.318892 183.844985 
L 520.759996 181.421684 
L 521.2011 169.265709 
L 521.642203 178.96884 
L 522.083307 170.744441 
L 522.524411 172.886101 
L 522.965515 182.986715 
L 523.406618 185.58925 
L 523.847722 169.33114 
L 524.288826 178.378131 
L 524.729929 171.708441 
L 525.171033 171.355252 
L 525.612137 172.173786 
L 526.053241 159.746901 
L 526.494344 167.535279 
L 526.935448 151.147481 
L 527.376552 152.676741 
L 527.817656 158.577921 
L 528.258759 161.088707 
L 528.699863 153.615747 
L 528.699863 153.615747 
" clip-path="url(#p218e86c07d)" style="fill: none; stroke: #000000; stroke-width: 0.7; stroke-linecap: round"/>
   </g>
   <g id="line2d_18">
    <path d="M 109.210208 90.143669 
L 109.651311 90.385355 
L 110.533519 91.554321 
L 110.974623 91.77603 
L 111.85683 92.929398 
L 113.180141 95.033926 
L 114.944556 98.985881 
L 115.38566 99.358621 
L 115.826764 99.928303 
L 116.267867 100.681155 
L 116.708971 101.06527 
L 117.150075 101.829509 
L 117.591179 102.135892 
L 118.473386 103.394284 
L 118.91449 103.759562 
L 119.355594 104.331022 
L 120.237801 104.831586 
L 120.678905 104.988177 
L 121.120009 104.701326 
L 121.561112 104.939892 
L 122.002216 105.051755 
L 122.884424 105.496361 
L 123.325527 105.623553 
L 123.766631 105.958716 
L 124.648838 105.969245 
L 125.531046 106.390603 
L 125.97215 107.035885 
L 126.413253 107.001789 
L 127.295461 107.593389 
L 127.736565 107.487694 
L 128.177668 107.267222 
L 129.059876 107.401505 
L 129.942083 107.876931 
L 130.383187 108.010996 
L 132.147602 109.006888 
L 132.588706 109.029234 
L 133.02981 109.211616 
L 133.470913 109.107288 
L 134.794224 109.743882 
L 135.235328 110.060665 
L 135.676432 109.864732 
L 136.117536 109.544349 
L 136.999743 108.612614 
L 137.881951 108.359283 
L 138.764158 108.127316 
L 139.205262 108.116423 
L 139.646366 108.364381 
L 140.969677 108.008918 
L 141.410781 107.919996 
L 141.851884 108.263745 
L 142.292988 108.438081 
L 143.175196 109.218698 
L 144.057403 109.493552 
L 144.498507 109.185908 
L 144.93961 109.131857 
L 145.821818 108.759385 
L 146.262922 108.953128 
L 146.704025 108.946741 
L 147.145129 108.824053 
L 148.027337 108.994269 
L 148.46844 108.960853 
L 148.909544 108.547326 
L 149.350648 108.380755 
L 150.673959 108.741966 
L 151.115063 108.590732 
L 151.556167 108.969118 
L 151.99727 108.876858 
L 154.202789 109.413153 
L 154.643893 109.87707 
L 155.084996 110.125296 
L 159.05493 113.533333 
L 159.496034 114.088491 
L 159.937138 114.450885 
L 160.378241 114.598178 
L 162.142656 115.942359 
L 162.58376 116.14231 
L 163.465967 116.889808 
L 163.907071 117.097431 
L 164.789279 117.806222 
L 165.230382 118.074041 
L 165.671486 118.196518 
L 166.11259 118.738154 
L 166.994797 120.127234 
L 168.759212 122.299906 
L 169.200316 123.239491 
L 171.846939 126.521444 
L 172.729146 126.694022 
L 173.17025 127.404876 
L 173.611353 127.202437 
L 175.375768 128.339712 
L 175.816872 128.879602 
L 178.022391 129.857205 
L 178.463495 129.694606 
L 178.904598 129.660515 
L 179.345702 129.769379 
L 179.786806 129.637843 
L 180.22791 129.83742 
L 180.669013 130.347818 
L 181.110117 130.62075 
L 181.551221 130.75397 
L 181.992325 130.656755 
L 182.874532 131.278286 
L 183.315636 131.360875 
L 184.197843 131.903705 
L 184.638947 132.442551 
L 186.403362 133.453933 
L 186.844466 133.575361 
L 187.285569 133.880656 
L 187.726673 134.534136 
L 189.491088 135.38956 
L 189.932192 135.694896 
L 190.373296 135.616046 
L 191.255503 136.136152 
L 191.696607 136.161453 
L 192.578814 136.532726 
L 193.019918 137.007348 
L 194.784333 138.105552 
L 195.225437 138.099468 
L 195.66654 138.35263 
L 196.107644 138.416314 
L 196.548748 138.694653 
L 196.989852 138.697105 
L 197.430955 138.903429 
L 197.872059 138.777855 
L 198.313163 138.8161 
L 198.754267 138.627959 
L 199.19537 138.907278 
L 200.077578 139.262281 
L 200.518682 139.665296 
L 200.959785 139.842253 
L 201.400889 139.729689 
L 202.283096 139.863873 
L 203.165304 139.373407 
L 203.606408 139.350484 
L 204.047511 139.639575 
L 204.488615 139.666147 
L 204.929719 139.510273 
L 205.811926 139.69927 
L 206.25303 139.493042 
L 207.576341 139.477475 
L 208.458549 138.557904 
L 209.340756 138.061936 
L 209.78186 137.187263 
L 210.222964 136.590995 
L 211.105171 136.092702 
L 211.987379 135.05553 
L 212.428482 135.198516 
L 213.31069 134.768775 
L 213.751794 134.665837 
L 214.634001 133.510853 
L 215.075105 133.237233 
L 216.398416 132.94446 
L 217.280624 132.917083 
L 217.721727 132.899534 
L 218.162831 133.014296 
L 218.603935 132.62593 
L 219.045039 132.490297 
L 219.927246 131.777593 
L 220.809454 131.594856 
L 221.691661 130.47406 
L 223.014972 129.472618 
L 223.456076 129.34811 
L 224.779387 129.268333 
L 225.220491 129.485211 
L 226.543802 129.453997 
L 226.984906 129.664335 
L 227.42601 129.717128 
L 227.867113 129.654392 
L 228.308217 129.860805 
L 228.749321 129.918757 
L 230.072632 131.358047 
L 230.513736 131.648615 
L 230.95484 132.13551 
L 231.395943 132.273306 
L 231.837047 132.901943 
L 232.278151 133.162715 
L 232.719254 133.251026 
L 233.160358 133.501385 
L 233.601462 134.342164 
L 234.042566 134.894826 
L 234.483669 135.184753 
L 235.806981 134.976885 
L 237.130292 136.0956 
L 237.571396 136.354307 
L 238.453603 136.451365 
L 239.335811 137.293038 
L 240.218018 137.894387 
L 242.423537 140.078822 
L 242.86464 140.327164 
L 243.746848 141.234187 
L 244.187952 141.438466 
L 245.070159 142.230404 
L 247.716782 142.822216 
L 248.598989 142.725 
L 250.363404 142.14237 
L 251.245611 141.155701 
L 251.686715 140.653467 
L 252.568923 140.412905 
L 253.010026 139.952998 
L 253.892234 139.807819 
L 254.333338 139.942111 
L 255.215545 139.945838 
L 255.656649 139.657629 
L 256.097753 139.669825 
L 256.538856 139.41727 
L 257.421064 139.611425 
L 257.862168 139.907171 
L 258.303271 140.026722 
L 258.744375 139.994124 
L 259.626583 140.506782 
L 260.50879 141.308791 
L 261.832101 141.59458 
L 262.273205 141.735212 
L 262.714309 142.077123 
L 263.155412 141.990889 
L 263.596516 142.306328 
L 264.03762 142.230199 
L 264.478724 142.319331 
L 265.360931 143.039176 
L 265.802035 143.558801 
L 268.007554 144.154167 
L 268.448657 144.634129 
L 269.330865 145.936278 
L 270.213072 146.71837 
L 270.654176 146.89973 
L 271.09528 146.893865 
L 272.418591 148.139201 
L 272.859695 148.963242 
L 273.741902 149.723411 
L 275.065213 150.347355 
L 275.947421 151.252948 
L 276.388525 151.129334 
L 276.829628 151.515822 
L 277.270732 151.665061 
L 278.15294 151.525865 
L 278.594043 151.463602 
L 279.035147 151.626 
L 279.476251 151.438021 
L 279.917354 151.127541 
L 281.240666 150.866631 
L 281.681769 150.504553 
L 282.563977 150.288047 
L 283.005081 150.000731 
L 283.446184 150.058398 
L 283.887288 149.983342 
L 284.769496 149.351512 
L 285.210599 149.738412 
L 286.092807 150.101957 
L 286.533911 150.41462 
L 287.416118 150.701915 
L 287.857222 150.774763 
L 288.739429 151.750498 
L 289.621637 152.057929 
L 290.06274 152.614273 
L 290.503844 152.605878 
L 290.944948 152.899934 
L 291.386052 152.900612 
L 291.827155 153.433097 
L 292.268259 153.520619 
L 294.032674 155.517069 
L 294.473778 155.55916 
L 294.914882 155.732014 
L 295.355985 156.289809 
L 296.238193 156.709534 
L 297.1204 157.46912 
L 297.561504 157.19468 
L 298.002608 157.210982 
L 298.443712 157.550098 
L 298.884815 157.549044 
L 299.767023 158.126606 
L 300.64923 159.139735 
L 301.090334 159.321195 
L 301.531438 159.807377 
L 302.413645 161.359929 
L 303.295853 162.310898 
L 304.17806 163.454317 
L 304.619164 163.738444 
L 305.060268 164.17195 
L 305.501371 164.403377 
L 305.942475 165.081618 
L 306.824683 166.017443 
L 307.70689 166.229991 
L 308.589098 166.543229 
L 309.030201 166.62467 
L 309.471305 166.495061 
L 309.912409 166.714609 
L 310.353512 166.566211 
L 310.794616 166.219924 
L 312.117927 166.397387 
L 312.559031 166.63361 
L 313.000135 166.430487 
L 313.441239 166.474653 
L 313.882342 165.953581 
L 314.323446 165.88921 
L 315.646757 166.20794 
L 316.087861 166.054933 
L 316.528965 166.340807 
L 317.411172 165.708703 
L 317.852276 165.941206 
L 318.29338 165.954948 
L 319.175587 165.538248 
L 319.616691 165.736499 
L 320.498898 165.90214 
L 320.940002 166.03442 
L 321.381106 166.022598 
L 321.82221 166.208245 
L 322.263313 165.922546 
L 322.704417 165.854078 
L 323.145521 166.115214 
L 323.586625 166.210712 
L 324.468832 165.709344 
L 325.35104 165.912293 
L 326.233247 165.962646 
L 327.115455 166.766341 
L 327.997662 167.115749 
L 328.438766 167.039238 
L 328.879869 167.1013 
L 329.320973 167.28909 
L 329.762077 167.280575 
L 330.644284 166.933924 
L 331.085388 166.997335 
L 331.526492 167.244282 
L 331.967596 167.166245 
L 333.290907 167.577684 
L 333.732011 168.028292 
L 334.614218 168.075493 
L 335.055322 168.164502 
L 335.496426 168.43943 
L 335.937529 168.9305 
L 336.378633 169.59875 
L 336.819737 169.582491 
L 337.260841 169.775764 
L 338.143048 169.823898 
L 338.584152 169.676163 
L 339.025255 169.724554 
L 339.466359 169.987886 
L 339.907463 169.620636 
L 340.78967 170.007492 
L 341.230774 170.516558 
L 342.112982 170.764486 
L 342.995189 170.647014 
L 343.436293 170.722806 
L 344.759604 171.477342 
L 345.641812 171.753514 
L 346.082915 171.700425 
L 346.965123 171.943003 
L 347.84733 171.726453 
L 348.288434 171.743527 
L 349.611745 171.382997 
L 350.052849 171.037824 
L 350.935056 171.223291 
L 351.37616 170.933746 
L 351.817264 170.801444 
L 352.258368 171.168349 
L 352.699471 171.222101 
L 353.581679 171.033003 
L 354.463886 171.021534 
L 355.346094 171.476465 
L 355.787198 171.343794 
L 357.551613 171.596602 
L 357.992716 171.214215 
L 359.316027 171.200914 
L 361.521546 171.79758 
L 361.96265 172.341063 
L 363.285961 172.64793 
L 363.727065 172.954251 
L 364.168169 173.106992 
L 365.49148 174.333558 
L 365.932584 174.114461 
L 366.814791 174.822871 
L 367.255895 174.818296 
L 368.579206 175.235868 
L 369.02031 174.953653 
L 369.461413 175.164581 
L 370.784725 175.173475 
L 371.225828 175.133836 
L 372.108036 175.626058 
L 372.990243 175.687413 
L 373.431347 176.079267 
L 374.754658 176.394908 
L 375.636866 176.865615 
L 376.07797 177.004849 
L 376.519073 176.925986 
L 376.960177 177.031766 
L 377.401281 176.790882 
L 378.283488 176.988406 
L 378.724592 176.739454 
L 379.165696 176.718504 
L 379.606799 176.511098 
L 380.047903 176.620698 
L 380.489007 176.029314 
L 381.371214 175.667122 
L 381.812318 175.392936 
L 383.576733 175.737256 
L 384.017837 175.569637 
L 384.458941 175.669734 
L 384.900044 175.532174 
L 385.341148 175.667559 
L 385.782252 175.482555 
L 386.223356 175.516167 
L 386.664459 175.225354 
L 387.546667 174.920772 
L 387.98777 174.901801 
L 388.869978 174.676078 
L 390.193289 175.218157 
L 390.634393 175.529874 
L 391.075497 175.678905 
L 391.5166 175.654119 
L 391.957704 176.171386 
L 392.398808 176.003662 
L 392.839912 175.955119 
L 393.281015 176.140436 
L 393.722119 176.077539 
L 396.368742 176.516543 
L 396.809845 176.093061 
L 398.133156 175.812887 
L 399.897571 175.832318 
L 400.338675 175.667541 
L 401.661986 175.850067 
L 402.544194 176.552073 
L 402.985298 176.513258 
L 403.426401 176.598739 
L 405.190816 176.124629 
L 406.514127 176.190148 
L 406.955231 176.112795 
L 407.396335 175.875663 
L 407.837439 175.828477 
L 408.278542 175.4719 
L 408.719646 175.409117 
L 409.601854 174.632862 
L 410.484061 173.923362 
L 411.366269 172.883259 
L 412.248476 172.069644 
L 412.68958 171.818908 
L 413.130684 171.820005 
L 413.571787 171.563075 
L 414.012891 171.108173 
L 414.895099 170.882795 
L 416.21841 169.760957 
L 417.100617 169.6944 
L 418.423928 168.749014 
L 418.865032 168.840722 
L 419.74724 168.486818 
L 420.188343 168.625036 
L 421.070551 168.378989 
L 421.511655 168.199656 
L 421.952758 167.867099 
L 422.393862 167.870071 
L 423.27607 167.599243 
L 423.717173 167.76687 
L 424.158277 167.564302 
L 425.040485 168.086981 
L 426.804899 168.745866 
L 428.569314 168.074905 
L 429.010418 168.177492 
L 429.451522 168.161668 
L 431.215937 168.852346 
L 431.657041 169.175069 
L 432.098144 169.69262 
L 432.539248 169.726095 
L 432.980352 170.16565 
L 434.303663 170.790074 
L 435.185871 170.745924 
L 436.068078 170.880282 
L 436.509182 171.263413 
L 436.950285 171.146713 
L 437.832493 171.752241 
L 438.273597 171.846548 
L 438.7147 171.479316 
L 439.155804 171.543596 
L 440.038012 171.346201 
L 440.479115 171.648234 
L 440.920219 171.573339 
L 441.361323 171.710669 
L 442.24353 171.320533 
L 443.566842 171.784466 
L 445.331257 172.316427 
L 445.77236 172.337437 
L 446.213464 172.496497 
L 446.654568 172.14751 
L 447.095671 172.108627 
L 447.977879 172.199817 
L 448.860086 171.565122 
L 449.30119 171.767473 
L 450.183398 171.418157 
L 450.624501 171.677591 
L 451.065605 171.385221 
L 451.506709 171.564009 
L 451.947813 171.029859 
L 452.388916 171.098654 
L 452.83002 171.318692 
L 453.271124 171.389255 
L 453.712228 171.045189 
L 454.153331 170.994142 
L 455.035539 171.289827 
L 456.799954 170.817297 
L 457.682161 170.901608 
L 459.446576 170.695082 
L 460.328784 169.996189 
L 460.769887 170.107802 
L 461.210991 169.541713 
L 462.093199 169.553544 
L 462.534302 168.919597 
L 463.41651 168.176277 
L 464.298717 168.198937 
L 465.180925 167.799714 
L 465.622028 167.358105 
L 466.063132 167.282359 
L 469.591962 165.121847 
L 470.033066 165.162497 
L 470.47417 165.089478 
L 470.915273 164.829424 
L 471.356377 164.380537 
L 471.797481 164.525832 
L 472.238585 164.048659 
L 473.561896 163.430975 
L 474.003 163.656557 
L 474.885207 163.229321 
L 475.326311 162.884135 
L 475.767414 162.895655 
L 476.208518 162.773286 
L 478.855141 160.491966 
L 479.737348 160.117076 
L 481.060659 158.936381 
L 481.501763 159.040058 
L 481.942867 158.998712 
L 482.383971 159.394259 
L 482.825074 159.462627 
L 483.266178 159.752619 
L 483.707282 159.591487 
L 484.148386 159.549413 
L 484.589489 159.857086 
L 485.030593 160.578622 
L 485.471697 160.919427 
L 485.9128 160.99074 
L 486.353904 160.704619 
L 486.795008 160.951746 
L 487.236112 160.886754 
L 487.677215 161.19222 
L 488.118319 161.702318 
L 488.559423 161.731533 
L 489.44163 162.65695 
L 490.764942 162.845117 
L 491.206045 163.108685 
L 491.647149 163.06335 
L 492.088253 163.337211 
L 492.529357 163.232923 
L 493.411564 164.24335 
L 494.293771 165.032789 
L 494.734875 165.14926 
L 495.175979 165.061768 
L 495.617083 165.144717 
L 496.058186 165.359111 
L 496.49929 165.746382 
L 496.940394 165.592625 
L 498.263705 166.185643 
L 498.704809 166.668269 
L 499.587016 166.810303 
L 500.910328 167.370961 
L 502.233639 167.607259 
L 502.674743 167.834306 
L 503.115846 168.253766 
L 503.55695 168.07845 
L 504.439157 168.333288 
L 505.321365 168.333403 
L 506.203572 168.133605 
L 506.644676 168.356895 
L 507.08578 168.085506 
L 507.526884 167.640955 
L 507.967987 167.910847 
L 508.409091 168.004595 
L 508.850195 167.811521 
L 509.291299 167.803611 
L 511.496817 166.468815 
L 511.937921 166.103854 
L 512.379025 166.032712 
L 513.261232 165.559389 
L 513.702336 165.599394 
L 514.14344 165.421401 
L 514.584543 165.633895 
L 516.348958 165.153726 
L 516.790062 165.144765 
L 517.231166 165.700116 
L 517.67227 165.788969 
L 518.113373 165.729561 
L 518.554477 165.387065 
L 518.995581 165.755388 
L 519.436685 165.925073 
L 519.877788 166.304034 
L 521.2011 166.603029 
L 521.642203 167.02522 
L 522.965515 167.896694 
L 523.406618 168.262416 
L 523.847722 168.428078 
L 524.288826 168.825122 
L 524.729929 169.00146 
L 525.171033 168.937965 
L 525.612137 169.084644 
L 526.494344 168.936773 
L 527.376552 168.34782 
L 528.258759 168.622284 
L 528.699863 168.230179 
L 528.699863 168.230179 
" clip-path="url(#p218e86c07d)" style="fill: none; stroke-dasharray: 2.96,1.28; stroke-dashoffset: 0; stroke: #ff0000; stroke-width: 0.8"/>
   </g>
   <g id="patch_3">
    <path d="M 65.540937 200.648125 
L 65.540937 56.44648 
" style="fill: none; stroke: #ffffff; stroke-width: 1.25; stroke-linejoin: miter; stroke-linecap: square"/>
   </g>
   <g id="patch_4">
    <path d="M 550.75505 200.648125 
L 550.75505 56.44648 
" style="fill: none; stroke: #ffffff; stroke-width: 1.25; stroke-linejoin: miter; stroke-linecap: square"/>
   </g>
   <g id="patch_5">
    <path d="M 65.540938 200.648125 
L 550.75505 200.648125 
" style="fill: none; stroke: #ffffff; stroke-width: 1.25; stroke-linejoin: miter; stroke-linecap: square"/>
   </g>
   <g id="patch_6">
    <path d="M 65.540938 56.44648 
L 550.75505 56.44648 
" style="fill: none; stroke: #ffffff; stroke-width: 1.25; stroke-linejoin: miter; stroke-linecap: square"/>
   </g>
   <g id="legend_1">
    <g id="patch_7">
     <path d="M 478.915363 196.148125 
L 544.45505 196.148125 
Q 546.25505 196.148125 546.25505 194.348125 
L 546.25505 168.8275 
Q 546.25505 167.0275 544.45505 167.0275 
L 478.915363 167.0275 
Q 477.115363 167.0275 477.115363 168.8275 
L 477.115363 194.348125 
Q 477.115363 196.148125 478.915363 196.148125 
z
" style="fill: #eaeaf2; opacity: 0.8; stroke: #cccccc; stroke-linejoin: miter"/>
    </g>
    <g id="line2d_19">
     <path d="M 480.715363 174.316094 
L 489.715363 174.316094 
L 498.715363 174.316094 
" style="fill: none; stroke: #000000; stroke-width: 0.7; stroke-linecap: round"/>
    </g>
    <g id="text_19">
     <!-- TDC -->
     <g style="fill: #262626" transform="translate(505.915363 177.466094)scale(0.09 -0.09)">
      <defs>
       <path id="DejaVuSans-54" d="M -19 4666 
L 3928 4666 
L 3928 4134 
L 2272 4134 
L 2272 0 
L 1638 0 
L 1638 4134 
L -19 4134 
L -19 4666 
z
" transform="scale(0.015625)"/>
       <path id="DejaVuSans-44" d="M 1259 4147 
L 1259 519 
L 2022 519 
Q 2988 519 3436 956 
Q 3884 1394 3884 2338 
Q 3884 3275 3436 3711 
Q 2988 4147 2022 4147 
L 1259 4147 
z
M 628 4666 
L 1925 4666 
Q 3281 4666 3915 4102 
Q 4550 3538 4550 2338 
Q 4550 1131 3912 565 
Q 3275 0 1925 0 
L 628 0 
L 628 4666 
z
" transform="scale(0.015625)"/>
       <path id="DejaVuSans-43" d="M 4122 4306 
L 4122 3641 
Q 3803 3938 3442 4084 
Q 3081 4231 2675 4231 
Q 1875 4231 1450 3742 
Q 1025 3253 1025 2328 
Q 1025 1406 1450 917 
Q 1875 428 2675 428 
Q 3081 428 3442 575 
Q 3803 722 4122 1019 
L 4122 359 
Q 3791 134 3420 21 
Q 3050 -91 2638 -91 
Q 1578 -91 968 557 
Q 359 1206 359 2328 
Q 359 3453 968 4101 
Q 1578 4750 2638 4750 
Q 3056 4750 3426 4639 
Q 3797 4528 4122 4306 
z
" transform="scale(0.015625)"/>
      </defs>
      <use xlink:href="#DejaVuSans-54"/>
      <use xlink:href="#DejaVuSans-44" x="61.083984"/>
      <use xlink:href="#DejaVuSans-43" x="138.085938"/>
     </g>
    </g>
    <g id="line2d_20">
     <path d="M 480.715363 187.526406 
L 489.715363 187.526406 
L 498.715363 187.526406 
" style="fill: none; stroke-dasharray: 2.96,1.28; stroke-dashoffset: 0; stroke: #ff0000; stroke-width: 0.8"/>
    </g>
    <g id="text_20">
     <!-- Mov. Av. -->
     <g style="fill: #262626" transform="translate(505.915363 190.676406)scale(0.09 -0.09)">
      <defs>
       <path id="DejaVuSans-4d" d="M 628 4666 
L 1569 4666 
L 2759 1491 
L 3956 4666 
L 4897 4666 
L 4897 0 
L 4281 0 
L 4281 4097 
L 3078 897 
L 2444 897 
L 1241 4097 
L 1241 0 
L 628 0 
L 628 4666 
z
" transform="scale(0.015625)"/>
       <path id="DejaVuSans-76" d="M 191 3500 
L 800 3500 
L 1894 563 
L 2988 3500 
L 3597 3500 
L 2284 0 
L 1503 0 
L 191 3500 
z
" transform="scale(0.015625)"/>
       <path id="DejaVuSans-2e" d="M 684 794 
L 1344 794 
L 1344 0 
L 684 0 
L 684 794 
z
" transform="scale(0.015625)"/>
       <path id="DejaVuSans-41" d="M 2188 4044 
L 1331 1722 
L 3047 1722 
L 2188 4044 
z
M 1831 4666 
L 2547 4666 
L 4325 0 
L 3669 0 
L 3244 1197 
L 1141 1197 
L 716 0 
L 50 0 
L 1831 4666 
z
" transform="scale(0.015625)"/>
      </defs>
      <use xlink:href="#DejaVuSans-4d"/>
      <use xlink:href="#DejaVuSans-6f" x="86.279297"/>
      <use xlink:href="#DejaVuSans-76" x="147.460938"/>
      <use xlink:href="#DejaVuSans-2e" x="198.890625"/>
      <use xlink:href="#DejaVuSans-20" x="230.677734"/>
      <use xlink:href="#DejaVuSans-41" x="262.464844"/>
      <use xlink:href="#DejaVuSans-76" x="324.998047"/>
      <use xlink:href="#DejaVuSans-2e" x="376.427734"/>
     </g>
    </g>
   </g>
  </g>
  <g id="text_21">
   <!-- Energetic Components [Per-residue] -->
   <g style="fill: #262626" transform="translate(161.55375 15.605813)scale(0.14 -0.14)">
    <defs>
     <path id="DejaVuSans-74" d="M 1172 4494 
L 1172 3500 
L 2356 3500 
L 2356 3053 
L 1172 3053 
L 1172 1153 
Q 1172 725 1289 603 
Q 1406 481 1766 481 
L 2356 481 
L 2356 0 
L 1766 0 
Q 1100 0 847 248 
Q 594 497 594 1153 
L 594 3053 
L 172 3053 
L 172 3500 
L 594 3500 
L 594 4494 
L 1172 4494 
z
" transform="scale(0.015625)"/>
     <path id="DejaVuSans-69" d="M 603 3500 
L 1178 3500 
L 1178 0 
L 603 0 
L 603 3500 
z
M 603 4863 
L 1178 4863 
L 1178 4134 
L 603 4134 
L 603 4863 
z
" transform="scale(0.015625)"/>
     <path id="DejaVuSans-70" d="M 1159 525 
L 1159 -1331 
L 581 -1331 
L 581 3500 
L 1159 3500 
L 1159 2969 
Q 1341 3281 1617 3432 
Q 1894 3584 2278 3584 
Q 2916 3584 3314 3078 
Q 3713 2572 3713 1747 
Q 3713 922 3314 415 
Q 2916 -91 2278 -91 
Q 1894 -91 1617 61 
Q 1341 213 1159 525 
z
M 3116 1747 
Q 3116 2381 2855 2742 
Q 2594 3103 2138 3103 
Q 1681 3103 1420 2742 
Q 1159 2381 1159 1747 
Q 1159 1113 1420 752 
Q 1681 391 2138 391 
Q 2594 391 2855 752 
Q 3116 1113 3116 1747 
z
" transform="scale(0.015625)"/>
     <path id="DejaVuSans-5b" d="M 550 4863 
L 1875 4863 
L 1875 4416 
L 1125 4416 
L 1125 -397 
L 1875 -397 
L 1875 -844 
L 550 -844 
L 550 4863 
z
" transform="scale(0.015625)"/>
     <path id="DejaVuSans-50" d="M 1259 4147 
L 1259 2394 
L 2053 2394 
Q 2494 2394 2734 2622 
Q 2975 2850 2975 3272 
Q 2975 3691 2734 3919 
Q 2494 4147 2053 4147 
L 1259 4147 
z
M 628 4666 
L 2053 4666 
Q 2838 4666 3239 4311 
Q 3641 3956 3641 3272 
Q 3641 2581 3239 2228 
Q 2838 1875 2053 1875 
L 1259 1875 
L 1259 0 
L 628 0 
L 628 4666 
z
" transform="scale(0.015625)"/>
     <path id="DejaVuSans-2d" d="M 313 2009 
L 1997 2009 
L 1997 1497 
L 313 1497 
L 313 2009 
z
" transform="scale(0.015625)"/>
     <path id="DejaVuSans-64" d="M 2906 2969 
L 2906 4863 
L 3481 4863 
L 3481 0 
L 2906 0 
L 2906 525 
Q 2725 213 2448 61 
Q 2172 -91 1784 -91 
Q 1150 -91 751 415 
Q 353 922 353 1747 
Q 353 2572 751 3078 
Q 1150 3584 1784 3584 
Q 2172 3584 2448 3432 
Q 2725 3281 2906 2969 
z
M 947 1747 
Q 947 1113 1208 752 
Q 1469 391 1925 391 
Q 2381 391 2643 752 
Q 2906 1113 2906 1747 
Q 2906 2381 2643 2742 
Q 2381 3103 1925 3103 
Q 1469 3103 1208 2742 
Q 947 2381 947 1747 
z
" transform="scale(0.015625)"/>
     <path id="DejaVuSans-75" d="M 544 1381 
L 544 3500 
L 1119 3500 
L 1119 1403 
Q 1119 906 1312 657 
Q 1506 409 1894 409 
Q 2359 409 2629 706 
Q 2900 1003 2900 1516 
L 2900 3500 
L 3475 3500 
L 3475 0 
L 2900 0 
L 2900 538 
Q 2691 219 2414 64 
Q 2138 -91 1772 -91 
Q 1169 -91 856 284 
Q 544 659 544 1381 
z
M 1991 3584 
L 1991 3584 
z
" transform="scale(0.015625)"/>
     <path id="DejaVuSans-5d" d="M 1947 4863 
L 1947 -844 
L 622 -844 
L 622 -397 
L 1369 -397 
L 1369 4416 
L 622 4416 
L 622 4863 
L 1947 4863 
z
" transform="scale(0.015625)"/>
    </defs>
    <use xlink:href="#DejaVuSans-45"/>
    <use xlink:href="#DejaVuSans-6e" x="63.183594"/>
    <use xlink:href="#DejaVuSans-65" x="126.5625"/>
    <use xlink:href="#DejaVuSans-72" x="188.085938"/>
    <use xlink:href="#DejaVuSans-67" x="227.449219"/>
    <use xlink:href="#DejaVuSans-65" x="290.925781"/>
    <use xlink:href="#DejaVuSans-74" x="352.449219"/>
    <use xlink:href="#DejaVuSans-69" x="391.658203"/>
    <use xlink:href="#DejaVuSans-63" x="419.441406"/>
    <use xlink:href="#DejaVuSans-20" x="474.421875"/>
    <use xlink:href="#DejaVuSans-43" x="506.208984"/>
    <use xlink:href="#DejaVuSans-6f" x="576.033203"/>
    <use xlink:href="#DejaVuSans-6d" x="637.214844"/>
    <use xlink:href="#DejaVuSans-70" x="734.626953"/>
    <use xlink:href="#DejaVuSans-6f" x="798.103516"/>
    <use xlink:href="#DejaVuSans-6e" x="859.285156"/>
    <use xlink:href="#DejaVuSans-65" x="922.664062"/>
    <use xlink:href="#DejaVuSans-6e" x="984.1875"/>
    <use xlink:href="#DejaVuSans-74" x="1047.566406"/>
    <use xlink:href="#DejaVuSans-73" x="1086.775391"/>
    <use xlink:href="#DejaVuSans-20" x="1138.875"/>
    <use xlink:href="#DejaVuSans-5b" x="1170.662109"/>
    <use xlink:href="#DejaVuSans-50" x="1209.675781"/>
    <use xlink:href="#DejaVuSans-65" x="1266.353516"/>
    <use xlink:href="#DejaVuSans-72" x="1327.876953"/>
    <use xlink:href="#DejaVuSans-2d" x="1362.615234"/>
    <use xlink:href="#DejaVuSans-72" x="1398.699219"/>
    <use xlink:href="#DejaVuSans-65" x="1437.5625"/>
    <use xlink:href="#DejaVuSans-73" x="1499.085938"/>
    <use xlink:href="#DejaVuSans-69" x="1551.185547"/>
    <use xlink:href="#DejaVuSans-64" x="1578.96875"/>
    <use xlink:href="#DejaVuSans-75" x="1642.445312"/>
    <use xlink:href="#DejaVuSans-65" x="1705.824219"/>
    <use xlink:href="#DejaVuSans-5d" x="1767.347656"/>
   </g>
   <!-- System-1 | NORMAL | GB | Delta | TDC -->
   <g style="fill: #262626" transform="translate(153.892031 31.35625)scale(0.14 -0.14)">
    <defs>
     <path id="DejaVuSans-53" d="M 3425 4513 
L 3425 3897 
Q 3066 4069 2747 4153 
Q 2428 4238 2131 4238 
Q 1616 4238 1336 4038 
Q 1056 3838 1056 3469 
Q 1056 3159 1242 3001 
Q 1428 2844 1947 2747 
L 2328 2669 
Q 3034 2534 3370 2195 
Q 3706 1856 3706 1288 
Q 3706 609 3251 259 
Q 2797 -91 1919 -91 
Q 1588 -91 1214 -16 
Q 841 59 441 206 
L 441 856 
Q 825 641 1194 531 
Q 1563 422 1919 422 
Q 2459 422 2753 634 
Q 3047 847 3047 1241 
Q 3047 1584 2836 1778 
Q 2625 1972 2144 2069 
L 1759 2144 
Q 1053 2284 737 2584 
Q 422 2884 422 3419 
Q 422 4038 858 4394 
Q 1294 4750 2059 4750 
Q 2388 4750 2728 4690 
Q 3069 4631 3425 4513 
z
" transform="scale(0.015625)"/>
     <path id="DejaVuSans-7c" d="M 1344 4891 
L 1344 -1509 
L 813 -1509 
L 813 4891 
L 1344 4891 
z
" transform="scale(0.015625)"/>
     <path id="DejaVuSans-4e" d="M 628 4666 
L 1478 4666 
L 3547 763 
L 3547 4666 
L 4159 4666 
L 4159 0 
L 3309 0 
L 1241 3903 
L 1241 0 
L 628 0 
L 628 4666 
z
" transform="scale(0.015625)"/>
     <path id="DejaVuSans-4f" d="M 2522 4238 
Q 1834 4238 1429 3725 
Q 1025 3213 1025 2328 
Q 1025 1447 1429 934 
Q 1834 422 2522 422 
Q 3209 422 3611 934 
Q 4013 1447 4013 2328 
Q 4013 3213 3611 3725 
Q 3209 4238 2522 4238 
z
M 2522 4750 
Q 3503 4750 4090 4092 
Q 4678 3434 4678 2328 
Q 4678 1225 4090 567 
Q 3503 -91 2522 -91 
Q 1538 -91 948 565 
Q 359 1222 359 2328 
Q 359 3434 948 4092 
Q 1538 4750 2522 4750 
z
" transform="scale(0.015625)"/>
     <path id="DejaVuSans-52" d="M 2841 2188 
Q 3044 2119 3236 1894 
Q 3428 1669 3622 1275 
L 4263 0 
L 3584 0 
L 2988 1197 
Q 2756 1666 2539 1819 
Q 2322 1972 1947 1972 
L 1259 1972 
L 1259 0 
L 628 0 
L 628 4666 
L 2053 4666 
Q 2853 4666 3247 4331 
Q 3641 3997 3641 3322 
Q 3641 2881 3436 2590 
Q 3231 2300 2841 2188 
z
M 1259 4147 
L 1259 2491 
L 2053 2491 
Q 2509 2491 2742 2702 
Q 2975 2913 2975 3322 
Q 2975 3731 2742 3939 
Q 2509 4147 2053 4147 
L 1259 4147 
z
" transform="scale(0.015625)"/>
     <path id="DejaVuSans-4c" d="M 628 4666 
L 1259 4666 
L 1259 531 
L 3531 531 
L 3531 0 
L 628 0 
L 628 4666 
z
" transform="scale(0.015625)"/>
     <path id="DejaVuSans-47" d="M 3809 666 
L 3809 1919 
L 2778 1919 
L 2778 2438 
L 4434 2438 
L 4434 434 
Q 4069 175 3628 42 
Q 3188 -91 2688 -91 
Q 1594 -91 976 548 
Q 359 1188 359 2328 
Q 359 3472 976 4111 
Q 1594 4750 2688 4750 
Q 3144 4750 3555 4637 
Q 3966 4525 4313 4306 
L 4313 3634 
Q 3963 3931 3569 4081 
Q 3175 4231 2741 4231 
Q 1884 4231 1454 3753 
Q 1025 3275 1025 2328 
Q 1025 1384 1454 906 
Q 1884 428 2741 428 
Q 3075 428 3337 486 
Q 3600 544 3809 666 
z
" transform="scale(0.015625)"/>
     <path id="DejaVuSans-42" d="M 1259 2228 
L 1259 519 
L 2272 519 
Q 2781 519 3026 730 
Q 3272 941 3272 1375 
Q 3272 1813 3026 2020 
Q 2781 2228 2272 2228 
L 1259 2228 
z
M 1259 4147 
L 1259 2741 
L 2194 2741 
Q 2656 2741 2882 2914 
Q 3109 3088 3109 3444 
Q 3109 3797 2882 3972 
Q 2656 4147 2194 4147 
L 1259 4147 
z
M 628 4666 
L 2241 4666 
Q 2963 4666 3353 4366 
Q 3744 4066 3744 3513 
Q 3744 3084 3544 2831 
Q 3344 2578 2956 2516 
Q 3422 2416 3680 2098 
Q 3938 1781 3938 1306 
Q 3938 681 3513 340 
Q 3088 0 2303 0 
L 628 0 
L 628 4666 
z
" transform="scale(0.015625)"/>
    </defs>
    <use xlink:href="#DejaVuSans-53"/>
    <use xlink:href="#DejaVuSans-79" x="63.476562"/>
    <use xlink:href="#DejaVuSans-73" x="122.65625"/>
    <use xlink:href="#DejaVuSans-74" x="174.755859"/>
    <use xlink:href="#DejaVuSans-65" x="213.964844"/>
    <use xlink:href="#DejaVuSans-6d" x="275.488281"/>
    <use xlink:href="#DejaVuSans-2d" x="372.900391"/>
    <use xlink:href="#DejaVuSans-31" x="408.984375"/>
    <use xlink:href="#DejaVuSans-20" x="472.607422"/>
    <use xlink:href="#DejaVuSans-7c" x="504.394531"/>
    <use xlink:href="#DejaVuSans-20" x="538.085938"/>
    <use xlink:href="#DejaVuSans-4e" x="569.873047"/>
    <use xlink:href="#DejaVuSans-4f" x="644.677734"/>
    <use xlink:href="#DejaVuSans-52" x="723.388672"/>
    <use xlink:href="#DejaVuSans-4d" x="792.871094"/>
    <use xlink:href="#DejaVuSans-41" x="879.150391"/>
    <use xlink:href="#DejaVuSans-4c" x="947.558594"/>
    <use xlink:href="#DejaVuSans-20" x="1003.271484"/>
    <use xlink:href="#DejaVuSans-7c" x="1035.058594"/>
    <use xlink:href="#DejaVuSans-20" x="1068.75"/>
    <use xlink:href="#DejaVuSans-47" x="1100.537109"/>
    <use xlink:href="#DejaVuSans-42" x="1178.027344"/>
    <use xlink:href="#DejaVuSans-20" x="1246.630859"/>
    <use xlink:href="#DejaVuSans-7c" x="1278.417969"/>
    <use xlink:href="#DejaVuSans-20" x="1312.109375"/>
    <use xlink:href="#DejaVuSans-44" x="1343.896484"/>
    <use xlink:href="#DejaVuSans-65" x="1420.898438"/>
    <use xlink:href="#DejaVuSans-6c" x="1482.421875"/>
    <use xlink:href="#DejaVuSans-74" x="1510.205078"/>
    <use xlink:href="#DejaVuSans-61" x="1549.414062"/>
    <use xlink:href="#DejaVuSans-20" x="1610.693359"/>
    <use xlink:href="#DejaVuSans-7c" x="1642.480469"/>
    <use xlink:href="#DejaVuSans-20" x="1676.171875"/>
    <use xlink:href="#DejaVuSans-54" x="1707.958984"/>
    <use xlink:href="#DejaVuSans-44" x="1769.042969"/>
    <use xlink:href="#DejaVuSans-43" x="1846.044922"/>
   </g>
  </g>
 </g>
 <defs>
  <clipPath id="p218e86c07d">
   <rect x="65.540937" y="56.44648" width="485.214113" height="144.201645"/>
  </clipPath>
 </defs>
</svg>
