<?xml version="1.0" encoding="utf-8" standalone="no"?>
<!DOCTYPE svg PUBLIC "-//W3C//DTD SVG 1.1//EN"
  "http://www.w3.org/Graphics/SVG/1.1/DTD/svg11.dtd">
<svg xmlns:xlink="http://www.w3.org/1999/xlink" width="576pt" height="248.4pt" viewBox="0 0 576 248.4" xmlns="http://www.w3.org/2000/svg" version="1.1">
 <metadata>
  <rdf:RDF xmlns:dc="http://purl.org/dc/elements/1.1/" xmlns:cc="http://creativecommons.org/ns#" xmlns:rdf="http://www.w3.org/1999/02/22-rdf-syntax-ns#">
   <cc:Work>
    <dc:type rdf:resource="http://purl.org/dc/dcmitype/StillImage"/>
    <dc:date>2024-10-20T16:55:38.364431</dc:date>
    <dc:format>image/svg+xml</dc:format>
    <dc:creator>
     <cc:Agent>
      <dc:title>Matplotlib v3.5.2, https://matplotlib.org/</dc:title>
     </cc:Agent>
    </dc:creator>
   </cc:Work>
  </rdf:RDF>
 </metadata>
 <defs>
  <style type="text/css">*{stroke-linejoin: round; stroke-linecap: butt}</style>
 </defs>
 <g id="figure_1">
  <g id="patch_1">
   <path d="M 0 248.4 
L 576 248.4 
L 576 0 
L 0 0 
z
" style="fill: #ffffff"/>
  </g>
  <g id="axes_1">
   <g id="patch_2">
    <path d="M 65.540937 200.648125 
L 550.754968 200.648125 
L 550.754968 59.154816 
L 65.540937 59.154816 
z
" style="fill: #eaeaf2"/>
   </g>
   <g id="matplotlib.axis_1">
    <g id="xtick_1">
     <g id="line2d_1">
      <path d="M 87.155017 200.648125 
L 87.155017 59.154816 
" clip-path="url(#pfb920da2e8)" style="fill: none; stroke: #ffffff; stroke-linecap: round"/>
     </g>
     <g id="text_1">
      <!-- 0 -->
      <g style="fill: #262626" transform="translate(83.973767 217.746562)scale(0.1 -0.1)">
       <defs>
        <path id="DejaVuSans-30" d="M 2034 4250 
Q 1547 4250 1301 3770 
Q 1056 3291 1056 2328 
Q 1056 1369 1301 889 
Q 1547 409 2034 409 
Q 2525 409 2770 889 
Q 3016 1369 3016 2328 
Q 3016 3291 2770 3770 
Q 2525 4250 2034 4250 
z
M 2034 4750 
Q 2819 4750 3233 4129 
Q 3647 3509 3647 2328 
Q 3647 1150 3233 529 
Q 2819 -91 2034 -91 
Q 1250 -91 836 529 
Q 422 1150 422 2328 
Q 422 3509 836 4129 
Q 1250 4750 2034 4750 
z
" transform="scale(0.015625)"/>
       </defs>
       <use xlink:href="#DejaVuSans-30"/>
      </g>
     </g>
    </g>
    <g id="xtick_2">
     <g id="line2d_2">
      <path d="M 153.320567 200.648125 
L 153.320567 59.154816 
" clip-path="url(#pfb920da2e8)" style="fill: none; stroke: #ffffff; stroke-linecap: round"/>
     </g>
     <g id="text_2">
      <!-- 150 -->
      <g style="fill: #262626" transform="translate(143.776817 217.746562)scale(0.1 -0.1)">
       <defs>
        <path id="DejaVuSans-31" d="M 794 531 
L 1825 531 
L 1825 4091 
L 703 3866 
L 703 4441 
L 1819 4666 
L 2450 4666 
L 2450 531 
L 3481 531 
L 3481 0 
L 794 0 
L 794 531 
z
" transform="scale(0.015625)"/>
        <path id="DejaVuSans-35" d="M 691 4666 
L 3169 4666 
L 3169 4134 
L 1269 4134 
L 1269 2991 
Q 1406 3038 1543 3061 
Q 1681 3084 1819 3084 
Q 2600 3084 3056 2656 
Q 3513 2228 3513 1497 
Q 3513 744 3044 326 
Q 2575 -91 1722 -91 
Q 1428 -91 1123 -41 
Q 819 9 494 109 
L 494 744 
Q 775 591 1075 516 
Q 1375 441 1709 441 
Q 2250 441 2565 725 
Q 2881 1009 2881 1497 
Q 2881 1984 2565 2268 
Q 2250 2553 1709 2553 
Q 1456 2553 1204 2497 
Q 953 2441 691 2322 
L 691 4666 
z
" transform="scale(0.015625)"/>
       </defs>
       <use xlink:href="#DejaVuSans-31"/>
       <use xlink:href="#DejaVuSans-35" x="63.623047"/>
       <use xlink:href="#DejaVuSans-30" x="127.246094"/>
      </g>
     </g>
    </g>
    <g id="xtick_3">
     <g id="line2d_3">
      <path d="M 219.486116 200.648125 
L 219.486116 59.154816 
" clip-path="url(#pfb920da2e8)" style="fill: none; stroke: #ffffff; stroke-linecap: round"/>
     </g>
     <g id="text_3">
      <!-- 300 -->
      <g style="fill: #262626" transform="translate(209.942366 217.746562)scale(0.1 -0.1)">
       <defs>
        <path id="DejaVuSans-33" d="M 2597 2516 
Q 3050 2419 3304 2112 
Q 3559 1806 3559 1356 
Q 3559 666 3084 287 
Q 2609 -91 1734 -91 
Q 1441 -91 1130 -33 
Q 819 25 488 141 
L 488 750 
Q 750 597 1062 519 
Q 1375 441 1716 441 
Q 2309 441 2620 675 
Q 2931 909 2931 1356 
Q 2931 1769 2642 2001 
Q 2353 2234 1838 2234 
L 1294 2234 
L 1294 2753 
L 1863 2753 
Q 2328 2753 2575 2939 
Q 2822 3125 2822 3475 
Q 2822 3834 2567 4026 
Q 2313 4219 1838 4219 
Q 1578 4219 1281 4162 
Q 984 4106 628 3988 
L 628 4550 
Q 988 4650 1302 4700 
Q 1616 4750 1894 4750 
Q 2613 4750 3031 4423 
Q 3450 4097 3450 3541 
Q 3450 3153 3228 2886 
Q 3006 2619 2597 2516 
z
" transform="scale(0.015625)"/>
       </defs>
       <use xlink:href="#DejaVuSans-33"/>
       <use xlink:href="#DejaVuSans-30" x="63.623047"/>
       <use xlink:href="#DejaVuSans-30" x="127.246094"/>
      </g>
     </g>
    </g>
    <g id="xtick_4">
     <g id="line2d_4">
      <path d="M 285.651666 200.648125 
L 285.651666 59.154816 
" clip-path="url(#pfb920da2e8)" style="fill: none; stroke: #ffffff; stroke-linecap: round"/>
     </g>
     <g id="text_4">
      <!-- 450 -->
      <g style="fill: #262626" transform="translate(276.107916 217.746562)scale(0.1 -0.1)">
       <defs>
        <path id="DejaVuSans-34" d="M 2419 4116 
L 825 1625 
L 2419 1625 
L 2419 4116 
z
M 2253 4666 
L 3047 4666 
L 3047 1625 
L 3713 1625 
L 3713 1100 
L 3047 1100 
L 3047 0 
L 2419 0 
L 2419 1100 
L 313 1100 
L 313 1709 
L 2253 4666 
z
" transform="scale(0.015625)"/>
       </defs>
       <use xlink:href="#DejaVuSans-34"/>
       <use xlink:href="#DejaVuSans-35" x="63.623047"/>
       <use xlink:href="#DejaVuSans-30" x="127.246094"/>
      </g>
     </g>
    </g>
    <g id="xtick_5">
     <g id="line2d_5">
      <path d="M 351.817216 200.648125 
L 351.817216 59.154816 
" clip-path="url(#pfb920da2e8)" style="fill: none; stroke: #ffffff; stroke-linecap: round"/>
     </g>
     <g id="text_5">
      <!-- 600 -->
      <g style="fill: #262626" transform="translate(342.273466 217.746562)scale(0.1 -0.1)">
       <defs>
        <path id="DejaVuSans-36" d="M 2113 2584 
Q 1688 2584 1439 2293 
Q 1191 2003 1191 1497 
Q 1191 994 1439 701 
Q 1688 409 2113 409 
Q 2538 409 2786 701 
Q 3034 994 3034 1497 
Q 3034 2003 2786 2293 
Q 2538 2584 2113 2584 
z
M 3366 4563 
L 3366 3988 
Q 3128 4100 2886 4159 
Q 2644 4219 2406 4219 
Q 1781 4219 1451 3797 
Q 1122 3375 1075 2522 
Q 1259 2794 1537 2939 
Q 1816 3084 2150 3084 
Q 2853 3084 3261 2657 
Q 3669 2231 3669 1497 
Q 3669 778 3244 343 
Q 2819 -91 2113 -91 
Q 1303 -91 875 529 
Q 447 1150 447 2328 
Q 447 3434 972 4092 
Q 1497 4750 2381 4750 
Q 2619 4750 2861 4703 
Q 3103 4656 3366 4563 
z
" transform="scale(0.015625)"/>
       </defs>
       <use xlink:href="#DejaVuSans-36"/>
       <use xlink:href="#DejaVuSans-30" x="63.623047"/>
       <use xlink:href="#DejaVuSans-30" x="127.246094"/>
      </g>
     </g>
    </g>
    <g id="xtick_6">
     <g id="line2d_6">
      <path d="M 417.982765 200.648125 
L 417.982765 59.154816 
" clip-path="url(#pfb920da2e8)" style="fill: none; stroke: #ffffff; stroke-linecap: round"/>
     </g>
     <g id="text_6">
      <!-- 750 -->
      <g style="fill: #262626" transform="translate(408.439015 217.746562)scale(0.1 -0.1)">
       <defs>
        <path id="DejaVuSans-37" d="M 525 4666 
L 3525 4666 
L 3525 4397 
L 1831 0 
L 1172 0 
L 2766 4134 
L 525 4134 
L 525 4666 
z
" transform="scale(0.015625)"/>
       </defs>
       <use xlink:href="#DejaVuSans-37"/>
       <use xlink:href="#DejaVuSans-35" x="63.623047"/>
       <use xlink:href="#DejaVuSans-30" x="127.246094"/>
      </g>
     </g>
    </g>
    <g id="xtick_7">
     <g id="line2d_7">
      <path d="M 484.148315 200.648125 
L 484.148315 59.154816 
" clip-path="url(#pfb920da2e8)" style="fill: none; stroke: #ffffff; stroke-linecap: round"/>
     </g>
     <g id="text_7">
      <!-- 900 -->
      <g style="fill: #262626" transform="translate(474.604565 217.746562)scale(0.1 -0.1)">
       <defs>
        <path id="DejaVuSans-39" d="M 703 97 
L 703 672 
Q 941 559 1184 500 
Q 1428 441 1663 441 
Q 2288 441 2617 861 
Q 2947 1281 2994 2138 
Q 2813 1869 2534 1725 
Q 2256 1581 1919 1581 
Q 1219 1581 811 2004 
Q 403 2428 403 3163 
Q 403 3881 828 4315 
Q 1253 4750 1959 4750 
Q 2769 4750 3195 4129 
Q 3622 3509 3622 2328 
Q 3622 1225 3098 567 
Q 2575 -91 1691 -91 
Q 1453 -91 1209 -44 
Q 966 3 703 97 
z
M 1959 2075 
Q 2384 2075 2632 2365 
Q 2881 2656 2881 3163 
Q 2881 3666 2632 3958 
Q 2384 4250 1959 4250 
Q 1534 4250 1286 3958 
Q 1038 3666 1038 3163 
Q 1038 2656 1286 2365 
Q 1534 2075 1959 2075 
z
" transform="scale(0.015625)"/>
       </defs>
       <use xlink:href="#DejaVuSans-39"/>
       <use xlink:href="#DejaVuSans-30" x="63.623047"/>
       <use xlink:href="#DejaVuSans-30" x="127.246094"/>
      </g>
     </g>
    </g>
    <g id="xtick_8">
     <g id="line2d_8">
      <path d="M 550.313864 200.648125 
L 550.313864 59.154816 
" clip-path="url(#pfb920da2e8)" style="fill: none; stroke: #ffffff; stroke-linecap: round"/>
     </g>
     <g id="text_8">
      <!-- 1050 -->
      <g style="fill: #262626" transform="translate(537.588864 217.746562)scale(0.1 -0.1)">
       <use xlink:href="#DejaVuSans-31"/>
       <use xlink:href="#DejaVuSans-30" x="63.623047"/>
       <use xlink:href="#DejaVuSans-35" x="127.246094"/>
       <use xlink:href="#DejaVuSans-30" x="190.869141"/>
      </g>
     </g>
    </g>
    <g id="text_9">
     <!-- Frames -->
     <g style="fill: #262626" transform="translate(286.326703 232.944375)scale(0.12 -0.12)">
      <defs>
       <path id="DejaVuSans-46" d="M 628 4666 
L 3309 4666 
L 3309 4134 
L 1259 4134 
L 1259 2759 
L 3109 2759 
L 3109 2228 
L 1259 2228 
L 1259 0 
L 628 0 
L 628 4666 
z
" transform="scale(0.015625)"/>
       <path id="DejaVuSans-72" d="M 2631 2963 
Q 2534 3019 2420 3045 
Q 2306 3072 2169 3072 
Q 1681 3072 1420 2755 
Q 1159 2438 1159 1844 
L 1159 0 
L 581 0 
L 581 3500 
L 1159 3500 
L 1159 2956 
Q 1341 3275 1631 3429 
Q 1922 3584 2338 3584 
Q 2397 3584 2469 3576 
Q 2541 3569 2628 3553 
L 2631 2963 
z
" transform="scale(0.015625)"/>
       <path id="DejaVuSans-61" d="M 2194 1759 
Q 1497 1759 1228 1600 
Q 959 1441 959 1056 
Q 959 750 1161 570 
Q 1363 391 1709 391 
Q 2188 391 2477 730 
Q 2766 1069 2766 1631 
L 2766 1759 
L 2194 1759 
z
M 3341 1997 
L 3341 0 
L 2766 0 
L 2766 531 
Q 2569 213 2275 61 
Q 1981 -91 1556 -91 
Q 1019 -91 701 211 
Q 384 513 384 1019 
Q 384 1609 779 1909 
Q 1175 2209 1959 2209 
L 2766 2209 
L 2766 2266 
Q 2766 2663 2505 2880 
Q 2244 3097 1772 3097 
Q 1472 3097 1187 3025 
Q 903 2953 641 2809 
L 641 3341 
Q 956 3463 1253 3523 
Q 1550 3584 1831 3584 
Q 2591 3584 2966 3190 
Q 3341 2797 3341 1997 
z
" transform="scale(0.015625)"/>
       <path id="DejaVuSans-6d" d="M 3328 2828 
Q 3544 3216 3844 3400 
Q 4144 3584 4550 3584 
Q 5097 3584 5394 3201 
Q 5691 2819 5691 2113 
L 5691 0 
L 5113 0 
L 5113 2094 
Q 5113 2597 4934 2840 
Q 4756 3084 4391 3084 
Q 3944 3084 3684 2787 
Q 3425 2491 3425 1978 
L 3425 0 
L 2847 0 
L 2847 2094 
Q 2847 2600 2669 2842 
Q 2491 3084 2119 3084 
Q 1678 3084 1418 2786 
Q 1159 2488 1159 1978 
L 1159 0 
L 581 0 
L 581 3500 
L 1159 3500 
L 1159 2956 
Q 1356 3278 1631 3431 
Q 1906 3584 2284 3584 
Q 2666 3584 2933 3390 
Q 3200 3197 3328 2828 
z
" transform="scale(0.015625)"/>
       <path id="DejaVuSans-65" d="M 3597 1894 
L 3597 1613 
L 953 1613 
Q 991 1019 1311 708 
Q 1631 397 2203 397 
Q 2534 397 2845 478 
Q 3156 559 3463 722 
L 3463 178 
Q 3153 47 2828 -22 
Q 2503 -91 2169 -91 
Q 1331 -91 842 396 
Q 353 884 353 1716 
Q 353 2575 817 3079 
Q 1281 3584 2069 3584 
Q 2775 3584 3186 3129 
Q 3597 2675 3597 1894 
z
M 3022 2063 
Q 3016 2534 2758 2815 
Q 2500 3097 2075 3097 
Q 1594 3097 1305 2825 
Q 1016 2553 972 2059 
L 3022 2063 
z
" transform="scale(0.015625)"/>
       <path id="DejaVuSans-73" d="M 2834 3397 
L 2834 2853 
Q 2591 2978 2328 3040 
Q 2066 3103 1784 3103 
Q 1356 3103 1142 2972 
Q 928 2841 928 2578 
Q 928 2378 1081 2264 
Q 1234 2150 1697 2047 
L 1894 2003 
Q 2506 1872 2764 1633 
Q 3022 1394 3022 966 
Q 3022 478 2636 193 
Q 2250 -91 1575 -91 
Q 1294 -91 989 -36 
Q 684 19 347 128 
L 347 722 
Q 666 556 975 473 
Q 1284 391 1588 391 
Q 1994 391 2212 530 
Q 2431 669 2431 922 
Q 2431 1156 2273 1281 
Q 2116 1406 1581 1522 
L 1381 1569 
Q 847 1681 609 1914 
Q 372 2147 372 2553 
Q 372 3047 722 3315 
Q 1072 3584 1716 3584 
Q 2034 3584 2315 3537 
Q 2597 3491 2834 3397 
z
" transform="scale(0.015625)"/>
      </defs>
      <use xlink:href="#DejaVuSans-46"/>
      <use xlink:href="#DejaVuSans-72" x="50.269531"/>
      <use xlink:href="#DejaVuSans-61" x="91.382812"/>
      <use xlink:href="#DejaVuSans-6d" x="152.662109"/>
      <use xlink:href="#DejaVuSans-65" x="250.074219"/>
      <use xlink:href="#DejaVuSans-73" x="311.597656"/>
     </g>
    </g>
   </g>
   <g id="matplotlib.axis_2">
    <g id="ytick_1">
     <g id="line2d_9">
      <path d="M 65.540937 186.078724 
L 550.754968 186.078724 
" clip-path="url(#pfb920da2e8)" style="fill: none; stroke: #ffffff; stroke-linecap: round"/>
     </g>
     <g id="text_10">
      <!-- −160 -->
      <g style="fill: #262626" transform="translate(28.57375 189.877943)scale(0.1 -0.1)">
       <defs>
        <path id="DejaVuSans-2212" d="M 678 2272 
L 4684 2272 
L 4684 1741 
L 678 1741 
L 678 2272 
z
" transform="scale(0.015625)"/>
       </defs>
       <use xlink:href="#DejaVuSans-2212"/>
       <use xlink:href="#DejaVuSans-31" x="83.789062"/>
       <use xlink:href="#DejaVuSans-36" x="147.412109"/>
       <use xlink:href="#DejaVuSans-30" x="211.035156"/>
      </g>
     </g>
    </g>
    <g id="ytick_2">
     <g id="line2d_10">
      <path d="M 65.540937 167.98351 
L 550.754968 167.98351 
" clip-path="url(#pfb920da2e8)" style="fill: none; stroke: #ffffff; stroke-linecap: round"/>
     </g>
     <g id="text_11">
      <!-- −140 -->
      <g style="fill: #262626" transform="translate(28.57375 171.782729)scale(0.1 -0.1)">
       <use xlink:href="#DejaVuSans-2212"/>
       <use xlink:href="#DejaVuSans-31" x="83.789062"/>
       <use xlink:href="#DejaVuSans-34" x="147.412109"/>
       <use xlink:href="#DejaVuSans-30" x="211.035156"/>
      </g>
     </g>
    </g>
    <g id="ytick_3">
     <g id="line2d_11">
      <path d="M 65.540937 149.888296 
L 550.754968 149.888296 
" clip-path="url(#pfb920da2e8)" style="fill: none; stroke: #ffffff; stroke-linecap: round"/>
     </g>
     <g id="text_12">
      <!-- −120 -->
      <g style="fill: #262626" transform="translate(28.57375 153.687515)scale(0.1 -0.1)">
       <defs>
        <path id="DejaVuSans-32" d="M 1228 531 
L 3431 531 
L 3431 0 
L 469 0 
L 469 531 
Q 828 903 1448 1529 
Q 2069 2156 2228 2338 
Q 2531 2678 2651 2914 
Q 2772 3150 2772 3378 
Q 2772 3750 2511 3984 
Q 2250 4219 1831 4219 
Q 1534 4219 1204 4116 
Q 875 4013 500 3803 
L 500 4441 
Q 881 4594 1212 4672 
Q 1544 4750 1819 4750 
Q 2544 4750 2975 4387 
Q 3406 4025 3406 3419 
Q 3406 3131 3298 2873 
Q 3191 2616 2906 2266 
Q 2828 2175 2409 1742 
Q 1991 1309 1228 531 
z
" transform="scale(0.015625)"/>
       </defs>
       <use xlink:href="#DejaVuSans-2212"/>
       <use xlink:href="#DejaVuSans-31" x="83.789062"/>
       <use xlink:href="#DejaVuSans-32" x="147.412109"/>
       <use xlink:href="#DejaVuSans-30" x="211.035156"/>
      </g>
     </g>
    </g>
    <g id="ytick_4">
     <g id="line2d_12">
      <path d="M 65.540937 131.793082 
L 550.754968 131.793082 
" clip-path="url(#pfb920da2e8)" style="fill: none; stroke: #ffffff; stroke-linecap: round"/>
     </g>
     <g id="text_13">
      <!-- −100 -->
      <g style="fill: #262626" transform="translate(28.57375 135.592301)scale(0.1 -0.1)">
       <use xlink:href="#DejaVuSans-2212"/>
       <use xlink:href="#DejaVuSans-31" x="83.789062"/>
       <use xlink:href="#DejaVuSans-30" x="147.412109"/>
       <use xlink:href="#DejaVuSans-30" x="211.035156"/>
      </g>
     </g>
    </g>
    <g id="ytick_5">
     <g id="line2d_13">
      <path d="M 65.540937 113.697868 
L 550.754968 113.697868 
" clip-path="url(#pfb920da2e8)" style="fill: none; stroke: #ffffff; stroke-linecap: round"/>
     </g>
     <g id="text_14">
      <!-- −80 -->
      <g style="fill: #262626" transform="translate(34.93625 117.497087)scale(0.1 -0.1)">
       <defs>
        <path id="DejaVuSans-38" d="M 2034 2216 
Q 1584 2216 1326 1975 
Q 1069 1734 1069 1313 
Q 1069 891 1326 650 
Q 1584 409 2034 409 
Q 2484 409 2743 651 
Q 3003 894 3003 1313 
Q 3003 1734 2745 1975 
Q 2488 2216 2034 2216 
z
M 1403 2484 
Q 997 2584 770 2862 
Q 544 3141 544 3541 
Q 544 4100 942 4425 
Q 1341 4750 2034 4750 
Q 2731 4750 3128 4425 
Q 3525 4100 3525 3541 
Q 3525 3141 3298 2862 
Q 3072 2584 2669 2484 
Q 3125 2378 3379 2068 
Q 3634 1759 3634 1313 
Q 3634 634 3220 271 
Q 2806 -91 2034 -91 
Q 1263 -91 848 271 
Q 434 634 434 1313 
Q 434 1759 690 2068 
Q 947 2378 1403 2484 
z
M 1172 3481 
Q 1172 3119 1398 2916 
Q 1625 2713 2034 2713 
Q 2441 2713 2670 2916 
Q 2900 3119 2900 3481 
Q 2900 3844 2670 4047 
Q 2441 4250 2034 4250 
Q 1625 4250 1398 4047 
Q 1172 3844 1172 3481 
z
" transform="scale(0.015625)"/>
       </defs>
       <use xlink:href="#DejaVuSans-2212"/>
       <use xlink:href="#DejaVuSans-38" x="83.789062"/>
       <use xlink:href="#DejaVuSans-30" x="147.412109"/>
      </g>
     </g>
    </g>
    <g id="ytick_6">
     <g id="line2d_14">
      <path d="M 65.540937 95.602654 
L 550.754968 95.602654 
" clip-path="url(#pfb920da2e8)" style="fill: none; stroke: #ffffff; stroke-linecap: round"/>
     </g>
     <g id="text_15">
      <!-- −60 -->
      <g style="fill: #262626" transform="translate(34.93625 99.401873)scale(0.1 -0.1)">
       <use xlink:href="#DejaVuSans-2212"/>
       <use xlink:href="#DejaVuSans-36" x="83.789062"/>
       <use xlink:href="#DejaVuSans-30" x="147.412109"/>
      </g>
     </g>
    </g>
    <g id="ytick_7">
     <g id="line2d_15">
      <path d="M 65.540937 77.50744 
L 550.754968 77.50744 
" clip-path="url(#pfb920da2e8)" style="fill: none; stroke: #ffffff; stroke-linecap: round"/>
     </g>
     <g id="text_16">
      <!-- −40 -->
      <g style="fill: #262626" transform="translate(34.93625 81.306659)scale(0.1 -0.1)">
       <use xlink:href="#DejaVuSans-2212"/>
       <use xlink:href="#DejaVuSans-34" x="83.789062"/>
       <use xlink:href="#DejaVuSans-30" x="147.412109"/>
      </g>
     </g>
    </g>
    <g id="ytick_8">
     <g id="line2d_16">
      <path d="M 65.540937 59.412226 
L 550.754968 59.412226 
" clip-path="url(#pfb920da2e8)" style="fill: none; stroke: #ffffff; stroke-linecap: round"/>
     </g>
     <g id="text_17">
      <!-- −20 -->
      <g style="fill: #262626" transform="translate(34.93625 63.211445)scale(0.1 -0.1)">
       <use xlink:href="#DejaVuSans-2212"/>
       <use xlink:href="#DejaVuSans-32" x="83.789062"/>
       <use xlink:href="#DejaVuSans-30" x="147.412109"/>
      </g>
     </g>
    </g>
    <g id="text_18">
     <!-- Energy (kcal/mol) -->
     <g style="fill: #262626" transform="translate(22.078125 182.818658)rotate(-90)scale(0.12 -0.12)">
      <defs>
       <path id="DejaVuSans-45" d="M 628 4666 
L 3578 4666 
L 3578 4134 
L 1259 4134 
L 1259 2753 
L 3481 2753 
L 3481 2222 
L 1259 2222 
L 1259 531 
L 3634 531 
L 3634 0 
L 628 0 
L 628 4666 
z
" transform="scale(0.015625)"/>
       <path id="DejaVuSans-6e" d="M 3513 2113 
L 3513 0 
L 2938 0 
L 2938 2094 
Q 2938 2591 2744 2837 
Q 2550 3084 2163 3084 
Q 1697 3084 1428 2787 
Q 1159 2491 1159 1978 
L 1159 0 
L 581 0 
L 581 3500 
L 1159 3500 
L 1159 2956 
Q 1366 3272 1645 3428 
Q 1925 3584 2291 3584 
Q 2894 3584 3203 3211 
Q 3513 2838 3513 2113 
z
" transform="scale(0.015625)"/>
       <path id="DejaVuSans-67" d="M 2906 1791 
Q 2906 2416 2648 2759 
Q 2391 3103 1925 3103 
Q 1463 3103 1205 2759 
Q 947 2416 947 1791 
Q 947 1169 1205 825 
Q 1463 481 1925 481 
Q 2391 481 2648 825 
Q 2906 1169 2906 1791 
z
M 3481 434 
Q 3481 -459 3084 -895 
Q 2688 -1331 1869 -1331 
Q 1566 -1331 1297 -1286 
Q 1028 -1241 775 -1147 
L 775 -588 
Q 1028 -725 1275 -790 
Q 1522 -856 1778 -856 
Q 2344 -856 2625 -561 
Q 2906 -266 2906 331 
L 2906 616 
Q 2728 306 2450 153 
Q 2172 0 1784 0 
Q 1141 0 747 490 
Q 353 981 353 1791 
Q 353 2603 747 3093 
Q 1141 3584 1784 3584 
Q 2172 3584 2450 3431 
Q 2728 3278 2906 2969 
L 2906 3500 
L 3481 3500 
L 3481 434 
z
" transform="scale(0.015625)"/>
       <path id="DejaVuSans-79" d="M 2059 -325 
Q 1816 -950 1584 -1140 
Q 1353 -1331 966 -1331 
L 506 -1331 
L 506 -850 
L 844 -850 
Q 1081 -850 1212 -737 
Q 1344 -625 1503 -206 
L 1606 56 
L 191 3500 
L 800 3500 
L 1894 763 
L 2988 3500 
L 3597 3500 
L 2059 -325 
z
" transform="scale(0.015625)"/>
       <path id="DejaVuSans-20" transform="scale(0.015625)"/>
       <path id="DejaVuSans-28" d="M 1984 4856 
Q 1566 4138 1362 3434 
Q 1159 2731 1159 2009 
Q 1159 1288 1364 580 
Q 1569 -128 1984 -844 
L 1484 -844 
Q 1016 -109 783 600 
Q 550 1309 550 2009 
Q 550 2706 781 3412 
Q 1013 4119 1484 4856 
L 1984 4856 
z
" transform="scale(0.015625)"/>
       <path id="DejaVuSans-6b" d="M 581 4863 
L 1159 4863 
L 1159 1991 
L 2875 3500 
L 3609 3500 
L 1753 1863 
L 3688 0 
L 2938 0 
L 1159 1709 
L 1159 0 
L 581 0 
L 581 4863 
z
" transform="scale(0.015625)"/>
       <path id="DejaVuSans-63" d="M 3122 3366 
L 3122 2828 
Q 2878 2963 2633 3030 
Q 2388 3097 2138 3097 
Q 1578 3097 1268 2742 
Q 959 2388 959 1747 
Q 959 1106 1268 751 
Q 1578 397 2138 397 
Q 2388 397 2633 464 
Q 2878 531 3122 666 
L 3122 134 
Q 2881 22 2623 -34 
Q 2366 -91 2075 -91 
Q 1284 -91 818 406 
Q 353 903 353 1747 
Q 353 2603 823 3093 
Q 1294 3584 2113 3584 
Q 2378 3584 2631 3529 
Q 2884 3475 3122 3366 
z
" transform="scale(0.015625)"/>
       <path id="DejaVuSans-6c" d="M 603 4863 
L 1178 4863 
L 1178 0 
L 603 0 
L 603 4863 
z
" transform="scale(0.015625)"/>
       <path id="DejaVuSans-2f" d="M 1625 4666 
L 2156 4666 
L 531 -594 
L 0 -594 
L 1625 4666 
z
" transform="scale(0.015625)"/>
       <path id="DejaVuSans-6f" d="M 1959 3097 
Q 1497 3097 1228 2736 
Q 959 2375 959 1747 
Q 959 1119 1226 758 
Q 1494 397 1959 397 
Q 2419 397 2687 759 
Q 2956 1122 2956 1747 
Q 2956 2369 2687 2733 
Q 2419 3097 1959 3097 
z
M 1959 3584 
Q 2709 3584 3137 3096 
Q 3566 2609 3566 1747 
Q 3566 888 3137 398 
Q 2709 -91 1959 -91 
Q 1206 -91 779 398 
Q 353 888 353 1747 
Q 353 2609 779 3096 
Q 1206 3584 1959 3584 
z
" transform="scale(0.015625)"/>
       <path id="DejaVuSans-29" d="M 513 4856 
L 1013 4856 
Q 1481 4119 1714 3412 
Q 1947 2706 1947 2009 
Q 1947 1309 1714 600 
Q 1481 -109 1013 -844 
L 513 -844 
Q 928 -128 1133 580 
Q 1338 1288 1338 2009 
Q 1338 2731 1133 3434 
Q 928 4138 513 4856 
z
" transform="scale(0.015625)"/>
      </defs>
      <use xlink:href="#DejaVuSans-45"/>
      <use xlink:href="#DejaVuSans-6e" x="63.183594"/>
      <use xlink:href="#DejaVuSans-65" x="126.5625"/>
      <use xlink:href="#DejaVuSans-72" x="188.085938"/>
      <use xlink:href="#DejaVuSans-67" x="227.449219"/>
      <use xlink:href="#DejaVuSans-79" x="290.925781"/>
      <use xlink:href="#DejaVuSans-20" x="350.105469"/>
      <use xlink:href="#DejaVuSans-28" x="381.892578"/>
      <use xlink:href="#DejaVuSans-6b" x="420.90625"/>
      <use xlink:href="#DejaVuSans-63" x="478.816406"/>
      <use xlink:href="#DejaVuSans-61" x="533.796875"/>
      <use xlink:href="#DejaVuSans-6c" x="595.076172"/>
      <use xlink:href="#DejaVuSans-2f" x="622.859375"/>
      <use xlink:href="#DejaVuSans-6d" x="656.550781"/>
      <use xlink:href="#DejaVuSans-6f" x="753.962891"/>
      <use xlink:href="#DejaVuSans-6c" x="815.144531"/>
      <use xlink:href="#DejaVuSans-29" x="842.927734"/>
     </g>
    </g>
   </g>
   <g id="line2d_17">
    <path d="M 87.596121 83.029753 
L 88.037224 80.863667 
L 88.478328 74.290751 
L 88.919432 84.753345 
L 89.801639 71.200614 
L 90.683846 65.58633 
L 91.12495 65.6612 
L 91.566054 70.817107 
L 92.007157 68.088129 
L 92.448261 68.015361 
L 92.889365 79.711734 
L 93.330468 82.807166 
L 93.771572 80.556214 
L 94.212676 80.225357 
L 94.653779 87.649993 
L 95.094883 76.698095 
L 95.535987 87.675567 
L 95.97709 90.658641 
L 96.418194 83.123363 
L 96.859298 86.753157 
L 97.300401 93.25655 
L 97.741505 84.594386 
L 98.182609 96.51056 
L 98.623712 96.06551 
L 99.064816 106.624644 
L 99.50592 98.778978 
L 99.947023 105.161363 
L 100.388127 100.67388 
L 100.829231 102.457957 
L 101.270334 101.043085 
L 101.711438 94.643071 
L 102.152542 104.991695 
L 102.593645 101.746509 
L 103.034749 91.453006 
L 103.475853 92.368127 
L 103.916956 78.04892 
L 104.35806 99.873688 
L 104.799164 92.927274 
L 105.240267 90.984956 
L 105.681371 96.33691 
L 106.122475 105.50426 
L 106.563578 96.429456 
L 107.004682 97.592523 
L 107.445786 95.574498 
L 107.886889 100.665591 
L 108.327993 99.152162 
L 108.769097 98.945057 
L 109.2102 97.899689 
L 109.651304 97.908164 
L 110.533511 103.400585 
L 110.974615 95.019899 
L 111.415719 107.259745 
L 111.856822 100.678226 
L 112.297926 97.057969 
L 112.73903 96.499705 
L 113.180133 93.87554 
L 113.621237 107.441361 
L 114.062341 108.991262 
L 114.503444 107.573864 
L 114.944548 109.107819 
L 115.385652 97.071443 
L 115.826755 99.317195 
L 116.267859 107.332513 
L 116.708963 100.159246 
L 117.150066 97.597464 
L 117.59117 93.882276 
L 118.032274 106.390639 
L 118.473377 104.869064 
L 118.914481 101.752553 
L 119.355585 109.590334 
L 119.796688 94.908897 
L 120.237792 102.776902 
L 120.678896 97.926944 
L 121.119999 95.97706 
L 121.561103 107.409699 
L 122.002207 103.35694 
L 122.44331 106.55639 
L 122.884414 108.168174 
L 123.325518 104.089212 
L 123.766621 107.77821 
L 124.207725 106.249972 
L 124.648829 98.487794 
L 125.089932 99.369338 
L 125.531036 104.246325 
L 125.972139 104.621729 
L 126.413243 96.390746 
L 126.854347 105.455396 
L 127.29545 96.120435 
L 127.736554 95.532317 
L 128.177658 99.298324 
L 128.618761 96.518161 
L 129.059865 95.819356 
L 129.500969 104.675013 
L 129.942072 109.369382 
L 130.383176 102.148003 
L 130.82428 104.691767 
L 131.265383 103.587573 
L 131.706487 108.371598 
L 132.147591 103.176476 
L 132.588694 100.016793 
L 133.029798 103.764254 
L 133.470902 102.17517 
L 133.912005 105.001147 
L 134.353109 103.793114 
L 134.794213 103.474717 
L 135.235316 106.527144 
L 135.67642 104.225681 
L 136.117524 99.999053 
L 136.558627 93.608565 
L 136.999731 91.735202 
L 137.440835 94.08691 
L 137.881938 103.849109 
L 138.323042 106.891888 
L 138.764146 100.469231 
L 139.646353 106.519799 
L 140.087457 104.702224 
L 140.52856 106.828591 
L 140.969664 98.087912 
L 141.410768 110.065871 
L 141.851871 111.719428 
L 142.292975 113.936282 
L 142.734079 117.373614 
L 143.175182 107.991725 
L 144.05739 116.922917 
L 144.498493 98.822838 
L 144.939597 103.309793 
L 145.380701 96.968402 
L 146.262908 109.036688 
L 146.704012 98.169065 
L 147.145115 92.626145 
L 147.586219 107.541258 
L 148.027323 107.546409 
L 148.90953 90.231534 
L 149.350634 91.692371 
L 149.791737 101.093258 
L 150.232841 101.931807 
L 150.673945 104.477427 
L 151.115048 88.770824 
L 151.556152 114.658925 
L 151.997256 109.058559 
L 152.438359 109.621563 
L 152.879463 110.515105 
L 153.320567 110.022424 
L 153.76167 106.45691 
L 154.202774 120.170208 
L 154.643878 119.497675 
L 155.084981 112.583619 
L 155.526085 114.632364 
L 155.967189 115.988078 
L 156.408292 116.552441 
L 156.849396 118.707159 
L 157.2905 119.599566 
L 157.731603 118.064588 
L 158.172707 109.068841 
L 158.613811 102.898875 
L 159.937122 116.577693 
L 160.378225 113.35209 
L 160.819329 112.560068 
L 161.260433 117.14377 
L 161.701536 119.339968 
L 162.14264 124.682537 
L 163.024847 118.984188 
L 163.465951 125.207255 
L 163.907055 119.614145 
L 164.348158 127.651284 
L 164.789262 133.443749 
L 165.230366 124.7777 
L 165.671469 125.04857 
L 166.112573 139.359058 
L 166.553677 130.665347 
L 166.99478 133.015415 
L 167.435884 120.465879 
L 167.876988 123.393826 
L 168.318091 125.447397 
L 168.759195 125.040625 
L 169.200299 135.397702 
L 169.641402 132.246804 
L 170.082506 126.332678 
L 170.52361 132.55274 
L 170.964713 115.374127 
L 171.405817 118.693492 
L 171.846921 125.517951 
L 172.288024 115.080227 
L 172.729128 111.995197 
L 173.170232 119.897063 
L 173.611335 118.264533 
L 174.052439 124.75182 
L 174.493543 117.70179 
L 174.934646 127.271894 
L 175.816854 132.180518 
L 176.257957 123.401412 
L 176.699061 132.84481 
L 177.140165 122.176366 
L 177.581268 122.818577 
L 178.022372 127.78736 
L 178.463476 116.162868 
L 178.904579 117.57961 
L 179.345683 123.707065 
L 179.786787 110.151305 
L 180.22789 110.900461 
L 180.668994 126.064888 
L 181.110098 112.983937 
L 181.551201 115.218806 
L 181.992305 104.598338 
L 182.433409 124.374048 
L 183.315616 107.361293 
L 183.75672 111.074229 
L 184.197823 116.320021 
L 184.638927 114.536029 
L 185.080031 104.68416 
L 185.962238 123.204724 
L 186.403341 125.341768 
L 186.844445 121.46847 
L 187.285549 121.825798 
L 187.726652 131.241218 
L 188.167756 147.426259 
L 188.60886 140.054329 
L 189.491067 132.316952 
L 189.932171 143.368942 
L 190.373274 131.188996 
L 190.814378 134.415593 
L 191.255482 139.720111 
L 191.696585 133.896874 
L 192.137689 134.63751 
L 192.578793 133.215399 
L 193.461 121.90553 
L 193.902104 120.136685 
L 194.343207 124.034511 
L 194.784311 114.313456 
L 195.225415 114.411047 
L 195.666518 117.890618 
L 196.107622 115.898201 
L 196.548726 124.137767 
L 196.989829 121.114707 
L 197.430933 130.600162 
L 198.754244 118.174203 
L 199.195348 133.480774 
L 199.636451 122.603536 
L 200.077555 133.726793 
L 200.959762 126.091032 
L 201.400866 115.895158 
L 201.84197 120.428674 
L 202.283073 117.24849 
L 202.724177 120.270419 
L 203.165281 109.32369 
L 204.047488 123.579528 
L 204.929695 111.86752 
L 205.370799 125.471915 
L 205.811903 124.3879 
L 206.253006 118.40051 
L 206.69411 130.384096 
L 207.135214 120.231884 
L 207.576317 130.198825 
L 208.017421 103.78698 
L 208.458525 119.347827 
L 208.899628 120.180324 
L 209.340732 123.212904 
L 209.781836 104.399052 
L 210.222939 111.353622 
L 210.664043 124.042177 
L 211.105147 116.078832 
L 211.54625 106.079859 
L 211.987354 106.109758 
L 212.428458 124.791892 
L 212.869561 122.832774 
L 213.310665 131.017888 
L 213.751769 123.26083 
L 214.192872 107.675808 
L 215.07508 115.643914 
L 215.957287 121.2214 
L 216.398391 112.070854 
L 216.839494 119.897771 
L 217.280598 121.253915 
L 218.162805 133.515633 
L 218.603909 120.026355 
L 219.045013 123.326846 
L 219.486116 121.392346 
L 219.92722 113.250345 
L 220.368324 129.140756 
L 220.809427 122.565745 
L 221.250531 119.873414 
L 221.691635 114.857794 
L 222.132738 130.555064 
L 222.573842 123.201894 
L 223.014946 125.569302 
L 223.456049 122.670651 
L 223.897153 129.821953 
L 224.338257 134.333316 
L 224.77936 122.291328 
L 225.220464 123.601965 
L 225.661568 124.164802 
L 226.102671 127.944554 
L 226.543775 135.04312 
L 226.984879 132.314652 
L 227.425982 132.898937 
L 227.867086 129.942643 
L 228.30819 130.328038 
L 228.749293 136.93862 
L 229.190397 147.807645 
L 229.631501 151.753085 
L 230.072604 140.051058 
L 230.513708 137.03275 
L 230.954812 141.667052 
L 231.395915 129.877776 
L 231.837019 138.951954 
L 232.278123 133.327248 
L 232.719226 132.91294 
L 233.16033 139.184701 
L 233.601434 152.203739 
L 234.042537 138.121506 
L 234.483641 149.761843 
L 234.924745 132.150337 
L 235.365848 142.135635 
L 235.806952 126.451444 
L 236.248056 132.223965 
L 236.689159 141.561721 
L 237.130263 134.634355 
L 237.571367 142.367429 
L 238.01247 129.837221 
L 238.453574 128.641346 
L 238.894678 143.939911 
L 239.776885 139.434692 
L 240.217989 151.181086 
L 240.659092 141.930623 
L 241.100196 139.514585 
L 241.5413 138.068991 
L 241.982403 149.342641 
L 242.423507 148.794365 
L 242.864611 137.980415 
L 243.305714 135.24411 
L 243.746818 135.075703 
L 244.187922 146.792492 
L 244.629025 134.822693 
L 245.070129 138.975979 
L 245.511233 135.564389 
L 245.952336 144.20123 
L 246.39344 132.360879 
L 246.834543 126.906013 
L 247.275647 138.316696 
L 247.716751 134.372199 
L 248.157854 133.151648 
L 248.598958 138.00717 
L 249.040062 141.511707 
L 249.481165 136.164554 
L 249.922269 137.935421 
L 250.363373 134.105606 
L 250.804476 128.71895 
L 252.127787 142.525558 
L 252.568891 138.767945 
L 253.009995 140.639466 
L 253.451098 138.521796 
L 253.892202 148.807802 
L 254.333306 149.135912 
L 254.774409 142.575955 
L 255.215513 147.974683 
L 255.656617 140.181595 
L 256.09772 138.838748 
L 256.538824 139.036432 
L 256.979928 135.820701 
L 257.421031 140.528308 
L 257.862135 138.042041 
L 258.303239 141.328707 
L 258.744342 142.811582 
L 259.185446 141.579645 
L 259.62655 150.011286 
L 260.067653 148.052926 
L 260.508757 144.644672 
L 260.949861 148.269489 
L 261.832068 139.241347 
L 262.273172 152.034113 
L 262.714275 148.074985 
L 263.155379 140.727155 
L 263.596483 147.346242 
L 264.037586 145.134629 
L 264.919794 147.711431 
L 265.360897 154.077768 
L 265.802001 149.070905 
L 266.243105 140.010509 
L 266.684208 140.381938 
L 267.125312 140.486441 
L 267.566416 139.880607 
L 268.007519 138.164693 
L 268.448623 153.608054 
L 268.889727 151.64965 
L 269.33083 148.338587 
L 269.771934 147.382956 
L 270.213038 142.457227 
L 270.654141 133.380029 
L 271.095245 130.351867 
L 271.536349 147.199702 
L 271.977452 146.737546 
L 272.418556 145.598863 
L 272.85966 157.885608 
L 273.300763 144.362561 
L 273.741867 143.443579 
L 274.182971 140.112625 
L 274.624074 143.620417 
L 275.065178 140.039515 
L 275.506282 147.416149 
L 275.947385 149.889347 
L 276.388489 137.966826 
L 276.829593 147.181852 
L 277.270696 147.268205 
L 277.7118 135.293016 
L 278.152904 142.361792 
L 278.594007 138.640939 
L 279.035111 142.085195 
L 279.476215 137.612679 
L 279.917318 128.129379 
L 280.358422 133.856856 
L 280.799526 132.283768 
L 281.240629 140.788063 
L 281.681733 129.294509 
L 282.122837 137.276799 
L 282.56394 139.724163 
L 283.005044 132.626878 
L 283.446148 141.840454 
L 283.887251 138.87961 
L 284.769459 136.448238 
L 285.210562 161.441773 
L 285.651666 159.687223 
L 286.09277 156.765648 
L 286.533873 165.978393 
L 286.974977 164.85713 
L 287.416081 160.772515 
L 287.857184 163.601757 
L 288.298288 169.818895 
L 288.739392 170.553571 
L 289.621599 151.207956 
L 290.062703 168.754014 
L 290.503806 163.340778 
L 290.94491 173.830408 
L 291.386014 161.944108 
L 291.827117 180.188992 
L 292.268221 155.846311 
L 292.709325 169.867948 
L 293.150428 165.534802 
L 293.591532 166.450949 
L 294.032636 172.411483 
L 294.473739 158.367645 
L 294.914843 172.326725 
L 295.355947 171.39164 
L 295.79705 158.833238 
L 296.238154 151.832356 
L 296.679258 166.103652 
L 297.120361 151.650321 
L 297.561465 141.045187 
L 298.002569 159.399347 
L 298.443672 152.683491 
L 298.884776 154.433383 
L 299.32588 160.907948 
L 299.766983 158.319044 
L 300.208087 172.171808 
L 300.649191 161.532502 
L 301.090294 157.741751 
L 301.531398 170.788505 
L 301.972502 168.949043 
L 302.413605 165.966582 
L 302.854709 161.653236 
L 303.295813 165.37828 
L 303.736916 159.24273 
L 304.17802 159.324814 
L 304.619124 150.490364 
L 305.060227 155.814429 
L 305.942435 173.524356 
L 306.383538 160.34317 
L 306.824642 162.667937 
L 307.265745 164.372266 
L 307.706849 168.665046 
L 308.147953 168.427759 
L 308.589056 174.712188 
L 309.03016 167.927445 
L 309.471264 154.925761 
L 309.912367 164.77564 
L 310.353471 161.24169 
L 311.235678 150.73252 
L 311.676782 149.725872 
L 312.117886 162.014372 
L 312.558989 160.784881 
L 313.000093 155.335216 
L 313.441197 157.734944 
L 313.8823 147.160334 
L 314.323404 150.826205 
L 314.764508 160.49579 
L 315.205611 159.153018 
L 315.646715 166.963521 
L 316.087819 160.732909 
L 316.528922 161.461686 
L 316.970026 154.457947 
L 317.41113 155.447132 
L 317.852233 164.013861 
L 318.293337 156.330953 
L 318.734441 154.41621 
L 319.616648 147.646093 
L 320.057752 156.886789 
L 320.498855 153.337345 
L 320.939959 157.443528 
L 321.381063 159.205549 
L 321.822166 152.759537 
L 322.26327 152.455421 
L 322.704374 153.400121 
L 323.145477 157.674382 
L 323.586581 164.668225 
L 324.027685 159.533093 
L 324.468788 161.885988 
L 324.909892 173.812711 
L 325.350996 175.195358 
L 325.792099 159.596218 
L 326.233203 159.467999 
L 326.674307 176.269826 
L 327.11541 160.374612 
L 327.556514 162.645517 
L 327.997618 175.470344 
L 328.438721 160.297551 
L 328.879825 160.269265 
L 329.320929 166.400325 
L 329.762032 163.09255 
L 330.203136 154.464436 
L 330.64424 154.742516 
L 331.085343 160.87758 
L 331.526447 160.436384 
L 331.967551 154.417265 
L 332.408654 161.138643 
L 332.849758 152.977841 
L 333.290862 157.783881 
L 333.731965 164.603426 
L 334.173069 163.745767 
L 334.614173 161.912688 
L 335.055276 165.786008 
L 335.49638 164.404267 
L 335.937484 165.079068 
L 336.378587 178.510129 
L 336.819691 171.123295 
L 337.260795 168.75415 
L 337.701898 164.445207 
L 338.143002 162.851645 
L 338.584106 157.765907 
L 339.025209 155.970946 
L 339.466313 168.370638 
L 339.907417 150.308146 
L 340.34852 169.222408 
L 340.789624 166.577315 
L 341.230728 168.361261 
L 341.671831 156.448663 
L 342.112935 163.239873 
L 342.554039 147.28052 
L 343.436246 160.962203 
L 343.87735 166.736207 
L 344.318453 170.580982 
L 344.759557 158.328264 
L 345.641764 172.038309 
L 346.082868 156.392031 
L 346.523972 161.904864 
L 346.965075 165.96108 
L 347.406179 162.047106 
L 347.847283 163.551806 
L 348.288386 171.187157 
L 348.72949 166.994297 
L 349.170594 167.934338 
L 349.611697 162.836188 
L 350.052801 165.083995 
L 350.493905 161.744581 
L 350.935008 167.103234 
L 351.376112 157.048333 
L 351.817216 158.384655 
L 352.258319 169.041248 
L 353.140527 152.719038 
L 353.58163 160.845678 
L 354.022734 161.77383 
L 354.463838 166.795895 
L 354.904941 176.91796 
L 355.346045 174.720165 
L 355.787149 170.612645 
L 356.228252 169.893689 
L 356.669356 172.37176 
L 357.11046 172.485846 
L 357.551563 178.684122 
L 357.992667 161.941934 
L 358.433771 179.677561 
L 358.874874 165.649846 
L 359.757082 183.392931 
L 360.639289 169.472488 
L 361.080393 174.635746 
L 361.521496 176.920758 
L 361.9626 181.714633 
L 362.403704 175.793773 
L 362.844807 180.020687 
L 363.285911 173.288346 
L 363.727015 177.47214 
L 364.168118 179.340585 
L 364.609222 176.64249 
L 365.050326 186.340803 
L 365.491429 189.764092 
L 365.932533 168.114991 
L 366.373637 194.216611 
L 366.81474 181.741495 
L 367.255844 177.419607 
L 367.696947 176.154957 
L 368.138051 164.892834 
L 368.579155 172.089066 
L 369.020258 159.389966 
L 369.461362 176.790273 
L 369.902466 160.72254 
L 370.343569 166.334532 
L 370.784673 174.944922 
L 371.225777 163.3905 
L 371.66688 169.953174 
L 372.107984 173.46748 
L 372.990191 171.071475 
L 373.431295 178.064118 
L 373.872399 169.95507 
L 374.313502 178.190684 
L 374.754606 169.16526 
L 375.19571 173.392583 
L 375.636813 171.834451 
L 376.519021 162.973702 
L 376.960124 171.644496 
L 377.401228 159.363091 
L 378.283435 173.08779 
L 378.724539 162.357861 
L 379.165643 162.934402 
L 379.606746 166.032634 
L 380.04785 163.691524 
L 380.488954 150.667652 
L 380.930057 161.276508 
L 381.371161 154.439022 
L 381.812265 159.794777 
L 382.253368 172.517783 
L 382.694472 167.988375 
L 383.135576 171.813683 
L 383.576679 167.994601 
L 384.017783 179.025997 
L 384.458887 181.187349 
L 384.89999 178.345201 
L 385.341094 183.709109 
L 385.782198 174.973328 
L 386.223301 175.552385 
L 386.664405 166.099521 
L 387.105509 182.98055 
L 387.546612 183.640815 
L 387.987716 173.258137 
L 388.42882 188.344064 
L 388.869923 182.73437 
L 389.311027 188.244283 
L 389.752131 188.506437 
L 390.193234 175.214039 
L 390.634338 182.97506 
L 391.075442 167.657798 
L 391.516545 174.273828 
L 391.957649 189.257466 
L 392.398753 162.402363 
L 392.839856 169.758836 
L 393.28096 181.381308 
L 393.722064 175.19767 
L 394.163167 180.464698 
L 394.604271 177.131672 
L 395.045375 176.071223 
L 395.486478 175.702021 
L 395.927582 174.168555 
L 396.368686 185.059434 
L 396.809789 160.964793 
L 397.250893 172.479927 
L 397.691997 174.888782 
L 398.574204 163.300161 
L 399.015308 168.389717 
L 399.456411 169.321759 
L 399.897515 171.072275 
L 400.779722 169.856709 
L 401.220826 175.608423 
L 401.66193 173.108565 
L 402.103033 178.598668 
L 402.544137 174.30608 
L 402.985241 161.139856 
L 403.426344 175.572654 
L 403.867448 164.2363 
L 404.308552 177.032862 
L 404.749655 171.553142 
L 405.190759 181.533855 
L 405.631863 182.165318 
L 406.072966 179.061385 
L 406.51407 178.955315 
L 406.955174 177.572297 
L 407.396277 171.712843 
L 408.278485 168.222685 
L 408.719588 164.236802 
L 409.160692 162.839128 
L 409.601796 166.081085 
L 410.042899 164.256545 
L 410.484003 169.72377 
L 410.925107 157.541987 
L 411.36621 166.347847 
L 411.807314 169.209069 
L 412.248418 170.417779 
L 412.689521 177.105707 
L 413.130625 168.580989 
L 413.571729 168.699573 
L 414.012832 173.479765 
L 414.453936 166.492823 
L 414.89504 172.024036 
L 415.336143 170.669079 
L 415.777247 168.16004 
L 416.218351 169.805326 
L 416.659454 175.969819 
L 417.100558 188.531606 
L 417.541662 175.192359 
L 417.982765 176.63497 
L 418.423869 166.392724 
L 418.864973 165.424718 
L 419.306076 171.035793 
L 419.74718 170.62433 
L 420.188284 177.188662 
L 420.629387 168.212747 
L 421.070491 170.407316 
L 421.511595 171.027825 
L 421.952698 163.783636 
L 422.393802 172.022814 
L 422.834906 163.810575 
L 423.276009 173.832856 
L 423.717113 174.427452 
L 424.158217 175.526497 
L 424.59932 187.698522 
L 425.040424 176.035215 
L 425.481528 181.332881 
L 425.922631 169.609447 
L 426.363735 184.114874 
L 426.804839 180.602877 
L 427.245942 169.305999 
L 427.687046 161.315099 
L 428.128149 178.547882 
L 428.569253 168.314036 
L 429.010357 171.845485 
L 429.45146 165.112096 
L 429.892564 176.557264 
L 430.333668 169.236708 
L 430.774771 167.173439 
L 431.215875 186.220855 
L 431.656979 183.695664 
L 432.098082 178.786541 
L 432.539186 175.289273 
L 432.98029 175.891642 
L 433.421393 181.501638 
L 433.862497 171.319818 
L 434.303601 173.532418 
L 435.185808 164.277181 
L 435.626912 167.269361 
L 436.068015 163.92341 
L 436.509119 167.86004 
L 436.950223 156.275895 
L 437.391326 169.743047 
L 437.83243 164.371204 
L 438.273534 155.506838 
L 438.714637 152.481564 
L 439.155741 175.632764 
L 439.596845 157.416941 
L 440.037948 163.70667 
L 440.479052 174.825913 
L 440.920156 153.09914 
L 441.361259 163.63377 
L 441.802363 156.680548 
L 442.243467 157.345778 
L 442.68457 162.180402 
L 443.125674 169.739948 
L 443.566778 171.926492 
L 444.007881 163.998312 
L 444.448985 178.328074 
L 445.331192 160.925943 
L 445.772296 167.699584 
L 446.2134 169.423194 
L 446.654503 167.248765 
L 447.095607 163.246312 
L 447.536711 178.037306 
L 447.977814 157.993011 
L 448.418918 169.018065 
L 448.860022 167.609472 
L 449.301125 174.00148 
L 449.742229 159.952111 
L 450.183333 169.045392 
L 450.624436 171.896071 
L 451.06554 163.121199 
L 451.506644 177.403583 
L 451.947747 150.642949 
L 452.388851 174.868876 
L 452.829955 179.603968 
L 453.271058 188.258182 
L 453.712162 168.625383 
L 454.153266 177.69486 
L 454.594369 173.806835 
L 455.035473 182.739431 
L 455.476577 170.025545 
L 455.91768 170.813709 
L 456.799888 181.10484 
L 457.240991 182.126466 
L 457.682095 174.147594 
L 458.123199 170.753197 
L 458.564302 183.582535 
L 459.005406 170.687871 
L 459.44651 173.361187 
L 459.887613 168.82554 
L 460.328717 157.836209 
L 460.769821 173.488677 
L 461.210924 168.540904 
L 461.652028 172.937199 
L 462.093132 169.728151 
L 462.534235 161.084389 
L 462.975339 145.263099 
L 463.416443 162.155629 
L 463.857546 161.688813 
L 464.29865 173.514412 
L 464.739754 157.035938 
L 465.180857 167.750237 
L 465.621961 153.844156 
L 466.504168 172.57456 
L 467.386376 155.589396 
L 467.827479 167.065313 
L 468.709687 153.223733 
L 469.15079 167.557149 
L 469.591894 167.583878 
L 470.032998 167.795405 
L 470.474101 169.369578 
L 470.915205 158.235279 
L 471.356309 157.12687 
L 471.797412 168.085298 
L 472.238516 153.618059 
L 472.67962 167.937559 
L 473.120723 157.774193 
L 473.561827 169.666083 
L 474.002931 159.066306 
L 474.444034 161.901413 
L 474.885138 173.792337 
L 475.326242 159.900809 
L 475.767345 158.713614 
L 476.208449 163.176419 
L 476.649553 153.794171 
L 477.090656 154.082816 
L 477.53176 144.093454 
L 477.972864 138.021113 
L 478.413967 146.173831 
L 478.855071 146.888746 
L 479.296175 153.879856 
L 479.737278 158.788709 
L 480.178382 148.155395 
L 480.619486 151.688711 
L 481.060589 152.801754 
L 481.501693 165.537156 
L 481.942797 149.762281 
L 482.3839 160.837082 
L 482.825004 158.39831 
L 483.266108 163.243103 
L 483.707211 155.476886 
L 484.148315 158.73142 
L 484.589419 157.849396 
L 485.030522 166.52311 
L 485.471626 167.097206 
L 486.353833 148.757021 
L 486.794937 162.678615 
L 487.236041 158.658117 
L 487.677144 160.673066 
L 488.118248 177.068762 
L 488.559351 167.21137 
L 489.000455 177.550676 
L 489.441559 172.639566 
L 489.882662 160.903504 
L 490.323766 155.823173 
L 490.76487 159.173496 
L 491.205973 173.255301 
L 491.647077 164.302083 
L 492.088181 176.480409 
L 492.529284 160.054962 
L 492.970388 169.483341 
L 493.411492 167.766605 
L 493.852595 179.379872 
L 494.293699 171.21434 
L 494.734803 165.89223 
L 495.175906 142.127516 
L 495.61701 168.700283 
L 496.058114 162.948013 
L 496.499217 169.163774 
L 496.940321 149.389613 
L 497.381425 165.533681 
L 497.822528 163.783139 
L 498.263632 168.8075 
L 498.704736 172.51072 
L 499.145839 159.27229 
L 499.586943 150.908892 
L 500.028047 153.144287 
L 500.46915 157.521268 
L 500.910254 158.314678 
L 501.351358 166.002962 
L 501.792461 155.402366 
L 502.233565 152.730291 
L 502.674669 156.698985 
L 503.115772 168.657423 
L 503.556876 160.488815 
L 503.99798 159.684338 
L 504.880187 167.987932 
L 505.321291 162.57155 
L 505.762394 155.205627 
L 506.203498 153.795292 
L 506.644602 169.6183 
L 507.085705 158.416421 
L 507.526809 157.008009 
L 507.967913 168.369813 
L 508.409016 155.389612 
L 508.85012 159.685028 
L 509.291224 162.65865 
L 509.732327 151.561379 
L 510.173431 169.339523 
L 510.614535 160.274547 
L 511.055638 179.209444 
L 511.496742 150.941808 
L 511.937846 147.852101 
L 512.378949 156.973286 
L 512.820053 150.471339 
L 513.70226 158.856193 
L 514.143364 163.4735 
L 514.584468 166.565588 
L 515.025571 164.947521 
L 515.466675 167.480529 
L 515.907779 166.214997 
L 516.348882 162.197809 
L 516.789986 160.864644 
L 517.23109 163.032803 
L 517.672193 164.340989 
L 518.554401 156.066695 
L 519.877712 177.608409 
L 520.318815 176.552155 
L 520.759919 168.836437 
L 521.201023 163.987362 
L 521.642126 170.791352 
L 522.08323 161.476391 
L 522.524334 163.612593 
L 522.965437 173.07247 
L 523.406541 172.094507 
L 523.847645 163.822529 
L 524.288748 168.636918 
L 524.729852 166.135448 
L 525.170956 162.664555 
L 525.612059 165.693448 
L 526.053163 157.343673 
L 526.494267 161.828286 
L 526.93537 148.933798 
L 527.817578 158.216542 
L 528.258681 156.269207 
L 528.699785 147.153467 
L 528.699785 147.153467 
" clip-path="url(#pfb920da2e8)" style="fill: none; stroke: #000000; stroke-width: 0.7; stroke-linecap: round"/>
   </g>
   <g id="line2d_18">
    <path d="M 109.2102 88.700142 
L 110.092408 89.393465 
L 110.533511 89.975661 
L 110.974615 90.180992 
L 113.621237 93.841194 
L 114.503444 95.450426 
L 114.944548 96.038348 
L 115.826755 96.698853 
L 116.267859 97.240996 
L 116.708963 97.491181 
L 117.150066 97.909169 
L 117.59117 98.033303 
L 119.796688 99.615811 
L 120.678896 99.778366 
L 121.119999 99.565415 
L 121.561103 99.738029 
L 122.002207 99.701941 
L 124.207725 100.282586 
L 124.648829 100.217412 
L 125.531036 100.613302 
L 125.972139 101.144758 
L 126.413243 101.0751 
L 126.854347 101.325662 
L 127.29545 101.428372 
L 129.500969 101.436482 
L 130.383176 101.670475 
L 132.147591 102.158937 
L 132.588694 102.091261 
L 133.029798 102.266148 
L 133.470902 102.164456 
L 134.794213 102.525118 
L 135.235316 102.77815 
L 135.67642 102.713836 
L 136.558627 102.254686 
L 136.999731 101.907234 
L 137.440835 101.847543 
L 138.323042 101.929369 
L 139.205249 102.050747 
L 139.646353 102.303497 
L 141.410768 102.245138 
L 142.734079 103.193469 
L 143.175182 103.433762 
L 143.616286 103.537248 
L 144.05739 103.808568 
L 145.380701 103.414313 
L 145.821804 103.311132 
L 146.704012 103.360492 
L 147.145115 103.225628 
L 148.468426 103.379867 
L 148.90953 103.07539 
L 149.350634 102.986828 
L 150.673945 103.309902 
L 151.115048 103.168932 
L 151.556152 103.36861 
L 151.997256 103.362393 
L 153.320567 103.757028 
L 153.76167 103.718735 
L 155.084981 104.624614 
L 161.701536 108.359973 
L 163.024847 109.47679 
L 163.465951 109.779617 
L 164.348158 110.211812 
L 166.112573 111.566948 
L 166.99478 112.797911 
L 167.876988 113.683353 
L 168.318091 114.011568 
L 168.759195 114.548999 
L 169.200299 115.40443 
L 172.288024 118.761996 
L 172.729128 118.912351 
L 173.170232 119.534876 
L 173.611335 119.606988 
L 174.052439 119.920854 
L 174.493543 120.082458 
L 175.37575 120.806496 
L 175.816854 121.320968 
L 176.257957 121.385592 
L 177.140165 121.84439 
L 178.463476 122.236308 
L 180.22789 122.174274 
L 180.668994 122.637594 
L 181.551201 122.841739 
L 181.992305 122.602152 
L 182.433409 122.822591 
L 182.874512 122.897241 
L 185.521134 121.718059 
L 185.962238 121.789871 
L 186.403341 121.743681 
L 186.844445 121.504175 
L 187.285549 121.445137 
L 189.049963 121.972328 
L 189.491067 122.209349 
L 189.932171 122.608852 
L 193.461 123.501756 
L 193.902104 123.394131 
L 194.343207 123.573217 
L 194.784311 123.619582 
L 196.107622 123.325311 
L 196.548726 123.45403 
L 196.989829 123.330887 
L 197.430933 123.353539 
L 198.754244 122.920173 
L 199.195348 123.146261 
L 199.636451 123.14196 
L 200.077555 123.260749 
L 200.959762 123.696662 
L 201.400866 123.540424 
L 202.283073 123.872932 
L 203.165281 123.683837 
L 203.606384 123.7159 
L 204.047488 124.095523 
L 204.929695 123.868165 
L 205.811903 124.496651 
L 206.253006 124.538261 
L 207.576317 125.485838 
L 208.017421 125.097484 
L 208.899628 124.951842 
L 209.340732 124.979584 
L 209.781836 124.442741 
L 210.222939 123.721288 
L 211.105147 123.008099 
L 211.54625 122.483357 
L 211.987354 121.738174 
L 212.869561 121.378575 
L 213.751769 120.99181 
L 214.633976 120.022913 
L 215.07508 119.800776 
L 216.398391 119.507956 
L 217.721702 119.9525 
L 218.162805 120.304849 
L 218.603909 120.22262 
L 219.045013 120.266863 
L 219.92722 119.815033 
L 220.809427 120.046676 
L 221.691635 119.619614 
L 223.014946 119.42084 
L 223.897153 119.744215 
L 224.338257 120.085912 
L 224.77936 120.12633 
L 225.220464 120.411896 
L 226.102671 120.646054 
L 226.984879 121.407235 
L 228.749293 122.036511 
L 230.513708 124.098092 
L 230.954812 124.527826 
L 231.395915 124.661124 
L 231.837019 125.352182 
L 232.278123 125.791654 
L 232.719226 125.969069 
L 233.16033 126.431187 
L 233.601434 127.353664 
L 234.483641 128.493298 
L 235.806952 128.965817 
L 237.571367 130.917656 
L 238.01247 131.089973 
L 238.453574 131.421383 
L 239.335781 132.30681 
L 240.217989 132.895 
L 241.100196 133.65684 
L 241.5413 133.990373 
L 241.982403 134.712219 
L 242.864611 135.413585 
L 245.952336 137.496115 
L 246.39344 137.456667 
L 246.834543 137.54896 
L 247.716751 138.047403 
L 250.363373 138.695486 
L 250.804476 138.531093 
L 251.686684 137.975431 
L 253.451098 138.211953 
L 255.215513 139.094304 
L 255.656617 138.853861 
L 256.09772 138.868206 
L 256.538824 138.653697 
L 257.862135 138.92677 
L 258.303239 139.108865 
L 258.744342 139.133862 
L 259.62655 139.425645 
L 260.508757 140.110026 
L 261.390964 140.243515 
L 262.273172 140.256709 
L 263.596483 140.589393 
L 264.47869 140.457874 
L 264.919794 140.652494 
L 265.802001 141.309071 
L 266.243105 141.173431 
L 267.566416 141.40115 
L 268.007519 141.280419 
L 268.889727 142.200235 
L 270.213038 142.847 
L 270.654141 142.754457 
L 271.095245 142.53126 
L 272.418556 143.157871 
L 272.85966 143.741204 
L 273.300763 143.963871 
L 273.741867 144.061774 
L 274.182971 144.013515 
L 275.947385 144.298084 
L 276.388489 144.074702 
L 277.270696 144.15269 
L 277.7118 144.054919 
L 279.035111 144.24276 
L 279.476215 144.184447 
L 280.799526 143.626201 
L 281.240629 143.610369 
L 281.681733 143.196034 
L 283.005044 142.569249 
L 283.887251 142.522262 
L 284.769459 142.001806 
L 285.210562 142.416098 
L 286.09277 142.895538 
L 286.974977 143.629491 
L 287.416081 143.763386 
L 287.857184 144.054003 
L 288.739392 145.253604 
L 289.180495 145.643011 
L 289.621599 145.869558 
L 290.062703 146.481345 
L 290.503806 146.675999 
L 290.94491 147.119614 
L 291.386014 147.391725 
L 291.827117 148.047846 
L 292.268221 148.315627 
L 293.150428 149.749044 
L 295.79705 152.040121 
L 296.238154 152.274515 
L 296.679258 152.72418 
L 297.120361 152.956396 
L 297.561465 152.828977 
L 298.884776 153.458541 
L 299.32588 153.731336 
L 301.090294 155.559019 
L 303.736916 159.359281 
L 304.17802 159.800242 
L 304.619124 160.015566 
L 305.501331 160.922793 
L 305.942435 161.615688 
L 306.824642 162.594185 
L 307.265745 162.652795 
L 309.03016 163.301676 
L 309.471264 163.18474 
L 309.912367 163.208218 
L 310.794575 162.755637 
L 311.235678 162.571151 
L 312.117886 162.406717 
L 312.558989 162.355599 
L 313.000093 161.985695 
L 313.441197 161.901512 
L 313.8823 161.240938 
L 314.764508 160.953093 
L 315.205611 160.825457 
L 315.646715 160.835709 
L 316.087819 160.602137 
L 316.528922 160.664018 
L 317.41113 159.987752 
L 318.293337 160.181337 
L 318.734441 159.947588 
L 319.175544 159.936032 
L 319.616648 160.06805 
L 320.498855 160.030876 
L 321.381063 160.057031 
L 321.822166 159.94584 
L 322.26327 159.551513 
L 322.704374 159.388865 
L 323.145477 159.387518 
L 324.468788 158.995181 
L 325.350996 159.434712 
L 326.233203 159.444646 
L 326.674307 159.960235 
L 327.11541 160.051439 
L 328.879825 160.014097 
L 329.320929 160.054658 
L 329.762032 159.943208 
L 331.085343 159.123551 
L 331.526447 159.233764 
L 331.967551 159.026596 
L 333.290862 159.095085 
L 333.731965 159.392636 
L 334.614173 159.44982 
L 335.937484 160.150597 
L 336.378587 160.704275 
L 337.260795 161.108848 
L 338.584106 161.026941 
L 339.025209 161.057201 
L 339.466313 161.315671 
L 339.907417 161.041557 
L 341.671831 162.064435 
L 342.112935 162.191496 
L 342.995142 162.012075 
L 343.436246 162.047208 
L 344.759557 162.787816 
L 345.641764 163.077335 
L 346.965075 162.857859 
L 347.406179 162.594894 
L 347.847283 162.674006 
L 348.288386 162.908389 
L 348.72949 162.722878 
L 349.170594 162.874073 
L 349.611697 162.877886 
L 350.052801 162.670159 
L 351.376112 162.648739 
L 351.817216 162.554581 
L 352.258319 162.846118 
L 352.699423 162.951379 
L 353.140527 162.788208 
L 353.58163 162.796394 
L 354.463838 163.05667 
L 355.346045 163.874198 
L 357.11046 164.460519 
L 357.551563 164.746116 
L 358.874874 164.597253 
L 359.315978 164.733334 
L 360.198185 165.389576 
L 360.639289 165.623708 
L 361.080393 165.997004 
L 361.521496 166.168006 
L 361.9626 166.796136 
L 362.403704 166.927563 
L 362.844807 167.196431 
L 363.285911 167.294972 
L 364.609222 168.624695 
L 365.491429 169.836964 
L 365.932533 169.864539 
L 366.81474 170.805516 
L 367.255844 171.058303 
L 368.138051 171.310652 
L 368.579155 171.514336 
L 369.020258 171.382914 
L 369.461362 171.677777 
L 370.343569 171.524139 
L 370.784673 171.683152 
L 371.225777 171.592275 
L 372.990191 172.191392 
L 373.431295 172.611707 
L 376.077917 173.962079 
L 376.960124 173.780166 
L 377.401228 173.473024 
L 377.842332 173.393914 
L 378.283435 173.457796 
L 379.606746 172.81346 
L 380.04785 172.848452 
L 380.488954 172.268253 
L 380.930057 172.180787 
L 381.812265 171.28644 
L 384.017783 170.884056 
L 384.458887 170.991927 
L 384.89999 170.958418 
L 385.341094 171.166833 
L 386.223301 171.041093 
L 386.664405 170.830233 
L 387.546612 170.640563 
L 387.987716 170.743426 
L 388.42882 170.625975 
L 388.869923 170.645832 
L 391.075442 171.698856 
L 391.516545 171.648527 
L 391.957649 172.219226 
L 392.839856 172.036861 
L 393.28096 172.396677 
L 395.045375 172.839505 
L 395.486478 172.792263 
L 396.368686 173.013908 
L 396.809789 172.849899 
L 397.691997 172.892732 
L 399.456411 173.053162 
L 399.897515 173.141464 
L 400.338619 173.087415 
L 401.66193 173.632391 
L 402.103033 173.930533 
L 402.544137 174.403302 
L 402.985241 174.400569 
L 403.426344 174.823242 
L 405.190759 175.268072 
L 405.631863 175.551487 
L 406.955174 175.492096 
L 407.396277 175.252171 
L 408.719588 174.968266 
L 409.601796 174.214243 
L 410.042899 174.034211 
L 410.925107 173.157957 
L 411.807314 172.334081 
L 413.571729 172.027748 
L 414.012832 171.712194 
L 414.89504 171.839307 
L 416.218351 171.271122 
L 416.659454 171.247885 
L 417.100558 171.497093 
L 417.982765 171.536228 
L 418.423869 171.162894 
L 418.864973 171.252092 
L 419.74718 171.137921 
L 420.629387 171.405112 
L 421.511595 171.479586 
L 421.952698 171.333813 
L 422.393802 171.366563 
L 423.276009 171.210129 
L 424.158217 171.175063 
L 425.481528 171.856024 
L 426.804839 172.286122 
L 427.245942 172.041564 
L 427.687046 171.62456 
L 428.128149 171.61429 
L 429.010357 171.286928 
L 429.45146 171.154913 
L 430.333668 171.306929 
L 430.774771 171.365661 
L 431.656979 172.185588 
L 432.098082 172.476187 
L 432.539186 172.587498 
L 433.421393 173.257566 
L 434.303601 173.362074 
L 435.185808 173.099536 
L 435.626912 173.070932 
L 436.068015 172.879805 
L 436.509119 172.907149 
L 436.950223 172.592186 
L 437.83243 172.497889 
L 438.273534 172.211919 
L 438.714637 171.742154 
L 440.037948 170.870103 
L 440.479052 171.038767 
L 442.68457 169.847834 
L 444.007881 169.856754 
L 444.890089 170.101043 
L 445.772296 169.708347 
L 446.2134 169.586281 
L 446.654503 169.177286 
L 447.095607 168.921508 
L 447.536711 168.855596 
L 448.860022 168.061463 
L 449.301125 168.155373 
L 449.742229 168.128113 
L 450.183333 167.938063 
L 450.624436 168.009704 
L 451.06554 167.835218 
L 451.506644 168.081048 
L 451.947747 167.562762 
L 452.388851 167.675405 
L 452.829955 167.924016 
L 453.271058 167.964762 
L 453.712162 167.663357 
L 454.594369 167.611874 
L 455.035473 167.74883 
L 455.476577 167.519308 
L 456.358784 167.556855 
L 457.682095 168.30785 
L 458.123199 168.444446 
L 459.005406 169.047136 
L 460.328717 169.255173 
L 460.769821 169.675315 
L 461.210924 169.533478 
L 461.652028 169.843883 
L 462.093132 169.964312 
L 462.975339 169.532761 
L 463.416443 169.503198 
L 463.857546 169.603363 
L 464.29865 169.926736 
L 465.180857 169.784053 
L 465.621961 169.422406 
L 466.504168 169.280974 
L 467.386376 169.053695 
L 467.827479 169.041009 
L 468.709687 168.564432 
L 469.15079 168.650649 
L 469.591894 168.44158 
L 470.032998 168.637628 
L 470.474101 168.644659 
L 470.915205 168.457175 
L 471.356309 168.119683 
L 471.797412 168.282346 
L 472.238516 167.9738 
L 473.561827 167.632939 
L 474.002931 167.801406 
L 474.444034 167.542057 
L 474.885138 167.425824 
L 475.326242 166.858677 
L 476.208449 166.370073 
L 476.649553 165.96982 
L 479.737278 162.070921 
L 480.178382 161.618965 
L 480.619486 160.981088 
L 481.060589 160.623366 
L 481.501693 160.466885 
L 481.942797 160.08562 
L 482.3839 160.145638 
L 482.825004 159.84383 
L 483.266108 159.737874 
L 484.148315 159.168733 
L 484.589419 159.104033 
L 485.030522 159.529234 
L 485.471626 159.628065 
L 485.91273 159.535614 
L 486.353833 159.040466 
L 486.794937 159.153319 
L 487.236041 158.971477 
L 487.677144 159.108055 
L 488.118248 159.395826 
L 488.559351 159.288562 
L 489.441559 159.906732 
L 490.323766 159.707572 
L 491.205973 159.94053 
L 491.647077 159.874894 
L 492.088181 160.048594 
L 492.529284 159.862302 
L 494.293699 160.877875 
L 494.734803 160.836968 
L 495.175906 160.524035 
L 496.058114 160.582353 
L 496.499217 160.7276 
L 496.940321 160.239546 
L 498.263632 160.566215 
L 498.704736 160.940546 
L 499.586943 161.180644 
L 500.46915 161.710057 
L 501.351358 162.181037 
L 501.792461 162.113311 
L 502.674669 162.305014 
L 503.115772 162.622127 
L 503.556876 162.521161 
L 503.99798 162.719602 
L 504.439083 162.782816 
L 504.880187 162.974608 
L 506.203498 162.85703 
L 506.644602 163.092408 
L 507.526809 162.72849 
L 508.409016 163.087213 
L 508.85012 163.027342 
L 509.291224 163.107352 
L 510.614535 162.631797 
L 511.055638 162.664973 
L 511.496742 162.231018 
L 511.937846 161.96999 
L 512.378949 161.992992 
L 512.820053 161.818949 
L 513.261157 161.458853 
L 513.70226 161.349935 
L 514.143364 161.089797 
L 514.584468 161.22001 
L 515.907779 160.860274 
L 516.789986 160.579392 
L 517.23109 160.997498 
L 518.113297 160.849939 
L 518.554401 160.587997 
L 518.995504 160.871521 
L 519.436608 161.016089 
L 520.318815 161.447487 
L 520.759919 161.374002 
L 521.201023 161.468303 
L 521.642126 161.865952 
L 523.847645 162.739811 
L 524.729852 163.246673 
L 525.170956 163.126815 
L 525.612059 163.230908 
L 526.494267 163.140705 
L 526.93537 162.759622 
L 527.376474 162.575893 
L 528.258681 162.685589 
L 528.699785 162.236293 
L 528.699785 162.236293 
" clip-path="url(#pfb920da2e8)" style="fill: none; stroke-dasharray: 2.96,1.28; stroke-dashoffset: 0; stroke: #ff0000; stroke-width: 0.8"/>
   </g>
   <g id="patch_3">
    <path d="M 65.540937 200.648125 
L 65.540937 59.154816 
" style="fill: none; stroke: #ffffff; stroke-width: 1.25; stroke-linejoin: miter; stroke-linecap: square"/>
   </g>
   <g id="patch_4">
    <path d="M 550.754968 200.648125 
L 550.754968 59.154816 
" style="fill: none; stroke: #ffffff; stroke-width: 1.25; stroke-linejoin: miter; stroke-linecap: square"/>
   </g>
   <g id="patch_5">
    <path d="M 65.540937 200.648125 
L 550.754968 200.648125 
" style="fill: none; stroke: #ffffff; stroke-width: 1.25; stroke-linejoin: miter; stroke-linecap: square"/>
   </g>
   <g id="patch_6">
    <path d="M 65.540937 59.154816 
L 550.754968 59.154816 
" style="fill: none; stroke: #ffffff; stroke-width: 1.25; stroke-linejoin: miter; stroke-linecap: square"/>
   </g>
   <g id="legend_1">
    <g id="patch_7">
     <path d="M 478.915281 196.148125 
L 544.454968 196.148125 
Q 546.254968 196.148125 546.254968 194.348125 
L 546.254968 168.8275 
Q 546.254968 167.0275 544.454968 167.0275 
L 478.915281 167.0275 
Q 477.115281 167.0275 477.115281 168.8275 
L 477.115281 194.348125 
Q 477.115281 196.148125 478.915281 196.148125 
z
" style="fill: #eaeaf2; opacity: 0.8; stroke: #cccccc; stroke-linejoin: miter"/>
    </g>
    <g id="line2d_19">
     <path d="M 480.715281 174.316094 
L 489.715281 174.316094 
L 498.715281 174.316094 
" style="fill: none; stroke: #000000; stroke-width: 0.7; stroke-linecap: round"/>
    </g>
    <g id="text_19">
     <!-- TOTAL -->
     <g style="fill: #262626" transform="translate(505.915281 177.466094)scale(0.09 -0.09)">
      <defs>
       <path id="DejaVuSans-54" d="M -19 4666 
L 3928 4666 
L 3928 4134 
L 2272 4134 
L 2272 0 
L 1638 0 
L 1638 4134 
L -19 4134 
L -19 4666 
z
" transform="scale(0.015625)"/>
       <path id="DejaVuSans-4f" d="M 2522 4238 
Q 1834 4238 1429 3725 
Q 1025 3213 1025 2328 
Q 1025 1447 1429 934 
Q 1834 422 2522 422 
Q 3209 422 3611 934 
Q 4013 1447 4013 2328 
Q 4013 3213 3611 3725 
Q 3209 4238 2522 4238 
z
M 2522 4750 
Q 3503 4750 4090 4092 
Q 4678 3434 4678 2328 
Q 4678 1225 4090 567 
Q 3503 -91 2522 -91 
Q 1538 -91 948 565 
Q 359 1222 359 2328 
Q 359 3434 948 4092 
Q 1538 4750 2522 4750 
z
" transform="scale(0.015625)"/>
       <path id="DejaVuSans-41" d="M 2188 4044 
L 1331 1722 
L 3047 1722 
L 2188 4044 
z
M 1831 4666 
L 2547 4666 
L 4325 0 
L 3669 0 
L 3244 1197 
L 1141 1197 
L 716 0 
L 50 0 
L 1831 4666 
z
" transform="scale(0.015625)"/>
       <path id="DejaVuSans-4c" d="M 628 4666 
L 1259 4666 
L 1259 531 
L 3531 531 
L 3531 0 
L 628 0 
L 628 4666 
z
" transform="scale(0.015625)"/>
      </defs>
      <use xlink:href="#DejaVuSans-54"/>
      <use xlink:href="#DejaVuSans-4f" x="61.083984"/>
      <use xlink:href="#DejaVuSans-54" x="139.794922"/>
      <use xlink:href="#DejaVuSans-41" x="193.128906"/>
      <use xlink:href="#DejaVuSans-4c" x="261.537109"/>
     </g>
    </g>
    <g id="line2d_20">
     <path d="M 480.715281 187.526406 
L 489.715281 187.526406 
L 498.715281 187.526406 
" style="fill: none; stroke-dasharray: 2.96,1.28; stroke-dashoffset: 0; stroke: #ff0000; stroke-width: 0.8"/>
    </g>
    <g id="text_20">
     <!-- Mov. Av. -->
     <g style="fill: #262626" transform="translate(505.915281 190.676406)scale(0.09 -0.09)">
      <defs>
       <path id="DejaVuSans-4d" d="M 628 4666 
L 1569 4666 
L 2759 1491 
L 3956 4666 
L 4897 4666 
L 4897 0 
L 4281 0 
L 4281 4097 
L 3078 897 
L 2444 897 
L 1241 4097 
L 1241 0 
L 628 0 
L 628 4666 
z
" transform="scale(0.015625)"/>
       <path id="DejaVuSans-76" d="M 191 3500 
L 800 3500 
L 1894 563 
L 2988 3500 
L 3597 3500 
L 2284 0 
L 1503 0 
L 191 3500 
z
" transform="scale(0.015625)"/>
       <path id="DejaVuSans-2e" d="M 684 794 
L 1344 794 
L 1344 0 
L 684 0 
L 684 794 
z
" transform="scale(0.015625)"/>
      </defs>
      <use xlink:href="#DejaVuSans-4d"/>
      <use xlink:href="#DejaVuSans-6f" x="86.279297"/>
      <use xlink:href="#DejaVuSans-76" x="147.460938"/>
      <use xlink:href="#DejaVuSans-2e" x="198.890625"/>
      <use xlink:href="#DejaVuSans-20" x="230.677734"/>
      <use xlink:href="#DejaVuSans-41" x="262.464844"/>
      <use xlink:href="#DejaVuSans-76" x="324.998047"/>
      <use xlink:href="#DejaVuSans-2e" x="376.427734"/>
     </g>
    </g>
   </g>
  </g>
  <g id="text_21">
   <!-- Energetic Components -->
   <g style="fill: #262626" transform="translate(208.277656 15.605813)scale(0.14 -0.14)">
    <defs>
     <path id="DejaVuSans-74" d="M 1172 4494 
L 1172 3500 
L 2356 3500 
L 2356 3053 
L 1172 3053 
L 1172 1153 
Q 1172 725 1289 603 
Q 1406 481 1766 481 
L 2356 481 
L 2356 0 
L 1766 0 
Q 1100 0 847 248 
Q 594 497 594 1153 
L 594 3053 
L 172 3053 
L 172 3500 
L 594 3500 
L 594 4494 
L 1172 4494 
z
" transform="scale(0.015625)"/>
     <path id="DejaVuSans-69" d="M 603 3500 
L 1178 3500 
L 1178 0 
L 603 0 
L 603 3500 
z
M 603 4863 
L 1178 4863 
L 1178 4134 
L 603 4134 
L 603 4863 
z
" transform="scale(0.015625)"/>
     <path id="DejaVuSans-43" d="M 4122 4306 
L 4122 3641 
Q 3803 3938 3442 4084 
Q 3081 4231 2675 4231 
Q 1875 4231 1450 3742 
Q 1025 3253 1025 2328 
Q 1025 1406 1450 917 
Q 1875 428 2675 428 
Q 3081 428 3442 575 
Q 3803 722 4122 1019 
L 4122 359 
Q 3791 134 3420 21 
Q 3050 -91 2638 -91 
Q 1578 -91 968 557 
Q 359 1206 359 2328 
Q 359 3453 968 4101 
Q 1578 4750 2638 4750 
Q 3056 4750 3426 4639 
Q 3797 4528 4122 4306 
z
" transform="scale(0.015625)"/>
     <path id="DejaVuSans-70" d="M 1159 525 
L 1159 -1331 
L 581 -1331 
L 581 3500 
L 1159 3500 
L 1159 2969 
Q 1341 3281 1617 3432 
Q 1894 3584 2278 3584 
Q 2916 3584 3314 3078 
Q 3713 2572 3713 1747 
Q 3713 922 3314 415 
Q 2916 -91 2278 -91 
Q 1894 -91 1617 61 
Q 1341 213 1159 525 
z
M 3116 1747 
Q 3116 2381 2855 2742 
Q 2594 3103 2138 3103 
Q 1681 3103 1420 2742 
Q 1159 2381 1159 1747 
Q 1159 1113 1420 752 
Q 1681 391 2138 391 
Q 2594 391 2855 752 
Q 3116 1113 3116 1747 
z
" transform="scale(0.015625)"/>
    </defs>
    <use xlink:href="#DejaVuSans-45"/>
    <use xlink:href="#DejaVuSans-6e" x="63.183594"/>
    <use xlink:href="#DejaVuSans-65" x="126.5625"/>
    <use xlink:href="#DejaVuSans-72" x="188.085938"/>
    <use xlink:href="#DejaVuSans-67" x="227.449219"/>
    <use xlink:href="#DejaVuSans-65" x="290.925781"/>
    <use xlink:href="#DejaVuSans-74" x="352.449219"/>
    <use xlink:href="#DejaVuSans-69" x="391.658203"/>
    <use xlink:href="#DejaVuSans-63" x="419.441406"/>
    <use xlink:href="#DejaVuSans-20" x="474.421875"/>
    <use xlink:href="#DejaVuSans-43" x="506.208984"/>
    <use xlink:href="#DejaVuSans-6f" x="576.033203"/>
    <use xlink:href="#DejaVuSans-6d" x="637.214844"/>
    <use xlink:href="#DejaVuSans-70" x="734.626953"/>
    <use xlink:href="#DejaVuSans-6f" x="798.103516"/>
    <use xlink:href="#DejaVuSans-6e" x="859.285156"/>
    <use xlink:href="#DejaVuSans-65" x="922.664062"/>
    <use xlink:href="#DejaVuSans-6e" x="984.1875"/>
    <use xlink:href="#DejaVuSans-74" x="1047.566406"/>
    <use xlink:href="#DejaVuSans-73" x="1086.775391"/>
   </g>
   <!-- System-1 | Normal | GB | Delta | TOTAL -->
   <g style="fill: #262626" transform="translate(151.249531 31.35625)scale(0.14 -0.14)">
    <defs>
     <path id="DejaVuSans-53" d="M 3425 4513 
L 3425 3897 
Q 3066 4069 2747 4153 
Q 2428 4238 2131 4238 
Q 1616 4238 1336 4038 
Q 1056 3838 1056 3469 
Q 1056 3159 1242 3001 
Q 1428 2844 1947 2747 
L 2328 2669 
Q 3034 2534 3370 2195 
Q 3706 1856 3706 1288 
Q 3706 609 3251 259 
Q 2797 -91 1919 -91 
Q 1588 -91 1214 -16 
Q 841 59 441 206 
L 441 856 
Q 825 641 1194 531 
Q 1563 422 1919 422 
Q 2459 422 2753 634 
Q 3047 847 3047 1241 
Q 3047 1584 2836 1778 
Q 2625 1972 2144 2069 
L 1759 2144 
Q 1053 2284 737 2584 
Q 422 2884 422 3419 
Q 422 4038 858 4394 
Q 1294 4750 2059 4750 
Q 2388 4750 2728 4690 
Q 3069 4631 3425 4513 
z
" transform="scale(0.015625)"/>
     <path id="DejaVuSans-2d" d="M 313 2009 
L 1997 2009 
L 1997 1497 
L 313 1497 
L 313 2009 
z
" transform="scale(0.015625)"/>
     <path id="DejaVuSans-7c" d="M 1344 4891 
L 1344 -1509 
L 813 -1509 
L 813 4891 
L 1344 4891 
z
" transform="scale(0.015625)"/>
     <path id="DejaVuSans-4e" d="M 628 4666 
L 1478 4666 
L 3547 763 
L 3547 4666 
L 4159 4666 
L 4159 0 
L 3309 0 
L 1241 3903 
L 1241 0 
L 628 0 
L 628 4666 
z
" transform="scale(0.015625)"/>
     <path id="DejaVuSans-47" d="M 3809 666 
L 3809 1919 
L 2778 1919 
L 2778 2438 
L 4434 2438 
L 4434 434 
Q 4069 175 3628 42 
Q 3188 -91 2688 -91 
Q 1594 -91 976 548 
Q 359 1188 359 2328 
Q 359 3472 976 4111 
Q 1594 4750 2688 4750 
Q 3144 4750 3555 4637 
Q 3966 4525 4313 4306 
L 4313 3634 
Q 3963 3931 3569 4081 
Q 3175 4231 2741 4231 
Q 1884 4231 1454 3753 
Q 1025 3275 1025 2328 
Q 1025 1384 1454 906 
Q 1884 428 2741 428 
Q 3075 428 3337 486 
Q 3600 544 3809 666 
z
" transform="scale(0.015625)"/>
     <path id="DejaVuSans-42" d="M 1259 2228 
L 1259 519 
L 2272 519 
Q 2781 519 3026 730 
Q 3272 941 3272 1375 
Q 3272 1813 3026 2020 
Q 2781 2228 2272 2228 
L 1259 2228 
z
M 1259 4147 
L 1259 2741 
L 2194 2741 
Q 2656 2741 2882 2914 
Q 3109 3088 3109 3444 
Q 3109 3797 2882 3972 
Q 2656 4147 2194 4147 
L 1259 4147 
z
M 628 4666 
L 2241 4666 
Q 2963 4666 3353 4366 
Q 3744 4066 3744 3513 
Q 3744 3084 3544 2831 
Q 3344 2578 2956 2516 
Q 3422 2416 3680 2098 
Q 3938 1781 3938 1306 
Q 3938 681 3513 340 
Q 3088 0 2303 0 
L 628 0 
L 628 4666 
z
" transform="scale(0.015625)"/>
     <path id="DejaVuSans-44" d="M 1259 4147 
L 1259 519 
L 2022 519 
Q 2988 519 3436 956 
Q 3884 1394 3884 2338 
Q 3884 3275 3436 3711 
Q 2988 4147 2022 4147 
L 1259 4147 
z
M 628 4666 
L 1925 4666 
Q 3281 4666 3915 4102 
Q 4550 3538 4550 2338 
Q 4550 1131 3912 565 
Q 3275 0 1925 0 
L 628 0 
L 628 4666 
z
" transform="scale(0.015625)"/>
    </defs>
    <use xlink:href="#DejaVuSans-53"/>
    <use xlink:href="#DejaVuSans-79" x="63.476562"/>
    <use xlink:href="#DejaVuSans-73" x="122.65625"/>
    <use xlink:href="#DejaVuSans-74" x="174.755859"/>
    <use xlink:href="#DejaVuSans-65" x="213.964844"/>
    <use xlink:href="#DejaVuSans-6d" x="275.488281"/>
    <use xlink:href="#DejaVuSans-2d" x="372.900391"/>
    <use xlink:href="#DejaVuSans-31" x="408.984375"/>
    <use xlink:href="#DejaVuSans-20" x="472.607422"/>
    <use xlink:href="#DejaVuSans-7c" x="504.394531"/>
    <use xlink:href="#DejaVuSans-20" x="538.085938"/>
    <use xlink:href="#DejaVuSans-4e" x="569.873047"/>
    <use xlink:href="#DejaVuSans-6f" x="644.677734"/>
    <use xlink:href="#DejaVuSans-72" x="705.859375"/>
    <use xlink:href="#DejaVuSans-6d" x="745.222656"/>
    <use xlink:href="#DejaVuSans-61" x="842.634766"/>
    <use xlink:href="#DejaVuSans-6c" x="903.914062"/>
    <use xlink:href="#DejaVuSans-20" x="931.697266"/>
    <use xlink:href="#DejaVuSans-7c" x="963.484375"/>
    <use xlink:href="#DejaVuSans-20" x="997.175781"/>
    <use xlink:href="#DejaVuSans-47" x="1028.962891"/>
    <use xlink:href="#DejaVuSans-42" x="1106.453125"/>
    <use xlink:href="#DejaVuSans-20" x="1175.056641"/>
    <use xlink:href="#DejaVuSans-7c" x="1206.84375"/>
    <use xlink:href="#DejaVuSans-20" x="1240.535156"/>
    <use xlink:href="#DejaVuSans-44" x="1272.322266"/>
    <use xlink:href="#DejaVuSans-65" x="1349.324219"/>
    <use xlink:href="#DejaVuSans-6c" x="1410.847656"/>
    <use xlink:href="#DejaVuSans-74" x="1438.630859"/>
    <use xlink:href="#DejaVuSans-61" x="1477.839844"/>
    <use xlink:href="#DejaVuSans-20" x="1539.119141"/>
    <use xlink:href="#DejaVuSans-7c" x="1570.90625"/>
    <use xlink:href="#DejaVuSans-20" x="1604.597656"/>
    <use xlink:href="#DejaVuSans-54" x="1636.384766"/>
    <use xlink:href="#DejaVuSans-4f" x="1697.46875"/>
    <use xlink:href="#DejaVuSans-54" x="1776.179688"/>
    <use xlink:href="#DejaVuSans-41" x="1829.513672"/>
    <use xlink:href="#DejaVuSans-4c" x="1897.921875"/>
   </g>
  </g>
 </g>
 <defs>
  <clipPath id="pfb920da2e8">
   <rect x="65.540937" y="59.154816" width="485.214031" height="141.493309"/>
  </clipPath>
 </defs>
</svg>
